# Pieza del RoverModificado
mtllib Rover.mtl
o BaseBrazo
v 0.000001 1.471000 -0.311850
v 0.000001 1.471000 0.311848
v 0.108492 1.449420 -0.311850
v 0.108492 1.449420 0.311848
v 0.200466 1.387966 -0.311850
v 0.200466 1.387966 0.311848
v 0.261921 1.295991 -0.311850
v 0.261921 1.295990 0.311848
v 0.283501 1.187500 -0.311850
v 0.283501 1.187500 0.311848
v 0.261921 0.983893 -0.311850
v 0.261921 0.983893 0.311850
v 0.200466 0.983893 -0.311850
v 0.200466 0.983893 0.311850
v 0.108492 0.983893 -0.311850
v 0.108492 0.983893 0.311850
v 0.000001 0.971500 -0.311850
v 0.000001 0.971500 0.311850
v -0.108490 0.983893 -0.311850
v -0.108490 0.983893 0.311850
v -0.200464 0.983893 -0.311850
v -0.200464 0.983893 0.311850
v -0.261919 0.983893 -0.311850
v -0.261919 0.983893 0.311850
v -0.283499 1.187500 -0.311850
v -0.283499 1.187500 0.311848
v -0.261919 1.295991 -0.311850
v -0.261919 1.295991 0.311848
v -0.200464 1.387966 -0.311850
v -0.200464 1.387966 0.311848
v -0.108490 1.449420 -0.311850
v -0.108490 1.449420 0.311848
v 0.000001 1.403501 0.311848
v -0.215999 1.187500 0.311848
v 0.216001 1.187500 0.311848
v -0.199557 1.104842 0.311850
v -0.152734 1.034766 0.311850
v -0.199557 1.270160 0.311848
v -0.152734 1.340236 0.311848
v -0.082659 1.387060 0.311848
v 0.152736 1.340236 0.311848
v 0.082661 1.387059 0.311848
v -0.082659 0.987942 0.311850
v 0.082661 0.987942 0.311850
v 0.199559 1.270160 0.311848
v 0.199559 1.104842 0.311850
v 0.152736 1.034766 0.311850
v 0.082661 1.387059 -0.311850
v 0.199559 1.104842 -0.311850
v -0.082659 0.987942 -0.311850
v -0.199557 1.270160 -0.311850
v -0.082659 1.387060 -0.311850
v 0.000001 1.403501 -0.311850
v 0.082661 0.987942 -0.311850
v 0.152736 1.340236 -0.311850
v 0.216001 1.187500 -0.311850
v 0.199559 1.270160 -0.311850
v 0.152736 1.034766 -0.311850
v -0.215999 1.187500 -0.311850
v -0.152734 1.034766 -0.311850
v -0.199557 1.104842 -0.311850
v -0.152734 1.340236 -0.311850
v 0.000001 1.471000 -0.105924
v 0.108492 1.449420 -0.105924
v -0.261919 0.983893 -0.105924
v -0.200464 0.983893 -0.105924
v 0.200466 1.387966 -0.105924
v -0.283499 1.187500 -0.105924
v 0.261921 1.295991 -0.105924
v -0.261919 1.295991 -0.105924
v 0.283501 1.187500 -0.105924
v -0.200464 1.387966 -0.105924
v 0.261921 0.983893 -0.105924
v -0.108490 1.449420 -0.105924
v 0.200466 0.983893 -0.105924
v 0.108492 0.983893 -0.105924
v 0.000001 0.971500 -0.105924
v -0.108490 0.983893 -0.105924
v 0.000001 1.471000 0.105924
v 0.108492 1.449420 0.105924
v -0.261919 0.983893 0.105925
v -0.200464 0.983893 0.105925
v 0.200466 1.387966 0.105924
v -0.283499 1.187500 0.105924
v 0.261921 1.295991 0.105924
v -0.261919 1.295991 0.105924
v 0.283501 1.187500 0.105924
v -0.200464 1.387966 0.105924
v 0.261921 0.983893 0.105925
v -0.108490 1.449420 0.105924
v 0.200466 0.983893 0.105925
v 0.108492 0.983893 0.105925
v 0.000001 0.971500 0.105925
v -0.108490 0.983893 0.105925
v 0.082661 1.387059 -0.105924
v 0.199559 1.104842 -0.105924
v 0.216001 1.187500 -0.105924
v 0.082661 0.987942 -0.105924
v 0.000001 1.403501 -0.105924
v -0.082659 1.387060 -0.105924
v -0.199557 1.104842 -0.105924
v -0.152734 1.034766 -0.105924
v 0.152736 1.340236 -0.105924
v -0.152734 1.340236 -0.105924
v 0.199559 1.270160 -0.105924
v 0.152736 1.034766 -0.105924
v -0.082659 0.987942 -0.105924
v -0.215999 1.187500 -0.105924
v -0.199557 1.270160 -0.105924
v 0.082661 1.387059 0.105924
v 0.199559 1.104842 0.105925
v 0.216001 1.187500 0.105924
v 0.082661 0.987942 0.105925
v 0.000001 1.403501 0.105924
v -0.082659 1.387060 0.105924
v -0.199557 1.104842 0.105925
v -0.152734 1.034766 0.105925
v 0.152736 1.340236 0.105924
v -0.152734 1.340236 0.105924
v 0.199559 1.270160 0.105924
v 0.152736 1.034766 0.105925
v -0.082659 0.987942 0.105925
v -0.215999 1.187500 0.105924
v -0.199557 1.270160 0.105924
v 0.261921 0.683894 -0.311850
v 0.200466 0.683894 -0.311850
v 0.261921 0.683894 0.311850
v 0.200466 0.683894 0.311850
v 0.108492 0.683894 -0.311850
v 0.108492 0.683894 0.311850
v 0.000001 0.683894 -0.311850
v 0.000001 0.683894 0.311850
v -0.108490 0.683894 -0.311850
v -0.108490 0.683894 0.311850
v -0.200464 0.683894 -0.311850
v -0.200464 0.683894 0.311850
v -0.261919 0.683894 -0.311850
v -0.261919 0.683894 0.311850
v -0.261919 0.683894 0.105925
v -0.200464 0.683894 0.105925
v 0.261921 0.683894 0.105925
v 0.200466 0.683894 0.105925
v 0.108492 0.683894 0.105925
v 0.000001 0.683894 0.105925
v -0.108490 0.683894 0.105925
v -0.261919 0.683894 -0.105924
v -0.200464 0.683894 -0.105924
v 0.261921 0.683894 -0.105924
v 0.200466 0.683894 -0.105924
v 0.108492 0.683894 -0.105924
v 0.000001 0.683894 -0.105924
v -0.108490 0.683894 -0.105924
v -0.256900 0.387500 0.499999
v -0.499999 0.387500 0.256901
v -0.428797 0.387500 0.428798
v -0.499999 0.683864 0.256901
v -0.256900 0.683864 0.499999
v -0.428797 0.683864 0.428798
v -0.499999 0.387500 -0.256900
v -0.256900 0.387500 -0.500000
v -0.428797 0.387500 -0.428798
v -0.256900 0.683864 -0.500000
v -0.499999 0.683864 -0.256900
v -0.428797 0.683864 -0.428798
v 0.500001 0.387500 0.256901
v 0.256902 0.387500 0.499999
v 0.428799 0.387500 0.428798
v 0.256902 0.683864 0.499999
v 0.500001 0.683864 0.256901
v 0.428799 0.683864 0.428798
v 0.256902 0.387500 -0.500000
v 0.500001 0.387500 -0.256900
v 0.428799 0.387500 -0.428798
v 0.500001 0.683864 -0.256900
v 0.256902 0.683864 -0.500000
v 0.428799 0.683864 -0.428798
v 0.000001 0.387500 -0.299999
v 0.114806 0.387500 -0.277164
v 0.212133 0.387500 -0.212132
v 0.277165 0.387500 -0.114804
v 0.300001 0.387500 0.000000
v 0.277165 0.387500 0.114805
v 0.212133 0.387500 0.212132
v 0.114806 0.387500 0.277164
v 0.000001 0.387500 0.300000
v -0.114804 0.387500 0.277164
v -0.212131 0.387500 0.212132
v -0.277163 0.387500 0.114805
v -0.299999 0.387500 0.000000
v -0.277163 0.387500 -0.114804
v -0.212131 0.387500 -0.212132
v -0.114804 0.387500 -0.277164
v 0.000001 0.187500 -0.299999
v 0.114806 0.187500 -0.277164
v 0.212133 0.187500 -0.212132
v 0.277165 0.187500 -0.114804
v 0.300001 0.187500 0.000000
v 0.277165 0.187500 0.114805
v 0.212133 0.187500 0.212132
v 0.114806 0.187500 0.277164
v 0.000001 0.187500 0.300000
v -0.114804 0.187500 0.277164
v -0.212131 0.187500 0.212132
v -0.277163 0.187500 0.114805
v -0.299999 0.187500 0.000000
v -0.277163 0.187500 -0.114804
v -0.212131 0.187500 -0.212132
v -0.114804 0.187500 -0.277164
v 0.000001 -0.312501 -0.299999
v 0.114806 -0.312501 -0.277164
v 0.212133 -0.312501 -0.212132
v 0.277165 -0.312501 -0.114804
v 0.300001 -0.312501 0.000000
v 0.277165 -0.312501 0.114805
v 0.212133 -0.312501 0.212132
v 0.114806 -0.312501 0.277164
v 0.000001 -0.312501 0.300000
v -0.114804 -0.312501 0.277164
v -0.212131 -0.312501 0.212132
v -0.277163 -0.312501 0.114805
v -0.299999 -0.312501 0.000000
v -0.277163 -0.312501 -0.114804
v -0.212131 -0.312501 -0.212132
v -0.114804 -0.312501 -0.277164
v 0.000001 0.187500 -0.299999
v 0.114806 0.187500 -0.277164
v 0.212133 0.187500 -0.212132
v 0.277165 0.187500 -0.114804
v 0.300001 0.187500 0.000000
v 0.277165 0.187500 0.114805
v 0.212133 0.187500 0.212132
v 0.114806 0.187500 0.277164
v 0.000001 0.187500 0.300000
v -0.114804 0.187500 0.277164
v -0.212131 0.187500 0.212132
v -0.277163 0.187500 0.114805
v -0.299999 0.187500 0.000000
v -0.277163 0.187500 -0.114804
v -0.212131 0.187500 -0.212132
v -0.114804 0.187500 -0.277164
v 0.172208 0.312500 -0.415746
v 0.172208 -0.307499 -0.415746
v 0.318199 -0.307499 -0.318198
v 0.318199 0.312500 -0.318198
v 0.415747 0.312500 0.172207
v 0.415747 -0.307499 0.172207
v 0.318199 -0.307499 0.318198
v 0.318199 0.312500 0.318198
v -0.172207 0.312500 0.415746
v -0.172207 -0.307499 0.415746
v -0.318197 -0.307499 0.318198
v -0.318197 0.312500 0.318198
v -0.415745 0.312500 -0.172208
v -0.415745 -0.307499 -0.172208
v -0.318197 -0.307499 -0.318198
v -0.318197 0.312500 -0.318198
v 0.258312 0.307500 -0.623619
v 0.258312 -0.312500 -0.623619
v 0.477298 -0.312500 -0.477297
v 0.477298 0.307500 -0.477297
v 0.623619 0.307500 0.258311
v 0.623619 -0.312500 0.258311
v 0.477298 -0.312500 0.477297
v 0.477298 0.307500 0.477297
v -0.258310 0.307500 0.623618
v -0.258310 -0.312500 0.623618
v -0.477296 -0.312500 0.477297
v -0.477296 0.307500 0.477297
v -0.623618 0.307500 -0.258312
v -0.623618 -0.312500 -0.258311
v -0.477296 -0.312500 -0.477297
v -0.477296 0.307500 -0.477297
v 0.114806 -0.137500 -0.277164
v 0.212133 -0.137500 -0.212132
v 0.277165 -0.137500 -0.114804
v 0.300001 -0.137500 0.000000
v 0.277165 -0.137500 0.114805
v 0.212133 -0.137500 0.212132
v 0.114806 -0.137500 0.277164
v 0.000001 -0.137500 0.300000
v -0.114804 -0.137500 0.277164
v -0.212131 -0.137500 0.212132
v -0.277163 -0.137500 0.114805
v -0.299999 -0.137500 0.000000
v -0.277163 -0.137500 -0.114804
v -0.212131 -0.137500 -0.212132
v -0.114804 -0.137500 -0.277164
v 0.000001 -0.137500 -0.299999
v 0.172208 -0.090499 -0.415746
v 0.318199 -0.090499 -0.318198
v 0.415747 -0.090499 0.172207
v 0.318199 -0.090499 0.318198
v -0.172207 -0.090499 0.415746
v -0.318197 -0.090499 0.318198
v -0.415745 -0.090499 -0.172208
v -0.318197 -0.090499 -0.318198
v 0.258312 -0.095500 -0.623619
v 0.477298 -0.095500 -0.477297
v 0.623619 -0.095500 0.258311
v 0.477298 -0.095500 0.477297
v -0.258310 -0.095500 0.623618
v -0.477296 -0.095500 0.477297
v -0.623618 -0.095500 -0.258312
v -0.477296 -0.095500 -0.477297
vt 0.137046 0.774263
vt 0.174826 0.707327
vt 0.175448 0.773904
vt 0.133831 0.429874
vt 0.171612 0.362938
vt 0.172233 0.429515
vt 0.103558 0.561683
vt 0.126956 0.681827
vt 0.006396 0.660676
vt 0.135974 0.659467
vt 0.173755 0.592530
vt 0.174376 0.659108
vt 0.134902 0.544670
vt 0.172683 0.477734
vt 0.173305 0.544312
vt 0.136424 0.707685
vt 0.174601 0.683218
vt 0.136199 0.683576
vt 0.135127 0.568780
vt 0.173530 0.568421
vt 0.135353 0.592889
vt 0.134056 0.453983
vt 0.172458 0.453625
vt 0.134281 0.478093
vt 0.137271 0.798372
vt 0.175673 0.798014
vt 0.137496 0.822482
vt 0.271539 0.560115
vt 0.294936 0.680259
vt 0.206120 0.265816
vt 0.190699 0.283868
vt 0.190699 0.265816
vt 0.206120 0.283868
vt 0.190699 0.301919
vt 0.206120 0.301919
vt 0.190699 0.319971
vt 0.206120 0.319971
vt 0.190699 0.338023
vt 0.206120 0.338023
vt 0.190699 0.356074
vt 0.206120 0.356074
vt 0.190699 0.374126
vt 0.206120 0.374126
vt 0.190699 0.392177
vt 0.206120 0.392177
vt 0.190699 0.410229
vt 0.206120 0.410229
vt 0.190699 0.428280
vt 0.206120 0.428280
vt 0.190699 0.446332
vt 0.206120 0.446332
vt 0.190699 0.464384
vt 0.206120 0.464384
vt 0.190699 0.482435
vt 0.206120 0.482435
vt 0.190699 0.500487
vt 0.206120 0.500487
vt 0.190699 0.518538
vt 0.206120 0.518538
vt 0.190699 0.536590
vt 0.206120 0.536590
vt 0.190699 0.554642
vt 0.300277 0.221770
vt 0.270920 0.140260
vt 0.300277 0.140260
vt 0.329634 0.221770
vt 0.329634 0.140260
vt 0.232095 0.197909
vt 0.199160 0.136912
vt 0.232075 0.126588
vt 0.178839 0.028623
vt 0.260349 -0.000735
vt 0.260349 0.028623
vt 0.178839 0.057980
vt 0.260349 0.057980
vt 0.178839 0.087337
vt 0.260349 0.087337
vt 0.135972 0.316915
vt 0.103851 0.274559
vt 0.142382 0.274548
vt 0.301090 0.057980
vt 0.219580 0.087337
vt 0.219580 0.057980
vt 0.301090 0.028623
vt 0.219580 0.028623
vt 0.301090 -0.000735
vt 0.219580 -0.000735
vt 0.234287 0.199748
vt 0.201352 0.138751
vt 0.234266 0.128427
vt 0.270138 0.221403
vt 0.240781 0.139894
vt 0.270138 0.139893
vt 0.299496 0.221403
vt 0.299496 0.139893
vt 0.328853 0.221403
vt 0.328853 0.139893
vt 0.109535 0.317816
vt 0.141632 0.275441
vt 0.135223 0.317808
vt 0.270920 0.221770
vt 0.241563 0.140260
vt 0.198411 0.137805
vt 0.149060 0.225160
vt 0.149034 0.136722
vt 0.233537 0.200641
vt 0.200603 0.139644
vt 0.233517 0.129320
vt 0.231346 0.198802
vt 0.231325 0.127481
vt 0.133031 0.315969
vt 0.100910 0.273613
vt 0.139441 0.273602
vt 0.108093 0.315083
vt 0.140190 0.272709
vt 0.133780 0.315076
vt 0.091238 0.136738
vt 0.151251 0.226999
vt 0.093429 0.138577
vt 0.151226 0.138561
vt 0.149809 0.224267
vt 0.091987 0.135845
vt 0.149784 0.135829
vt 0.152001 0.226106
vt 0.094179 0.137684
vt 0.151975 0.137668
vt 0.103101 0.275452
vt 0.101659 0.272720
vt 0.044054 0.139689
vt 0.093455 0.227015
vt 0.044079 0.228127
vt 0.042611 0.136956
vt 0.092012 0.224283
vt 0.042636 0.225395
vt 0.041862 0.137850
vt 0.091263 0.225176
vt 0.041887 0.226288
vt 0.008962 0.198866
vt 0.011154 0.200705
vt 0.009711 0.197973
vt 0.011903 0.199812
vt 0.044803 0.138796
vt 0.044828 0.227234
vt 0.094204 0.226122
vt 0.201338 0.091130
vt 0.234255 0.090023
vt 0.133209 0.363296
vt 0.005774 0.594099
vt 0.014792 0.571738
vt 0.036981 0.562304
vt 0.125918 0.570701
vt 0.104768 0.691261
vt 0.038190 0.691882
vt 0.015830 0.682864
vt 0.175898 0.822123
vt 0.182773 0.570170
vt 0.204961 0.560736
vt 0.293899 0.569133
vt 0.303333 0.591321
vt 0.303955 0.657898
vt 0.272748 0.689693
vt 0.206171 0.690315
vt 0.183811 0.681296
vt 0.206120 0.554642
vt 0.199186 0.225350
vt 0.178839 -0.000735
vt 0.110285 0.316922
vt 0.301090 0.087337
vt 0.201377 0.227189
vt 0.240781 0.221403
vt 0.241563 0.221770
vt 0.198436 0.226243
vt 0.200628 0.228082
vt 0.107344 0.315976
vt 0.008941 0.127545
vt 0.011133 0.129384
vt 0.009691 0.126652
vt 0.011883 0.128491
vt 0.215273 0.397490
vt 0.242840 0.382682
vt 0.242840 0.397490
vt 0.215273 0.382682
vt 0.242840 0.367874
vt 0.215273 0.367874
vt 0.242840 0.353066
vt 0.215273 0.353066
vt 0.242840 0.338258
vt 0.215273 0.338258
vt 0.242840 0.310849
vt 0.082749 0.751077
vt 0.097524 0.702885
vt 0.097524 0.751077
vt 0.094401 0.920835
vt 0.017398 0.891788
vt 0.097719 0.891788
vt 0.065510 0.748880
vt 0.047270 0.699360
vt 0.065946 0.699129
vt 0.107397 0.702885
vt 0.107396 0.751077
vt 0.096997 0.375052
vt 0.019051 0.342924
vt 0.019051 0.375052
vt 0.092912 0.920835
vt 0.015909 0.891788
vt 0.096229 0.891788
vt 0.215273 0.484131
vt 0.242840 0.456721
vt 0.242840 0.484131
vt 0.215273 0.456721
vt 0.242840 0.441913
vt 0.215273 0.441913
vt 0.242840 0.427105
vt 0.226645 0.920835
vt 0.204414 0.974506
vt 0.204171 0.942966
vt 0.096229 0.974506
vt 0.128612 0.974264
vt 0.150742 0.978666
vt 0.215273 0.427105
vt 0.242840 0.412298
vt 0.215273 0.412298
vt 0.181278 0.990960
vt 0.097719 0.974507
vt 0.152232 0.978666
vt 0.181278 0.850710
vt 0.222357 0.891788
vt 0.193124 0.879942
vt 0.096997 0.444365
vt 0.019051 0.432518
vt 0.019051 0.444365
vt 0.096997 0.432518
vt 0.019051 0.420672
vt 0.096997 0.408825
vt 0.019051 0.408825
vt 0.019051 0.396979
vt 0.096997 0.396979
vt 0.085027 0.698933
vt 0.084278 0.750914
vt 0.017398 0.949882
vt 0.017398 0.920835
vt 0.101299 0.698952
vt 0.098986 0.750931
vt 0.015909 0.867163
vt 0.096229 0.867163
vt 0.109196 0.698933
vt 0.110572 0.751919
vt 0.097719 0.949882
vt 0.019051 0.513677
vt 0.096997 0.491750
vt 0.019051 0.491750
vt 0.019051 0.479904
vt 0.096997 0.479904
vt 0.019051 0.468057
vt 0.096997 0.468057
vt 0.019051 0.456211
vt 0.096997 0.456211
vt 0.079580 0.751590
vt 0.055251 0.815956
vt 0.066445 0.815483
vt 0.053974 0.824672
vt 0.044816 0.812409
vt 0.082195 0.818889
vt 0.077076 0.810921
vt 0.085794 0.802407
vt 0.068339 0.824334
vt 0.040570 0.820096
vt 0.029537 0.811135
vt 0.036313 0.805365
vt 0.022103 0.798647
vt 0.030807 0.795544
vt 0.093983 0.808435
vt 0.091191 0.790388
vt 0.029214 0.783856
vt 0.019234 0.783620
vt 0.102150 0.793236
vt 0.091793 0.775964
vt 0.032028 0.770640
vt 0.021598 0.750802
vt 0.087012 0.761615
vt 0.039857 0.759217
vt 0.031889 0.750746
vt 0.051609 0.751543
vt 0.080104 0.751932
vt 0.047284 0.750838
vt 0.090932 0.751038
vt 0.097719 0.867163
vt 0.130101 0.867406
vt 0.047893 0.751077
vt 0.065321 0.749086
vt 0.052043 0.751728
vt 0.078600 0.751728
vt 0.033118 0.751077
vt 0.040786 0.759249
vt 0.023246 0.751077
vt 0.089857 0.759250
vt 0.082749 0.825860
vt 0.078600 0.815842
vt 0.089857 0.808321
vt 0.033264 0.770506
vt 0.097379 0.770507
vt 0.110863 0.783785
vt 0.019779 0.783785
vt 0.030623 0.783785
vt 0.100020 0.783785
vt 0.023246 0.801213
vt 0.107396 0.801213
vt 0.033264 0.797064
vt 0.097379 0.797064
vt 0.040786 0.808321
vt 0.033118 0.815988
vt 0.097524 0.815988
vt 0.047893 0.825860
vt 0.052043 0.815842
vt 0.065321 0.818484
vt 0.065321 0.829327
vt 0.015909 0.949882
vt 0.015909 0.920835
vt 0.082749 0.702885
vt 0.215273 0.524291
vt 0.031538 0.699549
vt 0.017398 0.867163
vt 0.047893 0.702885
vt 0.065321 0.702885
vt 0.096229 0.949882
vt 0.017398 0.850710
vt 0.097719 0.850710
vt 0.033118 0.702885
vt 0.096997 0.545806
vt 0.096997 0.513677
vt 0.096229 0.990960
vt 0.015909 0.974506
vt 0.215273 0.310849
vt 0.242840 0.270688
vt 0.097719 0.990960
vt 0.017398 0.974506
vt 0.015909 0.850710
vt 0.096229 0.850710
vt 0.179789 0.850710
vt 0.172873 0.867406
vt 0.150742 0.863004
vt 0.096997 0.342924
vt 0.208573 0.920835
vt 0.220868 0.949882
vt 0.191635 0.961727
vt 0.172873 0.974264
vt 0.179789 0.990960
vt 0.150742 0.996738
vt 0.097314 0.942966
vt 0.109850 0.961727
vt 0.210063 0.920835
vt 0.205660 0.898704
vt 0.228135 0.920835
vt 0.222357 0.949882
vt 0.205903 0.974506
vt 0.152231 0.996738
vt 0.205660 0.942966
vt 0.098803 0.942966
vt 0.111339 0.961727
vt 0.193124 0.961727
vt 0.130101 0.974264
vt 0.174362 0.974264
vt 0.174362 0.867406
vt 0.205903 0.867163
vt 0.096997 0.420672
vt 0.098803 0.898704
vt 0.152231 0.844932
vt 0.111339 0.879942
vt 0.152232 0.863004
vt 0.242840 0.524291
vt 0.021061 0.699659
vt 0.023246 0.702885
vt 0.019051 0.545806
vt 0.015909 0.990960
vt 0.215273 0.270688
vt 0.017398 0.990960
vt 0.097314 0.898704
vt 0.150742 0.844932
vt 0.109850 0.879942
vt 0.204414 0.867163
vt 0.220868 0.891788
vt 0.204171 0.898704
vt 0.128611 0.867406
vt 0.191635 0.879942
vt 0.044789 0.091175
vt 0.042598 0.089336
vt 0.044040 0.092068
vt 0.041848 0.090229
vt 0.151962 0.090047
vt 0.200589 0.092023
vt 0.151213 0.090940
vt 0.199147 0.089291
vt 0.149770 0.088208
vt 0.094165 0.090064
vt 0.091973 0.088225
vt 0.093416 0.090957
vt 0.091224 0.089118
vt 0.149021 0.089101
vt 0.198397 0.090184
vt 0.231314 0.089077
vt 0.233506 0.090917
vt 0.241563 0.096370
vt 0.270920 0.096370
vt 0.299496 0.096004
vt 0.328853 0.096004
vt 0.270138 0.096004
vt 0.240781 0.096004
vt 0.175690 0.028623
vt 0.175690 -0.000735
vt 0.175690 0.057980
vt 0.175690 0.087337
vt 0.304239 0.057980
vt 0.304239 0.087337
vt 0.304239 0.028623
vt 0.304239 -0.000735
vt 0.232064 0.088184
vt 0.300277 0.096370
vt 0.329634 0.096370
vt 0.011872 0.090087
vt 0.009680 0.088248
vt 0.011122 0.090980
vt 0.008930 0.089141
vn 0.7071 -0.0000 -0.7071
vn -0.7071 -0.0000 -0.7071
vn 0.7071 -0.0000 0.7071
vn -0.7071 -0.0000 0.7071
vn -0.0000 -0.0000 1.0000
vn 0.7071 0.7071 -0.0000
vn -0.7071 0.7071 -0.0000
vn -0.0000 1.0000 -0.0000
vn 1.0000 -0.0000 -0.0000
vn -0.0000 -1.0000 -0.0000
vn -0.0000 -0.0000 -1.0000
vn -1.0000 -0.0000 -0.0000
vn 0.5556 -0.0000 0.8315
vn 0.1951 -0.0000 0.9808
vn 0.8315 -0.0000 -0.5556
vn 0.9808 -0.0000 -0.1951
vn 0.9808 -0.0000 0.1951
vn 0.8315 -0.0000 0.5556
vn -0.9808 -0.0000 -0.1951
vn -0.8315 -0.0000 -0.5556
vn -0.1951 -0.0000 0.9808
vn -0.5556 -0.0000 0.8315
vn -0.5556 -0.0000 -0.8315
vn -0.1951 -0.0000 -0.9808
vn -0.8315 -0.0000 0.5556
vn -0.9808 -0.0000 0.1951
vn 0.1951 -0.0000 -0.9808
vn 0.5556 -0.0000 -0.8315
vn 0.9239 -0.0000 -0.3827
vn 0.3827 -0.0000 -0.9239
vn -0.3827 -0.0000 -0.9239
vn -0.9239 -0.0000 -0.3827
vn 0.9239 -0.0000 0.3827
vn 0.3827 -0.0000 0.9239
vn -0.3827 -0.0000 0.9239
vn -0.9239 -0.0000 0.3827
vn 0.9239 0.3827 -0.0000
vn 0.3827 0.9239 -0.0000
vn -0.3827 0.9239 -0.0000
vn -0.9239 0.3827 -0.0000
vn -0.0001 -0.0000 1.0000
vn -0.3597 0.7621 0.5384
vn 0.3597 0.7621 -0.5384
vn 0.5384 0.7621 0.3597
vn -0.5384 0.7621 -0.3597
vn -0.0188 0.9997 -0.0126
vn -0.0126 0.9997 0.0188
vn 0.0188 0.9997 0.0126
vn 0.0126 0.9997 -0.0188
vn 0.9990 0.0454 -0.0000
vn 0.9986 -0.0528 -0.0000
vn -0.9986 -0.0528 -0.0000
vn -0.9990 0.0454 -0.0000
vn 0.0001 -0.0000 1.0000
usemtl SpacialRoverExploreralumWhite
f 168/1/14 153/2/21 166/3/14
f 174/4/16 165/5/17 172/6/16
f 162/7/8 158/8/8 169/9/8
f 156/10/26 159/11/19 154/12/26
f 162/13/24 171/14/27 160/15/24
f 157/16/21 155/17/35 153/2/21
f 158/18/36 154/12/26 155/17/36
f 160/15/24 164/19/31 162/13/24
f 161/20/32 163/21/19 164/19/32
f 172/6/16 176/22/29 174/4/16
f 173/23/30 175/24/27 176/22/30
f 166/3/14 170/25/34 168/1/14
f 167/26/33 169/27/17 170/25/33
f 171/28/10 167/29/10 154/12/10
f 177/30/11 194/31/30 193/32/11
f 178/33/30 195/34/1 194/31/30
f 179/35/1 196/36/29 195/34/1
f 180/37/29 197/38/9 196/36/29
f 181/39/9 198/40/33 197/38/9
f 182/41/33 199/42/3 198/40/33
f 183/43/3 200/44/34 199/42/3
f 184/45/34 201/46/5 200/44/34
f 185/47/5 202/48/35 201/46/5
f 186/49/35 203/50/4 202/48/35
f 187/51/4 204/52/36 203/50/4
f 188/53/36 205/54/12 204/52/36
f 189/55/12 206/56/32 205/54/12
f 190/57/32 207/58/2 206/56/32
f 191/59/2 208/60/31 207/58/2
f 192/61/31 193/62/11 208/60/31
f 240/63/31 288/64/11 287/65/31
f 239/66/23 287/65/31 286/67/23
f 230/68/30 291/69/30 277/70/30
f 237/71/12 285/72/19 284/73/12
f 236/74/36 284/73/12 283/75/36
f 235/76/25 283/75/36 282/77/25
f 226/78/42 244/79/42 241/80/42
f 233/81/5 281/82/21 280/83/5
f 232/84/34 280/83/5 279/85/34
f 231/86/13 279/85/34 278/87/13
f 226/88/32 289/89/32 273/90/32
f 229/91/9 277/92/17 276/93/9
f 228/94/29 276/93/9 275/95/29
f 227/96/15 275/95/29 274/97/15
f 235/98/43 249/99/43 234/100/43
f 225/101/11 273/102/27 288/64/11
f 295/103/35 269/104/35 303/105/35
f 234/106/33 293/107/33 281/108/33
f 238/109/35 295/103/35 285/110/35
f 238/111/44 256/112/44 253/113/44
f 231/114/45 245/115/45 230/116/45
f 269/104/20 304/117/20 303/105/20
f 265/118/22 302/119/22 301/120/22
f 261/121/18 300/122/18 299/123/18
f 257/124/28 298/125/28 297/126/28
f 291/69/30 261/121/30 299/123/30
f 256/112/46 269/104/46 253/113/46
f 252/127/47 265/118/47 249/99/47
f 293/107/33 265/118/33 301/120/33
f 248/128/48 261/121/48 245/115/48
f 289/89/32 257/124/32 297/126/32
f 244/79/49 257/124/49 241/80/49
f 294/129/2 268/130/2 252/131/2
f 292/132/4 264/133/4 248/134/4
f 296/135/1 272/136/1 256/137/1
f 239/138/1 296/135/1 256/137/1
f 235/139/2 294/129/2 252/131/2
f 231/140/4 292/132/4 248/134/4
f 227/141/3 290/142/3 244/143/3
f 290/142/3 260/144/3 244/143/3
f 273/90/32 242/145/32 210/146/32
f 168/1/14 157/16/21 153/2/21
f 174/4/16 169/147/17 165/5/17
f 169/9/8 174/148/8 176/149/8
f 176/149/8 175/150/8 162/7/8
f 162/7/8 164/151/8 163/21/8
f 163/21/8 156/10/8 158/8/8
f 158/8/8 157/152/8 168/153/8
f 168/153/8 170/154/8 169/9/8
f 169/9/8 176/149/8 162/7/8
f 162/7/8 163/21/8 158/8/8
f 158/8/8 168/153/8 169/9/8
f 156/10/26 163/21/19 159/11/19
f 162/13/24 175/24/27 171/14/27
f 157/16/21 158/18/35 155/17/35
f 158/18/36 156/10/26 154/12/26
f 160/15/24 161/20/31 164/19/31
f 161/20/32 159/11/19 163/21/19
f 172/6/16 173/23/29 176/22/29
f 173/23/30 171/14/27 175/24/27
f 166/3/14 167/26/34 170/25/34
f 167/26/33 165/155/17 169/27/17
f 154/12/10 159/11/10 161/156/10
f 161/156/10 160/157/10 171/28/10
f 171/28/10 173/158/10 172/159/10
f 172/159/10 165/160/10 167/29/10
f 167/29/10 166/161/10 153/162/10
f 153/162/10 155/163/10 154/12/10
f 154/12/10 161/156/10 171/28/10
f 171/28/10 172/159/10 167/29/10
f 167/29/10 153/162/10 154/12/10
f 177/30/11 178/33/30 194/31/30
f 178/33/30 179/35/1 195/34/1
f 179/35/1 180/37/29 196/36/29
f 180/37/29 181/39/9 197/38/9
f 181/39/9 182/41/33 198/40/33
f 182/41/33 183/43/3 199/42/3
f 183/43/3 184/45/34 200/44/34
f 184/45/34 185/47/5 201/46/5
f 185/47/5 186/49/35 202/48/35
f 186/49/35 187/51/4 203/50/4
f 187/51/4 188/53/36 204/52/36
f 188/53/36 189/55/12 205/54/12
f 189/55/12 190/57/32 206/56/32
f 190/57/32 191/59/2 207/58/2
f 191/59/2 192/61/31 208/60/31
f 192/61/31 177/164/11 193/62/11
f 240/63/31 225/101/11 288/64/11
f 239/66/23 240/63/31 287/65/31
f 230/68/30 245/165/30 291/69/30
f 237/71/12 238/166/19 285/72/19
f 236/74/36 237/71/12 284/73/12
f 235/76/25 236/74/36 283/75/36
f 226/78/42 227/167/42 244/79/42
f 233/81/5 234/168/21 281/82/21
f 232/84/34 233/81/5 280/83/5
f 231/86/13 232/84/34 279/85/34
f 226/88/32 241/169/32 289/89/32
f 229/91/9 230/170/17 277/92/17
f 228/94/29 229/91/9 276/93/9
f 227/96/15 228/94/29 275/95/29
f 235/98/43 252/127/43 249/99/43
f 225/101/11 226/171/27 273/102/27
f 295/103/35 253/172/35 269/104/35
f 234/106/33 249/173/33 293/107/33
f 238/109/35 253/172/35 295/103/35
f 238/111/44 239/174/44 256/112/44
f 231/114/45 248/128/45 245/115/45
f 269/104/20 272/136/20 304/117/20
f 265/118/22 268/130/22 302/119/22
f 261/121/18 264/133/18 300/122/18
f 257/124/28 260/144/28 298/125/28
f 291/69/30 245/165/30 261/121/30
f 256/112/46 272/136/46 269/104/46
f 252/127/47 268/130/47 265/118/47
f 293/107/33 249/173/33 265/118/33
f 248/128/48 264/133/48 261/121/48
f 289/89/32 241/169/32 257/124/32
f 244/79/49 260/144/49 257/124/49
f 294/129/2 302/119/2 268/130/2
f 292/132/4 300/122/4 264/133/4
f 296/135/1 304/117/1 272/136/1
f 239/138/1 286/175/1 296/135/1
f 235/139/2 282/176/2 294/129/2
f 231/140/4 278/177/4 292/132/4
f 227/141/3 274/178/3 290/142/3
f 290/142/3 298/125/3 260/144/3
f 273/90/32 289/89/32 242/145/32
usemtl SpacialRoverExploreralumGray
f 2/179/8 80/180/38 79/181/8
f 4/182/38 83/183/6 80/180/38
f 6/184/6 85/185/37 83/183/6
f 8/186/37 87/187/50 85/185/37
f 10/188/50 89/189/51 87/187/50
f 94/190/11 140/191/11 82/192/11
f 17/193/11 133/194/11 19/195/11
f 77/196/5 152/197/5 151/198/5
f 82/192/11 139/199/11 81/200/11
f 73/201/51 125/202/9 11/203/51
f 18/204/5 130/205/5 16/206/5
f 24/207/52 84/208/53 81/209/52
f 26/210/53 86/211/40 84/208/53
f 28/212/40 88/213/7 86/211/40
f 2/214/5 30/215/5 40/216/5
f 22/217/5 36/218/41 34/219/5
f 30/220/7 90/221/39 88/213/7
f 32/222/39 79/181/8 90/221/39
f 7/223/11 13/224/11 56/225/11
f 27/226/11 31/227/11 62/228/11
f 63/229/8 3/230/38 1/231/8
f 64/232/38 5/233/6 3/230/38
f 5/233/6 69/234/37 7/235/37
f 69/234/37 9/236/50 7/235/37
f 71/237/50 11/203/51 9/236/50
f 77/196/5 150/238/5 76/239/5
f 17/193/11 129/240/11 131/241/11
f 76/239/5 149/242/5 75/243/5
f 16/206/5 128/244/5 14/245/5
f 75/243/5 148/246/5 73/247/5
f 13/224/11 129/240/11 15/248/11
f 23/249/52 68/250/53 25/251/53
f 68/250/53 27/252/40 25/251/53
f 70/253/40 29/254/7 27/252/40
f 72/255/7 31/256/39 29/254/7
f 74/257/39 1/231/8 31/256/39
f 98/258/5 77/196/5 76/239/5
f 99/259/5 95/260/5 63/261/5
f 100/262/5 99/259/5 63/261/5
f 67/263/5 103/264/5 105/265/5
f 95/260/5 64/266/5 63/261/5
f 74/267/5 72/268/5 104/269/5
f 67/263/5 64/266/5 103/264/5
f 100/262/5 74/267/5 104/269/5
f 64/266/5 95/260/5 103/264/5
f 72/268/5 70/270/5 109/271/5
f 69/272/5 67/263/5 105/265/5
f 104/269/5 72/268/5 109/271/5
f 105/265/5 97/273/5 69/272/5
f 70/270/5 108/274/5 109/271/5
f 70/270/5 68/275/5 108/274/5
f 97/273/5 71/276/5 69/272/5
f 97/273/5 96/277/5 71/276/5
f 68/275/5 101/278/5 108/274/5
f 96/277/5 73/247/5 71/276/5
f 68/275/5 65/279/5 101/278/5
f 96/277/5 106/280/5 73/247/5
f 65/279/5 102/281/5 101/278/5
f 102/281/5 65/279/5 66/282/5
f 73/247/5 106/280/5 75/243/5
f 107/283/5 102/281/5 66/282/5
f 106/280/5 98/284/5 75/243/5
f 66/282/5 78/285/5 107/283/5
f 75/286/5 98/258/5 76/239/5
f 78/285/5 77/196/5 107/283/5
f 21/287/11 27/226/11 61/288/11
f 74/267/5 100/262/5 63/261/5
f 92/289/11 93/290/11 113/291/11
f 82/192/11 122/292/11 94/190/11
f 91/293/11 92/289/11 113/291/11
f 121/294/11 89/295/11 91/293/11
f 113/291/11 121/294/11 91/293/11
f 81/200/11 117/296/11 82/192/11
f 117/296/11 122/292/11 82/192/11
f 90/297/11 115/298/11 119/299/11
f 89/295/11 121/294/11 111/300/11
f 116/301/11 117/296/11 81/200/11
f 116/301/11 81/200/11 84/302/11
f 87/303/11 89/295/11 111/300/11
f 87/303/11 111/300/11 112/304/11
f 123/305/11 116/301/11 84/302/11
f 85/306/11 87/303/11 112/304/11
f 123/305/11 84/302/11 86/307/11
f 85/306/11 112/304/11 120/308/11
f 124/309/11 123/305/11 86/307/11
f 118/310/11 83/311/11 120/308/11
f 86/307/11 88/312/11 124/309/11
f 88/312/11 119/299/11 124/309/11
f 80/313/11 83/311/11 118/310/11
f 110/314/11 80/313/11 118/310/11
f 88/312/11 90/297/11 119/299/11
f 114/315/11 80/313/11 110/314/11
f 115/298/11 90/297/11 79/316/11
f 83/311/11 85/306/11 120/308/11
f 114/315/11 115/298/11 79/316/11
f 122/292/11 93/290/11 94/190/11
f 79/316/11 80/313/11 114/315/11
f 66/282/5 152/197/5 78/285/5
f 18/204/5 134/317/5 132/318/5
f 93/290/11 145/319/11 94/190/11
f 81/209/52 138/320/12 24/207/52
f 65/279/5 147/321/5 66/282/5
f 19/195/11 135/322/11 21/287/11
f 93/290/11 143/323/11 144/324/11
f 22/217/5 134/317/5 20/325/5
f 91/293/11 143/323/11 92/289/11
f 21/287/11 137/326/11 23/327/11
f 89/295/11 142/328/11 91/293/11
f 23/249/52 146/329/12 65/330/52
f 24/331/5 136/332/5 22/217/5
f 12/333/51 141/334/9 89/189/51
f 11/335/11 126/336/11 13/224/11
f 14/245/5 127/337/5 12/338/5
f 8/339/5 45/340/5 35/341/5
f 2/179/8 4/182/38 80/180/38
f 4/182/38 6/184/6 83/183/6
f 6/184/6 8/186/37 85/185/37
f 8/186/37 10/188/50 87/187/50
f 10/188/50 12/333/51 89/189/51
f 94/190/11 145/319/11 140/191/11
f 17/193/11 131/241/11 133/194/11
f 77/196/5 78/285/5 152/197/5
f 82/192/11 140/191/11 139/199/11
f 73/201/51 148/342/9 125/202/9
f 18/204/5 132/318/5 130/205/5
f 24/207/52 26/210/53 84/208/53
f 26/210/53 28/212/40 86/211/40
f 28/212/40 30/220/7 88/213/7
f 40/216/5 33/343/5 2/214/5
f 2/214/5 32/344/5 30/215/5
f 30/215/5 39/345/5 40/216/5
f 38/346/5 39/345/5 30/215/5
f 30/215/5 28/347/5 26/348/5
f 26/348/5 24/331/5 22/217/5
f 20/325/5 18/204/5 43/349/5
f 38/346/5 30/215/5 26/348/5
f 34/219/5 38/346/5 26/348/5
f 22/217/5 20/325/5 43/349/5
f 22/217/5 43/349/5 37/350/5
f 34/219/5 26/348/5 22/217/5
f 22/217/5 37/350/5 36/218/41
f 30/220/7 32/222/39 90/221/39
f 32/222/39 2/179/8 79/181/8
f 53/351/11 52/352/11 31/227/11
f 31/227/11 1/353/11 3/354/11
f 3/354/11 5/355/11 7/223/11
f 7/223/11 9/356/11 11/335/11
f 7/223/11 11/335/11 13/224/11
f 53/351/11 31/227/11 3/354/11
f 48/357/11 53/351/11 3/354/11
f 15/248/11 17/193/11 54/358/11
f 15/248/11 54/358/11 58/359/11
f 48/357/11 3/354/11 7/223/11
f 55/360/11 48/357/11 7/223/11
f 13/224/11 15/248/11 58/359/11
f 13/224/11 58/359/11 49/361/11
f 57/362/11 55/360/11 7/223/11
f 13/224/11 49/361/11 56/225/11
f 56/225/11 57/362/11 7/223/11
f 62/228/11 51/363/11 27/226/11
f 27/226/11 29/364/11 31/227/11
f 31/227/11 52/352/11 62/228/11
f 63/229/8 64/232/38 3/230/38
f 64/232/38 67/365/6 5/233/6
f 5/233/6 67/365/6 69/234/37
f 69/234/37 71/237/50 9/236/50
f 71/237/50 73/201/51 11/203/51
f 77/196/5 151/198/5 150/238/5
f 17/193/11 15/248/11 129/240/11
f 76/239/5 150/238/5 149/242/5
f 16/206/5 130/205/5 128/244/5
f 75/243/5 149/242/5 148/246/5
f 13/224/11 126/336/11 129/240/11
f 23/249/52 65/330/52 68/250/53
f 68/250/53 70/253/40 27/252/40
f 70/253/40 72/255/7 29/254/7
f 72/255/7 74/257/39 31/256/39
f 74/257/39 63/229/8 1/231/8
f 50/366/11 17/193/11 19/195/11
f 21/287/11 23/327/11 25/367/11
f 50/366/11 19/195/11 21/287/11
f 60/368/11 50/366/11 21/287/11
f 21/287/11 25/367/11 27/226/11
f 27/226/11 51/363/11 59/369/11
f 61/288/11 60/368/11 21/287/11
f 27/226/11 59/369/11 61/288/11
f 66/282/5 147/321/5 152/197/5
f 18/204/5 20/325/5 134/317/5
f 93/290/11 144/324/11 145/319/11
f 81/209/52 139/370/12 138/320/12
f 65/279/5 146/371/5 147/321/5
f 19/195/11 133/194/11 135/322/11
f 93/290/11 92/289/11 143/323/11
f 22/217/5 136/332/5 134/317/5
f 91/293/11 142/328/11 143/323/11
f 21/287/11 135/322/11 137/326/11
f 89/295/11 141/372/11 142/328/11
f 23/249/52 137/373/12 146/329/12
f 24/331/5 138/374/5 136/332/5
f 12/333/51 127/375/9 141/334/9
f 11/335/11 125/376/11 126/336/11
f 14/245/5 128/244/5 127/337/5
f 44/377/5 18/204/5 16/206/5
f 14/245/5 12/338/5 10/378/5
f 44/377/5 16/206/5 14/245/5
f 47/379/5 44/377/5 14/245/5
f 14/245/5 10/378/5 8/339/5
f 8/339/5 6/380/5 4/381/5
f 4/381/5 2/214/5 33/343/5
f 4/381/5 33/343/5 42/382/5
f 46/383/54 47/379/5 14/245/5
f 35/341/5 46/383/54 14/245/5
f 8/339/5 4/381/5 42/382/5
f 8/339/5 42/382/5 41/384/5
f 35/341/5 14/245/5 8/339/5
f 8/339/5 41/384/5 45/340/5
usemtl SpacialRoverExploreralumBlack
f 243/385/3 298/125/3 290/142/3
f 274/178/3 243/385/3 290/142/3
f 278/177/4 247/386/4 292/132/4
f 282/176/2 251/387/2 294/129/2
f 286/175/1 255/388/1 296/135/1
f 255/388/1 304/117/1 296/135/1
f 247/386/4 300/122/4 292/132/4
f 251/387/2 302/119/2 294/129/2
f 242/145/32 297/126/32 258/389/32
f 250/390/33 301/120/33 266/391/33
f 246/392/30 299/123/30 262/393/30
f 297/126/28 259/394/28 258/389/28
f 299/123/18 263/395/18 262/393/18
f 301/120/22 267/396/22 266/391/22
f 303/105/20 271/397/20 270/398/20
f 285/110/35 254/399/35 222/400/35
f 281/108/33 250/390/33 218/401/33
f 254/399/35 303/105/35 270/398/35
f 288/64/11 210/402/27 209/403/11
f 274/97/15 212/404/29 211/405/15
f 275/95/29 213/406/9 212/404/29
f 276/93/9 214/407/17 213/406/9
f 278/87/13 216/408/34 215/409/13
f 279/85/34 217/410/5 216/408/34
f 280/83/5 218/411/21 217/410/5
f 282/77/25 220/412/36 219/413/25
f 283/75/36 221/414/12 220/412/36
f 284/73/12 222/415/19 221/414/12
f 277/70/30 246/392/30 214/416/30
f 286/67/23 224/417/31 223/418/23
f 287/65/31 209/403/11 224/417/31
f 243/385/3 259/394/3 298/125/3
f 274/178/3 211/419/3 243/385/3
f 278/177/4 215/420/4 247/386/4
f 282/176/2 219/421/2 251/387/2
f 286/175/1 223/422/1 255/388/1
f 255/388/1 271/397/1 304/117/1
f 247/386/4 263/395/4 300/122/4
f 251/387/2 267/396/2 302/119/2
f 242/145/32 289/89/32 297/126/32
f 250/390/33 293/107/33 301/120/33
f 246/392/30 291/69/30 299/123/30
f 297/126/28 298/125/28 259/394/28
f 299/123/18 300/122/18 263/395/18
f 301/120/22 302/119/22 267/396/22
f 303/105/20 304/117/20 271/397/20
f 285/110/35 295/103/35 254/399/35
f 281/108/33 293/107/33 250/390/33
f 254/399/35 295/103/35 303/105/35
f 288/64/11 273/102/27 210/402/27
f 274/97/15 275/95/29 212/404/29
f 275/95/29 276/93/9 213/406/9
f 276/93/9 277/92/17 214/407/17
f 278/87/13 279/85/34 216/408/34
f 279/85/34 280/83/5 217/410/5
f 280/83/5 281/82/21 218/411/21
f 282/77/25 283/75/36 220/412/36
f 283/75/36 284/73/12 221/414/12
f 284/73/12 285/72/19 222/415/19
f 277/70/30 291/69/30 246/392/30
f 286/67/23 287/65/31 224/417/31
f 287/65/31 288/64/11 209/403/11
