# Pieza del RoverModificado
mtllib Rover.mtl
o Brazo2
v -0.201380 0.320238 -0.321835
v -0.201380 0.320238 0.319044
v 0.004987 0.303377 -0.321835
v 0.004987 0.303377 0.319044
v 0.246998 -0.207927 -0.321835
v 0.246998 -0.207927 0.319044
v 0.129212 -0.378215 -0.321835
v 0.129212 -0.378215 0.319044
v -0.057938 -0.466797 -0.321835
v -0.057938 -0.466797 0.319044
v -0.264305 -0.449937 -0.321835
v -0.264305 -0.449937 0.319044
v -0.434594 -0.332150 -0.321835
v -0.434594 -0.332150 0.319044
v -0.523176 -0.145001 -0.321835
v -0.523176 -0.145001 0.319044
v -0.506316 0.061366 -0.321835
v -0.506316 0.061366 0.319043
v -0.388530 0.231656 -0.321835
v -0.388530 0.231656 0.319043
v -0.211216 -0.213044 -0.321835
v -0.211216 -0.213044 0.319044
v -0.113609 -0.277656 -0.321835
v -0.113609 -0.277656 0.319044
v -0.276667 -0.115998 -0.321835
v -0.276667 -0.115998 0.319044
v -0.299998 -0.001293 -0.321835
v -0.299998 -0.001293 0.319044
v 0.001292 -0.299996 -0.321835
v 0.001292 -0.299996 0.319044
v -0.277657 0.113609 -0.321835
v -0.277657 0.113609 0.319044
v 0.116000 -0.276665 0.319043
v 0.116000 -0.276665 -0.321835
v 0.213044 -0.211215 -0.321835
v 0.213044 -0.211215 0.319043
v -0.213045 0.211216 -0.321835
v -0.213045 0.211216 0.319044
v -0.116000 0.276667 0.319044
v -0.116000 0.276667 -0.321835
v -0.001294 0.299997 -0.321835
v -0.001294 0.299997 0.319044
v -0.520199 -0.151292 0.319044
v -0.518424 -0.155043 0.319044
v -2.309763 2.523286 -0.064596
v -2.242676 2.592139 -0.056932
v -2.244788 2.588084 -0.002026
v -2.293232 2.537896 0.006153
v -2.335352 2.493332 0.040397
v -2.364734 2.461177 0.095491
v -2.376906 2.446326 0.163047
v -2.370015 2.451039 0.232782
v -2.345109 2.474600 0.294078
v -2.305981 2.513422 0.337603
v -2.258587 2.561594 0.356732
v -2.210143 2.611782 0.348552
v -2.168024 2.656346 0.314309
v -2.138641 2.688501 0.259215
v -2.126469 2.703352 0.191658
v -2.133361 2.698638 0.121924
v -2.158266 2.675078 0.060628
v -2.197395 2.636255 0.017102
v -2.366636 2.464916 -0.071094
v -2.409952 2.415711 0.062746
v -2.426993 2.394919 0.157325
v -2.417346 2.401519 0.254953
v -2.384659 2.430318 0.397476
v -2.327786 2.488688 0.403973
v -2.260699 2.557539 0.411638
v -2.193613 2.626391 0.419302
v -2.136739 2.684761 0.425799
v -2.093423 2.733965 0.291960
v -2.076381 2.754757 0.197381
v -2.086030 2.748158 0.099752
v -2.118717 2.719359 -0.042770
v -2.175590 2.660990 -0.049268
v -2.341095 2.935214 -0.035385
v -2.397969 2.876844 -0.041883
v -2.465055 2.807993 -0.049547
v -2.308408 2.964012 0.107137
v -2.298760 2.970612 0.204766
v -2.315801 2.949821 0.299345
v -2.359118 2.900616 0.433185
v -2.415991 2.842246 0.426687
v -2.483078 2.773394 0.419023
v -2.550164 2.704542 0.411358
v -2.607038 2.646173 0.404861
v -2.639724 2.617374 0.262338
v -2.649372 2.610774 0.164710
v -2.632331 2.631566 0.070131
v -2.589015 2.680771 -0.063709
v -2.532142 2.739141 -0.057211
v 0.754219 0.023439 -0.169327
v 0.748810 0.013055 -0.028694
v 0.417633 -0.322005 -0.207781
v 0.412224 -0.332390 -0.067147
v 0.402117 -0.351792 0.195624
v 0.396708 -0.362176 0.336257
v 0.738703 -0.006348 0.234077
v 0.733294 -0.016732 0.374710
v 0.490914 -0.057058 -0.185399
v 0.427430 -0.154926 -0.195067
v 0.587160 0.009008 -0.176818
v 0.406375 -0.269696 -0.204351
v 0.701517 0.033214 -0.170633
v 0.485505 -0.067443 -0.044765
v 0.422021 -0.165311 -0.054433
v 0.581751 -0.001376 -0.036185
v 0.400967 -0.280080 -0.063718
v 0.696108 0.022829 -0.029999
v 0.475398 -0.086845 0.218006
v 0.411914 -0.184712 0.208337
v 0.571644 -0.020780 0.226586
v 0.390859 -0.299483 0.199053
v 0.686001 0.003427 0.232772
v 0.469989 -0.097230 0.358639
v 0.406505 -0.195097 0.348971
v 0.566235 -0.031163 0.367219
v 0.680592 -0.006958 0.373405
v 0.385450 -0.309867 0.339687
v 0.915853 -0.049771 -0.195650
v 0.892855 -0.093920 0.402282
v 0.982322 -0.146014 -0.200199
v 0.959324 -0.190164 0.397732
v 1.006900 -0.260214 -0.207687
v 0.983901 -0.304364 0.390245
v 0.985844 -0.374984 -0.216971
v 0.962846 -0.419134 0.380960
v 0.922362 -0.472852 -0.226639
v 0.899363 -0.517002 0.371292
v 0.826115 -0.538917 -0.235219
v 0.803116 -0.583068 0.362712
v 0.711758 -0.563123 -0.241405
v 0.688759 -0.607274 0.356526
v 0.596700 -0.541785 -0.244255
v 0.573702 -0.585936 0.353676
v 0.498458 -0.478149 -0.243335
v 0.475460 -0.522300 0.354596
v 0.431989 -0.381906 -0.238785
v 0.408991 -0.426057 0.359146
v 0.407412 -0.267707 -0.231298
v 0.384413 -0.311856 0.366633
v 0.428468 -0.152936 -0.222014
v 0.405468 -0.197087 0.375918
v 0.491950 -0.055069 -0.212345
v 0.468952 -0.099219 0.385586
v 0.588197 0.010997 -0.203765
v 0.565198 -0.033153 0.394166
v 0.702554 0.035203 -0.197579
v 0.679555 -0.008947 0.400352
v 0.817611 0.013864 -0.194730
v 0.794613 -0.030286 0.403202
v -1.487128 2.154181 0.307996
v -1.492537 2.143796 0.448629
v -1.471611 2.183967 -0.095409
v -1.477020 2.173583 0.045225
v -1.808198 1.838523 -0.133862
v -1.813607 1.828138 0.006771
v -1.823714 1.808736 0.269542
v -1.829123 1.798350 0.410176
v -2.409778 2.748232 0.003453
v -2.458222 2.698044 0.011633
v -2.500341 2.653480 0.045876
v -2.529723 2.621324 0.100970
v -2.541895 2.606473 0.168527
v -2.535003 2.611186 0.238261
v -2.510098 2.634748 0.299557
v -2.470970 2.673570 0.343082
v -2.423577 2.721742 0.362211
v -2.375132 2.771930 0.354032
v -2.333013 2.816494 0.319788
v -2.303631 2.848649 0.264694
v -2.291459 2.863500 0.197138
v -2.298351 2.858787 0.127403
v -2.323256 2.835225 0.066107
v -2.362384 2.796403 0.022582
v -2.083765 2.334573 -0.000803
v -2.035321 2.384761 -0.008983
v -2.125884 2.290009 0.033441
v -2.155267 2.257854 0.088534
v -2.167439 2.243002 0.156091
v -2.160547 2.247716 0.225825
v -2.135642 2.271278 0.287121
v -2.096513 2.310099 0.330647
v -2.049120 2.358271 0.349776
v -2.000675 2.408459 0.341596
v -1.958556 2.453023 0.307352
v -1.929174 2.485178 0.252259
v -1.917001 2.500030 0.184702
v -1.923893 2.495315 0.114968
v -1.948798 2.471754 0.053672
v -1.987927 2.432933 0.010146
v -2.036335 2.391728 -0.062694
v -1.899608 2.259013 -0.067235
v -1.962586 2.193769 -0.056601
v -2.017341 2.135835 -0.012084
v -2.055538 2.094033 0.059538
v -2.071362 2.074727 0.147361
v -2.062403 2.080854 0.238016
v -2.030025 2.111484 0.317701
v -1.979159 2.161952 0.374284
v -1.917547 2.224575 0.399152
v -1.854570 2.289820 0.388518
v -1.799814 2.347754 0.344001
v -1.761617 2.389555 0.272379
v -1.745794 2.408862 0.184556
v -1.754753 2.402734 0.093901
v -1.787130 2.372105 0.014216
v -1.837996 2.321636 -0.042367
v -2.099313 2.326484 -0.052060
v -2.154068 2.268551 -0.007544
v -2.192265 2.226749 0.064078
v -2.208089 2.207441 0.151902
v -2.199130 2.213571 0.242557
v -2.166753 2.244200 0.322241
v -2.115886 2.294667 0.378825
v -2.054274 2.357291 0.403692
v -1.991297 2.422536 0.393058
v -1.936541 2.480469 0.348542
v -1.898344 2.522270 0.276920
v -1.882520 2.541577 0.189096
v -1.891479 2.535449 0.098441
v -1.923857 2.504820 0.018757
v -1.974724 2.454351 -0.037827
v -1.534232 2.120051 -0.129670
v -1.435633 2.216107 0.031734
v -1.462131 2.192545 -0.077458
v -1.853028 1.787729 -0.015952
v -1.742930 1.905861 -0.153513
v -1.818399 1.826902 -0.118160
v -1.447133 2.194032 0.330699
v -1.557231 2.075900 0.468261
v -1.481761 2.154861 0.432908
v -1.765928 1.861711 0.444418
v -1.864527 1.765654 0.283014
v -1.838030 1.789216 0.392206
v -1.693880 2.466777 0.040310
v -1.792479 2.370721 -0.121094
v -1.720378 2.443215 -0.068882
v -2.001176 2.156531 -0.144937
v -2.111274 2.038399 -0.007375
v -2.076646 2.077571 -0.109584
v -1.815477 2.326570 0.476837
v -1.705379 2.444702 0.339275
v -1.740008 2.405530 0.441484
v -2.122773 2.016323 0.291590
v -2.024174 2.112380 0.452994
v -2.096276 2.039886 0.400782
vt 0.536160 0.045764
vt 0.532932 0.044427
vt 0.532666 0.045764
vt -0.002734 0.058292
vt 0.036350 0.070598
vt -0.002640 0.070889
vt -0.002546 0.083486
vt 0.036444 0.083195
vt -0.002452 0.096083
vt 0.036720 0.120310
vt 0.036725 0.120895
vt -0.002264 0.121276
vt 0.036599 0.134238
vt -0.002382 0.133870
vt -0.002501 0.146465
vt 0.036480 0.146832
vt -0.002620 0.159059
vt 0.089189 0.070066
vt 0.072594 0.086322
vt 0.067351 0.070066
vt 0.109182 0.142560
vt 0.090087 0.153675
vt 0.096666 0.145432
vt 0.083158 0.079933
vt 0.095363 0.078072
vt 0.037519 0.099898
vt 0.064188 0.120461
vt 0.037519 0.121736
vt 0.070578 0.131025
vt 0.048438 0.140649
vt 0.080524 0.138340
vt 0.067351 0.151569
vt 0.092512 0.141291
vt 0.089189 0.151569
vt 0.104717 0.139431
vt 0.108102 0.140649
vt 0.062328 0.108256
vt 0.065280 0.096268
vt 0.048438 0.080985
vt 0.107348 0.081034
vt 0.062737 0.113373
vt 0.065606 0.125928
vt 0.037181 0.098770
vt 0.064948 0.100694
vt 0.048982 0.079302
vt 0.071843 0.089826
vt 0.068937 0.068343
vt 0.091698 0.068830
vt 0.082372 0.082424
vt 0.094932 0.079615
vt 0.107611 0.081826
vt 0.083968 0.143279
vt 0.067309 0.153294
vt 0.047773 0.141575
vt 0.073061 0.136430
vt 0.036718 0.121644
vt 0.036242 0.172021
vt -0.002739 0.171653
vt 0.036240 0.055926
vt 0.036256 0.058001
vt 0.036232 0.172701
vt 0.111166 0.080631
vt 0.036538 0.095792
vt -0.002358 0.108680
vt 0.036632 0.108389
vt 0.036361 0.159427
vt 0.110004 0.142616
vt 0.108102 0.080985
vt -0.002750 0.056217
vt -0.002750 0.172333
vt 0.607413 0.036614
vt 0.603145 0.014733
vt 0.607413 0.014733
vt 0.603145 0.036614
vt 0.598876 0.014733
vt 0.598876 0.036614
vt 0.594607 0.014733
vt 0.594607 0.036614
vt 0.590339 0.014733
vt 0.590339 0.036614
vt 0.586070 0.014733
vt 0.586070 0.036614
vt 0.581802 0.014733
vt 0.581802 0.036614
vt 0.577533 0.014733
vt 0.577533 0.036614
vt 0.573264 0.014733
vt 0.573264 0.036614
vt 0.568996 0.014733
vt 0.637294 0.036614
vt 0.633025 0.014733
vt 0.637294 0.014733
vt 0.633025 0.036614
vt 0.628757 0.014733
vt 0.628757 0.036614
vt 0.624488 0.014733
vt 0.624488 0.036614
vt 0.620219 0.014733
vt 0.620219 0.036614
vt 0.615951 0.014733
vt 0.615951 0.036614
vt 0.611682 0.014733
vt 0.611682 0.036614
vt 0.568996 0.036614
vt 0.414083 0.020191
vt 0.394006 0.009194
vt 0.414083 0.005200
vt 0.440583 0.031167
vt 0.463030 0.037589
vt 0.448707 0.043325
vt 0.440583 0.084166
vt 0.463030 0.077745
vt 0.463030 0.094766
vt 0.414084 0.095142
vt 0.394006 0.106139
vt 0.399742 0.092290
vt 0.379460 0.043325
vt 0.365137 0.057667
vt 0.365137 0.037589
vt 0.387584 0.031167
vt 0.399742 0.023043
vt 0.434161 0.009194
vt 0.463030 0.020567
vt 0.448707 0.072008
vt 0.463030 0.057667
vt 0.434161 0.106139
vt 0.414084 0.110133
vt 0.387584 0.084166
vt 0.365137 0.077745
vt 0.379460 0.072008
vt 0.365137 0.020567
vt 0.428425 0.023043
vt 0.451559 0.057667
vt 0.428425 0.092290
vt 0.360949 0.270723
vt 0.401924 0.282747
vt 0.387449 0.297222
vt 0.376608 0.057667
vt 0.365137 0.094766
vt 0.434161 0.010684
vt 0.434161 0.107629
vt 0.365137 0.079234
vt 0.312776 0.318896
vt 0.353472 0.331198
vt 0.339275 0.345396
vt 0.286543 0.345129
vt 0.325078 0.359593
vt 0.313042 0.371629
vt 0.298579 0.333093
vt 0.537138 0.094534
vt 0.541697 0.142974
vt 0.515198 0.116474
vt 0.464307 0.167365
vt 0.512746 0.171924
vt 0.490806 0.193865
vt 0.438073 0.193598
vt 0.450376 0.234295
vt 0.423876 0.207796
vt 0.389900 0.241772
vt 0.375425 0.256247
vt 0.326973 0.304699
vt 0.365508 0.319162
vt 0.500722 0.130949
vt 0.486247 0.145425
vt 0.452271 0.179401
vt 0.464573 0.220098
vt 0.411840 0.219831
vt 0.416399 0.268271
vt 0.339009 0.292663
vt 0.527222 0.157449
vt 0.478770 0.205901
vt 0.438340 0.246331
vt 0.365137 0.039078
vt 0.365137 0.022057
vt 0.394006 0.010684
vt 0.414084 0.006690
vt 0.463030 0.022057
vt 0.463030 0.039078
vt 0.463030 0.059156
vt 0.365137 0.059156
vt 0.463030 0.079234
vt 0.463030 0.096255
vt 0.414083 0.111622
vt 0.394006 0.107629
vt 0.365137 0.096255
vt 0.563638 0.121033
vt 0.580852 0.146243
vt 0.654403 0.833258
vt 0.628151 0.827709
vt 0.556250 0.098026
vt 0.676256 0.087072
vt 0.675217 0.091635
vt 0.557193 0.073165
vt 0.675612 0.059977
vt 0.674674 0.064508
vt 0.545290 0.056720
vt 0.545290 0.045764
vt 0.520640 0.032070
vt 0.531595 0.041199
vt 0.520640 0.041199
vt 0.531595 0.032070
vt 0.548517 0.028842
vt 0.549855 0.032070
vt 0.560810 0.041199
vt 0.549855 0.041199
vt 0.549855 0.025082
vt 0.560810 0.015953
vt 0.560810 0.025082
vt 0.629694 0.112102
vt 0.643987 0.102551
vt 0.653538 0.116845
vt 0.630084 0.112301
vt 0.644378 0.102750
vt 0.653929 0.117044
vt 0.557340 0.054040
vt 0.679987 0.048462
vt 0.679987 0.054040
vt 0.557124 0.053931
vt 0.679770 0.048875
vt 0.679746 0.054452
vt 0.556784 0.078691
vt 0.680912 0.075517
vt 0.680800 0.081157
vt 0.557105 0.078806
vt 0.681243 0.075104
vt 0.681154 0.080745
vt 0.532927 0.141943
vt 0.460758 0.829304
vt 0.434016 0.833977
vt 0.551144 0.078535
vt 0.550610 0.097870
vt 0.551762 0.053997
vt 0.670009 0.105863
vt 0.673857 0.105126
vt 0.672638 0.106952
vt 0.667164 0.105863
vt 0.663315 0.105126
vt 0.666735 0.103710
vt 0.676475 0.107745
vt 0.674649 0.108965
vt 0.670437 0.103710
vt 0.677892 0.111165
vt 0.675738 0.111594
vt 0.675738 0.114439
vt 0.677891 0.114867
vt 0.676475 0.118287
vt 0.674650 0.117068
vt 0.673858 0.120904
vt 0.672638 0.119079
vt 0.670438 0.122321
vt 0.670009 0.120168
vt 0.649919 0.016570
vt 0.647358 0.035606
vt 0.647358 0.016570
vt 0.652480 0.016570
vt 0.649919 0.035606
vt 0.655042 0.035606
vt 0.655042 0.016570
vt 0.657603 0.016570
vt 0.660164 0.035606
vt 0.660164 0.016570
vt 0.662725 0.016570
vt 0.665286 0.035606
vt 0.665286 0.016570
vt 0.667848 0.035606
vt 0.667848 0.016570
vt 0.670409 0.016570
vt 0.672970 0.035606
vt 0.672970 0.016570
vt 0.675531 0.016570
vt 0.678092 0.035606
vt 0.678092 0.016570
vt 0.680653 0.016570
vt 0.642236 0.035606
vt 0.639675 0.016570
vt 0.642236 0.016570
vt 0.644797 0.016570
vt 0.669494 0.037595
vt 0.673194 0.045317
vt 0.669494 0.045317
vt 0.676893 0.037595
vt 0.676893 0.045317
vt 0.680593 0.037595
vt 0.680593 0.045317
vt 0.621401 0.037595
vt 0.625101 0.045317
vt 0.621401 0.045317
vt 0.628800 0.037595
vt 0.628800 0.045317
vt 0.632500 0.045317
vt 0.632500 0.037595
vt 0.636199 0.045317
vt 0.636199 0.037595
vt 0.639899 0.045317
vt 0.639899 0.037595
vt 0.643598 0.045317
vt 0.643598 0.037595
vt 0.647298 0.045317
vt 0.647298 0.037595
vt 0.650997 0.045317
vt 0.654696 0.037595
vt 0.654696 0.045317
vt 0.658396 0.045317
vt 0.662095 0.037595
vt 0.662095 0.045317
vt 0.665795 0.045317
vt 0.665795 0.037595
vt 0.664535 0.106952
vt 0.660698 0.107744
vt 0.661435 0.111592
vt 0.662523 0.108963
vt 0.659281 0.114865
vt 0.659282 0.111164
vt 0.662524 0.117066
vt 0.661435 0.114437
vt 0.663316 0.120904
vt 0.660698 0.118286
vt 0.667164 0.120168
vt 0.664535 0.119078
vt 0.666736 0.122321
vt 0.531595 0.025082
vt 0.520640 0.028576
vt 0.520640 0.025082
vt 0.531595 0.028576
vt 0.532666 0.056720
vt 0.529173 0.045764
vt 0.560810 0.028576
vt 0.549855 0.028576
vt 0.548783 0.056720
vt 0.549855 0.044693
vt 0.560810 0.044693
vt 0.549855 0.070414
vt 0.532932 0.073642
vt 0.536160 0.056720
vt 0.579290 0.847266
vt 0.566549 0.865538
vt 0.691746 0.147570
vt 0.688723 0.858776
vt 0.676532 0.848430
vt 0.601776 0.832628
vt 0.678494 0.100209
vt 0.681646 0.102481
vt 0.678963 0.083255
vt 0.676003 0.096248
vt 0.678082 0.072920
vt 0.678212 0.056150
vt 0.675542 0.069053
vt 0.532932 0.028842
vt 0.536160 0.027505
vt 0.545290 0.027505
vt 0.548517 0.044427
vt 0.560810 0.032070
vt 0.549855 0.015953
vt 0.651723 0.121227
vt 0.648369 0.124581
vt 0.643987 0.126396
vt 0.639244 0.126396
vt 0.634862 0.124581
vt 0.631509 0.121227
vt 0.629694 0.116845
vt 0.631509 0.107720
vt 0.634862 0.104366
vt 0.639244 0.102551
vt 0.648369 0.104366
vt 0.651723 0.107720
vt 0.653538 0.112102
vt 0.652114 0.121425
vt 0.648760 0.124779
vt 0.644378 0.126594
vt 0.639635 0.126594
vt 0.635253 0.124779
vt 0.631899 0.121425
vt 0.630084 0.117044
vt 0.631899 0.107919
vt 0.635253 0.104565
vt 0.639635 0.102750
vt 0.648760 0.104565
vt 0.652114 0.107919
vt 0.653929 0.112301
vt 0.557340 0.048462
vt 0.557148 0.048354
vt 0.556896 0.073051
vt 0.397997 0.866867
vt 0.420752 0.139323
vt 0.521681 0.861431
vt 0.509466 0.850825
vt 0.487253 0.835220
vt 0.411098 0.848528
vt 0.551615 0.073122
vt 0.652480 0.035606
vt 0.657603 0.035606
vt 0.662725 0.035606
vt 0.670409 0.035606
vt 0.675531 0.035606
vt 0.680653 0.035606
vt 0.639675 0.035606
vt 0.644797 0.035606
vt 0.673194 0.037595
vt 0.625101 0.037595
vt 0.650997 0.037595
vt 0.658396 0.037595
vt 0.529173 0.056720
vt 0.548783 0.045764
vt 0.548517 0.058057
vt 0.549855 0.061285
vt 0.548517 0.073642
vt 0.545290 0.074979
vt 0.536160 0.074979
vt 0.531595 0.070414
vt 0.531595 0.061285
vt 0.532932 0.058057
vn -0.0000 -0.0000 1.0000
vn -0.0000 -0.0000 -1.0000
vn 0.8224 -0.5689 -0.0000
vn 0.6472 -0.7623 -0.0000
vn 0.1793 -0.9838 -0.0000
vn -0.0814 -0.9967 -0.0000
vn -0.9039 -0.4278 -0.0000
vn -0.9967 0.0814 -0.0000
vn -0.9416 0.3366 -0.0000
vn -0.8224 0.5689 -0.0000
vn -0.4278 0.9039 -0.0000
vn -0.1793 0.9838 -0.0000
vn 0.0814 0.9967 -0.0000
vn -0.0964 0.9953 -0.0000
vn 0.4738 -0.8806 -0.0000
vn -0.5689 -0.8224 -0.0000
vn -0.7623 -0.6472 -0.0000
vn 0.6957 0.7140 0.0795
vn -0.7174 0.6963 0.0238
vn -0.7173 0.6963 0.0238
vn -0.0383 -0.0736 0.9966
vn -0.6957 -0.7140 -0.0795
vn 0.0383 0.0736 -0.9966
vn 0.4936 0.4838 0.7227
vn 0.7100 0.3424 -0.6154
vn 0.5446 0.5817 -0.6041
vn 0.6589 0.2444 0.7114
vn 0.7711 0.0583 -0.6341
vn 0.7201 -0.0397 0.6928
vn 0.7187 -0.2272 -0.6571
vn 0.6677 -0.3251 0.6697
vn 0.5608 -0.4706 -0.6812
vn 0.5098 -0.5686 0.6456
vn 0.3214 -0.6349 -0.7025
vn 0.2704 -0.7329 0.6243
vn 0.0370 -0.6951 -0.7179
vn -0.0141 -0.7931 0.6089
vn -0.2492 -0.6421 -0.7250
vn -0.3003 -0.7400 0.6018
vn -0.4936 -0.4838 -0.7227
vn -0.5446 -0.5818 0.6041
vn -0.6589 -0.2444 -0.7114
vn -0.7099 -0.3424 0.6154
vn -0.7200 0.0397 -0.6928
vn -0.7711 -0.0583 0.6341
vn -0.6677 0.3251 -0.6697
vn -0.7187 0.2272 0.6572
vn -0.5098 0.5686 -0.6456
vn -0.5608 0.4706 0.6812
vn -0.2704 0.7329 -0.6243
vn -0.3214 0.6349 0.7025
vn 0.0141 0.7931 -0.6089
vn -0.0370 0.6952 0.7179
vn 0.3003 0.7400 -0.6018
vn 0.2492 0.6421 0.7250
vn 0.7173 -0.6963 -0.0238
vn 0.7174 -0.6963 -0.0238
vn -0.6748 -0.6859 -0.2724
vn 0.6613 0.6912 -0.2913
vn 0.6332 0.6373 0.4392
vn -0.6898 -0.7146 0.1165
vn 0.6748 0.6859 0.2724
vn -0.6613 -0.6912 0.2913
vn -0.6332 -0.6373 -0.4392
vn 0.6898 0.7146 -0.1165
vn -0.7937 0.0323 -0.6075
vn -0.0346 0.7717 0.6350
vn -0.0260 -0.9754 -0.2191
vn -0.9923 -0.0697 0.1028
vn -0.9811 -0.0483 -0.1874
vn 0.5508 -0.4135 0.7250
vn -0.6069 0.3058 0.7336
vn 0.3482 -0.6213 0.7019
vn -0.4043 0.5136 0.7568
vn -0.0491 0.8712 -0.4885
vn -0.3482 0.6213 -0.7019
vn 0.4044 -0.5136 -0.7568
vn -0.5508 0.4135 -0.7251
vn 0.0372 0.9968 -0.0710
vn 0.9811 0.0483 0.1874
vn 0.9923 0.0697 -0.1028
vn 0.0096 0.8567 -0.5157
vn 0.6379 0.6427 0.4243
vn 0.6648 0.6943 -0.2755
vn 0.6648 0.6944 -0.2755
vn -0.8379 -0.0527 0.5432
vn -0.6379 -0.6427 -0.4243
vn -0.6648 -0.6943 0.2755
vn -0.5376 0.5908 -0.6017
vn -0.6628 0.3333 -0.6705
vn -0.7051 0.4172 -0.5734
vn -0.3737 0.7573 -0.5355
vn -0.1212 0.8838 -0.4519
vn -0.2782 0.7280 -0.6266
vn -0.8318 0.1545 -0.5331
vn -0.8507 0.2631 -0.4550
vn -0.4684 0.5347 -0.7033
vn -0.9497 0.0255 -0.3120
vn -0.9524 0.1519 -0.2645
vn -0.9945 0.1005 -0.0308
vn -0.9986 -0.0341 -0.0409
vn -0.9709 -0.0152 0.2389
vn -0.9706 0.1168 0.2103
vn -0.8710 0.0793 0.4849
vn -0.8845 0.1983 0.4223
vn -0.7140 0.2351 0.6595
vn -0.7492 0.3326 0.5728
vn 0.3016 0.3412 -0.8903
vn 0.5190 0.5569 -0.6485
vn -0.1522 0.9731 -0.1731
vn 0.6574 0.6878 -0.3079
vn -0.1705 0.9380 0.3017
vn 0.6280 0.6315 0.4548
vn 0.4648 0.4528 0.7609
vn -0.4178 0.6727 0.6107
vn 0.2308 0.2052 0.9511
vn -0.5853 0.4991 0.6390
vn -0.3016 -0.3412 0.8903
vn -0.5190 -0.5569 0.6485
vn -0.6574 -0.6878 0.3079
vn -0.6280 -0.6315 -0.4548
vn -0.4648 -0.4528 -0.7609
vn -0.2308 -0.2052 -0.9511
vn -0.5238 0.4284 0.7363
vn -0.3294 0.6298 0.7034
vn -0.1604 0.8086 0.5660
vn -0.0425 0.9377 0.3450
vn 0.0064 0.9972 0.0739
vn -0.0213 0.9783 -0.2059
vn -0.2384 0.8916 -0.3850
vn -0.1284 0.9894 0.0681
vn -0.2721 0.8268 0.4923
vn 0.0260 0.9754 0.2191
vn 0.8130 -0.0873 0.5757
vn -0.0913 0.7904 0.6057
vn 0.0492 -0.8712 0.4884
vn -0.8551 0.0065 0.5185
vn 0.8551 -0.0065 -0.5185
vn 0.0913 -0.7904 -0.6057
vn -0.8130 0.0873 -0.5757
vn 0.6069 -0.3058 -0.7336
vn -0.0372 -0.9968 0.0711
usemtl SpacialRoverExploreralumWhite
f 5/4/3 8/5/4 7/6/4
f 8/5/4 9/7/5 7/6/4
f 10/8/5 11/9/6 9/7/5
f 44/10/7 43/11/7 15/12/7
f 15/12/8 18/13/9 17/14/9
f 18/13/9 19/15/10 17/14/9
f 20/16/11 1/17/12 19/15/11
f 1/18/2 31/19/2 19/20/2
f 42/21/1 2/22/1 39/23/1
f 37/24/2 1/18/2 40/25/2
f 15/26/2 21/27/2 13/28/2
f 13/28/2 23/29/2 11/30/2
f 11/30/2 29/31/2 9/32/2
f 9/32/2 34/33/2 7/34/2
f 7/34/2 35/35/2 5/36/2
f 35/35/2 7/34/2 34/33/2
f 34/33/2 9/32/2 29/31/2
f 29/31/2 11/30/2 23/29/2
f 23/29/2 13/28/2 21/27/2
f 21/27/2 15/26/2 25/37/2
f 19/20/2 31/19/2 27/38/2
f 27/38/2 25/37/2 17/39/2
f 25/37/2 15/26/2 17/39/2
f 17/39/2 19/20/2 27/38/2
f 31/19/2 1/18/2 37/24/2
f 1/18/2 41/40/2 40/25/2
f 43/11/1 26/41/1 28/42/1
f 26/41/1 14/43/1 22/44/1
f 22/44/1 12/45/1 24/46/1
f 24/46/1 12/45/1 10/47/1
f 10/47/1 8/48/1 30/49/1
f 30/49/1 8/48/1 33/50/1
f 33/50/1 8/48/1 36/51/1
f 30/49/1 24/46/1 10/47/1
f 12/45/1 22/44/1 14/43/1
f 14/43/1 26/41/1 44/10/1
f 39/23/1 2/22/1 38/52/1
f 38/52/1 2/22/1 20/53/1
f 20/53/1 18/54/1 32/55/1
f 16/56/1 28/42/1 18/54/1
f 28/42/1 32/55/1 18/54/1
f 32/55/1 38/52/1 20/53/1
f 1/17/12 4/57/13 3/58/13
f 5/4/14 36/59/14 6/60/14
f 42/61/15 3/58/15 4/57/15
f 36/51/1 8/48/1 6/62/1
f 12/63/16 13/64/17 11/9/16
f 5/4/3 6/60/3 8/5/4
f 8/5/4 10/8/5 9/7/5
f 10/8/5 12/63/6 11/9/6
f 15/12/7 13/64/17 14/65/17
f 15/12/7 14/65/17 44/10/7
f 43/11/7 16/56/7 15/12/7
f 15/12/8 16/56/8 18/13/9
f 18/13/9 20/16/10 19/15/10
f 20/16/11 2/66/12 1/17/12
f 42/21/1 4/67/1 2/22/1
f 1/18/2 3/68/2 41/40/2
f 43/11/1 44/10/1 26/41/1
f 16/56/1 43/11/1 28/42/1
f 1/17/12 2/66/12 4/57/13
f 5/4/14 35/69/14 36/59/14
f 42/61/15 41/70/15 3/58/15
f 12/63/16 14/65/17 13/64/17
usemtl SpacialRoverExploreralumGray
f 122/71/24 123/72/25 121/73/26
f 124/74/27 125/75/28 123/72/25
f 126/76/29 127/77/30 125/75/28
f 128/78/31 129/79/32 127/77/30
f 130/80/33 131/81/34 129/79/32
f 132/82/35 133/83/36 131/81/34
f 134/84/37 135/85/38 133/83/36
f 136/86/39 137/87/40 135/85/38
f 138/88/41 139/89/42 137/87/40
f 140/90/43 141/91/44 139/92/42
f 142/93/45 143/94/46 141/91/44
f 144/95/47 145/96/48 143/94/46
f 146/97/49 147/98/50 145/96/48
f 148/99/51 149/100/52 147/98/50
f 150/101/53 151/102/54 149/100/52
f 152/103/55 121/73/26 151/102/54
f 122/71/24 124/74/27 123/72/25
f 124/74/27 126/76/29 125/75/28
f 126/76/29 128/78/31 127/77/30
f 128/78/31 130/80/33 129/79/32
f 130/80/33 132/82/35 131/81/34
f 132/82/35 134/84/37 133/83/36
f 134/84/37 136/86/39 135/85/38
f 136/86/39 138/88/41 137/87/40
f 138/88/41 140/104/43 139/89/42
f 140/90/43 142/93/45 141/91/44
f 142/93/45 144/95/47 143/94/46
f 144/95/47 146/97/49 145/96/48
f 146/97/49 148/99/51 147/98/50
f 148/99/51 150/101/53 149/100/52
f 150/101/53 152/103/55 151/102/54
f 152/103/55 122/71/24 121/73/26
usemtl SpacialRoverExploreralumBlack
f 59/105/56 74/106/56 73/107/56
f 57/108/56 70/109/57 56/110/57
f 53/111/56 68/112/56 67/113/56
f 51/114/57 64/115/57 50/116/57
f 62/117/56 46/118/57 76/119/56
f 61/120/56 74/106/56 60/121/56
f 57/108/56 72/122/56 71/123/56
f 54/124/56 69/125/56 68/112/56
f 51/114/57 66/126/57 65/127/57
f 49/128/57 45/129/57 48/130/57
f 61/120/56 76/119/56 75/131/56
f 59/105/56 72/122/56 58/132/56
f 56/110/57 69/125/56 55/133/56
f 53/111/56 66/126/57 52/134/57
f 64/135/58 89/136/58 90/137/58
f 48/130/57 46/118/57 47/138/57
f 49/128/57 64/115/57 63/139/57
f 88/140/20 82/141/20 78/142/20
f 46/143/23 92/144/23 79/145/23
f 75/146/23 78/147/23 77/148/23
f 76/149/23 79/145/23 78/147/23
f 75/150/59 80/151/59 74/152/59
f 71/153/60 82/154/60 83/155/60
f 69/156/21 86/157/21 68/158/21
f 66/159/61 89/136/61 65/160/61
f 45/161/23 91/162/23 92/144/23
f 73/163/62 82/154/62 72/164/62
f 70/165/21 85/166/21 69/156/21
f 67/167/63 88/168/63 66/159/63
f 63/169/64 90/137/64 91/162/64
f 73/163/65 80/151/65 81/170/65
f 71/153/21 84/171/21 70/165/21
f 68/158/21 87/172/21 67/167/21
f 59/105/56 60/121/56 74/106/56
f 57/108/56 71/123/56 70/109/57
f 53/111/56 54/124/56 68/112/56
f 51/114/57 65/127/57 64/115/57
f 62/117/56 47/138/57 46/118/57
f 61/120/56 75/131/56 74/106/56
f 57/108/56 58/132/56 72/122/56
f 54/124/56 55/133/56 69/125/56
f 51/114/57 52/134/57 66/126/57
f 49/128/57 63/139/57 45/129/57
f 61/120/56 62/117/56 76/119/56
f 59/105/56 73/107/56 72/122/56
f 56/110/57 70/109/57 69/125/56
f 53/111/56 67/113/56 66/126/57
f 64/135/58 65/160/58 89/136/58
f 48/130/57 45/129/57 46/118/57
f 49/128/57 50/116/57 64/115/57
f 92/173/19 91/174/19 90/175/19
f 90/175/19 89/176/20 88/140/20
f 88/140/20 87/177/20 86/178/20
f 88/140/20 86/178/20 85/179/19
f 92/173/19 90/175/19 88/140/20
f 79/180/20 92/173/19 88/140/20
f 88/140/20 85/179/19 84/181/19
f 84/181/19 83/182/20 82/141/20
f 82/141/20 81/183/20 80/184/20
f 80/184/20 77/185/19 78/142/20
f 78/142/20 79/180/20 88/140/20
f 88/140/20 84/181/19 82/141/20
f 82/141/20 80/184/20 78/142/20
f 46/143/23 45/161/23 92/144/23
f 75/146/23 76/149/23 78/147/23
f 76/149/23 46/143/23 79/145/23
f 75/150/59 77/186/59 80/151/59
f 71/153/60 72/164/60 82/154/60
f 69/156/21 85/166/21 86/157/21
f 66/159/61 88/168/61 89/136/61
f 45/161/23 63/169/23 91/162/23
f 73/163/62 81/170/62 82/154/62
f 70/165/21 84/171/21 85/166/21
f 67/167/63 87/172/63 88/168/63
f 63/169/64 64/135/64 90/137/64
f 73/163/65 74/152/65 80/151/65
f 71/153/21 83/155/21 84/171/21
f 68/158/21 86/157/21 87/172/21
usemtl SpacialRoverExploreralumArm
f 157/187/66 103/188/23 101/189/23
f 156/190/67 107/191/21 106/192/21
f 159/193/66 113/194/23 111/195/23
f 228/196/68 246/1/69 241/197/70
f 232/198/71 247/199/72 234/200/73
f 243/201/74 239/202/75 241/197/70
f 238/203/76 229/204/77 240/205/78
f 237/206/79 231/207/80 226/208/81
f 142/209/45 134/210/37 126/211/29
f 135/212/38 143/213/46 151/214/54
f 153/215/82 100/216/83 99/217/84
f 155/218/82 94/219/83 93/220/85
f 158/221/86 95/222/87 96/223/88
f 160/224/86 97/225/87 98/226/88
f 160/227/86 116/228/21 118/229/21
f 157/230/66 156/190/67 155/231/82
f 159/193/66 154/232/67 153/215/82
f 178/233/89 210/234/90 177/235/91
f 192/236/92 223/237/93 224/238/94
f 177/235/91 211/239/95 179/240/96
f 192/236/92 193/241/97 178/233/89
f 179/240/96 212/242/98 180/243/99
f 181/244/100 212/242/98 213/245/101
f 181/244/100 214/246/102 182/247/103
f 182/247/103 215/248/104 183/249/105
f 183/249/105 216/250/106 184/251/107
f 176/252/108 178/253/89 161/254/23
f 175/255/109 192/256/92 176/252/108
f 190/257/110 175/255/109 174/258/111
f 173/259/18 190/257/110 174/258/111
f 188/260/112 173/259/18 172/261/113
f 171/262/114 188/260/112 172/261/113
f 186/263/115 171/262/114 170/264/116
f 185/265/117 170/264/116 169/266/21
f 168/267/118 185/265/117 169/266/21
f 183/268/105 168/267/118 167/269/119
f 166/270/120 183/268/105 167/269/119
f 181/271/100 166/270/120 165/272/22
f 164/273/121 181/271/100 165/272/22
f 179/274/96 164/275/121 163/276/122
f 162/277/123 179/274/96 163/276/122
f 178/253/89 162/277/123 161/254/23
f 194/278/23 210/279/90 193/280/97
f 210/279/90 196/281/122 211/282/95
f 211/282/95 197/283/121 212/284/98
f 197/285/121 213/286/101 212/287/98
f 213/286/101 199/288/120 214/289/102
f 199/288/120 215/290/104 214/289/102
f 200/291/119 216/292/106 215/290/104
f 201/293/118 217/294/124 216/292/106
f 202/295/21 218/296/125 217/294/124
f 203/297/116 219/298/126 218/296/125
f 204/299/114 220/300/127 219/298/126
f 220/300/127 206/301/18 221/302/128
f 206/301/18 222/303/129 221/302/128
f 222/303/129 208/304/109 223/305/93
f 208/304/109 224/306/94 223/305/93
f 209/307/108 193/280/97 224/306/94
f 191/308/130 222/309/129 223/237/93
f 189/310/131 222/309/129 190/311/110
f 189/310/131 220/312/127 221/313/128
f 187/314/132 220/312/127 188/315/112
f 187/314/132 218/316/125 219/317/126
f 185/318/117 218/316/125 186/319/115
f 185/318/117 216/250/106 217/320/124
f 244/321/133 233/322/134 231/323/80
f 245/324/135 232/198/71 233/322/134
f 246/1/69 236/325/136 248/3/137
f 236/325/136 247/326/72 248/3/137
f 237/206/79 227/327/138 239/328/75
f 227/327/138 238/203/76 239/328/75
f 241/197/70 230/329/139 228/196/68
f 242/330/140 229/204/77 230/331/139
f 225/332/141 233/333/134 235/334/142
f 104/335/23 95/336/87 157/187/66
f 157/187/66 155/337/82 93/338/85
f 157/187/66 93/338/85 105/339/23
f 102/340/23 104/335/23 157/187/66
f 101/189/23 102/340/23 157/187/66
f 157/187/66 105/339/23 103/188/23
f 110/341/21 94/342/83 156/190/67
f 156/190/67 158/221/86 96/223/88
f 156/190/67 96/223/88 109/343/21
f 108/344/21 110/341/21 156/190/67
f 106/192/21 108/344/21 156/190/67
f 156/190/67 109/343/21 107/191/21
f 114/345/23 97/225/87 159/193/66
f 159/193/66 153/215/82 99/217/84
f 159/193/66 99/217/84 115/346/23
f 112/347/23 114/345/23 159/193/66
f 111/195/23 112/347/23 159/193/66
f 159/193/66 115/346/23 113/194/23
f 228/196/68 235/334/142 246/1/69
f 232/198/71 243/201/74 247/199/72
f 241/197/70 246/1/69 248/2/137
f 248/2/137 247/199/72 243/201/74
f 243/201/74 245/348/135 244/349/133
f 244/349/133 237/350/79 239/202/75
f 239/202/75 238/203/76 240/205/78
f 240/205/78 242/351/140 241/197/70
f 241/197/70 248/2/137 243/201/74
f 243/201/74 244/349/133 239/202/75
f 239/202/75 240/205/78 241/197/70
f 238/203/76 225/352/141 229/204/77
f 237/206/79 244/353/133 231/207/80
f 126/211/29 124/354/27 122/355/24
f 122/355/24 152/356/55 150/357/53
f 150/357/53 148/358/51 146/359/49
f 146/359/49 144/360/47 142/209/45
f 142/209/45 140/361/43 138/362/41
f 138/362/41 136/363/39 134/210/37
f 134/210/37 132/364/35 130/365/33
f 130/365/33 128/366/31 126/211/29
f 126/211/29 122/355/24 150/357/53
f 150/357/53 146/359/49 142/209/45
f 142/209/45 138/362/41 134/210/37
f 134/210/37 130/365/33 126/211/29
f 126/211/29 150/357/53 142/209/45
f 151/214/54 121/367/26 123/368/25
f 123/368/25 125/369/28 127/370/30
f 127/370/30 129/371/32 131/372/34
f 131/372/34 133/373/36 135/212/38
f 135/212/38 137/374/40 139/375/42
f 139/375/42 141/376/44 143/213/46
f 143/213/46 145/377/48 147/378/50
f 147/378/50 149/379/52 151/214/54
f 151/214/54 123/368/25 127/370/30
f 127/370/30 131/372/34 135/212/38
f 135/212/38 139/375/42 143/213/46
f 143/213/46 147/378/50 151/214/54
f 151/214/54 127/370/30 135/212/38
f 153/215/82 154/380/67 100/216/83
f 155/218/82 156/381/67 94/219/83
f 158/221/86 157/382/66 95/222/87
f 160/224/86 159/193/66 97/225/87
f 100/383/83 154/384/67 160/227/86
f 160/227/86 98/385/88 120/386/21
f 160/227/86 120/386/21 117/387/21
f 119/388/21 100/383/83 160/227/86
f 118/229/21 119/388/21 160/227/86
f 160/227/86 117/387/21 116/228/21
f 157/230/66 158/221/86 156/190/67
f 159/193/66 160/389/86 154/232/67
f 178/233/89 193/241/97 210/234/90
f 192/236/92 191/308/130 223/237/93
f 177/235/91 210/234/90 211/239/95
f 192/236/92 224/238/94 193/241/97
f 179/240/96 211/239/95 212/242/98
f 181/244/100 180/243/99 212/242/98
f 181/244/100 213/245/101 214/246/102
f 182/247/103 214/246/102 215/248/104
f 183/249/105 215/248/104 216/250/106
f 176/252/108 192/256/92 178/253/89
f 175/255/109 191/390/130 192/256/92
f 190/257/110 191/390/130 175/255/109
f 173/259/18 189/391/131 190/257/110
f 188/260/112 189/391/131 173/259/18
f 171/262/114 187/392/132 188/260/112
f 186/263/115 187/392/132 171/262/114
f 185/265/117 186/263/115 170/264/116
f 168/267/118 184/393/107 185/265/117
f 183/268/105 184/393/107 168/267/118
f 166/270/120 182/394/103 183/268/105
f 181/271/100 182/394/103 166/270/120
f 164/273/121 180/395/99 181/271/100
f 179/274/96 180/396/99 164/275/121
f 162/277/123 177/397/91 179/274/96
f 178/253/89 177/397/91 162/277/123
f 194/278/23 195/398/123 210/279/90
f 210/279/90 195/398/123 196/281/122
f 211/282/95 196/281/122 197/283/121
f 197/285/121 198/399/22 213/286/101
f 213/286/101 198/399/22 199/288/120
f 199/288/120 200/291/119 215/290/104
f 200/291/119 201/293/118 216/292/106
f 201/293/118 202/295/21 217/294/124
f 202/295/21 203/297/116 218/296/125
f 203/297/116 204/299/114 219/298/126
f 204/299/114 205/400/113 220/300/127
f 220/300/127 205/400/113 206/301/18
f 206/301/18 207/401/111 222/303/129
f 222/303/129 207/401/111 208/304/109
f 208/304/109 209/307/108 224/306/94
f 209/307/108 194/278/23 193/280/97
f 191/308/130 190/311/110 222/309/129
f 189/310/131 221/313/128 222/309/129
f 189/310/131 188/315/112 220/312/127
f 187/314/132 219/317/126 220/312/127
f 187/314/132 186/319/115 218/316/125
f 185/318/117 217/320/124 218/316/125
f 185/318/117 184/251/107 216/250/106
f 244/321/133 245/324/135 233/322/134
f 245/324/135 243/201/74 232/198/71
f 246/1/69 235/334/142 236/325/136
f 236/325/136 234/402/73 247/326/72
f 237/206/79 226/208/81 227/327/138
f 227/327/138 225/352/141 238/203/76
f 241/197/70 242/403/140 230/329/139
f 242/330/140 240/205/78 229/204/77
f 235/334/142 228/196/68 230/404/139
f 230/404/139 229/405/77 225/332/141
f 225/332/141 227/406/138 226/407/81
f 226/407/81 231/408/80 233/333/134
f 233/333/134 232/409/71 234/410/73
f 234/410/73 236/411/136 235/334/142
f 235/334/142 230/404/139 225/332/141
f 225/332/141 226/407/81 233/333/134
f 233/333/134 234/410/73 235/334/142
