mtllib Holocron.mtl
o HolocronCristal
usemtl Crystal.001
v 0.248465 -0.392424 0.190576
v -0.124174 -0.394537 0.311636
v -0.354479 -0.389003 -0.005300
v -0.124174 -0.383473 -0.322237
v 0.248465 -0.385586 -0.201177
v 0.081816 0.465782 0.326653
v -0.290823 0.467896 0.205593
v -0.290823 0.474734 -0.186160
v 0.081816 0.476847 -0.307220
v 0.312117 0.471313 0.009717
v 0.076204 -0.466801 0.293094
v 0.293951 -0.461570 -0.006567
v -0.276129 -0.464801 0.178634
v -0.276129 -0.458336 -0.191768
v 0.076204 -0.456340 -0.306228
v 0.331148 0.039157 0.116668
v 0.331148 0.043155 -0.112252
v -0.021181 0.034691 0.372612
v 0.196569 0.035924 0.301871
v -0.373510 0.039159 0.116668
v -0.238932 0.035926 0.301871
v -0.238932 0.046388 -0.297454
v -0.373510 0.043155 -0.112252
v 0.196569 0.046388 -0.297454
v -0.021181 0.047620 -0.368195
v 0.233767 0.540647 0.196184
v -0.118563 0.538651 0.310645
v -0.336309 0.543880 0.010983
v -0.118563 0.549113 -0.288678
v 0.233767 0.547113 -0.174218
v 0.204554 -0.598379 0.155072
v -0.029867 -0.448251 0.315407
v 0.282083 -0.444516 0.101420
v 0.204554 -0.592654 -0.172882
v -0.329813 -0.444224 0.084892
v -0.203234 -0.438006 -0.271559
v 0.174940 -0.438184 -0.261343
v 0.300386 -0.198131 0.162059
v 0.335371 0.278560 -0.049986
v -0.077787 -0.201491 0.354534
v 0.142572 0.271964 0.327979
v -0.377729 -0.196250 0.054402
v -0.276526 0.273126 0.261442
v -0.184931 -0.189654 -0.323563
v -0.342745 0.280441 -0.157643
v 0.234167 -0.190816 -0.257026
v 0.035425 0.283800 -0.350118
v 0.160875 0.520316 0.275976
v -0.217299 0.520494 0.265759
v -0.324442 0.526824 -0.097004
v -0.012491 0.530561 -0.310991
v 0.287455 0.526536 -0.080476
v 0.065042 0.673197 0.278644
v -0.246912 0.674964 0.177298
v -0.246912 0.680691 -0.150657
v 0.065042 0.682459 -0.252001
v -0.107401 -0.600148 0.256418
v 0.174940 -0.447090 0.248870
v 0.282083 -0.440756 -0.113893
v -0.300200 -0.595514 -0.008905
v -0.203234 -0.447267 0.259086
v -0.107401 -0.590885 -0.274227
v -0.329813 -0.441043 -0.097365
v -0.029867 -0.437023 -0.327880
v 0.335371 0.276595 0.062655
v 0.300386 -0.192407 -0.165896
v 0.035425 0.271356 0.362788
v 0.234167 -0.199722 0.253189
v -0.342745 0.274716 0.170312
v -0.184931 -0.200883 0.319726
v -0.276526 0.282031 -0.248772
v -0.377729 -0.194284 -0.058239
v 0.142572 0.283193 -0.315309
v -0.077787 -0.189047 -0.358371
v 0.287455 0.523354 0.101782
v -0.012491 0.519333 0.332296
v -0.324442 0.523066 0.118310
v -0.217299 0.529400 -0.244454
v 0.160875 0.529578 -0.254670
v 0.257841 0.677824 0.013321
v 0.114950 0.893905 -0.081828
v 0.212694 0.736875 -0.084391
v 0.144987 0.738502 -0.177566
v -0.073179 0.894975 -0.142944
v -0.042807 0.739569 -0.238574
v -0.152357 0.738947 -0.202984
v -0.189447 0.892179 0.017063
v -0.268419 0.736158 -0.043263
v -0.268419 0.734147 0.071907
v -0.073179 0.889388 0.177070
v -0.152357 0.731361 0.231628
v -0.042807 0.730740 0.267218
v 0.114950 0.890454 0.115953
v 0.144987 0.731803 0.206209
v 0.212694 0.733427 0.113035
v 0.296679 0.304382 -0.152967
v 0.277964 0.052464 -0.214967
v 0.228971 0.306009 -0.246142
v -0.074884 0.307733 -0.344856
v -0.135443 0.054810 -0.349271
v -0.184435 0.307112 -0.309266
v -0.372229 0.302599 -0.050831
v -0.390944 0.048673 0.002339
v -0.372229 0.300587 0.064339
v -0.184435 0.296080 0.322774
v -0.135443 0.042535 0.353950
v -0.074884 0.295459 0.358364
v 0.228971 0.297182 0.259651
v 0.277964 0.044877 0.219646
v 0.296679 0.298806 0.166475
v 0.093084 0.039777 -0.349534
v 0.142076 -0.213768 -0.318358
v 0.032526 -0.213147 -0.353948
v -0.320326 0.037432 -0.215230
v -0.271330 -0.214868 -0.255234
v -0.339037 -0.216495 -0.162059
v -0.320326 0.029846 0.219384
v -0.339037 -0.222070 0.157383
v -0.271330 -0.223697 0.250559
v 0.093084 0.027502 0.353688
v 0.032526 -0.225422 0.349273
v 0.142076 -0.224801 0.313682
v 0.348581 0.033639 0.002077
v 0.329870 -0.220289 0.055247
v 0.329870 -0.218278 -0.059923
v 0.109999 -0.649051 -0.227211
v 0.030821 -0.807077 -0.172653
v 0.000448 -0.648428 -0.262801
v -0.187346 -0.649493 -0.201793
v -0.157312 -0.808142 -0.111536
v -0.255053 -0.651117 -0.108619
v -0.255053 -0.654564 0.088808
v -0.157312 -0.811594 0.086243
v -0.187346 -0.656192 0.181982
v 0.226061 -0.651837 -0.067490
v 0.226061 -0.653848 0.047679
v 0.147089 -0.809870 -0.012646
v 0.000448 -0.657259 0.242990
v 0.030821 -0.812663 0.147360
v 0.109999 -0.656636 0.207400
v 0.013700 -0.885567 0.093402
v 0.242147 -0.578964 0.102020
v -0.112501 -0.884850 0.052403
v -0.112501 -0.882534 -0.080273
v 0.013700 -0.881818 -0.121272
v 0.310797 -0.292263 0.107025
v -0.023802 -0.296441 0.346278
v -0.354773 -0.292175 0.102041
v -0.224730 -0.285364 -0.288158
v 0.186613 -0.285420 -0.285076
v 0.276472 -0.116917 0.215737
v -0.134871 -0.119250 0.349371
v -0.389097 -0.113141 -0.000485
v -0.134871 -0.107037 -0.350342
v 0.276472 -0.109369 -0.216707
v 0.126837 0.655080 0.257235
v -0.207758 0.655571 0.229220
v -0.284506 0.661274 -0.097604
v 0.002653 0.664312 -0.271580
v 0.256880 0.660480 -0.052277
v 0.070143 0.967162 -0.047988
v 0.160318 0.801485 -0.116406
v 0.126837 0.663608 -0.231237
v -0.056063 0.967877 -0.088985
v -0.090506 0.802909 -0.197891
v -0.207758 0.663119 -0.203223
v -0.134058 0.966004 0.018352
v -0.245523 0.799184 0.015440
v -0.284506 0.657412 0.123600
v -0.056063 0.964130 0.125689
v -0.090506 0.795462 0.228769
v 0.002653 0.654378 0.297578
v 0.070143 0.964846 0.084690
v 0.160318 0.796882 0.147285
v 0.256880 0.658202 0.078275
v 0.312414 0.374485 -0.097624
v 0.272493 0.223825 -0.208000
v 0.182371 0.377611 -0.276585
v -0.018560 0.378752 -0.341861
v -0.133352 0.226127 -0.339847
v -0.228972 0.377559 -0.273504
v -0.353155 0.374574 -0.102608
v -0.384176 0.220102 0.005332
v -0.353155 0.370713 0.118597
v -0.228972 0.367732 0.289493
v -0.133352 0.214077 0.350510
v -0.018560 0.366539 0.357849
v 0.182371 0.367676 0.292574
v 0.272493 0.216378 0.218663
v 0.312414 0.370798 0.113613
v 0.092512 0.201560 -0.344955
v 0.090994 -0.131767 -0.346094
v -0.023802 -0.284227 -0.353434
v -0.318831 0.199227 -0.211321
v -0.314852 -0.134068 -0.214247
v -0.354773 -0.288489 -0.109196
v -0.318831 0.191679 0.221124
v -0.314852 -0.141516 0.212416
v -0.224730 -0.295299 0.281002
v 0.092512 0.189346 0.354758
v 0.090994 -0.143817 0.344263
v 0.186613 -0.295247 0.277920
v 0.346739 0.195451 0.004901
v 0.341818 -0.137792 -0.000915
v 0.310797 -0.288401 -0.114181
v 0.165400 -0.573259 -0.224804
v 0.048147 -0.713152 -0.224354
v -0.045012 -0.572066 -0.293161
v -0.169195 -0.572770 -0.252818
v -0.202677 -0.714571 -0.142869
v -0.299238 -0.575892 -0.073858
v -0.299238 -0.578171 0.056694
v -0.202677 -0.719174 0.120823
v -0.169195 -0.581297 0.235654
v 0.242147 -0.575103 -0.119185
v 0.203165 -0.716874 -0.011023
v 0.091700 -0.883694 -0.013935
v -0.045012 -0.582001 0.275997
v 0.048147 -0.720600 0.202307
v 0.165400 -0.580807 0.207639
v -0.019129 -0.986188 -0.009416
v -0.026545 -0.986146 -0.011825
v -0.026545 -0.986010 -0.019620
v -0.019129 -0.985968 -0.022029
v -0.014547 -0.986078 -0.015722
v -0.020937 -0.986610 -0.009646
v -0.022982 -0.986749 -0.010185
v -0.017797 -0.986592 -0.010666
v -0.019918 -0.987448 -0.011864
v -0.022154 -0.987894 -0.012759
v -0.021181 -0.988800 -0.015770
v -0.026892 -0.986540 -0.013620
v -0.027014 -0.986652 -0.015732
v -0.024950 -0.986587 -0.010950
v -0.024481 -0.987423 -0.013347
v -0.024328 -0.987842 -0.015753
v -0.024950 -0.986420 -0.020509
v -0.022982 -0.986555 -0.021280
v -0.026892 -0.986467 -0.017839
v -0.024481 -0.987339 -0.018143
v -0.022154 -0.987790 -0.018747
v -0.017797 -0.986415 -0.020793
v -0.016459 -0.986592 -0.019161
v -0.020937 -0.986397 -0.021813
v -0.019918 -0.987313 -0.019626
v -0.018633 -0.987810 -0.017603
v -0.015318 -0.986532 -0.014079
v -0.016459 -0.986712 -0.012304
v -0.015318 -0.986475 -0.017380
v -0.017099 -0.987381 -0.015745
v -0.018633 -0.987875 -0.013903
v -0.015814 1.068458 0.016240
v -0.023230 1.068500 0.013832
v -0.027811 1.068390 0.020139
v -0.023230 1.068280 0.026445
v -0.015814 1.068322 0.024036
v -0.017408 1.068897 0.015365
v -0.019377 1.069061 0.014601
v -0.015467 1.068850 0.018037
v -0.017878 1.069734 0.017762
v -0.020208 1.070204 0.017176
v -0.021181 1.071110 0.020186
v -0.024561 1.068902 0.015082
v -0.025900 1.069024 0.016720
v -0.021421 1.068920 0.014063
v -0.022440 1.069760 0.016281
v -0.023726 1.070185 0.018319
v -0.027041 1.068785 0.021796
v -0.025900 1.068904 0.023577
v -0.027041 1.068842 0.018496
v -0.025263 1.069692 0.020161
v -0.023726 1.070120 0.022020
v -0.021421 1.068709 0.026230
v -0.019377 1.068867 0.025696
v -0.024561 1.068725 0.025209
v -0.022440 1.069625 0.024042
v -0.020208 1.070100 0.023163
v -0.015467 1.068776 0.022255
v -0.015345 1.068962 0.020149
v -0.017408 1.068732 0.024926
v -0.017878 1.069651 0.022560
v -0.018030 1.070152 0.020169
v -0.084887 -0.777547 0.170871
v -0.077158 -0.777591 0.173382
v -0.079596 -0.772923 0.176322
v -0.082342 -0.772258 0.176280
v -0.084597 -0.772895 0.174696
v -0.083349 -0.777103 0.172174
v -0.081339 -0.776955 0.173109
v -0.079165 -0.777126 0.173533
v 0.133104 -0.776399 0.105073
v 0.137884 -0.776284 0.098498
v 0.139849 -0.771622 0.101780
v 0.138948 -0.771005 0.104388
v 0.136759 -0.771696 0.106035
v 0.134813 -0.775915 0.104017
v 0.136320 -0.775723 0.102397
v 0.137400 -0.775853 0.100459
v 0.137884 -0.772425 -0.122551
v 0.133104 -0.772311 -0.129126
v 0.136759 -0.767577 -0.129924
v 0.138948 -0.766943 -0.128254
v 0.139849 -0.767652 -0.125668
v 0.137400 -0.771924 -0.124496
v 0.136320 -0.771728 -0.126428
v 0.134813 -0.771862 -0.128054
v -0.214842 -0.774280 -0.016090
v -0.214842 -0.774422 -0.007963
v -0.218309 -0.769679 -0.009314
v -0.219111 -0.768971 -0.011933
v -0.218309 -0.769587 -0.014574
v -0.215597 -0.773847 -0.014217
v -0.215860 -0.773721 -0.012016
v -0.215597 -0.773924 -0.009819
v -0.077158 -0.771118 -0.197435
v -0.084887 -0.771162 -0.194924
v -0.084597 -0.766379 -0.198585
v -0.082342 -0.765688 -0.200145
v -0.079596 -0.766350 -0.200210
v -0.079165 -0.770649 -0.197570
v -0.081339 -0.770492 -0.197140
v -0.083349 -0.770672 -0.196211
v 0.042528 0.853472 0.199340
v 0.034800 0.853428 0.201852
v 0.037233 0.848660 0.204627
v 0.039984 0.847999 0.204561
v 0.042238 0.848688 0.203001
v 0.040991 0.852984 0.200627
v 0.038980 0.852804 0.201556
v 0.036806 0.852960 0.201985
v 0.172480 0.856733 0.012380
v 0.172480 0.856592 0.020506
v 0.175951 0.851899 0.018990
v 0.176748 0.851283 0.016348
v 0.175951 0.851991 0.013731
v 0.173235 0.856233 0.014236
v 0.173502 0.856033 0.016432
v 0.173235 0.856157 0.018634
v -0.175467 0.854620 0.133542
v -0.180243 0.854735 0.126968
v -0.182207 0.849961 0.130085
v -0.181307 0.849254 0.132670
v -0.179117 0.849887 0.134340
v -0.177172 0.854174 0.132470
v -0.178679 0.854038 0.130844
v -0.179758 0.854236 0.128912
v -0.180243 0.858594 -0.094082
v -0.175467 0.858708 -0.100656
v -0.179117 0.854006 -0.101619
v -0.181307 0.853315 -0.099972
v -0.182207 0.853931 -0.097364
v -0.179758 0.858162 -0.096042
v -0.178679 0.858032 -0.097980
v -0.177172 0.858225 -0.099601
v 0.034800 0.859901 -0.168966
v 0.042528 0.859857 -0.166454
v 0.042238 0.855204 -0.170280
v 0.039984 0.854570 -0.171863
v 0.037233 0.855233 -0.171905
v 0.036806 0.859438 -0.169116
v 0.038980 0.859267 -0.168692
v 0.040991 0.859414 -0.167757
v -0.056738 -0.908550 0.082215
v -0.049173 -0.908593 0.084672
v -0.055071 -0.909018 0.082985
v -0.053049 -0.909191 0.083722
v -0.050978 -0.909041 0.084315
v -0.124010 -0.906795 -0.018316
v -0.124010 -0.906934 -0.010363
v -0.124235 -0.907279 -0.016500
v -0.124315 -0.907475 -0.014350
v -0.124235 -0.907354 -0.012195
v -0.049173 -0.905136 -0.113351
v -0.056738 -0.905179 -0.110894
v -0.050978 -0.905596 -0.113010
v -0.053049 -0.905767 -0.112423
v -0.055071 -0.905620 -0.111680
v 0.081652 0.989244 0.014779
v 0.081652 0.989105 0.022733
v 0.081877 0.989666 0.016612
v 0.081957 0.989786 0.018767
v 0.081877 0.989591 0.020916
v 0.064348 -0.907865 0.042876
v 0.059675 -0.907978 0.049310
v 0.063459 -0.908345 0.044476
v 0.062258 -0.908537 0.046261
v 0.060930 -0.908406 0.047959
v 0.059675 -0.905754 -0.077989
v 0.064348 -0.905866 -0.071555
v 0.060930 -0.906231 -0.076654
v 0.062258 -0.906421 -0.074962
v 0.063459 -0.906292 -0.073171
v 0.006815 0.987448 0.117768
v 0.014379 0.987491 0.115309
v 0.008619 0.987906 0.117426
v 0.010691 0.988077 0.116839
v 0.012712 0.987929 0.116096
v -0.106710 0.988178 0.075972
v -0.102034 0.988066 0.082406
v -0.105818 0.988603 0.077588
v -0.104616 0.988730 0.079378
v -0.103289 0.988543 0.081070
v -0.102034 0.990288 -0.044894
v -0.106710 0.990175 -0.038460
v -0.103289 0.990718 -0.043542
v -0.104616 0.990846 -0.041845
v -0.105818 0.990657 -0.040061
v 0.014379 0.990862 -0.077798
v 0.006815 0.990905 -0.080257
v 0.012712 0.991327 -0.078569
v 0.010691 0.991500 -0.079305
v 0.008619 0.991351 -0.079898
vt 0.400339 0.202144
vt 0.400333 0.364008
vt 0.307128 0.283073
vt 0.184047 0.279203
vt 0.253745 0.174936
vt 0.295618 0.279555
vt 0.272766 0.962606
vt 0.342850 0.868621
vt 0.375211 0.898386
vt 0.397827 0.818032
vt 0.399661 0.800375
vt 0.429577 0.795048
vt 0.310767 0.844968
vt 0.311150 0.805521
vt 0.324473 0.805141
vt 0.263659 0.963089
vt 0.150894 0.900835
vt 0.227004 0.847664
vt 0.298608 0.797659
vt 0.299213 0.831267
vt 0.270874 0.843946
vt 0.394465 0.369943
vt 0.260959 0.394212
vt 0.302337 0.289101
vt 0.498769 0.889355
vt 0.466292 0.774208
vt 0.399689 0.727604
vt 0.383568 0.720163
vt 0.388303 0.689615
vt 0.253738 0.391207
vt 0.184047 0.286933
vt 0.295618 0.286590
vt 0.501057 0.656896
vt 0.380407 0.646397
vt 0.313823 0.697102
vt 0.301714 0.710313
vt 0.273925 0.696474
vt 0.260966 0.171932
vt 0.394470 0.196207
vt 0.302337 0.277044
vt 0.276552 0.579250
vt 0.230249 0.690945
vt 0.247162 0.731593
vt 0.267891 0.754715
vt 0.258361 0.769917
vt 0.320399 0.792765
vt 0.326619 0.789024
vt 0.320800 0.786463
vt 0.330030 0.779623
vt 0.364422 0.792945
vt 0.351444 0.793001
vt 0.349810 0.785949
vt 0.349405 0.815175
vt 0.360698 0.805681
vt 0.345587 0.790684
vt 0.341937 0.779812
vt 0.365280 0.751290
vt 0.361273 0.763631
vt 0.354071 0.762984
vt 0.381610 0.772463
vt 0.376176 0.758823
vt 0.357251 0.768464
vt 0.345796 0.768559
vt 0.325871 0.737458
vt 0.336404 0.745121
vt 0.333549 0.751786
vt 0.351193 0.728463
vt 0.336462 0.729387
vt 0.339758 0.750460
vt 0.336291 0.761399
vt 0.300521 0.770788
vt 0.311062 0.763106
vt 0.316535 0.767879
vt 0.299721 0.743864
vt 0.296076 0.758212
vt 0.317185 0.761553
vt 0.326536 0.768231
vt 0.332736 0.791142
vt 0.330943 0.786433
vt 0.335874 0.781651
vt 0.332892 0.780810
vt 0.353705 0.780799
vt 0.348684 0.781046
vt 0.345666 0.774887
vt 0.343948 0.777459
vt 0.350391 0.757678
vt 0.349064 0.762530
vt 0.342271 0.763485
vt 0.344184 0.765918
vt 0.327350 0.753648
vt 0.331563 0.756416
vt 0.330370 0.763182
vt 0.333279 0.762115
vt 0.316401 0.774357
vt 0.320333 0.771198
vt 0.326407 0.774418
vt 0.326288 0.771320
vt 0.336157 0.774019
vt 0.336556 0.772960
vt 0.336979 0.774364
vt 0.335344 0.773755
vt 0.336214 0.773106
vt 0.336193 0.771764
vt 0.336518 0.771833
vt 0.336326 0.772137
vt 0.338502 0.772263
vt 0.337616 0.771558
vt 0.339083 0.771587
vt 0.338002 0.772953
vt 0.337650 0.771929
vt 0.612871 0.364874
vt 0.662438 0.525125
vt 0.513652 0.515105
vt 0.337554 0.769488
vt 0.336607 0.770111
vt 0.337092 0.768724
vt 0.338055 0.770178
vt 0.336970 0.770194
vt 0.753591 0.386145
vt 0.909523 0.413926
vt 0.820736 0.540219
vt 0.334623 0.769526
vt 0.334924 0.770617
vt 0.333755 0.769730
vt 0.335434 0.769263
vt 0.335114 0.770297
vt 0.823287 0.274148
vt 0.909532 0.142100
vt 0.989452 0.273724
vt 0.333757 0.772326
vt 0.334889 0.772377
vt 0.333683 0.773217
vt 0.333756 0.771473
vt 0.334643 0.772097
vt 0.753594 0.169879
vt 0.820752 0.015786
vt 0.335571 0.771879
vt 0.334981 0.771761
vt 0.335252 0.771504
vt 0.335603 0.771152
vt 0.335619 0.771511
vt 0.547938 0.775890
vt 0.675976 0.841627
vt 0.503878 0.887971
vt 0.335600 0.771885
vt 0.335959 0.771988
vt 0.335838 0.772338
vt 0.334991 0.771234
vt 0.334667 0.770886
vt 0.333792 0.770621
vt 0.823287 0.281877
vt 0.989452 0.282309
vt 0.335600 0.771122
vt 0.335536 0.770515
vt 0.335864 0.770695
vt 0.336306 0.770922
vt 0.335968 0.771054
vt 0.711717 0.274493
vt 0.336041 0.770364
vt 0.336272 0.769949
vt 0.336255 0.769035
vt 0.746370 0.389149
vt 0.812768 0.543668
vt 0.336335 0.770911
vt 0.336892 0.770664
vt 0.336823 0.771035
vt 0.336754 0.771532
vt 0.336506 0.771244
vt 0.711717 0.281527
vt 0.337196 0.771099
vt 0.337664 0.771189
vt 0.338528 0.770888
vt 0.336330 0.771545
vt 0.336754 0.771557
vt 0.336773 0.771555
vt 0.337181 0.772002
vt 0.336810 0.772051
vt 0.704998 0.284038
vt 0.336866 0.772420
vt 0.746373 0.166875
vt 0.662441 0.030893
vt 0.812783 0.012337
vt 0.336922 0.772893
vt 0.337473 0.773621
vt 0.612873 0.191147
vt 0.513652 0.040917
vt 0.336311 0.772162
vt 0.336001 0.772681
vt 0.607003 0.358939
vt 0.607005 0.197083
vt 0.700207 0.278011
vt 0.335498 0.772504
vt 0.335066 0.772705
vt 0.334543 0.773457
vt 0.331235 0.772197
vt 0.331384 0.773827
vt 0.332270 0.772684
vt 0.329889 0.771394
vt 0.331267 0.770648
vt 0.331484 0.769026
vt 0.332322 0.770204
vt 0.333969 0.767089
vt 0.332466 0.767733
vt 0.333825 0.768223
vt 0.334318 0.765562
vt 0.335452 0.766642
vt 0.337061 0.766348
vt 0.336199 0.767508
vt 0.339670 0.768112
vt 0.338593 0.766882
vt 0.338547 0.768326
vt 0.341229 0.767971
vt 0.340554 0.769383
vt 0.341332 0.770821
vt 0.339963 0.770362
vt 0.340464 0.773848
vt 0.341299 0.772443
vt 0.339913 0.772846
vt 0.341081 0.775287
vt 0.339529 0.775082
vt 0.338402 0.776267
vt 0.338416 0.774822
vt 0.335253 0.776376
vt 0.336848 0.776737
vt 0.336036 0.775542
vt 0.334074 0.777409
vt 0.333788 0.775867
vt 0.332312 0.775161
vt 0.333691 0.774727
vt 0.330820 0.767503
vt 0.327975 0.765343
vt 0.322559 0.761229
vt 0.321431 0.755967
vt 0.321291 0.749654
vt 0.312577 0.736527
vt 0.338304 0.765246
vt 0.339480 0.761876
vt 0.341719 0.755464
vt 0.346368 0.752774
vt 0.352315 0.750700
vt 0.362084 0.738414
vt 0.342764 0.771662
vt 0.346330 0.771735
vt 0.353112 0.771875
vt 0.357108 0.775454
vt 0.360927 0.780449
vt 0.375619 0.785867
vt 0.338046 0.777890
vt 0.339080 0.781305
vt 0.341053 0.787804
vt 0.338886 0.792724
vt 0.335314 0.797920
vt 0.334722 0.813644
vt 0.330657 0.775323
vt 0.327725 0.777364
vt 0.322144 0.781251
vt 0.316788 0.780704
vt 0.310735 0.778900
vt 0.295559 0.783171
vt 0.131537 0.761010
vt 0.156414 0.634674
vt 0.134770 0.769533
vt 0.245585 0.807747
vt 0.346852 0.674797
vt 0.331187 0.701531
vt 0.283693 0.573579
vt 0.411748 0.558924
vt 0.344890 0.530199
vt 0.194551 0.548732
vt 0.430464 0.751875
vt 0.400793 0.745319
vt 0.097799 0.418980
vt 0.186584 0.545282
vt 0.508521 0.662100
vt 0.678568 0.715472
vt 0.384883 0.855524
vt 0.381412 0.824802
vt 0.328301 0.841260
vt 0.267254 0.785501
vt 0.017878 0.287354
vt 0.344900 0.035954
vt 0.194568 0.017410
vt 0.097809 0.147151
vt 0.017879 0.278770
vt 0.704998 0.271982
vt 0.493688 0.520186
vt 0.496505 0.898205
vt 0.402922 0.987090
vt 0.493688 0.045977
vt 0.186601 0.020859
vt 0.301658 0.279617
vt 0.300674 0.277531
vt 0.304895 0.279842
vt 0.303603 0.278325
vt 0.298885 0.278146
vt 0.302812 0.281447
vt 0.299743 0.280522
vt 0.304282 0.283073
vt 0.306109 0.281473
vt 0.304895 0.286303
vt 0.306109 0.284672
vt 0.302812 0.284699
vt 0.301658 0.286528
vt 0.303603 0.287820
vt 0.298884 0.287999
vt 0.300673 0.288614
vt 0.299743 0.285623
vt 0.297710 0.285136
vt 0.297147 0.287302
vt 0.295448 0.283072
vt 0.295493 0.284919
vt 0.297933 0.283072
vt 0.297710 0.281009
vt 0.295493 0.281226
vt 0.297148 0.278842
vt 0.709624 0.275948
vt 0.710188 0.273780
vt 0.711886 0.278010
vt 0.711842 0.276163
vt 0.708451 0.273084
vt 0.709402 0.278010
vt 0.707592 0.275459
vt 0.709624 0.280074
vt 0.711842 0.279857
vt 0.708450 0.282936
vt 0.710188 0.282239
vt 0.707592 0.280560
vt 0.705678 0.281464
vt 0.706662 0.283552
vt 0.702441 0.281240
vt 0.703732 0.282758
vt 0.704523 0.279636
vt 0.703053 0.278010
vt 0.701226 0.279609
vt 0.702441 0.274780
vt 0.701227 0.276411
vt 0.704523 0.276385
vt 0.705677 0.274556
vt 0.703733 0.273263
vt 0.706661 0.272469
vt 0.498224 0.047502
vt 0.495981 0.046401
vt 0.498705 0.041390
vt 0.190124 0.018071
vt 0.188105 0.019275
vt 0.185553 0.014563
vt 0.016733 0.283062
vt 0.017031 0.285367
vt 0.011754 0.285831
vt 0.498223 0.518660
vt 0.500111 0.517018
vt 0.503670 0.521477
vt 0.190106 0.548072
vt 0.192366 0.548720
vt 0.190677 0.553804
vt 0.509117 0.042444
vt 0.507228 0.044085
vt 0.503670 0.039628
vt 0.335589 0.771877
vt 0.335594 0.771882
vt 0.335582 0.771894
vt 0.509117 0.513577
vt 0.511360 0.514679
vt 0.508635 0.519691
vt 0.817212 0.543007
vt 0.819231 0.541804
vt 0.821783 0.546514
vt 0.990597 0.278016
vt 0.990298 0.275712
vt 0.995576 0.275248
vt 0.676783 0.843566
vt 0.503557 0.890240
vt 0.677501 0.845852
vt 0.503888 0.892682
vt 0.397561 0.199182
vt 0.395862 0.197637
vt 0.399015 0.200792
vt 0.395857 0.368515
vt 0.495980 0.519761
vt 0.397558 0.366970
vt 0.680261 0.711312
vt 0.508295 0.659820
vt 0.508725 0.657394
vt 0.679452 0.713567
vt 0.399011 0.365360
vt 0.255481 0.391753
vt 0.188087 0.546868
vt 0.257432 0.392503
vt 0.259340 0.393358
vt 0.751851 0.169333
vt 0.819249 0.014199
vt 0.749901 0.168582
vt 0.817228 0.012997
vt 0.814969 0.012345
vt 0.747992 0.167728
vt 0.255487 0.174389
vt 0.257438 0.173639
vt 0.259346 0.172784
vt 0.192384 0.017423
vt 0.184211 0.285134
vt 0.184268 0.283068
vt 0.184211 0.281003
vt 0.017031 0.280757
vt 0.608327 0.195730
vt 0.609782 0.194121
vt 0.611481 0.192575
vt 0.336189 0.771766
vt 0.336322 0.772141
vt 0.336184 0.771767
vt 0.511360 0.041343
vt 0.611479 0.363445
vt 0.609779 0.361900
vt 0.608326 0.360290
vt 0.336330 0.771534
vt 0.336756 0.771552
vt 0.336330 0.771540
vt 0.751848 0.386690
vt 0.749898 0.387440
vt 0.747989 0.388295
vt 0.814952 0.543656
vt 0.823124 0.275948
vt 0.823067 0.278013
vt 0.823124 0.280078
vt 0.990298 0.280322
vt 0.451035 0.283078
vt 0.186005 0.205488
vt 0.275553 0.967159
vt 0.497544 0.891146
vt 0.268652 0.961197
vt 0.331277 0.423846
vt 0.502325 0.658667
vt 0.185999 0.360650
vt 0.501577 0.651573
vt 0.278619 0.578575
vt 0.331284 0.142302
vt 0.271641 0.577154
vt 0.134757 0.767359
vt 0.134860 0.765187
vt 0.336328 0.771703
vt 0.676054 0.418778
vt 0.821330 0.355592
vt 0.821332 0.200434
vt 0.335585 0.771865
vt 0.335588 0.771137
vt 0.641279 0.777809
vt 0.335619 0.771132
vt 0.336316 0.770904
vt 0.335590 0.771127
vt 0.336330 0.770932
vt 0.336774 0.771536
vt 0.336327 0.770904
vt 0.336329 0.772156
vt 0.336778 0.771545
vt 0.676057 0.137244
vt 0.336303 0.772144
vt 0.335573 0.771889
vt 0.556307 0.278010
vt 0.336321 0.772163
vt 0.131277 0.773569
vt 0.280720 0.578013
vt 0.503473 0.660508
vt 0.496205 0.892865
vt 0.270689 0.961959
vt 0.300605 0.283073
vt 0.706731 0.278010
vt 0.503670 0.044686
vt 0.501392 0.051086
vt 0.500113 0.049143
vt 0.501810 0.042101
vt 0.190694 0.012338
vt 0.187704 0.012482
vt 0.011754 0.280292
vt 0.010709 0.283062
vt 0.498704 0.524773
vt 0.501808 0.524061
vt 0.501392 0.515077
vt 0.185536 0.551578
vt 0.187686 0.553662
vt 0.508635 0.036330
vt 0.505532 0.037043
vt 0.505948 0.046026
vt 0.335586 0.771871
vt 0.503670 0.516395
vt 0.505948 0.509995
vt 0.507229 0.511937
vt 0.505532 0.518978
vt 0.816642 0.548740
vt 0.819631 0.548597
vt 0.995576 0.280786
vt 0.996620 0.278016
vt 0.336316 0.772144
vt 0.336758 0.771545
vn -0.0000 0.0175 -0.9998
vn -0.0000 -0.0175 0.9998
vn 0.0001 0.9998 0.0174
vn -0.0001 -0.9998 -0.0175
vn -0.5051 -0.6655 0.5495
vn -0.6898 -0.6611 0.2951
vn -0.4884 -0.8032 0.3411
vn 0.7385 -0.6529 -0.1684
vn 0.7382 -0.6586 0.1459
vn 0.6038 -0.7970 -0.0138
vn 0.5681 -0.5091 0.6465
vn 0.4630 -0.4112 0.7852
vn 0.2715 -0.4919 0.8272
vn -0.2884 -0.3742 0.8814
vn -0.5182 -0.3365 0.7863
vn -0.6104 -0.4094 0.6781
vn 0.7552 -0.3682 0.5423
vn 0.9237 -0.2341 0.3032
vn 0.7936 -0.2041 0.5731
vn 0.8007 -0.5369 0.2656
vn 0.8371 -0.5469 -0.0095
vn 0.8787 -0.4773 -0.0083
vn 0.9703 -0.2419 -0.0042
vn 0.8848 -0.3285 0.3305
vn 0.8966 -0.4008 0.1885
vn -0.6898 -0.6504 -0.3180
vn -0.5051 -0.6459 -0.5725
vn -0.4883 -0.7909 -0.3689
vn -0.4477 -0.5107 0.7340
vn -0.7109 -0.4864 0.5081
vn -0.9334 -0.3587 -0.0063
vn -0.9134 -0.3183 -0.2536
vn -0.8402 -0.3910 -0.3757
vn 0.0789 -0.6426 -0.7621
vn 0.3776 -0.6443 -0.6650
vn 0.1865 -0.7871 -0.5880
vn -0.8447 -0.4943 -0.2050
vn -0.7109 -0.4683 -0.5247
vn -0.2884 -0.3432 -0.8939
vn -0.0464 -0.3062 -0.9508
vn 0.0912 -0.3815 -0.9199
vn 0.3779 -0.6672 0.6419
vn 0.0789 -0.6688 0.7392
vn 0.1866 -0.8071 0.5601
vn -0.0743 -0.4826 -0.8727
vn 0.2715 -0.4628 -0.8439
vn 0.4630 -0.3836 -0.7991
vn 0.5932 -0.3098 -0.7431
vn 0.7552 -0.3491 -0.5548
vn 0.9448 -0.1544 0.2890
vn 0.8941 -0.1002 0.4365
vn 0.9848 -0.1069 0.1368
vn 0.9511 -0.0054 0.3090
vn -0.3031 -0.2103 0.9295
vn 0.0145 -0.1665 0.9859
vn -0.1404 -0.1097 0.9840
vn 0.2998 -0.2580 0.9184
vn -0.0068 -0.2457 0.9693
vn 0.1724 -0.1216 0.9775
vn -0.9810 -0.1940 -0.0034
vn -0.9358 -0.1548 0.3167
vn -0.9809 -0.0955 0.1694
vn -0.7850 -0.2519 0.5660
vn -0.9279 -0.2339 0.2903
vn -0.8782 -0.1126 0.4648
vn -0.9511 -0.0054 0.3090
vn -0.3031 -0.1777 -0.9362
vn -0.5929 -0.1355 -0.7938
vn -0.4658 -0.0771 -0.8815
vn -0.7850 -0.2319 -0.5745
vn -0.5667 -0.2149 -0.7954
vn -0.7152 -0.0924 -0.6928
vn -0.5878 0.0141 -0.8089
vn 0.7936 -0.1839 -0.5799
vn 0.5694 -0.1352 -0.8109
vn 0.6930 -0.0800 -0.7165
vn 0.2998 -0.2258 -0.9269
vn 0.5777 -0.2151 -0.7874
vn 0.4362 -0.0889 -0.8954
vn 0.5878 0.0141 -0.8089
vn 0.6930 -0.1050 0.7132
vn 0.8083 -0.0531 0.5864
vn 0.5878 -0.0141 0.8089
vn 0.8089 0.0048 0.5879
vn -0.4658 -0.1079 0.8783
vn -0.3087 -0.0594 0.9493
vn -0.5878 -0.0141 0.8089
vn -0.3090 -0.0016 0.9511
vn -0.9809 -0.0895 -0.1727
vn -0.9991 -0.0429 -0.0007
vn -0.9511 0.0054 -0.3090
vn -0.9999 0.0150 0.0003
vn -0.1404 -0.0753 -0.9872
vn -0.3087 -0.0263 -0.9508
vn -0.3090 0.0316 -0.9505
vn 0.8941 -0.0849 -0.4397
vn 0.8083 -0.0326 -0.5879
vn 0.9511 0.0054 -0.3090
vn 0.8089 0.0253 -0.5874
vn 0.5667 0.2149 0.7954
vn 0.2885 0.3432 0.8939
vn 0.3031 0.1777 0.9362
vn 0.7850 0.2319 0.5745
vn 0.5182 0.3088 0.7976
vn -0.0783 0.6427 0.7621
vn -0.2587 0.5330 0.8056
vn 0.0143 0.5174 0.8556
vn -0.5777 0.2151 0.7874
vn -0.7552 0.3491 0.5548
vn -0.7936 0.1839 0.5799
vn -0.2998 0.2258 0.9269
vn -0.5932 0.3098 0.7431
vn -0.7383 0.6530 0.1688
vn -0.8371 0.5469 0.0095
vn -0.8007 0.5274 0.2843
vn -0.9237 0.2341 -0.3032
vn -0.7552 0.3683 -0.5423
vn -0.7936 0.2041 -0.5731
vn -0.9703 0.2419 0.0042
vn -0.8848 0.3285 -0.3305
vn -0.3777 0.6672 -0.6420
vn -0.2587 0.5608 -0.7865
vn -0.5087 0.5439 -0.6673
vn 0.0068 0.2457 -0.9693
vn 0.2884 0.3742 -0.8814
vn 0.3031 0.2103 -0.9295
vn -0.2998 0.2580 -0.9184
vn 0.0464 0.3392 -0.9396
vn 0.5046 0.6656 -0.5498
vn 0.6773 0.5555 -0.4824
vn 0.4861 0.5443 -0.6838
vn 0.9279 0.2339 -0.2903
vn 0.9334 0.3587 0.0063
vn 0.9810 0.1940 0.0034
vn 0.7850 0.2519 -0.5660
vn 0.9134 0.3270 -0.2424
vn 0.6897 0.6611 -0.2953
vn 0.8094 0.5366 -0.2385
vn 0.8447 0.5013 -0.1877
vn 0.8402 0.4038 -0.3619
vn 0.7109 0.4864 -0.5081
vn -0.6773 -0.5555 0.4824
vn -0.4860 -0.5443 0.6838
vn 0.8095 0.5279 0.2570
vn 0.6773 0.5383 0.5015
vn 0.7109 0.4683 0.5247
vn 0.6104 0.4094 -0.6781
vn 0.5182 0.3365 -0.7863
vn 0.5667 0.2426 -0.7874
vn -0.0783 0.6689 -0.7392
vn 0.0143 0.5469 -0.8371
vn 0.0743 0.5128 -0.8553
vn -0.0912 0.4133 -0.9060
vn -0.2715 0.4919 -0.8272
vn 0.4884 0.8035 -0.3404
vn -0.4630 0.4112 -0.7852
vn -0.5932 0.3355 -0.7318
vn -0.5777 0.2424 -0.7795
vn -0.7383 0.6585 -0.1459
vn -0.8006 0.5370 -0.2658
vn -0.7988 0.5037 -0.3289
vn -0.8966 0.4008 -0.1885
vn -0.8787 0.4773 0.0083
vn -0.1865 0.8072 -0.5600
vn -0.8966 0.3940 0.2024
vn -0.8848 0.3168 0.3418
vn -0.9237 0.2234 0.3112
vn -0.3777 0.6443 0.6650
vn -0.5090 0.5205 0.6855
vn -0.5679 0.4863 0.6640
vn -0.4630 0.3836 0.7991
vn -0.2715 0.4628 0.8439
vn -0.6034 0.7973 0.0137
vn -0.0912 0.3815 0.9199
vn 0.6897 0.6504 0.3182
vn 0.0464 0.3062 0.9508
vn 0.0068 0.2118 0.9773
vn 0.5047 0.6460 0.5727
vn 0.4861 0.5200 0.7023
vn 0.4478 0.4847 0.7513
vn 0.6104 0.3854 0.6919
vn -0.1870 0.7871 0.5878
vn 0.8402 0.3910 0.3757
vn 0.9134 0.3184 0.2536
vn 0.9279 0.2236 0.2983
vn 0.8782 0.1126 -0.4648
vn 0.9809 0.0955 -0.1694
vn 0.9358 0.1549 -0.3167
vn 0.8076 0.0698 -0.5856
vn 0.7152 0.1166 -0.6891
vn 0.4658 0.1079 -0.8783
vn 0.5929 0.1631 -0.7886
vn -0.1724 0.1216 -0.9775
vn 0.1404 0.1097 -0.9840
vn -0.0145 0.1665 -0.9859
vn -0.3085 0.0761 -0.9482
vn -0.4362 0.1201 -0.8918
vn -0.6930 0.1050 -0.7132
vn -0.5694 0.1634 -0.8057
vn -0.9848 0.1069 -0.1368
vn -0.8941 0.1002 -0.4365
vn -0.9448 0.1544 -0.2890
vn -0.9982 0.0596 0.0010
vn -0.9848 0.1021 0.1405
vn -0.8941 0.0849 0.4397
vn -0.9448 0.1442 0.2942
vn -0.4362 0.0889 0.8954
vn -0.6930 0.0800 0.7165
vn -0.5694 0.1352 0.8109
vn -0.3085 0.0430 0.9503
vn -0.1724 0.0874 0.9811
vn 0.1404 0.0753 0.9872
vn -0.0145 0.1320 0.9911
vn 0.7152 0.0924 0.6928
vn 0.4658 0.0771 0.8815
vn 0.5929 0.1355 0.7938
vn 0.8076 0.0493 0.5877
vn 0.8782 0.0964 0.4684
vn 0.9809 0.0895 0.1727
vn 0.9358 0.1437 0.3219
vn 0.3087 0.0594 -0.9493
vn 0.3090 0.0016 -0.9511
vn 0.3085 -0.0430 -0.9503
vn 0.1724 -0.0874 -0.9811
vn 0.0145 -0.1320 -0.9911
vn -0.0068 -0.2118 -0.9773
vn -0.8083 0.0531 -0.5864
vn -0.8089 -0.0048 -0.5879
vn -0.8076 -0.0493 -0.5877
vn -0.8782 -0.0964 -0.4684
vn -0.9358 -0.1437 -0.3219
vn -0.9279 -0.2236 -0.2983
vn -0.8083 0.0326 0.5879
vn -0.8089 -0.0253 0.5874
vn -0.8076 -0.0698 0.5856
vn -0.7152 -0.1166 0.6891
vn -0.5929 -0.1631 0.7886
vn -0.5667 -0.2426 0.7874
vn 0.3087 0.0263 0.9508
vn 0.3090 -0.0316 0.9505
vn 0.3085 -0.0761 0.9482
vn 0.4362 -0.1201 0.8918
vn 0.5694 -0.1634 0.8057
vn 0.5777 -0.2424 0.7794
vn 0.9991 0.0429 0.0007
vn 0.9999 -0.0150 -0.0003
vn 0.9982 -0.0596 -0.0010
vn 0.9848 -0.1021 -0.1405
vn 0.9448 -0.1442 -0.2943
vn 0.9237 -0.2234 -0.3112
vn 0.5092 -0.5204 -0.6855
vn 0.2587 -0.5330 -0.8056
vn 0.7988 -0.4918 -0.3464
vn 0.8966 -0.3940 -0.2024
vn -0.6104 -0.3854 -0.6920
vn -0.5182 -0.3089 -0.7976
vn -0.4859 -0.5201 -0.7024
vn -0.6773 -0.5383 -0.5015
vn -0.8402 -0.4038 0.3619
vn -0.9134 -0.3270 0.2424
vn -0.0141 -0.5174 -0.8556
vn -0.8094 -0.5365 0.2389
vn 0.0912 -0.4133 0.9060
vn -0.0464 -0.3392 0.9396
vn 0.5932 -0.3355 0.7318
vn 0.8848 -0.3168 -0.3418
vn 0.2587 -0.5608 0.7865
vn 0.5091 -0.5440 0.6670
vn 0.8006 -0.5274 -0.2843
vn 0.4887 0.7910 0.3681
vn -0.8094 -0.5278 -0.2575
vn -0.0144 -0.5470 0.8370
vn 0.1155 -0.9334 0.3396
vn 0.2908 -0.8569 0.4257
vn -0.1579 -0.8679 0.4709
vn 0.0237 -0.8583 0.5126
vn 0.4134 -0.8647 0.2853
vn -0.1027 -0.9485 0.2996
vn 0.2687 -0.9464 0.1790
vn -0.3026 -0.9311 0.2037
vn -0.3292 -0.8563 0.3980
vn -0.5110 -0.8594 -0.0148
vn -0.4945 -0.8522 0.1709
vn -0.3323 -0.9430 -0.0165
vn -0.3026 -0.9234 -0.2361
vn -0.4944 -0.8459 -0.2002
vn -0.1579 -0.8509 -0.5010
vn -0.3291 -0.8419 -0.4277
vn -0.1027 -0.9375 -0.3325
vn 0.1155 -0.9210 -0.3720
vn 0.0236 -0.8399 -0.5423
vn 0.4133 -0.8542 -0.3154
vn 0.2909 -0.8414 -0.4555
vn 0.2688 -0.9396 -0.2118
vn 0.3741 -0.9273 -0.0162
vn 0.5090 -0.8466 -0.1553
vn 0.5092 -0.8514 0.1257
vn 0.3024 0.9312 -0.2034
vn 0.4947 0.8522 -0.1702
vn 0.1578 0.8680 -0.4708
vn 0.3294 0.8562 -0.3981
vn 0.5112 0.8593 0.0150
vn 0.1026 0.9487 -0.2989
vn 0.3321 0.9431 0.0164
vn -0.1155 0.9336 -0.3393
vn -0.0237 0.8582 -0.5128
vn -0.4135 0.8646 -0.2853
vn -0.2912 0.8566 -0.4259
vn -0.2685 0.9466 -0.1786
vn -0.3739 0.9273 0.0162
vn -0.5093 0.8513 -0.1259
vn -0.4135 0.8542 0.3151
vn -0.5091 0.8466 0.1554
vn -0.2686 0.9397 0.2115
vn -0.1156 0.9212 0.3715
vn -0.2914 0.8411 0.4556
vn 0.1579 0.8511 0.5008
vn -0.0236 0.8398 0.5423
vn 0.1021 0.9378 0.3318
vn 0.3025 0.9236 0.2355
vn 0.3292 0.8419 0.4275
vn 0.4949 0.8456 0.1998
vn -0.2567 -0.5700 0.7805
vn -0.1363 -0.5657 0.8133
vn -0.0745 -0.5129 0.8552
vn 0.6723 -0.5647 0.4787
vn 0.7408 -0.5579 0.3740
vn 0.7988 -0.5036 0.3290
vn 0.6722 -0.5477 -0.4981
vn 0.5940 -0.5411 -0.5953
vn 0.5681 -0.4863 -0.6640
vn -0.8310 -0.5562 -0.0097
vn -0.8249 -0.5534 0.1152
vn -0.8448 -0.5012 0.1876
vn -0.2569 -0.5424 -0.7999
vn -0.3734 -0.5383 -0.7555
vn -0.4476 -0.4847 -0.7514
vn 0.2568 0.5424 0.7999
vn 0.1363 0.5369 0.8326
vn 0.0744 0.4826 0.8727
vn 0.8309 0.5563 0.0096
vn 0.8249 0.5491 0.1343
vn 0.8447 0.4944 0.2051
vn -0.6724 0.5476 0.4980
vn -0.7407 0.5445 0.3935
vn -0.7989 0.4919 0.3463
vn -0.6725 0.5647 -0.4784
vn -0.5940 0.5614 -0.5762
vn -0.5680 0.5092 -0.6466
vn 0.2568 0.5700 -0.7805
vn 0.3737 0.5643 -0.7361
vn 0.4478 0.5107 -0.7339
vn -0.3795 -0.6814 0.6259
vn -0.3734 -0.5643 0.7363
vn -0.2268 -0.6914 0.6860
vn -0.0678 -0.6831 0.7272
vn -0.7238 -0.6674 -0.1750
vn -0.8249 -0.5491 -0.1343
vn -0.7339 -0.6791 -0.0121
vn -0.7239 -0.6731 0.1514
vn -0.0676 -0.6573 -0.7506
vn -0.1362 -0.5369 -0.8326
vn -0.2267 -0.6670 -0.7097
vn -0.3795 -0.6591 -0.6493
vn 0.7238 0.6731 -0.1516
vn 0.8248 0.5536 -0.1153
vn 0.7339 0.6791 0.0118
vn 0.7238 0.6675 0.1749
vn 0.6817 -0.6753 0.2814
vn 0.5937 -0.6867 0.4194
vn 0.4896 -0.6799 0.5459
vn 0.5940 -0.5615 0.5761
vn 0.4893 -0.6605 -0.5695
vn 0.5937 -0.6716 -0.4432
vn 0.6816 -0.6652 -0.3048
vn 0.7407 -0.5446 -0.3933
vn 0.0682 0.6573 0.7505
vn 0.2267 0.6670 0.7097
vn 0.3792 0.6590 0.6495
vn 0.3737 0.5382 0.7555
vn -0.6815 0.6652 0.3051
vn -0.5938 0.6715 0.4432
vn -0.4896 0.6605 0.5692
vn -0.5939 0.5410 0.5954
vn -0.4896 0.6801 -0.5457
vn -0.5938 0.6866 -0.4194
vn -0.6816 0.6754 -0.2816
vn -0.7407 0.5580 -0.3743
vn 0.3790 0.6814 -0.6262
vn 0.2269 0.6913 -0.6860
vn 0.0685 0.6832 -0.7270
vn 0.1362 0.5656 -0.8134
vn -0.6101 -0.6644 0.4317
vn 0.7541 -0.6566 -0.0115
vn -0.2712 -0.4943 0.8259
vn -0.6101 -0.6489 -0.4547
vn -0.8773 -0.4798 -0.0084
vn 0.2330 -0.6441 -0.7286
vn -0.2710 -0.4652 -0.8427
vn 0.2330 -0.6691 0.7057
vn 0.7098 -0.4707 -0.5241
vn -0.2330 0.6441 0.7286
vn -0.7541 0.6566 0.0115
vn -0.2330 0.6691 -0.7057
vn 0.6101 0.6644 -0.4317
vn 0.2711 0.4943 -0.8259
vn -0.7098 0.4889 -0.5072
vn -0.7098 0.4708 0.5240
vn 0.6101 0.6489 0.4547
vn 0.8773 0.4799 0.0084
vn 0.2712 0.4652 0.8426
vn 0.7098 -0.4887 0.5073
f 363/1/5 369/2/6 222/3/7
f 389/4/8 383/5/9 225/6/10
f 295/7/11 140/8/12 219/9/13
f 57/10/14 214/11/15 134/12/16
f 31/13/17 33/14/18 1/15/19
f 292/16/20 137/17/21 216/18/22
f 12/19/23 142/20/24 136/21/25
f 368/22/26 374/23/27 223/24/28
f 287/25/29 134/12/16 213/26/30
f 60/27/31 211/28/32 131/29/33
f 373/30/34 388/31/35 224/32/36
f 311/33/37 131/29/33 210/34/38
f 62/35/39 208/36/40 128/37/41
f 384/38/42 364/39/43 221/40/44
f 319/41/45 128/37/41 207/42/46
f 126/43/47 206/44/48 34/45/49
f 1/15/19 146/46/50 38/47/51
f 12/19/23 146/46/50 33/14/18
f 38/47/51 124/48/52 16/49/53
f 2/50/54 147/51/55 40/52/56
f 11/53/57 147/51/55 32/54/58
f 40/52/56 121/55/59 18/56/2
f 3/57/60 148/58/61 42/59/62
f 13/60/63 148/58/61 35/61/64
f 42/59/62 118/62/65 20/63/66
f 4/64/67 149/65/68 44/66/69
f 14/67/70 149/65/68 36/68/71
f 44/66/69 115/69/72 22/70/73
f 5/71/74 150/72/75 46/73/76
f 15/74/77 150/72/75 37/75/78
f 46/73/76 112/76/79 24/77/80
f 38/47/51 68/78/81 1/15/19
f 16/49/53 151/79/82 38/47/51
f 19/80/83 151/79/82 109/81/84
f 40/52/56 70/82/85 2/50/54
f 18/56/2 152/83/86 40/52/56
f 21/84/87 152/83/86 106/85/88
f 42/59/62 72/86/89 3/57/60
f 20/63/66 153/87/90 42/59/62
f 23/88/91 153/87/90 103/89/92
f 44/66/69 74/90/93 4/64/67
f 22/70/73 154/91/94 44/66/69
f 25/92/1 154/91/94 100/93/95
f 46/73/76 66/94/96 5/71/74
f 24/77/80 155/95/97 46/73/76
f 17/96/98 155/95/97 97/97/99
f 48/98/100 53/99/101 6/100/102
f 26/101/103 156/102/104 48/98/100
f 393/103/105 90/104/106 324/105/107
f 49/106/108 54/107/109 7/108/110
f 27/109/111 157/110/112 49/106/108
f 398/111/113 87/112/114 340/113/115
f 50/114/116 55/115/117 8/116/118
f 28/117/119 158/118/120 50/114/116
f 403/119/121 84/120/122 348/121/123
f 51/122/124 56/123/125 9/124/126
f 29/125/127 159/126/128 51/122/124
f 408/127/129 81/128/130 356/129/131
f 52/130/132 80/131/133 10/132/134
f 30/133/135 160/134/136 52/130/132
f 81/128/130 378/135/137 331/136/138
f 335/137/139 82/138/140 162/139/141
f 356/140/131 81/141/130 162/139/141
f 133/142/142 363/143/5 283/144/143
f 332/145/144 93/146/145 174/147/146
f 83/148/147 82/138/140 30/133/135
f 30/133/135 163/149/148 83/148/147
f 56/123/125 79/150/149 9/124/126
f 84/120/122 409/151/150 355/152/151
f 359/153/152 85/154/153 165/155/154
f 348/156/123 84/157/122 165/155/154
f 378/135/137 408/127/129 252/158/155
f 56/123/125 159/126/128 85/154/153
f 86/159/156 85/154/153 29/125/127
f 83/148/147 163/149/148 56/123/125
f 29/125/127 166/160/157 86/159/156
f 55/115/117 78/161/158 8/116/118
f 87/112/114 404/162/159 347/163/160
f 351/164/161 88/165/162 168/166/163
f 340/167/115 87/168/114 168/166/163
f 409/151/150 403/119/121 253/169/164
f 55/115/117 158/118/120 88/165/162
f 89/170/165 88/165/162 28/117/119
f 86/159/156 166/160/157 55/115/117
f 28/117/119 169/171/166 89/170/165
f 54/107/109 77/172/167 7/108/110
f 90/104/106 399/173/168 339/174/169
f 343/175/170 91/176/171 171/177/172
f 324/105/107 90/104/106 171/177/172
f 404/162/159 398/111/113 254/178/173
f 54/107/109 157/110/112 91/176/171
f 92/179/174 91/176/171 27/109/111
f 379/180/175 93/181/145 332/182/144
f 27/109/111 172/183/176 92/179/174
f 53/99/101 76/184/177 6/100/102
f 93/181/145 394/185/178 323/186/179
f 327/187/180 94/188/181 174/147/146
f 80/131/133 160/134/136 82/138/140
f 399/189/168 393/190/105 255/191/182
f 53/99/101 156/102/104 94/188/181
f 95/192/183 94/188/181 26/101/103
f 95/192/183 175/193/184 80/131/133
f 26/101/103 175/193/184 95/192/183
f 80/131/133 75/194/185 10/132/134
f 89/170/165 169/171/166 54/107/109
f 96/195/186 39/196/187 17/96/98
f 30/133/135 176/197/188 96/195/186
f 10/132/134 176/197/188 52/130/132
f 17/96/98 177/198/189 96/195/186
f 24/77/80 177/198/189 97/97/99
f 96/195/186 98/199/190 30/133/135
f 73/200/191 98/199/190 24/77/80
f 9/124/126 178/201/192 73/200/191
f 30/133/135 178/201/192 79/150/149
f 99/202/193 47/203/194 25/92/1
f 29/125/127 179/204/195 99/202/193
f 9/124/126 179/204/195 51/122/124
f 25/92/1 180/205/196 99/202/193
f 22/70/73 180/205/196 100/93/95
f 99/202/193 101/206/197 29/125/127
f 71/207/198 101/206/197 22/70/73
f 8/116/118 181/208/199 71/207/198
f 29/125/127 181/208/199 78/161/158
f 102/209/200 45/210/201 23/88/91
f 28/117/119 182/211/202 102/209/200
f 8/116/118 182/211/202 50/114/116
f 23/88/91 183/212/203 102/209/200
f 20/63/66 183/212/203 103/89/92
f 102/209/200 104/213/204 28/117/119
f 69/214/205 104/213/204 20/63/66
f 7/108/110 184/215/206 69/214/205
f 28/117/119 184/215/206 77/172/167
f 105/216/207 43/217/208 21/84/87
f 27/109/111 185/218/209 105/216/207
f 7/108/110 185/218/209 49/106/108
f 21/84/87 186/219/210 105/216/207
f 18/56/2 186/219/210 106/85/88
f 105/216/207 107/220/211 27/109/111
f 67/221/212 107/220/211 18/56/2
f 6/100/102 187/222/213 67/221/212
f 27/109/111 187/222/213 76/184/177
f 108/223/214 41/224/215 19/80/83
f 26/101/103 188/225/216 108/223/214
f 6/100/102 188/225/216 48/98/100
f 19/80/83 189/226/217 108/223/214
f 16/49/53 189/226/217 109/81/84
f 108/223/214 110/227/218 26/101/103
f 65/228/219 110/227/218 16/49/53
f 10/132/134 190/229/220 65/228/219
f 26/101/103 190/229/220 75/194/185
f 24/77/80 191/230/221 73/200/191
f 25/92/1 191/230/221 111/231/222
f 73/200/191 47/203/194 9/124/126
f 24/77/80 192/232/223 111/231/222
f 113/233/224 112/76/79 15/74/77
f 25/92/1 192/232/223 113/233/224
f 15/74/77 193/234/225 113/233/224
f 4/64/67 193/234/225 64/235/226
f 113/233/224 74/90/93 25/92/1
f 22/70/73 194/236/227 71/207/198
f 23/88/91 194/236/227 114/237/228
f 71/207/198 45/210/201 8/116/118
f 22/70/73 195/238/229 114/237/228
f 116/239/230 115/69/72 14/67/70
f 23/88/91 195/238/229 116/239/230
f 14/67/70 196/240/231 116/239/230
f 3/57/60 196/240/231 63/241/232
f 116/239/230 72/86/89 23/88/91
f 20/63/66 197/242/233 69/214/205
f 21/84/87 197/242/233 117/243/234
f 69/214/205 43/217/208 7/108/110
f 20/63/66 198/244/235 117/243/234
f 119/245/236 118/62/65 13/60/63
f 21/84/87 198/244/235 119/245/236
f 13/60/63 199/246/237 119/245/236
f 2/50/54 199/246/237 61/247/238
f 119/245/236 70/82/85 21/84/87
f 18/56/2 200/248/239 67/221/212
f 19/80/83 200/248/239 120/249/240
f 67/221/212 41/224/215 6/100/102
f 18/56/2 201/250/241 120/249/240
f 122/251/242 121/55/59 11/53/57
f 19/80/83 201/250/241 122/251/242
f 11/53/57 202/252/243 122/251/242
f 1/15/19 202/252/243 58/253/244
f 122/251/242 68/78/81 19/80/83
f 16/49/53 203/254/245 65/228/219
f 17/96/98 203/254/245 123/255/246
f 65/228/219 39/196/187 10/132/134
f 16/49/53 204/256/247 123/255/246
f 125/257/248 124/48/52 12/19/23
f 17/96/98 204/256/247 125/257/248
f 12/19/23 205/258/249 125/257/248
f 5/71/74 205/258/249 59/259/250
f 125/257/248 66/94/96 17/96/98
f 300/260/251 127/261/252 207/42/46
f 15/74/77 206/44/48 126/43/47
f 34/45/49 37/75/78 5/71/74
f 303/262/253 135/263/254 216/18/22
f 129/264/255 209/265/256 62/35/39
f 126/43/47 128/37/41 15/74/77
f 92/179/174 172/183/176 53/99/101
f 64/235/226 62/35/39 4/64/67
f 15/74/77 208/36/40 64/235/226
f 316/266/257 130/267/258 210/34/38
f 14/67/70 209/265/256 129/264/255
f 62/35/39 36/68/71 4/64/67
f 374/23/27 130/268/258 316/269/257
f 132/270/259 212/271/260 60/27/31
f 129/264/255 131/29/33 14/67/70
f 127/272/252 373/30/34 315/273/261
f 63/241/232 60/27/31 3/57/60
f 14/67/70 211/28/32 63/241/232
f 308/274/262 133/142/142 213/26/30
f 13/60/63 212/271/260 132/270/259
f 60/27/31 35/61/64 3/57/60
f 369/275/6 133/142/142 308/274/262
f 138/276/263 218/277/264 57/10/14
f 132/270/259 134/12/16 13/60/63
f 31/13/17 220/278/265 140/8/12
f 61/247/238 57/10/14 2/50/54
f 13/60/63 214/11/15 61/247/238
f 12/19/23 215/279/266 59/259/250
f 388/31/35 127/272/252 300/280/251
f 59/259/250 34/45/49 5/71/74
f 136/21/25 135/263/254 12/19/23
f 139/281/267 384/38/42 291/282/268
f 137/283/21 389/4/8 299/284/269
f 136/21/25 142/20/24 31/13/17
f 394/185/178 379/180/175 256/285/270
f 130/268/258 368/22/26 307/286/271
f 284/287/272 139/288/267 219/9/13
f 11/53/57 218/277/264 138/276/263
f 57/10/14 32/54/58 2/50/54
f 364/39/43 139/281/267 284/289/272
f 34/45/49 215/279/266 135/263/254
f 138/276/263 140/8/12 11/53/57
f 383/5/9 137/283/21 292/290/20
f 58/253/244 31/13/17 1/15/19
f 11/53/57 220/278/265 58/253/244
f 221/40/44 229/291/273 228/292/274
f 227/293/275 229/291/273 226/294/276
f 229/291/273 248/295/277 228/292/274
f 230/296/278 251/297/279 229/291/273
f 222/3/7 235/298/280 234/299/281
f 233/300/282 235/298/280 232/301/283
f 235/298/280 227/293/275 234/299/281
f 236/302/284 230/296/278 235/298/280
f 223/24/28 240/303/285 239/304/286
f 238/305/287 240/303/285 237/306/288
f 240/303/285 233/300/282 239/304/286
f 241/307/289 236/302/284 240/303/285
f 224/32/36 245/308/290 244/309/291
f 243/310/292 245/308/290 242/311/293
f 245/308/290 238/305/287 244/309/291
f 246/312/294 241/307/289 245/308/290
f 225/6/10 250/313/295 249/314/296
f 248/295/277 250/313/295 247/315/297
f 250/313/295 243/310/292 249/314/296
f 251/297/279 246/312/294 250/313/295
f 252/158/155 260/316/298 259/317/299
f 258/318/300 260/316/298 257/319/301
f 260/316/298 279/320/302 259/317/299
f 261/321/303 282/322/304 260/316/298
f 253/169/164 266/323/305 265/324/306
f 264/325/307 266/323/305 263/326/308
f 266/323/305 258/318/300 265/324/306
f 267/327/309 261/321/303 266/323/305
f 254/178/173 271/328/310 270/329/311
f 269/330/312 271/328/310 268/331/313
f 271/328/310 264/325/307 270/329/311
f 272/332/314 267/327/309 271/328/310
f 255/191/182 276/333/315 275/334/316
f 274/335/317 276/333/315 273/336/318
f 276/333/315 269/330/312 275/334/316
f 277/337/319 272/332/314 276/333/315
f 256/285/270 281/338/320 280/339/321
f 279/320/302 281/338/320 278/340/322
f 281/338/320 274/335/317 280/339/321
f 282/322/304 277/337/319 281/338/320
f 289/341/323 290/342/324 285/343/325
f 297/344/326 298/345/327 293/346/328
f 305/347/329 306/348/330 301/349/331
f 313/350/332 314/351/333 309/352/334
f 321/353/335 322/354/336 317/355/337
f 329/356/338 330/357/339 325/358/340
f 337/359/341 338/360/342 333/361/343
f 345/362/344 346/363/345 341/364/346
f 353/365/347 354/366/348 349/367/349
f 361/368/350 362/369/351 357/370/352
f 283/144/143 365/371/353 288/372/354
f 288/372/354 366/373/355 289/374/323
f 366/375/355 290/342/324 289/341/323
f 367/376/356 284/289/272 290/342/324
f 222/3/7 365/377/353 363/1/5
f 234/299/281 366/375/355 365/377/353
f 366/375/355 226/294/276 367/376/356
f 367/376/356 221/40/44 364/39/43
f 307/286/271 370/378/357 312/379/358
f 312/379/358 371/380/359 313/350/332
f 371/381/359 314/382/333 313/383/332
f 372/384/360 308/274/262 314/382/333
f 223/24/28 370/378/357 368/22/26
f 239/304/286 371/380/359 370/378/357
f 371/380/359 232/301/283 372/385/360
f 372/385/360 222/3/7 369/2/6
f 315/273/261 375/386/361 320/387/362
f 320/387/362 376/388/363 321/353/335
f 376/388/363 322/354/336 321/353/335
f 377/389/364 316/269/257 322/354/336
f 224/32/36 375/386/361 373/30/34
f 244/309/291 376/388/363 375/386/361
f 376/388/363 237/306/288 377/389/364
f 377/389/364 223/24/28 374/23/27
f 331/136/138 380/390/365 336/391/366
f 336/391/366 381/392/367 337/393/341
f 381/392/367 338/394/342 337/393/341
f 382/395/368 332/182/144 338/394/342
f 252/158/155 380/390/365 378/135/137
f 259/317/299 381/392/367 380/390/365
f 381/392/367 278/340/322 382/395/368
f 382/395/368 256/285/270 379/180/175
f 225/6/10 385/396/369 247/315/297
f 247/315/297 386/397/370 248/295/277
f 386/397/370 228/292/274 248/295/277
f 387/398/371 221/40/44 228/292/274
f 292/290/20 385/396/369 383/5/9
f 298/345/327 386/397/370 385/396/369
f 386/397/370 296/399/372 387/398/371
f 387/398/371 291/282/268 384/38/42
f 224/32/36 390/400/373 242/311/293
f 242/311/293 391/401/374 243/310/292
f 391/401/374 249/314/296 243/310/292
f 392/402/375 225/6/10 249/314/296
f 300/280/251 390/400/373 388/31/35
f 306/348/330 391/401/374 390/400/373
f 391/401/374 304/403/376 392/402/375
f 392/402/375 299/284/269 389/4/8
f 255/191/182 395/404/377 273/336/318
f 273/336/318 396/405/378 274/335/317
f 396/405/378 280/339/321 274/335/317
f 397/406/379 256/285/270 280/339/321
f 324/105/107 395/407/377 393/103/105
f 330/408/339 396/409/378 395/407/377
f 396/405/378 328/410/380 397/406/379
f 397/406/379 323/186/179 394/185/178
f 254/178/173 400/411/381 268/331/313
f 268/331/313 401/412/382 269/330/312
f 401/412/382 275/334/316 269/330/312
f 402/413/383 255/191/182 275/334/316
f 340/113/115 400/411/381 398/111/113
f 346/363/345 401/412/382 400/411/381
f 401/414/382 344/415/384 402/416/383
f 402/416/383 339/174/169 399/173/168
f 253/169/164 405/417/385 263/326/308
f 263/326/308 406/418/386 264/325/307
f 406/418/386 270/329/311 264/325/307
f 407/419/387 254/178/173 270/329/311
f 348/121/123 405/417/385 403/119/121
f 354/366/348 406/418/386 405/417/385
f 406/418/386 352/420/388 407/419/387
f 407/419/387 347/163/160 404/162/159
f 252/158/155 410/421/389 257/319/301
f 257/319/301 411/422/390 258/318/300
f 411/422/390 265/324/306 258/318/300
f 412/423/391 253/169/164 265/324/306
f 356/129/131 410/421/389 408/127/129
f 362/369/351 411/422/390 410/421/389
f 411/422/390 360/424/392 412/423/391
f 412/423/391 355/152/151 409/151/150
f 363/1/5 143/425/393 369/2/6
f 389/4/8 217/426/394 383/5/9
f 139/288/267 291/427/268 219/9/13
f 291/427/268 295/7/11 219/9/13
f 134/12/16 287/25/29 286/428/395
f 286/428/395 57/10/14 134/12/16
f 31/13/17 142/20/24 33/14/18
f 136/21/25 293/429/328 216/18/22
f 293/429/328 292/16/20 216/18/22
f 12/19/23 33/14/18 142/20/24
f 368/22/26 144/430/396 374/23/27
f 133/142/142 283/144/143 213/26/30
f 283/144/143 287/25/29 213/26/30
f 131/29/33 311/33/37 310/431/397
f 310/431/397 60/27/31 131/29/33
f 373/30/34 145/432/398 388/31/35
f 130/267/258 307/433/271 210/34/38
f 307/433/271 311/33/37 210/34/38
f 128/37/41 319/41/45 318/434/399
f 318/434/399 62/35/39 128/37/41
f 384/38/42 141/435/400 364/39/43
f 127/261/252 315/436/261 207/42/46
f 315/436/261 319/41/45 207/42/46
f 34/45/49 302/437/401 126/43/47
f 302/437/401 301/438/331 126/43/47
f 1/15/19 33/14/18 146/46/50
f 12/19/23 124/48/52 146/46/50
f 38/47/51 146/46/50 124/48/52
f 2/50/54 32/54/58 147/51/55
f 11/53/57 121/55/59 147/51/55
f 40/52/56 147/51/55 121/55/59
f 3/57/60 35/61/64 148/58/61
f 13/60/63 118/62/65 148/58/61
f 42/59/62 148/58/61 118/62/65
f 4/64/67 36/68/71 149/65/68
f 14/67/70 115/69/72 149/65/68
f 44/66/69 149/65/68 115/69/72
f 5/71/74 37/75/78 150/72/75
f 15/74/77 112/76/79 150/72/75
f 46/73/76 150/72/75 112/76/79
f 38/47/51 151/79/82 68/78/81
f 16/49/53 109/81/84 151/79/82
f 19/80/83 68/78/81 151/79/82
f 40/52/56 152/83/86 70/82/85
f 18/56/2 106/85/88 152/83/86
f 21/84/87 70/82/85 152/83/86
f 42/59/62 153/87/90 72/86/89
f 20/63/66 103/89/92 153/87/90
f 23/88/91 72/86/89 153/87/90
f 44/66/69 154/91/94 74/90/93
f 22/70/73 100/93/95 154/91/94
f 25/92/1 74/90/93 154/91/94
f 46/73/76 155/95/97 66/94/96
f 24/77/80 97/97/99 155/95/97
f 17/96/98 66/94/96 155/95/97
f 48/98/100 156/102/104 53/99/101
f 26/101/103 94/188/181 156/102/104
f 393/103/105 170/439/402 90/104/106
f 49/106/108 157/110/112 54/107/109
f 27/109/111 91/176/171 157/110/112
f 398/111/113 167/440/403 87/112/114
f 50/114/116 158/118/120 55/115/117
f 28/117/119 88/165/162 158/118/120
f 403/119/121 164/441/404 84/120/122
f 51/122/124 159/126/128 56/123/125
f 29/125/127 85/154/153 159/126/128
f 408/127/129 161/442/405 81/128/130
f 52/130/132 160/134/136 80/131/133
f 30/133/135 82/138/140 160/134/136
f 81/128/130 161/442/405 378/135/137
f 81/141/130 331/443/138 162/139/141
f 331/443/138 335/137/139 162/139/141
f 83/148/147 357/444/352 162/139/141
f 357/444/352 356/140/131 162/139/141
f 133/142/142 143/445/393 363/143/5
f 95/192/183 333/361/343 174/147/146
f 333/361/343 332/145/144 174/147/146
f 83/148/147 162/139/141 82/138/140
f 30/133/135 79/150/149 163/149/148
f 56/123/125 163/149/148 79/150/149
f 84/120/122 164/441/404 409/151/150
f 84/157/122 355/446/151 165/155/154
f 355/446/151 359/153/152 165/155/154
f 86/159/156 349/447/349 165/155/154
f 349/447/349 348/156/123 165/155/154
f 378/135/137 161/442/405 408/127/129
f 85/154/153 359/153/152 358/448/406
f 358/448/406 56/123/125 85/154/153
f 86/159/156 165/155/154 85/154/153
f 56/123/125 358/448/406 83/148/147
f 358/448/406 357/444/352 83/148/147
f 29/125/127 78/161/158 166/160/157
f 55/115/117 166/160/157 78/161/158
f 87/112/114 167/440/403 404/162/159
f 87/168/114 347/449/160 168/166/163
f 347/449/160 351/164/161 168/166/163
f 89/170/165 341/450/346 168/166/163
f 341/450/346 340/167/115 168/166/163
f 409/151/150 164/441/404 403/119/121
f 88/165/162 351/164/161 350/451/407
f 350/451/407 55/115/117 88/165/162
f 89/170/165 168/166/163 88/165/162
f 55/115/117 350/451/407 86/159/156
f 350/451/407 349/447/349 86/159/156
f 28/117/119 77/172/167 169/171/166
f 54/107/109 169/171/166 77/172/167
f 90/104/106 170/439/402 399/173/168
f 90/104/106 339/174/169 171/177/172
f 339/174/169 343/175/170 171/177/172
f 92/179/174 325/452/340 171/177/172
f 325/452/340 324/105/107 171/177/172
f 404/162/159 167/440/403 398/111/113
f 91/176/171 343/175/170 342/453/408
f 342/453/408 54/107/109 91/176/171
f 92/179/174 171/177/172 91/176/171
f 379/180/175 173/454/409 93/181/145
f 27/109/111 76/184/177 172/183/176
f 53/99/101 172/183/176 76/184/177
f 93/181/145 173/454/409 394/185/178
f 93/146/145 323/455/179 174/147/146
f 323/455/179 327/187/180 174/147/146
f 82/138/140 335/137/139 334/456/410
f 334/456/410 80/131/133 82/138/140
f 399/189/168 170/457/402 393/190/105
f 94/188/181 327/187/180 326/458/411
f 326/458/411 53/99/101 94/188/181
f 95/192/183 174/147/146 94/188/181
f 80/131/133 334/456/410 95/192/183
f 334/456/410 333/361/343 95/192/183
f 26/101/103 75/194/185 175/193/184
f 80/131/133 175/193/184 75/194/185
f 54/107/109 342/453/408 89/170/165
f 342/453/408 341/450/346 89/170/165
f 96/195/186 176/197/188 39/196/187
f 30/133/135 52/130/132 176/197/188
f 10/132/134 39/196/187 176/197/188
f 17/96/98 97/97/99 177/198/189
f 24/77/80 98/199/190 177/198/189
f 96/195/186 177/198/189 98/199/190
f 73/200/191 178/201/192 98/199/190
f 9/124/126 79/150/149 178/201/192
f 30/133/135 98/199/190 178/201/192
f 99/202/193 179/204/195 47/203/194
f 29/125/127 51/122/124 179/204/195
f 9/124/126 47/203/194 179/204/195
f 25/92/1 100/93/95 180/205/196
f 22/70/73 101/206/197 180/205/196
f 99/202/193 180/205/196 101/206/197
f 71/207/198 181/208/199 101/206/197
f 8/116/118 78/161/158 181/208/199
f 29/125/127 101/206/197 181/208/199
f 102/209/200 182/211/202 45/210/201
f 28/117/119 50/114/116 182/211/202
f 8/116/118 45/210/201 182/211/202
f 23/88/91 103/89/92 183/212/203
f 20/63/66 104/213/204 183/212/203
f 102/209/200 183/212/203 104/213/204
f 69/214/205 184/215/206 104/213/204
f 7/108/110 77/172/167 184/215/206
f 28/117/119 104/213/204 184/215/206
f 105/216/207 185/218/209 43/217/208
f 27/109/111 49/106/108 185/218/209
f 7/108/110 43/217/208 185/218/209
f 21/84/87 106/85/88 186/219/210
f 18/56/2 107/220/211 186/219/210
f 105/216/207 186/219/210 107/220/211
f 67/221/212 187/222/213 107/220/211
f 6/100/102 76/184/177 187/222/213
f 27/109/111 107/220/211 187/222/213
f 108/223/214 188/225/216 41/224/215
f 26/101/103 48/98/100 188/225/216
f 6/100/102 41/224/215 188/225/216
f 19/80/83 109/81/84 189/226/217
f 16/49/53 110/227/218 189/226/217
f 108/223/214 189/226/217 110/227/218
f 65/228/219 190/229/220 110/227/218
f 10/132/134 75/194/185 190/229/220
f 26/101/103 110/227/218 190/229/220
f 24/77/80 111/231/222 191/230/221
f 25/92/1 47/203/194 191/230/221
f 73/200/191 191/230/221 47/203/194
f 24/77/80 112/76/79 192/232/223
f 113/233/224 192/232/223 112/76/79
f 25/92/1 111/231/222 192/232/223
f 15/74/77 64/235/226 193/234/225
f 4/64/67 74/90/93 193/234/225
f 113/233/224 193/234/225 74/90/93
f 22/70/73 114/237/228 194/236/227
f 23/88/91 45/210/201 194/236/227
f 71/207/198 194/236/227 45/210/201
f 22/70/73 115/69/72 195/238/229
f 116/239/230 195/238/229 115/69/72
f 23/88/91 114/237/228 195/238/229
f 14/67/70 63/241/232 196/240/231
f 3/57/60 72/86/89 196/240/231
f 116/239/230 196/240/231 72/86/89
f 20/63/66 117/243/234 197/242/233
f 21/84/87 43/217/208 197/242/233
f 69/214/205 197/242/233 43/217/208
f 20/63/66 118/62/65 198/244/235
f 119/245/236 198/244/235 118/62/65
f 21/84/87 117/243/234 198/244/235
f 13/60/63 61/247/238 199/246/237
f 2/50/54 70/82/85 199/246/237
f 119/245/236 199/246/237 70/82/85
f 18/56/2 120/249/240 200/248/239
f 19/80/83 41/224/215 200/248/239
f 67/221/212 200/248/239 41/224/215
f 18/56/2 121/55/59 201/250/241
f 122/251/242 201/250/241 121/55/59
f 19/80/83 120/249/240 201/250/241
f 11/53/57 58/253/244 202/252/243
f 1/15/19 68/78/81 202/252/243
f 122/251/242 202/252/243 68/78/81
f 16/49/53 123/255/246 203/254/245
f 17/96/98 39/196/187 203/254/245
f 65/228/219 203/254/245 39/196/187
f 16/49/53 124/48/52 204/256/247
f 125/257/248 204/256/247 124/48/52
f 17/96/98 123/255/246 204/256/247
f 12/19/23 59/259/250 205/258/249
f 5/71/74 66/94/96 205/258/249
f 125/257/248 205/258/249 66/94/96
f 126/43/47 301/438/331 207/42/46
f 301/438/331 300/260/251 207/42/46
f 15/74/77 37/75/78 206/44/48
f 34/45/49 206/44/48 37/75/78
f 137/17/21 299/459/269 216/18/22
f 299/459/269 303/262/253 216/18/22
f 62/35/39 318/434/399 129/264/255
f 318/434/399 317/460/337 129/264/255
f 126/43/47 207/42/46 128/37/41
f 53/99/101 326/458/411 92/179/174
f 326/458/411 325/452/340 92/179/174
f 64/235/226 208/36/40 62/35/39
f 15/74/77 128/37/41 208/36/40
f 129/264/255 317/460/337 210/34/38
f 317/460/337 316/266/257 210/34/38
f 14/67/70 36/68/71 209/265/256
f 62/35/39 209/265/256 36/68/71
f 374/23/27 144/430/396 130/268/258
f 60/27/31 310/431/397 132/270/259
f 310/431/397 309/461/334 132/270/259
f 129/264/255 210/34/38 131/29/33
f 127/272/252 145/432/398 373/30/34
f 63/241/232 211/28/32 60/27/31
f 14/67/70 131/29/33 211/28/32
f 132/270/259 309/461/334 213/26/30
f 309/461/334 308/274/262 213/26/30
f 13/60/63 35/61/64 212/271/260
f 60/27/31 212/271/260 35/61/64
f 369/275/6 143/445/393 133/142/142
f 57/10/14 286/428/395 138/276/263
f 286/428/395 285/462/325 138/276/263
f 132/270/259 213/26/30 134/12/16
f 140/8/12 295/7/11 294/463/412
f 294/463/412 31/13/17 140/8/12
f 61/247/238 214/11/15 57/10/14
f 13/60/63 134/12/16 214/11/15
f 12/19/23 135/263/254 215/279/266
f 388/31/35 145/432/398 127/272/252
f 59/259/250 215/279/266 34/45/49
f 136/21/25 216/18/22 135/263/254
f 139/281/267 141/435/400 384/38/42
f 137/283/21 217/426/394 389/4/8
f 31/13/17 294/463/412 136/21/25
f 294/463/412 293/429/328 136/21/25
f 394/185/178 173/454/409 379/180/175
f 130/268/258 144/430/396 368/22/26
f 138/276/263 285/462/325 219/9/13
f 285/462/325 284/287/272 219/9/13
f 11/53/57 32/54/58 218/277/264
f 57/10/14 218/277/264 32/54/58
f 364/39/43 141/435/400 139/281/267
f 135/263/254 303/262/253 302/437/401
f 302/437/401 34/45/49 135/263/254
f 138/276/263 219/9/13 140/8/12
f 383/5/9 217/426/394 137/283/21
f 58/253/244 220/278/265 31/13/17
f 11/53/57 140/8/12 220/278/265
f 221/40/44 226/294/276 229/291/273
f 227/293/275 230/296/278 229/291/273
f 229/291/273 251/297/279 248/295/277
f 230/296/278 231/464/4 251/297/279
f 222/3/7 232/301/283 235/298/280
f 233/300/282 236/302/284 235/298/280
f 235/298/280 230/296/278 227/293/275
f 236/302/284 231/464/4 230/296/278
f 223/24/28 237/306/288 240/303/285
f 238/305/287 241/307/289 240/303/285
f 240/303/285 236/302/284 233/300/282
f 241/307/289 231/464/4 236/302/284
f 224/32/36 242/311/293 245/308/290
f 243/310/292 246/312/294 245/308/290
f 245/308/290 241/307/289 238/305/287
f 246/312/294 231/464/4 241/307/289
f 225/6/10 247/315/297 250/313/295
f 248/295/277 251/297/279 250/313/295
f 250/313/295 246/312/294 243/310/292
f 251/297/279 231/464/4 246/312/294
f 252/158/155 257/319/301 260/316/298
f 258/318/300 261/321/303 260/316/298
f 260/316/298 282/322/304 279/320/302
f 261/321/303 262/465/3 282/322/304
f 253/169/164 263/326/308 266/323/305
f 264/325/307 267/327/309 266/323/305
f 266/323/305 261/321/303 258/318/300
f 267/327/309 262/465/3 261/321/303
f 254/178/173 268/331/313 271/328/310
f 269/330/312 272/332/314 271/328/310
f 271/328/310 267/327/309 264/325/307
f 272/332/314 262/465/3 267/327/309
f 255/191/182 273/336/318 276/333/315
f 274/335/317 277/337/319 276/333/315
f 276/333/315 272/332/314 269/330/312
f 277/337/319 262/465/3 272/332/314
f 256/285/270 278/340/322 281/338/320
f 279/320/302 282/322/304 281/338/320
f 281/338/320 277/337/319 274/335/317
f 282/322/304 262/465/3 277/337/319
f 287/466/29 283/467/143 288/468/354
f 287/466/29 288/468/354 289/341/323
f 285/343/325 286/469/395 289/341/323
f 286/469/395 287/466/29 289/341/323
f 290/342/324 284/289/272 285/343/325
f 295/470/11 291/282/268 296/399/372
f 295/470/11 296/399/372 297/344/326
f 293/346/328 294/471/412 297/344/326
f 294/471/412 295/470/11 297/344/326
f 298/345/327 292/290/20 293/346/328
f 303/472/253 299/284/269 304/403/376
f 303/472/253 304/403/376 305/347/329
f 301/349/331 302/473/401 305/347/329
f 302/473/401 303/472/253 305/347/329
f 306/348/330 300/280/251 301/349/331
f 311/474/37 307/286/271 312/379/358
f 311/474/37 312/379/358 313/350/332
f 309/352/334 310/475/397 313/350/332
f 310/475/397 311/474/37 313/350/332
f 314/351/333 308/476/262 309/352/334
f 319/477/45 315/273/261 320/387/362
f 319/477/45 320/387/362 321/353/335
f 317/355/337 318/478/399 321/353/335
f 318/478/399 319/477/45 321/353/335
f 322/354/336 316/269/257 317/355/337
f 327/479/180 323/186/179 328/410/380
f 327/479/180 328/410/380 329/356/338
f 325/358/340 326/480/411 329/356/338
f 326/480/411 327/479/180 329/356/338
f 330/357/339 324/481/107 325/358/340
f 335/137/139 331/443/138 336/482/366
f 335/137/139 336/482/366 337/359/341
f 333/361/343 334/456/410 337/359/341
f 334/456/410 335/137/139 337/359/341
f 338/360/342 332/145/144 333/361/343
f 343/483/170 339/484/169 344/485/384
f 343/483/170 344/485/384 345/362/344
f 341/364/346 342/486/408 345/362/344
f 342/486/408 343/483/170 345/362/344
f 346/363/345 340/113/115 341/364/346
f 351/487/161 347/163/160 352/420/388
f 351/487/161 352/420/388 353/365/347
f 349/367/349 350/488/407 353/365/347
f 350/488/407 351/487/161 353/365/347
f 354/366/348 348/121/123 349/367/349
f 359/489/152 355/152/151 360/424/392
f 359/489/152 360/424/392 361/368/350
f 357/370/352 358/490/406 361/368/350
f 358/490/406 359/489/152 361/368/350
f 362/369/351 356/129/131 357/370/352
f 283/144/143 363/143/5 365/371/353
f 288/372/354 365/371/353 366/373/355
f 366/375/355 367/376/356 290/342/324
f 367/376/356 364/39/43 284/289/272
f 222/3/7 234/299/281 365/377/353
f 234/299/281 227/293/275 366/375/355
f 366/375/355 227/293/275 226/294/276
f 367/376/356 226/294/276 221/40/44
f 307/286/271 368/22/26 370/378/357
f 312/379/358 370/378/357 371/380/359
f 371/381/359 372/384/360 314/382/333
f 372/384/360 369/275/6 308/274/262
f 223/24/28 239/304/286 370/378/357
f 239/304/286 233/300/282 371/380/359
f 371/380/359 233/300/282 232/301/283
f 372/385/360 232/301/283 222/3/7
f 315/273/261 373/30/34 375/386/361
f 320/387/362 375/386/361 376/388/363
f 376/388/363 377/389/364 322/354/336
f 377/389/364 374/23/27 316/269/257
f 224/32/36 244/309/291 375/386/361
f 244/309/291 238/305/287 376/388/363
f 376/388/363 238/305/287 237/306/288
f 377/389/364 237/306/288 223/24/28
f 331/136/138 378/135/137 380/390/365
f 336/391/366 380/390/365 381/392/367
f 381/392/367 382/395/368 338/394/342
f 382/395/368 379/180/175 332/182/144
f 252/158/155 259/317/299 380/390/365
f 259/317/299 279/320/302 381/392/367
f 381/392/367 279/320/302 278/340/322
f 382/395/368 278/340/322 256/285/270
f 225/6/10 383/5/9 385/396/369
f 247/315/297 385/396/369 386/397/370
f 386/397/370 387/398/371 228/292/274
f 387/398/371 384/38/42 221/40/44
f 292/290/20 298/345/327 385/396/369
f 298/345/327 297/344/326 386/397/370
f 386/397/370 297/344/326 296/399/372
f 387/398/371 296/399/372 291/282/268
f 224/32/36 388/31/35 390/400/373
f 242/311/293 390/400/373 391/401/374
f 391/401/374 392/402/375 249/314/296
f 392/402/375 389/4/8 225/6/10
f 300/280/251 306/348/330 390/400/373
f 306/348/330 305/347/329 391/401/374
f 391/401/374 305/347/329 304/403/376
f 392/402/375 304/403/376 299/284/269
f 255/191/182 393/190/105 395/404/377
f 273/336/318 395/404/377 396/405/378
f 396/405/378 397/406/379 280/339/321
f 397/406/379 394/185/178 256/285/270
f 324/105/107 330/408/339 395/407/377
f 330/408/339 329/491/338 396/409/378
f 396/405/378 329/356/338 328/410/380
f 397/406/379 328/410/380 323/186/179
f 254/178/173 398/111/113 400/411/381
f 268/331/313 400/411/381 401/412/382
f 401/412/382 402/413/383 275/334/316
f 402/413/383 399/189/168 255/191/182
f 340/113/115 346/363/345 400/411/381
f 346/363/345 345/362/344 401/412/382
f 401/414/382 345/492/344 344/415/384
f 402/416/383 344/415/384 339/174/169
f 253/169/164 403/119/121 405/417/385
f 263/326/308 405/417/385 406/418/386
f 406/418/386 407/419/387 270/329/311
f 407/419/387 404/162/159 254/178/173
f 348/121/123 354/366/348 405/417/385
f 354/366/348 353/365/347 406/418/386
f 406/418/386 353/365/347 352/420/388
f 407/419/387 352/420/388 347/163/160
f 252/158/155 408/127/129 410/421/389
f 257/319/301 410/421/389 411/422/390
f 411/422/390 412/423/391 265/324/306
f 412/423/391 409/151/150 253/169/164
f 356/129/131 362/369/351 410/421/389
f 362/369/351 361/368/350 411/422/390
f 411/422/390 361/368/350 360/424/392
f 412/423/391 360/424/392 355/152/151
