# Pieza del RoverModificado
mtllib Rover.mtl
o PataTI
v -0.000156 0.150115 0.350000
v -0.000156 0.150115 -0.350001
v 0.074844 0.130019 0.350000
v 0.074844 0.130019 -0.350001
v 0.129748 0.075115 0.350000
v 0.129748 0.075115 -0.350001
v 0.149844 0.000115 0.350000
v 0.149844 0.000115 -0.350001
v 0.129748 -0.074885 0.350000
v 0.129748 -0.074885 -0.350001
v 0.074844 -0.129789 0.350000
v 0.074844 -0.129789 -0.350001
v -0.000156 -0.149885 0.350000
v -0.000156 -0.149885 -0.350001
v -0.075156 -0.129789 0.350000
v -0.075156 -0.129789 -0.350001
v -0.130060 -0.074885 0.350000
v -0.130060 -0.074885 -0.350001
v -0.150156 0.000115 0.350000
v -0.150156 0.000115 -0.350001
v -0.130060 0.075115 0.350000
v -0.130060 0.075115 -0.350001
v -0.075156 0.130019 0.350000
v -0.075156 0.130019 -0.350001
v -1.202781 -1.959690 0.170601
v -1.277304 -1.881487 0.278601
v -1.224609 -1.936785 0.246968
v -1.307115 -1.850203 0.278601
v -1.381637 -1.772000 0.170601
v -1.359810 -1.794905 0.246968
v -1.277304 -1.881487 0.019401
v -1.202781 -1.959690 0.127401
v -1.224609 -1.936785 0.051033
v -1.381637 -1.772000 0.127401
v -1.307115 -1.850203 0.019401
v -1.359810 -1.794905 0.051033
v -2.014647 -2.094745 0.629000
v -2.014648 -2.377588 0.629000
v -2.073226 -2.236166 0.629000
v -2.014648 -2.377588 -0.331000
v -2.014647 -2.094745 -0.331000
v -2.073226 -2.236166 -0.331000
v -1.802516 -2.589720 0.629000
v -1.519673 -2.589720 0.629000
v -1.661094 -2.648298 0.629000
v -1.519673 -2.589720 -0.331000
v -1.802516 -2.589720 -0.331000
v -1.661094 -2.648298 -0.331000
v 0.538219 -0.535108 -0.050459
v 0.517230 -0.585117 0.545000
v -0.042906 -0.013937 0.545000
v 0.517230 -0.585117 0.353000
v -0.042906 -0.013937 0.353000
v -1.870995 -2.719478 0.545000
v -1.588167 -2.722239 0.545000
v -1.781847 -2.772115 0.545000
v -1.678325 -2.773125 0.545000
v -2.148304 -2.151060 0.545000
v -2.151064 -2.433889 0.545000
v -2.200940 -2.240208 0.545000
v -2.201951 -2.343730 0.545000
v -1.870996 -2.719478 0.353000
v -1.781847 -2.772115 0.353000
v -2.151064 -2.433889 0.353000
v -2.201951 -2.343730 0.353000
v -2.200940 -2.240208 0.353000
v -1.480576 -1.886213 -0.331000
v -1.428548 -1.914023 -0.331000
v -1.382944 -1.951448 -0.331000
v -1.345519 -1.997050 -0.331000
v -1.300585 -2.105533 -0.331000
v -1.317710 -2.049079 -0.331000
v -1.537029 -2.459397 -0.331000
v -1.300585 -2.222952 -0.331000
v -1.382944 -2.377037 -0.331000
v -1.428548 -2.414462 -0.331000
v -1.345519 -2.331434 -0.331000
v -1.595739 -2.465179 -0.331000
v -1.480576 -2.442271 -0.331000
v -1.317710 -2.279406 -0.331000
v -1.599603 -2.464799 -0.331000
v -1.294802 -2.164242 -0.331000
v -1.808534 -1.951448 -0.331000
v -1.845959 -1.997051 -0.331000
v -1.762931 -1.914022 -0.331000
v -1.873768 -2.049079 -0.331000
v -1.710903 -1.886213 -0.331000
v -1.890894 -2.105532 -0.331000
v -1.890894 -2.222952 -0.331000
v -1.896676 -2.164242 -0.331000
v -1.808534 -2.377037 -0.331000
v -1.845959 -2.331434 -0.331000
v -1.873768 -2.279406 -0.331000
v -1.654449 -1.869088 -0.331000
v -1.595739 -1.863305 -0.331000
v -1.537029 -1.869088 -0.331000
v -1.762931 -2.414462 -0.331000
v -1.710903 -2.442272 -0.331000
v -1.654449 -2.459397 -0.331000
v -1.481832 -2.442653 0.629000
v -1.480576 -2.442271 0.629000
v -1.382944 -2.377037 0.629000
v -1.345519 -2.331434 0.629000
v -1.428548 -2.414462 0.629000
v -1.808534 -1.951448 0.629000
v -1.845959 -1.997051 0.629000
v -1.762931 -1.914022 0.629000
v -1.873768 -2.049079 0.629000
v -1.710903 -1.886213 0.629000
v -1.890894 -2.105532 0.629000
v -1.654449 -1.869088 0.629000
v -1.595739 -1.863305 0.629000
v -1.480576 -1.886213 0.629000
v -1.537029 -1.869088 0.629000
v -1.382944 -1.951448 0.629000
v -1.345519 -1.997050 0.629000
v -1.428548 -1.914023 0.629000
v -1.845959 -2.331434 0.629000
v -1.808534 -2.377037 0.629000
v -1.710903 -2.442272 0.629000
v -1.654449 -2.459397 0.629000
v -1.762931 -2.414462 0.629000
v -1.537029 -2.459397 0.629000
v -1.595739 -2.465179 0.629000
v -1.317710 -2.279406 0.629000
v -1.300585 -2.222952 0.629000
v -1.294802 -2.164242 0.629000
v -1.896676 -2.164242 0.629000
v -1.890894 -2.222952 0.629000
v -1.300585 -2.105533 0.629000
v -1.317710 -2.049079 0.629000
v -1.873768 -2.279406 0.629000
v -1.710903 -1.886213 0.353000
v -1.845959 -2.331434 0.353000
v -1.428548 -1.914023 0.353000
v -1.762931 -2.414462 0.353000
v -1.345519 -1.997050 0.353000
v -1.480576 -2.442271 0.353000
v -1.317710 -2.279406 0.353000
v -1.595739 -2.465179 0.353000
v -1.845959 -1.997051 0.545000
v -1.710903 -1.886213 0.545000
v -1.595739 -1.863305 0.545000
v -1.890894 -2.105532 0.545000
v -1.873768 -2.279406 0.545000
v -1.762931 -2.414462 0.545000
v -1.345519 -1.997050 0.545000
v -1.428548 -1.914023 0.545000
v -1.300585 -2.105533 0.545000
v -1.595739 -2.465179 0.545000
v -1.480576 -2.442271 0.545000
v -1.382944 -2.377037 0.545000
v -1.300585 -2.222952 0.545000
v 0.538219 -0.535108 0.349541
v 0.089876 -1.006260 0.545000
v 0.089876 -1.006260 0.353000
v -0.192680 -0.787836 0.278601
v -0.220327 -0.759674 0.278601
v -0.143809 -0.837619 0.051033
v -0.123566 -0.858239 0.170601
v -0.269198 -0.709892 0.246968
v -0.220327 -0.759674 0.019401
v -0.143809 -0.837619 0.246968
v -0.123566 -0.858239 0.127401
v -0.289441 -0.689272 0.127401
v -0.289441 -0.689272 0.170601
v -0.192680 -0.787836 0.019401
v -0.269198 -0.709892 0.051033
v 0.891789 -0.585086 0.545000
v 1.065547 -0.411255 0.545000
v 1.014654 -0.534142 0.545000
v 1.065547 -0.167592 0.545000
v 0.891843 0.001847 0.545000
v 1.014670 -0.045992 0.545000
v 1.065547 -0.411255 0.353000
v 0.891789 -0.585086 0.353000
v 1.014654 -0.534142 0.353000
v 0.891843 0.001847 0.353000
v 1.065547 -0.167592 0.353000
v 1.014670 -0.045992 0.353000
v 0.911800 -0.437437 -0.050459
v 0.814120 -0.535107 -0.050459
v 0.814183 -0.050769 -0.050459
v 0.911832 -0.147081 -0.050459
v 0.814120 -0.535107 0.349541
v 0.911800 -0.437437 0.349541
v 0.911832 -0.147081 0.349541
v 0.814183 -0.050769 0.349541
v 0.262895 -0.058428 -0.050459
v 0.089214 -0.099168 -0.050459
v 0.262896 -0.058428 0.349541
v 0.089214 -0.099168 0.349541
v -1.537029 -1.869088 0.353000
v -1.873768 -2.049079 0.353000
v -2.148304 -2.151060 0.353000
v 0.304720 -0.302435 0.334329
v 0.374665 -0.373564 0.289094
v -0.299768 -0.686042 0.289094
v -0.328740 -0.656580 0.179889
v -0.091337 -0.898002 0.179889
v -0.120310 -0.868539 0.289094
v -0.091337 -0.898002 0.118113
v -0.120310 -0.868539 0.008907
v -0.190254 -0.797410 -0.036327
v 0.265151 -0.262196 0.334329
v 0.265151 -0.262196 -0.036327
v 0.195207 -0.191067 0.008907
v -0.229823 -0.757171 -0.036327
v -0.299768 -0.686042 0.008907
v -0.190254 -0.797410 0.334329
v -0.229823 -0.757171 0.334329
v 0.304720 -0.302435 -0.036327
v -0.328740 -0.656580 0.118113
v 0.374665 -0.373564 0.008907
v 0.403638 -0.403027 0.179889
v 0.403638 -0.403027 0.118113
v 0.195207 -0.191067 0.289094
v 0.166235 -0.161605 0.179889
v 0.166235 -0.161605 0.118113
v -1.406163 -1.741564 0.629000
v -1.661467 -1.741564 0.629000
v -1.533815 -1.688689 0.629000
v -1.661467 -1.741564 -0.331000
v -1.406163 -1.741564 -0.331000
v -1.533815 -1.688689 -0.331000
v -1.166492 -2.236539 0.629000
v -1.166492 -1.981235 0.629000
v -1.113617 -2.108887 0.629000
v -1.166492 -1.981235 -0.331000
v -1.166492 -2.236539 -0.331000
v -1.113617 -2.108887 -0.331000
v -1.895050 -2.147736 0.353000
v -1.294802 -2.164242 0.353000
v -1.588167 -2.722239 0.353000
v -1.678325 -2.773125 0.353000
v -1.808534 -1.951448 0.353000
v -1.382944 -2.377037 0.353000
v 0.891816 -0.291620 0.545000
v 0.891816 -0.291620 0.353000
v 0.517230 -0.585117 -0.055000
v -0.042906 -0.013937 -0.055000
v 0.517230 -0.585117 -0.247000
v -0.042906 -0.013937 -0.247000
v -1.870995 -2.719478 -0.055000
v -1.588167 -2.722239 -0.055000
v -1.781847 -2.772115 -0.055000
v -1.678325 -2.773125 -0.055000
v -2.148304 -2.151060 -0.055000
v -2.151064 -2.433889 -0.055000
v -2.200940 -2.240208 -0.055000
v -2.201951 -2.343730 -0.055000
v -1.870996 -2.719478 -0.247000
v -1.781847 -2.772115 -0.247000
v -2.151064 -2.433889 -0.247000
v -2.201951 -2.343730 -0.247000
v -2.200940 -2.240208 -0.247000
v -1.710903 -1.886213 -0.247000
v -1.845959 -2.331434 -0.247000
v -1.428548 -1.914023 -0.247000
v -1.762931 -2.414462 -0.247000
v -1.345519 -1.997050 -0.247000
v -1.480576 -2.442271 -0.247000
v -1.317710 -2.279406 -0.247000
v -1.595739 -2.465179 -0.247000
v -1.845959 -1.997051 -0.055000
v -1.710903 -1.886213 -0.055000
v -1.595739 -1.863305 -0.055000
v -1.890894 -2.105532 -0.055000
v -1.873768 -2.279406 -0.055000
v -1.762931 -2.414462 -0.055000
v -1.345519 -1.997050 -0.055000
v -1.428548 -1.914023 -0.055000
v -1.300585 -2.105533 -0.055000
v -1.595739 -2.465179 -0.055000
v -1.480576 -2.442271 -0.055000
v -1.382944 -2.377037 -0.055000
v -1.300585 -2.222952 -0.055000
v 0.089876 -1.006260 -0.055000
v 0.089876 -1.006260 -0.247000
v 0.891789 -0.585086 -0.055000
v 1.065547 -0.411255 -0.055000
v 1.014654 -0.534142 -0.055000
v 1.065547 -0.167592 -0.055000
v 0.891843 0.001847 -0.055000
v 1.014670 -0.045992 -0.055000
v 1.065547 -0.411255 -0.247000
v 0.891789 -0.585086 -0.247000
v 1.014654 -0.534142 -0.247000
v 0.891843 0.001847 -0.247000
v 1.065547 -0.167592 -0.247000
v 1.014670 -0.045992 -0.247000
v -1.537029 -1.869088 -0.247000
v -1.873768 -2.049079 -0.247000
v -2.148304 -2.151060 -0.247000
v -1.895050 -2.147736 -0.247000
v -1.294802 -2.164242 -0.247000
v -1.588167 -2.722239 -0.247000
v -1.678325 -2.773125 -0.247000
v -1.808534 -1.951448 -0.247000
v -1.382944 -2.377037 -0.247000
v 0.891816 -0.291620 -0.055000
v 0.891816 -0.291620 -0.247000
v -1.295204 -2.222953 0.840999
v -1.340139 -2.331434 0.840999
v -1.423167 -2.414463 0.840999
v -1.531649 -2.459397 0.840999
v -1.705522 -2.442272 0.840999
v -1.803153 -2.377037 0.840999
v -1.868388 -2.279407 0.840999
v -1.891296 -2.164243 0.840999
v -1.868388 -2.049079 0.840999
v -1.803153 -1.951448 0.840999
v -1.705522 -1.886214 0.840999
v -1.590359 -1.863306 0.840999
v -1.423167 -1.914023 0.840999
v -1.340139 -1.997051 0.840999
v -1.295204 -2.105533 0.840999
v -1.295204 -2.222952 -0.415001
v -1.340138 -2.331434 -0.415001
v -1.475195 -2.442272 -0.415001
v -1.590358 -2.465180 -0.415001
v -1.705521 -2.442272 -0.415001
v -1.803153 -2.377037 -0.415001
v -1.885513 -2.222953 -0.415001
v -1.868388 -2.049079 -0.415001
v -1.803152 -1.951448 -0.415001
v -1.705522 -1.886214 -0.415001
v -1.531648 -1.869089 -0.415001
v -1.377564 -1.951448 -0.415001
v -1.295204 -2.105533 -0.415001
vt 0.241622 0.510735
vt 0.262199 0.510897
vt 0.286090 0.562227
vt 0.489608 0.005306
vt 0.412377 0.408469
vt 0.393727 0.416523
vt 0.489280 0.541730
vt 0.476932 0.554704
vt 0.467015 0.487651
vt 0.355586 0.650679
vt 0.322106 0.581599
vt 0.355325 0.581474
vt 0.355122 0.527739
vt 0.321971 0.545776
vt 0.321904 0.527865
vt 0.355189 0.545651
vt 0.322039 0.563688
vt 0.322571 0.704539
vt 0.355721 0.686502
vt 0.355789 0.704413
vt 0.322503 0.686627
vt 0.355654 0.668590
vt 0.322435 0.668716
vt 0.359014 0.718922
vt 0.466215 0.740939
vt 0.359014 0.740939
vt 0.524386 0.718922
vt 0.496445 0.740938
vt 0.496445 0.718922
vt 0.465644 0.774585
vt 0.465073 0.808231
vt 0.597839 0.740938
vt 0.554889 0.718922
vt 0.597839 0.718922
vt 0.422129 0.652351
vt 0.465644 0.685276
vt 0.466215 0.718922
vt 0.554889 0.740938
vt 0.539637 0.718922
vt 0.539637 0.740938
vt 0.481330 0.718922
vt 0.481330 0.740938
vt 0.489863 0.632665
vt 0.457290 0.585440
vt 0.489863 0.585440
vt 0.556644 0.632665
vt 0.540452 0.585440
vt 0.556644 0.585440
vt 0.506172 0.632665
vt 0.540452 0.632665
vt 0.506172 0.585440
vt 0.545275 0.644195
vt 0.590017 0.689389
vt 0.545755 0.678472
vt 0.383404 0.632665
vt 0.362342 0.585440
vt 0.383404 0.585440
vt 0.621737 0.632665
vt 0.590017 0.528716
vt 0.621737 0.585440
vt 0.545755 0.539634
vt 0.557446 0.528264
vt 0.545275 0.573910
vt 0.557446 0.689842
vt 0.387036 0.496738
vt 0.390568 0.561476
vt 0.373158 0.557269
vt 0.360184 0.544921
vt 0.459751 0.559766
vt 0.413904 0.510586
vt 0.493487 0.524320
vt 0.289409 0.496661
vt 0.303742 0.557895
vt 0.316852 0.545313
vt 0.213057 0.493957
vt 0.216178 0.560147
vt 0.199008 0.555032
vt 0.186683 0.541999
vt 0.182530 0.524541
vt 0.480205 0.713200
vt 0.485803 0.699160
vt 0.485331 0.671223
vt 0.479258 0.657233
vt 0.465073 0.651630
vt 0.479258 0.802628
vt 0.485803 0.760701
vt 0.480205 0.746661
vt 0.485331 0.788638
vt 0.353162 0.008700
vt 0.320336 0.112629
vt 0.319944 0.008825
vt 0.353554 0.112504
vt 0.351243 0.008725
vt 0.015007 0.718923
vt 0.015007 0.740939
vt 0.182530 0.004687
vt 0.263125 0.406809
vt 0.242722 0.406644
vt 0.322372 0.007743
vt 0.069176 0.510735
vt 0.089753 0.510897
vt 0.113644 0.562227
vt 0.317162 0.005306
vt 0.239931 0.408469
vt 0.221281 0.416523
vt 0.316834 0.541730
vt 0.304486 0.554704
vt 0.294569 0.487651
vt 0.183140 0.650679
vt 0.149661 0.581599
vt 0.182879 0.581474
vt 0.182676 0.527740
vt 0.149525 0.545776
vt 0.149458 0.527865
vt 0.182744 0.545651
vt 0.149593 0.563688
vt 0.150125 0.704539
vt 0.183276 0.686502
vt 0.183343 0.704413
vt 0.150057 0.686627
vt 0.183208 0.668590
vt 0.149990 0.668716
vt 0.358473 0.718923
vt 0.465674 0.740939
vt 0.358473 0.740939
vt 0.523845 0.718922
vt 0.495904 0.740938
vt 0.495904 0.718922
vt 0.465103 0.774585
vt 0.464532 0.808231
vt 0.597298 0.740938
vt 0.554348 0.718922
vt 0.597298 0.718922
vt 0.421588 0.652351
vt 0.465103 0.685276
vt 0.465674 0.718922
vt 0.554348 0.740938
vt 0.539097 0.718922
vt 0.539097 0.740938
vt 0.480789 0.718922
vt 0.480790 0.740939
vt 0.214590 0.496738
vt 0.218122 0.561476
vt 0.200712 0.557269
vt 0.187738 0.544921
vt 0.287305 0.559766
vt 0.241458 0.510587
vt 0.321041 0.524320
vt 0.116963 0.496661
vt 0.131296 0.557895
vt 0.144407 0.545313
vt 0.040612 0.493957
vt 0.043732 0.560147
vt 0.026563 0.555032
vt 0.014238 0.541999
vt 0.010084 0.524541
vt 0.479664 0.713200
vt 0.485262 0.699160
vt 0.484790 0.671223
vt 0.478717 0.657233
vt 0.464532 0.651630
vt 0.478718 0.802628
vt 0.485262 0.760701
vt 0.479664 0.746661
vt 0.484790 0.788638
vt 0.180716 0.008700
vt 0.147890 0.112629
vt 0.147498 0.008825
vt 0.181108 0.112504
vt 0.178797 0.008725
vt 0.014467 0.718923
vt 0.014467 0.740940
vt 0.010084 0.004687
vt 0.090679 0.406809
vt 0.070276 0.406644
vt 0.149926 0.007743
vt 0.041319 0.640085
vt 0.048123 0.567897
vt 0.048068 0.640090
vt 0.091856 0.640067
vt 0.088455 0.567875
vt 0.095205 0.567872
vt 0.081814 0.640078
vt 0.034570 0.640080
vt 0.041374 0.567892
vt 0.081706 0.567885
vt 0.031332 0.567879
vt 0.074957 0.567895
vt 0.024528 0.640068
vt 0.021290 0.567867
vt 0.068316 0.640098
vt 0.075065 0.640088
vt 0.017778 0.640055
vt 0.112104 0.640045
vt 0.105247 0.567862
vt 0.111996 0.567852
vt 0.061567 0.640100
vt 0.064915 0.567905
vt 0.105355 0.640055
vt 0.011247 0.567842
vt 0.054872 0.567902
vt 0.054817 0.640095
vt 0.098605 0.640065
vt 0.118745 0.567842
vt 0.118853 0.640035
vt 0.203386 0.653880
vt 0.252675 0.674297
vt 0.216271 0.718655
vt 0.247843 0.705742
vt 0.199276 0.710525
vt 0.199276 0.657175
vt 0.375498 0.480017
vt 0.474507 0.468769
vt 0.471095 0.438735
vt 0.371238 0.460154
vt 0.459557 0.422014
vt 0.379579 0.431101
vt 0.432689 0.408165
vt 0.322368 0.650804
vt 0.355257 0.563563
vt 0.524386 0.740938
vt 0.422129 0.807510
vt 0.457290 0.632665
vt 0.362342 0.632665
vt 0.642307 0.580916
vt 0.642307 0.637190
vt 0.443938 0.507174
vt 0.203707 0.479271
vt 0.301010 0.479645
vt 0.305221 0.459500
vt 0.199888 0.459461
vt 0.204282 0.437423
vt 0.300863 0.438172
vt 0.223782 0.414267
vt 0.289721 0.421211
vt 0.203053 0.480017
vt 0.302061 0.468769
vt 0.298649 0.438735
vt 0.198792 0.460154
vt 0.287111 0.422014
vt 0.207133 0.431101
vt 0.260243 0.408165
vt 0.149922 0.650804
vt 0.182811 0.563562
vt 0.523845 0.740938
vt 0.421588 0.807510
vt 0.271492 0.507174
vt 0.031261 0.479271
vt 0.128564 0.479645
vt 0.132775 0.459500
vt 0.027442 0.459461
vt 0.031836 0.437423
vt 0.128417 0.438171
vt 0.051336 0.414267
vt 0.117276 0.421211
vt 0.011029 0.640034
vt 0.186631 0.674296
vt 0.192978 0.662422
vt 0.223036 0.649972
vt 0.235920 0.653880
vt 0.246328 0.662422
vt 0.252675 0.694331
vt 0.241545 0.710989
vt 0.229670 0.717336
vt 0.197762 0.710989
vt 0.186631 0.694331
vt 0.211151 0.650828
vt 0.224551 0.649509
vt 0.237435 0.653417
vt 0.247843 0.661959
vt 0.254190 0.673833
vt 0.254190 0.693868
vt 0.237435 0.714284
vt 0.224550 0.718192
vt 0.211151 0.716872
vt 0.190735 0.700117
vt 0.186826 0.687233
vt 0.190735 0.667583
vt 0.751619 0.779437
vt 0.757735 0.724299
vt 0.757735 0.779437
vt 0.745503 0.779437
vt 0.751619 0.724299
vt 0.739387 0.779437
vt 0.745503 0.724299
vt 0.733271 0.779437
vt 0.739387 0.724299
vt 0.727155 0.779437
vt 0.733271 0.724299
vt 0.721039 0.779437
vt 0.727155 0.724299
vt 0.714923 0.779437
vt 0.721039 0.724299
vt 0.708807 0.779437
vt 0.714923 0.724299
vt 0.702691 0.779437
vt 0.708807 0.724299
vt 0.696575 0.779437
vt 0.702691 0.724299
vt 0.690459 0.779437
vt 0.696575 0.724299
vt 0.763851 0.724299
vt 0.763851 0.779437
vt 0.749381 0.793908
vt 0.752438 0.782495
vt 0.772206 0.787792
vt 0.690459 0.724299
vt 0.769148 0.782495
vt 0.772206 0.793908
vt 0.757735 0.802263
vt 0.769148 0.799205
vt 0.763851 0.802263
vt 0.752439 0.799205
vt 0.749380 0.787792
vt 0.566835 0.188397
vt 0.972358 0.174418
vt 0.972430 0.185814
vt 0.565584 0.122015
vt 0.971579 0.102075
vt 0.971813 0.122275
vt 0.565029 0.100217
vt 0.971543 0.080541
vt 0.566762 0.177004
vt 0.972183 0.152884
vt 0.566458 0.155205
vt 0.971945 0.132683
vt 0.971603 0.069150
vt 0.565316 0.045226
vt 0.971864 0.047617
vt 0.566100 0.023436
vt 0.972308 0.027420
vt 0.972549 0.227551
vt 0.566808 0.210198
vt 0.972530 0.207349
vt 0.565899 0.133407
vt 0.566533 0.012048
vt 0.564916 0.067024
vt 0.564857 0.078417
vt 0.566527 0.232001
vt 0.972549 0.017014
vt 0.232807 0.594563
vt 0.240762 0.603562
vt 0.232461 0.601632
vt 0.198973 0.580562
vt 0.209438 0.566528
vt 0.210555 0.575731
vt 0.197826 0.612659
vt 0.207263 0.627403
vt 0.191235 0.619333
vt 0.217574 0.576043
vt 0.210243 0.566457
vt 0.219474 0.566967
vt 0.057949 0.714444
vt 0.046703 0.646475
vt 0.058043 0.646457
vt 0.029269 0.714404
vt 0.040703 0.646467
vt 0.040609 0.714454
vt 0.018631 0.714308
vt 0.029363 0.646417
vt 0.068587 0.714377
vt 0.068682 0.646391
vt 0.096047 0.714255
vt 0.102141 0.646276
vt 0.102047 0.714263
vt 0.084706 0.714272
vt 0.074163 0.646352
vt 0.084801 0.646286
vt 0.013150 0.714255
vt 0.018725 0.646321
vt 0.113481 0.646325
vt 0.113387 0.714312
vt 0.096141 0.646268
vt 0.074068 0.714339
vt 0.046609 0.714462
vt 0.124119 0.646422
vt 0.124025 0.714408
vt 0.228709 0.581829
vt 0.241256 0.593453
vt 0.235398 0.575242
vt 0.227141 0.613906
vt 0.216500 0.627796
vt 0.215494 0.618578
vt 0.185140 0.601200
vt 0.193564 0.599979
vt 0.193817 0.592905
vt 0.185502 0.591086
vt 0.192875 0.573434
vt 0.209034 0.618303
vt 0.233155 0.621113
vt 0.211118 0.575686
vt 0.013244 0.646268
vt 0.210617 0.819606
vt 0.118606 0.996451
vt 0.118606 0.819606
vt 0.316598 0.638264
vt 0.295815 0.658845
vt 0.291751 0.641371
vt 0.062210 0.819606
vt 0.006945 0.996451
vt 0.006945 0.819605
vt 0.267978 0.641369
vt 0.273802 0.643137
vt 0.315475 0.638254
vt 0.285919 0.643221
vt 0.291742 0.641452
vt 0.243029 0.638456
vt 0.243338 0.586724
vt 0.249404 0.606719
vt 0.523274 0.996451
vt 0.495075 0.819605
vt 0.523274 0.819605
vt 0.495075 0.996451
vt 0.466877 0.819605
vt 0.090408 0.996451
vt 0.062210 0.996451
vt 0.090408 0.819606
vt 0.323961 0.819606
vt 0.261522 0.996451
vt 0.261522 0.819606
vt 0.244234 0.638171
vt 0.244241 0.586658
vt 0.249416 0.606634
vt 0.250272 0.652759
vt 0.262611 0.638499
vt 0.264856 0.658808
vt 0.254048 0.629934
vt 0.257908 0.634638
vt 0.349414 0.996451
vt 0.323961 0.996451
vt 0.349414 0.819605
vt 0.374867 0.996451
vt 0.236070 0.996451
vt 0.210617 0.996451
vt 0.236069 0.819606
vt 0.466877 0.996451
vt 0.294873 0.658884
vt 0.267968 0.641461
vt 0.273800 0.643230
vt 0.309443 0.652836
vt 0.262585 0.638580
vt 0.263919 0.658955
vt 0.249275 0.653010
vt 0.253970 0.629908
vt 0.257859 0.634689
vt 0.248790 0.573597
vt 0.267994 0.584120
vt 0.262630 0.586983
vt 0.257926 0.590834
vt 0.310013 0.573608
vt 0.308528 0.600913
vt 0.305660 0.595550
vt 0.316413 0.586632
vt 0.310337 0.618753
vt 0.310925 0.612692
vt 0.291735 0.584013
vt 0.310960 0.573486
vt 0.297807 0.568042
vt 0.262615 0.586884
vt 0.249695 0.573494
vt 0.262859 0.568042
vt 0.273803 0.582250
vt 0.267981 0.584016
vt 0.257911 0.590744
vt 0.297127 0.638494
vt 0.301533 0.634870
vt 0.310444 0.652850
vt 0.285921 0.643141
vt 0.279861 0.643735
vt 0.297106 0.638584
vt 0.301808 0.634724
vt 0.250949 0.624158
vt 0.251132 0.624484
vt 0.254062 0.595528
vt 0.251184 0.600892
vt 0.249389 0.618838
vt 0.248796 0.612795
vt 0.251180 0.624567
vt 0.254051 0.595447
vt 0.251183 0.600812
vt 0.249414 0.618744
vt 0.248819 0.612689
vt 0.374867 0.819605
vt 0.279861 0.643821
vt 0.261929 0.568160
vt 0.273814 0.582357
vt 0.296856 0.568160
vt 0.315465 0.586765
vt 0.305666 0.630021
vt 0.308532 0.624657
vt 0.279865 0.581764
vt 0.310296 0.618837
vt 0.310891 0.612784
vt 0.285917 0.582360
vt 0.291737 0.584125
vt 0.310294 0.606732
vt 0.297100 0.586992
vt 0.301801 0.590850
vt 0.297102 0.586875
vt 0.301886 0.634594
vt 0.305612 0.630063
vt 0.301807 0.590729
vt 0.305671 0.595429
vt 0.308548 0.624621
vt 0.308545 0.600796
vt 0.310320 0.606625
vt 0.285913 0.582248
vt 0.279858 0.581653
vn -0.0000 -0.0000 1.0000
vn 0.7071 0.7071 -0.0000
vn 0.9659 0.2588 -0.0000
vn -0.2588 0.9659 -0.0000
vn 0.2588 0.9659 -0.0000
vn -0.9659 0.2588 -0.0000
vn -0.7071 0.7071 -0.0000
vn 0.9659 -0.2588 -0.0000
vn 0.7071 -0.7071 -0.0000
vn -0.7071 -0.7071 -0.0000
vn -0.9659 -0.2588 -0.0000
vn 0.2588 -0.9659 -0.0000
vn -0.2588 -0.9659 -0.0000
vn -0.0000 -1.0000 -0.0000
vn -0.0000 -0.0000 -1.0000
vn -0.9239 -0.3827 -0.0000
vn 0.9239 -0.3827 -0.0000
vn 0.9239 0.3827 -0.0000
vn 0.3827 0.9239 -0.0000
vn -0.3827 0.9239 -0.0000
vn -0.8315 0.5556 -0.0000
vn -0.9239 0.3827 -0.0000
vn -0.0001 -0.0000 1.0000
vn 0.3827 -0.9239 -0.0000
vn -0.8315 -0.5556 -0.0000
vn -0.7993 -0.6010 -0.0000
vn -0.6165 -0.7874 -0.0000
vn 0.6093 -0.7929 -0.0000
vn 0.2494 -0.9684 -0.0000
vn -0.0098 -1.0000 -0.0000
vn -0.5084 -0.8611 -0.0000
vn -0.7927 0.6097 -0.0000
vn -0.9634 0.2682 -0.0000
vn -1.0000 0.0098 -0.0000
vn -0.8709 -0.4915 -0.0000
vn -0.0169 0.9999 -0.0000
vn 0.1763 0.9843 -0.0000
vn 0.9808 -0.1951 -0.0000
vn 0.9804 0.1968 -0.0000
vn 0.0001 -1.0000 -0.0000
vn 0.1953 -0.9807 -0.0000
vn 0.3830 -0.9237 -0.0000
vn 0.9239 -0.3826 -0.0000
vn 0.9225 0.3860 -0.0000
vn 0.3629 0.9318 -0.0000
vn 0.7022 0.7120 -0.0000
vn 1.0000 -0.0001 -0.0000
vn -0.2284 0.9736 -0.0000
vn -0.1218 0.9925 -0.0000
vn -0.0139 0.9999 -0.0000
vn -0.6966 -0.7175 -0.0000
vn 0.7019 -0.7123 -0.0000
vn 0.7085 -0.7057 -0.0000
vn -0.7124 0.7018 -0.0000
vn 0.1482 -0.9889 0.0067
vn -0.0015 -1.0000 -0.0019
vn 0.4262 -0.9046 -0.0067
vn -0.3396 -0.9405 0.0044
vn 0.0461 0.9989 0.0042
vn -0.3396 0.9406 -0.0044
vn -0.3827 -0.9239 -0.0000
vn 0.1951 0.9807 -0.0087
vn -0.7390 -0.6737 -0.0044
vn 0.5153 0.8570 0.0063
vn 0.7071 0.7071 -0.0091
vn -0.9233 -0.3840 0.0019
vn 0.8323 0.5543 0.0019
vn 0.8049 -0.5934 -0.0044
vn -1.0000 0.0015 0.0019
vn -0.9807 -0.1951 -0.0091
vn 0.8315 -0.5556 -0.0000
vn 0.9707 0.2402 -0.0044
vn -0.9405 0.3396 -0.0044
vn 0.5568 -0.8307 0.0019
vn 0.9808 0.1951 -0.0000
vn 0.5556 -0.8315 -0.0000
vn -0.5556 -0.8315 -0.0000
vn 0.8315 0.5556 -0.0000
vn 0.5556 0.8315 -0.0000
vn -0.5556 0.8315 -0.0000
vn -0.6911 0.6960 -0.1950
vn -0.6926 0.6986 0.1798
vn -0.6926 0.6986 -0.1798
vn 0.1419 -0.1396 0.9800
vn 0.2926 -0.2901 0.9112
vn 0.1488 -0.1476 0.9778
vn 0.6602 -0.6469 0.3816
vn 0.7019 -0.6889 0.1808
vn 0.6669 -0.6558 0.3539
vn -0.6911 0.6960 0.1950
vn -0.6582 0.6639 0.3549
vn -0.2717 0.2709 0.9235
vn -0.1496 0.1504 0.9772
vn -0.2913 0.2928 0.9107
vn 0.7019 -0.6889 -0.1811
vn 0.6602 -0.6469 -0.3816
vn 0.6669 -0.6558 -0.3538
vn 0.2926 -0.2901 -0.9112
vn 0.1419 -0.1396 -0.9800
vn 0.1488 -0.1476 -0.9778
vn -0.1498 0.1505 -0.9772
vn -0.2717 0.2709 -0.9235
vn -0.2913 0.2928 -0.9107
vn -0.6582 0.6639 -0.3549
vn -0.1360 0.1356 0.9814
vn -0.1360 0.1355 -0.9814
vn 0.7007 -0.6865 -0.1942
vn 0.7007 -0.6865 0.1942
vn 0.2729 -0.2684 0.9238
vn -0.6516 0.6550 0.3827
vn 0.7019 -0.6889 -0.1807
vn 0.6602 -0.6469 -0.3817
vn 0.2729 -0.2684 -0.9238
vn -0.1495 0.1503 -0.9773
vn -0.2717 0.2709 -0.9234
vn -0.6516 0.6550 -0.3827
vn -0.7748 -0.6319 0.0168
vn -0.7749 -0.6319 -0.0169
vn -0.7748 -0.6319 -0.0168
vn -0.6634 -0.7459 0.0590
vn -0.6977 -0.7111 0.0870
vn -0.6970 -0.7118 0.0868
vn -0.6634 -0.7459 -0.0590
vn -0.6977 -0.7111 -0.0870
vn -0.6654 -0.7440 -0.0617
vn -0.7243 -0.6840 0.0862
vn -0.7230 -0.6855 0.0861
vn 0.6613 -0.6613 0.3539
vn 0.6956 -0.6956 0.1800
vn 0.6613 -0.6613 -0.3539
vn 0.6956 -0.6956 -0.1800
vn 0.6956 -0.6956 -0.1797
vn 0.1502 -0.1502 -0.9772
vn 0.2920 -0.2920 -0.9107
vn 0.1501 -0.1501 0.9772
vn 0.2920 -0.2920 0.9107
vn 0.1486 -0.1486 0.9777
vn -0.6956 0.6956 0.1800
vn -0.6956 0.6956 -0.1797
vn -0.6956 0.6955 -0.1799
vn -0.2920 0.2920 0.9107
vn -0.1501 0.1501 0.9772
vn -0.1486 0.1486 -0.9777
vn 0.1486 -0.1486 -0.9777
vn 0.1500 -0.1500 -0.9772
vn -0.6955 0.6955 -0.1801
vn -0.6614 0.6614 -0.3539
vn -0.6614 0.6614 0.3539
vn -0.6956 0.6956 0.1797
vn -0.1486 0.1486 0.9777
vn 0.6956 -0.6956 0.1797
vn -0.2920 0.2920 -0.9107
vn -0.1501 0.1501 -0.9772
vn -0.7558 -0.6523 0.0573
vn -0.7749 -0.6319 0.0169
vn -0.7538 -0.6543 0.0598
vn -0.7558 -0.6523 -0.0573
vn -0.7230 -0.6855 -0.0861
vn -0.7243 -0.6840 -0.0862
vn -0.6420 -0.7665 -0.0177
vn -0.6419 -0.7666 -0.0178
vn -0.6419 -0.7666 0.0178
vn -0.6420 -0.7665 0.0177
vn -0.6654 -0.7440 0.0617
vn -0.6970 -0.7118 -0.0868
vn -0.7538 -0.6543 -0.0598
vn -0.6613 0.6614 -0.3539
vn -0.6613 0.6614 0.3539
vn 0.0052 0.0014 -1.0000
usemtl SpacialRoverExploreralumWhite
f 134/1/15 136/2/15 62/3/15
f 51/4/1 147/5/1 149/6/1
f 60/7/1 61/8/1 144/9/1
f 59/10/26 62/11/27 54/12/27
f 55/13/28 235/14/29 234/15/28
f 57/16/29 63/17/30 235/14/29
f 63/17/31 54/12/27 62/11/27
f 195/18/32 60/19/33 58/20/32
f 66/21/33 61/22/34 60/19/33
f 65/23/35 59/10/26 61/22/35
f 51/24/36 178/25/37 53/26/36
f 170/27/38 179/28/39 172/29/39
f 53/26/15 239/30/15 176/31/15
f 52/32/40 169/33/41 50/34/40
f 50/35/1 238/36/1 173/37/1
f 176/38/41 171/39/42 169/33/41
f 177/40/43 170/27/38 171/39/43
f 179/28/39 174/41/44 172/29/39
f 180/42/45 173/37/37 174/41/45
f 185/43/14 49/44/14 182/45/14
f 188/46/46 184/47/46 183/48/46
f 182/45/9 186/49/9 185/43/9
f 187/50/47 181/51/47 184/47/47
f 187/52/1 154/53/1 186/54/1
f 192/55/48 189/56/49 190/57/48
f 183/48/50 191/58/49 188/46/50
f 49/44/51 192/55/51 190/57/51
f 49/59/15 189/60/15 183/48/15
f 49/59/15 181/61/15 182/62/15
f 184/63/15 49/59/15 183/48/15
f 181/61/15 49/59/15 184/63/15
f 186/54/1 154/53/1 185/64/1
f 154/53/1 187/52/1 188/46/1
f 191/58/1 154/53/1 188/46/1
f 150/65/1 54/66/1 56/67/1
f 56/67/1 57/68/1 150/65/1
f 55/13/1 150/65/1 57/68/1
f 59/69/1 150/65/1 146/70/1
f 144/9/1 58/71/1 60/7/1
f 144/9/1 61/8/1 59/69/1
f 62/3/15 140/72/15 63/73/15
f 63/73/15 140/72/15 235/74/15
f 232/75/15 64/76/15 65/77/15
f 66/78/15 195/79/15 232/75/15
f 65/77/15 66/78/15 232/75/15
f 140/72/15 234/15/15 235/74/15
f 173/37/1 238/36/1 174/80/1
f 174/80/1 238/36/1 172/81/1
f 172/81/1 238/36/1 170/82/1
f 171/83/1 238/36/1 169/84/1
f 170/82/1 238/36/1 171/83/1
f 176/31/15 239/30/15 177/85/15
f 179/86/15 239/30/15 180/87/15
f 180/87/15 239/30/15 178/25/15
f 177/85/15 239/30/15 175/88/15
f 175/88/15 239/30/15 179/86/15
f 50/89/52 156/90/53 52/91/52
f 51/4/1 155/92/1 50/93/1
f 155/92/53 234/15/28 156/90/53
f 58/94/32 53/26/54 195/95/32
f 53/96/15 137/97/15 135/98/15
f 156/90/15 53/96/15 52/99/15
f 258/100/15 260/101/15 252/102/15
f 241/103/1 271/104/1 273/105/1
f 250/106/1 251/107/1 268/108/1
f 249/109/26 252/110/27 244/111/27
f 245/112/28 298/113/29 297/114/28
f 247/115/29 253/116/30 298/113/29
f 253/116/31 244/111/27 252/110/27
f 294/117/32 250/118/33 248/119/32
f 256/120/33 251/121/34 250/118/33
f 255/122/35 249/109/26 251/121/35
f 241/123/36 289/124/37 243/125/36
f 281/126/38 290/127/39 283/128/39
f 243/125/15 302/129/15 287/130/15
f 242/131/40 280/132/41 240/133/40
f 240/134/1 301/135/1 284/136/1
f 287/137/41 282/138/42 280/132/41
f 288/139/43 281/126/38 282/138/43
f 290/127/39 285/140/44 283/128/39
f 291/141/45 284/136/37 285/140/45
f 274/142/1 244/143/1 246/144/1
f 246/144/1 247/145/1 274/142/1
f 245/112/1 274/142/1 247/145/1
f 249/146/1 274/142/1 270/147/1
f 268/108/1 248/148/1 250/106/1
f 268/108/1 251/107/1 249/146/1
f 252/102/15 264/149/15 253/150/15
f 253/150/15 264/149/15 298/151/15
f 295/152/15 254/153/15 255/154/15
f 256/155/15 294/156/15 295/152/15
f 255/154/15 256/155/15 295/152/15
f 264/149/15 297/114/15 298/151/15
f 284/136/1 301/135/1 285/157/1
f 285/157/1 301/135/1 283/158/1
f 283/158/1 301/135/1 281/159/1
f 282/160/1 301/135/1 280/161/1
f 281/159/1 301/135/1 282/160/1
f 287/130/15 302/129/15 288/162/15
f 290/163/15 302/129/15 291/164/15
f 291/164/15 302/129/15 289/124/15
f 288/162/15 302/129/15 286/165/15
f 286/165/15 302/129/15 290/163/15
f 240/166/52 279/167/53 242/168/52
f 241/103/1 278/169/1 240/170/1
f 278/169/53 297/114/28 279/167/53
f 248/171/32 243/125/54 294/172/32
f 243/173/15 261/174/15 259/175/15
f 279/167/15 243/173/15 242/176/15
f 313/177/20 326/178/7 312/179/7
f 306/180/55 321/181/56 320/182/57
f 306/180/55 307/183/58 321/181/56
f 313/177/20 314/184/59 327/185/60
f 307/183/58 322/186/61 321/181/56
f 314/184/59 328/187/62 327/185/60
f 307/183/58 323/188/63 322/186/61
f 314/184/59 315/189/64 328/187/62
f 315/189/64 329/190/65 328/187/62
f 309/191/66 323/188/63 308/192/10
f 315/189/64 316/193/67 329/190/65
f 303/194/38 319/195/68 318/196/38
f 309/191/66 310/197/69 324/198/70
f 303/194/38 304/199/71 319/195/68
f 316/193/67 330/200/72 329/190/65
f 310/197/69 325/201/73 324/198/70
f 310/197/69 311/202/22 325/201/73
f 305/203/74 319/195/68 304/199/71
f 303/194/38 330/204/72 317/205/75
f 312/179/7 325/201/73 311/202/22
f 305/203/74 306/180/55 320/182/57
f 319/206/15 323/207/15 327/208/15
f 313/209/1 309/210/1 305/211/1
f 62/3/15 64/76/15 232/75/15
f 62/3/15 232/75/15 134/1/15
f 136/2/15 140/72/15 62/3/15
f 151/212/1 150/65/1 55/13/1
f 58/71/1 144/9/1 141/213/1
f 58/71/1 141/213/1 142/214/1
f 152/215/1 151/212/1 55/13/1
f 152/215/1 55/13/1 155/92/1
f 51/4/1 58/71/1 142/214/1
f 51/4/1 142/214/1 143/216/1
f 152/215/1 155/92/1 51/4/1
f 153/217/23 152/215/1 51/4/1
f 51/4/1 143/216/1 148/218/1
f 51/4/1 148/218/1 147/5/1
f 149/6/1 153/217/23 51/4/1
f 59/10/26 64/219/26 62/11/27
f 55/13/28 57/16/29 235/14/29
f 57/16/29 56/220/30 63/17/30
f 63/17/31 56/220/31 54/12/27
f 195/18/32 66/21/33 60/19/33
f 66/21/33 65/23/34 61/22/34
f 65/23/35 64/219/26 59/10/26
f 51/24/36 173/37/37 178/25/37
f 170/27/38 175/221/38 179/28/39
f 176/31/15 52/222/15 53/26/15
f 53/26/15 178/25/15 239/30/15
f 52/32/40 176/38/41 169/33/41
f 173/37/1 51/24/1 50/35/1
f 50/35/1 169/84/1 238/36/1
f 176/38/41 177/40/42 171/39/42
f 177/40/43 175/221/38 170/27/38
f 179/28/39 180/42/44 174/41/44
f 180/42/45 178/25/37 173/37/37
f 185/43/14 154/223/14 49/44/14
f 188/46/46 187/50/46 184/47/46
f 182/45/9 181/51/9 186/49/9
f 187/50/47 186/49/47 181/51/47
f 192/55/48 191/224/49 189/56/49
f 183/48/50 189/60/49 191/58/49
f 49/44/51 154/223/51 192/55/51
f 49/59/15 190/225/15 189/60/15
f 191/58/1 192/226/1 154/53/1
f 145/227/1 144/9/1 59/69/1
f 59/69/1 54/66/1 150/65/1
f 146/70/1 145/227/1 59/69/1
f 50/89/52 155/92/53 156/90/53
f 155/92/53 55/13/28 234/15/28
f 58/94/32 51/24/54 53/26/54
f 194/228/15 232/75/15 195/79/15
f 234/15/15 140/72/15 138/229/15
f 234/15/15 138/229/15 237/230/15
f 236/231/15 194/228/15 195/79/15
f 133/232/15 236/231/15 195/79/15
f 156/90/15 234/15/15 237/230/15
f 156/90/15 237/230/15 139/233/15
f 133/232/15 195/79/15 53/96/15
f 193/234/15 133/232/15 53/96/15
f 53/96/15 156/90/15 139/233/15
f 53/96/15 139/233/15 233/235/15
f 135/98/15 193/234/15 53/96/15
f 53/96/15 233/235/15 137/97/15
f 252/102/15 254/153/15 295/152/15
f 252/102/15 295/152/15 258/100/15
f 260/101/15 264/149/15 252/102/15
f 275/236/1 274/142/1 245/112/1
f 248/148/1 268/108/1 265/237/1
f 248/148/1 265/237/1 266/238/1
f 276/239/1 275/236/1 245/112/1
f 276/239/1 245/112/1 278/169/1
f 241/103/1 248/148/1 266/238/1
f 241/103/1 266/238/1 267/240/1
f 276/239/1 278/169/1 241/103/1
f 277/241/23 276/239/1 241/103/1
f 241/103/1 267/240/1 272/242/1
f 241/103/1 272/242/1 271/104/1
f 273/105/1 277/241/23 241/103/1
f 249/109/26 254/243/26 252/110/27
f 245/112/28 247/115/29 298/113/29
f 247/115/29 246/244/30 253/116/30
f 253/116/31 246/244/31 244/111/27
f 294/117/32 256/120/33 250/118/33
f 256/120/33 255/122/34 251/121/34
f 255/122/35 254/243/26 249/109/26
f 241/123/36 284/136/37 289/124/37
f 281/126/38 286/245/38 290/127/39
f 287/130/15 242/246/15 243/125/15
f 243/125/15 289/124/15 302/129/15
f 242/131/40 287/137/41 280/132/41
f 284/136/1 241/123/1 240/134/1
f 240/134/1 280/161/1 301/135/1
f 287/137/41 288/139/42 282/138/42
f 288/139/43 286/245/38 281/126/38
f 290/127/39 291/141/44 285/140/44
f 291/141/45 289/124/37 284/136/37
f 269/247/1 268/108/1 249/146/1
f 249/146/1 244/143/1 274/142/1
f 270/147/1 269/247/1 249/146/1
f 240/166/52 278/169/53 279/167/53
f 278/169/53 245/112/28 297/114/28
f 248/171/32 241/123/54 243/125/54
f 293/248/15 295/152/15 294/156/15
f 297/114/15 264/149/15 262/249/15
f 297/114/15 262/249/15 300/250/15
f 299/251/15 293/248/15 294/156/15
f 257/252/15 299/251/15 294/156/15
f 279/167/15 297/114/15 300/250/15
f 279/167/15 300/250/15 263/253/15
f 257/252/15 294/156/15 243/173/15
f 292/254/15 257/252/15 243/173/15
f 243/173/15 279/167/15 263/253/15
f 243/173/15 263/253/15 296/255/15
f 259/175/15 292/254/15 243/173/15
f 243/173/15 296/255/15 261/174/15
f 313/177/20 327/185/60 326/178/7
f 307/183/58 308/192/10 323/188/63
f 309/191/66 324/198/70 323/188/63
f 316/193/67 317/256/75 330/200/72
f 305/203/74 320/182/57 319/195/68
f 303/194/38 318/196/38 330/204/72
f 312/179/7 326/178/7 325/201/73
f 330/257/15 318/258/15 319/206/15
f 319/206/15 320/259/15 321/260/15
f 321/260/15 322/261/15 323/207/15
f 323/207/15 324/262/15 325/263/15
f 325/263/15 326/264/15 327/208/15
f 327/208/15 328/265/15 329/266/15
f 329/266/15 330/257/15 319/206/15
f 319/206/15 321/260/15 323/207/15
f 323/207/15 325/263/15 327/208/15
f 327/208/15 329/266/15 319/206/15
f 304/267/1 303/268/1 317/269/1
f 317/269/1 316/270/1 315/271/1
f 315/271/1 314/272/1 313/209/1
f 313/209/1 312/273/1 311/274/1
f 311/274/1 310/275/1 309/210/1
f 309/210/1 308/276/1 307/277/1
f 307/277/1 306/278/1 305/211/1
f 305/211/1 304/267/1 317/269/1
f 317/269/1 315/271/1 313/209/1
f 313/209/1 311/274/1 309/210/1
f 309/210/1 307/277/1 305/211/1
f 305/211/1 317/269/1 313/209/1
usemtl SpacialRoverExploreralumGray
f 3/279/5 2/280/5 1/281/5
f 5/282/2 4/283/2 3/279/2
f 7/284/3 6/285/3 5/282/3
f 9/286/8 8/287/8 7/284/8
f 11/288/9 10/289/9 9/286/9
f 13/290/12 12/291/12 11/288/12
f 15/292/13 14/293/13 13/290/13
f 17/294/10 16/295/10 15/292/10
f 19/296/11 18/297/11 17/294/11
f 21/298/6 20/299/6 19/296/6
f 23/300/7 22/301/7 21/298/7
f 1/281/4 24/302/4 23/303/4
f 7/304/1 3/305/1 19/306/1
f 3/279/5 4/283/5 2/280/5
f 5/282/2 6/285/2 4/283/2
f 7/284/3 8/287/3 6/285/3
f 9/286/8 10/289/8 8/287/8
f 11/288/9 12/291/9 10/289/9
f 13/290/12 14/293/12 12/291/12
f 15/292/13 16/295/13 14/293/13
f 17/294/10 18/297/10 16/295/10
f 19/296/11 20/299/11 18/297/11
f 21/298/6 22/301/6 20/299/6
f 23/300/7 24/307/7 22/301/7
f 1/281/4 2/280/4 24/302/4
f 3/305/1 1/281/1 23/303/1
f 23/303/1 21/308/1 3/305/1
f 21/308/1 19/306/1 3/305/1
f 19/306/1 17/309/1 11/310/1
f 17/309/1 15/311/1 11/310/1
f 15/311/1 13/312/1 11/310/1
f 11/310/1 9/313/1 7/304/1
f 7/304/1 5/314/1 3/305/1
f 11/310/1 7/304/1 19/306/1
f 34/315/81 166/316/82 165/317/83
f 26/318/84 163/319/85 157/320/86
f 27/321/87 160/322/88 163/319/89
f 29/323/90 161/324/91 166/316/82
f 30/325/92 158/326/93 161/324/94
f 164/327/95 33/328/96 159/329/97
f 159/329/98 31/330/99 167/331/100
f 162/332/101 36/333/102 168/334/103
f 168/334/104 34/315/81 165/317/83
f 28/335/105 157/320/86 158/326/93
f 35/336/106 167/331/100 31/330/99
f 32/337/107 160/322/88 25/338/108
f 34/315/81 29/323/90 166/316/82
f 26/318/84 27/321/109 163/319/85
f 27/321/87 25/338/108 160/322/88
f 29/323/90 30/325/110 161/324/91
f 30/325/92 28/335/105 158/326/93
f 164/327/111 32/337/107 33/328/112
f 159/329/98 33/328/113 31/330/99
f 162/332/114 35/339/106 36/333/115
f 168/334/104 36/333/116 34/315/81
f 28/335/105 26/318/84 157/320/86
f 35/336/106 162/340/114 167/331/100
f 32/337/107 164/327/111 160/322/88
usemtl SpacialRoverExploreralumBlack
f 164/341/117 200/342/118 160/343/119
f 168/344/120 208/345/121 162/346/122
f 161/347/123 211/348/124 198/349/125
f 167/350/126 208/351/121 204/352/127
f 201/353/128 215/354/129 197/355/128
f 203/356/130 216/357/131 202/358/132
f 204/359/133 214/360/134 203/356/134
f 210/361/135 197/355/136 196/362/137
f 199/363/138 219/364/139 213/365/140
f 198/366/141 205/367/142 217/368/141
f 208/369/143 212/370/144 204/359/145
f 213/365/146 207/371/147 209/372/147
f 199/363/138 217/368/148 218/373/149
f 211/374/150 196/362/137 205/367/142
f 202/358/132 215/354/129 200/375/151
f 209/372/152 206/376/153 208/377/143
f 159/378/154 202/379/155 164/341/117
f 159/378/154 204/352/127 203/380/156
f 163/381/157 210/382/158 157/383/159
f 161/347/123 199/384/160 166/385/161
f 165/386/162 199/384/160 213/387/163
f 168/344/120 213/387/163 209/388/164
f 157/383/159 211/348/124 158/389/165
f 163/381/157 200/342/118 201/390/166
f 164/341/117 202/379/155 200/342/118
f 168/344/120 209/388/164 208/345/121
f 161/347/123 158/389/165 211/348/124
f 167/350/126 162/391/122 208/351/121
f 201/353/128 200/375/151 215/354/129
f 203/356/130 214/360/130 216/357/131
f 204/359/145 212/370/144 214/360/134
f 210/361/135 201/353/136 197/355/136
f 199/363/138 218/373/149 219/364/139
f 198/366/141 211/374/150 205/367/142
f 208/369/143 206/392/153 212/370/144
f 213/365/140 219/364/139 207/371/167
f 199/363/138 198/366/168 217/368/148
f 211/374/150 210/361/135 196/362/137
f 202/358/132 216/357/131 215/354/129
f 209/372/152 207/371/152 206/376/153
f 159/378/154 203/380/156 202/379/155
f 159/378/154 167/350/126 204/352/127
f 163/381/157 201/390/166 210/382/158
f 161/347/123 198/349/125 199/384/160
f 165/386/162 166/385/161 199/384/160
f 168/344/120 165/386/162 213/387/163
f 157/383/159 210/382/158 211/348/124
f 163/381/157 160/343/119 200/342/118
usemtl SpacialRoverExploreralumGrayDeep
f 230/393/71 44/394/76 46/395/76
f 46/396/15 47/397/15 98/398/15
f 47/399/77 38/400/25 40/401/25
f 47/397/15 93/402/15 92/403/15
f 37/404/1 118/405/1 132/406/1
f 44/407/1 226/408/1 103/409/1
f 38/410/25 42/411/16 40/412/25
f 39/413/22 41/414/21 42/411/22
f 47/399/77 45/415/61 43/416/77
f 48/417/24 44/394/76 45/415/24
f 224/418/79 227/419/78 229/420/78
f 41/421/15 223/422/15 85/423/15
f 42/424/15 89/425/15 40/426/15
f 42/424/15 88/427/15 90/428/15
f 224/418/79 222/429/19 220/430/79
f 225/431/20 221/432/80 222/429/20
f 230/393/71 228/433/17 226/434/71
f 231/435/18 227/419/78 228/433/18
f 221/432/80 41/414/21 37/436/21
f 38/437/1 120/438/1 122/439/1
f 38/437/1 118/405/1 39/440/1
f 121/441/1 43/442/1 45/443/1
f 44/407/1 123/444/1 124/445/1
f 228/446/1 131/447/1 130/448/1
f 228/446/1 127/449/1 226/408/1
f 222/450/1 109/451/1 111/452/1
f 230/453/15 76/454/15 75/455/15
f 230/453/15 72/456/15 231/457/15
f 72/456/15 229/458/15 231/457/15
f 96/459/15 225/460/15 224/461/15
f 229/458/15 68/462/15 67/463/169
f 95/464/15 225/460/15 96/459/15
f 230/393/71 226/434/71 44/394/76
f 99/465/15 81/466/15 46/396/15
f 46/396/15 48/467/15 47/397/15
f 47/397/15 97/468/15 98/398/15
f 98/398/15 99/465/15 46/396/15
f 47/399/77 43/416/77 38/400/25
f 91/469/15 97/468/15 47/397/15
f 47/397/15 40/426/15 89/425/15
f 47/397/15 89/425/15 93/402/15
f 92/403/15 91/469/15 47/397/15
f 129/470/1 128/471/1 37/404/1
f 37/404/1 39/440/1 118/405/1
f 132/406/1 129/470/1 37/404/1
f 101/472/1 100/473/1 44/407/1
f 226/408/1 127/449/1 126/474/1
f 226/408/1 126/474/1 125/475/1
f 104/476/1 101/472/1 44/407/1
f 102/477/1 104/476/1 44/407/1
f 226/408/1 125/475/1 103/409/1
f 103/409/1 102/477/1 44/407/1
f 38/410/25 39/413/16 42/411/16
f 39/413/22 37/436/21 41/414/21
f 47/399/77 48/417/61 45/415/61
f 48/417/24 46/395/76 44/394/76
f 224/418/79 220/430/79 227/419/78
f 86/478/15 88/427/15 41/421/15
f 223/422/15 95/464/15 94/479/15
f 223/422/15 94/479/15 87/480/15
f 84/481/15 86/478/15 41/421/15
f 83/482/15 84/481/15 41/421/15
f 223/422/15 87/480/15 85/423/15
f 85/423/15 83/482/15 41/421/15
f 90/428/15 89/425/15 42/424/15
f 42/424/15 41/421/15 88/427/15
f 224/418/79 225/431/19 222/429/19
f 225/431/20 223/483/80 221/432/80
f 230/393/71 231/435/17 228/433/17
f 231/435/18 229/420/78 227/419/78
f 221/432/80 223/483/80 41/414/21
f 119/484/1 118/405/1 38/437/1
f 38/437/1 43/442/1 121/441/1
f 38/437/1 121/441/1 120/438/1
f 122/439/1 119/484/1 38/437/1
f 121/441/1 45/443/1 44/407/1
f 44/407/1 100/473/1 123/444/1
f 124/445/1 121/441/1 44/407/1
f 130/448/1 127/449/1 228/446/1
f 228/446/1 227/485/1 131/447/1
f 116/486/1 131/447/1 227/485/1
f 227/485/1 220/487/1 222/450/1
f 222/450/1 221/488/1 37/404/1
f 37/404/1 128/471/1 110/489/1
f 37/404/1 110/489/1 108/490/1
f 116/486/1 227/485/1 222/450/1
f 115/491/1 116/486/1 222/450/1
f 37/404/1 108/490/1 106/492/1
f 37/404/1 106/492/1 105/493/1
f 117/494/1 115/491/1 222/450/1
f 113/495/1 117/494/1 222/450/1
f 222/450/1 37/404/1 105/493/1
f 222/450/1 105/493/1 107/496/1
f 114/497/1 113/495/1 222/450/1
f 112/498/1 114/497/1 222/450/1
f 222/450/1 107/496/1 109/451/1
f 111/452/1 112/498/1 222/450/1
f 71/499/15 72/456/15 230/453/15
f 46/396/15 81/466/15 78/500/15
f 46/396/15 78/500/15 73/501/15
f 82/502/15 71/499/15 230/453/15
f 74/503/15 82/502/15 230/453/15
f 46/396/15 73/501/15 79/504/15
f 46/396/15 79/504/15 76/454/15
f 80/505/15 74/503/15 230/453/15
f 77/506/15 80/505/15 230/453/15
f 230/453/15 46/396/15 76/454/15
f 75/455/15 77/506/15 230/453/15
f 96/459/15 224/461/15 229/458/15
f 229/458/15 72/456/15 70/507/15
f 229/458/15 70/507/15 69/508/15
f 67/463/169 96/459/15 229/458/15
f 229/458/15 69/508/15 68/462/15
f 95/464/15 223/422/15 225/460/15
