# Pieza del RoverModificado
mtllib Rover.mtl
o PataTD
v -0.000156 0.150114 -0.350001
v -0.000156 0.150114 0.350000
v 0.074844 0.130019 -0.350001
v 0.074844 0.130019 0.350000
v 0.129748 0.075115 -0.350001
v 0.129748 0.075115 0.350000
v 0.149844 0.000115 -0.350001
v 0.149844 0.000115 0.350000
v 0.129748 -0.074885 -0.350001
v 0.129748 -0.074885 0.350000
v 0.074844 -0.129789 -0.350001
v 0.074844 -0.129789 0.350000
v -0.000156 -0.149885 -0.350001
v -0.000156 -0.149885 0.350000
v -0.075156 -0.129789 -0.350001
v -0.075156 -0.129789 0.350000
v -0.130060 -0.074885 -0.350001
v -0.130060 -0.074885 0.350000
v -0.150156 0.000115 -0.350001
v -0.150156 0.000115 0.350000
v -0.130060 0.075115 -0.350001
v -0.130060 0.075115 0.350000
v -0.075156 0.130019 -0.350001
v -0.075156 0.130019 0.350000
v -1.186684 -1.979520 -0.119399
v -1.262495 -1.902564 -0.011399
v -1.208889 -1.956980 -0.043031
v -1.292821 -1.871780 -0.011399
v -1.368632 -1.794824 -0.119399
v -1.346427 -1.817364 -0.043031
v -1.262495 -1.902564 -0.270599
v -1.186684 -1.979520 -0.162599
v -1.208889 -1.956980 -0.238966
v -1.368632 -1.794824 -0.162599
v -1.292821 -1.871780 -0.270599
v -1.346427 -1.817364 -0.238966
v -1.996197 -2.128032 0.339000
v -1.991502 -2.410836 0.339000
v -2.052420 -2.270406 0.339000
v -1.991502 -2.410836 -0.621000
v -1.996197 -2.128032 -0.621000
v -2.052420 -2.270406 -0.621000
v -1.775879 -2.619418 0.339000
v -1.493074 -2.614723 0.339000
v -1.633504 -2.675641 0.339000
v -1.493074 -2.614724 -0.621000
v -1.775879 -2.619418 -0.621000
v -1.633504 -2.675641 -0.621000
v 0.530430 -0.526235 -0.340459
v 0.510274 -0.576585 0.255000
v -0.059266 -0.014783 0.255000
v 0.510274 -0.576585 0.063000
v -0.059266 -0.014783 0.063000
v -1.842195 -2.750295 0.255000
v -1.559359 -2.748361 0.255000
v -1.752185 -2.801444 0.255000
v -1.648660 -2.800736 0.255000
v -2.128900 -2.186558 0.255000
v -2.126966 -2.469395 0.255000
v -2.180050 -2.276567 0.255000
v -2.179342 -2.380092 0.255000
v -1.842195 -2.750295 0.063000
v -1.752185 -2.801444 0.063000
v -2.126966 -2.469395 0.063000
v -2.179342 -2.380092 0.063000
v -2.180050 -2.276567 0.063000
v -1.465660 -1.910664 -0.621000
v -1.413178 -1.937606 -0.621000
v -1.366960 -1.974269 -0.621000
v -1.328783 -2.019244 -0.621000
v -1.282054 -2.126966 -0.621000
v -1.300113 -2.070804 -0.621000
v -1.512592 -2.484706 -0.621000
v -1.280105 -2.244369 -0.621000
v -1.359895 -2.399799 -0.621000
v -1.404871 -2.437977 -0.621000
v -1.323232 -2.353582 -0.621000
v -1.571198 -2.491462 -0.621000
v -1.456430 -2.466647 -0.621000
v -1.296290 -2.301099 -0.621000
v -1.575067 -2.491146 -0.621000
v -1.275297 -2.185571 -0.621000
v -1.792490 -1.981334 -0.621000
v -1.829153 -2.027551 -0.621000
v -1.747515 -1.943156 -0.621000
v -1.856095 -2.080034 -0.621000
v -1.695955 -1.914487 -0.621000
v -1.872281 -2.136764 -0.621000
v -1.870332 -2.254168 -0.621000
v -1.877088 -2.195562 -0.621000
v -1.785426 -2.406865 -0.621000
v -1.823603 -2.361888 -0.621000
v -1.852272 -2.310329 -0.621000
v -1.639794 -1.896427 -0.621000
v -1.581188 -1.889671 -0.621000
v -1.522391 -1.894479 -0.621000
v -1.739208 -2.443527 -0.621000
v -1.686726 -2.470469 -0.621000
v -1.629996 -2.486655 -0.621000
v -1.457680 -2.467049 0.339000
v -1.456430 -2.466647 0.339000
v -1.359895 -2.399799 0.339000
v -1.323232 -2.353582 0.339000
v -1.404871 -2.437977 0.339000
v -1.792490 -1.981334 0.339000
v -1.829153 -2.027551 0.339000
v -1.747515 -1.943156 0.339000
v -1.856095 -2.080034 0.339000
v -1.695955 -1.914487 0.339000
v -1.872281 -2.136764 0.339000
v -1.639794 -1.896427 0.339000
v -1.581188 -1.889671 0.339000
v -1.465660 -1.910664 0.339000
v -1.522391 -1.894479 0.339000
v -1.366960 -1.974269 0.339000
v -1.328783 -2.019244 0.339000
v -1.413178 -1.937606 0.339000
v -1.823603 -2.361888 0.339000
v -1.785426 -2.406865 0.339000
v -1.686726 -2.470469 0.339000
v -1.629996 -2.486655 0.339000
v -1.739208 -2.443527 0.339000
v -1.512592 -2.484706 0.339000
v -1.571198 -2.491462 0.339000
v -1.296290 -2.301099 0.339000
v -1.280105 -2.244369 0.339000
v -1.275297 -2.185571 0.339000
v -1.877088 -2.195562 0.339000
v -1.870332 -2.254168 0.339000
v -1.282054 -2.126966 0.339000
v -1.300113 -2.070804 0.339000
v -1.852272 -2.310329 0.339000
v -1.695955 -1.914487 0.063000
v -1.823603 -2.361888 0.063000
v -1.413178 -1.937606 0.063000
v -1.739208 -2.443527 0.063000
v -1.328783 -2.019244 0.063000
v -1.456430 -2.466647 0.063000
v -1.296290 -2.301099 0.063000
v -1.571198 -2.491462 0.063000
v -1.829153 -2.027551 0.255000
v -1.695955 -1.914487 0.255000
v -1.581188 -1.889671 0.255000
v -1.872281 -2.136764 0.255000
v -1.852272 -2.310329 0.255000
v -1.739208 -2.443527 0.255000
v -1.328783 -2.019244 0.255000
v -1.413178 -1.937606 0.255000
v -1.282054 -2.126966 0.255000
v -1.571198 -2.491462 0.255000
v -1.456430 -2.466647 0.255000
v -1.359895 -2.399799 0.255000
v -1.280105 -2.244369 0.255000
v 0.530430 -0.526235 0.059541
v 0.089969 -1.004765 0.255000
v 0.089969 -1.004765 0.063000
v -0.196173 -0.791061 -0.011399
v -0.224284 -0.763361 -0.011399
v -0.146483 -0.840025 -0.238966
v -0.125900 -0.860307 -0.119399
v -0.273975 -0.714398 -0.043031
v -0.224284 -0.763361 -0.270599
v -0.146483 -0.840025 -0.043031
v -0.125900 -0.860307 -0.162599
v -0.294557 -0.694116 -0.162599
v -0.294557 -0.694116 -0.119399
v -0.196173 -0.791061 -0.270599
v -0.273975 -0.714398 -0.238966
v 0.884781 -0.570337 0.255000
v 1.055630 -0.393647 0.255000
v 1.006784 -0.517361 0.255000
v 1.051585 -0.150017 0.255000
v 0.875092 0.016515 0.255000
v 0.998697 -0.029278 0.255000
v 1.055630 -0.393647 0.063000
v 0.884781 -0.570337 0.063000
v 1.006784 -0.517361 0.063000
v 0.875092 0.016515 0.063000
v 1.051585 -0.150017 0.063000
v 0.998697 -0.029278 0.063000
v 0.902338 -0.422377 -0.340459
v 0.806293 -0.521655 -0.340459
v 0.798317 -0.037383 -0.340459
v 0.897551 -0.132062 -0.340459
v 0.806293 -0.521655 0.059541
v 0.902338 -0.422377 0.059541
v 0.897551 -0.132062 0.059541
v 0.798317 -0.037383 0.059541
v 0.247232 -0.054192 -0.340459
v 0.074251 -0.097809 -0.340459
v 0.247232 -0.054192 0.059541
v 0.074251 -0.097809 0.059541
v -1.522391 -1.894479 0.063000
v -1.856095 -2.080034 0.063000
v -2.128900 -2.186558 0.063000
v 0.293101 -0.297471 0.044329
v 0.364217 -0.367429 -0.000905
v -0.304937 -0.691059 -0.000905
v -0.334394 -0.662081 -0.110111
v -0.093016 -0.899529 -0.110111
v -0.122474 -0.870552 -0.000905
v -0.093016 -0.899529 -0.171887
v -0.122474 -0.870552 -0.281092
v -0.193589 -0.800593 -0.326327
v 0.252870 -0.257894 0.044329
v 0.252870 -0.257894 -0.326327
v 0.181754 -0.187936 -0.281092
v -0.233821 -0.761017 -0.326327
v -0.304937 -0.691059 -0.281092
v -0.193589 -0.800593 0.044329
v -0.233821 -0.761017 0.044329
v 0.293101 -0.297471 -0.326327
v -0.334394 -0.662081 -0.171887
v 0.364217 -0.367429 -0.281092
v 0.393674 -0.396407 -0.110111
v 0.393674 -0.396407 -0.171887
v 0.181754 -0.187936 -0.000905
v 0.152297 -0.158959 -0.110111
v 0.152297 -0.158959 -0.171887
v -1.393658 -1.764800 0.339000
v -1.648927 -1.769038 0.339000
v -1.522170 -1.714051 0.339000
v -1.648927 -1.769038 -0.621000
v -1.393658 -1.764800 -0.621000
v -1.522170 -1.714051 -0.621000
v -1.145805 -2.255728 0.339000
v -1.150043 -2.000459 0.339000
v -1.095056 -2.127216 0.339000
v -1.150043 -2.000459 -0.621000
v -1.145805 -2.255728 -0.621000
v -1.095056 -2.127216 -0.621000
v -1.875737 -2.179031 0.063000
v -1.275297 -2.185571 0.063000
v -1.559359 -2.748361 0.063000
v -1.648660 -2.800736 0.063000
v -1.792490 -1.981334 0.063000
v -1.359895 -2.399799 0.063000
v 0.879936 -0.276911 0.255000
v 0.879936 -0.276911 0.063000
v 0.510274 -0.576585 -0.345000
v -0.059266 -0.014783 -0.345000
v 0.510274 -0.576585 -0.537000
v -0.059266 -0.014783 -0.537000
v -1.842195 -2.750295 -0.345000
v -1.559359 -2.748361 -0.345000
v -1.752185 -2.801444 -0.345000
v -1.648660 -2.800736 -0.345000
v -2.128900 -2.186558 -0.345000
v -2.126966 -2.469395 -0.345000
v -2.180050 -2.276567 -0.345000
v -2.179342 -2.380092 -0.345000
v -1.842195 -2.750295 -0.537000
v -1.752185 -2.801444 -0.537000
v -2.126966 -2.469395 -0.537000
v -2.179342 -2.380092 -0.537000
v -2.180050 -2.276567 -0.537000
v -1.695955 -1.914487 -0.537000
v -1.823603 -2.361888 -0.537000
v -1.413178 -1.937606 -0.537000
v -1.739208 -2.443527 -0.537000
v -1.328783 -2.019244 -0.537000
v -1.456430 -2.466647 -0.537000
v -1.296290 -2.301099 -0.537000
v -1.571198 -2.491462 -0.537000
v -1.829153 -2.027551 -0.345000
v -1.695955 -1.914487 -0.345000
v -1.581188 -1.889671 -0.345000
v -1.872281 -2.136764 -0.345000
v -1.852272 -2.310329 -0.345000
v -1.739208 -2.443527 -0.345000
v -1.328783 -2.019244 -0.345000
v -1.413178 -1.937606 -0.345000
v -1.282054 -2.126966 -0.345000
v -1.571198 -2.491462 -0.345000
v -1.456430 -2.466647 -0.345000
v -1.359895 -2.399799 -0.345000
v -1.280105 -2.244369 -0.345000
v 0.089969 -1.004765 -0.345000
v 0.089969 -1.004765 -0.537000
v 0.884781 -0.570337 -0.345000
v 1.055630 -0.393647 -0.345000
v 1.006784 -0.517361 -0.345000
v 1.051585 -0.150017 -0.345000
v 0.875092 0.016515 -0.345000
v 0.998697 -0.029278 -0.345000
v 1.055630 -0.393647 -0.537000
v 0.884781 -0.570337 -0.537000
v 1.006784 -0.517361 -0.537000
v 0.875092 0.016515 -0.537000
v 1.051585 -0.150017 -0.537000
v 0.998697 -0.029278 -0.537000
v -1.522391 -1.894479 -0.537000
v -1.856095 -2.080034 -0.537000
v -2.128900 -2.186558 -0.537000
v -1.875737 -2.179031 -0.537000
v -1.275297 -2.185571 -0.537000
v -1.559359 -2.748361 -0.537000
v -1.648660 -2.800736 -0.537000
v -1.792490 -1.981334 -0.537000
v -1.359895 -2.399799 -0.537000
v 0.879936 -0.276911 -0.345000
v 0.879936 -0.276911 -0.537000
v -1.274725 -2.244280 0.550999
v -1.317853 -2.353493 0.550999
v -1.399491 -2.437888 0.550999
v -1.507212 -2.484617 0.550999
v -1.681346 -2.470381 0.550999
v -1.780046 -2.406775 0.550999
v -1.846892 -2.310240 0.550999
v -1.871709 -2.195473 0.550999
v -1.850716 -2.079945 0.550999
v -1.787110 -1.981245 0.550999
v -1.690576 -1.914398 0.550999
v -1.575808 -1.889582 0.550999
v -1.407798 -1.937517 0.550999
v -1.323403 -2.019156 0.550999
v -1.276674 -2.126877 0.550999
v -1.274724 -2.244280 -0.705001
v -1.317852 -2.353494 -0.705001
v -1.451050 -2.466557 -0.705001
v -1.565817 -2.491373 -0.705001
v -1.681345 -2.470380 -0.705001
v -1.780046 -2.406775 -0.705001
v -1.864952 -2.254079 -0.705001
v -1.850715 -2.079945 -0.705001
v -1.787110 -1.981245 -0.705001
v -1.690575 -1.914398 -0.705001
v -1.517010 -1.894390 -0.705001
v -1.361580 -1.974180 -0.705001
v -1.276673 -2.126877 -0.705001
vt 0.241622 0.510735
vt 0.262199 0.510897
vt 0.286090 0.562227
vt 0.489608 0.005306
vt 0.412377 0.408469
vt 0.393727 0.416523
vt 0.489280 0.541730
vt 0.476932 0.554704
vt 0.467015 0.487651
vt 0.355586 0.650679
vt 0.322106 0.581599
vt 0.355325 0.581474
vt 0.355122 0.527739
vt 0.321971 0.545776
vt 0.321904 0.527865
vt 0.355189 0.545651
vt 0.322039 0.563688
vt 0.322571 0.704539
vt 0.355721 0.686502
vt 0.355789 0.704413
vt 0.322503 0.686627
vt 0.355654 0.668590
vt 0.322435 0.668716
vt 0.359014 0.718922
vt 0.466215 0.740939
vt 0.359014 0.740939
vt 0.524386 0.718922
vt 0.496445 0.740938
vt 0.496445 0.718922
vt 0.465644 0.774585
vt 0.465073 0.808231
vt 0.597839 0.740938
vt 0.554889 0.718922
vt 0.597839 0.718922
vt 0.422129 0.652351
vt 0.465644 0.685276
vt 0.466215 0.718922
vt 0.554889 0.740938
vt 0.539637 0.718922
vt 0.539637 0.740938
vt 0.481330 0.718922
vt 0.481330 0.740938
vt 0.489863 0.632665
vt 0.457290 0.585440
vt 0.489863 0.585440
vt 0.556644 0.632665
vt 0.540452 0.585440
vt 0.556644 0.585440
vt 0.506172 0.632665
vt 0.540452 0.632665
vt 0.506172 0.585440
vt 0.545275 0.644195
vt 0.590017 0.689389
vt 0.545755 0.678472
vt 0.383404 0.632665
vt 0.362342 0.585440
vt 0.383404 0.585440
vt 0.621737 0.632665
vt 0.590017 0.528716
vt 0.621737 0.585440
vt 0.545755 0.539634
vt 0.557446 0.528264
vt 0.545275 0.573910
vt 0.557446 0.689842
vt 0.387036 0.496738
vt 0.390568 0.561476
vt 0.373158 0.557269
vt 0.360184 0.544921
vt 0.459751 0.559766
vt 0.413904 0.510586
vt 0.493487 0.524320
vt 0.289409 0.496661
vt 0.303742 0.557895
vt 0.316852 0.545313
vt 0.213057 0.493957
vt 0.216178 0.560147
vt 0.199008 0.555032
vt 0.186683 0.541999
vt 0.182530 0.524541
vt 0.480205 0.713200
vt 0.485803 0.699160
vt 0.485331 0.671223
vt 0.479258 0.657233
vt 0.465073 0.651630
vt 0.479258 0.802628
vt 0.485803 0.760701
vt 0.480205 0.746661
vt 0.485331 0.788638
vt 0.353162 0.008700
vt 0.320336 0.112629
vt 0.319944 0.008825
vt 0.353554 0.112504
vt 0.351243 0.008725
vt 0.015007 0.718923
vt 0.015007 0.740939
vt 0.182530 0.004687
vt 0.263125 0.406809
vt 0.242722 0.406644
vt 0.322372 0.007743
vt 0.069176 0.510735
vt 0.089753 0.510897
vt 0.113644 0.562227
vt 0.317162 0.005306
vt 0.239931 0.408469
vt 0.221281 0.416523
vt 0.316834 0.541730
vt 0.304486 0.554704
vt 0.294569 0.487651
vt 0.183140 0.650679
vt 0.149661 0.581599
vt 0.182879 0.581474
vt 0.182676 0.527740
vt 0.149525 0.545776
vt 0.149458 0.527865
vt 0.182744 0.545651
vt 0.149593 0.563688
vt 0.150125 0.704539
vt 0.183276 0.686502
vt 0.183343 0.704413
vt 0.150057 0.686627
vt 0.183208 0.668590
vt 0.149990 0.668716
vt 0.358473 0.718923
vt 0.465674 0.740939
vt 0.358473 0.740939
vt 0.523845 0.718922
vt 0.495904 0.740938
vt 0.495904 0.718922
vt 0.465103 0.774585
vt 0.464532 0.808231
vt 0.597298 0.740938
vt 0.554348 0.718922
vt 0.597298 0.718922
vt 0.421588 0.652351
vt 0.465103 0.685276
vt 0.465674 0.718922
vt 0.554348 0.740938
vt 0.539097 0.718922
vt 0.539097 0.740938
vt 0.480789 0.718922
vt 0.480790 0.740939
vt 0.214590 0.496738
vt 0.218122 0.561476
vt 0.200712 0.557269
vt 0.187738 0.544921
vt 0.287305 0.559766
vt 0.241458 0.510587
vt 0.321041 0.524320
vt 0.116963 0.496661
vt 0.131296 0.557895
vt 0.144407 0.545313
vt 0.040612 0.493957
vt 0.043732 0.560147
vt 0.026563 0.555032
vt 0.014238 0.541999
vt 0.010084 0.524541
vt 0.479664 0.713200
vt 0.485262 0.699160
vt 0.484790 0.671223
vt 0.478717 0.657233
vt 0.464532 0.651630
vt 0.478718 0.802628
vt 0.485262 0.760701
vt 0.479664 0.746661
vt 0.484790 0.788638
vt 0.180716 0.008700
vt 0.147890 0.112629
vt 0.147498 0.008825
vt 0.181108 0.112504
vt 0.178797 0.008725
vt 0.014467 0.718923
vt 0.014467 0.740940
vt 0.010084 0.004687
vt 0.090679 0.406809
vt 0.070276 0.406644
vt 0.149926 0.007743
vt 0.041319 0.640085
vt 0.048123 0.567897
vt 0.048068 0.640090
vt 0.091856 0.640067
vt 0.088455 0.567875
vt 0.095205 0.567872
vt 0.081814 0.640078
vt 0.034570 0.640080
vt 0.041374 0.567892
vt 0.081706 0.567885
vt 0.031332 0.567879
vt 0.074957 0.567895
vt 0.024528 0.640068
vt 0.021290 0.567867
vt 0.068316 0.640098
vt 0.075065 0.640088
vt 0.017778 0.640055
vt 0.112104 0.640045
vt 0.105247 0.567862
vt 0.111996 0.567852
vt 0.061567 0.640100
vt 0.064915 0.567905
vt 0.105355 0.640055
vt 0.011247 0.567842
vt 0.054872 0.567902
vt 0.054817 0.640095
vt 0.098605 0.640065
vt 0.118745 0.567842
vt 0.118853 0.640035
vt 0.203386 0.653880
vt 0.252675 0.674297
vt 0.216271 0.718655
vt 0.247843 0.705742
vt 0.199276 0.710525
vt 0.199276 0.657175
vt 0.375498 0.480017
vt 0.474507 0.468769
vt 0.471095 0.438735
vt 0.371238 0.460154
vt 0.459557 0.422014
vt 0.379579 0.431101
vt 0.432689 0.408165
vt 0.322368 0.650804
vt 0.355257 0.563563
vt 0.524386 0.740938
vt 0.422129 0.807510
vt 0.457290 0.632665
vt 0.362342 0.632665
vt 0.642307 0.580916
vt 0.642307 0.637190
vt 0.443938 0.507174
vt 0.203707 0.479271
vt 0.301010 0.479645
vt 0.305221 0.459500
vt 0.199888 0.459461
vt 0.204282 0.437423
vt 0.300863 0.438172
vt 0.223782 0.414267
vt 0.289721 0.421211
vt 0.203053 0.480017
vt 0.302061 0.468769
vt 0.298649 0.438735
vt 0.198792 0.460154
vt 0.287111 0.422014
vt 0.207133 0.431101
vt 0.260243 0.408165
vt 0.149922 0.650804
vt 0.182811 0.563562
vt 0.523845 0.740938
vt 0.421588 0.807510
vt 0.271492 0.507174
vt 0.031261 0.479271
vt 0.128564 0.479645
vt 0.132775 0.459500
vt 0.027442 0.459461
vt 0.031836 0.437423
vt 0.128417 0.438171
vt 0.051336 0.414267
vt 0.117276 0.421211
vt 0.011029 0.640034
vt 0.186631 0.674296
vt 0.192978 0.662422
vt 0.223036 0.649972
vt 0.235920 0.653880
vt 0.246328 0.662422
vt 0.252675 0.694331
vt 0.241545 0.710989
vt 0.229670 0.717336
vt 0.197762 0.710989
vt 0.186631 0.694331
vt 0.211151 0.650828
vt 0.224551 0.649509
vt 0.237435 0.653417
vt 0.247843 0.661959
vt 0.254190 0.673833
vt 0.254190 0.693868
vt 0.237435 0.714284
vt 0.224550 0.718192
vt 0.211151 0.716872
vt 0.190735 0.700117
vt 0.186826 0.687233
vt 0.190735 0.667583
vt 0.697059 0.724178
vt 0.703175 0.779316
vt 0.697059 0.779316
vt 0.703175 0.724178
vt 0.709291 0.779316
vt 0.709291 0.724178
vt 0.715407 0.779316
vt 0.715407 0.724178
vt 0.721523 0.779316
vt 0.721523 0.724178
vt 0.727639 0.779316
vt 0.727639 0.724178
vt 0.733755 0.779316
vt 0.733755 0.724178
vt 0.739871 0.779316
vt 0.739871 0.724178
vt 0.745987 0.779316
vt 0.745987 0.724178
vt 0.752103 0.779316
vt 0.752103 0.724178
vt 0.758219 0.779316
vt 0.758219 0.724178
vt 0.764335 0.779316
vt 0.690943 0.724178
vt 0.690943 0.779316
vt 0.705414 0.793787
vt 0.685646 0.799084
vt 0.764335 0.724178
vt 0.702356 0.782374
vt 0.705414 0.787671
vt 0.702356 0.799084
vt 0.697059 0.802142
vt 0.690943 0.802142
vt 0.682588 0.793787
vt 0.682588 0.787671
vt 0.685646 0.782375
vt 0.566835 0.188397
vt 0.972358 0.174418
vt 0.972430 0.185814
vt 0.565584 0.122015
vt 0.971579 0.102075
vt 0.971813 0.122275
vt 0.565029 0.100217
vt 0.971543 0.080541
vt 0.566762 0.177004
vt 0.972183 0.152884
vt 0.566458 0.155205
vt 0.971945 0.132683
vt 0.971603 0.069150
vt 0.565316 0.045226
vt 0.971864 0.047617
vt 0.566100 0.023436
vt 0.972308 0.027420
vt 0.972549 0.227551
vt 0.566808 0.210198
vt 0.972530 0.207349
vt 0.565899 0.133407
vt 0.566533 0.012048
vt 0.564916 0.067024
vt 0.564857 0.078417
vt 0.566527 0.232001
vt 0.972549 0.017014
vt 0.232807 0.594563
vt 0.240762 0.603562
vt 0.232461 0.601632
vt 0.198973 0.580562
vt 0.209438 0.566528
vt 0.210555 0.575731
vt 0.197826 0.612659
vt 0.207263 0.627403
vt 0.191235 0.619333
vt 0.217574 0.576043
vt 0.210243 0.566457
vt 0.219474 0.566967
vt 0.057949 0.714444
vt 0.046703 0.646475
vt 0.058043 0.646457
vt 0.029269 0.714404
vt 0.040703 0.646467
vt 0.040609 0.714454
vt 0.018631 0.714308
vt 0.029363 0.646417
vt 0.068587 0.714377
vt 0.068682 0.646391
vt 0.096047 0.714255
vt 0.102141 0.646276
vt 0.102047 0.714263
vt 0.084706 0.714272
vt 0.074163 0.646352
vt 0.084801 0.646286
vt 0.013150 0.714255
vt 0.018725 0.646321
vt 0.113481 0.646325
vt 0.113387 0.714312
vt 0.096141 0.646268
vt 0.074068 0.714339
vt 0.046609 0.714462
vt 0.124119 0.646422
vt 0.124025 0.714408
vt 0.228709 0.581829
vt 0.241256 0.593453
vt 0.235398 0.575242
vt 0.227141 0.613906
vt 0.216500 0.627796
vt 0.215494 0.618578
vt 0.185140 0.601200
vt 0.193564 0.599979
vt 0.193817 0.592905
vt 0.185502 0.591086
vt 0.192875 0.573434
vt 0.209034 0.618303
vt 0.233155 0.621113
vt 0.211118 0.575686
vt 0.013244 0.646268
vt 0.210617 0.819606
vt 0.118606 0.996451
vt 0.118606 0.819606
vt 0.316598 0.638264
vt 0.295815 0.658845
vt 0.291751 0.641371
vt 0.062210 0.819606
vt 0.006945 0.996451
vt 0.006945 0.819605
vt 0.267978 0.641369
vt 0.273802 0.643137
vt 0.315475 0.638254
vt 0.285919 0.643221
vt 0.291742 0.641452
vt 0.243029 0.638456
vt 0.243338 0.586724
vt 0.249404 0.606719
vt 0.523274 0.996451
vt 0.495075 0.819605
vt 0.523274 0.819605
vt 0.495075 0.996451
vt 0.466877 0.819605
vt 0.090408 0.996451
vt 0.062210 0.996451
vt 0.090408 0.819606
vt 0.323961 0.819606
vt 0.261522 0.996451
vt 0.261522 0.819606
vt 0.244234 0.638171
vt 0.244241 0.586658
vt 0.249416 0.606634
vt 0.250272 0.652759
vt 0.262611 0.638499
vt 0.264856 0.658808
vt 0.254048 0.629934
vt 0.257908 0.634638
vt 0.349414 0.996451
vt 0.323961 0.996451
vt 0.349414 0.819605
vt 0.374867 0.996451
vt 0.236070 0.996451
vt 0.210617 0.996451
vt 0.236069 0.819606
vt 0.466877 0.996451
vt 0.294873 0.658884
vt 0.267968 0.641461
vt 0.273800 0.643230
vt 0.309443 0.652836
vt 0.262585 0.638580
vt 0.263919 0.658955
vt 0.249275 0.653010
vt 0.253970 0.629908
vt 0.257859 0.634689
vt 0.248790 0.573597
vt 0.267994 0.584120
vt 0.262630 0.586983
vt 0.257926 0.590834
vt 0.310013 0.573608
vt 0.308528 0.600913
vt 0.305660 0.595550
vt 0.316413 0.586632
vt 0.310337 0.618753
vt 0.310925 0.612692
vt 0.291735 0.584013
vt 0.310960 0.573486
vt 0.297807 0.568042
vt 0.262615 0.586884
vt 0.249695 0.573494
vt 0.262859 0.568042
vt 0.273803 0.582250
vt 0.267981 0.584016
vt 0.257911 0.590744
vt 0.297127 0.638494
vt 0.301533 0.634870
vt 0.310444 0.652850
vt 0.285921 0.643141
vt 0.279861 0.643735
vt 0.297106 0.638584
vt 0.301808 0.634724
vt 0.250949 0.624158
vt 0.251132 0.624484
vt 0.254062 0.595528
vt 0.251184 0.600892
vt 0.249389 0.618838
vt 0.248796 0.612795
vt 0.251180 0.624567
vt 0.254051 0.595447
vt 0.251183 0.600812
vt 0.249414 0.618744
vt 0.248819 0.612689
vt 0.374867 0.819605
vt 0.279861 0.643821
vt 0.261929 0.568160
vt 0.273814 0.582357
vt 0.296856 0.568160
vt 0.315465 0.586765
vt 0.305666 0.630021
vt 0.308532 0.624657
vt 0.279865 0.581764
vt 0.310296 0.618837
vt 0.310891 0.612784
vt 0.285917 0.582360
vt 0.291737 0.584125
vt 0.310294 0.606732
vt 0.297100 0.586992
vt 0.301801 0.590850
vt 0.297102 0.586875
vt 0.301886 0.634594
vt 0.305612 0.630063
vt 0.301807 0.590729
vt 0.305671 0.595429
vt 0.308548 0.624621
vt 0.308545 0.600796
vt 0.310320 0.606625
vt 0.285913 0.582248
vt 0.279858 0.581653
vn -0.0000 -0.0000 1.0000
vn 0.7071 0.7071 -0.0000
vn 0.9659 0.2588 -0.0000
vn -0.2588 0.9659 -0.0000
vn 0.2588 0.9659 -0.0000
vn -0.9659 0.2588 -0.0000
vn -0.7071 0.7071 -0.0000
vn 0.9659 -0.2588 -0.0000
vn 0.7071 -0.7071 -0.0000
vn -0.7071 -0.7071 -0.0000
vn -0.9659 -0.2588 -0.0000
vn 0.2588 -0.9659 -0.0000
vn -0.2588 -0.9659 -0.0000
vn -0.0000 -0.0000 -1.0000
vn -0.7892 -0.6142 -0.0000
vn -0.6033 -0.7975 -0.0000
vn 0.6224 -0.7827 -0.0000
vn 0.2654 -0.9641 -0.0000
vn 0.0068 -1.0000 -0.0000
vn -0.4941 -0.8694 -0.0000
vn -0.8027 0.5964 -0.0000
vn -0.9677 0.2522 -0.0000
vn -1.0000 -0.0068 -0.0000
vn -0.8626 -0.5059 -0.0000
vn -0.0335 0.9994 -0.0000
vn 0.1600 0.9871 -0.0000
vn 0.9839 -0.1788 -0.0000
vn 0.9770 0.2131 -0.0000
vn 0.0167 -0.9999 -0.0000
vn 0.2116 -0.9774 -0.0000
vn 0.3983 -0.9173 -0.0000
vn 0.9301 -0.3672 -0.0000
vn 0.9160 0.4012 -0.0000
vn 0.3474 0.9377 -0.0000
vn 0.0166 -0.9999 -0.0000
vn 0.6903 0.7235 -0.0000
vn 0.7187 -0.6953 -0.0000
vn 0.9999 0.0165 -0.0000
vn -0.2445 0.9697 -0.0000
vn -0.1383 0.9904 -0.0000
vn -0.0305 0.9995 -0.0000
vn -0.6846 -0.7289 -0.0000
vn 0.7136 -0.7005 -0.0000
vn 0.7201 -0.6939 -0.0000
vn -0.7239 0.6899 -0.0000
vn -0.3980 0.9174 -0.0000
vn -0.7187 0.6953 -0.0000
vn 0.1646 -0.9863 0.0067
vn 0.0151 -0.9999 -0.0019
vn 0.4412 -0.8974 -0.0067
vn -0.3240 -0.9461 0.0044
vn 0.0296 0.9996 0.0042
vn -0.3552 0.9348 -0.0044
vn -0.3673 -0.9301 -0.0000
vn 0.1788 0.9838 -0.0087
vn -0.7277 -0.6859 -0.0044
vn 0.5010 0.8654 0.0063
vn 0.6952 0.7187 -0.0091
vn -0.9168 -0.3993 0.0019
vn -0.6953 -0.7187 -0.0000
vn 0.8230 0.5681 0.0019
vn 0.8147 -0.5799 -0.0044
vn -0.9999 -0.0151 0.0019
vn -0.9774 -0.2113 -0.0091
vn 0.8406 -0.5417 -0.0000
vn 0.9666 0.2562 -0.0044
vn -0.9461 0.3240 -0.0044
vn -0.9301 0.3673 -0.0000
vn 0.5705 -0.8213 0.0019
vn 0.9774 0.2113 -0.0000
vn -0.0001 -0.0000 1.0000
vn -0.7025 0.6844 -0.1951
vn -0.7040 0.6870 0.1798
vn -0.7040 0.6870 -0.1798
vn 0.1442 -0.1372 0.9800
vn 0.2973 -0.2852 0.9112
vn 0.1512 -0.1451 0.9778
vn 0.6708 -0.6359 0.3816
vn 0.7133 -0.6772 0.1808
vn 0.6777 -0.6446 0.3539
vn -0.7025 0.6844 0.1950
vn -0.6692 0.6529 0.3549
vn -0.2762 0.2663 0.9235
vn -0.1521 0.1478 0.9772
vn -0.2961 0.2879 0.9107
vn 0.7133 -0.6772 -0.1809
vn 0.6708 -0.6359 -0.3816
vn 0.6777 -0.6446 -0.3539
vn 0.2973 -0.2852 -0.9112
vn 0.1442 -0.1372 -0.9800
vn 0.1512 -0.1451 -0.9778
vn -0.1522 0.1479 -0.9772
vn -0.2762 0.2663 -0.9235
vn -0.2961 0.2879 -0.9107
vn -0.6692 0.6529 -0.3549
vn -0.1382 0.1333 0.9814
vn -0.1383 0.1333 -0.9814
vn 0.7120 -0.6748 -0.1942
vn 0.7120 -0.6748 0.1942
vn 0.2774 -0.2638 0.9238
vn -0.6624 0.6441 0.3827
vn 0.7133 -0.6772 -0.1805
vn 0.6708 -0.6360 -0.3815
vn 0.2774 -0.2638 -0.9238
vn -0.1520 0.1477 -0.9773
vn -0.2763 0.2664 -0.9234
vn -0.6624 0.6441 -0.3827
vn 0.3980 -0.9174 -0.0000
vn 0.5693 -0.8221 -0.0000
vn -0.5417 -0.8406 -0.0000
vn -0.8221 -0.5693 -0.0000
vn 0.9301 -0.3673 -0.0000
vn -0.9174 -0.3980 -0.0000
vn 0.9174 0.3980 -0.0000
vn -0.8406 0.5417 -0.0000
vn 0.8221 0.5693 -0.0000
vn 0.5417 0.8406 -0.0000
vn -0.5693 0.8221 -0.0000
vn 0.3673 0.9301 -0.0000
vn -0.7642 -0.6447 0.0168
vn -0.7643 -0.6447 -0.0169
vn -0.7642 -0.6447 -0.0168
vn -0.6510 -0.7568 0.0590
vn -0.6858 -0.7226 0.0870
vn -0.6850 -0.7233 0.0868
vn -0.6510 -0.7568 -0.0590
vn -0.6858 -0.7226 -0.0870
vn -0.6529 -0.7549 -0.0617
vn -0.7129 -0.6960 0.0862
vn -0.7115 -0.6974 0.0861
vn 0.6722 -0.6503 0.3539
vn 0.7070 -0.6839 0.1800
vn 0.6722 -0.6503 -0.3539
vn 0.7070 -0.6839 -0.1800
vn 0.7070 -0.6840 -0.1797
vn 0.1528 -0.1477 -0.9772
vn 0.2968 -0.2871 -0.9107
vn 0.1526 -0.1476 0.9772
vn 0.2968 -0.2871 0.9107
vn 0.1511 -0.1461 0.9777
vn -0.7070 0.6839 0.1800
vn -0.7070 0.6840 -0.1797
vn -0.7070 0.6840 -0.1799
vn -0.2968 0.2871 0.9107
vn -0.1526 0.1476 0.9772
vn -0.1511 0.1461 -0.9777
vn 0.1511 -0.1461 -0.9777
vn 0.1525 -0.1475 -0.9772
vn -0.7070 0.6839 -0.1802
vn -0.6722 0.6503 -0.3539
vn -0.6722 0.6503 0.3539
vn -0.7070 0.6840 0.1797
vn -0.1511 0.1461 0.9777
vn 0.7070 -0.6840 0.1797
vn -0.2968 0.2871 -0.9107
vn -0.1526 0.1476 -0.9772
vn -0.7449 -0.6647 0.0573
vn -0.7643 -0.6447 0.0169
vn -0.7429 -0.6668 0.0598
vn -0.7449 -0.6647 -0.0573
vn -0.7115 -0.6974 -0.0861
vn -0.7129 -0.6960 -0.0862
vn -0.6291 -0.7771 -0.0177
vn -0.6291 -0.7771 -0.0178
vn -0.6291 -0.7771 0.0178
vn -0.6291 -0.7771 0.0177
vn -0.6529 -0.7549 0.0617
vn -0.6850 -0.7233 -0.0868
vn -0.7429 -0.6668 -0.0598
vn 0.0014 0.0014 -1.0000
usemtl SpacialRoverExploreralumWhite
f 134/1/14 136/2/14 62/3/14
f 51/4/1 147/5/1 149/6/1
f 60/7/1 61/8/1 144/9/1
f 59/10/15 62/11/16 54/12/16
f 55/13/17 235/14/18 234/15/17
f 57/16/18 63/17/19 235/14/18
f 63/17/20 54/12/16 62/11/16
f 195/18/21 60/19/22 58/20/21
f 66/21/22 61/22/23 60/19/22
f 65/23/24 59/10/15 61/22/24
f 51/24/25 178/25/26 53/26/25
f 170/27/27 179/28/28 172/29/28
f 53/26/14 239/30/14 176/31/14
f 52/32/29 169/33/30 50/34/29
f 50/35/1 238/36/1 173/37/1
f 176/38/30 171/39/31 169/33/30
f 177/40/32 170/27/27 171/39/32
f 179/28/28 174/41/33 172/29/28
f 180/42/34 173/37/26 174/41/34
f 185/43/35 49/44/35 182/45/35
f 188/46/36 184/47/36 183/48/36
f 182/45/37 186/49/37 185/43/37
f 187/50/38 181/51/38 184/47/38
f 187/52/1 154/53/1 186/54/1
f 192/55/39 189/56/40 190/57/39
f 183/48/41 191/58/40 188/46/41
f 49/44/42 192/55/42 190/57/42
f 49/59/14 189/60/14 183/48/14
f 49/59/14 181/61/14 182/62/14
f 184/63/14 49/59/14 183/48/14
f 181/61/14 49/59/14 184/63/14
f 186/54/1 154/53/1 185/64/1
f 154/53/1 187/52/1 188/46/1
f 191/58/1 154/53/1 188/46/1
f 150/65/1 54/66/1 56/67/1
f 56/67/1 57/68/1 150/65/1
f 55/13/1 150/65/1 57/68/1
f 59/69/1 150/65/1 146/70/1
f 144/9/1 58/71/1 60/7/1
f 144/9/1 61/8/1 59/69/1
f 62/3/14 140/72/14 63/73/14
f 63/73/14 140/72/14 235/74/14
f 232/75/14 64/76/14 65/77/14
f 66/78/14 195/79/14 232/75/14
f 65/77/14 66/78/14 232/75/14
f 140/72/14 234/15/14 235/74/14
f 173/37/1 238/36/1 174/80/1
f 174/80/1 238/36/1 172/81/1
f 172/81/1 238/36/1 170/82/1
f 171/83/1 238/36/1 169/84/1
f 170/82/1 238/36/1 171/83/1
f 176/31/14 239/30/14 177/85/14
f 179/86/14 239/30/14 180/87/14
f 180/87/14 239/30/14 178/25/14
f 177/85/14 239/30/14 175/88/14
f 175/88/14 239/30/14 179/86/14
f 50/89/43 156/90/44 52/91/43
f 51/4/1 155/92/1 50/93/1
f 155/92/44 234/15/17 156/90/44
f 58/94/21 53/26/45 195/95/21
f 53/96/14 137/97/14 135/98/14
f 156/90/14 53/96/14 52/99/14
f 258/100/14 260/101/14 252/102/14
f 241/103/1 271/104/1 273/105/1
f 250/106/1 251/107/1 268/108/1
f 249/109/15 252/110/16 244/111/16
f 245/112/17 298/113/18 297/114/17
f 247/115/18 253/116/19 298/113/18
f 253/116/20 244/111/16 252/110/16
f 294/117/21 250/118/22 248/119/21
f 256/120/22 251/121/23 250/118/22
f 255/122/24 249/109/15 251/121/24
f 241/123/25 289/124/26 243/125/25
f 281/126/27 290/127/28 283/128/28
f 243/125/14 302/129/14 287/130/14
f 242/131/29 280/132/30 240/133/29
f 240/134/1 301/135/1 284/136/1
f 287/137/30 282/138/31 280/132/30
f 288/139/32 281/126/27 282/138/32
f 290/127/28 285/140/33 283/128/28
f 291/141/34 284/136/26 285/140/34
f 274/142/1 244/143/1 246/144/1
f 246/144/1 247/145/1 274/142/1
f 245/112/1 274/142/1 247/145/1
f 249/146/1 274/142/1 270/147/1
f 268/108/1 248/148/1 250/106/1
f 268/108/1 251/107/1 249/146/1
f 252/102/14 264/149/14 253/150/14
f 253/150/14 264/149/14 298/151/14
f 295/152/14 254/153/14 255/154/14
f 256/155/14 294/156/14 295/152/14
f 255/154/14 256/155/14 295/152/14
f 264/149/14 297/114/14 298/151/14
f 284/136/1 301/135/1 285/157/1
f 285/157/1 301/135/1 283/158/1
f 283/158/1 301/135/1 281/159/1
f 282/160/1 301/135/1 280/161/1
f 281/159/1 301/135/1 282/160/1
f 287/130/14 302/129/14 288/162/14
f 290/163/14 302/129/14 291/164/14
f 291/164/14 302/129/14 289/124/14
f 288/162/14 302/129/14 286/165/14
f 286/165/14 302/129/14 290/163/14
f 240/166/43 279/167/44 242/168/43
f 241/103/1 278/169/1 240/170/1
f 278/169/44 297/114/17 279/167/44
f 248/171/21 243/125/45 294/172/21
f 243/173/14 261/174/14 259/175/14
f 279/167/14 243/173/14 242/176/14
f 313/177/46 326/178/47 312/179/47
f 306/180/48 321/181/49 320/182/50
f 306/180/48 307/183/51 321/181/49
f 313/177/46 314/184/52 327/185/53
f 307/183/51 322/186/54 321/181/49
f 314/184/52 328/187/55 327/185/53
f 307/183/51 323/188/56 322/186/54
f 314/184/52 315/189/57 328/187/55
f 315/189/57 329/190/58 328/187/55
f 309/191/59 323/188/56 308/192/60
f 315/189/57 316/193/61 329/190/58
f 303/194/27 319/195/62 318/196/27
f 309/191/59 310/197/63 324/198/64
f 303/194/27 304/199/65 319/195/62
f 316/193/61 330/200/66 329/190/58
f 310/197/63 325/201/67 324/198/64
f 310/197/63 311/202/68 325/201/67
f 305/203/69 319/195/62 304/199/65
f 303/194/27 330/204/66 317/205/70
f 312/179/47 325/201/67 311/202/68
f 305/203/69 306/180/48 320/182/50
f 319/206/14 323/207/14 327/208/14
f 313/209/1 309/210/1 305/211/1
f 62/3/14 64/76/14 232/75/14
f 62/3/14 232/75/14 134/1/14
f 136/2/14 140/72/14 62/3/14
f 151/212/1 150/65/1 55/13/1
f 58/71/1 144/9/1 141/213/1
f 58/71/1 141/213/1 142/214/1
f 152/215/1 151/212/1 55/13/1
f 152/215/1 55/13/1 155/92/1
f 51/4/1 58/71/1 142/214/1
f 51/4/1 142/214/1 143/216/1
f 152/215/1 155/92/1 51/4/1
f 153/217/1 152/215/1 51/4/1
f 51/4/1 143/216/1 148/218/1
f 51/4/1 148/218/1 147/5/1
f 149/6/1 153/217/1 51/4/1
f 59/10/15 64/219/15 62/11/16
f 55/13/17 57/16/18 235/14/18
f 57/16/18 56/220/19 63/17/19
f 63/17/20 56/220/20 54/12/16
f 195/18/21 66/21/22 60/19/22
f 66/21/22 65/23/23 61/22/23
f 65/23/24 64/219/15 59/10/15
f 51/24/25 173/37/26 178/25/26
f 170/27/27 175/221/27 179/28/28
f 176/31/14 52/222/14 53/26/14
f 53/26/14 178/25/14 239/30/14
f 52/32/29 176/38/30 169/33/30
f 173/37/1 51/24/1 50/35/1
f 50/35/1 169/84/1 238/36/1
f 176/38/30 177/40/31 171/39/31
f 177/40/32 175/221/27 170/27/27
f 179/28/28 180/42/33 174/41/33
f 180/42/34 178/25/26 173/37/26
f 185/43/35 154/223/35 49/44/35
f 188/46/36 187/50/36 184/47/36
f 182/45/37 181/51/37 186/49/37
f 187/50/38 186/49/38 181/51/38
f 192/55/39 191/224/40 189/56/40
f 183/48/41 189/60/40 191/58/40
f 49/44/42 154/223/42 192/55/42
f 49/59/14 190/225/14 189/60/14
f 191/58/1 192/226/1 154/53/1
f 145/227/1 144/9/1 59/69/1
f 59/69/1 54/66/1 150/65/1
f 146/70/1 145/227/1 59/69/1
f 50/89/43 155/92/44 156/90/44
f 155/92/44 55/13/17 234/15/17
f 58/94/21 51/24/45 53/26/45
f 194/228/14 232/75/14 195/79/14
f 234/15/14 140/72/14 138/229/14
f 234/15/14 138/229/14 237/230/14
f 236/231/14 194/228/14 195/79/14
f 133/232/14 236/231/14 195/79/14
f 156/90/14 234/15/14 237/230/14
f 156/90/14 237/230/14 139/233/14
f 133/232/14 195/79/14 53/96/14
f 193/234/14 133/232/14 53/96/14
f 53/96/14 156/90/14 139/233/14
f 53/96/14 139/233/14 233/235/14
f 135/98/14 193/234/14 53/96/14
f 53/96/14 233/235/14 137/97/14
f 252/102/14 254/153/14 295/152/14
f 252/102/14 295/152/14 258/100/14
f 260/101/14 264/149/14 252/102/14
f 275/236/1 274/142/1 245/112/1
f 248/148/1 268/108/1 265/237/1
f 248/148/1 265/237/1 266/238/1
f 276/239/1 275/236/1 245/112/1
f 276/239/1 245/112/1 278/169/1
f 241/103/1 248/148/1 266/238/1
f 241/103/1 266/238/1 267/240/1
f 276/239/1 278/169/1 241/103/1
f 277/241/71 276/239/1 241/103/1
f 241/103/1 267/240/1 272/242/1
f 241/103/1 272/242/1 271/104/1
f 273/105/1 277/241/71 241/103/1
f 249/109/15 254/243/15 252/110/16
f 245/112/17 247/115/18 298/113/18
f 247/115/18 246/244/19 253/116/19
f 253/116/20 246/244/20 244/111/16
f 294/117/21 256/120/22 250/118/22
f 256/120/22 255/122/23 251/121/23
f 255/122/24 254/243/15 249/109/15
f 241/123/25 284/136/26 289/124/26
f 281/126/27 286/245/27 290/127/28
f 287/130/14 242/246/14 243/125/14
f 243/125/14 289/124/14 302/129/14
f 242/131/29 287/137/30 280/132/30
f 284/136/1 241/123/1 240/134/1
f 240/134/1 280/161/1 301/135/1
f 287/137/30 288/139/31 282/138/31
f 288/139/32 286/245/27 281/126/27
f 290/127/28 291/141/33 285/140/33
f 291/141/34 289/124/26 284/136/26
f 269/247/1 268/108/1 249/146/1
f 249/146/1 244/143/1 274/142/1
f 270/147/1 269/247/1 249/146/1
f 240/166/43 278/169/44 279/167/44
f 278/169/44 245/112/17 297/114/17
f 248/171/21 241/123/45 243/125/45
f 293/248/14 295/152/14 294/156/14
f 297/114/14 264/149/14 262/249/14
f 297/114/14 262/249/14 300/250/14
f 299/251/14 293/248/14 294/156/14
f 257/252/14 299/251/14 294/156/14
f 279/167/14 297/114/14 300/250/14
f 279/167/14 300/250/14 263/253/14
f 257/252/14 294/156/14 243/173/14
f 292/254/14 257/252/14 243/173/14
f 243/173/14 279/167/14 263/253/14
f 243/173/14 263/253/14 296/255/14
f 259/175/14 292/254/14 243/173/14
f 243/173/14 296/255/14 261/174/14
f 313/177/46 327/185/53 326/178/47
f 307/183/51 308/192/60 323/188/56
f 309/191/59 324/198/64 323/188/56
f 316/193/61 317/256/70 330/200/66
f 305/203/69 320/182/50 319/195/62
f 303/194/27 318/196/27 330/204/66
f 312/179/47 326/178/47 325/201/67
f 330/257/14 318/258/14 319/206/14
f 319/206/14 320/259/14 321/260/14
f 321/260/14 322/261/14 323/207/14
f 323/207/14 324/262/14 325/263/14
f 325/263/14 326/264/14 327/208/14
f 327/208/14 328/265/14 329/266/14
f 329/266/14 330/257/14 319/206/14
f 319/206/14 321/260/14 323/207/14
f 323/207/14 325/263/14 327/208/14
f 327/208/14 329/266/14 319/206/14
f 304/267/1 303/268/1 317/269/1
f 317/269/1 316/270/1 315/271/1
f 315/271/1 314/272/1 313/209/1
f 313/209/1 312/273/1 311/274/1
f 311/274/1 310/275/1 309/210/1
f 309/210/1 308/276/1 307/277/1
f 307/277/1 306/278/1 305/211/1
f 305/211/1 304/267/1 317/269/1
f 317/269/1 315/271/1 313/209/1
f 313/209/1 311/274/1 309/210/1
f 309/210/1 307/277/1 305/211/1
f 305/211/1 317/269/1 313/209/1
usemtl SpacialRoverExploreralumGray
f 2/279/5 3/280/5 1/281/5
f 4/282/2 5/283/2 3/280/2
f 6/284/3 7/285/3 5/283/3
f 8/286/8 9/287/8 7/285/8
f 10/288/9 11/289/9 9/287/9
f 12/290/12 13/291/12 11/289/12
f 14/292/13 15/293/13 13/291/13
f 16/294/10 17/295/10 15/293/10
f 18/296/11 19/297/11 17/295/11
f 20/298/6 21/299/6 19/297/6
f 22/300/7 23/301/7 21/299/7
f 24/302/4 1/281/4 23/303/4
f 7/304/14 15/305/14 23/303/14
f 2/279/5 4/282/5 3/280/5
f 4/282/2 6/284/2 5/283/2
f 6/284/3 8/286/3 7/285/3
f 8/286/8 10/288/8 9/287/8
f 10/288/9 12/290/9 11/289/9
f 12/290/12 14/292/12 13/291/12
f 14/292/13 16/294/13 15/293/13
f 16/294/10 18/296/10 17/295/10
f 18/296/11 20/298/11 19/297/11
f 20/298/6 22/300/6 21/299/6
f 22/300/7 24/306/7 23/301/7
f 24/302/4 2/279/4 1/281/4
f 23/303/14 1/281/14 3/307/14
f 3/307/14 5/308/14 7/304/14
f 7/304/14 9/309/14 11/310/14
f 11/310/14 13/311/14 15/305/14
f 15/305/14 17/312/14 19/313/14
f 19/313/14 21/314/14 15/305/14
f 21/314/14 23/303/14 15/305/14
f 23/303/14 3/307/14 7/304/14
f 7/304/14 11/310/14 15/305/14
f 34/315/72 166/316/73 165/317/74
f 26/318/75 163/319/76 157/320/77
f 27/321/78 160/322/79 163/319/80
f 29/323/81 161/324/82 166/316/73
f 30/325/83 158/326/84 161/324/85
f 164/327/86 33/328/87 159/329/88
f 159/329/89 31/330/90 167/331/91
f 162/332/92 36/333/93 168/334/94
f 168/334/95 34/315/72 165/317/74
f 28/335/96 157/320/77 158/326/84
f 35/336/97 167/331/91 31/330/90
f 32/337/98 160/322/79 25/338/99
f 34/315/72 29/323/81 166/316/73
f 26/318/75 27/321/100 163/319/76
f 27/321/78 25/338/99 160/322/79
f 29/323/81 30/325/101 161/324/82
f 30/325/83 28/335/96 158/326/84
f 164/327/102 32/337/98 33/328/103
f 159/329/89 33/328/104 31/330/90
f 162/332/105 35/339/97 36/333/106
f 168/334/95 36/333/107 34/315/72
f 28/335/96 26/318/75 157/320/77
f 35/336/97 162/340/105 167/331/91
f 32/337/98 164/327/102 160/322/79
usemtl SpacialRoverExploreralumBlack
f 164/341/120 200/342/121 160/343/122
f 168/344/123 208/345/124 162/346/125
f 161/347/126 211/348/127 198/349/128
f 167/350/129 208/351/124 204/352/130
f 201/353/131 215/354/132 197/355/131
f 203/356/133 216/357/134 202/358/135
f 204/359/136 214/360/137 203/356/137
f 210/361/138 197/355/139 196/362/140
f 199/363/141 219/364/142 213/365/143
f 198/366/144 205/367/145 217/368/144
f 208/369/146 212/370/147 204/359/148
f 213/365/149 207/371/150 209/372/150
f 199/363/141 217/368/151 218/373/152
f 211/374/153 196/362/140 205/367/145
f 202/358/135 215/354/132 200/375/154
f 209/372/155 206/376/156 208/377/146
f 159/378/157 202/379/158 164/341/120
f 159/378/157 204/352/130 203/380/159
f 163/381/160 210/382/161 157/383/162
f 161/347/126 199/384/163 166/385/164
f 165/386/165 199/384/163 213/387/166
f 168/344/123 213/387/166 209/388/167
f 157/383/162 211/348/127 158/389/168
f 163/381/160 200/342/121 201/390/169
f 164/341/120 202/379/158 200/342/121
f 168/344/123 209/388/167 208/345/124
f 161/347/126 158/389/168 211/348/127
f 167/350/129 162/391/125 208/351/124
f 201/353/131 200/375/154 215/354/132
f 203/356/133 214/360/133 216/357/134
f 204/359/148 212/370/147 214/360/137
f 210/361/138 201/353/139 197/355/139
f 199/363/141 218/373/152 219/364/142
f 198/366/144 211/374/153 205/367/145
f 208/369/146 206/392/156 212/370/147
f 213/365/143 219/364/142 207/371/150
f 199/363/141 198/366/151 217/368/151
f 211/374/153 210/361/138 196/362/140
f 202/358/135 216/357/134 215/354/132
f 209/372/155 207/371/155 206/376/156
f 159/378/157 203/380/159 202/379/158
f 159/378/157 167/350/129 204/352/130
f 163/381/160 201/390/169 210/382/161
f 161/347/126 198/349/128 199/384/163
f 165/386/165 166/385/164 199/384/163
f 168/344/123 165/386/165 213/387/166
f 157/383/162 210/382/161 211/348/127
f 163/381/160 160/343/122 200/342/121
usemtl SpacialRoverExploreralumGrayDeep
f 230/393/65 44/394/109 46/395/109
f 46/396/14 47/397/14 98/398/14
f 47/399/110 38/400/111 40/401/111
f 47/397/14 93/402/14 92/403/14
f 37/404/1 118/405/1 132/406/1
f 44/407/1 226/408/1 103/409/1
f 38/410/111 42/411/113 40/412/111
f 39/413/68 41/414/115 42/411/68
f 47/399/110 45/415/54 43/416/110
f 48/417/108 44/394/109 45/415/108
f 224/418/117 227/419/116 229/420/116
f 41/421/14 223/422/14 85/423/14
f 42/424/14 89/425/14 40/426/14
f 42/424/14 88/427/14 90/428/14
f 224/418/117 222/429/119 220/430/117
f 225/431/46 221/432/118 222/429/46
f 230/393/65 228/433/112 226/434/65
f 231/435/114 227/419/116 228/433/114
f 221/432/118 41/414/115 37/436/115
f 38/437/1 120/438/1 122/439/1
f 38/437/1 118/405/1 39/440/1
f 121/441/1 43/442/1 45/443/1
f 44/407/1 123/444/1 124/445/1
f 228/446/1 131/447/1 130/448/1
f 228/446/1 127/449/1 226/408/1
f 222/450/1 109/451/1 111/452/1
f 230/453/14 76/454/14 75/455/14
f 230/453/14 72/456/14 231/457/14
f 72/456/14 229/458/14 231/457/14
f 96/459/14 225/460/14 224/461/14
f 229/458/14 68/462/14 67/463/170
f 95/464/14 225/460/14 96/459/14
f 230/393/65 226/434/65 44/394/109
f 99/465/14 81/466/14 46/396/14
f 46/396/14 48/467/14 47/397/14
f 47/397/14 97/468/14 98/398/14
f 98/398/14 99/465/14 46/396/14
f 47/399/110 43/416/110 38/400/111
f 91/469/14 97/468/14 47/397/14
f 47/397/14 40/426/14 89/425/14
f 47/397/14 89/425/14 93/402/14
f 92/403/14 91/469/14 47/397/14
f 129/470/1 128/471/1 37/404/1
f 37/404/1 39/440/1 118/405/1
f 132/406/1 129/470/1 37/404/1
f 101/472/1 100/473/1 44/407/1
f 226/408/1 127/449/1 126/474/1
f 226/408/1 126/474/1 125/475/1
f 104/476/1 101/472/1 44/407/1
f 102/477/1 104/476/1 44/407/1
f 226/408/1 125/475/1 103/409/1
f 103/409/1 102/477/1 44/407/1
f 38/410/111 39/413/113 42/411/113
f 39/413/68 37/436/115 41/414/115
f 47/399/110 48/417/54 45/415/54
f 48/417/108 46/395/109 44/394/109
f 224/418/117 220/430/117 227/419/116
f 86/478/14 88/427/14 41/421/14
f 223/422/14 95/464/14 94/479/14
f 223/422/14 94/479/14 87/480/14
f 84/481/14 86/478/14 41/421/14
f 83/482/14 84/481/14 41/421/14
f 223/422/14 87/480/14 85/423/14
f 85/423/14 83/482/14 41/421/14
f 90/428/14 89/425/14 42/424/14
f 42/424/14 41/421/14 88/427/14
f 224/418/117 225/431/119 222/429/119
f 225/431/46 223/483/118 221/432/118
f 230/393/65 231/435/112 228/433/112
f 231/435/114 229/420/116 227/419/116
f 221/432/118 223/483/118 41/414/115
f 119/484/1 118/405/1 38/437/1
f 38/437/1 43/442/1 121/441/1
f 38/437/1 121/441/1 120/438/1
f 122/439/1 119/484/1 38/437/1
f 121/441/1 45/443/1 44/407/1
f 44/407/1 100/473/1 123/444/1
f 124/445/1 121/441/1 44/407/1
f 130/448/1 127/449/1 228/446/1
f 228/446/1 227/485/1 131/447/1
f 116/486/1 131/447/1 227/485/1
f 227/485/1 220/487/1 222/450/1
f 222/450/1 221/488/1 37/404/1
f 37/404/1 128/471/1 110/489/1
f 37/404/1 110/489/1 108/490/1
f 116/486/1 227/485/1 222/450/1
f 115/491/1 116/486/1 222/450/1
f 37/404/1 108/490/1 106/492/1
f 37/404/1 106/492/1 105/493/1
f 117/494/1 115/491/1 222/450/1
f 113/495/1 117/494/1 222/450/1
f 222/450/1 37/404/1 105/493/1
f 222/450/1 105/493/1 107/496/1
f 114/497/1 113/495/1 222/450/1
f 112/498/1 114/497/1 222/450/1
f 222/450/1 107/496/1 109/451/1
f 111/452/1 112/498/1 222/450/1
f 71/499/14 72/456/14 230/453/14
f 46/396/14 81/466/14 78/500/14
f 46/396/14 78/500/14 73/501/14
f 82/502/14 71/499/14 230/453/14
f 74/503/14 82/502/14 230/453/14
f 46/396/14 73/501/14 79/504/14
f 46/396/14 79/504/14 76/454/14
f 80/505/14 74/503/14 230/453/14
f 77/506/14 80/505/14 230/453/14
f 230/453/14 46/396/14 76/454/14
f 75/455/14 77/506/14 230/453/14
f 96/459/14 224/461/14 229/458/14
f 229/458/14 72/456/14 70/507/14
f 229/458/14 70/507/14 69/508/14
f 67/463/170 96/459/14 229/458/14
f 229/458/14 69/508/14 68/462/14
f 95/464/14 223/422/14 225/460/14
