# Pieza del RoverModificado
mtllib Rover.mtl
o PataDD
v 3.144678 -0.789692 -0.095206
v 3.168585 -0.728170 -0.067089
v 3.178487 -0.702686 0.000794
v 3.168585 -0.728170 0.068676
v 3.144678 -0.789692 0.096794
v 3.120771 -0.851214 0.068676
v 3.110868 -0.876697 0.000794
v 3.120771 -0.851214 -0.067089
v 3.217597 -0.841827 -0.114407
v 3.217598 -0.738146 -0.080665
v 3.173293 -0.715824 -0.080665
v 3.217598 -0.695201 0.000794
v 3.185176 -0.685244 0.000794
v 3.217598 -0.738146 0.082253
v 3.173293 -0.715824 0.082253
v 3.217597 -0.841827 0.115994
v 3.144605 -0.789651 0.115994
v 3.217598 -0.945507 0.082253
v 3.115917 -0.863478 0.082253
v 3.217598 -0.988452 0.000794
v 3.104033 -0.894057 0.000794
v 3.217598 -0.945507 -0.080665
v 3.115917 -0.863478 -0.080665
v 3.144605 -0.789651 -0.114407
v 3.441371 -1.127003 -0.338560
v 3.441371 -0.929565 -0.237697
v 3.529059 -1.127003 -0.327015
v 3.502954 -0.929565 -0.229589
v 3.610771 -1.127003 -0.293169
v 3.560340 -0.929565 -0.205819
v 3.680939 -1.127003 -0.239328
v 3.609618 -0.929565 -0.168007
v 3.734781 -1.127003 -0.169160
v 3.647431 -0.929565 -0.118728
v 3.768627 -1.127003 -0.087447
v 3.671201 -0.929565 -0.061342
v 3.780171 -1.127003 0.000241
v 3.679308 -0.929565 0.000241
v 3.768627 -1.127003 0.087928
v 3.671201 -0.929565 0.061823
v 3.734781 -1.127003 0.169640
v 3.647431 -0.929565 0.119209
v 3.680939 -1.127003 0.239808
v 3.609618 -0.929565 0.168487
v 3.610771 -1.127003 0.293650
v 3.560340 -0.929565 0.206300
v 3.529059 -1.127003 0.327496
v 3.502954 -0.929565 0.230070
v 3.441371 -1.127003 0.339040
v 3.441371 -0.929565 0.238178
v 3.353683 -1.127003 0.327496
v 3.379789 -0.929565 0.230070
v 3.271972 -1.127003 0.293650
v 3.322403 -0.929565 0.206300
v 3.201804 -1.127003 0.239808
v 3.273125 -0.929565 0.168487
v 3.147962 -1.127003 0.169640
v 3.215457 -0.929565 0.143003
v 3.114116 -1.127003 0.087928
v 3.215457 -0.929565 0.074140
v 3.102572 -1.127003 0.000240
v 3.215457 -0.929565 0.000240
v 3.114116 -1.127003 -0.087447
v 3.215457 -0.929565 -0.073659
v 3.147962 -1.127003 -0.169160
v 3.215457 -0.929565 -0.142522
v 3.201804 -1.127003 -0.239327
v 3.273125 -0.929565 -0.168007
v 3.271971 -1.127003 -0.293169
v 3.322403 -0.929565 -0.205819
v 3.353683 -1.127003 -0.327016
v 3.379789 -0.929565 -0.229589
v 3.441372 -1.217003 -0.236920
v 3.502753 -1.217003 -0.228839
v 3.559952 -1.217003 -0.205147
v 3.609069 -1.217003 -0.167457
v 3.646758 -1.217003 -0.118340
v 3.670451 -1.217003 -0.061141
v 3.678532 -1.217003 0.000240
v 3.670451 -1.217003 0.061622
v 3.646758 -1.217003 0.118820
v 3.609069 -1.217003 0.167938
v 3.559952 -1.217003 0.205627
v 3.502753 -1.217003 0.229319
v 3.441372 -1.217003 0.237400
v 3.379990 -1.217003 0.229319
v 3.322792 -1.217003 0.205627
v 3.273674 -1.217003 0.167938
v 3.235985 -1.217003 0.118820
v 3.212293 -1.217003 0.061622
v 3.204212 -1.217003 0.000240
v 3.212293 -1.217003 -0.061141
v 3.235985 -1.217003 -0.118340
v 3.273674 -1.217003 -0.167457
v 3.322792 -1.217003 -0.205147
v 3.379990 -1.217003 -0.228839
v 3.529059 -0.929565 -0.327015
v 3.441371 -0.929565 -0.338560
v 3.610771 -0.929565 -0.293169
v 3.680939 -0.929565 -0.239328
v 3.734781 -0.929565 -0.169160
v 3.768627 -0.929565 -0.087447
v 3.780171 -0.929565 0.000241
v 3.768627 -0.929565 0.087928
v 3.734781 -0.929565 0.169640
v 3.680939 -0.929565 0.239808
v 3.610771 -0.929565 0.293650
v 3.529059 -0.929565 0.327496
v 3.441371 -0.929565 0.339040
v 3.353683 -0.929565 0.327496
v 3.271972 -0.929565 0.293650
v 3.201804 -0.929565 0.239808
v 3.147962 -0.929565 0.169640
v 3.114116 -0.929565 0.087928
v 3.102572 -0.929565 0.000240
v 3.114116 -0.929565 -0.087447
v 3.147962 -0.929565 -0.169160
v 3.201804 -0.929565 -0.239327
v 3.271971 -0.929565 -0.293169
v 3.353683 -0.929565 -0.327016
v 3.485711 -0.599566 -0.165237
v 3.441371 -0.599566 -0.171075
v 3.527029 -0.599566 -0.148123
v 3.562510 -0.599566 -0.120898
v 3.589735 -0.599566 -0.085417
v 3.606849 -0.599566 -0.044099
v 3.612686 -0.599566 0.000240
v 3.606849 -0.599566 0.044580
v 3.589735 -0.599566 0.085898
v 3.562510 -0.599566 0.121378
v 3.527029 -0.599566 0.148603
v 3.485711 -0.599566 0.165718
v 3.441371 -0.599566 0.171555
v 3.397032 -0.599566 0.165718
v 3.355714 -0.599566 0.148603
v 3.320234 -0.599566 0.121378
v 3.218713 -0.599566 0.103029
v 3.218713 -0.599566 0.053448
v 3.218713 -0.599566 0.000240
v 3.218713 -0.599566 -0.052967
v 3.218713 -0.599566 -0.102548
v 3.320234 -0.599566 -0.120898
v 3.355714 -0.599566 -0.148123
v 3.397032 -0.599566 -0.165237
v 3.441371 -0.729565 -0.338560
v 3.441371 -0.729565 0.339040
v 3.353683 -0.729565 0.327496
v 3.271972 -0.729565 0.293650
v 3.353683 -0.729565 -0.327016
v 3.271971 -0.729565 -0.293169
v 3.441371 -0.729565 -0.237697
v 3.441371 -0.729565 0.238178
v 3.379789 -0.729565 0.230070
v 3.322403 -0.729565 0.206300
v 3.379789 -0.729565 -0.229589
v 3.322403 -0.729565 -0.205819
v 0.326169 -0.029565 0.293650
v 0.326169 0.370435 0.293650
v 0.326169 -0.029567 -0.205819
v 0.326169 -0.029567 -0.293169
v 0.326169 0.370434 -0.205819
v 0.326169 0.370434 -0.293169
v 1.899983 -0.449565 -0.293169
v 1.899983 -0.249565 -0.293169
v 1.899983 -0.449565 -0.205819
v 1.899983 -0.249565 -0.205819
v 1.899983 -0.446565 0.206300
v 1.899983 -0.246565 0.206300
v 1.899983 -0.246565 0.293650
v 1.899983 -0.446565 0.293650
v 1.900143 -0.539565 0.206300
v 1.900143 -0.189565 0.293650
v 1.900143 -0.189565 0.206300
v 1.900143 -0.539565 0.293650
v 1.900143 -0.539565 -0.293169
v 1.900143 -0.539565 -0.205819
v 1.900143 -0.189565 -0.293169
v 1.900143 -0.189565 -0.205819
v 0.724815 0.101181 -0.095206
v 0.744163 0.164970 -0.067089
v 0.752177 0.191392 0.000794
v 0.744163 0.164970 0.068676
v 0.724815 0.101181 0.096794
v 0.705468 0.037393 0.068676
v 0.697454 0.010971 0.000794
v 0.705468 0.037393 -0.067089
v 0.274449 0.403667 -0.103745
v 0.244654 0.305433 -0.147046
v 0.804842 0.067137 -0.147046
v 0.286791 0.444358 0.000794
v 0.274449 0.403667 0.105332
v 0.244654 0.305433 0.148634
v 0.214859 0.207199 0.105332
v 0.202517 0.166509 0.000794
v 0.214859 0.207198 -0.103745
v 0.834638 0.165373 -0.103745
v 0.846980 0.206064 0.000794
v 0.834638 0.165373 0.105332
v 0.804842 0.067139 0.148634
v 0.775047 -0.031095 0.105332
v 0.762706 -0.071785 0.000794
v 0.775047 -0.031095 -0.103745
v 0.326169 0.370435 0.206300
v 0.326169 -0.029565 0.206300
v 0.562265 -0.106065 0.293650
v 0.562265 0.286435 0.206300
v 0.562264 0.286435 0.293650
v 0.562264 -0.106065 0.206300
v 0.562264 -0.106067 -0.293169
v 0.562264 -0.106067 -0.205819
v 0.562265 0.286433 -0.293169
v 0.562265 0.286433 -0.205819
v 0.328529 -0.032187 0.411014
v 0.328529 0.374373 0.411014
v 0.328529 0.374372 -0.410532
v 0.328529 -0.032189 -0.410532
v 0.559904 -0.109944 -0.410532
v 0.559904 0.288996 0.411014
v 0.559904 -0.109942 0.411014
v 0.559904 0.288994 -0.410532
v 0.328529 0.342070 -0.410532
v 0.326169 0.338209 -0.293169
v 0.326169 0.002209 -0.293169
v 0.328529 0.000560 -0.410532
v 0.326169 0.338211 0.293650
v 0.328529 0.342072 0.411014
v 0.328529 0.000562 0.411014
v 0.326169 0.002211 0.293650
v -0.173811 0.338209 -0.293169
v -0.273831 0.238157 -0.293169
v -0.244536 0.308904 -0.293169
v -0.273831 0.102219 -0.293169
v -0.173811 0.002209 -0.293169
v -0.244536 0.031502 -0.293169
v -0.271471 0.242016 -0.410532
v -0.171450 0.342070 -0.410532
v -0.242175 0.312765 -0.410532
v -0.171450 0.000560 -0.410532
v -0.271471 0.100569 -0.410532
v -0.242175 0.029853 -0.410532
v -0.273831 0.238157 0.293650
v -0.173811 0.338211 0.293650
v -0.244536 0.308906 0.293650
v -0.173811 0.002211 0.293650
v -0.273831 0.102221 0.293650
v -0.244536 0.031504 0.293650
v -0.171450 0.342072 0.411014
v -0.271471 0.242018 0.411014
v -0.242175 0.312767 0.411014
v -0.271471 0.100571 0.411014
v -0.171450 0.000562 0.411014
v -0.242175 0.029854 0.411014
v -0.173811 0.170210 -0.293169
v -0.171450 0.171315 -0.410532
v 3.320234 -0.599566 0.000240
v 0.291372 0.325703 0.206300
v -0.289099 0.325703 0.206300
v 0.288681 0.325701 -0.205708
v -0.291790 0.325701 -0.205708
v -0.289099 0.075167 0.206300
v 0.191372 0.075167 0.206300
v -0.291790 0.075165 -0.205708
v 0.188681 0.075165 -0.205708
v -0.016135 0.075167 0.111219
v 0.053865 0.075167 0.041219
v -0.165733 0.075167 0.041219
v -0.095733 0.075167 0.111219
v 0.053865 0.075167 -0.028619
v -0.016135 0.075166 -0.098619
v -0.095733 0.075166 -0.098619
v -0.165733 0.075167 -0.028619
v -0.095733 -0.324833 0.111219
v -0.165733 -0.324833 0.041219
v 0.053865 -0.324833 0.041219
v -0.016135 -0.324833 0.111219
v -0.165733 -0.324833 -0.028619
v -0.095733 -0.324833 -0.098619
v -0.016135 -0.324833 -0.098619
v 0.053865 -0.324833 -0.028619
v 0.326169 -0.029565 0.293650
v 0.326169 0.370435 0.293650
v 0.326169 -0.029567 -0.205819
v 0.326169 -0.029567 -0.293169
v 0.326169 0.370434 -0.205819
v 0.326169 0.370434 -0.293169
v 0.326169 0.370435 0.206300
v 0.326169 -0.029565 0.206300
v -0.373831 0.030435 0.293650
v -0.313831 -0.029565 0.293650
v -0.356257 -0.011991 0.293650
v -0.313831 0.370435 0.293650
v -0.373831 0.310435 0.293650
v -0.356257 0.352863 0.293650
v -0.373831 0.030433 -0.205819
v -0.313831 -0.029567 -0.205819
v -0.356257 -0.011992 -0.205819
v -0.313831 -0.029567 -0.293169
v -0.373831 0.030433 -0.293169
v -0.356257 -0.011992 -0.293169
v -0.313831 0.370434 -0.205819
v -0.373831 0.310435 -0.205819
v -0.356257 0.352862 -0.205819
v -0.373831 0.310435 -0.293169
v -0.313831 0.370434 -0.293169
v -0.356257 0.352862 -0.293169
v -0.373831 0.310435 0.206300
v -0.313831 0.370435 0.206300
v -0.356257 0.352863 0.206300
v -0.313831 -0.029565 0.206300
v -0.373831 0.030435 0.206300
v -0.356257 -0.011991 0.206300
v -0.313831 0.170435 0.206300
v -0.313831 0.170435 0.293650
v -0.313831 0.170434 -0.205819
v -0.313831 0.170434 -0.293169
v 0.291372 0.325703 0.206300
v -0.289099 0.325703 0.206300
v 0.288681 0.325701 -0.205708
v -0.291790 0.325701 -0.205708
v -0.289099 0.075167 0.206300
v 0.191372 0.075167 0.206300
v -0.291790 0.075165 -0.205708
v 0.188681 0.075165 -0.205708
v -0.016135 0.075167 0.111219
v 0.053865 0.075167 0.041219
v -0.165733 0.075167 0.041219
v -0.095733 0.075167 0.111219
v 0.053865 0.075167 -0.028619
v -0.016135 0.075166 -0.098619
v -0.095733 0.075166 -0.098619
v -0.165733 0.075167 -0.028619
v -0.095733 -0.324833 0.111219
v -0.165733 -0.324833 0.041219
v 0.053865 -0.324833 0.041219
v -0.016135 -0.324833 0.111219
v -0.165733 -0.324833 -0.028619
v -0.095733 -0.324833 -0.098619
v -0.016135 -0.324833 -0.098619
v 0.053865 -0.324833 -0.028619
v 0.326169 -0.029565 0.293650
v 0.326169 0.370435 0.293650
v 0.326169 -0.029567 -0.205819
v 0.326169 -0.029567 -0.293169
v 0.326169 0.370434 -0.205819
v 0.326169 0.370434 -0.293169
v 0.326169 0.370435 0.206300
v 0.326169 -0.029565 0.206300
v -0.373831 0.030435 0.293650
v -0.313831 -0.029565 0.293650
v -0.356257 -0.011991 0.293650
v -0.313831 0.370435 0.293650
v -0.373831 0.310435 0.293650
v -0.356257 0.352863 0.293650
v -0.373831 0.030433 -0.205819
v -0.313831 -0.029567 -0.205819
v -0.356257 -0.011992 -0.205819
v -0.313831 -0.029567 -0.293169
v -0.373831 0.030433 -0.293169
v -0.356257 -0.011992 -0.293169
v -0.313831 0.370434 -0.205819
v -0.373831 0.310435 -0.205819
v -0.356257 0.352862 -0.205819
v -0.373831 0.310435 -0.293169
v -0.313831 0.370434 -0.293169
v -0.356257 0.352862 -0.293169
v -0.373831 0.310435 0.206300
v -0.313831 0.370435 0.206300
v -0.356257 0.352863 0.206300
v -0.313831 -0.029565 0.206300
v -0.373831 0.030435 0.206300
v -0.356257 -0.011991 0.206300
v -0.313831 0.170435 0.206300
v -0.313831 0.170435 0.293650
v -0.313831 0.170434 -0.205819
v -0.313831 0.170434 -0.293169
v 3.546769 -2.761391 0.868062
v 3.681553 -2.761401 0.868062
v 3.596638 -2.784858 0.868062
v 3.645972 -2.784862 0.868062
v 3.333910 -2.504964 0.868062
v 3.372948 -2.633172 0.868062
v 3.321618 -2.545602 0.868062
v 3.335906 -2.592529 0.868062
v 3.681553 -2.761401 0.676062
v 3.546769 -2.761391 0.676062
v 3.645972 -2.784862 0.676062
v 3.596638 -2.784858 0.676062
v 3.372948 -2.633172 0.676062
v 3.333910 -2.504964 0.676062
v 3.335906 -2.592529 0.676062
v 3.321618 -2.545602 0.676062
v 3.327414 -0.925167 0.952436
v 3.424323 -0.865782 0.952436
v 3.534839 -0.892315 0.952436
v 3.594225 -0.989223 0.952436
v 3.567692 -1.099739 0.952436
v 3.470784 -1.159125 0.952436
v 3.360267 -1.132592 0.952436
v 3.300881 -1.035684 0.952436
v 3.948651 -1.666108 0.868062
v 3.948651 -1.666108 0.676062
v 4.296293 -1.922546 0.676062
v 4.296293 -1.922546 0.868062
v 4.226632 -1.287131 0.868062
v 4.226632 -1.287131 0.676062
v 3.550115 -0.792594 0.868062
v 3.348515 -0.793541 0.868062
v 3.212483 -0.978995 0.868062
v 3.272134 -1.171570 0.868062
v 3.194496 -1.040212 0.868062
v 3.216330 -1.110699 0.868062
v 3.348515 -0.793541 0.676062
v 3.550115 -0.792594 0.676062
v 3.272134 -1.171570 0.676062
v 3.212483 -0.978995 0.676062
v 3.216330 -1.110699 0.676062
v 3.194496 -1.040212 0.676062
v 4.356998 -1.383296 0.676062
v 4.455983 -1.704838 0.676062
v 4.449788 -1.485038 0.676062
v 4.486020 -1.602731 0.676062
v 4.455983 -1.704838 0.868062
v 4.356998 -1.383296 0.868062
v 4.486020 -1.602731 0.868062
v 4.449788 -1.485038 0.868062
v 3.327414 -0.925167 0.511637
v 3.424323 -0.865782 0.511637
v 3.534839 -0.892315 0.511637
v 3.594225 -0.989223 0.511637
v 3.567692 -1.099739 0.511637
v 3.470784 -1.159125 0.511637
v 3.360267 -1.132592 0.511637
v 3.300881 -1.035684 0.511637
v 3.441373 -1.100488 -0.423860
v 3.441373 -0.926073 -0.423860
v 3.550983 -1.100488 -0.409429
v 3.550983 -0.926073 -0.409429
v 3.653123 -1.100488 -0.367121
v 3.653123 -0.926073 -0.367121
v 3.740833 -1.100488 -0.299820
v 3.740833 -0.926073 -0.299820
v 3.808135 -1.100488 -0.212110
v 3.808135 -0.926073 -0.212110
v 3.850442 -1.100488 -0.109970
v 3.850442 -0.926073 -0.109970
v 3.864873 -1.100488 -0.000360
v 3.864873 -0.926073 -0.000360
v 3.850442 -1.100488 0.109250
v 3.850442 -0.926073 0.109250
v 3.808135 -1.100488 0.211390
v 3.808135 -0.926073 0.211390
v 3.740833 -1.100488 0.299100
v 3.740833 -0.926073 0.299100
v 3.653123 -1.100488 0.366402
v 3.653123 -0.926073 0.366402
v 3.550983 -1.100488 0.408710
v 3.550983 -0.926073 0.408710
v 3.441373 -1.100488 0.423140
v 3.441373 -0.926073 0.423140
v 3.331763 -1.100488 0.408710
v 3.331763 -0.926073 0.408710
v 3.229623 -1.100488 0.366402
v 3.229623 -0.926073 0.366402
v 3.141913 -1.100488 0.299100
v 3.141913 -0.926073 0.299100
v 3.074611 -1.100488 0.211390
v 3.074611 -0.926073 0.211390
v 3.032304 -1.100488 0.109250
v 3.032304 -0.926073 0.109250
v 3.017873 -1.100488 -0.000360
v 3.017873 -0.926073 -0.000360
v 3.032304 -1.100488 -0.109970
v 3.032304 -0.926073 -0.109970
v 3.074611 -1.100488 -0.212110
v 3.074611 -0.926073 -0.212110
v 3.141913 -1.100488 -0.299819
v 3.141913 -0.926073 -0.299819
v 3.229623 -1.100488 -0.367121
v 3.229623 -0.926073 -0.367121
v 3.331763 -1.100488 -0.409429
v 3.331763 -0.926073 -0.409429
v 3.114118 -0.926073 -0.088048
v 3.201806 -0.926073 -0.239928
v 3.147964 -0.926073 -0.169760
v 3.353685 -0.926073 -0.327616
v 3.271973 -0.926073 -0.293769
v 3.529061 -0.926073 -0.327616
v 3.441373 -0.926073 -0.339160
v 3.114118 -0.926073 0.087328
v 3.201806 -0.926073 0.239208
v 3.147964 -0.926073 0.169040
v 3.353685 -0.926073 0.326896
v 3.529061 -0.926073 0.326896
v 3.441373 -0.926073 0.338440
v 3.271973 -0.926073 0.293049
v 3.680941 -0.926073 -0.239928
v 3.680941 -0.926073 0.239208
v 3.780173 -0.926073 -0.000360
v 3.768629 -0.926073 -0.088048
v 3.734783 -0.926073 0.169040
v 3.768629 -0.926073 0.087328
v 3.734783 -0.926073 -0.169760
v 3.102573 -0.926073 -0.000360
v 3.610774 -0.926073 0.293049
v 3.610774 -0.926073 -0.293770
v 3.441373 -1.100488 -0.339160
v 3.610774 -1.100488 -0.293770
v 3.529061 -1.100488 -0.327616
v 3.768629 -1.100488 -0.088048
v 3.734783 -1.100488 -0.169760
v 3.780173 -1.100488 -0.000360
v 3.680941 -1.100488 -0.239928
v 3.271973 -1.100488 0.293049
v 3.441373 -1.100488 0.338440
v 3.353685 -1.100488 0.326896
v 3.610774 -1.100488 0.293049
v 3.529061 -1.100488 0.326896
v 3.734783 -1.100488 0.169040
v 3.680941 -1.100488 0.239208
v 3.102573 -1.100488 -0.000360
v 3.114118 -1.100488 0.087328
v 3.114118 -1.100488 -0.088048
v 3.271973 -1.100488 -0.293769
v 3.201806 -1.100488 -0.239928
v 3.147964 -1.100488 0.169040
v 3.147964 -1.100488 -0.169760
v 3.201806 -1.100488 0.239208
v 3.768629 -1.100488 0.087328
v 3.353685 -1.100488 -0.327616
v 3.550983 -1.100488 0.513520
v 3.550983 -0.926073 0.513520
v 3.441373 -1.100488 0.513520
v 3.441373 -0.926073 0.513520
v 3.331763 -1.100488 0.513520
v 3.331763 -0.926073 0.513520
v 3.711154 -2.675550 0.676062
v 3.784359 -2.602345 0.676062
v 3.811154 -2.502345 0.676062
v 3.784359 -2.402345 0.676062
v 3.411154 -2.502345 0.676062
v 3.437949 -2.402345 0.676062
v 3.511154 -2.329140 0.676062
v 3.437949 -2.602345 0.676062
v 3.511154 -2.675550 0.676062
v 3.711154 -2.329140 0.676062
v 3.655318 -2.690512 0.676062
v 3.611154 -2.302345 0.676062
v 3.611154 -2.702346 0.676062
v 3.784359 -2.602345 0.868062
v 3.437949 -2.402345 0.868062
v 3.611154 -2.302345 0.868062
v 3.511154 -2.329140 0.868062
v 3.611154 -2.702346 0.868062
v 3.711154 -2.675550 0.868062
v 3.626990 -2.698102 0.868062
v 3.811154 -2.502345 0.868062
v 3.411154 -2.502345 0.868062
v 3.711154 -2.329140 0.868062
v 3.437949 -2.602345 0.868062
v 3.511154 -2.675550 0.868062
v 3.526990 -2.679794 0.868062
v 3.784359 -2.402345 0.868062
v 3.411125 -0.982082 0.868062
v 3.411125 -0.982082 0.676062
vt 0.158491 0.932821
vt 0.236822 0.926542
vt 0.164577 0.949018
vt 0.141144 0.497956
vt 0.170140 0.518034
vt 0.139172 0.518034
vt 0.272475 0.481245
vt 0.260245 0.574143
vt 0.185908 0.517102
vt 0.314867 0.591543
vt 0.282148 0.578375
vt 0.293126 0.569490
vt 0.202555 0.613260
vt 0.228006 0.588844
vt 0.221839 0.619191
vt 0.141144 0.538112
vt 0.175607 0.545607
vt 0.146983 0.557424
vt 0.184794 0.432376
vt 0.214508 0.451376
vt 0.202075 0.458074
vt 0.281333 0.422434
vt 0.282148 0.457693
vt 0.269652 0.451114
vt 0.241907 0.621258
vt 0.256115 0.588977
vt 0.261994 0.619382
vt 0.156467 0.575230
vt 0.191182 0.569006
vt 0.169233 0.590852
vt 0.169233 0.445217
vt 0.182246 0.477997
vt 0.156467 0.460838
vt 0.261994 0.416686
vt 0.242054 0.445777
vt 0.241907 0.414810
vt 0.281333 0.613634
vt 0.299185 0.604235
vt 0.184794 0.603692
vt 0.214508 0.584692
vt 0.171520 0.532089
vt 0.175607 0.490462
vt 0.171520 0.503980
vt 0.202555 0.422808
vt 0.228006 0.447224
vt 0.299184 0.431833
vt 0.293126 0.466578
vt 0.242054 0.590291
vt 0.182246 0.558071
vt 0.191182 0.467062
vt 0.256115 0.447091
vt 0.269652 0.584954
vt 0.202075 0.577995
vt 0.146983 0.478645
vt 0.221839 0.416877
vt 0.355951 0.674789
vt 0.331741 0.729534
vt 0.331741 0.674789
vt 0.292802 0.853465
vt 0.265293 0.845822
vt 0.281298 0.833540
vt 0.272936 0.873331
vt 0.281561 0.862091
vt 0.267514 0.886421
vt 0.253011 0.861828
vt 0.265665 0.900469
vt 0.245291 0.880467
vt 0.245290 0.920471
vt 0.242657 0.900469
vt 0.272936 0.927606
vt 0.267514 0.914516
vt 0.265293 0.955115
vt 0.253011 0.939110
vt 0.281561 0.938847
vt 0.281298 0.967397
vt 0.356133 0.729666
vt 0.380343 0.674921
vt 0.380343 0.729666
vt 0.303026 0.871163
vt 0.283061 0.895406
vt 0.287456 0.870483
vt 0.322059 0.870992
vt 0.305232 0.896374
vt 0.346583 0.881324
vt 0.326898 0.891571
vt 0.331314 0.859962
vt 0.362945 0.866331
vt 0.351179 0.836287
vt 0.341247 0.848124
vt 0.360434 0.825257
vt 0.374868 0.847615
vt 0.382510 0.804279
vt 0.381542 0.826450
vt 0.353925 0.791268
vt 0.357298 0.806484
vt 0.304133 0.674789
vt 0.287130 0.729534
vt 0.287130 0.674789
vt 0.137404 0.836450
vt 0.214768 0.843977
vt 0.138260 0.850593
vt 0.162255 0.712532
vt 0.228028 0.753951
vt 0.156678 0.725557
vt 0.147576 0.752382
vt 0.224503 0.763524
vt 0.221476 0.773266
vt 0.169701 0.961063
vt 0.240512 0.935215
vt 0.215908 0.854115
vt 0.139844 0.864672
vt 0.144077 0.766112
vt 0.218956 0.783151
vt 0.175200 0.973990
vt 0.244471 0.944522
vt 0.217571 0.864180
vt 0.142154 0.878651
vt 0.141291 0.780004
vt 0.216950 0.793154
vt 0.248430 0.953829
vt 0.180699 0.986916
vt 0.219752 0.874145
vt 0.145183 0.892492
vt 0.139226 0.794021
vt 0.215464 0.803246
vt 0.252120 0.962501
vt 0.185823 0.998961
vt 0.148922 0.906158
vt 0.222444 0.883985
vt 0.214500 0.813402
vt 0.137888 0.808126
vt 0.175388 0.687433
vt 0.252120 0.704389
vt 0.241500 0.726502
vt 0.153362 0.919613
vt 0.225641 0.893672
vt 0.214062 0.823594
vt 0.137280 0.822282
vt 0.236539 0.735416
vt 0.168497 0.699813
vt 0.229334 0.903182
vt 0.214152 0.833795
vt 0.232044 0.744574
vt 0.151780 0.738852
vt 0.296054 0.819148
vt 0.237437 0.785305
vt 0.256976 0.751463
vt 0.352529 0.647548
vt 0.331923 0.674921
vt 0.335527 0.647548
vt 0.368952 0.643148
vt 0.356133 0.674921
vt 0.368770 0.761307
vt 0.355951 0.729534
vt 0.379336 0.735800
vt 0.335345 0.756907
vt 0.352347 0.756907
vt 0.287312 0.729666
vt 0.304315 0.674921
vt 0.304315 0.729666
vt 0.270310 0.729666
vt 0.287312 0.674921
vt 0.331923 0.729666
vt 0.270128 0.729534
vt 0.270128 0.674789
vt 0.380161 0.674789
vt 0.304133 0.729534
vt 0.956039 0.781802
vt 0.893884 0.852332
vt 0.932111 0.769751
vt 0.890865 0.898939
vt 0.857526 0.982512
vt 0.833885 0.894386
vt 0.319939 0.846194
vt 0.299937 0.825820
vt 0.319939 0.823187
vt 0.305892 0.848043
vt 0.292802 0.947472
vt 0.305892 0.952894
vt 0.319939 0.954743
vt 0.299937 0.975117
vt 0.319939 0.977751
vt 0.933060 0.769976
vt 0.879378 0.743141
vt 0.935547 0.750207
vt 0.895048 0.851037
vt 0.836230 0.865353
vt 0.838153 0.845521
vt 0.835472 0.874525
vt 0.892452 0.879077
vt 0.937430 0.723339
vt 0.878987 0.736985
vt 0.881155 0.717178
vt 0.876891 0.762910
vt 0.027237 0.272773
vt 0.355043 0.316332
vt 0.012606 0.315985
vt 0.038157 0.252523
vt 0.369674 0.273121
vt 0.023486 0.336257
vt 0.355043 0.336257
vt 0.038551 0.379319
vt 0.370109 0.379319
vt 0.039338 0.273096
vt 0.371101 0.252831
vt 0.371122 0.272756
vt 0.024232 0.316144
vt 0.356037 0.335729
vt 0.013381 0.336432
vt 0.356017 0.315804
vt 0.028138 0.379600
vt 0.370794 0.378897
vt 0.324265 0.104617
vt 0.404101 0.124543
vt 0.324265 0.124542
vt 0.404102 0.106439
vt 0.324265 0.126364
vt 0.324265 0.106439
vt 0.030359 0.208893
vt 0.000348 0.124541
vt 0.030359 0.020265
vt 0.351027 0.029399
vt 0.351594 0.009483
vt 0.030927 0.000348
vt 0.000348 0.104616
vt 0.030359 0.022088
vt 0.351026 0.031221
vt 0.000348 0.106440
vt 0.351594 0.221499
vt 0.030359 0.210717
vt 0.351027 0.201582
vt 0.000348 0.126365
vt 0.835720 0.899164
vt 0.889841 0.897450
vt 0.912984 0.985458
vt 0.589710 0.208842
vt 0.475662 0.169892
vt 0.475662 0.130942
vt 0.833846 0.892038
vt 0.883411 0.716663
vt 0.938656 0.723597
vt 0.938656 0.977793
vt 0.915886 0.891205
vt 0.935261 0.743146
vt 0.876765 0.763676
vt 0.830450 0.847439
vt 0.837807 0.847835
vt 0.826533 0.891137
vt 0.876003 0.715704
vt 0.869336 0.762890
vt 0.873627 0.770455
vt 0.588812 0.132482
vt 0.475302 0.105696
vt 0.589350 0.105696
vt 0.589171 0.104156
vt 0.475123 0.104156
vt 0.589171 0.027512
vt 0.475662 0.000739
vt 0.589710 0.000738
vt 0.588811 0.001021
vt 0.475302 0.027795
vt 0.474763 0.001022
vt 0.440380 0.027718
vt 0.408834 0.001132
vt 0.439841 0.000945
vt 0.458631 0.202443
vt 0.451948 0.155304
vt 0.474764 0.132481
vt 0.459169 0.099011
vt 0.452487 0.050608
vt 0.409194 0.027402
vt 0.440740 0.000816
vt 0.440201 0.027590
vt 0.374265 0.027129
vt 0.391010 0.000424
vt 0.391728 0.027205
vt 0.408476 0.000620
vt 0.457662 0.027580
vt 0.458200 0.000806
vt 0.475123 0.027512
vt 0.408116 0.027914
vt 0.391369 0.001329
vt 0.390650 0.028110
vt 0.373906 0.001405
vt 0.457840 0.027728
vt 0.457302 0.000954
vt 0.475123 0.065834
vt 0.458990 0.034194
vt 0.452308 0.081333
vt 0.458990 0.097471
vt 0.452308 0.050325
vt 0.459529 0.137626
vt 0.452846 0.153764
vt 0.459529 0.202160
vt 0.475662 0.208842
vt 0.452846 0.186029
vt 0.304147 0.812937
vt 0.327305 0.795419
vt 0.327305 0.804844
vt 0.327305 0.785305
vt 0.304147 0.785305
vt 0.327305 0.775191
vt 0.304147 0.757673
vt 0.327305 0.765766
vt 0.189563 0.503461
vt 0.196624 0.491231
vt 0.206610 0.481245
vt 0.218840 0.474184
vt 0.232481 0.470528
vt 0.246604 0.470528
vt 0.260245 0.474183
vt 0.282461 0.491230
vt 0.289522 0.503461
vt 0.293177 0.517102
vt 0.293177 0.531224
vt 0.289522 0.544865
vt 0.282461 0.557095
vt 0.272475 0.567081
vt 0.246604 0.577798
vt 0.232482 0.577798
vt 0.218841 0.574143
vt 0.206610 0.567081
vt 0.196624 0.557095
vt 0.189563 0.544865
vt 0.185908 0.531224
vt 0.314867 0.444525
vt 0.377707 0.782613
vt 0.183637 0.672223
vt 0.266401 0.747559
vt 0.276515 0.746227
vt 0.286629 0.747559
vt 0.296054 0.751463
vt 0.286629 0.823051
vt 0.276515 0.824383
vt 0.266401 0.823051
vt 0.256976 0.819147
vt 0.248883 0.812937
vt 0.242673 0.804844
vt 0.238769 0.795419
vt 0.238769 0.775191
vt 0.242673 0.765766
vt 0.248883 0.757673
vt 0.379518 0.668655
vt 0.270310 0.674921
vt 0.380161 0.729534
vt 0.918428 0.863051
vt 0.914063 0.985413
vt 0.893125 0.870869
vt 0.369714 0.253196
vt 0.028445 0.252831
vt 0.404101 0.104618
vt 0.404102 0.126364
vt 0.351026 0.199760
vt 0.030927 0.230633
vt 0.857431 0.981727
vt 0.855531 0.974503
vt 0.589710 0.130942
vt 0.828132 0.874130
vt 0.828935 0.864453
vt 0.872190 0.742210
vt 0.871778 0.736223
vt 0.840903 0.841148
vt 0.589350 0.027795
vt 0.588811 0.209125
vt 0.474764 0.209125
vt 0.451948 0.186312
vt 0.458631 0.139166
vt 0.452487 0.082873
vt 0.459169 0.034477
vt 0.373547 0.000348
vt 0.373188 0.028186
vt 0.071802 0.403474
vt 0.085879 0.981510
vt 0.072027 0.979730
vt 0.057838 0.403204
vt 0.058079 0.978995
vt 0.044131 0.979741
vt 0.030281 0.981533
vt 0.043874 0.403485
vt 0.016430 0.983325
vt 0.029923 0.404157
vt 0.113680 0.984027
vt 0.127630 0.404792
vt 0.127630 0.983289
vt 0.099703 0.404793
vt 0.099731 0.983290
vt 0.085753 0.404133
vt 0.984733 0.357220
vt 0.961131 0.475824
vt 0.961131 0.357220
vt 0.616959 0.323785
vt 0.553909 0.274002
vt 0.638455 0.290060
vt 0.735649 0.249787
vt 0.703948 0.185710
vt 0.755537 0.218417
vt 0.684060 0.217080
vt 0.668548 0.356492
vt 0.690044 0.322768
vt 0.828763 0.357220
vt 0.808055 0.475824
vt 0.808055 0.357220
vt 0.704386 0.019305
vt 0.725304 0.082156
vt 0.659530 0.105997
vt 0.931778 0.357220
vt 0.911070 0.475824
vt 0.911070 0.357220
vt 0.881717 0.357220
vt 0.881717 0.475824
vt 0.858115 0.475824
vt 0.828762 0.475824
vt 0.778702 0.357220
vt 0.778702 0.475824
vt 0.858116 0.357220
vt 0.997191 0.332046
vt 0.780315 0.302446
vt 0.997191 0.302446
vt 0.780315 0.234672
vt 0.997191 0.137298
vt 0.780315 0.137298
vt 0.780315 0.069524
vt 0.996757 0.332673
vt 0.779881 0.303073
vt 0.996758 0.303073
vt 0.996758 0.167525
vt 0.779881 0.137925
vt 0.996758 0.137925
vt 0.997191 0.166898
vt 0.654309 0.137298
vt 0.749192 0.166898
vt 0.654309 0.166898
vt 0.653875 0.167525
vt 0.748758 0.137925
vt 0.748758 0.167525
vt 0.764320 0.332673
vt 0.748758 0.303073
vt 0.764320 0.303073
vt 0.749192 0.302446
vt 0.764754 0.332046
vt 0.749192 0.332046
vt 0.764754 0.302446
vt 0.780315 0.332046
vt 0.764320 0.167525
vt 0.764320 0.137925
vt 0.779881 0.167525
vt 0.780315 0.166898
vt 0.764754 0.137298
vt 0.764754 0.166898
vt 0.749192 0.137298
vt 0.779881 0.070151
vt 0.779881 0.332673
vt 0.765504 0.173480
vt 0.779881 0.235299
vt 0.779881 0.002377
vt 0.765504 0.008333
vt 0.765504 0.297118
vt 0.759549 0.282741
vt 0.759549 0.187857
vt 0.759549 0.022710
vt 0.759549 0.117593
vt 0.765504 0.131970
vt 0.780315 0.001750
vt 0.765938 0.007705
vt 0.759983 0.022082
vt 0.765938 0.131343
vt 0.759983 0.116966
vt 0.765938 0.172853
vt 0.759983 0.187230
vt 0.765938 0.296490
vt 0.759983 0.282114
vt 0.740296 0.392630
vt 0.710143 0.414319
vt 0.630014 0.416402
vt 0.578425 0.383695
vt 0.610616 0.382179
vt 0.607502 0.367837
vt 0.613886 0.357912
vt 0.628228 0.354798
vt 0.636936 0.360398
vt 0.619324 0.387780
vt 0.640050 0.374741
vt 0.633666 0.384666
vt 0.997191 0.001750
vt 0.653875 0.137925
vt 0.748758 0.332673
vt 0.996758 0.002377
vt 0.015973 0.404828
vt 0.113666 0.405066
vt 0.984733 0.475824
vt 0.546978 0.310493
vt 0.638612 0.085079
vt 0.638612 0.043146
vt 0.662453 0.019305
vt 0.725304 0.040223
vt 0.701463 0.105997
vt 0.931778 0.475824
vt 0.462786 0.548643
vt 0.504803 0.522010
vt 0.504802 0.548643
vt 0.462786 0.522010
vt 0.504802 0.495378
vt 0.462786 0.495378
vt 0.504803 0.468745
vt 0.462786 0.468745
vt 0.504803 0.442112
vt 0.462786 0.442112
vt 0.504803 0.415480
vt 0.462786 0.415480
vt 0.504803 0.388847
vt 0.462786 0.388847
vt 0.504803 0.362214
vt 0.462786 0.362214
vt 0.504803 0.335581
vt 0.462786 0.335581
vt 0.504803 0.308949
vt 0.462786 0.308949
vt 0.504803 0.282316
vt 0.462786 0.282316
vt 0.504803 0.255684
vt 0.752572 0.761246
vt 0.714721 0.764886
vt 0.735466 0.744140
vt 0.756212 0.723395
vt 0.776049 0.743232
vt 0.462786 0.841603
vt 0.504803 0.814970
vt 0.504803 0.841603
vt 0.462786 0.814970
vt 0.504803 0.788337
vt 0.462786 0.788337
vt 0.504803 0.761704
vt 0.462786 0.761705
vt 0.504803 0.735072
vt 0.462786 0.735072
vt 0.504803 0.708439
vt 0.462786 0.708439
vt 0.504803 0.681806
vt 0.462786 0.681806
vt 0.504803 0.655174
vt 0.462786 0.655174
vt 0.504803 0.628541
vt 0.462786 0.628541
vt 0.504803 0.601908
vt 0.874472 0.666967
vt 0.894344 0.657632
vt 0.909258 0.657632
vt 0.874472 0.535011
vt 0.945275 0.544332
vt 0.909258 0.544346
vt 0.462786 0.601908
vt 0.504803 0.575276
vt 0.462786 0.575276
vt 0.929130 0.666439
vt 0.858327 0.657118
vt 0.894344 0.657104
vt 0.874472 0.534483
vt 0.945275 0.543804
vt 0.909258 0.543818
vt 0.827074 0.686744
vt 0.789223 0.690384
vt 0.809968 0.669638
vt 0.809060 0.710221
vt 0.701547 0.817734
vt 0.734558 0.784723
vt 0.830714 0.648893
vt 0.850551 0.668730
vt 0.462786 0.255683
vt 0.923664 0.653771
vt 0.929130 0.666967
vt 0.911122 0.671792
vt 0.892480 0.671792
vt 0.858327 0.657646
vt 0.867022 0.646314
vt 0.879938 0.653771
vt 0.856476 0.635768
vt 0.845144 0.644463
vt 0.835823 0.628318
vt 0.830998 0.610310
vt 0.830998 0.591667
vt 0.835823 0.573660
vt 0.845144 0.557514
vt 0.858327 0.544332
vt 0.892480 0.530185
vt 0.911122 0.530185
vt 0.929130 0.535011
vt 0.958458 0.557514
vt 0.967779 0.573660
vt 0.972604 0.591667
vt 0.972604 0.610310
vt 0.967779 0.628318
vt 0.958458 0.644463
vt 0.945275 0.657646
vt 0.936580 0.646314
vt 0.947126 0.635768
vt 0.849018 0.622852
vt 0.845158 0.608446
vt 0.954584 0.622852
vt 0.845158 0.593532
vt 0.958444 0.608446
vt 0.958444 0.593532
vt 0.849018 0.579126
vt 0.856476 0.566209
vt 0.954584 0.579126
vt 0.867022 0.555663
vt 0.947126 0.566209
vt 0.936580 0.555663
vt 0.879938 0.548206
vt 0.894344 0.544346
vt 0.923664 0.548206
vt 0.909258 0.657104
vt 0.923664 0.653244
vt 0.911122 0.671264
vt 0.892480 0.671264
vt 0.874472 0.666439
vt 0.867022 0.645787
vt 0.879938 0.653244
vt 0.856476 0.635241
vt 0.845144 0.643935
vt 0.835823 0.627790
vt 0.830998 0.609783
vt 0.830998 0.591140
vt 0.835823 0.573132
vt 0.845144 0.556987
vt 0.858327 0.543804
vt 0.892480 0.529658
vt 0.911122 0.529658
vt 0.929130 0.534483
vt 0.958458 0.556987
vt 0.967779 0.573132
vt 0.972604 0.591140
vt 0.972604 0.609783
vt 0.967779 0.627790
vt 0.958458 0.643935
vt 0.945275 0.657118
vt 0.936580 0.645787
vt 0.947127 0.635241
vt 0.849018 0.622324
vt 0.845158 0.607918
vt 0.954584 0.622324
vt 0.845158 0.593004
vt 0.958444 0.607918
vt 0.958444 0.593004
vt 0.849018 0.578598
vt 0.856476 0.565682
vt 0.954584 0.578598
vt 0.867022 0.555136
vt 0.947126 0.565682
vt 0.936580 0.555136
vt 0.879938 0.547679
vt 0.894344 0.543818
vt 0.923664 0.547679
vt 0.681710 0.797897
vt 0.568572 0.944563
vt 0.537280 0.956369
vt 0.553971 0.936334
vt 0.520480 0.936775
vt 0.543062 0.923611
vt 0.511467 0.912589
vt 0.537210 0.907906
vt 0.537156 0.891146
vt 0.511384 0.886778
vt 0.616123 0.936055
vt 0.649618 0.936193
vt 0.632994 0.955938
vt 0.153748 0.658318
vt 0.140500 0.649839
vt 0.143872 0.648442
vt 0.153748 0.624599
vt 0.140500 0.633079
vt 0.152351 0.621227
vt 0.167715 0.624599
vt 0.180963 0.633078
vt 0.177591 0.634475
vt 0.167715 0.658318
vt 0.180963 0.649839
vt 0.169112 0.661690
vt 0.152351 0.661690
vt 0.143872 0.634475
vt 0.169112 0.621227
vt 0.177591 0.648442
vt 0.294410 0.628061
vt 0.316404 0.638658
vt 0.303163 0.654603
vt 0.278832 0.634244
vt 0.288540 0.664224
vt 0.271053 0.665000
vt 0.250979 0.659843
vt 0.262587 0.638365
vt 0.359108 0.604284
vt 0.366040 0.585149
vt 0.379236 0.599341
vt 0.343253 0.611702
vt 0.352748 0.595358
vt 0.324403 0.613094
vt 0.329650 0.622718
vt 0.309410 0.620584
vt 0.348497 0.964209
vt 0.511384 0.938399
vt 0.511184 0.964209
vt 0.348697 0.938399
vt 0.348697 0.886778
vt 0.820237 0.989670
vt 0.657349 0.963860
vt 0.820037 0.963860
vt 0.657149 0.938050
vt 0.819836 0.938050
vt 0.657066 0.912240
vt 0.819753 0.912240
vt 0.819836 0.886429
vt 0.348296 0.990018
vt 0.510984 0.990018
vt 0.585097 0.947359
vt 0.559766 0.969040
vt 0.610623 0.968811
vt 0.585214 0.973346
vt 0.601597 0.944414
vt 0.626918 0.923233
vt 0.246051 0.641100
vt 0.339204 0.605230
vt 0.348780 0.912589
vt 0.657549 0.989670
vt 0.657149 0.886429
vt 0.994327 0.817174
vt 0.962802 0.831297
vt 0.962802 0.817174
vt 0.994327 0.831297
vt 0.962802 0.845419
vt 0.994327 0.845419
vt 0.962802 0.859541
vt 0.994327 0.859541
vt 0.962802 0.873664
vt 0.994327 0.873664
vt 0.962802 0.887786
vt 0.994327 0.887786
vt 0.962802 0.901908
vt 0.994327 0.901908
vt 0.962802 0.916030
vt 0.994327 0.916030
vt 0.962802 0.930153
vt 0.994327 0.930153
vt 0.962802 0.944275
vt 0.994327 0.944275
vt 0.962802 0.958397
vt 0.994327 0.958397
vt 0.962802 0.972519
vt 0.994327 0.972519
vt 0.962802 0.986642
vt 0.994327 0.647707
vt 0.962802 0.661830
vt 0.962802 0.647707
vt 0.994327 0.661830
vt 0.962802 0.675952
vt 0.994327 0.675952
vt 0.962802 0.690074
vt 0.994327 0.690074
vt 0.962802 0.704196
vt 0.994327 0.704196
vt 0.962802 0.718319
vt 0.994327 0.718319
vt 0.962802 0.732441
vt 0.994327 0.732441
vt 0.962802 0.746563
vt 0.994327 0.746563
vt 0.962802 0.760685
vt 0.994327 0.760685
vt 0.962802 0.774808
vt 0.994327 0.774808
vt 0.962802 0.788930
vt 0.994327 0.788930
vt 0.962802 0.803052
vt 0.994327 0.803052
vt 0.994327 0.986642
vt 0.446808 0.427699
vt 0.410834 0.232841
vt 0.446808 0.232841
vt 0.632238 0.759429
vt 0.645887 0.751305
vt 0.654210 0.752382
vt 0.731374 0.612328
vt 0.675901 0.700636
vt 0.661621 0.693659
vt 0.410834 0.455149
vt 0.446808 0.495619
vt 0.410834 0.495619
vt 0.647416 0.873419
vt 0.641549 0.860400
vt 0.643953 0.860497
vt 0.587853 0.715344
vt 0.639049 0.803549
vt 0.624784 0.807560
vt 0.410834 0.523174
vt 0.446808 0.515189
vt 0.446808 0.523174
vt 0.410834 0.515189
vt 0.446808 0.505945
vt 0.410834 0.505945
vt 0.410834 0.435654
vt 0.410834 0.427699
vt 0.446808 0.435654
vt 0.410834 0.444845
vt 0.446808 0.444845
vt 0.604324 0.568977
vt 0.529992 0.588143
vt 0.529992 0.568977
vt 0.604324 0.607309
vt 0.529992 0.607309
vt 0.604324 0.453982
vt 0.529992 0.473148
vt 0.529992 0.453982
vt 0.604324 0.473148
vt 0.529992 0.492313
vt 0.604324 0.492314
vt 0.529992 0.511479
vt 0.604324 0.530645
vt 0.529992 0.530645
vt 0.581610 0.823235
vt 0.560098 0.875168
vt 0.508165 0.853656
vt 0.529992 0.549811
vt 0.604324 0.549811
vt 0.409193 0.770086
vt 0.445168 0.613073
vt 0.445168 0.770086
vt 0.446808 0.718033
vt 0.511272 0.709819
vt 0.516326 0.724022
vt 0.409193 0.303589
vt 0.445168 0.333941
vt 0.409193 0.333941
vt 0.803258 0.634256
vt 0.810877 0.620505
vt 0.409193 0.490953
vt 0.643705 0.508671
vt 0.675929 0.496407
vt 0.649788 0.519243
vt 0.445168 0.571820
vt 0.409193 0.528727
vt 0.445168 0.528727
vt 0.409193 0.613073
vt 0.445168 0.597601
vt 0.409193 0.597601
vt 0.445168 0.583775
vt 0.409193 0.583775
vt 0.691303 0.620627
vt 0.688667 0.630854
vt 0.659919 0.613819
vt 0.445168 0.277788
vt 0.445168 0.303589
vt 0.409193 0.277788
vt 0.445168 0.254716
vt 0.410834 0.788563
vt 0.446808 0.768621
vt 0.446808 0.788563
vt 0.410834 0.718033
vt 0.531428 0.800321
vt 0.583361 0.821833
vt 0.561849 0.873766
vt 0.445168 0.490953
vt 0.545606 0.663188
vt 0.515499 0.692915
vt 0.527848 0.677830
vt 0.540381 0.753649
vt 0.809447 0.602372
vt 0.799349 0.584717
vt 0.773224 0.660494
vt 0.783655 0.566654
vt 0.688311 0.611999
vt 0.667573 0.586410
vt 0.638721 0.587662
vt 0.681110 0.639941
vt 0.672978 0.467211
vt 0.702069 0.473570
vt 0.647394 0.489562
vt 0.642829 0.497807
vt 0.654682 0.766645
vt 0.647369 0.768129
vt 0.639301 0.765414
vt 0.611302 0.733713
vt 0.622106 0.732277
vt 0.629119 0.745322
vt 0.623592 0.716622
vt 0.608168 0.725816
vt 0.608660 0.718547
vt 0.612460 0.713653
vt 0.664270 0.753134
vt 0.680071 0.741511
vt 0.631744 0.702529
vt 0.686275 0.728331
vt 0.645516 0.694305
vt 0.684831 0.713384
vt 0.446808 0.455149
vt 0.656846 0.858385
vt 0.653952 0.869601
vt 0.640468 0.874677
vt 0.627981 0.858829
vt 0.680651 0.831336
vt 0.683110 0.836855
vt 0.681898 0.843797
vt 0.677140 0.850338
vt 0.658707 0.857833
vt 0.667501 0.846861
vt 0.634156 0.872213
vt 0.614647 0.844878
vt 0.669580 0.831894
vt 0.610803 0.831574
vt 0.664838 0.817303
vt 0.614447 0.817895
vt 0.653698 0.807071
vt 0.604324 0.588143
vt 0.604324 0.511479
vt 0.508165 0.823234
vt 0.529676 0.801723
vt 0.560098 0.801723
vt 0.581610 0.853657
vt 0.529676 0.875168
vt 0.409193 0.571820
vt 0.409193 0.254716
vt 0.410834 0.768621
vt 0.531428 0.873766
vt 0.509916 0.852255
vt 0.509916 0.821833
vt 0.561850 0.800321
vt 0.583361 0.852255
vn 0.7071 -0.0000 -0.7071
vn 0.9659 -0.0000 -0.2588
vn -0.2588 -0.0000 -0.9659
vn 0.2588 -0.0000 -0.9659
vn -0.9659 -0.0000 -0.2588
vn -0.7071 -0.0000 -0.7071
vn 0.9659 -0.0000 0.2588
vn 0.7071 -0.0000 0.7071
vn -0.7071 -0.0000 0.7071
vn -0.9659 -0.0000 0.2588
vn 0.2588 -0.0000 0.9659
vn -0.2588 -0.0000 0.9659
vn -0.0000 -0.0000 1.0000
vn -0.0000 1.0000 -0.0000
vn 1.0000 -0.0000 -0.0000
vn -0.0000 -1.0000 -0.0000
vn -0.0000 -0.0000 -1.0000
vn -1.0000 -0.0000 -0.0000
vn 0.3827 -0.0000 0.9239
vn -0.3827 -0.0000 0.9239
vn -0.0000 1.0000 0.0001
vn -0.9239 -0.3827 -0.0000
vn -0.3827 0.9239 -0.0000
vn -0.9239 0.3827 -0.0000
vn -0.0000 1.0000 -0.0001
vn -0.0001 -1.0000 -0.0000
vn -0.4804 0.1605 0.8622
vn -0.2029 0.1582 0.9663
vn -0.4016 0.1140 0.9087
vn 0.1716 -0.7487 -0.6403
vn -0.0000 -0.7487 -0.6629
vn -0.0000 -0.7487 0.6629
vn -0.1716 -0.7487 0.6403
vn -0.6629 -0.7487 -0.0000
vn -0.6403 -0.7487 0.1716
vn -0.1716 -0.7487 -0.6403
vn -0.3315 -0.7487 -0.5741
vn 0.6403 -0.7487 -0.1716
vn 0.6629 -0.7487 -0.0000
vn 0.3315 -0.7487 0.5741
vn 0.1716 -0.7487 0.6403
vn -0.5741 -0.7487 0.3315
vn -0.4688 -0.7487 0.4688
vn -0.4688 -0.7487 -0.4688
vn -0.5741 -0.7487 -0.3315
vn 0.5741 -0.7487 -0.3315
vn 0.4688 -0.7487 -0.4688
vn 0.4688 -0.7487 0.4688
vn 0.5741 -0.7487 0.3315
vn -0.3315 -0.7487 0.5741
vn -0.6403 -0.7487 -0.1716
vn 0.3315 -0.7487 -0.5741
vn 0.6403 -0.7487 0.1716
vn -0.1305 -0.0000 -0.9914
vn -0.0438 -0.0000 -0.9990
vn -0.1761 -0.0000 0.9844
vn -0.3723 -0.0000 0.9281
vn 0.1305 -0.0000 0.9914
vn 0.8489 0.1979 0.4901
vn 0.6931 0.1979 0.6931
vn -0.2537 0.1979 -0.9468
vn -0.0000 0.1979 -0.9802
vn 0.4901 0.1979 -0.8489
vn 0.2537 0.1979 -0.9468
vn -1.0000 0.0099 -0.0000
vn 0.4901 0.1979 0.8489
vn 0.6931 0.1979 -0.6931
vn 0.2537 0.1979 0.9468
vn 0.8489 0.1979 -0.4901
vn -0.0000 0.1979 0.9802
vn 0.9468 0.1979 -0.2537
vn -0.2537 0.1979 0.9468
vn 0.9802 0.1979 -0.0000
vn -0.4804 0.1605 -0.8622
vn -0.2030 0.1582 -0.9663
vn -0.4069 0.1858 -0.8944
vn -0.4901 0.1979 0.8489
vn 0.9468 0.1979 0.2537
vn -0.4901 0.1979 -0.8489
vn -0.4069 0.1858 0.8944
vn 0.1246 0.9896 0.0720
vn 0.1239 0.9897 -0.0715
vn 0.1886 0.9764 -0.1056
vn 0.1305 -0.0000 -0.9914
vn 0.2177 -0.0000 -0.9760
vn -0.0438 -0.0000 0.9990
vn 0.1767 -0.0000 0.9843
vn 0.2176 -0.0000 0.9760
vn -0.3722 -0.0000 -0.9282
vn 0.9998 -0.0000 0.0201
vn -0.3082 -0.9513 -0.0000
vn -0.3082 -0.9513 0.0075
vn -0.3107 -0.9505 0.0104
vn 0.3352 0.9421 -0.0000
vn 0.3391 0.9406 0.0157
vn 0.3391 0.9406 -0.0157
vn 0.3382 0.9409 -0.0206
vn 0.3352 0.9421 -0.0046
vn -0.3082 -0.9513 -0.0075
vn 0.3298 0.9440 -0.0072
vn -0.3150 -0.9326 0.1763
vn -0.3298 -0.9440 0.0071
vn -0.3302 -0.9439 -0.0000
vn -0.1762 -0.0000 -0.9844
vn 0.1897 0.9761 0.1062
vn 0.3317 0.9434 0.0071
vn 0.3321 0.9433 -0.0000
vn -0.3167 -0.9318 -0.1772
vn -0.3317 -0.9434 -0.0072
vn -0.3161 -0.9310 -0.1825
vn 0.1767 -0.0000 -0.9843
vn -0.3107 -0.9505 -0.0104
vn 0.3382 0.9409 0.0206
vn 0.3459 0.9375 0.0384
vn -0.3111 -0.9502 0.0214
vn -0.3183 -0.9472 0.0377
vn 0.9998 -0.0000 -0.0201
vn -0.3111 -0.9502 -0.0214
vn -0.9998 -0.0000 0.0201
vn -0.9998 -0.0000 -0.0201
vn -0.0000 0.9995 -0.0329
vn -0.1919 0.9810 -0.0284
vn -0.0000 0.9995 0.0329
vn -0.1919 0.9810 0.0284
vn -0.1983 0.9797 0.0282
vn -0.0000 -0.9999 0.0140
vn -0.1923 -0.9813 0.0099
vn -0.0000 -0.9999 -0.0140
vn -0.1923 -0.9813 -0.0099
vn -0.1978 -0.9802 -0.0098
vn -0.9802 -0.1972 0.0169
vn -0.9816 0.1906 0.0135
vn -0.9811 -0.1929 0.0170
vn -0.9816 0.1906 -0.0135
vn -0.9802 -0.1972 -0.0169
vn -0.9811 -0.1929 -0.0170
vn -0.3827 0.9236 0.0227
vn -0.9239 0.3826 -0.0060
vn -0.9798 0.1994 -0.0131
vn -0.9238 -0.3827 -0.0132
vn -0.3826 -0.9239 0.0053
vn -0.1978 -0.9802 0.0098
vn -0.3827 -0.9239 0.0053
vn -0.9798 0.1994 0.0131
vn -0.9239 0.3826 0.0060
vn -0.3827 0.9236 -0.0227
vn -0.1983 0.9797 -0.0282
vn -0.3826 -0.9239 -0.0053
vn -0.3827 -0.9239 -0.0053
vn -0.9238 -0.3827 0.0132
vn -0.4016 0.1140 -0.9087
vn -0.1305 -0.0000 0.9914
vn 0.3352 0.9421 0.0046
vn 0.3459 0.9375 -0.0384
vn 0.1764 -0.0000 0.9843
vn 0.1887 0.9763 -0.1055
vn 0.3302 0.9439 -0.0000
vn 0.3298 0.9440 -0.0071
vn -0.3144 -0.9318 0.1815
vn -0.3321 -0.9433 -0.0000
vn -0.3317 -0.9434 -0.0071
vn -0.1760 -0.0000 0.9844
vn -0.3183 -0.9472 -0.0377
vn -0.3827 -0.9239 -0.0000
vn -0.1345 -0.3653 -0.9211
vn -0.1353 -0.3678 -0.9200
vn -0.1353 -0.3679 -0.9200
vn -0.3199 -0.8696 -0.3762
vn -0.3202 -0.8706 -0.3736
vn -0.3202 -0.8706 -0.3735
vn -0.3202 -0.8706 0.3736
vn -0.3199 -0.8696 0.3762
vn -0.3202 -0.8706 0.3735
vn -0.1353 -0.3678 0.9200
vn -0.1345 -0.3653 0.9211
vn -0.1353 -0.3679 0.9200
vn 0.1354 0.3678 0.9200
vn 0.1346 0.3653 0.9211
vn 0.3207 0.8704 0.3736
vn 0.3204 0.8694 0.3762
vn 0.3204 0.8694 -0.3762
vn 0.3207 0.8704 -0.3736
vn 0.3207 0.8704 -0.3735
vn 0.1346 0.3653 -0.9211
vn 0.1354 0.3678 -0.9200
vn -1.0000 -0.0000 0.0065
vn 0.9287 -0.3707 -0.0061
vn -0.1345 -0.3652 -0.9211
vn -0.3199 -0.8695 0.3762
vn 0.1345 0.3652 0.9211
vn 0.1345 0.3652 -0.9211
vn 0.5000 -0.0000 -0.8660
vn 0.8660 -0.0000 -0.5000
vn 0.8660 -0.0000 0.5000
vn 0.5000 -0.0000 0.8660
vn -0.5000 -0.0000 0.8660
vn -0.8660 -0.0000 0.5000
vn -0.8660 -0.0000 -0.5000
vn -0.5000 -0.0000 -0.8660
vn -0.0000 1.0000 0.0039
vn 0.0001 0.9999 0.0149
vn -0.0000 0.9998 -0.0220
vn 0.0005 -1.0000 -0.0000
vn -0.0005 -1.0000 -0.0038
vn 0.5860 0.1714 0.7920
vn 0.3346 -0.4632 0.8207
vn 0.1436 -0.9279 0.3442
vn 0.1436 -0.9279 -0.3442
vn 0.3346 -0.4632 -0.8207
vn -0.9310 0.3651 0.0030
vn -0.9305 0.3663 -0.0000
vn -0.9321 0.3622 -0.0043
vn -0.9310 0.3651 -0.0030
vn -0.9332 0.3593 -0.0031
vn -0.9337 0.3580 -0.0000
vn -0.9321 0.3622 0.0043
vn -0.9332 0.3593 0.0031
vn -0.9332 0.3592 0.0031
vn -0.2382 -0.3139 -0.9191
vn -0.2389 -0.3113 -0.9198
vn -0.2422 -0.3003 -0.9226
vn -0.5885 -0.7215 -0.3648
vn -0.5903 -0.7174 -0.3699
vn -0.5924 -0.7127 -0.3757
vn -0.5903 -0.7174 0.3700
vn -0.5885 -0.7215 0.3648
vn -0.5924 -0.7127 0.3757
vn -0.2389 -0.3113 0.9198
vn -0.2382 -0.3139 0.9191
vn -0.2422 -0.3002 0.9226
vn 0.1945 0.3296 0.9239
vn 0.2043 0.3172 0.9261
vn 0.2160 0.3022 0.9285
vn 0.3155 0.8648 0.3905
vn 0.3775 0.8279 0.4149
vn 0.4071 0.8080 0.4260
vn 0.3775 0.8279 -0.4149
vn 0.3154 0.8649 -0.3905
vn 0.4071 0.8080 -0.4260
vn 0.2043 0.3172 -0.9261
vn 0.1945 0.3296 -0.9239
vn 0.2160 0.3022 -0.9285
vn 0.1529 0.3594 -0.9206
vn 0.3629 0.8531 -0.3749
vn 0.3629 0.8531 0.3749
vn 0.1529 0.3594 0.9206
vn -0.1529 -0.3594 0.9206
vn -0.3629 -0.8531 0.3749
vn -0.3629 -0.8531 -0.3749
vn -0.1529 -0.3594 -0.9206
vn 0.7449 0.5873 0.3165
vn 0.7449 0.5873 -0.3165
vn 0.5860 0.1714 -0.7920
vn 0.3345 -0.4632 -0.8207
vn -0.2341 -0.3274 -0.9154
vn -0.5862 -0.7266 -0.3583
vn -0.5903 -0.7174 0.3699
vn -0.5862 -0.7266 0.3583
vn -0.2341 -0.3274 0.9154
vn 0.1770 0.3514 0.9193
vn 0.3154 0.8649 0.3905
vn 0.2724 0.8870 0.3727
vn 0.3774 0.8279 0.4148
vn 0.2724 0.8870 -0.3727
vn 0.1770 0.3514 -0.9193
vn -0.8947 0.4467 -0.0000
vn -0.8066 0.5911 -0.0000
vn -0.6696 -0.7427 -0.0000
vn -0.5122 -0.8589 -0.0000
vn 0.6894 -0.7244 -0.0000
vn 0.5505 -0.8348 -0.0000
vn -0.2182 -0.9759 -0.0000
vn -0.9572 0.2895 -0.0000
vn -0.9566 -0.2913 -0.0000
vn -0.8691 -0.4945 -0.0000
vn -0.8692 -0.4945 -0.0000
vn -0.5225 0.8526 -0.0000
vn 0.2334 0.9724 -0.0000
vn 0.8526 0.5225 -0.0000
vn 0.9724 -0.2335 -0.0000
vn 0.9724 -0.2334 -0.0000
vn 0.5225 -0.8526 -0.0000
vn -0.2334 -0.9724 -0.0000
vn -0.8526 -0.5225 -0.0000
vn -0.9724 0.2334 -0.0000
vn -0.5901 -0.8073 -0.0000
vn -0.6669 -0.7452 -0.0000
vn 0.8065 -0.5913 -0.0000
vn 0.6695 0.7429 -0.0000
vn 0.5919 0.8060 -0.0000
vn 0.5901 0.8073 -0.0000
vn -0.8963 0.4434 -0.0000
vn -0.8063 0.5915 -0.0000
vn -0.8672 -0.4979 -0.0000
vn -0.9552 -0.2959 -0.0000
vn -0.9594 0.2819 -0.0000
vn 0.8683 0.4960 -0.0000
vn 0.6694 0.7429 -0.0000
vn 0.9557 0.2942 -0.0000
vn 0.9594 -0.2822 -0.0000
vn 0.8963 -0.4435 -0.0000
vn -0.0047 1.0000 -0.0000
vn -0.6696 -0.7428 -0.0000
vn 0.5505 -0.8349 -0.0000
vn -0.9724 0.2335 -0.0000
vn -0.8964 0.4433 -0.0000
usemtl SpacialRoverExploreralumWhite
f 56/1/27 137/2/28 58/3/29
f 27/4/30 73/5/31 25/6/31
f 80/7/16 88/8/16 96/9/16
f 49/10/32 86/11/33 85/12/32
f 61/13/34 90/14/35 59/15/35
f 71/16/36 95/17/37 69/18/37
f 35/19/38 79/20/39 78/21/38
f 45/22/40 84/23/41 83/24/40
f 57/25/42 88/26/43 55/27/43
f 67/28/44 93/29/45 65/30/45
f 33/31/46 76/32/47 31/33/47
f 43/34/48 81/35/49 41/36/49
f 53/37/50 86/11/33 51/38/33
f 63/39/51 91/40/34 61/13/34
f 25/6/31 96/41/36 71/16/36
f 27/4/30 75/42/52 74/43/30
f 37/44/39 80/45/53 79/20/39
f 47/46/41 85/47/32 84/23/41
f 57/25/42 90/14/35 89/48/42
f 67/28/44 95/17/37 94/49/44
f 33/31/46 78/21/38 77/50/46
f 43/34/48 83/24/40 82/51/48
f 53/37/50 88/26/43 87/52/50
f 65/30/45 92/53/51 63/39/51
f 31/33/47 75/42/52 29/54/52
f 39/55/53 81/35/49 80/45/53
f 120/56/3 145/57/54 98/58/55
f 30/59/14 100/60/14 99/61/14
f 34/62/14 100/60/14 32/63/14
f 36/64/14 101/65/14 34/62/14
f 38/66/14 102/67/14 36/64/14
f 38/66/14 104/68/14 103/69/14
f 42/70/14 104/68/14 40/71/14
f 42/70/14 106/72/14 105/73/14
f 44/74/14 107/75/14 106/72/14
f 110/76/12 148/77/56 111/78/57
f 56/79/14 111/80/14 54/81/14
f 58/82/14 112/83/14 56/79/14
f 58/82/14 114/84/14 113/85/14
f 60/86/14 115/87/14 114/84/14
f 64/88/14 115/87/14 62/89/14
f 66/90/14 116/91/14 64/88/14
f 66/90/14 118/92/14 117/93/14
f 70/94/14 118/92/14 68/95/14
f 26/96/58 155/97/11 72/98/11
f 42/99/59 130/100/60 44/101/60
f 72/102/61 122/103/62 26/104/62
f 30/105/63 121/106/64 123/107/63
f 60/108/65 137/2/65 138/109/65
f 44/101/60 131/110/66 46/111/66
f 32/112/67 123/107/63 124/113/67
f 62/114/65 138/109/65 139/115/65
f 46/111/66 132/116/68 48/117/68
f 34/118/69 124/113/67 125/119/69
f 62/114/65 140/120/65 64/121/65
f 48/117/68 133/122/70 50/123/70
f 36/124/71 125/119/69 126/125/71
f 64/121/65 141/126/65 66/127/65
f 52/128/72 133/122/70 134/129/72
f 36/124/71 127/130/73 38/131/73
f 68/132/74 141/133/75 142/134/76
f 54/135/77 134/129/72 135/136/77
f 38/131/73 128/137/78 40/138/78
f 68/132/74 143/139/79 70/140/79
f 56/1/27 135/136/77 136/141/80
f 40/138/78 129/142/59 42/99/59
f 70/140/79 144/143/61 72/102/61
f 28/144/64 122/103/62 121/106/64
f 135/145/14 127/146/14 123/147/14
f 153/148/14 146/149/14 152/150/14
f 154/151/81 147/152/14 153/148/14
f 156/153/82 149/154/14 150/155/83
f 151/156/14 149/154/14 155/157/14
f 52/158/4 152/159/84 50/160/84
f 54/161/85 153/162/4 52/158/4
f 109/163/86 147/152/12 110/76/12
f 72/98/11 156/164/87 70/165/88
f 119/166/89 149/154/3 120/56/3
f 98/58/15 151/167/15 26/96/15
f 205/168/90 218/169/90 219/170/90
f 206/171/17 204/172/17 203/173/17
f 109/163/15 152/159/15 146/149/15
f 26/174/14 97/175/14 98/176/14
f 26/174/14 28/177/14 97/175/14
f 107/75/14 46/178/14 48/179/14
f 28/177/14 30/59/14 99/61/14
f 28/177/14 99/61/14 97/175/14
f 50/180/14 108/181/14 48/179/14
f 109/182/14 108/181/14 50/180/14
f 108/181/14 107/75/14 48/179/14
f 210/183/91 160/184/92 209/185/93
f 212/186/94 162/187/95 161/188/94
f 158/189/96 218/169/97 207/190/98
f 208/191/91 157/192/99 204/193/91
f 212/186/13 159/194/13 210/183/13
f 206/171/94 158/189/96 207/190/98
f 156/195/87 165/196/13 70/197/88
f 150/198/83 166/199/100 156/195/82
f 119/200/101 165/196/102 163/201/103
f 150/202/104 163/201/17 164/203/17
f 148/204/105 168/205/106 169/206/107
f 111/207/108 167/208/109 54/209/110
f 148/204/56 170/210/13 111/207/57
f 154/211/111 167/208/17 168/212/17
f 172/213/15 171/214/15 173/215/15
f 176/216/15 177/217/15 178/218/15
f 173/215/17 208/219/17 206/220/17
f 172/213/13 205/221/13 174/222/13
f 171/223/91 205/221/112 208/224/91
f 172/213/94 206/220/94 207/225/98
f 178/218/13 210/226/13 176/227/13
f 177/217/94 212/228/94 178/218/94
f 176/229/91 209/230/93 175/231/91
f 177/217/17 209/230/17 211/232/17
f 221/233/17 220/234/17 217/235/17
f 224/236/17 254/237/17 236/238/17
f 162/187/95 220/234/113 215/239/114
f 209/185/93 216/240/115 217/241/116
f 209/242/117 220/234/117 211/243/117
f 205/244/112 213/245/118 157/192/99
f 158/189/119 226/246/119 214/247/119
f 221/248/120 162/187/120 215/239/120
f 160/184/120 224/249/120 216/240/120
f 227/250/119 157/192/119 213/245/119
f 227/251/13 219/170/13 218/169/13
f 225/252/121 247/253/122 226/254/121
f 222/255/123 236/238/124 229/256/125
f 223/257/126 238/258/127 224/259/126
f 228/260/128 251/261/129 244/262/130
f 250/263/131 241/264/132 245/265/133
f 246/266/17 241/267/17 242/268/17
f 249/269/13 250/270/13 251/261/13
f 230/271/134 239/272/135 232/273/136
f 229/274/125 237/275/137 231/276/137
f 231/276/138 235/277/139 230/271/134
f 239/272/135 234/278/140 232/273/136
f 240/279/141 233/280/142 234/278/143
f 248/281/144 243/282/145 241/264/132
f 249/283/146 242/284/147 243/282/146
f 244/262/130 252/285/148 246/286/149
f 246/286/150 250/263/131 245/265/133
f 222/255/13 253/287/13 233/280/13
f 233/280/13 253/287/13 234/288/13
f 230/289/13 253/287/13 231/290/13
f 231/290/13 253/287/13 229/256/13
f 234/288/13 253/287/13 232/291/13
f 232/291/13 253/287/13 230/289/13
f 236/238/17 254/237/17 237/292/17
f 237/292/17 254/237/17 235/293/17
f 240/294/17 254/237/17 238/295/17
f 235/293/17 254/237/17 239/296/17
f 239/296/17 254/237/17 240/294/17
f 136/297/14 138/298/14 137/299/14
f 139/300/14 255/301/14 140/302/14
f 140/302/14 142/303/14 141/304/14
f 138/298/14 255/301/14 139/300/14
f 56/1/27 136/141/80 137/2/28
f 27/4/30 74/43/30 73/5/31
f 96/9/16 73/305/16 74/306/16
f 74/306/16 75/307/16 76/308/16
f 76/308/16 77/309/16 78/310/16
f 78/310/16 79/311/16 80/7/16
f 80/7/16 81/312/16 82/313/16
f 82/313/16 83/314/16 84/315/16
f 84/315/16 85/316/16 86/317/16
f 86/317/16 87/318/16 88/8/16
f 88/8/16 89/319/16 90/320/16
f 90/320/16 91/321/16 92/322/16
f 92/322/16 93/323/16 94/324/16
f 94/324/16 95/325/16 96/9/16
f 96/9/16 74/306/16 76/308/16
f 76/308/16 78/310/16 80/7/16
f 80/7/16 82/313/16 84/315/16
f 84/315/16 86/317/16 88/8/16
f 88/8/16 90/320/16 92/322/16
f 92/322/16 94/324/16 96/9/16
f 96/9/16 76/308/16 80/7/16
f 80/7/16 84/315/16 88/8/16
f 88/8/16 92/322/16 96/9/16
f 49/10/32 51/38/33 86/11/33
f 61/13/34 91/40/34 90/14/35
f 71/16/36 96/41/36 95/17/37
f 35/19/38 37/44/39 79/20/39
f 45/22/40 47/46/41 84/23/41
f 57/25/42 89/48/42 88/26/43
f 67/28/44 94/49/44 93/29/45
f 33/31/46 77/50/46 76/32/47
f 43/34/48 82/51/48 81/35/49
f 53/37/50 87/52/50 86/11/33
f 63/39/51 92/53/51 91/40/34
f 25/6/31 73/5/31 96/41/36
f 27/4/30 29/54/52 75/42/52
f 37/44/39 39/55/53 80/45/53
f 47/46/41 49/326/32 85/47/32
f 57/25/42 59/15/35 90/14/35
f 67/28/44 69/18/37 95/17/37
f 33/31/46 35/19/38 78/21/38
f 43/34/48 45/22/40 83/24/40
f 53/37/50 55/27/43 88/26/43
f 65/30/45 93/29/45 92/53/51
f 31/33/47 76/32/47 75/42/52
f 39/55/53 41/36/49 81/35/49
f 120/56/3 149/154/3 145/57/54
f 30/59/14 32/63/14 100/60/14
f 34/62/14 101/65/14 100/60/14
f 36/64/14 102/67/14 101/65/14
f 38/66/14 103/69/14 102/67/14
f 38/66/14 40/71/14 104/68/14
f 42/70/14 105/73/14 104/68/14
f 42/70/14 44/74/14 106/72/14
f 44/74/14 46/178/14 107/75/14
f 110/76/12 147/152/12 148/77/56
f 56/79/14 112/83/14 111/80/14
f 58/82/14 113/85/14 112/83/14
f 58/82/14 60/86/14 114/84/14
f 60/86/14 62/89/14 115/87/14
f 64/88/14 116/91/14 115/87/14
f 66/90/14 117/93/14 116/91/14
f 66/90/14 68/95/14 118/92/14
f 70/94/14 119/327/14 118/92/14
f 26/96/58 151/167/58 155/97/11
f 42/99/59 129/142/59 130/100/60
f 72/102/61 144/143/61 122/103/62
f 30/105/63 28/144/64 121/106/64
f 60/108/65 58/3/65 137/2/65
f 44/101/60 130/100/60 131/110/66
f 32/112/67 30/105/63 123/107/63
f 62/114/65 60/108/65 138/109/65
f 46/111/66 131/110/66 132/116/68
f 34/118/69 32/112/67 124/113/67
f 62/114/65 139/115/65 140/120/65
f 48/117/68 132/116/68 133/122/70
f 36/124/71 34/118/69 125/119/69
f 64/121/65 140/120/65 141/126/65
f 52/128/72 50/123/70 133/122/70
f 36/124/71 126/125/71 127/130/73
f 68/132/74 66/328/151 141/133/75
f 54/135/77 52/128/72 134/129/72
f 38/131/73 127/130/73 128/137/78
f 68/132/74 142/134/76 143/139/79
f 56/1/27 54/135/77 135/136/77
f 40/138/78 128/137/78 129/142/59
f 70/140/79 143/139/79 144/143/61
f 28/144/64 26/104/62 122/103/62
f 123/147/14 121/329/14 122/330/14
f 122/330/14 144/331/25 143/332/14
f 143/332/14 142/303/14 255/301/14
f 255/301/14 136/297/14 135/145/14
f 135/145/14 134/333/21 133/334/14
f 133/334/14 132/335/14 131/336/14
f 131/336/14 130/337/14 129/338/14
f 129/338/14 128/339/14 127/146/14
f 127/146/14 126/340/14 125/341/14
f 125/341/14 124/342/14 123/147/14
f 123/147/14 122/330/14 143/332/14
f 143/332/14 255/301/14 135/145/14
f 135/145/14 133/334/14 131/336/14
f 131/336/14 129/338/14 127/146/14
f 127/146/14 125/341/14 123/147/14
f 123/147/14 143/332/14 135/145/14
f 135/145/14 131/336/14 127/146/14
f 153/148/14 147/152/14 146/149/14
f 154/151/81 148/343/105 147/152/14
f 156/153/82 155/157/14 149/154/14
f 151/156/14 145/57/14 149/154/14
f 52/158/4 153/162/4 152/159/84
f 54/161/85 154/344/111 153/162/4
f 109/163/86 146/149/152 147/152/12
f 72/98/11 155/97/11 156/164/87
f 119/166/89 150/345/104 149/154/3
f 98/58/15 145/57/15 151/167/15
f 205/168/90 207/346/90 218/169/90
f 206/171/17 208/347/17 204/172/17
f 109/163/15 50/160/15 152/159/15
f 210/183/91 159/194/91 160/184/92
f 212/186/94 211/348/153 162/187/95
f 158/189/96 214/247/154 218/169/97
f 208/191/91 205/244/112 157/192/99
f 212/186/13 161/188/13 159/194/13
f 206/171/94 203/173/94 158/189/96
f 156/195/155 166/199/13 165/196/13
f 150/198/156 164/349/157 166/199/158
f 119/200/101 70/197/159 165/196/102
f 150/202/104 119/200/89 163/201/17
f 148/204/105 154/350/81 168/205/106
f 111/207/108 170/210/160 167/208/161
f 148/204/162 169/206/13 170/210/13
f 154/211/111 54/209/85 167/208/17
f 172/213/15 174/351/15 171/214/15
f 176/216/15 175/352/15 177/217/15
f 173/215/17 171/353/17 208/219/17
f 172/213/13 207/225/13 205/221/13
f 171/223/91 174/222/91 205/221/112
f 172/213/94 173/215/94 206/220/94
f 178/218/13 212/228/13 210/226/13
f 177/217/94 211/232/153 212/228/94
f 176/229/91 210/354/91 209/230/93
f 177/217/17 175/231/17 209/230/17
f 217/235/17 216/355/17 224/356/17
f 221/233/17 215/239/17 220/234/17
f 217/235/17 224/356/17 221/233/17
f 236/238/17 221/357/17 224/236/17
f 224/236/17 238/295/17 254/237/17
f 162/187/95 211/348/153 220/234/113
f 209/185/93 160/184/92 216/240/115
f 209/242/117 217/235/117 220/234/117
f 205/244/112 219/170/163 213/245/118
f 158/189/119 225/358/119 226/246/119
f 221/248/120 222/359/120 162/187/120
f 160/184/120 223/360/120 224/249/120
f 227/250/119 228/361/119 157/192/119
f 218/169/13 214/247/13 226/362/13
f 227/251/13 213/245/13 219/170/13
f 218/169/13 226/362/13 227/251/13
f 225/252/121 242/268/147 247/253/122
f 222/255/123 221/357/123 236/238/124
f 223/257/126 233/280/142 238/258/127
f 228/260/128 227/363/128 251/261/129
f 250/263/131 248/281/144 241/264/132
f 242/268/17 225/252/17 228/364/17
f 228/364/17 244/365/17 246/266/17
f 246/266/17 245/366/17 241/267/17
f 241/267/17 243/367/17 242/268/17
f 242/268/17 228/364/17 246/266/17
f 251/261/13 227/363/13 226/254/13
f 226/254/13 247/253/13 249/269/13
f 249/269/13 248/368/13 250/270/13
f 250/270/13 252/369/13 251/261/13
f 251/261/13 226/254/13 249/269/13
f 230/271/134 235/277/139 239/272/135
f 229/274/125 236/370/124 237/275/137
f 231/276/138 237/275/138 235/277/139
f 239/272/135 240/279/140 234/278/140
f 240/279/141 238/258/127 233/280/142
f 248/281/144 249/283/145 243/282/145
f 249/283/146 247/371/122 242/284/147
f 244/262/130 251/261/129 252/285/148
f 246/286/150 252/285/150 250/263/131
f 233/280/13 223/257/13 222/255/13
f 222/255/13 229/256/13 253/287/13
f 136/297/14 255/301/14 138/298/14
f 140/302/14 255/301/14 142/303/14
usemtl SpacialRoverExploreralumGray
f 186/372/165 1/373/166 8/374/167
f 185/375/168 8/374/169 7/376/170
f 6/377/171 185/375/172 7/376/173
f 5/378/174 184/379/175 6/377/176
f 4/380/177 183/381/178 5/378/177
f 3/382/179 182/383/180 4/384/179
f 180/385/181 3/382/182 2/386/183
f 179/387/184 2/386/185 1/373/185
f 269/388/17 277/389/17 270/390/17
f 263/391/17 259/392/17 258/393/17
f 257/394/186 262/395/186 260/396/186
f 257/394/14 258/393/14 259/397/14
f 261/398/187 258/393/187 256/399/187
f 265/400/15 279/401/15 268/402/15
f 273/403/16 277/404/16 279/405/16
f 271/406/18 273/407/18 266/408/18
f 277/389/6 271/406/6 270/390/6
f 267/409/9 273/407/9 272/410/9
f 265/400/8 275/411/8 274/412/8
f 269/413/1 279/401/1 278/414/1
f 267/409/13 275/411/13 264/415/13
f 282/416/16 297/417/16 283/418/16
f 283/418/17 297/417/17 315/419/17
f 284/420/13 300/421/13 314/422/13
f 280/423/16 309/424/16 287/425/16
f 286/426/14 291/427/14 281/428/14
f 285/429/14 300/421/14 284/420/14
f 294/430/18 303/431/18 298/432/18
f 310/433/18 292/434/18 306/435/18
f 290/436/22 310/437/22 311/438/22
f 298/439/22 296/440/22 294/441/22
f 299/442/164 295/443/164 296/440/164
f 292/434/24 308/444/24 306/435/24
f 293/445/23 307/446/23 308/444/23
f 304/447/23 302/448/23 300/421/23
f 305/449/24 301/450/24 302/448/24
f 281/428/13 291/427/13 313/451/13
f 289/452/164 311/438/164 309/424/164
f 308/453/17 307/446/17 312/454/17
f 289/455/13 313/451/13 290/456/13
f 312/454/17 286/426/17 287/425/17
f 312/454/17 309/424/17 311/457/17
f 310/458/17 306/459/17 312/454/17
f 311/457/17 310/458/17 312/454/17
f 312/454/17 306/459/17 308/453/17
f 290/456/13 313/451/13 288/460/13
f 292/461/13 313/451/13 293/462/13
f 288/460/13 313/451/13 292/461/13
f 293/462/13 313/451/13 291/427/13
f 295/463/13 314/422/13 296/464/13
f 296/464/13 314/422/13 294/465/13
f 302/466/13 314/422/13 300/421/13
f 294/465/13 314/422/13 301/467/13
f 301/467/13 314/422/13 302/466/13
f 304/447/17 315/419/17 305/468/17
f 305/468/17 315/419/17 303/469/17
f 299/470/17 315/419/17 297/417/17
f 303/469/17 315/419/17 298/471/17
f 298/471/17 315/419/17 299/470/17
f 261/398/13 257/472/13 260/473/13
f 260/474/16 262/475/16 271/476/16
f 271/476/16 262/475/16 270/477/16
f 263/391/16 269/478/16 262/475/16
f 269/478/16 263/391/16 268/479/16
f 268/479/16 263/391/16 261/398/16
f 265/480/16 268/479/16 261/398/16
f 260/474/16 271/476/16 266/481/16
f 264/482/16 265/480/16 261/398/16
f 260/474/16 266/481/16 267/483/16
f 260/474/16 267/483/16 264/482/16
f 260/474/16 264/482/16 261/398/16
f 269/478/16 270/477/16 262/475/16
f 282/416/16 295/443/16 297/417/16
f 304/447/17 285/429/17 315/419/17
f 285/429/17 283/418/17 315/419/17
f 295/463/13 282/484/13 314/422/13
f 282/484/13 284/420/13 314/422/13
f 280/423/16 289/452/16 309/424/16
f 286/426/14 307/446/14 291/427/14
f 285/429/14 304/447/14 300/421/14
f 294/430/18 301/450/18 303/431/18
f 310/433/18 288/485/18 292/434/18
f 290/436/22 288/486/22 310/437/22
f 298/439/22 299/442/22 296/440/22
f 299/442/164 297/417/164 295/443/164
f 292/434/24 293/445/24 308/444/24
f 293/445/23 291/427/23 307/446/23
f 304/447/23 305/449/23 302/448/23
f 305/449/24 303/431/24 301/450/24
f 289/455/13 280/487/13 313/451/13
f 280/487/13 281/428/13 313/451/13
f 289/452/164 290/436/164 311/438/164
f 287/425/17 309/424/17 312/454/17
f 312/454/17 307/446/17 286/426/17
f 329/388/17 337/389/17 330/390/17
f 323/391/17 319/392/17 318/393/17
f 317/394/186 322/395/186 320/396/186
f 317/394/14 318/393/14 319/397/14
f 321/398/187 318/393/187 316/399/187
f 325/400/15 339/401/15 328/402/15
f 333/403/16 337/404/16 339/405/16
f 331/406/18 333/407/18 326/408/18
f 337/389/6 331/406/6 330/390/6
f 327/409/9 333/407/9 332/410/9
f 325/400/8 335/411/8 334/412/8
f 329/413/1 339/401/1 338/414/1
f 327/409/13 335/411/13 324/415/13
f 342/416/16 357/417/16 343/418/16
f 343/418/17 357/417/17 375/419/17
f 344/420/13 360/421/13 374/422/13
f 340/423/16 369/424/16 347/425/16
f 346/426/14 351/427/14 341/428/14
f 345/429/14 360/421/14 344/420/14
f 354/430/18 363/431/18 358/432/18
f 370/433/18 352/434/18 366/435/18
f 350/436/22 370/437/22 371/438/22
f 358/439/22 356/440/22 354/441/22
f 359/442/164 355/443/164 356/440/164
f 352/434/24 368/444/24 366/435/24
f 353/445/23 367/446/23 368/444/23
f 364/447/23 362/448/23 360/421/23
f 365/449/24 361/450/24 362/448/24
f 341/428/13 351/427/13 373/451/13
f 349/452/164 371/438/164 369/424/164
f 368/453/17 367/446/17 372/454/17
f 349/455/13 373/451/13 350/456/13
f 372/454/17 346/426/17 347/425/17
f 372/454/17 369/424/17 371/457/17
f 370/458/17 366/459/17 372/454/17
f 371/457/17 370/458/17 372/454/17
f 372/454/17 366/459/17 368/453/17
f 350/456/13 373/451/13 348/460/13
f 352/461/13 373/451/13 353/462/13
f 348/460/13 373/451/13 352/461/13
f 353/462/13 373/451/13 351/427/13
f 355/463/13 374/422/13 356/464/13
f 356/464/13 374/422/13 354/465/13
f 362/466/13 374/422/13 360/421/13
f 354/465/13 374/422/13 361/467/13
f 361/467/13 374/422/13 362/466/13
f 364/447/17 375/419/17 365/468/17
f 365/468/17 375/419/17 363/469/17
f 359/470/17 375/419/17 357/417/17
f 363/469/17 375/419/17 358/471/17
f 358/471/17 375/419/17 359/470/17
f 321/398/13 317/472/13 320/473/13
f 320/474/16 322/475/16 331/476/16
f 331/476/16 322/475/16 330/477/16
f 323/391/16 329/478/16 322/475/16
f 329/478/16 323/391/16 328/479/16
f 328/479/16 323/391/16 321/398/16
f 325/480/16 328/479/16 321/398/16
f 320/474/16 331/476/16 326/481/16
f 324/482/16 325/480/16 321/398/16
f 320/474/16 326/481/16 327/483/16
f 320/474/16 327/483/16 324/482/16
f 320/474/16 324/482/16 321/398/16
f 329/478/16 330/477/16 322/475/16
f 342/416/16 355/443/16 357/417/16
f 364/447/17 345/429/17 375/419/17
f 345/429/17 343/418/17 375/419/17
f 355/463/13 342/484/13 374/422/13
f 342/484/13 344/420/13 374/422/13
f 340/423/16 349/452/16 369/424/16
f 346/426/14 367/446/14 351/427/14
f 345/429/14 364/447/14 360/421/14
f 354/430/18 361/450/18 363/431/18
f 370/433/18 348/485/18 352/434/18
f 350/436/22 348/486/22 370/437/22
f 358/439/22 359/442/22 356/440/22
f 359/442/164 357/417/164 355/443/164
f 352/434/24 353/445/24 368/444/24
f 353/445/23 351/427/23 367/446/23
f 364/447/23 365/449/23 362/448/23
f 365/449/24 363/431/24 361/450/24
f 349/455/13 340/487/13 373/451/13
f 340/487/13 341/428/13 373/451/13
f 349/452/164 350/436/164 371/438/164
f 347/425/17 369/424/17 372/454/17
f 372/454/17 367/446/17 346/426/17
f 186/372/165 179/387/188 1/373/166
f 185/375/168 186/372/168 8/374/169
f 6/377/171 184/379/189 185/375/172
f 5/378/174 183/381/175 184/379/175
f 4/380/177 182/488/190 183/381/178
f 3/382/179 181/489/180 182/383/180
f 180/385/181 181/489/181 3/382/182
f 179/387/184 180/385/191 2/386/185
f 269/388/17 278/490/17 277/389/17
f 263/391/17 262/491/17 259/392/17
f 257/394/186 259/397/186 262/395/186
f 257/394/14 256/399/14 258/393/14
f 261/398/187 263/391/187 258/393/187
f 265/400/15 274/412/15 279/401/15
f 279/405/16 274/492/16 275/493/16
f 275/493/16 272/494/16 273/403/16
f 273/403/16 276/495/16 277/404/16
f 277/404/16 278/496/16 279/405/16
f 279/405/16 275/493/16 273/403/16
f 271/406/18 276/497/18 273/407/18
f 277/389/6 276/497/6 271/406/6
f 267/409/9 266/408/9 273/407/9
f 265/400/8 264/415/8 275/411/8
f 269/413/1 268/402/1 279/401/1
f 267/409/13 272/410/13 275/411/13
f 261/398/13 256/399/13 257/472/13
f 329/388/17 338/490/17 337/389/17
f 323/391/17 322/491/17 319/392/17
f 317/394/186 319/397/186 322/395/186
f 317/394/14 316/399/14 318/393/14
f 321/398/187 323/391/187 318/393/187
f 325/400/15 334/412/15 339/401/15
f 339/405/16 334/492/16 335/493/16
f 335/493/16 332/494/16 333/403/16
f 333/403/16 336/495/16 337/404/16
f 337/404/16 338/496/16 339/405/16
f 339/405/16 335/493/16 333/403/16
f 331/406/18 336/497/18 333/407/18
f 337/389/6 336/497/6 331/406/6
f 327/409/9 326/408/9 333/407/9
f 325/400/8 324/415/8 335/411/8
f 329/413/1 328/402/1 339/401/1
f 327/409/13 332/410/13 335/411/13
f 321/398/13 316/399/13 317/472/13
f 435/498/17 436/499/4 434/500/17
f 437/501/4 438/502/192 436/499/4
f 439/503/192 440/504/1 438/502/192
f 441/505/1 442/506/193 440/504/1
f 443/507/193 444/508/2 442/506/193
f 445/509/2 446/510/15 444/508/2
f 447/511/15 448/512/7 446/510/15
f 449/513/7 450/514/194 448/512/7
f 451/515/194 452/516/8 450/514/194
f 453/517/8 454/518/195 452/516/8
f 455/519/195 456/520/19 454/518/195
f 458/521/16 530/522/16 532/523/16
f 458/521/16 534/524/16 460/525/16
f 461/526/20 462/527/196 460/528/20
f 463/529/196 464/530/9 462/527/196
f 465/531/9 466/532/197 464/530/9
f 467/533/197 468/534/10 466/532/197
f 469/535/10 470/536/18 468/534/10
f 471/537/18 472/538/5 470/536/18
f 473/539/5 474/540/198 472/538/5
f 475/541/198 476/542/6 474/540/198
f 477/543/6 478/544/199 476/542/6
f 441/545/14 502/546/14 499/547/200
f 471/548/14 463/549/14 491/550/14
f 479/551/199 480/552/3 478/544/199
f 481/553/3 434/500/17 480/552/3
f 440/554/16 448/555/16 509/556/16
f 464/557/16 472/558/16 521/559/16
f 459/560/14 535/561/14 533/562/14
f 460/525/18 535/561/18 461/563/18
f 457/564/15 530/522/15 456/565/15
f 459/560/14 531/566/14 457/567/14
f 435/498/17 437/501/4 436/499/4
f 437/501/4 439/503/192 438/502/192
f 439/503/192 441/505/1 440/504/1
f 441/505/1 443/507/193 442/506/193
f 443/507/193 445/509/2 444/508/2
f 445/509/2 447/511/15 446/510/15
f 447/511/15 449/513/7 448/512/7
f 449/513/7 451/515/194 450/514/194
f 451/515/194 453/517/8 452/516/8
f 453/517/8 455/519/195 454/518/195
f 455/519/195 457/568/19 456/520/19
f 458/521/16 456/565/16 530/522/16
f 458/521/16 532/523/16 534/524/16
f 461/526/20 463/529/196 462/527/196
f 463/529/196 465/531/9 464/530/9
f 465/531/9 467/533/197 466/532/197
f 467/533/197 469/535/10 468/534/10
f 469/535/10 471/537/18 470/536/18
f 471/537/18 473/539/5 472/538/5
f 473/539/5 475/541/198 474/540/198
f 475/541/198 477/543/6 476/542/6
f 477/543/6 479/551/199 478/544/199
f 498/569/14 447/570/14 445/571/14
f 445/571/14 443/572/14 441/545/14
f 441/545/14 439/573/14 505/574/14
f 441/545/14 505/574/14 496/575/14
f 498/569/14 445/571/14 441/545/14
f 499/547/200 498/569/14 441/545/14
f 441/545/14 496/575/14 502/546/14
f 487/576/14 505/574/14 439/573/14
f 439/573/14 437/577/14 435/578/14
f 435/578/14 481/579/14 479/580/14
f 479/580/14 477/581/14 475/582/14
f 475/582/14 473/583/14 471/548/14
f 471/548/14 469/584/14 467/585/14
f 467/585/14 465/586/14 463/549/14
f 463/549/14 461/587/14 459/588/14
f 459/588/14 457/589/14 455/590/14
f 455/590/14 453/591/14 451/592/14
f 451/592/14 449/593/14 447/570/14
f 447/570/14 498/569/14 501/594/14
f 447/570/14 501/594/14 500/595/14
f 455/590/14 451/592/14 447/570/14
f 463/549/14 459/588/14 455/590/14
f 471/548/14 467/585/14 463/549/14
f 479/580/14 475/582/14 471/548/14
f 439/573/14 435/578/14 479/580/14
f 488/596/201 487/576/14 439/573/14
f 485/597/14 488/596/201 439/573/14
f 455/590/14 447/570/14 500/595/14
f 455/590/14 500/595/14 497/598/14
f 485/597/14 439/573/14 479/580/14
f 486/599/14 485/597/14 479/580/14
f 455/590/14 497/598/14 504/600/14
f 455/590/14 504/600/14 493/601/14
f 483/602/14 486/599/14 479/580/14
f 484/603/14 483/602/14 479/580/14
f 463/549/14 455/590/14 493/601/14
f 463/549/14 493/601/14 494/604/202
f 484/603/14 479/580/14 471/548/14
f 482/605/14 484/603/14 471/548/14
f 463/549/14 494/604/202 492/606/14
f 463/549/14 492/606/14 495/607/14
f 503/608/14 482/605/14 471/548/14
f 489/609/14 503/608/14 471/548/14
f 463/549/14 495/607/14 490/610/14
f 491/550/14 489/609/14 471/548/14
f 463/549/14 490/610/14 491/550/14
f 479/551/199 481/553/3 480/552/3
f 481/553/3 435/498/17 434/500/17
f 510/611/16 512/612/16 440/554/16
f 440/554/16 442/613/16 444/614/16
f 444/614/16 446/615/16 448/555/16
f 448/555/16 528/616/16 511/617/16
f 509/556/16 510/611/16 440/554/16
f 448/555/16 511/617/16 509/556/16
f 440/554/16 444/614/16 448/555/16
f 518/618/16 528/616/16 448/555/16
f 448/555/16 450/619/16 452/620/16
f 452/620/16 454/621/16 456/622/16
f 456/622/16 458/623/16 460/624/16
f 460/624/16 462/625/16 464/557/16
f 464/557/16 466/626/16 468/627/16
f 468/627/16 470/628/16 472/558/16
f 472/558/16 474/629/16 476/630/16
f 476/630/16 478/631/16 480/632/16
f 480/632/16 434/633/16 436/634/16
f 436/634/16 438/635/16 440/554/16
f 440/554/16 512/612/16 507/636/16
f 440/554/16 507/636/16 508/637/16
f 480/632/16 436/634/16 440/554/16
f 472/558/16 476/630/16 480/632/16
f 464/557/16 468/627/16 472/558/16
f 456/622/16 460/624/16 464/557/16
f 448/555/16 452/620/16 456/622/16
f 519/638/203 518/618/16 448/555/16
f 516/639/16 519/638/203 448/555/16
f 480/632/16 440/554/16 508/637/16
f 480/632/16 508/637/16 506/640/16
f 516/639/16 448/555/16 456/622/16
f 517/641/16 516/639/16 456/622/16
f 480/632/16 506/640/16 529/642/16
f 480/632/16 529/642/16 523/643/16
f 514/644/16 517/641/16 456/622/16
f 515/645/16 514/644/16 456/622/16
f 472/558/16 480/632/16 523/643/16
f 472/558/16 523/643/16 524/646/204
f 515/645/16 456/622/16 464/557/16
f 513/647/16 515/645/16 464/557/16
f 472/558/16 524/646/204 526/648/16
f 472/558/16 526/648/16 522/649/16
f 527/650/16 513/647/16 464/557/16
f 525/651/16 527/650/16 464/557/16
f 472/558/16 522/649/16 520/652/16
f 521/559/16 525/651/16 464/557/16
f 472/558/16 520/652/16 521/559/16
f 459/560/14 461/563/14 535/561/14
f 460/525/18 534/524/18 535/561/18
f 457/564/15 531/653/15 530/522/15
f 459/560/14 533/562/14 531/566/14
usemtl SpacialRoverExploreralumBlack
f 186/654/205 189/655/205 179/656/205
f 179/656/206 196/657/206 180/658/206
f 180/658/207 197/659/207 181/660/207
f 182/661/208 197/659/208 198/662/208
f 183/663/209 198/664/209 199/665/209
f 8/666/210 21/667/211 7/668/211
f 5/669/212 19/670/213 17/671/212
f 4/672/214 13/673/215 3/674/215
f 1/675/216 11/676/217 24/677/216
f 1/675/216 23/678/210 8/666/210
f 6/679/213 21/667/211 19/670/213
f 5/669/212 15/680/214 4/672/214
f 2/681/218 13/673/215 11/676/217
f 23/682/219 9/683/220 22/684/221
f 21/685/222 22/684/223 20/686/224
f 18/687/225 21/685/226 20/686/227
f 16/688/228 19/689/229 18/687/230
f 14/690/231 17/691/232 16/692/233
f 12/693/234 15/694/235 14/690/236
f 11/695/237 12/693/238 10/696/239
f 24/697/240 10/696/241 9/683/242
f 188/698/243 196/699/243 189/700/243
f 187/701/244 197/659/244 196/699/244
f 197/659/245 191/702/245 198/662/245
f 198/703/246 192/704/246 199/705/246
f 199/705/247 193/706/247 200/707/247
f 200/707/248 194/708/248 201/709/248
f 194/708/249 202/710/249 201/709/249
f 195/711/250 189/700/250 202/712/250
f 185/713/251 202/714/251 186/654/251
f 185/713/252 200/715/252 201/716/252
f 184/717/253 199/665/253 200/715/253
f 186/654/205 202/714/205 189/655/205
f 179/656/206 189/655/206 196/657/206
f 180/658/207 196/657/207 197/659/207
f 182/661/208 181/660/208 197/659/208
f 183/663/209 182/718/254 198/664/209
f 8/666/210 23/678/210 21/667/211
f 5/669/212 6/679/213 19/670/213
f 4/672/214 15/680/214 13/673/215
f 1/675/216 2/681/218 11/676/217
f 1/675/216 24/677/216 23/678/210
f 6/679/213 7/668/211 21/667/211
f 5/669/212 17/671/212 15/680/214
f 2/681/218 3/674/215 13/673/215
f 23/682/219 24/697/255 9/683/220
f 21/685/222 23/682/256 22/684/223
f 18/687/257 19/689/258 21/685/226
f 16/688/228 17/719/259 19/689/229
f 14/690/231 15/694/260 17/691/232
f 12/693/261 13/720/262 15/694/263
f 11/695/237 13/720/264 12/693/238
f 24/697/240 11/695/265 10/696/241
f 188/698/243 187/701/243 196/699/243
f 187/701/244 190/721/244 197/659/244
f 197/659/245 190/721/245 191/702/245
f 198/703/246 191/722/246 192/704/246
f 199/705/247 192/704/247 193/706/247
f 200/707/248 193/706/248 194/708/248
f 194/708/249 195/723/249 202/710/249
f 195/711/250 188/698/250 189/700/250
f 185/713/251 201/716/251 202/714/251
f 185/713/252 184/717/252 200/715/252
f 184/717/253 183/663/253 199/665/253
usemtl SpacialRoverExploreralumOrange
f 98/724/55 27/725/4 25/726/17
f 97/727/4 29/728/192 27/725/4
f 99/729/192 31/730/1 29/728/192
f 100/731/1 33/732/193 31/730/1
f 101/733/193 35/734/2 33/732/193
f 102/735/2 37/736/15 35/734/2
f 103/737/15 39/738/7 37/736/15
f 104/739/7 41/740/194 39/738/7
f 105/741/194 43/742/8 41/740/194
f 106/743/8 45/744/195 43/742/8
f 107/745/195 47/746/11 45/744/195
f 108/747/11 49/748/13 47/746/11
f 109/749/86 51/750/12 49/751/13
f 110/752/12 53/753/196 51/750/12
f 111/754/57 55/755/9 53/753/196
f 112/756/9 57/757/197 55/755/9
f 113/758/197 59/759/10 57/757/197
f 114/760/10 61/761/18 59/759/10
f 115/762/18 63/763/5 61/761/18
f 116/764/5 65/765/198 63/763/5
f 117/766/198 67/767/6 65/765/198
f 118/768/6 69/769/199 67/767/6
f 119/770/89 71/771/3 69/769/199
f 120/772/3 25/726/17 71/771/3
f 98/724/55 97/727/4 27/725/4
f 97/727/4 99/729/192 29/728/192
f 99/729/192 100/731/1 31/730/1
f 100/731/1 101/733/193 33/732/193
f 101/733/193 102/735/2 35/734/2
f 102/735/2 103/737/15 37/736/15
f 103/737/15 104/739/7 39/738/7
f 104/739/7 105/741/194 41/740/194
f 105/741/194 106/743/8 43/742/8
f 106/743/8 107/745/195 45/744/195
f 107/745/195 108/747/11 47/746/11
f 108/747/11 109/773/86 49/748/13
f 109/749/86 110/752/12 51/750/12
f 110/752/12 111/754/57 53/753/196
f 111/754/57 112/756/9 55/755/9
f 112/756/9 113/758/197 57/757/197
f 113/758/197 114/760/10 59/759/10
f 114/760/10 115/762/18 61/761/18
f 115/762/18 116/764/5 63/763/5
f 116/764/5 117/766/198 65/765/198
f 117/766/198 118/768/6 67/767/6
f 118/768/6 119/770/89 69/769/199
f 119/770/89 120/772/3 71/771/3
f 120/772/3 98/724/55 25/726/17
usemtl SpacialRoverExploreralumGrayDeep
f 389/774/266 400/775/267 401/776/267
f 385/777/17 548/778/17 546/779/17
f 401/780/17 545/781/17 547/782/17
f 381/783/268 385/784/269 376/785/269
f 378/786/13 555/787/13 553/788/13
f 400/789/13 551/790/13 558/791/13
f 377/792/270 386/793/271 384/794/270
f 379/795/26 387/796/272 386/793/26
f 378/797/272 385/784/269 387/796/272
f 389/774/266 382/798/273 380/799/266
f 391/800/274 383/801/275 382/798/274
f 390/802/276 381/783/268 383/801/275
f 392/803/277 427/804/277 426/805/277
f 427/804/278 394/806/278 428/807/278
f 394/808/279 429/809/279 428/810/279
f 395/811/280 430/812/281 429/809/281
f 396/813/282 431/814/282 430/812/282
f 431/814/283 398/815/283 432/816/283
f 393/817/13 399/818/13 397/819/13
f 398/815/284 433/820/284 432/816/284
f 399/821/285 426/805/285 433/820/285
f 400/822/286 414/823/287 401/824/286
f 402/825/288 377/792/270 384/794/270
f 424/826/13 400/789/13 422/827/13
f 423/828/289 405/829/290 404/830/290
f 419/831/17 401/780/17 421/832/17
f 405/829/290 406/833/291 404/830/290
f 416/834/17 564/835/17 414/836/17
f 415/837/292 407/838/293 412/839/293
f 409/840/287 416/841/294 414/823/287
f 411/842/294 417/843/295 416/841/294
f 410/844/296 415/837/292 417/843/296
f 410/845/13 411/846/13 563/847/13
f 423/828/289 420/848/297 418/849/298
f 425/850/297 421/851/299 420/848/297
f 424/852/300 419/853/301 421/854/300
f 419/853/301 403/855/288 402/825/288
f 428/856/17 430/857/17 432/858/17
f 407/838/302 413/859/302 412/839/302
f 563/847/13 400/789/13 404/860/13
f 425/861/13 400/789/13 424/826/13
f 400/789/13 425/861/13 423/862/13
f 400/789/13 423/862/13 404/860/13
f 422/827/13 400/789/13 403/863/13
f 420/864/17 401/780/17 418/865/17
f 421/832/17 401/780/17 420/864/17
f 401/780/17 419/831/17 402/866/17
f 418/865/17 401/780/17 405/867/17
f 408/868/13 563/847/13 407/869/13
f 407/869/13 563/847/13 406/870/13
f 563/847/13 408/868/13 410/845/13
f 563/847/13 411/846/13 409/871/13
f 564/835/17 405/867/17 401/780/17
f 564/835/17 412/872/17 413/873/17
f 412/872/17 564/835/17 415/874/17
f 415/874/17 564/835/17 417/875/17
f 417/875/17 564/835/17 416/834/17
f 389/774/266 380/799/266 400/775/267
f 546/779/17 384/876/17 386/877/17
f 386/877/17 387/878/17 385/777/17
f 385/777/17 388/879/17 543/880/17
f 385/777/17 543/880/17 544/881/17
f 546/779/17 386/877/17 385/777/17
f 385/777/17 544/881/17 548/778/17
f 540/882/17 543/880/17 388/879/17
f 388/879/17 390/883/17 391/884/17
f 391/884/17 389/885/17 401/780/17
f 384/876/17 546/779/17 536/886/17
f 384/876/17 536/886/17 537/887/17
f 540/882/17 388/879/17 391/884/17
f 541/888/17 540/882/17 391/884/17
f 402/866/17 384/876/17 537/887/17
f 402/866/17 537/887/17 538/889/17
f 541/888/17 391/884/17 401/780/17
f 542/890/17 541/888/17 401/780/17
f 401/780/17 402/866/17 538/889/17
f 401/780/17 538/889/17 539/891/17
f 547/782/17 542/890/17 401/780/17
f 401/780/17 539/891/17 545/781/17
f 381/783/268 388/892/303 385/784/269
f 561/893/13 376/894/13 378/786/13
f 378/786/13 379/895/13 555/787/13
f 553/788/13 561/893/13 378/786/13
f 554/896/13 555/787/13 379/895/13
f 400/789/13 380/897/13 382/898/13
f 382/898/13 383/899/13 381/900/13
f 376/894/13 561/893/13 560/901/13
f 376/894/13 560/901/13 559/902/13
f 382/898/13 381/900/13 376/894/13
f 554/896/13 379/895/13 377/903/13
f 549/904/13 554/896/13 377/903/13
f 382/898/13 376/894/13 559/902/13
f 382/898/13 559/902/13 557/905/13
f 549/904/13 377/903/13 403/863/13
f 556/906/13 549/904/13 403/863/13
f 382/898/13 557/905/13 550/907/13
f 400/789/13 382/898/13 550/907/13
f 556/906/13 403/863/13 400/789/13
f 562/908/13 556/906/13 400/789/13
f 400/789/13 550/907/13 552/909/13
f 400/789/13 552/909/13 551/790/13
f 558/791/13 562/908/13 400/789/13
f 377/792/270 379/795/304 386/793/271
f 379/795/26 378/797/272 387/796/272
f 378/797/272 376/785/269 385/784/269
f 389/774/266 391/800/273 382/798/273
f 391/800/274 390/802/276 383/801/275
f 390/802/276 388/892/303 381/783/268
f 392/803/277 393/910/277 427/804/277
f 427/804/278 393/910/278 394/806/278
f 394/808/279 395/811/279 429/809/279
f 395/811/280 396/813/280 430/812/281
f 396/813/282 397/911/282 431/814/282
f 431/814/283 397/911/283 398/815/283
f 397/819/13 396/912/13 395/913/13
f 395/913/13 394/914/13 393/817/13
f 393/817/13 392/915/13 399/818/13
f 399/818/13 398/916/13 397/819/13
f 397/819/13 395/913/13 393/817/13
f 398/815/284 399/821/284 433/820/284
f 399/821/285 392/803/305 426/805/285
f 400/822/286 409/840/287 414/823/287
f 402/825/288 403/855/288 377/792/270
f 423/828/289 418/849/298 405/829/290
f 405/829/290 413/859/291 406/833/291
f 415/837/292 408/917/306 407/838/293
f 409/840/287 411/842/294 416/841/294
f 411/842/294 410/844/295 417/843/295
f 410/844/296 408/917/306 415/837/292
f 423/828/289 425/850/297 420/848/297
f 425/850/297 424/918/299 421/851/299
f 424/852/300 422/919/301 419/853/301
f 419/853/301 422/919/301 403/855/288
f 432/858/17 433/920/17 426/921/17
f 426/921/17 427/922/17 428/856/17
f 428/856/17 429/923/17 430/857/17
f 430/857/17 431/924/17 432/858/17
f 432/858/17 426/921/17 428/856/17
f 407/838/302 406/833/302 413/859/302
f 404/860/13 406/870/13 563/847/13
f 563/847/13 409/871/13 400/789/13
f 401/780/17 414/836/17 564/835/17
f 564/835/17 413/873/17 405/867/17
