# Pieza del RoverModificado
mtllib Rover.mtl
o PataMD
v -0.000155 0.150113 -0.350000
v -0.000155 0.150113 0.350001
v 0.074844 0.130018 -0.350000
v 0.074844 0.130018 0.350001
v 0.129748 0.075114 -0.350000
v 0.129748 0.075114 0.350001
v 0.149845 0.000113 -0.350000
v 0.149845 0.000113 0.350001
v 0.129748 -0.074886 -0.350000
v 0.129748 -0.074886 0.350001
v 0.074844 -0.129790 -0.350000
v 0.074844 -0.129790 0.350001
v -0.000155 -0.149885 -0.350000
v -0.000155 -0.149885 0.350001
v -0.075156 -0.129790 -0.350000
v -0.075156 -0.129790 0.350001
v -0.130059 -0.074886 -0.350000
v -0.130059 -0.074886 0.350001
v -0.150155 0.000113 -0.350000
v -0.150155 0.000113 0.350001
v -0.130059 0.075114 -0.350000
v -0.130059 0.075114 0.350001
v -0.075156 0.130018 -0.350000
v -0.075156 0.130018 0.350001
v 1.202470 -1.959691 -0.170601
v 1.276993 -1.881487 -0.278601
v 1.224297 -1.936785 -0.246968
v 1.306804 -1.850204 -0.278601
v 1.381326 -1.772001 -0.170601
v 1.359499 -1.794906 -0.246969
v 1.276993 -1.881487 -0.019401
v 1.202470 -1.959691 -0.127401
v 1.224297 -1.936785 -0.051034
v 1.381326 -1.772001 -0.127401
v 1.306804 -1.850204 -0.019401
v 1.359499 -1.794906 -0.051034
v 2.014336 -2.094745 -0.629001
v 2.014336 -2.377588 -0.629001
v 2.072915 -2.236167 -0.629001
v 2.014337 -2.377588 0.331000
v 2.014336 -2.094745 0.330999
v 2.072915 -2.236167 0.330999
v 1.802204 -2.589720 -0.629000
v 1.519361 -2.589720 -0.629000
v 1.660783 -2.648300 -0.629000
v 1.519362 -2.589720 0.331000
v 1.802205 -2.589720 0.331000
v 1.660783 -2.648299 0.331000
v -0.538530 -0.535108 0.050460
v -0.517542 -0.585117 -0.545000
v 0.042595 -0.013939 -0.545000
v -0.517542 -0.585117 -0.353000
v 0.042595 -0.013939 -0.353000
v 1.870684 -2.719479 -0.545001
v 1.587855 -2.722239 -0.545001
v 1.781536 -2.772115 -0.545001
v 1.678013 -2.773126 -0.545001
v 2.147993 -2.151060 -0.545001
v 2.150753 -2.433889 -0.545001
v 2.200629 -2.240208 -0.545001
v 2.201640 -2.343731 -0.545001
v 1.870684 -2.719479 -0.353001
v 1.781536 -2.772115 -0.353000
v 2.150753 -2.433889 -0.353001
v 2.201640 -2.343731 -0.353001
v 2.200629 -2.240208 -0.353001
v 1.480265 -1.886214 0.331000
v 1.428237 -1.914023 0.331000
v 1.382634 -1.951448 0.331000
v 1.345209 -1.997051 0.331000
v 1.300274 -2.105533 0.331000
v 1.317399 -2.049079 0.331000
v 1.536718 -2.459397 0.331000
v 1.300274 -2.222953 0.331000
v 1.382634 -2.377037 0.331000
v 1.428237 -2.414463 0.331000
v 1.345208 -2.331434 0.331000
v 1.595428 -2.465179 0.331000
v 1.480265 -2.442273 0.331000
v 1.317399 -2.279406 0.331000
v 1.599292 -2.464799 0.331000
v 1.294491 -2.164242 0.331000
v 1.808223 -1.951448 0.331000
v 1.845648 -1.997051 0.331000
v 1.762620 -1.914023 0.331000
v 1.873458 -2.049079 0.331000
v 1.710592 -1.886213 0.331000
v 1.890583 -2.105533 0.331000
v 1.890583 -2.222953 0.331000
v 1.896365 -2.164243 0.331000
v 1.808223 -2.377037 0.331000
v 1.845648 -2.331434 0.331000
v 1.873458 -2.279406 0.331000
v 1.654138 -1.869088 0.331000
v 1.595428 -1.863306 0.331000
v 1.536718 -1.869089 0.331000
v 1.762620 -2.414463 0.331000
v 1.710592 -2.442273 0.331000
v 1.654138 -2.459397 0.331000
v 1.481521 -2.442654 -0.629000
v 1.480264 -2.442273 -0.629000
v 1.382633 -2.377037 -0.629000
v 1.345208 -2.331434 -0.629000
v 1.428237 -2.414463 -0.629000
v 1.808222 -1.951448 -0.629001
v 1.845648 -1.997051 -0.629001
v 1.762620 -1.914023 -0.629000
v 1.873457 -2.049079 -0.629001
v 1.710591 -1.886213 -0.629000
v 1.890582 -2.105533 -0.629001
v 1.654138 -1.869088 -0.629000
v 1.595428 -1.863306 -0.629000
v 1.480264 -1.886214 -0.629000
v 1.536718 -1.869089 -0.629000
v 1.382633 -1.951448 -0.629000
v 1.345208 -1.997051 -0.629000
v 1.428236 -1.914023 -0.629000
v 1.845648 -2.331434 -0.629001
v 1.808222 -2.377037 -0.629000
v 1.710592 -2.442273 -0.629000
v 1.654138 -2.459397 -0.629000
v 1.762620 -2.414463 -0.629000
v 1.536718 -2.459397 -0.629000
v 1.595428 -2.465179 -0.629000
v 1.317398 -2.279406 -0.629000
v 1.300274 -2.222953 -0.629000
v 1.294491 -2.164242 -0.629000
v 1.896365 -2.164243 -0.629001
v 1.890583 -2.222953 -0.629001
v 1.300274 -2.105533 -0.629000
v 1.317398 -2.049079 -0.629000
v 1.873457 -2.279406 -0.629001
v 1.710591 -1.886213 -0.353000
v 1.845648 -2.331434 -0.353000
v 1.428236 -1.914023 -0.353000
v 1.762620 -2.414463 -0.353000
v 1.345208 -1.997051 -0.353000
v 1.480264 -2.442273 -0.353000
v 1.317398 -2.279406 -0.353000
v 1.595428 -2.465179 -0.353000
v 1.845648 -1.997051 -0.545001
v 1.710591 -1.886213 -0.545001
v 1.595428 -1.863306 -0.545001
v 1.890582 -2.105533 -0.545001
v 1.873457 -2.279406 -0.545001
v 1.762620 -2.414463 -0.545001
v 1.345208 -1.997051 -0.545001
v 1.428236 -1.914023 -0.545001
v 1.300274 -2.105533 -0.545001
v 1.595428 -2.465179 -0.545001
v 1.480264 -2.442273 -0.545001
v 1.382633 -2.377037 -0.545001
v 1.300274 -2.222953 -0.545001
v -0.538530 -0.535108 -0.349540
v -0.090188 -1.006260 -0.545000
v -0.090187 -1.006260 -0.353000
v 0.192369 -0.787837 -0.278601
v 0.220016 -0.759674 -0.278601
v 0.143498 -0.837619 -0.051033
v 0.123254 -0.858239 -0.170601
v 0.268887 -0.709892 -0.246968
v 0.220016 -0.759674 -0.019401
v 0.143498 -0.837619 -0.246968
v 0.123254 -0.858239 -0.127401
v 0.289130 -0.689272 -0.127401
v 0.289130 -0.689272 -0.170601
v 0.192369 -0.787837 -0.019401
v 0.268887 -0.709892 -0.051033
v -0.892100 -0.585086 -0.545000
v -1.065859 -0.411256 -0.545000
v -1.014966 -0.534142 -0.545000
v -1.065859 -0.167594 -0.545000
v -0.892154 0.001846 -0.545000
v -1.014982 -0.045992 -0.545000
v -1.065859 -0.411256 -0.353000
v -0.892100 -0.585086 -0.353000
v -1.014966 -0.534142 -0.353000
v -0.892154 0.001846 -0.353000
v -1.065859 -0.167594 -0.353000
v -1.014982 -0.045992 -0.353000
v -0.912111 -0.437438 0.050460
v -0.814431 -0.535107 0.050460
v -0.814494 -0.050770 0.050460
v -0.912143 -0.147082 0.050460
v -0.814431 -0.535107 -0.349540
v -0.912111 -0.437438 -0.349540
v -0.912143 -0.147082 -0.349540
v -0.814494 -0.050770 -0.349540
v -0.263207 -0.058429 0.050459
v -0.089525 -0.099168 0.050459
v -0.263207 -0.058429 -0.349541
v -0.089526 -0.099168 -0.349541
v 1.536718 -1.869089 -0.353000
v 1.873457 -2.049079 -0.353000
v 2.147993 -2.151060 -0.353001
v -0.305032 -0.302436 -0.334328
v -0.374976 -0.373565 -0.289094
v 0.299457 -0.686043 -0.289094
v 0.328429 -0.656580 -0.179889
v 0.091026 -0.898002 -0.179889
v 0.119998 -0.868540 -0.289094
v 0.091026 -0.898002 -0.118113
v 0.119999 -0.868540 -0.008907
v 0.189943 -0.797410 0.036327
v -0.265463 -0.262197 -0.334328
v -0.265462 -0.262197 0.036327
v -0.195518 -0.191068 -0.008907
v 0.229512 -0.757172 0.036327
v 0.299457 -0.686043 -0.008907
v 0.189943 -0.797410 -0.334329
v 0.229512 -0.757172 -0.334329
v -0.305032 -0.302436 0.036327
v 0.328429 -0.656580 -0.118113
v -0.374976 -0.373565 -0.008907
v -0.403949 -0.403027 -0.179889
v -0.403949 -0.403027 -0.118113
v -0.195518 -0.191068 -0.289094
v -0.166546 -0.161606 -0.179889
v -0.166546 -0.161606 -0.118113
v 1.405851 -1.741565 -0.629000
v 1.661156 -1.741565 -0.629000
v 1.533503 -1.688689 -0.629000
v 1.661156 -1.741565 0.331000
v 1.405851 -1.741565 0.331000
v 1.533504 -1.688689 0.331000
v 1.166181 -2.236540 -0.629000
v 1.166181 -1.981235 -0.629000
v 1.113305 -2.108887 -0.629000
v 1.166181 -1.981235 0.331000
v 1.166181 -2.236540 0.331000
v 1.113306 -2.108887 0.331000
v 1.894739 -2.147737 -0.353001
v 1.294491 -2.164242 -0.353000
v 1.587855 -2.722239 -0.353000
v 1.678013 -2.773126 -0.353000
v 1.808222 -1.951448 -0.353000
v 1.382633 -2.377037 -0.353000
v -0.892127 -0.291620 -0.545000
v -0.892127 -0.291620 -0.353000
v -0.517542 -0.585117 0.055000
v 0.042595 -0.013939 0.055000
v -0.517542 -0.585117 0.247000
v 0.042595 -0.013939 0.247000
v 1.870684 -2.719479 0.055000
v 1.587855 -2.722239 0.055000
v 1.781536 -2.772115 0.055000
v 1.678014 -2.773126 0.055000
v 2.147993 -2.151060 0.054999
v 2.150753 -2.433889 0.054999
v 2.200629 -2.240208 0.054999
v 2.201640 -2.343731 0.054999
v 1.870684 -2.719479 0.247000
v 1.781536 -2.772115 0.247000
v 2.150753 -2.433889 0.247000
v 2.201640 -2.343731 0.247000
v 2.200629 -2.240208 0.247000
v 1.710591 -1.886213 0.247000
v 1.845648 -2.331434 0.247000
v 1.428237 -1.914023 0.247000
v 1.762620 -2.414463 0.247000
v 1.345209 -1.997051 0.247000
v 1.480265 -2.442273 0.247000
v 1.317399 -2.279406 0.247000
v 1.595428 -2.465179 0.247000
v 1.845648 -1.997051 0.055000
v 1.710591 -1.886213 0.055000
v 1.595428 -1.863306 0.055000
v 1.890583 -2.105533 0.055000
v 1.873457 -2.279406 0.055000
v 1.762620 -2.414463 0.055000
v 1.345209 -1.997051 0.055000
v 1.428237 -1.914023 0.055000
v 1.300274 -2.105533 0.055000
v 1.595428 -2.465179 0.055000
v 1.480265 -2.442273 0.055000
v 1.382634 -2.377037 0.055000
v 1.300274 -2.222953 0.055000
v -0.090187 -1.006260 0.055000
v -0.090187 -1.006260 0.247000
v -0.892100 -0.585086 0.055000
v -1.065858 -0.411256 0.055001
v -1.014966 -0.534142 0.055000
v -1.065858 -0.167594 0.055001
v -0.892154 0.001846 0.055000
v -1.014982 -0.045992 0.055000
v -1.065858 -0.411256 0.247000
v -0.892100 -0.585086 0.247000
v -1.014966 -0.534142 0.247000
v -0.892154 0.001846 0.247000
v -1.065858 -0.167594 0.247000
v -1.014982 -0.045992 0.247000
v 1.536718 -1.869089 0.247000
v 1.873458 -2.049079 0.247000
v 2.147993 -2.151060 0.247000
v 1.894739 -2.147737 0.247000
v 1.294491 -2.164242 0.247000
v 1.587855 -2.722239 0.247000
v 1.678014 -2.773126 0.247000
v 1.808223 -1.951448 0.247000
v 1.382634 -2.377037 0.247000
v -0.892127 -0.291620 0.055000
v -0.892127 -0.291620 0.247000
v 1.294893 -2.222953 -0.840999
v 1.339827 -2.331436 -0.841000
v 1.422856 -2.414463 -0.840999
v 1.531337 -2.459398 -0.841000
v 1.705211 -2.442273 -0.841000
v 1.802842 -2.377037 -0.841000
v 1.868077 -2.279407 -0.841000
v 1.890984 -2.164243 -0.841000
v 1.868077 -2.049080 -0.841000
v 1.802842 -1.951449 -0.841000
v 1.705211 -1.886214 -0.841000
v 1.590047 -1.863306 -0.841000
v 1.422856 -1.914024 -0.841000
v 1.339827 -1.997052 -0.840999
v 1.294893 -2.105533 -0.841000
v 1.294893 -2.222953 0.415001
v 1.339827 -2.331436 0.415001
v 1.474884 -2.442273 0.415001
v 1.590047 -2.465180 0.415001
v 1.705211 -2.442273 0.415001
v 1.802842 -2.377038 0.415001
v 1.885202 -2.222953 0.415001
v 1.868077 -2.049080 0.415001
v 1.802842 -1.951449 0.415001
v 1.705211 -1.886214 0.415001
v 1.531337 -1.869089 0.415001
v 1.377253 -1.951449 0.415001
v 1.294893 -2.105534 0.415001
vt 0.241622 0.510735
vt 0.262199 0.510897
vt 0.286090 0.562227
vt 0.489608 0.005306
vt 0.412377 0.408469
vt 0.393727 0.416523
vt 0.489280 0.541730
vt 0.476932 0.554704
vt 0.467015 0.487651
vt 0.355586 0.650679
vt 0.322106 0.581599
vt 0.355325 0.581474
vt 0.355122 0.527739
vt 0.321971 0.545776
vt 0.321904 0.527865
vt 0.355189 0.545651
vt 0.322039 0.563688
vt 0.322571 0.704539
vt 0.355721 0.686502
vt 0.355789 0.704413
vt 0.322503 0.686627
vt 0.355654 0.668590
vt 0.322435 0.668716
vt 0.359014 0.718922
vt 0.466215 0.740939
vt 0.359014 0.740939
vt 0.524386 0.718922
vt 0.496445 0.740938
vt 0.496445 0.718922
vt 0.465644 0.774585
vt 0.465073 0.808231
vt 0.597839 0.740938
vt 0.554889 0.718922
vt 0.597839 0.718922
vt 0.422129 0.652351
vt 0.465644 0.685276
vt 0.466215 0.718922
vt 0.554889 0.740938
vt 0.539637 0.718922
vt 0.539637 0.740938
vt 0.481330 0.718922
vt 0.481330 0.740938
vt 0.489863 0.632665
vt 0.457290 0.585440
vt 0.489863 0.585440
vt 0.556644 0.632665
vt 0.540452 0.585440
vt 0.556644 0.585440
vt 0.506172 0.632665
vt 0.540452 0.632665
vt 0.506172 0.585440
vt 0.545275 0.644195
vt 0.590017 0.689389
vt 0.545755 0.678472
vt 0.383404 0.632665
vt 0.362342 0.585440
vt 0.383404 0.585440
vt 0.621737 0.632665
vt 0.590017 0.528716
vt 0.621737 0.585440
vt 0.545755 0.539634
vt 0.557446 0.528264
vt 0.545275 0.573910
vt 0.557446 0.689842
vt 0.387036 0.496738
vt 0.390568 0.561476
vt 0.373158 0.557269
vt 0.360184 0.544921
vt 0.459751 0.559766
vt 0.413904 0.510586
vt 0.493487 0.524320
vt 0.289409 0.496661
vt 0.303742 0.557895
vt 0.316852 0.545313
vt 0.213057 0.493957
vt 0.216178 0.560147
vt 0.199008 0.555032
vt 0.186683 0.541999
vt 0.182530 0.524541
vt 0.480205 0.713200
vt 0.485803 0.699160
vt 0.485331 0.671223
vt 0.479258 0.657233
vt 0.465073 0.651630
vt 0.479258 0.802628
vt 0.485803 0.760701
vt 0.480205 0.746661
vt 0.485331 0.788638
vt 0.353162 0.008700
vt 0.320336 0.112629
vt 0.319944 0.008825
vt 0.353554 0.112504
vt 0.351243 0.008725
vt 0.015007 0.718923
vt 0.015007 0.740939
vt 0.182530 0.004687
vt 0.263125 0.406809
vt 0.242722 0.406644
vt 0.322372 0.007743
vt 0.069176 0.510735
vt 0.089753 0.510897
vt 0.113644 0.562227
vt 0.317162 0.005306
vt 0.239931 0.408469
vt 0.221281 0.416523
vt 0.316834 0.541730
vt 0.304486 0.554704
vt 0.294569 0.487651
vt 0.183140 0.650679
vt 0.149661 0.581599
vt 0.182879 0.581474
vt 0.182676 0.527740
vt 0.149525 0.545776
vt 0.149458 0.527865
vt 0.182744 0.545651
vt 0.149593 0.563688
vt 0.150125 0.704539
vt 0.183276 0.686502
vt 0.183343 0.704413
vt 0.150057 0.686627
vt 0.183208 0.668590
vt 0.149990 0.668716
vt 0.358473 0.718923
vt 0.465674 0.740939
vt 0.358473 0.740939
vt 0.523845 0.718922
vt 0.495904 0.740938
vt 0.495904 0.718922
vt 0.465103 0.774585
vt 0.464532 0.808231
vt 0.597298 0.740938
vt 0.554348 0.718922
vt 0.597298 0.718922
vt 0.421588 0.652351
vt 0.465103 0.685276
vt 0.465674 0.718922
vt 0.554348 0.740938
vt 0.539097 0.718922
vt 0.539097 0.740938
vt 0.480789 0.718922
vt 0.480790 0.740939
vt 0.214590 0.496738
vt 0.218122 0.561476
vt 0.200712 0.557269
vt 0.187738 0.544921
vt 0.287305 0.559766
vt 0.241458 0.510587
vt 0.321041 0.524320
vt 0.116963 0.496661
vt 0.131296 0.557895
vt 0.144407 0.545313
vt 0.040612 0.493957
vt 0.043732 0.560147
vt 0.026563 0.555032
vt 0.014238 0.541999
vt 0.010084 0.524541
vt 0.479664 0.713200
vt 0.485262 0.699160
vt 0.484790 0.671223
vt 0.478717 0.657233
vt 0.464532 0.651630
vt 0.478718 0.802628
vt 0.485262 0.760701
vt 0.479664 0.746661
vt 0.484790 0.788638
vt 0.180716 0.008700
vt 0.147890 0.112629
vt 0.147498 0.008825
vt 0.181108 0.112504
vt 0.178797 0.008725
vt 0.014467 0.718923
vt 0.014467 0.740940
vt 0.010084 0.004687
vt 0.090679 0.406809
vt 0.070276 0.406644
vt 0.149926 0.007743
vt 0.041319 0.640085
vt 0.048123 0.567897
vt 0.048068 0.640090
vt 0.091856 0.640067
vt 0.088455 0.567875
vt 0.095205 0.567872
vt 0.081814 0.640078
vt 0.034570 0.640080
vt 0.041374 0.567892
vt 0.081706 0.567885
vt 0.031332 0.567879
vt 0.074957 0.567895
vt 0.024528 0.640068
vt 0.021290 0.567867
vt 0.068316 0.640098
vt 0.075065 0.640088
vt 0.017778 0.640055
vt 0.112104 0.640045
vt 0.105247 0.567862
vt 0.111996 0.567852
vt 0.061567 0.640100
vt 0.064915 0.567905
vt 0.105355 0.640055
vt 0.011247 0.567842
vt 0.054872 0.567902
vt 0.054817 0.640095
vt 0.098605 0.640065
vt 0.118745 0.567842
vt 0.118853 0.640035
vt 0.203386 0.653880
vt 0.252675 0.674297
vt 0.216271 0.718655
vt 0.247843 0.705742
vt 0.199276 0.710525
vt 0.199276 0.657175
vt 0.375498 0.480017
vt 0.474507 0.468769
vt 0.471095 0.438735
vt 0.371238 0.460154
vt 0.459557 0.422014
vt 0.379579 0.431101
vt 0.432689 0.408165
vt 0.322368 0.650804
vt 0.355257 0.563563
vt 0.524386 0.740938
vt 0.422129 0.807510
vt 0.457290 0.632665
vt 0.362342 0.632665
vt 0.642307 0.580916
vt 0.642307 0.637190
vt 0.443938 0.507174
vt 0.203707 0.479271
vt 0.301010 0.479645
vt 0.305221 0.459500
vt 0.199888 0.459461
vt 0.204282 0.437423
vt 0.300863 0.438172
vt 0.223782 0.414267
vt 0.289721 0.421211
vt 0.203053 0.480017
vt 0.302061 0.468769
vt 0.298649 0.438735
vt 0.198792 0.460154
vt 0.287111 0.422014
vt 0.207133 0.431101
vt 0.260243 0.408165
vt 0.149922 0.650804
vt 0.182811 0.563562
vt 0.523845 0.740938
vt 0.421588 0.807510
vt 0.271492 0.507174
vt 0.031261 0.479271
vt 0.128564 0.479645
vt 0.132775 0.459500
vt 0.027442 0.459461
vt 0.031836 0.437423
vt 0.128417 0.438171
vt 0.051336 0.414267
vt 0.117276 0.421211
vt 0.011029 0.640034
vt 0.186631 0.674296
vt 0.192978 0.662422
vt 0.223036 0.649972
vt 0.235920 0.653880
vt 0.246328 0.662422
vt 0.252675 0.694331
vt 0.241545 0.710989
vt 0.229670 0.717336
vt 0.197762 0.710989
vt 0.186631 0.694331
vt 0.211151 0.650828
vt 0.224551 0.649509
vt 0.237435 0.653417
vt 0.247843 0.661959
vt 0.254190 0.673833
vt 0.254190 0.693868
vt 0.237435 0.714284
vt 0.224550 0.718192
vt 0.211151 0.716872
vt 0.190735 0.700117
vt 0.186826 0.687233
vt 0.190735 0.667583
vt 0.696945 0.724178
vt 0.703062 0.779316
vt 0.696946 0.779316
vt 0.703061 0.724178
vt 0.709178 0.779316
vt 0.709177 0.724178
vt 0.715294 0.779316
vt 0.715294 0.724178
vt 0.721410 0.779316
vt 0.721410 0.724178
vt 0.727526 0.779316
vt 0.727526 0.724178
vt 0.733642 0.779316
vt 0.733642 0.724178
vt 0.739758 0.779316
vt 0.739758 0.724178
vt 0.745874 0.779316
vt 0.745874 0.724178
vt 0.751990 0.779316
vt 0.751990 0.724178
vt 0.758106 0.779316
vt 0.758106 0.724178
vt 0.764222 0.779316
vt 0.690829 0.724178
vt 0.690830 0.779316
vt 0.705300 0.793787
vt 0.685533 0.799084
vt 0.764222 0.724178
vt 0.702242 0.782374
vt 0.705300 0.787671
vt 0.702242 0.799084
vt 0.696946 0.802142
vt 0.690830 0.802142
vt 0.682475 0.793787
vt 0.682475 0.787671
vt 0.685533 0.782375
vt 0.566835 0.188397
vt 0.972358 0.174418
vt 0.972430 0.185814
vt 0.565584 0.122015
vt 0.971579 0.102075
vt 0.971813 0.122275
vt 0.565029 0.100217
vt 0.971543 0.080541
vt 0.566762 0.177004
vt 0.972183 0.152884
vt 0.566458 0.155205
vt 0.971945 0.132683
vt 0.971603 0.069150
vt 0.565316 0.045226
vt 0.971864 0.047617
vt 0.566100 0.023436
vt 0.972308 0.027420
vt 0.972549 0.227551
vt 0.566808 0.210198
vt 0.972530 0.207349
vt 0.565899 0.133407
vt 0.566533 0.012048
vt 0.564916 0.067024
vt 0.564857 0.078417
vt 0.566527 0.232001
vt 0.972549 0.017014
vt 0.232807 0.594563
vt 0.240762 0.603562
vt 0.232461 0.601632
vt 0.198973 0.580562
vt 0.209438 0.566528
vt 0.210555 0.575731
vt 0.197826 0.612659
vt 0.207263 0.627403
vt 0.191235 0.619333
vt 0.217574 0.576043
vt 0.210243 0.566457
vt 0.219474 0.566967
vt 0.057949 0.714444
vt 0.046703 0.646475
vt 0.058043 0.646457
vt 0.029269 0.714404
vt 0.040703 0.646467
vt 0.040609 0.714454
vt 0.018631 0.714308
vt 0.029363 0.646417
vt 0.068587 0.714377
vt 0.068682 0.646391
vt 0.096047 0.714255
vt 0.102141 0.646276
vt 0.102047 0.714263
vt 0.084706 0.714272
vt 0.074163 0.646352
vt 0.084801 0.646286
vt 0.013150 0.714255
vt 0.018725 0.646321
vt 0.113481 0.646325
vt 0.113387 0.714312
vt 0.096141 0.646268
vt 0.074068 0.714339
vt 0.046609 0.714462
vt 0.124119 0.646422
vt 0.124025 0.714408
vt 0.228709 0.581829
vt 0.241256 0.593453
vt 0.235398 0.575242
vt 0.227141 0.613906
vt 0.216500 0.627796
vt 0.215494 0.618578
vt 0.185140 0.601200
vt 0.193564 0.599979
vt 0.193817 0.592905
vt 0.185502 0.591086
vt 0.192875 0.573434
vt 0.209034 0.618303
vt 0.233155 0.621113
vt 0.211118 0.575686
vt 0.013244 0.646268
vt 0.210617 0.819606
vt 0.118606 0.996451
vt 0.118606 0.819606
vt 0.316598 0.638264
vt 0.295815 0.658845
vt 0.291751 0.641371
vt 0.062210 0.819606
vt 0.006945 0.996451
vt 0.006945 0.819605
vt 0.267978 0.641369
vt 0.273802 0.643137
vt 0.315475 0.638254
vt 0.285919 0.643221
vt 0.291742 0.641452
vt 0.243029 0.638456
vt 0.243338 0.586724
vt 0.249404 0.606719
vt 0.523274 0.996451
vt 0.495075 0.819605
vt 0.523274 0.819605
vt 0.495075 0.996451
vt 0.466877 0.819605
vt 0.090408 0.996451
vt 0.062210 0.996451
vt 0.090408 0.819606
vt 0.323961 0.819606
vt 0.261522 0.996451
vt 0.261522 0.819606
vt 0.244234 0.638171
vt 0.244241 0.586658
vt 0.249416 0.606634
vt 0.250272 0.652759
vt 0.262611 0.638499
vt 0.264856 0.658808
vt 0.254048 0.629934
vt 0.257908 0.634638
vt 0.349414 0.996451
vt 0.323961 0.996451
vt 0.349414 0.819605
vt 0.374867 0.996451
vt 0.236070 0.996451
vt 0.210617 0.996451
vt 0.236069 0.819606
vt 0.466877 0.996451
vt 0.294873 0.658884
vt 0.267968 0.641461
vt 0.273800 0.643230
vt 0.309443 0.652836
vt 0.262585 0.638580
vt 0.263919 0.658955
vt 0.249275 0.653010
vt 0.253970 0.629908
vt 0.257859 0.634689
vt 0.248790 0.573597
vt 0.267994 0.584120
vt 0.262630 0.586983
vt 0.257926 0.590834
vt 0.310013 0.573608
vt 0.308528 0.600913
vt 0.305660 0.595550
vt 0.316413 0.586632
vt 0.310337 0.618753
vt 0.310925 0.612692
vt 0.291735 0.584013
vt 0.310960 0.573486
vt 0.297807 0.568042
vt 0.262615 0.586884
vt 0.249695 0.573494
vt 0.262859 0.568042
vt 0.273803 0.582250
vt 0.267981 0.584016
vt 0.257911 0.590744
vt 0.297127 0.638494
vt 0.301533 0.634870
vt 0.310444 0.652850
vt 0.285921 0.643141
vt 0.279861 0.643735
vt 0.297106 0.638584
vt 0.301808 0.634724
vt 0.250949 0.624158
vt 0.251132 0.624484
vt 0.254062 0.595528
vt 0.251184 0.600892
vt 0.249389 0.618838
vt 0.248796 0.612795
vt 0.251180 0.624567
vt 0.254051 0.595447
vt 0.251183 0.600812
vt 0.249414 0.618744
vt 0.248819 0.612689
vt 0.374867 0.819605
vt 0.279861 0.643821
vt 0.261929 0.568160
vt 0.273814 0.582357
vt 0.296856 0.568160
vt 0.315465 0.586765
vt 0.305666 0.630021
vt 0.308532 0.624657
vt 0.279865 0.581764
vt 0.310296 0.618837
vt 0.310891 0.612784
vt 0.285917 0.582360
vt 0.291737 0.584125
vt 0.310294 0.606732
vt 0.297100 0.586992
vt 0.301801 0.590850
vt 0.297102 0.586875
vt 0.301886 0.634594
vt 0.305612 0.630063
vt 0.301807 0.590729
vt 0.305671 0.595429
vt 0.308548 0.624621
vt 0.308545 0.600796
vt 0.310320 0.606625
vt 0.285913 0.582248
vt 0.279858 0.581653
vn -0.0000 -0.0000 1.0000
vn 0.7071 0.7071 -0.0000
vn 0.9659 0.2588 -0.0000
vn -0.2588 0.9659 -0.0000
vn 0.2588 0.9659 -0.0000
vn -0.9659 0.2588 -0.0000
vn -0.7071 0.7071 -0.0000
vn 0.9659 -0.2588 -0.0000
vn 0.7071 -0.7071 -0.0000
vn -0.7071 -0.7071 -0.0000
vn -0.9659 -0.2588 -0.0000
vn 0.2588 -0.9659 -0.0000
vn -0.2588 -0.9659 -0.0000
vn -0.0000 -1.0000 -0.0000
vn -0.0000 -0.0000 -1.0000
vn -0.9239 -0.3827 -0.0000
vn -0.9808 -0.1951 -0.0000
vn 0.9239 -0.3827 -0.0000
vn 0.9239 0.3827 -0.0000
vn 0.3827 0.9239 -0.0000
vn -0.3827 0.9239 -0.0000
vn -0.8315 0.5556 -0.0000
vn -0.9239 0.3827 -0.0000
vn 0.7993 -0.6010 -0.0000
vn 0.6165 -0.7874 -0.0000
vn -0.6093 -0.7929 -0.0000
vn -0.2494 -0.9684 -0.0000
vn 0.0098 -1.0000 -0.0000
vn 0.5084 -0.8611 -0.0000
vn 0.7927 0.6097 -0.0000
vn 0.9634 0.2682 -0.0000
vn 1.0000 0.0098 -0.0000
vn 0.8709 -0.4915 -0.0000
vn 0.0169 0.9999 -0.0000
vn -0.1763 0.9843 -0.0000
vn -0.9804 0.1968 -0.0000
vn -0.0001 -1.0000 -0.0000
vn -0.1953 -0.9807 -0.0000
vn -0.3830 -0.9237 -0.0000
vn -0.9239 -0.3826 -0.0000
vn -0.9225 0.3860 -0.0000
vn -0.3629 0.9318 -0.0000
vn -0.7022 0.7120 -0.0000
vn -1.0000 -0.0001 -0.0000
vn 0.2284 0.9736 -0.0000
vn 0.1218 0.9926 -0.0000
vn 0.0139 0.9999 -0.0000
vn 0.1218 0.9925 -0.0000
vn 0.6966 -0.7175 -0.0000
vn -0.7019 -0.7123 -0.0000
vn -0.7085 -0.7057 -0.0000
vn 0.7124 0.7018 -0.0000
vn -0.1482 -0.9889 -0.0067
vn 0.0015 -1.0000 0.0019
vn -0.4262 -0.9046 0.0067
vn 0.3396 -0.9405 -0.0044
vn -0.0461 0.9989 -0.0042
vn 0.3396 0.9406 0.0044
vn 0.3827 -0.9239 -0.0000
vn -0.1951 0.9807 0.0087
vn 0.7390 -0.6737 0.0044
vn -0.5153 0.8570 -0.0063
vn -0.7071 0.7071 0.0091
vn 0.9233 -0.3840 -0.0019
vn -0.8323 0.5543 -0.0019
vn -0.8049 -0.5934 0.0044
vn 1.0000 0.0015 -0.0019
vn 0.9807 -0.1951 0.0091
vn -0.8315 -0.5556 -0.0000
vn -0.9707 0.2402 0.0044
vn 0.9406 0.3396 0.0044
vn -0.5568 -0.8307 -0.0019
vn -0.9808 0.1951 -0.0000
vn 0.0001 -0.0000 -1.0000
vn -0.3827 -0.9239 -0.0000
vn 0.8315 -0.5556 -0.0000
vn 0.6911 0.6960 0.1950
vn 0.6926 0.6986 -0.1798
vn 0.6926 0.6986 0.1798
vn -0.1419 -0.1396 -0.9800
vn -0.2926 -0.2901 -0.9112
vn -0.1488 -0.1476 -0.9778
vn -0.6602 -0.6469 -0.3816
vn -0.7019 -0.6889 -0.1808
vn -0.6669 -0.6558 -0.3539
vn 0.6911 0.6960 -0.1950
vn 0.6582 0.6639 -0.3549
vn 0.2717 0.2709 -0.9235
vn 0.1496 0.1504 -0.9772
vn 0.2913 0.2928 -0.9107
vn -0.7019 -0.6889 0.1809
vn -0.6602 -0.6469 0.3816
vn -0.6669 -0.6558 0.3539
vn -0.2926 -0.2901 0.9112
vn -0.1419 -0.1396 0.9800
vn -0.1488 -0.1476 0.9778
vn 0.1498 0.1505 0.9772
vn 0.2717 0.2709 0.9235
vn 0.2913 0.2928 0.9107
vn 0.6582 0.6639 0.3549
vn 0.1360 0.1355 -0.9814
vn 0.1360 0.1356 0.9814
vn -0.7007 -0.6865 0.1942
vn -0.7007 -0.6865 -0.1942
vn -0.2729 -0.2684 -0.9238
vn 0.6516 0.6550 -0.3827
vn -0.7019 -0.6889 0.1807
vn -0.6603 -0.6470 0.3814
vn -0.2729 -0.2684 0.9238
vn 0.1495 0.1503 0.9773
vn 0.6516 0.6550 0.3827
vn 0.5556 -0.8315 -0.0000
vn -0.5556 -0.8315 -0.0000
vn 0.8315 0.5556 -0.0000
vn 0.5556 0.8315 -0.0000
vn -0.5556 0.8315 -0.0000
vn 0.7748 -0.6319 -0.0168
vn 0.7749 -0.6319 0.0169
vn 0.7748 -0.6319 0.0168
vn 0.6634 -0.7459 -0.0590
vn 0.6977 -0.7111 -0.0870
vn 0.6970 -0.7118 -0.0868
vn 0.6634 -0.7459 0.0590
vn 0.6977 -0.7111 0.0870
vn 0.6654 -0.7440 0.0617
vn 0.7243 -0.6840 -0.0862
vn 0.7230 -0.6855 -0.0861
vn -0.6614 -0.6614 -0.3539
vn -0.6956 -0.6956 -0.1800
vn -0.6613 -0.6613 -0.3539
vn -0.6613 -0.6614 0.3539
vn -0.6956 -0.6956 0.1800
vn -0.6956 -0.6956 0.1797
vn -0.1502 -0.1502 0.9772
vn -0.2920 -0.2920 0.9107
vn -0.1501 -0.1501 -0.9772
vn -0.2920 -0.2920 -0.9107
vn -0.1486 -0.1486 -0.9777
vn 0.6956 0.6956 -0.1800
vn 0.6956 0.6956 0.1797
vn 0.6956 0.6955 0.1799
vn 0.2920 0.2920 -0.9107
vn 0.1501 0.1501 -0.9772
vn 0.1486 0.1486 0.9777
vn -0.1486 -0.1486 0.9777
vn -0.1500 -0.1500 0.9772
vn 0.6955 0.6955 0.1801
vn 0.6614 0.6614 0.3539
vn 0.6613 0.6614 -0.3539
vn 0.6956 0.6956 -0.1797
vn 0.1486 0.1486 -0.9777
vn -0.6956 -0.6956 -0.1797
vn 0.2920 0.2920 0.9107
vn 0.1501 0.1501 0.9772
vn 0.7558 -0.6523 -0.0573
vn 0.7749 -0.6319 -0.0169
vn 0.7538 -0.6543 -0.0598
vn 0.7558 -0.6523 0.0573
vn 0.7230 -0.6855 0.0861
vn 0.7243 -0.6840 0.0862
vn 0.6420 -0.7665 0.0177
vn 0.6419 -0.7666 0.0178
vn 0.6419 -0.7666 -0.0178
vn 0.6420 -0.7665 -0.0177
vn 0.6654 -0.7440 -0.0617
vn 0.6970 -0.7118 0.0868
vn 0.7538 -0.6543 0.0598
vn -0.6614 -0.6613 0.3539
vn 0.6613 0.6614 0.3539
vn -0.0014 0.0014 1.0000
vn -0.0004 -0.0000 -1.0000
vn -0.0006 -0.0000 -1.0000
vn -0.0001 -0.0001 -1.0000
usemtl SpacialRoverExploreralumWhite
f 134/1/1 136/2/1 62/3/1
f 51/4/15 147/5/15 149/6/15
f 60/7/15 61/8/15 144/9/15
f 59/10/24 62/11/25 54/12/25
f 55/13/26 235/14/27 234/15/26
f 57/16/27 63/17/28 235/14/27
f 63/17/29 54/12/25 62/11/25
f 195/18/30 60/19/31 58/20/30
f 66/21/31 61/22/32 60/19/31
f 65/23/33 59/10/24 61/22/33
f 51/24/34 178/25/35 53/26/34
f 170/27/17 179/28/36 172/29/36
f 53/26/1 239/30/1 176/31/1
f 52/32/37 169/33/38 50/34/37
f 50/35/15 238/36/15 173/37/15
f 176/38/38 171/39/39 169/33/38
f 177/40/40 170/27/17 171/39/40
f 179/28/36 174/41/41 172/29/36
f 180/42/42 173/37/35 174/41/42
f 185/43/14 49/44/14 182/45/14
f 188/46/43 184/47/43 183/48/43
f 182/45/10 186/49/10 185/43/10
f 187/50/44 181/51/44 184/47/44
f 187/52/15 154/53/15 186/54/15
f 192/55/45 189/56/46 190/57/45
f 183/48/47 191/58/48 188/46/47
f 49/44/49 192/55/49 190/57/49
f 49/59/1 189/60/1 183/48/1
f 49/59/1 181/61/1 182/62/1
f 184/63/1 49/59/1 183/48/1
f 181/61/1 49/59/1 184/63/1
f 186/54/15 154/53/15 185/64/15
f 154/53/15 187/52/15 188/46/15
f 191/58/15 154/53/15 188/46/15
f 150/65/15 54/66/15 56/67/15
f 56/67/15 57/68/15 150/65/15
f 55/13/15 150/65/15 57/68/15
f 59/69/15 150/65/15 146/70/15
f 144/9/15 58/71/15 60/7/15
f 144/9/15 61/8/15 59/69/15
f 62/3/1 140/72/1 63/73/1
f 63/73/1 140/72/1 235/74/1
f 232/75/1 64/76/1 65/77/1
f 66/78/1 195/79/1 232/75/1
f 65/77/1 66/78/1 232/75/1
f 140/72/1 234/15/1 235/74/1
f 173/37/15 238/36/15 174/80/15
f 174/80/15 238/36/15 172/81/15
f 172/81/15 238/36/15 170/82/15
f 171/83/15 238/36/15 169/84/15
f 170/82/15 238/36/15 171/83/15
f 176/31/1 239/30/1 177/85/1
f 179/86/1 239/30/1 180/87/1
f 180/87/1 239/30/1 178/25/1
f 177/85/1 239/30/1 175/88/1
f 175/88/1 239/30/1 179/86/1
f 50/89/50 156/90/51 52/91/50
f 51/4/15 155/92/15 50/93/15
f 155/92/51 234/15/26 156/90/51
f 58/94/30 53/26/52 195/95/30
f 53/96/1 137/97/1 135/98/1
f 156/90/1 53/96/1 52/99/1
f 258/100/1 260/101/1 252/102/1
f 241/103/15 271/104/15 273/105/15
f 250/106/15 251/107/15 268/108/15
f 249/109/24 252/110/25 244/111/25
f 245/112/26 298/113/27 297/114/26
f 247/115/27 253/116/28 298/113/27
f 253/116/29 244/111/25 252/110/25
f 294/117/30 250/118/31 248/119/30
f 256/120/31 251/121/32 250/118/31
f 255/122/33 249/109/24 251/121/33
f 241/123/34 289/124/35 243/125/34
f 281/126/17 290/127/36 283/128/36
f 243/125/1 302/129/1 287/130/1
f 242/131/37 280/132/38 240/133/37
f 240/134/15 301/135/15 284/136/15
f 287/137/38 282/138/39 280/132/38
f 288/139/40 281/126/17 282/138/40
f 290/127/36 285/140/41 283/128/36
f 291/141/42 284/136/35 285/140/42
f 274/142/15 244/143/15 246/144/15
f 246/144/15 247/145/15 274/142/15
f 245/112/15 274/142/15 247/145/15
f 249/146/15 274/142/15 270/147/15
f 268/108/15 248/148/15 250/106/15
f 268/108/15 251/107/15 249/146/15
f 252/102/1 264/149/1 253/150/1
f 253/150/1 264/149/1 298/151/1
f 295/152/1 254/153/1 255/154/1
f 256/155/1 294/156/1 295/152/1
f 255/154/1 256/155/1 295/152/1
f 264/149/1 297/114/1 298/151/1
f 284/136/15 301/135/15 285/157/15
f 285/157/15 301/135/15 283/158/15
f 283/158/15 301/135/15 281/159/15
f 282/160/15 301/135/15 280/161/15
f 281/159/15 301/135/15 282/160/15
f 287/130/1 302/129/1 288/162/1
f 290/163/1 302/129/1 291/164/1
f 291/164/1 302/129/1 289/124/1
f 288/162/1 302/129/1 286/165/1
f 286/165/1 302/129/1 290/163/1
f 240/166/50 279/167/51 242/168/50
f 241/103/15 278/169/15 240/170/15
f 278/169/51 297/114/26 279/167/51
f 248/171/30 243/125/52 294/172/30
f 243/173/1 261/174/1 259/175/1
f 279/167/1 243/173/1 242/176/1
f 313/177/20 326/178/2 312/179/2
f 306/180/53 321/181/54 320/182/55
f 306/180/53 307/183/56 321/181/54
f 313/177/20 314/184/57 327/185/58
f 307/183/56 322/186/59 321/181/54
f 314/184/57 328/187/60 327/185/58
f 307/183/56 323/188/61 322/186/59
f 314/184/57 315/189/62 328/187/60
f 315/189/62 329/190/63 328/187/60
f 309/191/64 323/188/61 308/192/9
f 315/189/62 316/193/65 329/190/63
f 303/194/17 319/195/66 318/196/17
f 309/191/64 310/197/67 324/198/68
f 303/194/17 304/199/69 319/195/66
f 316/193/65 330/200/70 329/190/63
f 310/197/67 325/201/71 324/198/68
f 310/197/67 311/202/19 325/201/71
f 305/203/72 319/195/66 304/199/69
f 303/194/17 330/204/70 317/205/73
f 312/179/2 325/201/71 311/202/19
f 305/203/72 306/180/53 320/182/55
f 319/206/1 323/207/1 327/208/1
f 313/209/15 309/210/15 305/211/15
f 62/3/1 64/76/1 232/75/1
f 62/3/1 232/75/1 134/1/1
f 136/2/1 140/72/1 62/3/1
f 151/212/15 150/65/15 55/13/15
f 58/71/15 144/9/15 141/213/15
f 58/71/15 141/213/15 142/214/15
f 152/215/15 151/212/15 55/13/15
f 152/215/15 55/13/15 155/92/15
f 51/4/15 58/71/15 142/214/15
f 51/4/15 142/214/15 143/216/15
f 152/215/15 155/92/15 51/4/15
f 153/217/74 152/215/15 51/4/15
f 51/4/15 143/216/15 148/218/15
f 51/4/15 148/218/15 147/5/15
f 149/6/15 153/217/74 51/4/15
f 59/10/24 64/219/24 62/11/25
f 55/13/26 57/16/27 235/14/27
f 57/16/27 56/220/28 63/17/28
f 63/17/29 56/220/29 54/12/25
f 195/18/30 66/21/31 60/19/31
f 66/21/31 65/23/32 61/22/32
f 65/23/33 64/219/24 59/10/24
f 51/24/34 173/37/35 178/25/35
f 170/27/17 175/221/17 179/28/36
f 176/31/1 52/222/1 53/26/1
f 53/26/1 178/25/1 239/30/1
f 52/32/37 176/38/38 169/33/38
f 173/37/15 51/24/15 50/35/15
f 50/35/15 169/84/15 238/36/15
f 176/38/38 177/40/39 171/39/39
f 177/40/40 175/221/17 170/27/17
f 179/28/36 180/42/41 174/41/41
f 180/42/42 178/25/35 173/37/35
f 185/43/14 154/223/14 49/44/14
f 188/46/43 187/50/43 184/47/43
f 182/45/10 181/51/10 186/49/10
f 187/50/44 186/49/44 181/51/44
f 192/55/45 191/224/48 189/56/46
f 183/48/47 189/60/46 191/58/48
f 49/44/49 154/223/49 192/55/49
f 49/59/1 190/225/1 189/60/1
f 191/58/15 192/226/15 154/53/15
f 145/227/15 144/9/15 59/69/15
f 59/69/15 54/66/15 150/65/15
f 146/70/15 145/227/15 59/69/15
f 50/89/50 155/92/51 156/90/51
f 155/92/51 55/13/26 234/15/26
f 58/94/30 51/24/52 53/26/52
f 194/228/1 232/75/1 195/79/1
f 234/15/1 140/72/1 138/229/1
f 234/15/1 138/229/1 237/230/1
f 236/231/1 194/228/1 195/79/1
f 133/232/1 236/231/1 195/79/1
f 156/90/1 234/15/1 237/230/1
f 156/90/1 237/230/1 139/233/1
f 133/232/1 195/79/1 53/96/1
f 193/234/1 133/232/1 53/96/1
f 53/96/1 156/90/1 139/233/1
f 53/96/1 139/233/1 233/235/1
f 135/98/1 193/234/1 53/96/1
f 53/96/1 233/235/1 137/97/1
f 252/102/1 254/153/1 295/152/1
f 252/102/1 295/152/1 258/100/1
f 260/101/1 264/149/1 252/102/1
f 275/236/15 274/142/15 245/112/15
f 248/148/15 268/108/15 265/237/15
f 248/148/15 265/237/15 266/238/15
f 276/239/15 275/236/15 245/112/15
f 276/239/15 245/112/15 278/169/15
f 241/103/15 248/148/15 266/238/15
f 241/103/15 266/238/15 267/240/15
f 276/239/15 278/169/15 241/103/15
f 277/241/74 276/239/15 241/103/15
f 241/103/15 267/240/15 272/242/15
f 241/103/15 272/242/15 271/104/15
f 273/105/15 277/241/74 241/103/15
f 249/109/24 254/243/24 252/110/25
f 245/112/26 247/115/27 298/113/27
f 247/115/27 246/244/28 253/116/28
f 253/116/29 246/244/29 244/111/25
f 294/117/30 256/120/31 250/118/31
f 256/120/31 255/122/32 251/121/32
f 255/122/33 254/243/24 249/109/24
f 241/123/34 284/136/35 289/124/35
f 281/126/17 286/245/17 290/127/36
f 287/130/1 242/246/1 243/125/1
f 243/125/1 289/124/1 302/129/1
f 242/131/37 287/137/38 280/132/38
f 284/136/15 241/123/15 240/134/15
f 240/134/15 280/161/15 301/135/15
f 287/137/38 288/139/39 282/138/39
f 288/139/40 286/245/17 281/126/17
f 290/127/36 291/141/41 285/140/41
f 291/141/42 289/124/35 284/136/35
f 269/247/15 268/108/15 249/146/15
f 249/146/15 244/143/15 274/142/15
f 270/147/15 269/247/15 249/146/15
f 240/166/50 278/169/51 279/167/51
f 278/169/51 245/112/26 297/114/26
f 248/171/30 241/123/52 243/125/52
f 293/248/1 295/152/1 294/156/1
f 297/114/1 264/149/1 262/249/1
f 297/114/1 262/249/1 300/250/1
f 299/251/1 293/248/1 294/156/1
f 257/252/1 299/251/1 294/156/1
f 279/167/1 297/114/1 300/250/1
f 279/167/1 300/250/1 263/253/1
f 257/252/1 294/156/1 243/173/1
f 292/254/1 257/252/1 243/173/1
f 243/173/1 279/167/1 263/253/1
f 243/173/1 263/253/1 296/255/1
f 259/175/1 292/254/1 243/173/1
f 243/173/1 296/255/1 261/174/1
f 313/177/20 327/185/58 326/178/2
f 307/183/56 308/192/9 323/188/61
f 309/191/64 324/198/68 323/188/61
f 316/193/65 317/256/73 330/200/70
f 305/203/72 320/182/55 319/195/66
f 303/194/17 318/196/17 330/204/70
f 312/179/2 326/178/2 325/201/71
f 330/257/1 318/258/1 319/206/1
f 319/206/1 320/259/1 321/260/1
f 321/260/1 322/261/1 323/207/1
f 323/207/1 324/262/1 325/263/1
f 325/263/1 326/264/1 327/208/1
f 327/208/1 328/265/1 329/266/1
f 329/266/1 330/257/1 319/206/1
f 319/206/1 321/260/1 323/207/1
f 323/207/1 325/263/1 327/208/1
f 327/208/1 329/266/1 319/206/1
f 304/267/15 303/268/15 317/269/15
f 317/269/15 316/270/15 315/271/15
f 315/271/15 314/272/15 313/209/15
f 313/209/15 312/273/15 311/274/15
f 311/274/15 310/275/15 309/210/15
f 309/210/15 308/276/15 307/277/15
f 307/277/15 306/278/15 305/211/15
f 305/211/15 304/267/15 317/269/15
f 317/269/15 315/271/15 313/209/15
f 313/209/15 311/274/15 309/210/15
f 309/210/15 307/277/15 305/211/15
f 305/211/15 317/269/15 313/209/15
usemtl SpacialRoverExploreralumGray
f 2/279/5 3/280/5 1/281/5
f 4/282/2 5/283/2 3/280/2
f 6/284/3 7/285/3 5/283/3
f 8/286/8 9/287/8 7/285/8
f 10/288/9 11/289/9 9/287/9
f 12/290/12 13/291/12 11/289/12
f 14/292/13 15/293/13 13/291/13
f 16/294/10 17/295/10 15/293/10
f 18/296/11 19/297/11 17/295/11
f 20/298/6 21/299/6 19/297/6
f 22/300/7 23/301/7 21/299/7
f 24/302/4 1/281/4 23/303/4
f 7/304/15 15/305/15 23/303/15
f 2/279/5 4/282/5 3/280/5
f 4/282/2 6/284/2 5/283/2
f 6/284/3 8/286/3 7/285/3
f 8/286/8 10/288/8 9/287/8
f 10/288/9 12/290/9 11/289/9
f 12/290/12 14/292/12 13/291/12
f 14/292/13 16/294/13 15/293/13
f 16/294/10 18/296/10 17/295/10
f 18/296/11 20/298/11 19/297/11
f 20/298/6 22/300/6 21/299/6
f 22/300/7 24/306/7 23/301/7
f 24/302/4 2/279/4 1/281/4
f 23/303/15 1/281/15 3/307/15
f 3/307/15 5/308/15 7/304/15
f 7/304/15 9/309/15 11/310/15
f 11/310/15 13/311/15 15/305/15
f 15/305/15 17/312/15 19/313/15
f 19/313/15 21/314/15 15/305/15
f 21/314/15 23/303/15 15/305/15
f 23/303/15 3/307/15 7/304/15
f 7/304/15 11/310/15 15/305/15
f 34/315/77 166/316/78 165/317/79
f 26/318/80 163/319/81 157/320/82
f 27/321/83 160/322/84 163/319/85
f 29/323/86 161/324/87 166/316/78
f 30/325/88 158/326/89 161/324/90
f 164/327/91 33/328/92 159/329/93
f 159/329/94 31/330/95 167/331/96
f 162/332/97 36/333/98 168/334/99
f 168/334/100 34/315/77 165/317/79
f 28/335/101 157/320/82 158/326/89
f 35/336/102 167/331/96 31/330/95
f 32/337/103 160/322/84 25/338/104
f 34/315/77 29/323/86 166/316/78
f 26/318/80 27/321/105 163/319/81
f 27/321/83 25/338/104 160/322/84
f 29/323/86 30/325/106 161/324/87
f 30/325/88 28/335/101 158/326/89
f 164/327/107 32/337/103 33/328/108
f 159/329/94 33/328/109 31/330/95
f 162/332/110 35/339/102 36/333/98
f 168/334/100 36/333/111 34/315/77
f 28/335/101 26/318/80 157/320/82
f 35/336/102 162/340/110 167/331/96
f 32/337/103 164/327/107 160/322/84
usemtl SpacialRoverExploreralumBlack
f 164/341/117 200/342/118 160/343/119
f 168/344/120 208/345/121 162/346/122
f 161/347/123 211/348/124 198/349/125
f 167/350/126 208/351/121 204/352/127
f 201/353/128 215/354/129 197/355/130
f 203/356/131 216/357/132 202/358/133
f 204/359/134 214/360/135 203/356/135
f 210/361/136 197/355/137 196/362/138
f 199/363/139 219/364/140 213/365/141
f 198/366/142 205/367/143 217/368/142
f 208/369/144 212/370/145 204/359/146
f 213/365/147 207/371/148 209/372/148
f 199/363/139 217/368/149 218/373/150
f 211/374/151 196/362/138 205/367/143
f 202/358/133 215/354/129 200/375/152
f 209/372/153 206/376/154 208/377/144
f 159/378/155 202/379/156 164/341/117
f 159/378/155 204/352/127 203/380/157
f 163/381/158 210/382/159 157/383/160
f 161/347/123 199/384/161 166/385/162
f 165/386/163 199/384/161 213/387/164
f 168/344/120 213/387/164 209/388/165
f 157/383/160 211/348/124 158/389/166
f 163/381/158 200/342/118 201/390/167
f 164/341/117 202/379/156 200/342/118
f 168/344/120 209/388/165 208/345/121
f 161/347/123 158/389/166 211/348/124
f 167/350/126 162/391/122 208/351/121
f 201/353/128 200/375/152 215/354/129
f 203/356/131 214/360/168 216/357/132
f 204/359/146 212/370/145 214/360/135
f 210/361/136 201/353/137 197/355/137
f 199/363/139 218/373/150 219/364/140
f 198/366/142 211/374/151 205/367/143
f 208/369/144 206/392/154 212/370/145
f 213/365/141 219/364/140 207/371/169
f 199/363/139 198/366/149 217/368/149
f 211/374/151 210/361/136 196/362/138
f 202/358/133 216/357/132 215/354/129
f 209/372/153 207/371/153 206/376/154
f 159/378/155 203/380/157 202/379/156
f 159/378/155 167/350/126 204/352/127
f 163/381/158 201/390/167 210/382/159
f 161/347/123 198/349/125 199/384/161
f 165/386/163 166/385/162 199/384/161
f 168/344/120 165/386/163 213/387/164
f 157/383/160 210/382/159 211/348/124
f 163/381/158 160/343/119 200/342/118
usemtl SpacialRoverExploreralumGrayDeep
f 230/393/69 44/394/113 46/395/113
f 46/396/1 47/397/1 98/398/1
f 47/399/112 38/400/76 40/401/76
f 47/397/1 93/402/1 92/403/1
f 37/404/15 118/405/15 132/406/15
f 44/407/15 226/408/15 103/409/15
f 38/410/76 42/411/18 40/412/76
f 39/413/19 41/414/114 42/411/19
f 47/399/112 45/415/59 43/416/112
f 48/417/75 44/394/113 45/415/75
f 224/418/116 227/419/22 229/420/22
f 41/421/1 223/422/1 85/423/1
f 42/424/1 89/425/1 40/426/1
f 42/424/1 88/427/1 90/428/1
f 224/418/116 222/429/21 220/430/116
f 225/431/20 221/432/115 222/429/20
f 230/393/69 228/433/16 226/434/69
f 231/435/23 227/419/22 228/433/23
f 221/432/115 41/414/114 37/436/114
f 38/437/15 120/438/15 122/439/15
f 38/437/15 118/405/15 39/440/15
f 121/441/15 43/442/15 45/443/15
f 44/407/15 123/444/15 124/445/15
f 228/446/15 131/447/15 130/448/15
f 228/446/15 127/449/15 226/408/15
f 222/450/15 109/451/15 111/452/15
f 230/453/1 76/454/1 75/455/1
f 230/453/1 72/456/1 231/457/1
f 72/456/1 229/458/1 231/457/1
f 96/459/1 225/460/1 224/461/1
f 229/458/1 68/462/1 67/463/170
f 95/464/1 225/460/1 96/459/1
f 230/393/69 226/434/69 44/394/113
f 99/465/1 81/466/1 46/396/1
f 46/396/1 48/467/1 47/397/1
f 47/397/1 97/468/1 98/398/1
f 98/398/1 99/465/1 46/396/1
f 47/399/112 43/416/112 38/400/76
f 91/469/1 97/468/1 47/397/1
f 47/397/1 40/426/1 89/425/1
f 47/397/1 89/425/1 93/402/1
f 92/403/1 91/469/1 47/397/1
f 129/470/15 128/471/15 37/404/15
f 37/404/15 39/440/15 118/405/15
f 132/406/15 129/470/15 37/404/15
f 101/472/171 100/473/172 44/407/15
f 226/408/15 127/449/15 126/474/15
f 226/408/15 126/474/15 125/475/15
f 104/476/15 101/472/171 44/407/15
f 102/477/15 104/476/15 44/407/15
f 226/408/15 125/475/15 103/409/15
f 103/409/15 102/477/15 44/407/15
f 38/410/76 39/413/18 42/411/18
f 39/413/19 37/436/114 41/414/114
f 47/399/112 48/417/59 45/415/59
f 48/417/75 46/395/113 44/394/113
f 224/418/116 220/430/116 227/419/22
f 86/478/1 88/427/1 41/421/1
f 223/422/1 95/464/1 94/479/1
f 223/422/1 94/479/1 87/480/1
f 84/481/1 86/478/1 41/421/1
f 83/482/1 84/481/1 41/421/1
f 223/422/1 87/480/1 85/423/1
f 85/423/1 83/482/1 41/421/1
f 90/428/1 89/425/1 42/424/1
f 42/424/1 41/421/1 88/427/1
f 224/418/116 225/431/21 222/429/21
f 225/431/20 223/483/115 221/432/115
f 230/393/69 231/435/16 228/433/16
f 231/435/23 229/420/22 227/419/22
f 221/432/115 223/483/115 41/414/114
f 119/484/15 118/405/15 38/437/15
f 38/437/15 43/442/15 121/441/15
f 38/437/15 121/441/15 120/438/15
f 122/439/15 119/484/15 38/437/15
f 121/441/15 45/443/15 44/407/15
f 44/407/15 100/473/172 123/444/15
f 124/445/15 121/441/15 44/407/15
f 130/448/15 127/449/15 228/446/15
f 228/446/15 227/485/15 131/447/15
f 116/486/15 131/447/15 227/485/15
f 227/485/15 220/487/15 222/450/15
f 222/450/15 221/488/15 37/404/15
f 37/404/15 128/471/15 110/489/15
f 37/404/15 110/489/15 108/490/15
f 116/486/15 227/485/15 222/450/15
f 115/491/15 116/486/15 222/450/15
f 37/404/15 108/490/15 106/492/15
f 37/404/15 106/492/15 105/493/15
f 117/494/15 115/491/15 222/450/15
f 113/495/15 117/494/15 222/450/15
f 222/450/15 37/404/15 105/493/15
f 222/450/15 105/493/15 107/496/173
f 114/497/15 113/495/15 222/450/15
f 112/498/15 114/497/15 222/450/15
f 222/450/15 107/496/173 109/451/15
f 111/452/15 112/498/15 222/450/15
f 71/499/1 72/456/1 230/453/1
f 46/396/1 81/466/1 78/500/1
f 46/396/1 78/500/1 73/501/1
f 82/502/1 71/499/1 230/453/1
f 74/503/1 82/502/1 230/453/1
f 46/396/1 73/501/1 79/504/1
f 46/396/1 79/504/1 76/454/1
f 80/505/1 74/503/1 230/453/1
f 77/506/1 80/505/1 230/453/1
f 230/453/1 46/396/1 76/454/1
f 75/455/1 77/506/1 230/453/1
f 96/459/1 224/461/1 229/458/1
f 229/458/1 72/456/1 70/507/1
f 229/458/1 70/507/1 69/508/1
f 67/463/170 96/459/1 229/458/1
f 229/458/1 69/508/1 68/462/1
f 95/464/1 223/422/1 225/460/1
