# Pieza del RoverModificado
mtllib Rover.mtl
o PataDI
v 3.144676 -0.789692 -0.095806
v 3.168583 -0.728170 -0.067689
v 3.178485 -0.702686 0.000194
v 3.168583 -0.728170 0.068076
v 3.144676 -0.789692 0.096194
v 3.120769 -0.851214 0.068076
v 3.110867 -0.876697 0.000194
v 3.120769 -0.851214 -0.067689
v 3.217595 -0.841827 -0.115007
v 3.217596 -0.738146 -0.081265
v 3.173291 -0.715824 -0.081265
v 3.217596 -0.695201 0.000194
v 3.185174 -0.685244 0.000194
v 3.217596 -0.738146 0.081653
v 3.173291 -0.715824 0.081653
v 3.217595 -0.841827 0.115394
v 3.144603 -0.789651 0.115394
v 3.217596 -0.945507 0.081653
v 3.115915 -0.863478 0.081653
v 3.217596 -0.988452 0.000194
v 3.104032 -0.894057 0.000194
v 3.217596 -0.945507 -0.081265
v 3.115915 -0.863478 -0.081265
v 3.144603 -0.789651 -0.115007
v 3.441370 -1.127003 -0.339160
v 3.441370 -0.929565 -0.238297
v 3.529058 -1.127003 -0.327615
v 3.502952 -0.929565 -0.230189
v 3.610769 -1.127003 -0.293769
v 3.560338 -0.929565 -0.206419
v 3.680937 -1.127003 -0.239928
v 3.609616 -0.929565 -0.168607
v 3.734779 -1.127003 -0.169760
v 3.647429 -0.929565 -0.119328
v 3.768625 -1.127003 -0.088047
v 3.671199 -0.929565 -0.061942
v 3.780170 -1.127003 -0.000359
v 3.679307 -0.929565 -0.000359
v 3.768625 -1.127003 0.087328
v 3.671199 -0.929565 0.061223
v 3.734779 -1.127003 0.169040
v 3.647429 -0.929565 0.118609
v 3.680937 -1.127003 0.239208
v 3.609616 -0.929565 0.167887
v 3.610769 -1.127003 0.293050
v 3.560338 -0.929565 0.205700
v 3.529058 -1.127003 0.326896
v 3.502952 -0.929565 0.229470
v 3.441370 -1.127003 0.338440
v 3.441370 -0.929565 0.237578
v 3.353682 -1.127003 0.326896
v 3.379787 -0.929565 0.229470
v 3.271970 -1.127003 0.293050
v 3.322401 -0.929565 0.205700
v 3.201802 -1.127003 0.239208
v 3.273123 -0.929565 0.167887
v 3.147960 -1.127003 0.169040
v 3.215456 -0.929565 0.142403
v 3.114114 -1.127003 0.087328
v 3.215456 -0.929565 0.073540
v 3.102570 -1.127003 -0.000360
v 3.215456 -0.929565 -0.000360
v 3.114114 -1.127003 -0.088047
v 3.215456 -0.929565 -0.074259
v 3.147960 -1.127003 -0.169760
v 3.215456 -0.929565 -0.143122
v 3.201802 -1.127003 -0.239927
v 3.273123 -0.929565 -0.168607
v 3.271969 -1.127003 -0.293769
v 3.322401 -0.929565 -0.206419
v 3.353682 -1.127003 -0.327616
v 3.379787 -0.929565 -0.230189
v 3.441370 -1.217003 -0.237520
v 3.502751 -1.217003 -0.229439
v 3.559950 -1.217003 -0.205747
v 3.609067 -1.217003 -0.168057
v 3.646756 -1.217003 -0.118940
v 3.670449 -1.217003 -0.061741
v 3.678530 -1.217003 -0.000360
v 3.670449 -1.217003 0.061022
v 3.646756 -1.217003 0.118220
v 3.609067 -1.217003 0.167338
v 3.559950 -1.217003 0.205027
v 3.502751 -1.217003 0.228719
v 3.441370 -1.217003 0.236800
v 3.379988 -1.217003 0.228719
v 3.322790 -1.217003 0.205027
v 3.273672 -1.217003 0.167338
v 3.235983 -1.217003 0.118220
v 3.212291 -1.217003 0.061022
v 3.204210 -1.217003 -0.000360
v 3.212291 -1.217003 -0.061741
v 3.235983 -1.217003 -0.118940
v 3.273672 -1.217003 -0.168057
v 3.322790 -1.217003 -0.205747
v 3.379988 -1.217003 -0.229439
v 3.529058 -0.929565 -0.327615
v 3.441370 -0.929565 -0.339160
v 3.610769 -0.929565 -0.293769
v 3.680937 -0.929565 -0.239928
v 3.734779 -0.929565 -0.169760
v 3.768625 -0.929565 -0.088047
v 3.780170 -0.929565 -0.000359
v 3.768625 -0.929565 0.087328
v 3.734779 -0.929565 0.169040
v 3.680937 -0.929565 0.239208
v 3.610769 -0.929565 0.293050
v 3.529058 -0.929565 0.326896
v 3.441370 -0.929565 0.338440
v 3.353682 -0.929565 0.326896
v 3.271970 -0.929565 0.293050
v 3.201802 -0.929565 0.239208
v 3.147960 -0.929565 0.169040
v 3.114114 -0.929565 0.087328
v 3.102570 -0.929565 -0.000360
v 3.114114 -0.929565 -0.088047
v 3.147960 -0.929565 -0.169760
v 3.201802 -0.929565 -0.239927
v 3.271969 -0.929565 -0.293769
v 3.353682 -0.929565 -0.327616
v 3.485709 -0.599565 -0.165837
v 3.441370 -0.599565 -0.171675
v 3.527027 -0.599565 -0.148723
v 3.562508 -0.599565 -0.121497
v 3.589733 -0.599565 -0.086017
v 3.606847 -0.599565 -0.044699
v 3.612684 -0.599565 -0.000360
v 3.606847 -0.599565 0.043980
v 3.589733 -0.599565 0.085298
v 3.562508 -0.599565 0.120778
v 3.527027 -0.599565 0.148003
v 3.485709 -0.599565 0.165118
v 3.441370 -0.599565 0.170955
v 3.397030 -0.599565 0.165118
v 3.355712 -0.599565 0.148003
v 3.320232 -0.599565 0.120778
v 3.218711 -0.599565 0.102429
v 3.218711 -0.599565 0.052848
v 3.218711 -0.599565 -0.000360
v 3.218711 -0.599565 -0.053567
v 3.218711 -0.599565 -0.103148
v 3.320232 -0.599565 -0.121497
v 3.355712 -0.599565 -0.148723
v 3.397030 -0.599565 -0.165837
v 3.441370 -0.729565 -0.339160
v 3.441370 -0.729565 0.338440
v 3.353682 -0.729565 0.326896
v 3.271970 -0.729565 0.293050
v 3.353682 -0.729565 -0.327616
v 3.271969 -0.729565 -0.293769
v 3.441370 -0.729565 -0.238297
v 3.441370 -0.729565 0.237578
v 3.379787 -0.729565 0.229470
v 3.322401 -0.729565 0.205700
v 3.379787 -0.729565 -0.230189
v 3.322401 -0.729565 -0.206419
v 0.326167 -0.029565 0.293050
v 0.326167 0.370435 0.293050
v 0.326167 -0.029565 -0.206419
v 0.326167 -0.029565 -0.293769
v 0.326167 0.370435 -0.206419
v 0.326167 0.370435 -0.293769
v 1.899982 -0.449565 -0.293769
v 1.899982 -0.249565 -0.293769
v 1.899982 -0.449565 -0.206419
v 1.899982 -0.249565 -0.206419
v 1.899982 -0.446565 0.205700
v 1.899982 -0.246565 0.205700
v 1.899982 -0.246565 0.293050
v 1.899982 -0.446565 0.293050
v 1.900141 -0.539565 0.205700
v 1.900141 -0.189565 0.293050
v 1.900141 -0.189565 0.205700
v 1.900141 -0.539565 0.293050
v 1.900141 -0.539565 -0.293769
v 1.900141 -0.539565 -0.206419
v 1.900141 -0.189565 -0.293769
v 1.900141 -0.189565 -0.206419
v 0.724813 0.101181 -0.095806
v 0.744161 0.164970 -0.067689
v 0.752175 0.191392 0.000194
v 0.744161 0.164970 0.068076
v 0.724813 0.101181 0.096194
v 0.705466 0.037393 0.068076
v 0.697452 0.010971 0.000194
v 0.705466 0.037393 -0.067689
v 0.274447 0.403667 -0.104345
v 0.244652 0.305433 -0.147646
v 0.804841 0.067139 -0.147646
v 0.286789 0.444358 0.000194
v 0.274447 0.403668 0.104732
v 0.244652 0.305433 0.148034
v 0.214857 0.207199 0.104732
v 0.202515 0.166509 0.000194
v 0.214857 0.207199 -0.104345
v 0.834636 0.165373 -0.104345
v 0.846978 0.206064 0.000194
v 0.834636 0.165374 0.104732
v 0.804841 0.067139 0.148034
v 0.775045 -0.031094 0.104732
v 0.762704 -0.071785 0.000194
v 0.775045 -0.031095 -0.104345
v 0.326167 0.370435 0.205700
v 0.326167 -0.029565 0.205700
v 0.562263 -0.106065 0.293050
v 0.562263 0.286435 0.205700
v 0.562263 0.286435 0.293050
v 0.562263 -0.106065 0.205700
v 0.562263 -0.106065 -0.293769
v 0.562263 -0.106065 -0.206419
v 0.562263 0.286435 -0.293769
v 0.562263 0.286435 -0.206419
v 0.328527 -0.032186 0.410414
v 0.328527 0.374374 0.410414
v 0.328527 0.374373 -0.411132
v 0.328527 -0.032187 -0.411132
v 0.559902 -0.109942 -0.411132
v 0.559902 0.288996 0.410414
v 0.559902 -0.109941 0.410414
v 0.559902 0.288996 -0.411132
v 0.328527 0.342072 -0.411132
v 0.326167 0.338211 -0.293769
v 0.326167 0.002211 -0.293769
v 0.328527 0.000562 -0.411132
v 0.326167 0.338211 0.293050
v 0.328527 0.342073 0.410414
v 0.328527 0.000562 0.410414
v 0.326167 0.002211 0.293050
v -0.173813 0.338211 -0.293769
v -0.273833 0.238157 -0.293769
v -0.244538 0.308906 -0.293769
v -0.273833 0.102221 -0.293769
v -0.173813 0.002211 -0.293769
v -0.244538 0.031504 -0.293769
v -0.271472 0.242018 -0.411132
v -0.171452 0.342072 -0.411132
v -0.242177 0.312767 -0.411132
v -0.171452 0.000562 -0.411132
v -0.271472 0.100571 -0.411132
v -0.242177 0.029854 -0.411132
v -0.273833 0.238157 0.293050
v -0.173813 0.338211 0.293050
v -0.244538 0.308906 0.293050
v -0.173813 0.002211 0.293050
v -0.273833 0.102222 0.293050
v -0.244538 0.031504 0.293050
v -0.171452 0.342073 0.410414
v -0.271472 0.242018 0.410414
v -0.242177 0.312768 0.410414
v -0.271472 0.100571 0.410414
v -0.171452 0.000562 0.410414
v -0.242177 0.029854 0.410414
v -0.173813 0.170211 -0.293769
v -0.171452 0.171317 -0.411132
v 3.320232 -0.599565 -0.000360
v 0.291370 0.325703 0.205700
v -0.289101 0.325703 0.205700
v 0.288679 0.325703 -0.206308
v -0.291792 0.325703 -0.206308
v -0.289101 0.075167 0.205700
v 0.191371 0.075167 0.205700
v -0.291792 0.075167 -0.206308
v 0.188679 0.075167 -0.206308
v -0.016137 0.075167 0.110619
v 0.053863 0.075167 0.040619
v -0.165735 0.075167 0.040619
v -0.095735 0.075167 0.110619
v 0.053863 0.075167 -0.029219
v -0.016137 0.075167 -0.099219
v -0.095735 0.075167 -0.099219
v -0.165735 0.075167 -0.029219
v -0.095735 -0.324833 0.110619
v -0.165735 -0.324833 0.040619
v 0.053863 -0.324833 0.040619
v -0.016137 -0.324833 0.110619
v -0.165735 -0.324833 -0.029219
v -0.095735 -0.324833 -0.099219
v -0.016137 -0.324833 -0.099219
v 0.053863 -0.324833 -0.029219
v 0.326167 -0.029565 0.293050
v 0.326167 0.370435 0.293050
v 0.326167 -0.029565 -0.206419
v 0.326167 -0.029565 -0.293769
v 0.326167 0.370435 -0.206419
v 0.326167 0.370435 -0.293769
v 0.326167 0.370435 0.205700
v 0.326167 -0.029565 0.205700
v -0.373833 0.030435 0.293050
v -0.313833 -0.029565 0.293050
v -0.356259 -0.011990 0.293050
v -0.313833 0.370435 0.293050
v -0.373833 0.310435 0.293050
v -0.356259 0.352863 0.293050
v -0.373833 0.030435 -0.206419
v -0.313833 -0.029565 -0.206419
v -0.356259 -0.011991 -0.206419
v -0.313833 -0.029565 -0.293769
v -0.373833 0.030435 -0.293769
v -0.356259 -0.011991 -0.293769
v -0.313833 0.370435 -0.206419
v -0.373833 0.310435 -0.206419
v -0.356259 0.352863 -0.206419
v -0.373833 0.310435 -0.293769
v -0.313833 0.370435 -0.293769
v -0.356259 0.352863 -0.293769
v -0.373833 0.310435 0.205700
v -0.313833 0.370435 0.205700
v -0.356259 0.352863 0.205700
v -0.313833 -0.029565 0.205700
v -0.373833 0.030435 0.205700
v -0.356259 -0.011990 0.205700
v -0.313833 0.170436 0.205700
v -0.313833 0.170436 0.293050
v -0.313833 0.170435 -0.206419
v -0.313833 0.170435 -0.293769
v 0.291370 0.325703 0.205700
v -0.289101 0.325703 0.205700
v 0.288679 0.325703 -0.206308
v -0.291792 0.325703 -0.206308
v -0.289101 0.075167 0.205700
v 0.191371 0.075167 0.205700
v -0.291792 0.075167 -0.206308
v 0.188679 0.075167 -0.206308
v -0.016137 0.075167 0.110619
v 0.053863 0.075167 0.040619
v -0.165735 0.075167 0.040619
v -0.095735 0.075167 0.110619
v 0.053863 0.075167 -0.029219
v -0.016137 0.075167 -0.099219
v -0.095735 0.075167 -0.099219
v -0.165735 0.075167 -0.029219
v -0.095735 -0.324833 0.110619
v -0.165735 -0.324833 0.040619
v 0.053863 -0.324833 0.040619
v -0.016137 -0.324833 0.110619
v -0.165735 -0.324833 -0.029219
v -0.095735 -0.324833 -0.099219
v -0.016137 -0.324833 -0.099219
v 0.053863 -0.324833 -0.029219
v 0.326167 -0.029565 0.293050
v 0.326167 0.370435 0.293050
v 0.326167 -0.029565 -0.206419
v 0.326167 -0.029565 -0.293769
v 0.326167 0.370435 -0.206419
v 0.326167 0.370435 -0.293769
v 0.326167 0.370435 0.205700
v 0.326167 -0.029565 0.205700
v -0.373833 0.030435 0.293050
v -0.313833 -0.029565 0.293050
v -0.356259 -0.011990 0.293050
v -0.313833 0.370435 0.293050
v -0.373833 0.310435 0.293050
v -0.356259 0.352863 0.293050
v -0.373833 0.030435 -0.206419
v -0.313833 -0.029565 -0.206419
v -0.356259 -0.011991 -0.206419
v -0.313833 -0.029565 -0.293769
v -0.373833 0.030435 -0.293769
v -0.356259 -0.011991 -0.293769
v -0.313833 0.370435 -0.206419
v -0.373833 0.310435 -0.206419
v -0.356259 0.352863 -0.206419
v -0.373833 0.310435 -0.293769
v -0.313833 0.370435 -0.293769
v -0.356259 0.352863 -0.293769
v -0.373833 0.310435 0.205700
v -0.313833 0.370435 0.205700
v -0.356259 0.352863 0.205700
v -0.313833 -0.029565 0.205700
v -0.373833 0.030435 0.205700
v -0.356259 -0.011990 0.205700
v -0.313833 0.170436 0.205700
v -0.313833 0.170436 0.293050
v -0.313833 0.170435 -0.206419
v -0.313833 0.170435 -0.293769
v 3.544948 -2.761391 -0.664998
v 3.679732 -2.761402 -0.664998
v 3.594818 -2.784858 -0.664998
v 3.644152 -2.784862 -0.664998
v 3.332089 -2.504964 -0.664997
v 3.371127 -2.633172 -0.664997
v 3.319797 -2.545602 -0.664997
v 3.334085 -2.592530 -0.664997
v 3.679732 -2.761402 -0.856998
v 3.544948 -2.761391 -0.856998
v 3.644152 -2.784862 -0.856998
v 3.594818 -2.784858 -0.856998
v 3.371127 -2.633172 -0.856997
v 3.332089 -2.504964 -0.856997
v 3.334085 -2.592530 -0.856997
v 3.319797 -2.545602 -0.856997
v 3.555330 -0.925168 -0.940436
v 3.458421 -0.865782 -0.940436
v 3.347905 -0.892315 -0.940436
v 3.288519 -0.989223 -0.940436
v 3.315052 -1.099740 -0.940436
v 3.411960 -1.159125 -0.940436
v 3.522477 -1.132593 -0.940436
v 3.581862 -1.035684 -0.940436
v 3.946830 -1.666109 -0.664998
v 3.946830 -1.666109 -0.856998
v 4.294473 -1.922546 -0.856998
v 4.294473 -1.922546 -0.664998
v 4.224811 -1.287132 -0.664998
v 4.224811 -1.287132 -0.856998
v 3.548295 -0.792594 -0.664998
v 3.346694 -0.793541 -0.664997
v 3.210662 -0.978995 -0.664997
v 3.270314 -1.171571 -0.664997
v 3.192676 -1.040212 -0.664997
v 3.214510 -1.110700 -0.664997
v 3.346694 -0.793541 -0.856997
v 3.548295 -0.792594 -0.856998
v 3.270314 -1.171571 -0.856997
v 3.210662 -0.978995 -0.856997
v 3.214509 -1.110700 -0.856997
v 3.192676 -1.040212 -0.856997
v 4.355177 -1.383296 -0.856998
v 4.454163 -1.704838 -0.856998
v 4.447966 -1.485038 -0.856998
v 4.484198 -1.602731 -0.856998
v 4.454163 -1.704838 -0.664998
v 4.355177 -1.383296 -0.664998
v 4.484198 -1.602731 -0.664998
v 4.447966 -1.485038 -0.664998
v 3.555330 -0.925168 -0.499637
v 3.458422 -0.865782 -0.499637
v 3.347905 -0.892315 -0.499637
v 3.288519 -0.989223 -0.499637
v 3.315052 -1.099740 -0.499637
v 3.411961 -1.159125 -0.499637
v 3.522477 -1.132592 -0.499637
v 3.581862 -1.035684 -0.499637
v 3.441371 -1.100488 0.435860
v 3.441371 -0.926073 0.435860
v 3.331762 -1.100488 0.421429
v 3.331762 -0.926073 0.421429
v 3.229621 -1.100488 0.379121
v 3.229621 -0.926073 0.379121
v 3.141912 -1.100488 0.311820
v 3.141912 -0.926073 0.311820
v 3.074610 -1.100488 0.224110
v 3.074610 -0.926073 0.224110
v 3.032302 -1.100488 0.121970
v 3.032302 -0.926073 0.121970
v 3.017871 -1.100488 0.012360
v 3.017871 -0.926073 0.012360
v 3.032302 -1.100488 -0.097250
v 3.032302 -0.926073 -0.097250
v 3.074609 -1.100488 -0.199390
v 3.074609 -0.926073 -0.199390
v 3.141912 -1.100488 -0.287100
v 3.141912 -0.926073 -0.287100
v 3.229621 -1.100488 -0.354402
v 3.229621 -0.926073 -0.354402
v 3.331761 -1.100488 -0.396710
v 3.331761 -0.926073 -0.396710
v 3.441371 -1.100488 -0.411140
v 3.441371 -0.926073 -0.411140
v 3.550981 -1.100488 -0.396710
v 3.550981 -0.926073 -0.396710
v 3.653121 -1.100488 -0.354402
v 3.653121 -0.926073 -0.354402
v 3.740830 -1.100488 -0.287100
v 3.740830 -0.926073 -0.287100
v 3.808133 -1.100488 -0.199391
v 3.808133 -0.926073 -0.199391
v 3.850441 -1.100488 -0.097250
v 3.850441 -0.926073 -0.097250
v 3.864872 -1.100488 0.012360
v 3.864872 -0.926073 0.012360
v 3.850441 -1.100488 0.121969
v 3.850441 -0.926073 0.121969
v 3.808133 -1.100488 0.224110
v 3.808133 -0.926073 0.224110
v 3.740831 -1.100488 0.311819
v 3.740831 -0.926073 0.311819
v 3.653121 -1.100488 0.379121
v 3.653121 -0.926073 0.379121
v 3.550981 -1.100488 0.421429
v 3.550981 -0.926073 0.421429
v 3.768627 -0.926073 0.100048
v 3.680939 -0.926073 0.251928
v 3.734781 -0.926073 0.181760
v 3.529059 -0.926073 0.339616
v 3.610771 -0.926073 0.305769
v 3.353683 -0.926073 0.339616
v 3.441371 -0.926073 0.351160
v 3.768627 -0.926073 -0.075328
v 3.680939 -0.926073 -0.227208
v 3.734780 -0.926073 -0.157040
v 3.529059 -0.926073 -0.314896
v 3.353683 -0.926073 -0.314896
v 3.441371 -0.926073 -0.326440
v 3.610771 -0.926073 -0.281049
v 3.201804 -0.926073 0.251928
v 3.201803 -0.926073 -0.227208
v 3.102571 -0.926073 0.012360
v 3.114115 -0.926073 0.100048
v 3.147962 -0.926073 -0.157040
v 3.114115 -0.926073 -0.075328
v 3.147962 -0.926073 0.181760
v 3.780171 -0.926073 0.012360
v 3.271971 -0.926073 -0.281049
v 3.271971 -0.926073 0.305770
v 3.441371 -1.100488 0.351160
v 3.271971 -1.100488 0.305770
v 3.353683 -1.100488 0.339616
v 3.114115 -1.100488 0.100048
v 3.147962 -1.100488 0.181760
v 3.102571 -1.100488 0.012360
v 3.201804 -1.100488 0.251928
v 3.610771 -1.100488 -0.281049
v 3.441371 -1.100488 -0.326440
v 3.529059 -1.100488 -0.314896
v 3.271971 -1.100488 -0.281049
v 3.353683 -1.100488 -0.314896
v 3.147962 -1.100488 -0.157040
v 3.201803 -1.100488 -0.227208
v 3.780171 -1.100488 0.012360
v 3.768627 -1.100488 -0.075328
v 3.768627 -1.100488 0.100048
v 3.610771 -1.100488 0.305769
v 3.680939 -1.100488 0.251928
v 3.734780 -1.100488 -0.157040
v 3.734781 -1.100488 0.181760
v 3.680939 -1.100488 -0.227208
v 3.114115 -1.100488 -0.075328
v 3.529059 -1.100488 0.339616
v 3.331761 -1.100488 -0.501520
v 3.331761 -0.926073 -0.501520
v 3.441371 -1.100488 -0.501520
v 3.441371 -0.926073 -0.501520
v 3.550981 -1.100488 -0.501520
v 3.550981 -0.926073 -0.501520
v 3.709333 -2.675551 -0.856998
v 3.782538 -2.602346 -0.856998
v 3.809333 -2.502346 -0.856998
v 3.782538 -2.402346 -0.856998
v 3.409334 -2.502346 -0.856997
v 3.436129 -2.402346 -0.856997
v 3.509334 -2.329141 -0.856998
v 3.436129 -2.602346 -0.856997
v 3.509334 -2.675551 -0.856998
v 3.709333 -2.329140 -0.856998
v 3.653497 -2.690512 -0.856998
v 3.609334 -2.302345 -0.856998
v 3.609334 -2.702346 -0.856998
v 3.782538 -2.602346 -0.664998
v 3.436129 -2.402346 -0.664998
v 3.609334 -2.302345 -0.664998
v 3.509334 -2.329141 -0.664998
v 3.609334 -2.702346 -0.664998
v 3.709333 -2.675551 -0.664998
v 3.625169 -2.698102 -0.664998
v 3.809333 -2.502346 -0.664998
v 3.409334 -2.502346 -0.664998
v 3.709333 -2.329140 -0.664998
v 3.436129 -2.602346 -0.664998
v 3.509334 -2.675551 -0.664998
v 3.525169 -2.679794 -0.664998
v 3.782538 -2.402346 -0.664998
v 3.409304 -0.982082 -0.664998
v 3.409304 -0.982082 -0.856998
vt 0.158491 0.932821
vt 0.236822 0.926542
vt 0.164577 0.949018
vt 0.141144 0.497956
vt 0.170140 0.518034
vt 0.139172 0.518034
vt 0.272475 0.481245
vt 0.260245 0.574143
vt 0.185908 0.517102
vt 0.314867 0.591543
vt 0.282148 0.578375
vt 0.293126 0.569490
vt 0.202555 0.613260
vt 0.228006 0.588844
vt 0.221839 0.619191
vt 0.141144 0.538112
vt 0.175607 0.545607
vt 0.146983 0.557424
vt 0.184794 0.432376
vt 0.214508 0.451376
vt 0.202075 0.458074
vt 0.281333 0.422434
vt 0.282148 0.457693
vt 0.269652 0.451114
vt 0.241907 0.621258
vt 0.256115 0.588977
vt 0.261994 0.619382
vt 0.156467 0.575230
vt 0.191182 0.569006
vt 0.169233 0.590852
vt 0.169233 0.445217
vt 0.182246 0.477997
vt 0.156467 0.460838
vt 0.261994 0.416686
vt 0.242054 0.445777
vt 0.241907 0.414810
vt 0.281333 0.613634
vt 0.299185 0.604235
vt 0.184794 0.603692
vt 0.214508 0.584692
vt 0.171520 0.532089
vt 0.175607 0.490462
vt 0.171520 0.503980
vt 0.202555 0.422808
vt 0.228006 0.447224
vt 0.299184 0.431833
vt 0.293126 0.466578
vt 0.242054 0.590291
vt 0.182246 0.558071
vt 0.191182 0.467062
vt 0.256115 0.447091
vt 0.269652 0.584954
vt 0.202075 0.577995
vt 0.146983 0.478645
vt 0.221839 0.416877
vt 0.355951 0.674789
vt 0.331741 0.729534
vt 0.331741 0.674789
vt 0.292802 0.853465
vt 0.265293 0.845822
vt 0.281298 0.833540
vt 0.272936 0.873331
vt 0.281561 0.862091
vt 0.267514 0.886421
vt 0.253011 0.861828
vt 0.265665 0.900469
vt 0.245291 0.880467
vt 0.245290 0.920471
vt 0.242657 0.900469
vt 0.272936 0.927606
vt 0.267514 0.914516
vt 0.265293 0.955115
vt 0.253011 0.939110
vt 0.281561 0.938847
vt 0.281298 0.967397
vt 0.356133 0.729666
vt 0.380343 0.674921
vt 0.380343 0.729666
vt 0.303026 0.871163
vt 0.283061 0.895406
vt 0.287456 0.870483
vt 0.322059 0.870992
vt 0.305232 0.896374
vt 0.346583 0.881324
vt 0.326898 0.891571
vt 0.331314 0.859962
vt 0.362945 0.866331
vt 0.351179 0.836287
vt 0.341247 0.848124
vt 0.360434 0.825257
vt 0.374868 0.847615
vt 0.382510 0.804279
vt 0.381542 0.826450
vt 0.353925 0.791268
vt 0.357298 0.806484
vt 0.304133 0.674789
vt 0.287130 0.729534
vt 0.287130 0.674789
vt 0.137404 0.836450
vt 0.214768 0.843977
vt 0.138260 0.850593
vt 0.162255 0.712532
vt 0.228028 0.753951
vt 0.156678 0.725557
vt 0.147576 0.752382
vt 0.224503 0.763524
vt 0.221476 0.773266
vt 0.169701 0.961063
vt 0.240512 0.935215
vt 0.215908 0.854115
vt 0.139844 0.864672
vt 0.144077 0.766112
vt 0.218956 0.783151
vt 0.175200 0.973990
vt 0.244471 0.944522
vt 0.217571 0.864180
vt 0.142154 0.878651
vt 0.141291 0.780004
vt 0.216950 0.793154
vt 0.248430 0.953829
vt 0.180699 0.986916
vt 0.219752 0.874145
vt 0.145183 0.892492
vt 0.139226 0.794021
vt 0.215464 0.803246
vt 0.252120 0.962501
vt 0.185823 0.998961
vt 0.148922 0.906158
vt 0.222444 0.883985
vt 0.214500 0.813402
vt 0.137888 0.808126
vt 0.175388 0.687433
vt 0.252120 0.704389
vt 0.241500 0.726502
vt 0.153362 0.919613
vt 0.225641 0.893672
vt 0.214062 0.823594
vt 0.137280 0.822282
vt 0.236539 0.735416
vt 0.168497 0.699813
vt 0.229334 0.903182
vt 0.214152 0.833795
vt 0.232044 0.744574
vt 0.151780 0.738852
vt 0.296054 0.819148
vt 0.237437 0.785305
vt 0.256976 0.751463
vt 0.352529 0.647548
vt 0.331923 0.674921
vt 0.335527 0.647548
vt 0.368952 0.643148
vt 0.356133 0.674921
vt 0.368770 0.761307
vt 0.355951 0.729534
vt 0.379336 0.735800
vt 0.335345 0.756907
vt 0.352347 0.756907
vt 0.287312 0.729666
vt 0.304315 0.674921
vt 0.304315 0.729666
vt 0.270310 0.729666
vt 0.287312 0.674921
vt 0.331923 0.729666
vt 0.270128 0.729534
vt 0.270128 0.674789
vt 0.380161 0.674789
vt 0.304133 0.729534
vt 0.956039 0.781802
vt 0.893884 0.852332
vt 0.932111 0.769751
vt 0.890865 0.898939
vt 0.857526 0.982512
vt 0.833885 0.894386
vt 0.319939 0.846194
vt 0.299937 0.825820
vt 0.319939 0.823187
vt 0.305892 0.848043
vt 0.292802 0.947472
vt 0.305892 0.952894
vt 0.319939 0.954743
vt 0.299937 0.975117
vt 0.319939 0.977751
vt 0.933060 0.769976
vt 0.879378 0.743141
vt 0.935547 0.750207
vt 0.895048 0.851037
vt 0.836230 0.865353
vt 0.838153 0.845521
vt 0.835472 0.874525
vt 0.892452 0.879077
vt 0.937430 0.723339
vt 0.878987 0.736985
vt 0.881155 0.717178
vt 0.876891 0.762910
vt 0.027237 0.272773
vt 0.355043 0.316332
vt 0.012606 0.315985
vt 0.038157 0.252523
vt 0.369674 0.273121
vt 0.023486 0.336257
vt 0.355043 0.336257
vt 0.038551 0.379319
vt 0.370109 0.379319
vt 0.039338 0.273096
vt 0.371101 0.252831
vt 0.371122 0.272756
vt 0.024232 0.316144
vt 0.356037 0.335729
vt 0.013381 0.336432
vt 0.356017 0.315804
vt 0.028138 0.379600
vt 0.370794 0.378897
vt 0.324265 0.104617
vt 0.404101 0.124543
vt 0.324265 0.124542
vt 0.404102 0.106439
vt 0.324265 0.126364
vt 0.324265 0.106439
vt 0.030359 0.208893
vt 0.000348 0.124541
vt 0.030359 0.020265
vt 0.351027 0.029399
vt 0.351594 0.009483
vt 0.030927 0.000348
vt 0.000348 0.104616
vt 0.030359 0.022088
vt 0.351026 0.031221
vt 0.000348 0.106440
vt 0.351594 0.221499
vt 0.030359 0.210717
vt 0.351027 0.201582
vt 0.000348 0.126365
vt 0.835720 0.899164
vt 0.889841 0.897450
vt 0.912984 0.985458
vt 0.589710 0.208842
vt 0.475662 0.169892
vt 0.475662 0.130942
vt 0.833846 0.892038
vt 0.883411 0.716663
vt 0.938656 0.723597
vt 0.938656 0.977793
vt 0.915886 0.891205
vt 0.935261 0.743146
vt 0.876765 0.763676
vt 0.830450 0.847439
vt 0.837807 0.847835
vt 0.826533 0.891137
vt 0.876003 0.715704
vt 0.869336 0.762890
vt 0.873627 0.770455
vt 0.588812 0.132482
vt 0.475302 0.105696
vt 0.589350 0.105696
vt 0.589171 0.104156
vt 0.475123 0.104156
vt 0.589171 0.027512
vt 0.475662 0.000739
vt 0.589710 0.000738
vt 0.588811 0.001021
vt 0.475302 0.027795
vt 0.474763 0.001022
vt 0.440380 0.027718
vt 0.408834 0.001132
vt 0.439841 0.000945
vt 0.458631 0.202443
vt 0.451948 0.155304
vt 0.474764 0.132481
vt 0.459169 0.099011
vt 0.452487 0.050608
vt 0.409194 0.027402
vt 0.440740 0.000816
vt 0.440201 0.027590
vt 0.374265 0.027129
vt 0.391010 0.000424
vt 0.391728 0.027205
vt 0.408476 0.000620
vt 0.457662 0.027580
vt 0.458200 0.000806
vt 0.475123 0.027512
vt 0.408116 0.027914
vt 0.391369 0.001329
vt 0.390650 0.028110
vt 0.373906 0.001405
vt 0.457840 0.027728
vt 0.457302 0.000954
vt 0.475123 0.065834
vt 0.458990 0.034194
vt 0.452308 0.081333
vt 0.458990 0.097471
vt 0.452308 0.050325
vt 0.459529 0.137626
vt 0.452846 0.153764
vt 0.459529 0.202160
vt 0.475662 0.208842
vt 0.452846 0.186029
vt 0.304147 0.812937
vt 0.327305 0.795419
vt 0.327305 0.804844
vt 0.327305 0.785305
vt 0.304147 0.785305
vt 0.327305 0.775191
vt 0.304147 0.757673
vt 0.327305 0.765766
vt 0.189563 0.503461
vt 0.196624 0.491231
vt 0.206610 0.481245
vt 0.218840 0.474184
vt 0.232481 0.470528
vt 0.246604 0.470528
vt 0.260245 0.474183
vt 0.282461 0.491230
vt 0.289522 0.503461
vt 0.293177 0.517102
vt 0.293177 0.531224
vt 0.289522 0.544865
vt 0.282461 0.557095
vt 0.272475 0.567081
vt 0.246604 0.577798
vt 0.232482 0.577798
vt 0.218841 0.574143
vt 0.206610 0.567081
vt 0.196624 0.557095
vt 0.189563 0.544865
vt 0.185908 0.531224
vt 0.314867 0.444525
vt 0.377707 0.782613
vt 0.183637 0.672223
vt 0.266401 0.747559
vt 0.276515 0.746227
vt 0.286629 0.747559
vt 0.296054 0.751463
vt 0.286629 0.823051
vt 0.276515 0.824383
vt 0.266401 0.823051
vt 0.256976 0.819147
vt 0.248883 0.812937
vt 0.242673 0.804844
vt 0.238769 0.795419
vt 0.238769 0.775191
vt 0.242673 0.765766
vt 0.248883 0.757673
vt 0.379518 0.668655
vt 0.270310 0.674921
vt 0.380161 0.729534
vt 0.918428 0.863051
vt 0.914063 0.985413
vt 0.893125 0.870869
vt 0.369714 0.253196
vt 0.028445 0.252831
vt 0.404101 0.104618
vt 0.404102 0.126364
vt 0.351026 0.199760
vt 0.030927 0.230633
vt 0.857431 0.981727
vt 0.855531 0.974503
vt 0.589710 0.130942
vt 0.828132 0.874130
vt 0.828935 0.864453
vt 0.872190 0.742210
vt 0.871778 0.736223
vt 0.840903 0.841148
vt 0.589350 0.027795
vt 0.588811 0.209125
vt 0.474764 0.209125
vt 0.451948 0.186312
vt 0.458631 0.139166
vt 0.452487 0.082873
vt 0.459169 0.034477
vt 0.373547 0.000348
vt 0.373188 0.028186
vt 0.071802 0.403474
vt 0.085879 0.981510
vt 0.072027 0.979730
vt 0.057838 0.403204
vt 0.058079 0.978995
vt 0.044131 0.979741
vt 0.030281 0.981533
vt 0.043874 0.403485
vt 0.016430 0.983325
vt 0.029923 0.404157
vt 0.113680 0.984027
vt 0.127630 0.404792
vt 0.127630 0.983289
vt 0.099703 0.404793
vt 0.099731 0.983290
vt 0.085753 0.404133
vt 0.984733 0.357220
vt 0.961131 0.475824
vt 0.961131 0.357220
vt 0.616959 0.323785
vt 0.553909 0.274002
vt 0.638455 0.290060
vt 0.735649 0.249787
vt 0.703948 0.185710
vt 0.755537 0.218417
vt 0.684060 0.217080
vt 0.668548 0.356492
vt 0.690044 0.322768
vt 0.828763 0.357220
vt 0.808055 0.475824
vt 0.808055 0.357220
vt 0.704386 0.019305
vt 0.725304 0.082156
vt 0.659530 0.105997
vt 0.931778 0.357220
vt 0.911070 0.475824
vt 0.911070 0.357220
vt 0.881717 0.357220
vt 0.881717 0.475824
vt 0.858115 0.475824
vt 0.828762 0.475824
vt 0.778702 0.357220
vt 0.778702 0.475824
vt 0.858116 0.357220
vt 0.997191 0.332046
vt 0.780315 0.302446
vt 0.997191 0.302446
vt 0.780315 0.234672
vt 0.997191 0.137298
vt 0.780315 0.137298
vt 0.780315 0.069524
vt 0.996757 0.332673
vt 0.779881 0.303073
vt 0.996758 0.303073
vt 0.996758 0.167525
vt 0.779881 0.137925
vt 0.996758 0.137925
vt 0.997191 0.166898
vt 0.654309 0.137298
vt 0.749192 0.166898
vt 0.654309 0.166898
vt 0.653875 0.167525
vt 0.748758 0.137925
vt 0.748758 0.167525
vt 0.764320 0.332673
vt 0.748758 0.303073
vt 0.764320 0.303073
vt 0.749192 0.302446
vt 0.764754 0.332046
vt 0.749192 0.332046
vt 0.764754 0.302446
vt 0.780315 0.332046
vt 0.764320 0.167525
vt 0.764320 0.137925
vt 0.779881 0.167525
vt 0.780315 0.166898
vt 0.764754 0.137298
vt 0.764754 0.166898
vt 0.749192 0.137298
vt 0.779881 0.070151
vt 0.779881 0.332673
vt 0.765504 0.173480
vt 0.779881 0.235299
vt 0.779881 0.002377
vt 0.765504 0.008333
vt 0.765504 0.297118
vt 0.759549 0.282741
vt 0.759549 0.187857
vt 0.759549 0.022710
vt 0.759549 0.117593
vt 0.765504 0.131970
vt 0.780315 0.001750
vt 0.765938 0.007705
vt 0.759983 0.022082
vt 0.765938 0.131343
vt 0.759983 0.116966
vt 0.765938 0.172853
vt 0.759983 0.187230
vt 0.765938 0.296490
vt 0.759983 0.282114
vt 0.740296 0.392630
vt 0.710143 0.414319
vt 0.630014 0.416402
vt 0.578425 0.383695
vt 0.610616 0.382179
vt 0.607502 0.367837
vt 0.613886 0.357912
vt 0.628228 0.354798
vt 0.636936 0.360398
vt 0.619324 0.387780
vt 0.640050 0.374741
vt 0.633666 0.384666
vt 0.997191 0.001750
vt 0.653875 0.137925
vt 0.748758 0.332673
vt 0.996758 0.002377
vt 0.015973 0.404828
vt 0.113666 0.405066
vt 0.984733 0.475824
vt 0.546978 0.310493
vt 0.638612 0.085079
vt 0.638612 0.043146
vt 0.662453 0.019305
vt 0.725304 0.040223
vt 0.701463 0.105997
vt 0.931778 0.475824
vt 0.504430 0.564988
vt 0.464329 0.590407
vt 0.464329 0.564988
vt 0.504430 0.590407
vt 0.464329 0.615825
vt 0.504430 0.615825
vt 0.464329 0.641244
vt 0.504430 0.641244
vt 0.464329 0.666662
vt 0.504430 0.666662
vt 0.464329 0.692080
vt 0.464185 0.841407
vt 0.504286 0.815989
vt 0.504286 0.841407
vt 0.464185 0.815989
vt 0.504286 0.790571
vt 0.464185 0.790571
vt 0.504286 0.765152
vt 0.464185 0.765152
vt 0.504286 0.739734
vt 0.464185 0.739734
vt 0.504286 0.714316
vt 0.464185 0.714316
vt 0.504286 0.688897
vt 0.795896 0.719174
vt 0.759757 0.722508
vt 0.779633 0.702785
vt 0.799510 0.683062
vt 0.818369 0.702067
vt 0.504430 0.285387
vt 0.464329 0.310805
vt 0.464329 0.285387
vt 0.504430 0.310805
vt 0.464329 0.336223
vt 0.504430 0.336223
vt 0.464329 0.361642
vt 0.504430 0.361642
vt 0.464329 0.387060
vt 0.504430 0.387060
vt 0.464329 0.412479
vt 0.504430 0.412479
vt 0.464329 0.437897
vt 0.504430 0.437897
vt 0.464329 0.463315
vt 0.504430 0.463315
vt 0.464329 0.488734
vt 0.504430 0.488734
vt 0.464329 0.514152
vt 0.955567 0.641979
vt 0.951869 0.621353
vt 0.955553 0.607604
vt 0.833918 0.609383
vt 0.860001 0.546413
vt 0.851117 0.579621
vt 0.504430 0.514152
vt 0.464329 0.539570
vt 0.504430 0.539570
vt 0.838231 0.627323
vt 0.847128 0.559748
vt 0.847141 0.594123
vt 0.964171 0.575157
vt 0.955275 0.642732
vt 0.955261 0.608357
vt 0.724516 0.790003
vt 0.688378 0.793337
vt 0.708254 0.773614
vt 0.831137 0.651678
vt 0.849996 0.670684
vt 0.746989 0.772897
vt 0.778617 0.741513
vt 0.728130 0.753891
vt 0.504430 0.692080
vt 0.464185 0.688897
vt 0.955553 0.593370
vt 0.969068 0.591590
vt 0.969068 0.609383
vt 0.964463 0.626570
vt 0.942986 0.654560
vt 0.934687 0.643746
vt 0.944752 0.633680
vt 0.922360 0.650863
vt 0.927576 0.663457
vt 0.910390 0.668062
vt 0.892597 0.668062
vt 0.875410 0.663457
vt 0.860001 0.654560
vt 0.847420 0.641979
vt 0.838524 0.626570
vt 0.833918 0.591590
vt 0.838523 0.574404
vt 0.847420 0.558995
vt 0.875410 0.537517
vt 0.892597 0.532912
vt 0.910390 0.532912
vt 0.927576 0.537517
vt 0.942985 0.546413
vt 0.955567 0.558995
vt 0.964463 0.574404
vt 0.951869 0.579620
vt 0.944752 0.567293
vt 0.908611 0.654547
vt 0.894376 0.654547
vt 0.934687 0.557228
vt 0.880627 0.650863
vt 0.922360 0.550111
vt 0.908611 0.546427
vt 0.868300 0.643746
vt 0.858235 0.633680
vt 0.894376 0.546427
vt 0.851117 0.621353
vt 0.880627 0.550111
vt 0.868300 0.557228
vt 0.847433 0.607604
vt 0.847433 0.593370
vt 0.858235 0.567293
vt 0.847141 0.608357
vt 0.850825 0.622106
vt 0.833626 0.610136
vt 0.833626 0.592343
vt 0.838231 0.575157
vt 0.857942 0.568046
vt 0.850825 0.580373
vt 0.868007 0.557981
vt 0.859709 0.547166
vt 0.875118 0.538270
vt 0.892305 0.533665
vt 0.910097 0.533665
vt 0.927284 0.538270
vt 0.942693 0.547166
vt 0.955275 0.559748
vt 0.968776 0.592343
vt 0.968776 0.610136
vt 0.964171 0.627323
vt 0.942693 0.655313
vt 0.927284 0.664210
vt 0.910098 0.668815
vt 0.892305 0.668815
vt 0.875118 0.664210
vt 0.859709 0.655313
vt 0.847128 0.642732
vt 0.857942 0.634433
vt 0.868008 0.644498
vt 0.880335 0.550864
vt 0.894084 0.547180
vt 0.880335 0.651616
vt 0.908318 0.547180
vt 0.894084 0.655300
vt 0.908318 0.655300
vt 0.922067 0.550864
vt 0.934395 0.557981
vt 0.922068 0.651616
vt 0.944460 0.568046
vt 0.934395 0.644498
vt 0.944460 0.634433
vt 0.951577 0.580373
vt 0.955261 0.594123
vt 0.951577 0.622106
vt 0.707237 0.812343
vt 0.568572 0.944563
vt 0.537280 0.956369
vt 0.553971 0.936334
vt 0.520480 0.936775
vt 0.543062 0.923611
vt 0.511467 0.912589
vt 0.537210 0.907906
vt 0.537156 0.891146
vt 0.511384 0.886778
vt 0.616123 0.936055
vt 0.649618 0.936193
vt 0.632994 0.955938
vt 0.153748 0.658318
vt 0.140500 0.649839
vt 0.143872 0.648442
vt 0.153748 0.624599
vt 0.140500 0.633079
vt 0.152351 0.621227
vt 0.167715 0.624599
vt 0.180963 0.633078
vt 0.177591 0.634475
vt 0.167715 0.658318
vt 0.180963 0.649839
vt 0.169112 0.661690
vt 0.152351 0.661690
vt 0.143872 0.634475
vt 0.169112 0.621227
vt 0.177591 0.648442
vt 0.294410 0.628061
vt 0.316404 0.638658
vt 0.303163 0.654603
vt 0.278832 0.634244
vt 0.288540 0.664224
vt 0.271053 0.665000
vt 0.250979 0.659843
vt 0.262587 0.638365
vt 0.359108 0.604284
vt 0.366040 0.585149
vt 0.379236 0.599341
vt 0.343253 0.611702
vt 0.352748 0.595358
vt 0.324403 0.613094
vt 0.329650 0.622718
vt 0.309410 0.620584
vt 0.348497 0.964209
vt 0.511384 0.938399
vt 0.511184 0.964209
vt 0.348697 0.938399
vt 0.348697 0.886778
vt 0.820237 0.989670
vt 0.657349 0.963860
vt 0.820037 0.963860
vt 0.657149 0.938050
vt 0.819836 0.938050
vt 0.657066 0.912240
vt 0.819753 0.912240
vt 0.819836 0.886429
vt 0.348296 0.990018
vt 0.510984 0.990018
vt 0.585097 0.947359
vt 0.559766 0.969040
vt 0.610623 0.968811
vt 0.585214 0.973346
vt 0.601597 0.944414
vt 0.626918 0.923233
vt 0.246051 0.641100
vt 0.339204 0.605230
vt 0.348780 0.912589
vt 0.657549 0.989670
vt 0.657149 0.886429
vt 0.994327 0.817174
vt 0.962802 0.831297
vt 0.962802 0.817174
vt 0.994327 0.831297
vt 0.962802 0.845419
vt 0.994327 0.845419
vt 0.962802 0.859541
vt 0.994327 0.859541
vt 0.962802 0.873664
vt 0.994327 0.873664
vt 0.962802 0.887786
vt 0.994327 0.887786
vt 0.962802 0.901908
vt 0.994327 0.901908
vt 0.962802 0.916030
vt 0.994327 0.916030
vt 0.962802 0.930153
vt 0.994327 0.930153
vt 0.962802 0.944275
vt 0.994327 0.944275
vt 0.962802 0.958397
vt 0.994327 0.958397
vt 0.962802 0.972519
vt 0.994327 0.972519
vt 0.962802 0.986642
vt 0.994327 0.647707
vt 0.962802 0.661830
vt 0.962802 0.647707
vt 0.994327 0.661830
vt 0.962802 0.675952
vt 0.994327 0.675952
vt 0.962802 0.690074
vt 0.994327 0.690074
vt 0.962802 0.704196
vt 0.994327 0.704196
vt 0.962802 0.718319
vt 0.994327 0.718319
vt 0.962802 0.732441
vt 0.994327 0.732441
vt 0.962802 0.746563
vt 0.994327 0.746563
vt 0.962802 0.760685
vt 0.994327 0.760685
vt 0.962802 0.774808
vt 0.994327 0.774808
vt 0.962802 0.788930
vt 0.994327 0.788930
vt 0.962802 0.803052
vt 0.994327 0.803052
vt 0.994327 0.986642
vt 0.412781 0.600293
vt 0.447115 0.786267
vt 0.412781 0.786267
vt 0.655773 0.769248
vt 0.646465 0.757291
vt 0.653842 0.756864
vt 0.731026 0.608897
vt 0.683109 0.715848
vt 0.673987 0.702396
vt 0.447115 0.535471
vt 0.412781 0.574095
vt 0.412781 0.535471
vt 0.643519 0.862347
vt 0.640886 0.850941
vt 0.652371 0.847264
vt 0.638652 0.850460
vt 0.636639 0.862785
vt 0.631443 0.859817
vt 0.447115 0.509172
vt 0.412781 0.516793
vt 0.412781 0.509172
vt 0.447115 0.516793
vt 0.412781 0.525615
vt 0.447115 0.525615
vt 0.447115 0.592701
vt 0.447115 0.600293
vt 0.412781 0.592701
vt 0.447115 0.583929
vt 0.412781 0.583929
vt 0.447115 0.574095
vt 0.604933 0.568400
vt 0.531964 0.587214
vt 0.531964 0.568400
vt 0.604933 0.606029
vt 0.531964 0.606029
vt 0.604933 0.455512
vt 0.531964 0.474327
vt 0.531964 0.455512
vt 0.604933 0.474327
vt 0.531964 0.493141
vt 0.604933 0.493142
vt 0.531964 0.511956
vt 0.604933 0.530771
vt 0.531964 0.530771
vt 0.511274 0.852424
vt 0.531804 0.802859
vt 0.581370 0.823389
vt 0.531964 0.549585
vt 0.604933 0.549585
vt 0.446973 0.265650
vt 0.412640 0.415503
vt 0.412640 0.265650
vt 0.412781 0.323198
vt 0.516590 0.709155
vt 0.588510 0.712864
vt 0.521473 0.722452
vt 0.446973 0.710876
vt 0.412639 0.681908
vt 0.446973 0.681908
vt 0.805523 0.631494
vt 0.813393 0.617237
vt 0.446973 0.532055
vt 0.640043 0.501669
vt 0.673401 0.488912
vt 0.646361 0.512610
vt 0.412640 0.454875
vt 0.446973 0.496004
vt 0.412640 0.496003
vt 0.446973 0.415503
vt 0.412640 0.430270
vt 0.446973 0.430270
vt 0.412640 0.443465
vt 0.446973 0.443465
vt 0.683182 0.623136
vt 0.680900 0.632689
vt 0.653904 0.617314
vt 0.412639 0.710876
vt 0.446973 0.735500
vt 0.412639 0.735500
vt 0.504567 0.258512
vt 0.465328 0.283679
vt 0.465328 0.258512
vt 0.447115 0.255884
vt 0.412781 0.274916
vt 0.412781 0.255884
vt 0.447115 0.323198
vt 0.560146 0.874505
vt 0.510580 0.853974
vt 0.531111 0.804409
vt 0.412640 0.532055
vt 0.649216 0.771736
vt 0.641330 0.769962
vt 0.627564 0.754032
vt 0.640055 0.747382
vt 0.634379 0.759821
vt 0.634272 0.764472
vt 0.622654 0.736008
vt 0.631608 0.749796
vt 0.520371 0.693207
vt 0.544588 0.749966
vt 0.811881 0.598457
vt 0.801392 0.580184
vt 0.531802 0.678883
vt 0.548273 0.664970
vt 0.774456 0.658721
vt 0.785106 0.561500
vt 0.609810 0.717537
vt 0.606566 0.723398
vt 0.607213 0.731110
vt 0.611576 0.738613
vt 0.624670 0.800397
vt 0.615122 0.810734
vt 0.664035 0.836051
vt 0.677533 0.822068
vt 0.679490 0.827514
vt 0.650242 0.858669
vt 0.654518 0.846571
vt 0.677874 0.834002
vt 0.673119 0.839797
vt 0.680257 0.615164
vt 0.660567 0.591726
vt 0.674022 0.641261
vt 0.633785 0.593367
vt 0.670297 0.458675
vt 0.700442 0.465214
vt 0.643833 0.481869
vt 0.639117 0.490417
vt 0.621807 0.719660
vt 0.663229 0.756133
vt 0.677342 0.746414
vt 0.629223 0.705049
vt 0.642943 0.696077
vt 0.684312 0.731957
vt 0.659321 0.695108
vt 0.604933 0.587214
vt 0.604933 0.511956
vt 0.581370 0.852424
vt 0.560839 0.872955
vt 0.531804 0.872955
vt 0.511274 0.823389
vt 0.560839 0.802859
vt 0.446973 0.454875
vt 0.504567 0.283679
vt 0.447115 0.274916
vt 0.560146 0.804409
vt 0.580676 0.824939
vt 0.580676 0.853974
vt 0.531111 0.874505
vt 0.510580 0.824939
vt 0.667001 0.822261
vt 0.662613 0.808774
vt 0.626831 0.847723
vt 0.616099 0.837617
vt 0.652068 0.799233
vt 0.612012 0.824374
vt 0.638180 0.796150
vn 0.7071 -0.0000 -0.7071
vn 0.9659 -0.0000 -0.2588
vn -0.2588 -0.0000 -0.9659
vn 0.2588 -0.0000 -0.9659
vn -0.9659 -0.0000 -0.2588
vn -0.7071 -0.0000 -0.7071
vn 0.9659 -0.0000 0.2588
vn 0.7071 -0.0000 0.7071
vn -0.7071 -0.0000 0.7071
vn -0.9659 -0.0000 0.2588
vn 0.2588 -0.0000 0.9659
vn -0.2588 -0.0000 0.9659
vn -0.0000 -0.0000 1.0000
vn -0.0000 1.0000 -0.0000
vn 1.0000 -0.0000 -0.0000
vn -0.0000 -1.0000 -0.0000
vn -0.0000 -0.0000 -1.0000
vn -1.0000 -0.0000 -0.0000
vn 0.3827 -0.0000 -0.9239
vn -0.3827 -0.0000 -0.9239
vn -0.0000 1.0000 0.0001
vn -0.9239 -0.3827 -0.0000
vn -0.3827 0.9239 -0.0000
vn -0.9239 0.3827 -0.0000
vn -0.0000 1.0000 -0.0001
vn -0.0001 -1.0000 -0.0000
vn -0.4804 0.1605 0.8622
vn -0.2029 0.1582 0.9663
vn -0.4016 0.1140 0.9087
vn 0.1716 -0.7487 -0.6403
vn -0.0000 -0.7487 -0.6629
vn -0.0000 -0.7487 0.6629
vn -0.1716 -0.7487 0.6403
vn -0.6629 -0.7487 -0.0000
vn -0.6403 -0.7487 0.1716
vn -0.1716 -0.7487 -0.6403
vn -0.3315 -0.7487 -0.5741
vn 0.6403 -0.7487 -0.1716
vn 0.6629 -0.7487 -0.0000
vn 0.3315 -0.7487 0.5741
vn 0.1716 -0.7487 0.6403
vn -0.5741 -0.7487 0.3315
vn -0.4688 -0.7487 0.4688
vn -0.4688 -0.7487 -0.4688
vn -0.5741 -0.7487 -0.3315
vn 0.5741 -0.7487 -0.3315
vn 0.4688 -0.7487 -0.4688
vn 0.4688 -0.7487 0.4688
vn 0.5741 -0.7487 0.3315
vn -0.3315 -0.7487 0.5741
vn -0.6403 -0.7487 -0.1716
vn 0.3315 -0.7487 -0.5741
vn 0.6403 -0.7487 0.1716
vn -0.1305 -0.0000 -0.9914
vn -0.0438 -0.0000 -0.9990
vn -0.1761 -0.0000 0.9844
vn -0.3723 -0.0000 0.9281
vn 0.1305 -0.0000 0.9914
vn 0.8489 0.1979 0.4901
vn 0.6931 0.1979 0.6931
vn -0.2537 0.1979 -0.9468
vn -0.0000 0.1979 -0.9802
vn 0.4901 0.1979 -0.8489
vn 0.2537 0.1979 -0.9468
vn -1.0000 0.0099 -0.0000
vn 0.4901 0.1979 0.8489
vn 0.6931 0.1979 -0.6931
vn 0.2537 0.1979 0.9468
vn 0.8489 0.1979 -0.4901
vn -0.0000 0.1979 0.9802
vn 0.9468 0.1979 -0.2537
vn -0.2537 0.1979 0.9468
vn 0.9802 0.1979 -0.0000
vn -0.4804 0.1605 -0.8622
vn -0.4069 0.1858 -0.8944
vn -0.4901 0.1979 0.8489
vn 0.9468 0.1979 0.2537
vn -0.4901 0.1979 -0.8489
vn -0.4069 0.1858 0.8944
vn 0.1246 0.9896 0.0720
vn 0.1239 0.9897 -0.0715
vn 0.1886 0.9764 -0.1056
vn 0.1305 -0.0000 -0.9914
vn 0.2177 -0.0000 -0.9760
vn -0.0438 -0.0000 0.9990
vn 0.1767 -0.0000 0.9843
vn 0.2176 -0.0000 0.9760
vn -0.3722 -0.0000 -0.9282
vn 0.9998 -0.0000 0.0201
vn -0.3082 -0.9513 -0.0000
vn -0.3082 -0.9513 0.0075
vn -0.3107 -0.9505 0.0104
vn 0.3352 0.9421 -0.0000
vn 0.3391 0.9406 0.0157
vn 0.3391 0.9406 -0.0157
vn 0.3382 0.9409 -0.0206
vn 0.3352 0.9421 -0.0046
vn -0.3082 -0.9513 -0.0075
vn 0.3298 0.9440 -0.0072
vn -0.3150 -0.9326 0.1763
vn -0.3298 -0.9440 0.0071
vn -0.3302 -0.9439 -0.0000
vn -0.1762 -0.0000 -0.9844
vn 0.1897 0.9761 0.1062
vn 0.3317 0.9434 0.0071
vn 0.3321 0.9433 -0.0000
vn -0.3167 -0.9318 -0.1772
vn -0.3317 -0.9434 -0.0072
vn -0.3161 -0.9310 -0.1825
vn -0.3107 -0.9505 -0.0104
vn 0.3382 0.9409 0.0206
vn 0.3459 0.9375 0.0384
vn -0.3111 -0.9502 0.0214
vn -0.3183 -0.9472 0.0377
vn 0.9998 -0.0000 -0.0201
vn -0.3111 -0.9502 -0.0214
vn -0.9998 -0.0000 0.0201
vn -0.9998 -0.0000 -0.0201
vn -0.0000 0.9995 -0.0329
vn -0.1919 0.9810 -0.0284
vn -0.0000 0.9995 0.0329
vn -0.1919 0.9810 0.0284
vn -0.1983 0.9797 0.0282
vn -0.0000 -0.9999 0.0140
vn -0.1923 -0.9813 0.0099
vn -0.0000 -0.9999 -0.0140
vn -0.1923 -0.9813 -0.0099
vn -0.1978 -0.9802 -0.0098
vn -0.9802 -0.1972 0.0169
vn -0.9816 0.1906 0.0135
vn -0.9811 -0.1929 0.0170
vn -0.9816 0.1906 -0.0135
vn -0.9802 -0.1972 -0.0169
vn -0.9811 -0.1929 -0.0170
vn -0.3827 0.9236 0.0227
vn -0.9239 0.3826 -0.0060
vn -0.9238 -0.3827 -0.0132
vn -0.3826 -0.9239 0.0053
vn -0.1978 -0.9802 0.0098
vn -0.3827 -0.9239 0.0053
vn -0.9239 0.3826 0.0060
vn -0.3827 0.9236 -0.0227
vn -0.1983 0.9797 -0.0282
vn -0.3826 -0.9239 -0.0053
vn -0.3827 -0.9239 -0.0053
vn -0.9238 -0.3827 0.0132
vn -0.4016 0.1140 -0.9087
vn -0.1305 -0.0000 0.9914
vn 0.3352 0.9421 0.0046
vn 0.3459 0.9375 -0.0384
vn 0.1764 -0.0000 0.9843
vn 0.1887 0.9763 -0.1055
vn 0.3302 0.9439 -0.0000
vn 0.3298 0.9440 -0.0071
vn -0.3144 -0.9318 0.1815
vn -0.3321 -0.9433 -0.0000
vn -0.3317 -0.9434 -0.0071
vn -0.1760 -0.0000 0.9844
vn -0.3183 -0.9472 -0.0377
vn -0.3827 -0.9239 -0.0000
vn 0.6404 -0.7487 -0.1716
vn -0.6404 -0.7487 -0.1716
vn 0.6404 -0.7487 0.1716
vn -0.2029 0.1582 -0.9663
vn -0.3167 -0.9318 -0.1773
vn 0.1766 -0.0000 -0.9843
vn -0.9798 0.1994 -0.0132
vn -0.9798 0.1994 0.0132
vn -0.1345 -0.3653 -0.9211
vn -0.1353 -0.3678 -0.9200
vn -0.1353 -0.3679 -0.9200
vn -0.3199 -0.8696 -0.3762
vn -0.3202 -0.8706 -0.3736
vn -0.3202 -0.8706 -0.3735
vn -0.3202 -0.8706 0.3736
vn -0.3199 -0.8696 0.3762
vn -0.3202 -0.8706 0.3735
vn -0.1353 -0.3678 0.9200
vn -0.1345 -0.3653 0.9211
vn -0.1353 -0.3679 0.9200
vn 0.1354 0.3678 0.9200
vn 0.1346 0.3653 0.9211
vn 0.3207 0.8704 0.3736
vn 0.3204 0.8694 0.3762
vn 0.3204 0.8694 -0.3762
vn 0.3207 0.8704 -0.3736
vn 0.3207 0.8704 -0.3735
vn 0.1346 0.3653 -0.9211
vn 0.1354 0.3678 -0.9200
vn -1.0000 -0.0000 0.0065
vn 0.9287 -0.3707 -0.0061
vn -0.1345 -0.3652 -0.9211
vn 0.1345 0.3652 0.9211
vn 0.1345 0.3652 -0.9211
vn 0.5000 -0.0000 -0.8660
vn 0.8660 -0.0000 -0.5000
vn 0.8660 -0.0000 0.5000
vn 0.5000 -0.0000 0.8660
vn -0.5000 -0.0000 0.8660
vn -0.8660 -0.0000 0.5000
vn -0.8660 -0.0000 -0.5000
vn -0.5000 -0.0000 -0.8660
vn 0.0005 1.0000 -0.0000
vn -0.0000 0.9999 -0.0148
vn -0.0000 0.9998 0.0221
vn -0.0000 -0.9999 0.0149
vn 0.0002 -0.9999 -0.0114
vn 0.5860 0.1714 0.7920
vn 0.3346 -0.4632 0.8207
vn 0.1436 -0.9279 0.3442
vn 0.1436 -0.9279 -0.3442
vn 0.3346 -0.4632 -0.8207
vn -0.9305 0.3663 -0.0000
vn -0.9321 0.3622 -0.0043
vn -0.9332 0.3593 -0.0031
vn -0.9321 0.3622 0.0043
vn -0.9332 0.3593 0.0031
vn -0.2382 -0.3139 -0.9191
vn -0.2389 -0.3113 -0.9198
vn -0.2422 -0.3003 -0.9226
vn -0.5885 -0.7215 -0.3648
vn -0.5903 -0.7174 -0.3699
vn -0.5924 -0.7127 -0.3757
vn -0.5903 -0.7174 0.3700
vn -0.5885 -0.7215 0.3648
vn -0.5924 -0.7127 0.3757
vn -0.2389 -0.3113 0.9198
vn -0.2382 -0.3139 0.9191
vn -0.2422 -0.3002 0.9226
vn 0.1945 0.3296 0.9239
vn 0.2043 0.3172 0.9261
vn 0.2160 0.3022 0.9285
vn 0.3155 0.8648 0.3905
vn 0.3775 0.8279 0.4149
vn 0.4071 0.8080 0.4260
vn 0.3775 0.8279 -0.4149
vn 0.3154 0.8649 -0.3905
vn 0.4071 0.8080 -0.4260
vn 0.2043 0.3172 -0.9261
vn 0.1945 0.3296 -0.9239
vn 0.2160 0.3022 -0.9285
vn 0.1529 0.3594 -0.9206
vn 0.3629 0.8531 -0.3749
vn 0.3629 0.8531 0.3749
vn 0.1529 0.3594 0.9206
vn -0.1529 -0.3594 0.9206
vn -0.3629 -0.8531 0.3749
vn -0.3629 -0.8531 -0.3749
vn -0.1529 -0.3594 -0.9206
vn 0.7449 0.5873 0.3165
vn 0.7449 0.5873 -0.3165
vn 0.5860 0.1714 -0.7920
vn 0.3345 -0.4632 -0.8207
vn -0.2341 -0.3274 -0.9154
vn -0.5862 -0.7266 -0.3583
vn -0.5903 -0.7174 0.3699
vn -0.5862 -0.7266 0.3583
vn -0.2341 -0.3274 0.9154
vn 0.1770 0.3514 0.9193
vn 0.3154 0.8649 0.3905
vn 0.2724 0.8870 0.3727
vn 0.2724 0.8870 -0.3727
vn 0.1770 0.3514 -0.9193
vn 0.1436 -0.9278 -0.3442
vn -0.9309 0.3651 0.0030
vn -0.9310 0.3651 -0.0031
vn -0.9332 0.3593 -0.0030
vn -0.9337 0.3581 -0.0000
vn -0.9310 0.3651 0.0031
vn -0.9309 0.3651 -0.0030
vn -0.9332 0.3593 0.0030
vn 0.3774 0.8279 0.4149
vn -0.8947 0.4467 -0.0000
vn -0.8066 0.5911 -0.0000
vn -0.6696 -0.7427 -0.0000
vn -0.5122 -0.8589 -0.0000
vn 0.6894 -0.7244 -0.0000
vn 0.5505 -0.8348 -0.0000
vn -0.2182 -0.9759 -0.0000
vn -0.9572 0.2895 -0.0000
vn -0.9566 -0.2913 -0.0000
vn -0.8692 -0.4945 -0.0000
vn -0.5901 -0.8073 -0.0000
vn -0.6669 -0.7452 -0.0000
vn 0.8065 -0.5913 -0.0000
vn 0.6695 0.7429 -0.0000
vn 0.5919 0.8060 -0.0000
vn 0.5901 0.8073 -0.0000
vn -0.8063 0.5915 -0.0000
vn -0.8672 -0.4979 -0.0000
vn -0.9552 -0.2959 -0.0000
vn -0.9594 0.2819 -0.0000
vn 0.8683 0.4960 -0.0000
vn 0.6694 0.7429 -0.0000
vn 0.9557 0.2942 -0.0000
vn 0.9594 -0.2822 -0.0000
vn 0.8963 -0.4435 -0.0000
vn -0.0047 1.0000 -0.0000
vn -0.6696 -0.7428 -0.0000
vn 0.5505 -0.8349 -0.0000
vn -0.8964 0.4433 -0.0000
vn -0.8691 -0.4946 -0.0000
vn 0.5225 0.8526 -0.0000
vn -0.2334 0.9724 -0.0000
vn -0.8526 0.5225 -0.0000
vn -0.9724 -0.2334 -0.0000
vn -0.5225 -0.8526 -0.0000
vn 0.2334 -0.9724 -0.0000
vn 0.8526 -0.5225 -0.0000
vn 0.9724 0.2334 -0.0000
vn -0.9595 0.2819 -0.0000
vn 0.0002 -0.0001 -1.0000
vn -0.9724 -0.2335 -0.0000
usemtl SpacialRoverExploreralumWhite
f 56/1/27 137/2/28 58/3/29
f 27/4/30 73/5/31 25/6/31
f 80/7/16 88/8/16 96/9/16
f 49/10/32 86/11/33 85/12/32
f 61/13/34 90/14/35 59/15/35
f 71/16/36 95/17/37 69/18/37
f 35/19/161 79/20/39 78/21/38
f 45/22/40 84/23/41 83/24/40
f 57/25/42 88/26/43 55/27/43
f 67/28/44 93/29/45 65/30/45
f 33/31/46 76/32/47 31/33/47
f 43/34/48 81/35/49 41/36/49
f 53/37/50 86/11/33 51/38/33
f 63/39/51 91/40/34 61/13/34
f 25/6/31 96/41/36 71/16/36
f 27/4/30 75/42/52 74/43/30
f 37/44/39 80/45/53 79/20/39
f 47/46/41 85/47/32 84/23/41
f 57/25/42 90/14/35 89/48/42
f 67/28/44 95/17/37 94/49/44
f 33/31/46 78/21/38 77/50/46
f 43/34/48 83/24/40 82/51/48
f 53/37/50 88/26/43 87/52/50
f 65/30/45 92/53/162 63/39/51
f 31/33/47 75/42/52 29/54/52
f 39/55/163 81/35/49 80/45/53
f 120/56/3 145/57/54 98/58/55
f 30/59/14 100/60/14 99/61/14
f 34/62/14 100/60/14 32/63/14
f 36/64/14 101/65/14 34/62/14
f 38/66/14 102/67/14 36/64/14
f 38/66/14 104/68/14 103/69/14
f 42/70/14 104/68/14 40/71/14
f 42/70/14 106/72/14 105/73/14
f 44/74/14 107/75/14 106/72/14
f 110/76/12 148/77/56 111/78/57
f 56/79/14 111/80/14 54/81/14
f 58/82/14 112/83/14 56/79/14
f 58/82/14 114/84/14 113/85/14
f 60/86/14 115/87/14 114/84/14
f 64/88/14 115/87/14 62/89/14
f 66/90/14 116/91/14 64/88/14
f 66/90/14 118/92/14 117/93/14
f 70/94/14 118/92/14 68/95/14
f 26/96/58 155/97/11 72/98/11
f 42/99/59 130/100/60 44/101/60
f 72/102/61 122/103/62 26/104/62
f 30/105/63 121/106/64 123/107/63
f 60/108/65 137/2/65 138/109/65
f 44/101/60 131/110/66 46/111/66
f 32/112/67 123/107/63 124/113/67
f 62/114/65 138/109/65 139/115/65
f 46/111/66 132/116/68 48/117/68
f 34/118/69 124/113/67 125/119/69
f 62/114/65 140/120/65 64/121/65
f 48/117/68 133/122/70 50/123/70
f 36/124/71 125/119/69 126/125/71
f 64/121/65 141/126/65 66/127/65
f 52/128/72 133/122/70 134/129/72
f 36/124/71 127/130/73 38/131/73
f 68/132/74 141/133/164 142/134/75
f 54/135/76 134/129/72 135/136/76
f 38/131/73 128/137/77 40/138/77
f 68/132/74 143/139/78 70/140/78
f 56/1/27 135/136/76 136/141/79
f 40/138/77 129/142/59 42/99/59
f 70/140/78 144/143/61 72/102/61
f 28/144/64 122/103/62 121/106/64
f 135/145/14 127/146/14 123/147/14
f 153/148/14 146/149/14 152/150/14
f 154/151/80 147/152/14 153/148/14
f 156/153/81 149/154/14 150/155/82
f 151/156/14 149/154/14 155/157/14
f 52/158/4 152/159/83 50/160/83
f 54/161/84 153/162/4 52/158/4
f 109/163/85 147/152/12 110/76/12
f 72/98/11 156/164/86 70/165/87
f 119/166/88 149/154/3 120/56/3
f 98/58/15 151/167/15 26/96/15
f 205/168/89 218/169/89 219/170/89
f 206/171/17 204/172/17 203/173/17
f 109/163/15 152/159/15 146/149/15
f 26/174/14 97/175/14 98/176/14
f 26/174/14 28/177/14 97/175/14
f 107/75/14 46/178/14 48/179/14
f 28/177/14 30/59/14 99/61/14
f 28/177/14 99/61/14 97/175/14
f 50/180/14 108/181/14 48/179/14
f 109/182/14 108/181/14 50/180/14
f 108/181/14 107/75/14 48/179/14
f 210/183/90 160/184/91 209/185/92
f 212/186/93 162/187/94 161/188/93
f 158/189/95 218/169/96 207/190/97
f 208/191/90 157/192/98 204/193/90
f 212/186/13 159/194/13 210/183/13
f 206/171/93 158/189/95 207/190/97
f 156/195/86 165/196/13 70/197/87
f 150/198/82 166/199/99 156/195/81
f 119/200/100 165/196/101 163/201/102
f 150/202/103 163/201/17 164/203/17
f 148/204/104 168/205/105 169/206/106
f 111/207/165 167/208/108 54/209/109
f 148/204/56 170/210/13 111/207/57
f 154/211/166 167/208/17 168/212/17
f 172/213/15 171/214/15 173/215/15
f 176/216/15 177/217/15 178/218/15
f 173/215/17 208/219/17 206/220/17
f 172/213/13 205/221/13 174/222/13
f 171/223/90 205/221/110 208/224/90
f 172/213/93 206/220/93 207/225/97
f 178/218/13 210/226/13 176/227/13
f 177/217/93 212/228/93 178/218/93
f 176/229/90 209/230/92 175/231/90
f 177/217/17 209/230/17 211/232/17
f 221/233/17 220/234/17 217/235/17
f 224/236/17 254/237/17 236/238/17
f 162/187/94 220/234/111 215/239/112
f 209/185/92 216/240/113 217/241/114
f 209/242/115 220/234/115 211/243/115
f 205/244/110 213/245/116 157/192/98
f 158/189/117 226/246/117 214/247/117
f 221/248/118 162/187/118 215/239/118
f 160/184/118 224/249/118 216/240/118
f 227/250/117 157/192/117 213/245/117
f 227/251/13 219/170/13 218/169/13
f 225/252/119 247/253/120 226/254/119
f 222/255/121 236/238/122 229/256/123
f 223/257/124 238/258/125 224/259/124
f 228/260/126 251/261/127 244/262/128
f 250/263/129 241/264/130 245/265/131
f 246/266/17 241/267/17 242/268/17
f 249/269/13 250/270/13 251/261/13
f 230/271/132 239/272/133 232/273/134
f 229/274/123 237/275/135 231/276/135
f 231/276/136 235/277/167 230/271/132
f 239/272/133 234/278/137 232/273/134
f 240/279/138 233/280/139 234/278/140
f 248/281/168 243/282/141 241/264/130
f 249/283/142 242/284/143 243/282/142
f 244/262/128 252/285/144 246/286/145
f 246/286/146 250/263/129 245/265/131
f 222/255/13 253/287/13 233/280/13
f 233/280/13 253/287/13 234/288/13
f 230/289/13 253/287/13 231/290/13
f 231/290/13 253/287/13 229/256/13
f 234/288/13 253/287/13 232/291/13
f 232/291/13 253/287/13 230/289/13
f 236/238/17 254/237/17 237/292/17
f 237/292/17 254/237/17 235/293/17
f 240/294/17 254/237/17 238/295/17
f 235/293/17 254/237/17 239/296/17
f 239/296/17 254/237/17 240/294/17
f 136/297/14 138/298/14 137/299/14
f 139/300/14 255/301/14 140/302/14
f 140/302/14 142/303/14 141/304/14
f 138/298/14 255/301/14 139/300/14
f 56/1/27 136/141/79 137/2/28
f 27/4/30 74/43/30 73/5/31
f 96/9/16 73/305/16 74/306/16
f 74/306/16 75/307/16 76/308/16
f 76/308/16 77/309/16 78/310/16
f 78/310/16 79/311/16 80/7/16
f 80/7/16 81/312/16 82/313/16
f 82/313/16 83/314/16 84/315/16
f 84/315/16 85/316/16 86/317/16
f 86/317/16 87/318/16 88/8/16
f 88/8/16 89/319/16 90/320/16
f 90/320/16 91/321/16 92/322/16
f 92/322/16 93/323/16 94/324/16
f 94/324/16 95/325/16 96/9/16
f 96/9/16 74/306/16 76/308/16
f 76/308/16 78/310/16 80/7/16
f 80/7/16 82/313/16 84/315/16
f 84/315/16 86/317/16 88/8/16
f 88/8/16 90/320/16 92/322/16
f 92/322/16 94/324/16 96/9/16
f 96/9/16 76/308/16 80/7/16
f 80/7/16 84/315/16 88/8/16
f 88/8/16 92/322/16 96/9/16
f 49/10/32 51/38/33 86/11/33
f 61/13/34 91/40/34 90/14/35
f 71/16/36 96/41/36 95/17/37
f 35/19/161 37/44/39 79/20/39
f 45/22/40 47/46/41 84/23/41
f 57/25/42 89/48/42 88/26/43
f 67/28/44 94/49/44 93/29/45
f 33/31/46 77/50/46 76/32/47
f 43/34/48 82/51/48 81/35/49
f 53/37/50 87/52/50 86/11/33
f 63/39/51 92/53/162 91/40/34
f 25/6/31 73/5/31 96/41/36
f 27/4/30 29/54/52 75/42/52
f 37/44/39 39/55/163 80/45/53
f 47/46/41 49/326/32 85/47/32
f 57/25/42 59/15/35 90/14/35
f 67/28/44 69/18/37 95/17/37
f 33/31/46 35/19/161 78/21/38
f 43/34/48 45/22/40 83/24/40
f 53/37/50 55/27/43 88/26/43
f 65/30/45 93/29/45 92/53/162
f 31/33/47 76/32/47 75/42/52
f 39/55/163 41/36/49 81/35/49
f 120/56/3 149/154/3 145/57/54
f 30/59/14 32/63/14 100/60/14
f 34/62/14 101/65/14 100/60/14
f 36/64/14 102/67/14 101/65/14
f 38/66/14 103/69/14 102/67/14
f 38/66/14 40/71/14 104/68/14
f 42/70/14 105/73/14 104/68/14
f 42/70/14 44/74/14 106/72/14
f 44/74/14 46/178/14 107/75/14
f 110/76/12 147/152/12 148/77/56
f 56/79/14 112/83/14 111/80/14
f 58/82/14 113/85/14 112/83/14
f 58/82/14 60/86/14 114/84/14
f 60/86/14 62/89/14 115/87/14
f 64/88/14 116/91/14 115/87/14
f 66/90/14 117/93/14 116/91/14
f 66/90/14 68/95/14 118/92/14
f 70/94/14 119/327/14 118/92/14
f 26/96/58 151/167/58 155/97/11
f 42/99/59 129/142/59 130/100/60
f 72/102/61 144/143/61 122/103/62
f 30/105/63 28/144/64 121/106/64
f 60/108/65 58/3/65 137/2/65
f 44/101/60 130/100/60 131/110/66
f 32/112/67 30/105/63 123/107/63
f 62/114/65 60/108/65 138/109/65
f 46/111/66 131/110/66 132/116/68
f 34/118/69 32/112/67 124/113/67
f 62/114/65 139/115/65 140/120/65
f 48/117/68 132/116/68 133/122/70
f 36/124/71 34/118/69 125/119/69
f 64/121/65 140/120/65 141/126/65
f 52/128/72 50/123/70 133/122/70
f 36/124/71 126/125/71 127/130/73
f 68/132/74 66/328/147 141/133/164
f 54/135/76 52/128/72 134/129/72
f 38/131/73 127/130/73 128/137/77
f 68/132/74 142/134/75 143/139/78
f 56/1/27 54/135/76 135/136/76
f 40/138/77 128/137/77 129/142/59
f 70/140/78 143/139/78 144/143/61
f 28/144/64 26/104/62 122/103/62
f 123/147/14 121/329/14 122/330/14
f 122/330/14 144/331/25 143/332/14
f 143/332/14 142/303/14 255/301/14
f 255/301/14 136/297/14 135/145/14
f 135/145/14 134/333/21 133/334/14
f 133/334/14 132/335/14 131/336/14
f 131/336/14 130/337/14 129/338/14
f 129/338/14 128/339/14 127/146/14
f 127/146/14 126/340/14 125/341/14
f 125/341/14 124/342/14 123/147/14
f 123/147/14 122/330/14 143/332/14
f 143/332/14 255/301/14 135/145/14
f 135/145/14 133/334/14 131/336/14
f 131/336/14 129/338/14 127/146/14
f 127/146/14 125/341/14 123/147/14
f 123/147/14 143/332/14 135/145/14
f 135/145/14 131/336/14 127/146/14
f 153/148/14 147/152/14 146/149/14
f 154/151/80 148/343/104 147/152/14
f 156/153/81 155/157/14 149/154/14
f 151/156/14 145/57/14 149/154/14
f 52/158/4 153/162/4 152/159/83
f 54/161/84 154/344/166 153/162/4
f 109/163/85 146/149/148 147/152/12
f 72/98/11 155/97/11 156/164/86
f 119/166/88 150/345/103 149/154/3
f 98/58/15 145/57/15 151/167/15
f 205/168/89 207/346/89 218/169/89
f 206/171/17 208/347/17 204/172/17
f 109/163/15 50/160/15 152/159/15
f 210/183/90 159/194/90 160/184/91
f 212/186/93 211/348/149 162/187/94
f 158/189/95 214/247/150 218/169/96
f 208/191/90 205/244/110 157/192/98
f 212/186/13 161/188/13 159/194/13
f 206/171/93 203/173/93 158/189/95
f 156/195/151 166/199/13 165/196/13
f 150/198/152 164/349/153 166/199/154
f 119/200/100 70/197/155 165/196/101
f 150/202/103 119/200/88 163/201/17
f 148/204/104 154/350/80 168/205/105
f 111/207/107 170/210/156 167/208/157
f 148/204/158 169/206/13 170/210/13
f 154/211/166 54/209/84 167/208/17
f 172/213/15 174/351/15 171/214/15
f 176/216/15 175/352/15 177/217/15
f 173/215/17 171/353/17 208/219/17
f 172/213/13 207/225/13 205/221/13
f 171/223/90 174/222/90 205/221/110
f 172/213/93 173/215/93 206/220/93
f 178/218/13 212/228/13 210/226/13
f 177/217/93 211/232/149 212/228/93
f 176/229/90 210/354/90 209/230/92
f 177/217/17 175/231/17 209/230/17
f 217/235/17 216/355/17 224/356/17
f 221/233/17 215/239/17 220/234/17
f 217/235/17 224/356/17 221/233/17
f 236/238/17 221/357/17 224/236/17
f 224/236/17 238/295/17 254/237/17
f 162/187/94 211/348/149 220/234/111
f 209/185/92 160/184/91 216/240/113
f 209/242/115 217/235/115 220/234/115
f 205/244/110 219/170/159 213/245/116
f 158/189/117 225/358/117 226/246/117
f 221/248/118 222/359/118 162/187/118
f 160/184/118 223/360/118 224/249/118
f 227/250/117 228/361/117 157/192/117
f 218/169/13 214/247/13 226/362/13
f 227/251/13 213/245/13 219/170/13
f 218/169/13 226/362/13 227/251/13
f 225/252/119 242/268/143 247/253/120
f 222/255/121 221/357/121 236/238/122
f 223/257/124 233/280/139 238/258/125
f 228/260/126 227/363/126 251/261/127
f 250/263/129 248/281/168 241/264/130
f 242/268/17 225/252/17 228/364/17
f 228/364/17 244/365/17 246/266/17
f 246/266/17 245/366/17 241/267/17
f 241/267/17 243/367/17 242/268/17
f 242/268/17 228/364/17 246/266/17
f 251/261/13 227/363/13 226/254/13
f 226/254/13 247/253/13 249/269/13
f 249/269/13 248/368/13 250/270/13
f 250/270/13 252/369/13 251/261/13
f 251/261/13 226/254/13 249/269/13
f 230/271/132 235/277/167 239/272/133
f 229/274/123 236/370/122 237/275/135
f 231/276/136 237/275/136 235/277/167
f 239/272/133 240/279/137 234/278/137
f 240/279/138 238/258/125 233/280/139
f 248/281/168 249/283/141 243/282/141
f 249/283/142 247/371/120 242/284/143
f 244/262/128 251/261/127 252/285/144
f 246/286/146 252/285/146 250/263/129
f 233/280/13 223/257/13 222/255/13
f 222/255/13 229/256/13 253/287/13
f 136/297/14 255/301/14 138/298/14
f 140/302/14 255/301/14 142/303/14
usemtl SpacialRoverExploreralumGray
f 186/372/169 1/373/170 8/374/171
f 185/375/172 8/374/173 7/376/174
f 6/377/175 185/375/176 7/376/177
f 5/378/178 184/379/179 6/377/180
f 4/380/181 183/381/182 5/378/181
f 3/382/183 182/383/184 4/384/183
f 180/385/185 3/382/186 2/386/187
f 179/387/188 2/386/189 1/373/189
f 269/388/17 277/389/17 270/390/17
f 263/391/17 259/392/17 258/393/17
f 257/394/190 262/395/190 260/396/190
f 257/394/14 258/393/14 259/397/14
f 261/398/191 258/393/191 256/399/191
f 265/400/15 279/401/15 268/402/15
f 273/403/16 277/404/16 279/405/16
f 271/406/18 273/407/18 266/408/18
f 277/389/6 271/406/6 270/390/6
f 267/409/9 273/407/9 272/410/9
f 265/400/8 275/411/8 274/412/8
f 269/413/1 279/401/1 278/414/1
f 267/409/13 275/411/13 264/415/13
f 282/416/16 297/417/16 283/418/16
f 283/418/17 297/417/17 315/419/17
f 284/420/13 300/421/13 314/422/13
f 280/423/16 309/424/16 287/425/16
f 286/426/14 291/427/14 281/428/14
f 285/429/14 300/421/14 284/420/14
f 294/430/18 303/431/18 298/432/18
f 310/433/18 292/434/18 306/435/18
f 290/436/22 310/437/22 311/438/22
f 298/439/22 296/440/22 294/441/22
f 299/442/160 295/443/160 296/440/160
f 292/434/24 308/444/24 306/435/24
f 293/445/23 307/446/23 308/444/23
f 304/447/23 302/448/23 300/421/23
f 305/449/24 301/450/24 302/448/24
f 281/428/13 291/427/13 313/451/13
f 289/452/160 311/438/160 309/424/160
f 308/453/17 307/446/17 312/454/17
f 289/455/13 313/451/13 290/456/13
f 312/454/17 286/426/17 287/425/17
f 312/454/17 309/424/17 311/457/17
f 310/458/17 306/459/17 312/454/17
f 311/457/17 310/458/17 312/454/17
f 312/454/17 306/459/17 308/453/17
f 290/456/13 313/451/13 288/460/13
f 292/461/13 313/451/13 293/462/13
f 288/460/13 313/451/13 292/461/13
f 293/462/13 313/451/13 291/427/13
f 295/463/13 314/422/13 296/464/13
f 296/464/13 314/422/13 294/465/13
f 302/466/13 314/422/13 300/421/13
f 294/465/13 314/422/13 301/467/13
f 301/467/13 314/422/13 302/466/13
f 304/447/17 315/419/17 305/468/17
f 305/468/17 315/419/17 303/469/17
f 299/470/17 315/419/17 297/417/17
f 303/469/17 315/419/17 298/471/17
f 298/471/17 315/419/17 299/470/17
f 261/398/13 257/472/13 260/473/13
f 260/474/16 262/475/16 271/476/16
f 271/476/16 262/475/16 270/477/16
f 263/391/16 269/478/16 262/475/16
f 269/478/16 263/391/16 268/479/16
f 268/479/16 263/391/16 261/398/16
f 265/480/16 268/479/16 261/398/16
f 260/474/16 271/476/16 266/481/16
f 264/482/16 265/480/16 261/398/16
f 260/474/16 266/481/16 267/483/16
f 260/474/16 267/483/16 264/482/16
f 260/474/16 264/482/16 261/398/16
f 269/478/16 270/477/16 262/475/16
f 282/416/16 295/443/16 297/417/16
f 304/447/17 285/429/17 315/419/17
f 285/429/17 283/418/17 315/419/17
f 295/463/13 282/484/13 314/422/13
f 282/484/13 284/420/13 314/422/13
f 280/423/16 289/452/16 309/424/16
f 286/426/14 307/446/14 291/427/14
f 285/429/14 304/447/14 300/421/14
f 294/430/18 301/450/18 303/431/18
f 310/433/18 288/485/18 292/434/18
f 290/436/22 288/486/22 310/437/22
f 298/439/22 299/442/22 296/440/22
f 299/442/160 297/417/160 295/443/160
f 292/434/24 293/445/24 308/444/24
f 293/445/23 291/427/23 307/446/23
f 304/447/23 305/449/23 302/448/23
f 305/449/24 303/431/24 301/450/24
f 289/455/13 280/487/13 313/451/13
f 280/487/13 281/428/13 313/451/13
f 289/452/160 290/436/160 311/438/160
f 287/425/17 309/424/17 312/454/17
f 312/454/17 307/446/17 286/426/17
f 329/388/17 337/389/17 330/390/17
f 323/391/17 319/392/17 318/393/17
f 317/394/190 322/395/190 320/396/190
f 317/394/14 318/393/14 319/397/14
f 321/398/191 318/393/191 316/399/191
f 325/400/15 339/401/15 328/402/15
f 333/403/16 337/404/16 339/405/16
f 331/406/18 333/407/18 326/408/18
f 337/389/6 331/406/6 330/390/6
f 327/409/9 333/407/9 332/410/9
f 325/400/8 335/411/8 334/412/8
f 329/413/1 339/401/1 338/414/1
f 327/409/13 335/411/13 324/415/13
f 342/416/16 357/417/16 343/418/16
f 343/418/17 357/417/17 375/419/17
f 344/420/13 360/421/13 374/422/13
f 340/423/16 369/424/16 347/425/16
f 346/426/14 351/427/14 341/428/14
f 345/429/14 360/421/14 344/420/14
f 354/430/18 363/431/18 358/432/18
f 370/433/18 352/434/18 366/435/18
f 350/436/22 370/437/22 371/438/22
f 358/439/22 356/440/22 354/441/22
f 359/442/160 355/443/160 356/440/160
f 352/434/24 368/444/24 366/435/24
f 353/445/23 367/446/23 368/444/23
f 364/447/23 362/448/23 360/421/23
f 365/449/24 361/450/24 362/448/24
f 341/428/13 351/427/13 373/451/13
f 349/452/160 371/438/160 369/424/160
f 368/453/17 367/446/17 372/454/17
f 349/455/13 373/451/13 350/456/13
f 372/454/17 346/426/17 347/425/17
f 372/454/17 369/424/17 371/457/17
f 370/458/17 366/459/17 372/454/17
f 371/457/17 370/458/17 372/454/17
f 372/454/17 366/459/17 368/453/17
f 350/456/13 373/451/13 348/460/13
f 352/461/13 373/451/13 353/462/13
f 348/460/13 373/451/13 352/461/13
f 353/462/13 373/451/13 351/427/13
f 355/463/13 374/422/13 356/464/13
f 356/464/13 374/422/13 354/465/13
f 362/466/13 374/422/13 360/421/13
f 354/465/13 374/422/13 361/467/13
f 361/467/13 374/422/13 362/466/13
f 364/447/17 375/419/17 365/468/17
f 365/468/17 375/419/17 363/469/17
f 359/470/17 375/419/17 357/417/17
f 363/469/17 375/419/17 358/471/17
f 358/471/17 375/419/17 359/470/17
f 321/398/13 317/472/13 320/473/13
f 320/474/16 322/475/16 331/476/16
f 331/476/16 322/475/16 330/477/16
f 323/391/16 329/478/16 322/475/16
f 329/478/16 323/391/16 328/479/16
f 328/479/16 323/391/16 321/398/16
f 325/480/16 328/479/16 321/398/16
f 320/474/16 331/476/16 326/481/16
f 324/482/16 325/480/16 321/398/16
f 320/474/16 326/481/16 327/483/16
f 320/474/16 327/483/16 324/482/16
f 320/474/16 324/482/16 321/398/16
f 329/478/16 330/477/16 322/475/16
f 342/416/16 355/443/16 357/417/16
f 364/447/17 345/429/17 375/419/17
f 345/429/17 343/418/17 375/419/17
f 355/463/13 342/484/13 374/422/13
f 342/484/13 344/420/13 374/422/13
f 340/423/16 349/452/16 369/424/16
f 346/426/14 367/446/14 351/427/14
f 345/429/14 364/447/14 360/421/14
f 354/430/18 361/450/18 363/431/18
f 370/433/18 348/485/18 352/434/18
f 350/436/22 348/486/22 370/437/22
f 358/439/22 359/442/22 356/440/22
f 359/442/160 357/417/160 355/443/160
f 352/434/24 353/445/24 368/444/24
f 353/445/23 351/427/23 367/446/23
f 364/447/23 365/449/23 362/448/23
f 365/449/24 363/431/24 361/450/24
f 349/455/13 340/487/13 373/451/13
f 340/487/13 341/428/13 373/451/13
f 349/452/160 350/436/160 371/438/160
f 347/425/17 369/424/17 372/454/17
f 372/454/17 367/446/17 346/426/17
f 186/372/169 179/387/192 1/373/170
f 185/375/172 186/372/172 8/374/173
f 6/377/175 184/379/176 185/375/176
f 5/378/178 183/381/179 184/379/179
f 4/380/181 182/488/193 183/381/182
f 3/382/183 181/489/184 182/383/184
f 180/385/185 181/489/185 3/382/186
f 179/387/188 180/385/194 2/386/189
f 269/388/17 278/490/17 277/389/17
f 263/391/17 262/491/17 259/392/17
f 257/394/190 259/397/190 262/395/190
f 257/394/14 256/399/14 258/393/14
f 261/398/191 263/391/191 258/393/191
f 265/400/15 274/412/15 279/401/15
f 279/405/16 274/492/16 275/493/16
f 275/493/16 272/494/16 273/403/16
f 273/403/16 276/495/16 277/404/16
f 277/404/16 278/496/16 279/405/16
f 279/405/16 275/493/16 273/403/16
f 271/406/18 276/497/18 273/407/18
f 277/389/6 276/497/6 271/406/6
f 267/409/9 266/408/9 273/407/9
f 265/400/8 264/415/8 275/411/8
f 269/413/1 268/402/1 279/401/1
f 267/409/13 272/410/13 275/411/13
f 261/398/13 256/399/13 257/472/13
f 329/388/17 338/490/17 337/389/17
f 323/391/17 322/491/17 319/392/17
f 317/394/190 319/397/190 322/395/190
f 317/394/14 316/399/14 318/393/14
f 321/398/191 323/391/191 318/393/191
f 325/400/15 334/412/15 339/401/15
f 339/405/16 334/492/16 335/493/16
f 335/493/16 332/494/16 333/403/16
f 333/403/16 336/495/16 337/404/16
f 337/404/16 338/496/16 339/405/16
f 339/405/16 335/493/16 333/403/16
f 331/406/18 336/497/18 333/407/18
f 337/389/6 336/497/6 331/406/6
f 327/409/9 326/408/9 333/407/9
f 325/400/8 324/415/8 335/411/8
f 329/413/1 328/402/1 339/401/1
f 327/409/13 332/410/13 335/411/13
f 321/398/13 316/399/13 317/472/13
f 435/498/13 436/499/12 434/500/13
f 437/501/12 438/502/199 436/499/12
f 439/503/199 440/504/9 438/502/199
f 441/505/9 442/506/200 440/504/9
f 443/507/200 444/508/10 442/506/200
f 445/509/10 446/510/18 444/511/10
f 447/512/18 448/513/5 446/510/18
f 449/514/5 450/515/201 448/513/5
f 451/516/201 452/517/6 450/515/201
f 453/518/6 454/519/202 452/517/6
f 455/520/202 456/521/20 454/519/202
f 458/522/16 530/523/16 532/524/16
f 458/522/16 534/525/16 460/526/16
f 461/527/19 462/528/195 460/529/19
f 463/530/195 464/531/1 462/528/195
f 465/532/1 466/533/196 464/531/1
f 467/534/196 468/535/2 466/533/196
f 469/536/2 470/537/15 468/535/2
f 471/538/15 472/539/7 470/537/15
f 473/540/7 474/541/197 472/539/7
f 475/542/197 476/543/8 474/541/197
f 477/544/8 478/545/198 476/543/8
f 441/546/14 502/547/14 499/548/203
f 471/549/14 463/550/14 491/551/14
f 479/552/198 480/553/11 478/545/198
f 481/554/11 434/500/13 480/553/11
f 440/555/16 448/556/16 509/557/16
f 464/558/16 472/559/16 521/560/16
f 459/561/14 535/562/14 533/563/14
f 460/526/15 535/564/15 461/565/15
f 457/566/18 530/523/18 456/567/18
f 459/561/14 531/568/14 457/566/14
f 435/498/13 437/501/12 436/499/12
f 437/501/12 439/503/199 438/502/199
f 439/503/199 441/505/9 440/504/9
f 441/505/9 443/507/200 442/506/200
f 443/507/200 445/569/10 444/508/10
f 445/509/10 447/512/18 446/510/18
f 447/512/18 449/514/5 448/513/5
f 449/514/5 451/516/201 450/515/201
f 451/516/201 453/518/6 452/517/6
f 453/518/6 455/520/202 454/519/202
f 455/520/202 457/570/20 456/521/20
f 458/522/16 456/567/16 530/523/16
f 458/522/16 532/524/16 534/525/16
f 461/527/19 463/530/195 462/528/195
f 463/530/195 465/532/1 464/531/1
f 465/532/1 467/534/196 466/533/196
f 467/534/196 469/536/2 468/535/2
f 469/536/2 471/538/15 470/537/15
f 471/538/15 473/540/7 472/539/7
f 473/540/7 475/542/197 474/541/197
f 475/542/197 477/544/8 476/543/8
f 477/544/8 479/552/198 478/545/198
f 498/571/14 447/572/14 445/573/14
f 445/573/14 443/574/14 441/546/14
f 441/546/14 439/575/14 505/576/14
f 441/546/14 505/576/14 496/577/14
f 498/571/14 445/573/14 441/546/14
f 499/548/203 498/571/14 441/546/14
f 441/546/14 496/577/14 502/547/14
f 487/578/14 505/576/14 439/575/14
f 439/575/14 437/579/14 435/580/14
f 435/580/14 481/581/14 479/582/14
f 479/582/14 477/583/14 475/584/14
f 475/584/14 473/585/14 471/549/14
f 471/549/14 469/586/14 467/587/14
f 467/587/14 465/588/14 463/550/14
f 463/550/14 461/589/14 459/590/14
f 459/590/14 457/591/14 455/592/14
f 455/592/14 453/593/14 451/594/14
f 451/594/14 449/595/14 447/572/14
f 447/572/14 498/571/14 501/596/14
f 447/572/14 501/596/14 500/597/14
f 455/592/14 451/594/14 447/572/14
f 463/550/14 459/590/14 455/592/14
f 471/549/14 467/587/14 463/550/14
f 479/582/14 475/584/14 471/549/14
f 439/575/14 435/580/14 479/582/14
f 488/598/204 487/578/14 439/575/14
f 485/599/14 488/598/204 439/575/14
f 455/592/14 447/572/14 500/597/14
f 455/592/14 500/597/14 497/600/14
f 485/599/14 439/575/14 479/582/14
f 486/601/14 485/599/14 479/582/14
f 455/592/14 497/600/14 504/602/14
f 455/592/14 504/602/14 493/603/14
f 483/604/14 486/601/14 479/582/14
f 484/605/14 483/604/14 479/582/14
f 463/550/14 455/592/14 493/603/14
f 463/550/14 493/603/14 494/606/205
f 484/605/14 479/582/14 471/549/14
f 482/607/14 484/605/14 471/549/14
f 463/550/14 494/606/205 492/608/14
f 463/550/14 492/608/14 495/609/14
f 503/610/14 482/607/14 471/549/14
f 489/611/14 503/610/14 471/549/14
f 463/550/14 495/609/14 490/612/14
f 491/551/14 489/611/14 471/549/14
f 463/550/14 490/612/14 491/551/14
f 479/552/198 481/554/11 480/553/11
f 481/554/11 435/498/13 434/500/13
f 510/613/16 512/614/16 440/555/16
f 440/555/16 442/615/16 444/616/16
f 444/616/16 446/617/16 448/556/16
f 448/556/16 528/618/16 511/619/16
f 509/557/16 510/613/16 440/555/16
f 448/556/16 511/619/16 509/557/16
f 440/555/16 444/616/16 448/556/16
f 518/620/16 528/618/16 448/556/16
f 448/556/16 450/621/16 452/622/16
f 452/622/16 454/623/16 456/624/16
f 456/624/16 458/625/16 460/626/16
f 460/626/16 462/627/16 464/558/16
f 464/558/16 466/628/16 468/629/16
f 468/629/16 470/630/16 472/559/16
f 472/559/16 474/631/16 476/632/16
f 476/632/16 478/633/16 480/634/16
f 480/634/16 434/635/16 436/636/16
f 436/636/16 438/637/16 440/555/16
f 440/555/16 512/614/16 507/638/16
f 440/555/16 507/638/16 508/639/16
f 480/634/16 436/636/16 440/555/16
f 472/559/16 476/632/16 480/634/16
f 464/558/16 468/629/16 472/559/16
f 456/624/16 460/626/16 464/558/16
f 448/556/16 452/622/16 456/624/16
f 519/640/206 518/620/16 448/556/16
f 516/641/16 519/640/206 448/556/16
f 480/634/16 440/555/16 508/639/16
f 480/634/16 508/639/16 506/642/16
f 516/641/16 448/556/16 456/624/16
f 517/643/16 516/641/16 456/624/16
f 480/634/16 506/642/16 529/644/16
f 480/634/16 529/644/16 523/645/16
f 514/646/16 517/643/16 456/624/16
f 515/647/16 514/646/16 456/624/16
f 472/559/16 480/634/16 523/645/16
f 472/559/16 523/645/16 524/648/207
f 515/647/16 456/624/16 464/558/16
f 513/649/16 515/647/16 464/558/16
f 472/559/16 524/648/207 526/650/16
f 472/559/16 526/650/16 522/651/16
f 527/652/16 513/649/16 464/558/16
f 525/653/16 527/652/16 464/558/16
f 472/559/16 522/651/16 520/654/16
f 521/560/16 525/653/16 464/558/16
f 472/559/16 520/654/16 521/560/16
f 459/561/14 461/655/14 535/562/14
f 460/526/15 534/525/15 535/564/15
f 457/566/18 531/568/18 530/523/18
f 459/561/14 533/563/14 531/568/14
usemtl SpacialRoverExploreralumBlack
f 186/656/208 189/657/208 179/658/208
f 179/658/209 196/659/209 180/660/209
f 180/660/210 197/661/210 181/662/210
f 182/663/211 197/661/211 198/664/264
f 183/665/212 198/666/212 199/667/212
f 8/668/265 21/669/213 7/670/213
f 5/671/214 19/672/266 17/673/214
f 4/674/267 13/675/268 3/676/268
f 1/677/216 11/678/217 24/679/216
f 1/677/216 23/680/269 8/668/265
f 6/681/270 21/669/213 19/672/266
f 5/671/214 15/682/215 4/674/267
f 2/683/271 13/675/268 11/678/217
f 23/684/218 9/685/219 22/686/220
f 21/687/221 22/686/222 20/688/223
f 18/689/224 21/687/225 20/688/226
f 16/690/227 19/691/228 18/689/229
f 14/692/230 17/693/231 16/694/232
f 12/695/233 15/696/234 14/692/235
f 11/697/236 12/695/237 10/698/238
f 24/699/239 10/698/240 9/685/241
f 188/700/242 196/701/242 189/702/242
f 187/703/243 197/661/243 196/701/243
f 197/661/244 191/704/244 198/664/244
f 198/705/245 192/706/245 199/707/245
f 199/707/246 193/708/246 200/709/246
f 200/709/247 194/710/247 201/711/247
f 194/710/248 202/712/248 201/711/248
f 195/713/249 189/702/249 202/714/249
f 185/715/250 202/716/250 186/656/250
f 185/715/251 200/717/251 201/718/251
f 184/719/252 199/667/252 200/717/252
f 186/656/208 202/716/208 189/657/208
f 179/658/209 189/657/209 196/659/209
f 180/660/210 196/659/210 197/661/210
f 182/663/211 181/662/211 197/661/211
f 183/665/212 182/720/253 198/666/212
f 8/668/265 23/680/269 21/669/213
f 5/671/214 6/681/270 19/672/266
f 4/674/267 15/682/215 13/675/268
f 1/677/216 2/683/271 11/678/217
f 1/677/216 24/679/216 23/680/269
f 6/681/270 7/670/213 21/669/213
f 5/671/214 17/673/214 15/682/215
f 2/683/271 3/676/268 13/675/268
f 23/684/218 24/699/254 9/685/219
f 21/687/221 23/684/255 22/686/222
f 18/689/256 19/691/257 21/687/225
f 16/690/227 17/721/258 19/691/228
f 14/692/230 15/696/259 17/693/231
f 12/695/260 13/722/261 15/696/272
f 11/697/236 13/722/262 12/695/237
f 24/699/239 11/697/263 10/698/240
f 188/700/242 187/703/242 196/701/242
f 187/703/243 190/723/243 197/661/243
f 197/661/244 190/723/244 191/704/244
f 198/705/245 191/724/245 192/706/245
f 199/707/246 192/706/246 193/708/246
f 200/709/247 193/708/247 194/710/247
f 194/710/248 195/725/248 202/712/248
f 195/713/249 188/700/249 189/702/249
f 185/715/250 201/718/250 202/716/250
f 185/715/251 184/719/251 200/717/251
f 184/719/252 183/665/252 199/667/252
usemtl SpacialRoverExploreralumOrange
f 98/726/55 27/727/4 25/728/17
f 97/729/4 29/730/195 27/727/4
f 99/731/195 31/732/1 29/730/195
f 100/733/1 33/734/196 31/732/1
f 101/735/196 35/736/2 33/734/196
f 102/737/2 37/738/15 35/736/2
f 103/739/15 39/740/7 37/738/15
f 104/741/7 41/742/197 39/740/7
f 105/743/197 43/744/8 41/742/197
f 106/745/8 45/746/198 43/744/8
f 107/747/198 47/748/11 45/746/198
f 108/749/11 49/750/13 47/748/11
f 109/751/85 51/752/12 49/753/13
f 110/754/12 53/755/199 51/752/12
f 111/756/57 55/757/9 53/755/199
f 112/758/9 57/759/200 55/757/9
f 113/760/200 59/761/10 57/759/200
f 114/762/10 61/763/18 59/761/10
f 115/764/18 63/765/5 61/763/18
f 116/766/5 65/767/201 63/765/5
f 117/768/201 67/769/6 65/767/201
f 118/770/6 69/771/202 67/769/6
f 119/772/88 71/773/3 69/771/202
f 120/774/3 25/728/17 71/773/3
f 98/726/55 97/729/4 27/727/4
f 97/729/4 99/731/195 29/730/195
f 99/731/195 100/733/1 31/732/1
f 100/733/1 101/735/196 33/734/196
f 101/735/196 102/737/2 35/736/2
f 102/737/2 103/739/15 37/738/15
f 103/739/15 104/741/7 39/740/7
f 104/741/7 105/743/197 41/742/197
f 105/743/197 106/745/8 43/744/8
f 106/745/8 107/747/198 45/746/198
f 107/747/198 108/749/11 47/748/11
f 108/749/11 109/775/85 49/750/13
f 109/751/85 110/754/12 51/752/12
f 110/754/12 111/756/57 53/755/199
f 111/756/57 112/758/9 55/757/9
f 112/758/9 113/760/200 57/759/200
f 113/760/200 114/762/10 59/761/10
f 114/762/10 115/764/18 61/763/18
f 115/764/18 116/766/5 63/765/5
f 116/766/5 117/768/201 65/767/201
f 117/768/201 118/770/6 67/769/6
f 118/770/6 119/772/88 69/771/202
f 119/772/88 120/774/3 71/773/3
f 120/774/3 98/726/55 25/728/17
usemtl SpacialRoverExploreralumGrayDeep
f 389/776/273 400/777/274 401/778/274
f 384/779/17 548/780/17 546/781/17
f 401/782/17 539/783/17 545/784/17
f 376/785/276 388/786/275 385/787/276
f 378/788/13 553/789/13 561/790/13
f 555/791/13 379/792/13 377/793/13
f 377/794/277 386/795/300 384/796/277
f 379/797/26 387/798/279 386/795/26
f 378/799/279 385/787/276 387/798/279
f 389/776/273 382/800/280 380/801/273
f 391/802/281 383/803/302 382/800/281
f 390/804/282 381/805/299 383/803/302
f 392/806/303 427/807/303 426/808/303
f 427/807/304 394/809/304 428/810/304
f 394/811/305 429/812/305 428/813/305
f 395/814/306 430/815/306 429/812/306
f 396/816/307 431/817/307 430/815/307
f 431/817/308 398/818/308 432/819/308
f 393/820/17 399/821/17 397/822/17
f 398/818/309 433/823/309 432/819/309
f 399/824/310 426/808/310 433/823/310
f 400/825/283 414/826/284 401/827/283
f 402/828/285 377/794/277 384/796/277
f 424/829/13 400/830/13 422/831/13
f 423/832/294 405/833/287 404/834/287
f 419/835/17 401/782/17 421/836/17
f 405/833/287 406/837/288 404/834/287
f 416/838/17 564/839/17 414/840/17
f 415/841/301 407/842/289 412/843/289
f 409/844/284 416/845/290 414/826/284
f 411/846/290 417/847/291 416/845/290
f 410/848/311 415/841/301 417/847/292
f 410/849/13 411/850/13 563/851/13
f 418/852/286 425/853/293 420/854/293
f 425/855/293 421/856/295 420/857/293
f 424/858/296 419/859/297 421/860/296
f 419/859/297 403/861/285 402/828/285
f 428/862/13 430/863/13 432/864/13
f 412/843/298 406/837/298 413/865/298
f 548/780/17 386/866/17 387/867/17
f 385/868/17 548/869/17 387/870/17
f 385/871/17 543/872/17 544/873/17
f 400/830/13 424/829/13 425/874/13
f 422/831/13 400/830/13 403/875/13
f 420/876/17 401/782/17 418/877/17
f 423/878/13 404/879/13 400/830/13
f 400/830/13 425/874/13 423/878/13
f 401/782/17 419/835/17 402/880/17
f 421/836/17 401/782/17 420/876/17
f 418/877/17 401/782/17 405/881/17
f 389/882/17 543/872/17 391/883/17
f 390/884/17 543/872/17 388/885/17
f 391/883/17 543/872/17 390/884/17
f 555/791/13 378/788/13 379/792/13
f 403/875/13 558/886/13 562/887/13
f 559/888/13 380/889/13 382/890/13
f 376/891/13 560/892/13 559/888/13
f 382/890/13 383/893/13 559/888/13
f 383/893/13 381/894/13 559/888/13
f 563/851/13 400/830/13 404/879/13
f 408/895/13 563/851/13 407/896/13
f 563/851/13 411/850/13 409/897/13
f 563/851/13 408/895/13 410/849/13
f 407/896/13 563/851/13 406/898/13
f 564/839/17 405/881/17 401/782/17
f 564/839/17 412/899/17 413/900/17
f 412/899/17 564/839/17 415/901/17
f 564/839/17 417/902/17 415/901/17
f 417/902/17 564/839/17 416/838/17
f 389/776/273 380/801/273 400/777/274
f 384/779/17 386/866/17 548/780/17
f 540/903/17 543/872/17 389/882/17
f 384/779/17 546/781/17 536/904/17
f 384/779/17 536/904/17 537/905/17
f 541/906/312 540/903/17 389/882/17
f 542/907/17 541/906/312 389/882/17
f 402/880/17 384/779/17 537/905/17
f 402/880/17 537/905/17 538/908/17
f 542/907/17 389/882/17 401/782/17
f 547/909/17 542/907/17 401/782/17
f 401/782/17 402/880/17 538/908/17
f 401/782/17 538/908/17 539/783/17
f 545/784/17 547/909/17 401/782/17
f 376/785/276 381/805/299 388/786/275
f 561/790/13 376/891/13 378/788/13
f 378/788/13 555/791/13 553/789/13
f 377/794/277 379/797/278 386/795/300
f 379/797/26 378/799/279 387/798/279
f 378/799/279 376/785/276 385/787/276
f 389/776/273 391/802/280 382/800/280
f 391/802/281 390/804/282 383/803/302
f 390/804/282 388/786/275 381/805/299
f 392/806/303 393/910/303 427/807/303
f 427/807/304 393/910/304 394/809/304
f 394/811/305 395/814/305 429/812/305
f 395/814/306 396/816/313 430/815/306
f 396/816/307 397/911/307 431/817/307
f 431/817/308 397/911/308 398/818/308
f 397/822/17 396/912/17 395/913/17
f 395/913/17 394/914/17 393/820/17
f 393/820/17 392/915/17 399/821/17
f 399/821/17 398/916/17 397/822/17
f 397/822/17 395/913/17 393/820/17
f 398/818/309 399/824/309 433/823/309
f 399/824/310 392/806/310 426/808/310
f 400/825/283 409/844/284 414/826/284
f 402/828/285 403/861/285 377/794/277
f 423/832/294 418/852/286 405/833/287
f 405/833/287 413/865/288 406/837/288
f 415/841/301 408/917/301 407/842/289
f 409/844/284 411/846/290 416/845/290
f 411/846/290 410/848/291 417/847/291
f 410/848/311 408/917/301 415/841/301
f 418/852/286 423/832/294 425/853/293
f 425/855/293 424/918/295 421/856/295
f 424/858/296 422/919/297 419/859/297
f 419/859/297 422/919/297 403/861/285
f 432/864/13 433/920/13 426/921/13
f 426/921/13 427/922/13 428/862/13
f 428/862/13 429/923/13 430/863/13
f 430/863/13 431/924/13 432/864/13
f 432/864/13 426/921/13 428/862/13
f 412/843/298 407/842/298 406/837/298
f 544/873/17 548/780/17 385/871/17
f 385/871/17 388/885/17 543/872/17
f 380/889/13 559/888/13 557/925/13
f 380/889/13 557/925/13 550/926/13
f 554/927/13 555/791/13 377/793/13
f 549/928/13 554/927/13 377/793/13
f 400/830/13 380/889/13 550/926/13
f 400/830/13 550/926/13 552/929/13
f 549/928/13 377/793/13 403/875/13
f 556/930/13 549/928/13 403/875/13
f 403/875/13 400/830/13 552/929/13
f 403/875/13 552/929/13 551/931/13
f 562/887/13 556/930/13 403/875/13
f 403/875/13 551/931/13 558/886/13
f 559/888/13 381/894/13 376/891/13
f 376/891/13 561/790/13 560/892/13
f 404/879/13 406/898/13 563/851/13
f 563/851/13 409/897/13 400/830/13
f 401/782/17 414/840/17 564/839/17
f 564/839/17 413/900/17 405/881/17
