# Pieza del RoverModificado
mtllib Rover.mtl
o Pinza
v 0.068156 -0.256408 -0.180524
v 0.290766 -0.027940 -0.155091
v 0.070917 -0.251110 -0.252276
v 0.293527 -0.022641 -0.226843
v 0.052825 -0.285842 0.218097
v 0.275435 -0.057373 0.243529
v 0.055584 -0.280543 0.146346
v 0.278194 -0.052075 0.171778
v -0.191649 0.003752 -0.243556
v -0.194121 0.164493 -0.231783
v -0.226239 0.083705 -0.238983
v -0.130092 0.230208 -0.224468
v 0.030961 0.232220 -0.218123
v -0.050077 0.264504 -0.218857
v -0.196881 0.159195 -0.160030
v -0.194408 -0.001547 -0.171804
v -0.229000 0.078406 -0.167231
v 0.028202 0.226922 -0.146373
v -0.132852 0.224909 -0.152716
v -0.052836 0.259206 -0.147106
v -0.206981 -0.025682 0.155064
v -0.209453 0.135059 0.166839
v -0.241572 0.054272 0.159639
v -0.145423 0.200773 0.174153
v 0.015629 0.202787 0.180497
v -0.065410 0.235070 0.179763
v -0.212213 0.129762 0.238590
v -0.209741 -0.030980 0.226816
v -0.244331 0.048974 0.231390
v 0.012869 0.197488 0.252248
v -0.148184 0.195476 0.245905
v -0.068169 0.229773 0.251516
v -0.173534 0.009600 -0.102475
v 0.028139 -0.166605 -0.110262
v -0.173326 0.000713 0.103973
v 0.028348 -0.175491 0.096186
v 0.026641 -0.166293 -0.170983
v 0.026971 -0.180397 0.156714
v -0.175682 0.010480 -0.163169
v -0.175350 -0.003625 0.164527
v 0.108337 0.308777 0.180530
v 0.107943 0.325541 -0.208945
v 0.298571 0.142566 0.173183
v 0.467189 0.146150 0.165343
v 0.466804 0.162551 -0.215741
v 0.298178 0.159329 -0.216290
v 0.333878 0.583651 -0.198063
v 0.334272 0.566897 0.191176
v 0.618445 0.318611 0.180202
v 0.618051 0.335364 -0.209037
v 0.591800 0.690345 0.083446
v 0.630943 0.654881 0.111908
v 0.597808 0.685679 0.069371
v 0.636951 0.650215 0.097832
v 0.899730 0.881118 -0.111841
v 0.938874 0.845654 -0.083380
v 0.905739 0.876453 -0.125918
v 0.944882 0.840988 -0.097457
v 0.721054 0.585284 -0.108235
v 0.681910 0.620749 -0.136697
v 0.715046 0.589950 -0.094159
v 0.675902 0.625414 -0.122621
v 0.304536 0.140029 0.109486
v 0.304928 0.137096 0.170937
v 0.304329 0.148914 -0.096963
v 0.304596 0.151273 -0.158438
v 0.102596 0.313868 0.178990
v 0.102863 0.316235 0.117274
v 0.102654 0.325120 -0.089174
v 0.102262 0.328065 -0.150864
v 0.885394 0.752562 0.081241
v 0.848431 0.783406 0.117053
v 0.337090 0.200493 -0.214381
v 0.407644 0.205213 -0.214249
v 0.841511 0.790006 0.104225
v 0.878471 0.759161 0.068414
v 0.720476 0.578664 0.060804
v 0.683514 0.609509 0.096616
v 0.727396 0.572064 0.073632
v 0.690434 0.602909 0.109444
v 0.336931 0.207288 -0.372235
v 0.407483 0.212007 -0.372103
v 0.563979 0.379575 -0.134947
v 0.596443 0.348056 -0.061381
v 0.453307 0.477751 -0.165804
v 0.518203 0.421054 -0.168400
v 0.374829 0.541658 -0.052210
v 0.407259 0.516481 -0.128373
v 0.407256 0.507161 0.092770
v 0.374791 0.538681 0.019203
v 0.517927 0.408986 0.123628
v 0.453031 0.465682 0.126223
v 0.596404 0.345079 0.010032
v 0.563975 0.370256 0.086195
v 0.765896 0.541638 -0.053219
v 0.733430 0.573158 -0.126786
v 0.687654 0.614637 -0.160240
v 0.622759 0.671334 -0.157644
v 0.576712 0.710063 -0.120211
v 0.544281 0.735240 -0.044049
v 0.544243 0.732265 0.027363
v 0.576707 0.700745 0.100931
v 0.622482 0.659266 0.134383
v 0.687378 0.602569 0.131788
v 0.733426 0.563839 0.094356
v 0.765856 0.538662 0.018193
v 0.699672 0.600569 -0.076022
v 0.717042 0.583704 -0.036660
v 0.637783 0.655520 -0.094486
v 0.672506 0.625184 -0.095875
v 0.593119 0.691963 -0.031532
v 0.610470 0.678493 -0.072284
v 0.610466 0.673334 0.050167
v 0.593095 0.690198 0.010806
v 0.672353 0.618383 0.068630
v 0.637631 0.648718 0.070018
v 0.717019 0.581940 0.005678
v 0.699666 0.595410 0.046427
v 0.859955 0.746970 -0.029779
v 0.842585 0.763834 -0.069141
v 0.842580 0.758677 0.053310
v 0.859932 0.745205 0.012559
v 0.780546 0.811984 0.076901
v 0.815266 0.781649 0.075514
v 0.736009 0.853464 0.017687
v 0.753381 0.836599 0.057049
v 0.753385 0.841758 -0.065400
v 0.736032 0.855228 -0.024651
v 0.815419 0.788450 -0.088993
v 0.780698 0.818786 -0.087604
v 0.513729 0.326406 -0.209140
v 0.511004 0.367083 -0.207386
v 0.213065 0.347153 -0.207942
v 0.215789 0.306476 -0.209696
v 0.449060 0.421205 -0.204994
v 0.398551 0.438256 -0.204209
v 0.315025 0.432668 -0.204365
v 0.267240 0.409041 -0.205334
v 0.398392 0.445048 -0.362064
v 0.448901 0.427999 -0.362848
v 0.267079 0.415835 -0.363187
v 0.314866 0.439462 -0.362219
v 0.510845 0.373878 -0.365241
v 0.513570 0.333200 -0.366993
v 0.215631 0.313270 -0.367551
v 0.212905 0.353947 -0.365797
v 0.028958 -0.036751 -0.304827
v 0.052972 -0.009317 -0.303670
v -0.028822 -0.037186 -0.304787
v 0.006963 -0.044245 -0.305127
v -0.058088 0.012591 -0.302615
v -0.046315 -0.021901 -0.304110
v -0.029572 0.062803 -0.300482
v -0.053584 0.035369 -0.301638
v 0.028210 0.063237 -0.300523
v -0.007575 0.070295 -0.300182
v 0.057476 0.013460 -0.302695
v 0.045702 0.047954 -0.301198
v 0.052771 -0.000717 -0.503485
v 0.028757 -0.028150 -0.504641
v 0.006761 -0.035644 -0.504941
v -0.029025 -0.028584 -0.504601
v -0.046517 -0.013301 -0.503926
v -0.058290 0.021192 -0.502430
v -0.053786 0.043969 -0.501453
v -0.029774 0.071403 -0.500298
v -0.007777 0.078897 -0.499996
v 0.028007 0.071837 -0.500336
v 0.045500 0.056554 -0.501013
v 0.057273 0.022060 -0.502509
v 0.079914 -0.027715 -0.304488
v 0.050799 -0.060976 -0.305891
v 0.004487 -0.076755 -0.306523
v -0.038903 -0.068195 -0.306112
v -0.075735 -0.036014 -0.304688
v -0.090008 0.005806 -0.302874
v -0.080528 0.053766 -0.300820
v -0.051411 0.087028 -0.299418
v -0.005099 0.102807 -0.298785
v 0.038289 0.094248 -0.299198
v 0.075122 0.062067 -0.300620
v 0.089395 0.020246 -0.302434
v 0.050868 -0.063869 -0.238665
v 0.079983 -0.030608 -0.237262
v -0.038835 -0.071089 -0.238886
v 0.004555 -0.079648 -0.239297
v -0.089940 0.002913 -0.235648
v -0.075667 -0.038908 -0.237462
v -0.051345 0.084134 -0.232192
v -0.080460 0.050873 -0.233594
v 0.038358 0.091354 -0.231971
v -0.005030 0.099914 -0.231559
v 0.089463 0.017352 -0.235208
v 0.075190 0.059174 -0.233394
v 0.047393 -0.079760 0.100262
v 0.081107 -0.041245 0.101885
v -0.041527 -0.083027 0.100212
v 0.008714 -0.092938 0.099734
v -0.088815 -0.007725 0.103500
v -0.072288 -0.056149 0.101399
v -0.047184 0.070845 0.106839
v -0.080898 0.032331 0.105216
v 0.041737 0.074113 0.106890
v -0.008505 0.084024 0.107367
v 0.089025 -0.001190 0.103602
v 0.072497 0.047236 0.105703
v 0.080898 -0.032331 -0.105216
v 0.047184 -0.070846 -0.106839
v 0.008504 -0.084024 -0.107368
v -0.041735 -0.074113 -0.106890
v -0.072498 -0.047236 -0.105703
v -0.089025 0.001189 -0.103602
v -0.081108 0.041245 -0.101886
v -0.047394 0.079759 -0.100262
v -0.008714 0.092938 -0.099733
v 0.041527 0.083026 -0.100210
v 0.072288 0.056150 -0.101398
v 0.088815 0.007724 -0.103500
v 0.956589 0.820204 -0.034409
v 0.934835 0.841324 -0.083705
v 0.897864 0.874826 -0.110723
v 0.854379 0.912816 -0.108985
v 0.817220 0.944070 -0.078778
v 0.795489 0.960940 -0.027744
v 0.795459 0.958540 0.029836
v 0.817213 0.937420 0.079132
v 0.854183 0.903918 0.106150
v 0.897668 0.865928 0.104410
v 0.934827 0.834675 0.074203
v 0.956558 0.817804 0.023169
v 0.918134 0.822245 -0.084510
v 0.939888 0.801124 -0.035214
v 0.880968 0.846849 0.103606
v 0.837483 0.884839 0.105344
v 0.778789 0.941860 -0.028548
v 0.800520 0.924991 -0.079581
v 0.939856 0.798724 0.022365
v 0.918127 0.815595 0.073399
v 0.800511 0.918341 0.078326
v 0.778757 0.939461 0.029031
v 0.837678 0.893737 -0.109789
v 0.881163 0.855746 -0.111528
v 0.916145 0.857106 -0.069998
v 0.938861 0.835053 -0.018525
v 0.853406 0.912483 -0.080850
v 0.898811 0.872814 -0.082666
v 0.813201 0.944829 -0.013325
v 0.835891 0.927213 -0.066613
v 0.835901 0.921639 0.065423
v 0.813187 0.943692 0.013950
v 0.898642 0.866262 0.076275
v 0.853236 0.905931 0.078091
v 0.938846 0.833916 0.008750
v 0.916155 0.851531 0.062040
v 0.938826 0.832463 0.043609
v 0.899513 0.832519 0.061237
v 0.922204 0.814903 0.007949
v 0.796543 0.924680 0.013149
v 0.819259 0.902626 0.064623
v 0.882169 0.853802 -0.083466
v 0.836762 0.893471 -0.081651
v 0.922219 0.816040 -0.019325
v 0.899503 0.838094 -0.070798
v 0.836594 0.886918 0.077290
v 0.882000 0.847249 0.075474
v 0.819250 0.908201 -0.067415
v 0.796559 0.925817 -0.014126
v 0.763542 0.645352 -0.091824
v 0.890378 0.790251 -0.085716
v 0.851233 0.825715 -0.114178
v 0.724397 0.680816 -0.120286
v 0.896386 0.785585 -0.099792
v 0.769550 0.640687 -0.105900
v 0.730405 0.676151 -0.134362
v 0.857241 0.821050 -0.128254
v 0.756428 0.652329 -0.101174
v 0.887520 0.802091 -0.094861
v 0.865600 0.821950 -0.110799
v 0.734507 0.672188 -0.117112
v 0.890885 0.799478 -0.102744
v 0.759791 0.649715 -0.109057
v 0.737871 0.669576 -0.124996
v 0.868965 0.819338 -0.118682
v 0.707390 0.810866 0.074649
v 0.746533 0.775402 0.103109
v 0.701382 0.815532 0.088724
v 0.740525 0.780068 0.117186
v 0.713525 0.805518 0.082313
v 0.833407 0.942472 0.088086
v 0.858458 0.919775 0.106301
v 0.829562 0.945458 0.097096
v 0.854614 0.922761 0.115310
v 0.734732 0.785807 0.109537
v 0.738577 0.782821 0.100529
v 0.709680 0.808504 0.091321
v 0.793543 0.717795 -0.024289
v 0.783587 0.727460 -0.046847
v 0.764867 0.744425 -0.060528
v 0.744966 0.761809 -0.059732
v 0.726157 0.777630 -0.044443
v 0.716213 0.785350 -0.021089
v 0.716197 0.784136 0.008045
v 0.726152 0.774470 0.030604
v 0.744873 0.757506 0.044285
v 0.764773 0.740121 0.043489
v 0.783583 0.724301 0.028199
v 0.793527 0.716580 0.004845
v 0.826773 0.776795 -0.044767
v 0.836728 0.767131 -0.022208
v 0.836712 0.765917 0.006926
v 0.826769 0.773637 0.030280
v 0.807959 0.789456 0.045569
v 0.788060 0.806842 0.046365
v 0.769338 0.823806 0.032683
v 0.759383 0.833470 0.010124
v 0.759399 0.834686 -0.019008
v 0.769344 0.826965 -0.042362
v 0.788152 0.811146 -0.057652
v 0.808051 0.793759 -0.058449
v 0.918134 0.822245 -0.084510
v 0.939888 0.801124 -0.035214
v 0.880968 0.846849 0.103606
v 0.837483 0.884839 0.105344
v 0.778789 0.941860 -0.028548
v 0.800520 0.924991 -0.079581
v 0.939856 0.798724 0.022365
v 0.918127 0.815595 0.073399
v 0.800511 0.918341 0.078326
v 0.778757 0.939461 0.029031
v 0.837678 0.893737 -0.109789
v 0.881163 0.855746 -0.111528
v 0.899513 0.832519 0.061237
v 0.922204 0.814903 0.007949
v 0.796543 0.924680 0.013149
v 0.819259 0.902626 0.064623
v 0.882169 0.853802 -0.083466
v 0.836762 0.893471 -0.081651
v 0.922219 0.816040 -0.019325
v 0.899503 0.838094 -0.070798
v 0.836594 0.886918 0.077290
v 0.882000 0.847249 0.075474
v 0.819250 0.908201 -0.067415
v 0.796559 0.925817 -0.014126
v 0.337010 0.203891 -0.293308
v 0.407563 0.208610 -0.293176
v 0.510924 0.370480 -0.286314
v 0.513648 0.329803 -0.288067
v 0.215710 0.309873 -0.288623
v 0.212986 0.350550 -0.286870
v 0.448980 0.424602 -0.283921
v 0.398471 0.441651 -0.283137
v 0.267159 0.412438 -0.284261
v 0.314944 0.436065 -0.283292
vt 0.355705 0.237792
vt 0.295105 0.328071
vt 0.280266 0.313231
vt 0.391665 0.201832
vt 0.425475 0.197701
vt 0.406504 0.216672
vt 0.458262 0.161182
vt 0.518862 0.070903
vt 0.533701 0.085743
vt 0.422302 0.197142
vt 0.388492 0.201273
vt 0.407462 0.182302
vt 0.557949 0.107683
vt 0.547523 0.053769
vt 0.583119 0.018173
vt 0.291933 0.327512
vt 0.352532 0.237233
vt 0.367372 0.252072
vt 0.557949 0.106662
vt 0.547523 0.052747
vt 0.583119 0.017152
vt 0.546801 0.055378
vt 0.582397 0.019782
vt 0.696705 0.119718
vt 0.546801 0.051138
vt 0.582397 0.015542
vt 0.696705 0.115478
vt 0.373685 0.219812
vt 0.388525 0.234652
vt 0.461435 0.161741
vt 0.428615 0.164882
vt 0.446595 0.146902
vt 0.443455 0.179721
vt 0.410635 0.182862
vt 0.440282 0.179162
vt 0.425442 0.164322
vt 0.385352 0.234092
vt 0.370512 0.219253
vt 0.403332 0.216113
vt 0.522034 0.071463
vt 0.370545 0.252632
vt 0.443422 0.146343
vt 0.697427 0.018173
vt 0.697427 0.118109
vt 0.583119 0.118109
vt 0.547523 0.082513
vt 0.557949 0.028599
vt 0.277093 0.312672
vt 0.697427 0.017152
vt 0.697427 0.117087
vt 0.583119 0.117087
vt 0.547523 0.081492
vt 0.557949 0.027577
vt 0.582397 0.119718
vt 0.557227 0.109292
vt 0.546801 0.084122
vt 0.557227 0.030208
vt 0.696705 0.019782
vt 0.582397 0.115478
vt 0.557227 0.105052
vt 0.546801 0.079883
vt 0.557227 0.025968
vt 0.696705 0.015542
vt 0.536874 0.086302
vt 0.818999 0.778579
vt 0.914116 0.629338
vt 0.914250 0.778493
vt 0.819558 0.776844
vt 0.797985 0.627646
vt 0.819560 0.626737
vt 0.914250 0.607743
vt 0.818864 0.629424
vt 0.818692 0.607829
vt 0.915119 0.626737
vt 0.819713 0.605144
vt 0.914965 0.605144
vt 0.962003 0.951947
vt 0.995228 0.927786
vt 0.995228 0.951947
vt 0.962003 0.973785
vt 0.995228 0.997947
vt 0.962003 0.997947
vt 0.891213 0.476628
vt 0.812319 0.505639
vt 0.812040 0.418794
vt 0.811243 0.242324
vt 0.890323 0.270676
vt 0.890586 0.328813
vt 0.949127 0.418229
vt 0.890991 0.418491
vt 0.987917 0.416256
vt 0.948723 0.328551
vt 0.987521 0.328509
vt 0.724791 0.329561
vt 0.672336 0.417680
vt 0.671940 0.329934
vt 0.811636 0.329170
vt 0.702434 0.776609
vt 0.702733 0.627455
vt 0.895523 0.477370
vt 0.939836 0.465060
vt 0.928300 0.509248
vt 0.797126 0.778598
vt 0.701562 0.778493
vt 0.680153 0.629259
vt 0.701730 0.628386
vt 0.680476 0.776565
vt 0.681162 0.626459
vt 0.797289 0.628491
vt 0.915121 0.776844
vt 0.626731 0.450373
vt 0.578989 0.473778
vt 0.578989 0.450373
vt 0.507357 0.230394
vt 0.494830 0.202378
vt 0.507357 0.202378
vt 0.517136 0.287214
vt 0.532565 0.270977
vt 0.532565 0.287214
vt 0.517136 0.217712
vt 0.532565 0.234161
vt 0.517136 0.234161
vt 0.517136 0.180764
vt 0.532565 0.164103
vt 0.532565 0.180764
vt 0.507357 0.173801
vt 0.494830 0.145344
vt 0.507357 0.145344
vt 0.507357 0.344240
vt 0.494830 0.315784
vt 0.507357 0.315784
vt 0.507357 0.116716
vt 0.494830 0.088480
vt 0.507357 0.088480
vt 0.517136 0.004110
vt 0.532565 0.020771
vt 0.517136 0.020771
vt 0.507357 0.059955
vt 0.494830 0.031939
vt 0.507357 0.031939
vt 0.507357 0.287155
vt 0.494830 0.258919
vt 0.507357 0.258919
vt 0.517136 0.057719
vt 0.532565 0.074168
vt 0.517136 0.074168
vt 0.638821 0.473778
vt 0.638821 0.450373
vt 0.756065 0.473778
vt 0.743975 0.450373
vt 0.756065 0.450373
vt 0.719595 0.473778
vt 0.703799 0.450373
vt 0.719595 0.450373
vt 0.494830 0.287155
vt 0.494830 0.116716
vt 0.507357 0.003361
vt 0.494830 0.003361
vt 0.494830 0.230394
vt 0.517136 0.110984
vt 0.532565 0.127221
vt 0.517136 0.127221
vt 0.532565 0.217712
vt 0.532565 0.324096
vt 0.532565 0.110984
vt 0.517136 0.164103
vt 0.517136 0.270977
vt 0.532565 0.057719
vt 0.489613 0.131072
vt 0.829839 0.948499
vt 0.844705 0.974433
vt 0.818216 0.955939
vt 0.829839 0.935019
vt 0.912270 0.918134
vt 0.912270 0.935361
vt 0.897404 0.909427
vt 0.923894 0.956377
vt 0.909606 0.981126
vt 0.897350 0.974683
vt 0.909657 0.983020
vt 0.897404 0.976677
vt 0.923894 0.958183
vt 0.912270 0.937263
vt 0.912270 0.950743
vt 0.923894 0.929727
vt 0.897351 0.911421
vt 0.909606 0.904978
vt 0.856818 0.891058
vt 0.885343 0.890970
vt 0.885975 0.904853
vt 0.885292 0.997290
vt 0.885921 0.983402
vt 0.818216 0.927483
vt 0.844759 0.909178
vt 0.856189 0.904945
vt 0.856135 0.983495
vt 0.818216 0.930165
vt 0.832453 0.905328
vt 0.844706 0.911671
vt 0.856767 0.997378
vt 0.832504 0.983370
vt 0.844759 0.976927
vt 0.829840 0.937605
vt 0.818216 0.958621
vt 0.829840 0.951085
vt 0.885292 0.888814
vt 0.885921 0.902702
vt 0.856135 0.902609
vt 0.856766 0.888726
vt 0.832504 0.902734
vt 0.856189 0.981159
vt 0.832453 0.980776
vt 0.885974 0.981251
vt 0.856818 0.995046
vt 0.885343 0.995134
vt 0.909657 0.903084
vt 0.912270 0.948841
vt 0.923894 0.927921
vt 0.663201 0.450373
vt 0.663201 0.473778
vt 0.678997 0.473778
vt 0.743975 0.473778
vt 0.558039 0.473778
vt 0.678997 0.450373
vt 0.703799 0.473778
vt 0.803807 0.450373
vt 0.803807 0.473778
vt 0.797685 0.776800
vt 0.962003 0.927786
vt 0.995228 0.973785
vt 0.865200 0.505469
vt 0.864095 0.242086
vt 0.725195 0.419186
vt 0.913902 0.509248
vt 0.902576 0.502709
vt 0.895483 0.490423
vt 0.902746 0.465036
vt 0.914112 0.458521
vt 0.928510 0.458521
vt 0.946929 0.477346
vt 0.946889 0.490400
vt 0.939666 0.502733
vt 0.679605 0.778412
vt 0.626731 0.473778
vt 0.494830 0.173801
vt 0.494830 0.344240
vt 0.532565 0.004110
vt 0.494830 0.059955
vt 0.517136 0.324096
vt 0.558039 0.450373
vt 0.929180 0.609372
vt 0.990595 0.621480
vt 0.929180 0.621480
vt 0.929181 0.745772
vt 0.990595 0.757879
vt 0.929181 0.757879
vt 0.929181 0.718492
vt 0.990595 0.730599
vt 0.929181 0.730599
vt 0.929181 0.691212
vt 0.990595 0.703319
vt 0.929181 0.703319
vt 0.929181 0.676040
vt 0.990595 0.663932
vt 0.990595 0.676040
vt 0.929180 0.648760
vt 0.990595 0.636652
vt 0.990595 0.648760
vt 0.961280 0.946844
vt 0.928054 0.922682
vt 0.961280 0.922682
vt 0.961280 0.830683
vt 0.928054 0.854844
vt 0.928054 0.830683
vt 0.961280 0.900844
vt 0.928054 0.876682
vt 0.961280 0.876682
vt 0.908920 0.552420
vt 0.991114 0.582047
vt 0.908920 0.582047
vt 0.908920 0.589947
vt 0.582489 0.317517
vt 0.562160 0.244308
vt 0.582489 0.244308
vt 0.716648 0.317517
vt 0.696319 0.244308
vt 0.716648 0.244308
vt 0.671754 0.317517
vt 0.651774 0.244308
vt 0.671754 0.244308
vt 0.627253 0.317517
vt 0.607098 0.244308
vt 0.627253 0.244308
vt 0.805912 0.317517
vt 0.785932 0.244308
vt 0.805912 0.244308
vt 0.761412 0.317517
vt 0.741257 0.244308
vt 0.761411 0.244308
vt 0.608687 0.822261
vt 0.616587 0.851888
vt 0.608687 0.851888
vt 0.592237 0.963953
vt 0.628612 0.993580
vt 0.592237 0.993580
vt 0.652963 0.889415
vt 0.616587 0.859788
vt 0.652963 0.859788
vt 0.628612 0.918525
vt 0.592237 0.926426
vt 0.592237 0.918525
vt 0.616587 0.897316
vt 0.652963 0.897316
vt 0.803807 0.426967
vt 0.678997 0.426967
vt 0.578989 0.426967
vt 0.719595 0.426967
vt 0.743975 0.426967
vt 0.562160 0.317517
vt 0.537595 0.244308
vt 0.785932 0.317517
vt 0.741257 0.317517
vt 0.696319 0.317517
vt 0.651774 0.317517
vt 0.607098 0.317517
vt 0.695109 0.917171
vt 0.675457 0.894803
vt 0.700162 0.894726
vt 0.649450 0.981720
vt 0.637244 0.960729
vt 0.659301 0.953721
vt 0.680403 0.974121
vt 0.700055 0.996489
vt 0.675350 0.996566
vt 0.726062 0.909572
vt 0.708967 0.925115
vt 0.882102 0.885206
vt 0.836291 0.810139
vt 0.903840 0.799880
vt 0.663201 0.426967
vt 0.928054 0.784683
vt 0.961280 0.762844
vt 0.961280 0.784683
vt 0.928054 0.968682
vt 0.961280 0.968682
vt 0.961280 0.854844
vt 0.961280 0.808844
vt 0.928054 0.808844
vt 0.830149 0.564803
vt 0.835887 0.574741
vt 0.814149 0.566716
vt 0.826230 0.587641
vt 0.814149 0.544878
vt 0.929181 0.663932
vt 0.990595 0.594200
vt 0.929180 0.594200
vt 0.929180 0.636652
vt 0.628612 0.956053
vt 0.628612 0.963953
vt 0.652963 0.851888
vt 0.628612 0.926426
vt 0.616587 0.822261
vt 0.660863 0.822261
vt 0.652963 0.822261
vt 0.991114 0.544519
vt 0.991114 0.552420
vt 0.908920 0.514892
vt 0.991114 0.514892
vt 0.901020 0.544519
vt 0.908920 0.544519
vt 0.680462 0.917217
vt 0.666605 0.925217
vt 0.695049 0.974075
vt 0.708907 0.966075
vt 0.649557 0.909756
vt 0.659301 0.937777
vt 0.738268 0.930563
vt 0.716210 0.937571
vt 0.637244 0.930930
vt 0.738268 0.960362
vt 0.716210 0.953515
vt 0.725955 0.981536
vt 0.666545 0.966177
vt 0.830149 0.546791
vt 0.845142 0.513034
vt 0.835887 0.536853
vt 0.826230 0.523953
vt 0.888216 0.523953
vt 0.878559 0.536853
vt 0.862960 0.527848
vt 0.845142 0.598560
vt 0.851485 0.583746
vt 0.851485 0.527848
vt 0.869304 0.598560
vt 0.869304 0.513034
vt 0.862960 0.583746
vt 0.900297 0.566716
vt 0.888216 0.587641
vt 0.878559 0.574741
vt 0.900297 0.544878
vt 0.884296 0.546791
vt 0.884296 0.564803
vt 0.584336 0.963953
vt 0.584336 0.993580
vt 0.703799 0.426967
vt 0.756065 0.426967
vt 0.626731 0.426967
vt 0.638821 0.426967
vt 0.990595 0.609372
vt 0.990595 0.745772
vt 0.990595 0.718492
vt 0.990595 0.691212
vt 0.928054 0.946844
vt 0.928054 0.900844
vt 0.991114 0.589947
vt 0.616587 0.889415
vt 0.558039 0.426967
vt 0.537595 0.317517
vt 0.921617 0.817656
vt 0.921617 0.874948
vt 0.911358 0.885206
vt 0.864589 0.877952
vt 0.843545 0.856907
vt 0.836291 0.839395
vt 0.846549 0.799880
vt 0.928054 0.762844
vt 0.592237 0.956053
vt 0.660863 0.851888
vt 0.901020 0.514892
vt 0.694918 0.553132
vt 0.687018 0.523505
vt 0.694918 0.523505
vt 0.694918 0.561032
vt 0.813426 0.590659
vt 0.694918 0.590659
vt 0.813426 0.553132
vt 0.813426 0.523505
vt 0.694918 0.598560
vt 0.813426 0.561032
vt 0.687018 0.501767
vt 0.785346 0.497342
vt 0.785346 0.501767
vt 0.785346 0.518358
vt 0.687018 0.522782
vt 0.687018 0.518358
vt 0.687018 0.480751
vt 0.785346 0.480751
vt 0.583686 0.914547
vt 0.598318 0.898963
vt 0.603200 0.901804
vt 0.574761 0.816516
vt 0.555477 0.907992
vt 0.555471 0.816517
vt 0.579910 0.907991
vt 0.579904 0.816516
vt 0.599193 0.816516
vt 0.687018 0.553132
vt 0.813426 0.598560
vt 0.687018 0.497342
vt 0.785346 0.522782
vt 0.574767 0.907991
vt 0.603987 0.816560
vt 0.703212 0.935314
vt 0.692293 0.968139
vt 0.669325 0.942270
vt 0.745623 0.945876
vt 0.816728 0.954138
vt 0.745623 0.954138
vt 0.745623 0.903415
vt 0.816728 0.911677
vt 0.745623 0.911677
vt 0.745623 0.890447
vt 0.816728 0.882185
vt 0.816728 0.890447
vt 0.745623 0.924646
vt 0.816728 0.932908
vt 0.745623 0.932908
vt 0.745623 0.967107
vt 0.816728 0.975368
vt 0.745623 0.975369
vt 0.611886 0.352316
vt 0.599433 0.416633
vt 0.599433 0.352316
vt 0.559724 0.352316
vt 0.547170 0.416633
vt 0.547170 0.352316
vt 0.664198 0.352316
vt 0.651846 0.416633
vt 0.651846 0.352316
vt 0.533454 0.352316
vt 0.521001 0.416633
vt 0.521001 0.352316
vt 0.638155 0.352316
vt 0.625601 0.416633
vt 0.625601 0.352316
vt 0.994395 0.872300
vt 0.962003 0.858007
vt 0.994395 0.858007
vt 0.994395 0.817689
vt 0.962003 0.803291
vt 0.994395 0.803291
vt 0.994395 0.790191
vt 0.962003 0.775898
vt 0.994395 0.775898
vt 0.994395 0.899799
vt 0.962003 0.885401
vt 0.994395 0.885401
vt 0.796537 0.803056
vt 0.780657 0.789351
vt 0.799488 0.789292
vt 0.994395 0.912876
vt 0.962003 0.927063
vt 0.962003 0.912876
vt 0.533454 0.416633
vt 0.638155 0.416633
vt 0.585766 0.352316
vt 0.585766 0.416633
vt 0.573415 0.416633
vt 0.573415 0.352316
vt 0.507335 0.352316
vt 0.611886 0.416633
vt 0.745623 0.988337
vt 0.816728 0.869216
vt 0.745623 0.882185
vt 0.745623 0.869216
vt 0.816728 0.996599
vt 0.745623 0.996599
vt 0.962003 0.830767
vt 0.994395 0.830767
vt 0.994395 0.762844
vt 0.962003 0.872300
vt 0.962003 0.790191
vt 0.962003 0.899799
vt 0.962003 0.844954
vt 0.773368 0.808991
vt 0.762840 0.799637
vt 0.783579 0.803096
vt 0.817305 0.799505
vt 0.806748 0.808909
vt 0.799412 0.862455
vt 0.796489 0.848710
vt 0.806700 0.842815
vt 0.766902 0.820111
vt 0.762763 0.852300
vt 0.753450 0.836284
vt 0.766902 0.831859
vt 0.813167 0.819946
vt 0.753450 0.815785
vt 0.826619 0.836021
vt 0.826619 0.815521
vt 0.813167 0.831695
vt 0.817229 0.852168
vt 0.773320 0.842897
vt 0.780580 0.862513
vt 0.783531 0.848750
vt 0.673341 0.935314
vt 0.684260 0.929010
vt 0.692293 0.929010
vt 0.707228 0.942270
vt 0.707228 0.954879
vt 0.703212 0.961835
vt 0.684260 0.968139
vt 0.673341 0.961835
vt 0.669325 0.954879
vt 0.816728 0.945876
vt 0.816728 0.903415
vt 0.816728 0.924646
vt 0.816728 0.967107
vt 0.559724 0.416633
vt 0.664198 0.416633
vt 0.962003 0.817689
vt 0.994395 0.927063
vt 0.507335 0.416633
vt 0.816728 0.988337
vt 0.962003 0.762844
vt 0.994395 0.844954
vn 0.6957 0.7140 0.0795
vn -0.7174 0.6963 0.0238
vn -0.7173 0.6963 0.0238
vn -0.0383 -0.0736 0.9966
vn -0.6957 -0.7140 -0.0795
vn 0.0383 0.0736 -0.9966
vn -0.3965 0.9165 0.0524
vn 0.3682 0.9261 0.0825
vn -0.9172 -0.3932 -0.0643
vn -0.9290 0.3701 -0.0084
vn -0.9172 -0.3931 -0.0643
vn 0.0384 0.0736 -0.9966
vn 0.3682 0.9261 0.0826
vn -0.0010 0.0430 -0.9991
vn 0.7527 -0.6580 -0.0220
vn -0.6577 -0.7494 -0.0757
vn -0.6576 -0.7532 0.0124
vn 0.0668 -0.9968 -0.0430
vn 0.5567 -0.8299 -0.0363
vn 0.0668 -0.9968 -0.0429
vn -0.4411 -0.8967 -0.0381
vn -0.8307 -0.5562 -0.0231
vn 0.0110 -0.0598 0.9981
vn 0.0120 -0.0616 0.9980
vn 0.0015 -0.0425 0.9991
vn -0.0002 0.0416 -0.9991
vn -0.0003 0.0417 -0.9991
vn -0.6583 -0.7521 -0.0317
vn 0.0192 -0.9989 -0.0430
vn 0.7527 -0.6577 -0.0291
vn 0.6583 0.7521 0.0317
vn 0.0010 -0.0430 0.9991
vn -0.7527 0.6577 0.0291
vn 0.7527 -0.6574 -0.0362
vn -0.7527 0.6580 0.0220
vn -0.7527 0.6574 0.0362
vn -0.0001 -0.0451 0.9990
vn -0.0002 -0.0449 0.9990
vn -0.0003 -0.0445 0.9990
vn -0.0020 0.0405 -0.9992
vn -0.0022 0.0409 -0.9992
vn 0.1942 -0.1290 -0.9724
vn 0.5327 -0.4357 -0.7256
vn 0.5326 -0.4357 -0.7256
vn -0.5343 0.4966 -0.6840
vn -0.1977 0.2134 -0.9568
vn -0.7272 0.6463 -0.2310
vn -0.7272 0.6246 0.2847
vn 0.7272 -0.6246 -0.2847
vn 0.7273 -0.6463 0.2310
vn -0.7273 0.6463 -0.2310
vn 0.5344 -0.4966 0.6840
vn 0.1977 -0.2134 0.9568
vn 0.7272 -0.6463 0.2310
vn -0.1943 0.1290 0.9724
vn -0.5327 0.4357 0.7256
vn -0.5344 0.4966 -0.6840
vn 0.5343 -0.4966 0.6840
vn 0.1976 -0.2134 0.9568
vn 0.9978 0.0667 0.0019
vn -0.9978 -0.0667 -0.0019
vn -0.9978 -0.0668 -0.0019
vn -0.6098 0.7918 0.0347
vn -0.2601 0.9647 0.0418
vn -0.1942 0.1290 0.9724
vn -0.5326 0.4357 0.7256
vn 0.6583 0.7521 0.0316
vn -0.6565 -0.7538 -0.0295
vn -0.6566 -0.7537 -0.0292
vn -0.6559 -0.7542 -0.0308
vn -0.6558 -0.7542 -0.0324
vn -0.6558 -0.7543 -0.0311
vn -0.6559 -0.7541 -0.0328
vn -0.6566 -0.7534 -0.0344
vn -0.6565 -0.7536 -0.0340
vn -0.6589 -0.7515 -0.0349
vn -0.6578 -0.7524 -0.0349
vn -0.6575 -0.7526 -0.0350
vn -0.6578 -0.7527 -0.0285
vn -0.6575 -0.7529 -0.0285
vn -0.6592 -0.7512 -0.0349
vn -0.6591 -0.7515 -0.0285
vn -0.6607 -0.7499 -0.0326
vn -0.6602 -0.7504 -0.0339
vn -0.6600 -0.7505 -0.0342
vn -0.6589 -0.7517 -0.0285
vn -0.6601 -0.7506 -0.0294
vn -0.6600 -0.7507 -0.0291
vn -0.6608 -0.7498 -0.0323
vn -0.6607 -0.7500 -0.0306
vn -0.6609 -0.7499 -0.0310
vn 0.4988 0.8659 0.0368
vn 0.1292 0.9907 0.0425
vn 0.0488 -0.1281 0.9906
vn 0.0026 0.0365 -0.9993
vn 0.6583 0.7521 0.0309
vn 0.7527 -0.6574 -0.0361
vn -0.0000 -0.0455 0.9990
vn -0.0020 0.0407 -0.9992
vn -0.0023 0.0415 -0.9991
vn -0.0021 0.0407 -0.9992
vn -0.4411 -0.8967 -0.0382
vn -0.8975 0.4406 0.0199
vn -0.0668 0.9968 0.0430
vn -0.5567 0.8299 0.0363
vn 0.8307 0.5562 0.0231
vn 0.4411 0.8967 0.0381
vn 0.9978 0.0668 0.0019
vn 0.8975 -0.4406 -0.0199
vn 0.4411 0.8967 0.0382
vn 0.3755 -0.2916 -0.8798
vn -0.6524 0.5911 -0.4743
vn -0.6524 0.5911 -0.4744
vn 0.6583 0.7521 0.0318
vn -0.3755 0.2916 0.8798
vn 0.6524 -0.5911 0.4743
vn 0.6524 -0.5911 0.4744
vn 0.6524 -0.5910 0.4744
vn 0.4326 -0.4124 0.8017
vn -0.4326 0.4125 -0.8017
vn 0.6160 -0.5141 -0.5968
vn 0.6160 -0.5141 -0.5969
vn -0.6160 0.5141 0.5969
vn -0.6160 0.5141 0.5968
vn -0.6524 0.5910 -0.4744
vn 0.6523 -0.5910 0.4745
vn -0.3755 0.2916 0.8797
vn 0.6584 0.7520 0.0316
vn 0.6525 -0.5911 0.4742
vn -0.6525 0.5912 -0.4740
vn 0.3755 -0.2916 -0.8797
vn -0.6521 0.5908 -0.4751
vn -0.0667 0.9968 0.0430
vn 0.6558 0.7543 0.0327
vn 0.6557 0.7544 0.0309
vn 0.6564 0.7539 0.0293
vn 0.6564 0.7538 0.0293
vn 0.6557 0.7544 0.0308
vn 0.6565 0.7536 0.0343
vn 0.6564 0.7536 0.0342
vn 0.6609 0.7498 0.0325
vn 0.6602 0.7503 0.0341
vn 0.6577 0.7528 0.0283
vn 0.6602 0.7506 0.0291
vn 0.6590 0.7516 0.0284
vn 0.6590 0.7516 0.0283
vn 0.6577 0.7525 0.0351
vn 0.6576 0.7528 0.0284
vn 0.6590 0.7513 0.0351
vn 0.6576 0.7525 0.0351
vn 0.6602 0.7503 0.0342
vn 0.6602 0.7505 0.0291
vn 0.6609 0.7499 0.0307
vn -0.0011 0.0430 -0.9991
vn -0.0010 0.0431 -0.9991
usemtl SpacialRoverExploreralumWhite
f 13/1/1 2/2/1 4/3/1
f 12/4/2 15/5/2 19/6/3
f 25/7/1 6/8/1 8/9/1
f 24/10/2 27/11/3 31/12/2
f 20/13/4 15/14/4 16/15/4
f 7/16/5 28/17/5 21/18/5
f 32/19/4 27/20/4 28/21/4
f 24/22/6 25/23/6 7/24/6
f 12/25/6 13/26/6 3/27/6
f 19/6/7 14/28/7 12/4/7
f 20/29/8 13/1/8 14/28/8
f 16/30/9 11/31/9 9/32/9
f 17/33/10 10/34/10 11/31/10
f 31/12/7 26/35/7 24/10/7
f 32/36/8 25/7/8 26/35/8
f 28/17/11 23/37/11 21/18/11
f 29/38/10 22/39/10 23/37/10
f 3/40/5 16/30/5 9/32/5
f 13/1/1 18/41/1 2/2/1
f 12/4/2 10/34/2 15/5/2
f 25/7/1 30/42/1 6/8/1
f 24/10/2 22/39/3 27/11/3
f 16/15/4 1/43/4 2/44/4
f 2/44/4 18/45/4 20/13/4
f 20/13/4 19/46/4 15/14/4
f 15/14/4 17/47/4 16/15/4
f 16/15/4 2/44/4 20/13/4
f 7/16/5 5/48/5 28/17/5
f 28/21/4 5/49/4 6/50/4
f 6/50/4 30/51/4 32/19/4
f 32/19/4 31/52/4 27/20/4
f 27/20/4 29/53/4 28/21/4
f 28/21/4 6/50/4 32/19/4
f 7/24/6 21/54/12 23/55/6
f 23/55/6 22/56/6 24/22/6
f 24/22/6 26/57/6 25/23/6
f 25/23/6 8/58/6 7/24/6
f 7/24/6 23/55/6 24/22/6
f 3/27/6 9/59/6 11/60/6
f 11/60/6 10/61/6 12/25/6
f 12/25/6 14/62/6 13/26/6
f 13/26/6 4/63/6 3/27/6
f 3/27/6 11/60/6 12/25/6
f 19/6/7 20/29/7 14/28/7
f 20/29/8 18/41/8 13/1/8
f 16/30/9 17/33/11 11/31/9
f 17/33/10 15/5/10 10/34/10
f 31/12/7 32/36/7 26/35/7
f 32/36/8 30/42/13 25/7/8
f 28/17/11 29/38/11 23/37/11
f 29/38/10 27/11/10 22/39/10
f 3/40/5 1/64/5 16/30/5
f 63/65/14 35/66/14 68/67/14
f 66/68/15 34/69/15 37/70/15
f 40/71/16 36/72/16 38/73/16
f 39/74/17 34/75/17 33/76/17
f 173/77/18 183/78/19 186/79/20
f 174/80/21 188/81/22 175/82/22
f 43/83/23 49/84/24 48/85/25
f 50/86/26 46/87/27 42/88/14
f 42/88/28 43/89/28 41/90/28
f 44/91/29 46/92/29 45/93/29
f 50/94/30 44/95/30 45/96/30
f 48/85/31 50/94/31 47/97/31
f 34/69/32 69/98/32 33/99/32
f 299/100/31 303/101/31 307/102/31
f 42/88/33 48/85/33 47/97/33
f 64/103/34 36/72/34 63/65/34
f 67/104/35 35/105/35 40/106/35
f 33/99/36 70/107/36 39/108/36
f 64/103/37 40/106/38 38/109/39
f 66/68/40 39/74/41 70/110/40
f 347/111/30 74/112/30 345/113/30
f 242/114/42 220/115/43 231/116/43
f 249/117/44 264/118/42 259/119/44
f 254/120/45 265/121/46 251/122/46
f 253/123/47 262/124/48 257/125/47
f 232/126/49 230/127/50 237/128/50
f 240/129/48 224/130/51 235/131/51
f 238/132/52 228/133/53 233/134/53
f 250/135/49 267/136/54 247/137/54
f 234/138/55 226/139/56 239/140/56
f 236/141/57 222/142/46 241/143/46
f 248/144/58 261/145/53 245/146/59
f 132/147/60 347/111/60 346/148/60
f 134/149/61 349/150/62 348/151/62
f 138/152/63 353/153/64 352/154/63
f 186/79/20 174/80/21 173/77/18
f 220/115/43 232/126/49 231/116/43
f 228/133/53 234/138/55 233/134/53
f 235/131/51 223/155/57 236/141/57
f 238/132/52 230/127/50 229/156/52
f 240/157/48 226/139/56 225/158/48
f 242/114/42 222/142/46 221/159/42
f 246/160/65 263/161/66 243/162/66
f 254/120/45 257/125/47 256/163/57
f 258/164/49 249/117/44 259/119/44
f 260/165/65 245/146/59 261/145/53
f 263/161/66 244/166/48 243/162/66
f 265/121/46 252/167/42 251/122/46
f 247/137/54 266/168/52 248/144/58
f 230/127/31 255/169/31 229/156/31
f 247/170/31 248/171/31 224/172/31
f 250/173/31 247/170/31 224/172/31
f 255/174/31 253/175/31 254/176/31
f 219/177/31 220/178/31 243/179/67
f 325/180/68 342/181/69 324/182/70
f 334/183/71 324/182/70 343/184/72
f 329/185/73 334/183/71 335/186/74
f 324/182/70 334/183/71 329/185/73
f 328/187/75 329/185/73 335/186/74
f 322/188/76 323/189/77 340/190/78
f 335/186/74 340/190/78 328/187/75
f 330/191/79 337/192/80 325/180/68
f 250/173/31 225/193/31 249/194/31
f 342/181/69 343/184/72 324/182/70
f 341/195/81 322/188/76 340/190/78
f 336/196/82 337/192/80 330/191/79
f 326/197/83 327/198/84 332/199/85
f 336/196/82 330/191/79 331/200/86
f 327/198/84 322/188/76 341/195/81
f 336/196/82 331/200/86 320/201/87
f 327/198/84 341/195/81 332/199/85
f 339/202/88 336/196/82 320/201/87
f 333/203/89 326/197/83 332/199/85
f 320/201/87 321/204/90 339/202/88
f 340/190/78 323/189/77 328/187/75
f 337/192/80 342/181/69 325/180/68
f 326/197/83 333/203/89 338/205/91
f 326/197/83 338/205/91 321/204/90
f 321/204/90 338/205/91 339/202/88
f 228/206/31 251/207/31 252/208/31
f 227/209/31 252/208/31 226/210/31
f 248/171/31 245/211/31 223/212/31
f 248/171/31 223/212/31 224/172/31
f 227/209/31 228/206/31 252/208/31
f 246/213/31 222/214/31 245/211/31
f 252/208/31 249/194/31 226/210/31
f 246/213/31 221/215/31 222/214/31
f 229/216/31 251/207/31 228/206/31
f 246/213/31 220/178/31 221/215/31
f 229/216/31 254/176/31 251/207/31
f 243/179/67 220/178/31 246/213/31
f 229/216/31 255/174/31 254/176/31
f 244/217/31 219/177/31 243/179/67
f 225/193/31 226/210/31 249/194/31
f 245/211/31 222/214/31 223/212/31
f 230/218/31 253/175/31 255/174/31
f 230/218/31 244/217/31 253/175/31
f 230/218/31 219/177/31 244/217/31
f 250/173/31 224/172/31 225/193/31
f 132/147/31 350/219/92 135/220/92
f 350/219/92 136/221/93 135/220/92
f 133/222/33 352/154/63 349/150/33
f 73/223/20 345/113/20 74/112/20
f 351/224/93 137/225/64 136/221/93
f 134/149/28 344/226/28 73/227/28
f 63/65/14 36/72/14 35/66/14
f 66/68/15 65/228/15 34/69/15
f 40/71/16 35/66/16 36/72/16
f 39/74/17 37/70/17 34/75/17
f 173/77/18 172/229/19 183/78/19
f 174/80/21 185/230/21 188/81/22
f 48/85/25 41/90/25 43/83/23
f 43/83/23 44/231/94 49/84/24
f 42/88/14 47/97/14 50/86/26
f 50/86/26 45/232/95 46/87/27
f 42/88/28 46/92/28 43/89/28
f 44/91/29 43/89/29 46/92/29
f 50/94/30 49/233/30 44/95/30
f 48/85/31 49/233/31 50/94/31
f 34/69/32 65/228/32 69/98/32
f 307/102/31 296/234/31 297/235/31
f 297/235/31 298/236/96 299/100/31
f 299/100/31 300/237/31 301/238/31
f 301/238/31 302/239/31 303/101/31
f 303/101/31 304/240/31 305/241/31
f 305/241/31 306/242/31 307/102/31
f 307/102/31 297/235/31 299/100/31
f 299/100/31 301/238/31 303/101/31
f 303/101/31 305/241/31 307/102/31
f 42/88/33 41/90/33 48/85/33
f 64/103/97 38/109/97 36/72/97
f 67/104/35 68/243/35 35/105/35
f 33/99/36 69/98/36 70/107/36
f 64/103/37 67/104/98 40/106/38
f 66/68/99 37/70/100 39/74/101
f 347/111/30 131/244/30 74/112/30
f 242/114/42 221/159/42 220/115/43
f 249/117/44 252/167/42 264/118/42
f 254/120/45 256/163/57 265/121/46
f 253/123/47 244/166/48 262/124/48
f 232/126/49 219/245/49 230/127/50
f 240/129/48 225/246/48 224/130/51
f 238/132/52 229/156/52 228/133/53
f 250/135/49 258/247/49 267/136/54
f 234/138/55 227/248/55 226/139/56
f 236/141/57 223/155/57 222/142/46
f 248/144/58 266/168/52 261/145/53
f 132/147/60 131/244/60 347/111/60
f 134/149/61 133/222/61 349/150/62
f 138/152/63 137/225/64 353/153/64
f 186/79/20 185/230/21 174/80/21
f 220/115/43 219/245/49 232/126/49
f 228/133/53 227/248/55 234/138/55
f 235/131/51 224/130/51 223/155/57
f 238/132/52 237/128/50 230/127/50
f 240/157/48 239/140/56 226/139/56
f 242/114/42 241/143/46 222/142/46
f 246/160/65 260/165/65 263/161/66
f 254/120/45 253/123/47 257/125/47
f 258/164/49 250/249/49 249/117/44
f 260/165/65 246/160/65 245/146/59
f 263/161/66 262/124/48 244/166/48
f 265/121/46 264/118/42 252/167/42
f 247/137/54 267/136/54 266/168/52
f 132/147/31 346/148/31 350/219/92
f 350/219/92 351/224/93 136/221/93
f 133/222/33 138/152/63 352/154/63
f 73/223/18 344/250/18 345/113/18
f 351/224/93 353/153/64 137/225/64
f 134/149/28 348/151/28 344/226/28
usemtl SpacialRoverExploreralumGray
f 200/251/22 210/252/102 197/253/21
f 202/254/103 212/255/61 199/256/61
f 204/257/104 214/258/105 201/259/105
f 206/260/106 216/261/107 203/262/107
f 205/263/108 207/264/109 218/265/60
f 195/266/19 209/267/18 208/268/19
f 176/269/62 190/270/103 177/271/103
f 181/272/106 191/273/110 194/274/106
f 178/275/105 192/276/104 179/277/104
f 285/278/111 53/279/111 284/280/111
f 53/279/112 286/281/113 284/280/113
f 93/282/50 95/283/49 106/284/50
f 87/285/51 101/286/48 100/287/47
f 89/288/56 103/289/65 102/290/56
f 91/291/53 105/292/52 104/293/53
f 83/294/43 97/295/42 96/296/43
f 85/297/46 99/298/57 98/299/46
f 57/300/114 56/301/31 58/302/31
f 271/303/115 61/304/115 268/305/115
f 275/306/111 58/307/111 272/308/111
f 61/309/116 273/310/116 268/311/117
f 55/312/112 275/306/112 270/313/113
f 348/151/28 81/314/28 344/226/28
f 139/315/93 353/153/64 351/224/93
f 344/250/18 82/316/18 345/113/18
f 349/150/33 141/317/63 146/318/33
f 84/319/49 96/320/43 95/283/49
f 98/299/46 86/321/42 85/297/46
f 100/287/47 88/322/45 87/285/51
f 102/290/56 90/323/48 89/288/56
f 104/293/53 92/324/65 91/291/53
f 106/284/50 94/325/52 93/282/50
f 114/326/31 100/327/31 101/328/31
f 96/329/31 97/330/31 110/331/31
f 108/332/31 106/333/31 95/334/31
f 102/335/31 113/336/31 101/328/31
f 141/337/14 143/338/14 82/339/14
f 140/340/92 351/224/93 350/219/92
f 346/148/31 140/340/92 350/219/92
f 184/341/109 172/342/19 171/343/109
f 188/344/22 176/269/62 175/345/22
f 190/270/103 178/275/105 177/271/103
f 192/276/104 180/346/107 179/277/104
f 194/274/106 182/347/60 181/272/106
f 171/343/109 193/348/60 184/341/109
f 154/349/14 151/350/14 177/351/14
f 151/350/14 176/352/14 177/351/14
f 178/353/14 154/349/14 177/351/14
f 214/258/105 202/254/103 201/259/105
f 208/268/19 196/354/109 195/266/19
f 212/355/61 200/251/22 199/356/61
f 216/261/107 204/257/104 203/262/107
f 218/265/60 206/260/106 205/263/108
f 197/253/21 209/267/18 198/357/18
f 271/303/113 60/358/113 62/359/113
f 269/360/118 58/307/116 56/301/116
f 60/358/111 273/310/111 59/361/111
f 55/362/115 269/360/115 56/301/115
f 275/363/28 269/360/28 270/364/28
f 285/278/117 52/365/116 54/366/116
f 52/365/115 286/367/115 51/368/115
f 285/369/31 286/367/31 287/370/31
f 111/371/31 112/372/31 100/327/31
f 106/333/31 117/373/31 118/374/31
f 99/375/31 112/372/31 109/376/31
f 102/335/31 103/377/31 116/378/31
f 113/336/31 102/335/31 116/378/31
f 98/379/31 99/375/31 109/376/31
f 104/380/31 116/378/31 103/377/31
f 109/376/31 110/331/31 98/379/31
f 104/380/31 115/381/31 116/378/31
f 104/380/31 105/382/31 115/381/31
f 107/383/31 96/329/31 110/331/31
f 95/334/31 96/329/31 107/383/31
f 112/372/31 99/375/31 100/327/31
f 105/382/31 106/333/31 118/374/31
f 108/332/31 95/334/31 107/383/31
f 110/331/31 97/330/31 98/379/31
f 105/382/31 118/374/31 115/381/31
f 106/333/31 108/332/31 117/373/31
f 113/336/31 114/326/31 101/328/31
f 100/327/31 114/326/31 111/371/31
f 154/349/14 178/353/14 153/384/14
f 180/385/14 156/386/14 179/387/14
f 182/388/14 157/389/14 158/390/14
f 151/350/14 175/391/14 176/352/14
f 175/391/14 151/350/14 152/392/14
f 155/393/14 156/386/14 180/385/14
f 174/394/14 175/391/14 152/392/14
f 181/395/14 158/390/14 180/385/14
f 174/394/14 152/392/14 149/396/14
f 172/397/14 173/398/14 150/399/14
f 174/394/14 149/396/14 150/399/14
f 181/395/14 182/388/14 158/390/14
f 173/398/14 174/394/14 150/399/14
f 171/400/14 148/401/14 157/389/14
f 147/402/14 172/397/14 150/399/14
f 182/388/14 171/400/14 157/389/14
f 148/401/14 172/397/14 147/402/14
f 178/353/14 179/387/14 153/384/14
f 158/390/14 155/393/14 180/385/14
f 172/397/14 148/401/14 171/400/14
f 156/386/14 153/384/14 179/387/14
f 274/403/114 268/305/31 273/404/31
f 352/154/63 142/405/64 141/317/63
f 348/151/62 146/318/62 145/406/62
f 346/148/60 144/407/108 143/408/108
f 144/407/30 345/113/30 82/316/30
f 200/251/22 211/409/22 210/252/102
f 202/254/103 213/410/103 212/255/61
f 204/257/104 215/411/104 214/258/105
f 206/260/106 217/412/106 216/261/107
f 205/263/108 196/354/109 207/264/109
f 195/266/19 198/357/18 209/267/18
f 176/269/62 187/413/62 190/270/103
f 181/272/106 180/346/107 191/273/110
f 178/275/105 189/414/105 192/276/104
f 285/278/111 54/366/111 53/279/111
f 53/279/112 51/415/112 286/281/113
f 93/282/50 84/319/49 95/283/49
f 87/285/51 90/323/48 101/286/48
f 89/288/56 92/324/65 103/289/65
f 91/291/53 94/325/52 105/292/52
f 83/294/43 86/321/42 97/295/42
f 85/297/46 88/322/45 99/298/57
f 57/300/114 55/362/114 56/301/31
f 271/303/115 62/359/115 61/304/115
f 275/306/111 57/416/111 58/307/111
f 61/309/116 59/361/116 273/310/116
f 55/312/112 57/416/112 275/306/112
f 348/151/28 145/406/28 81/314/28
f 139/315/93 142/405/64 353/153/64
f 344/250/18 81/417/18 82/316/18
f 349/150/33 352/154/63 141/317/63
f 84/319/49 83/418/43 96/320/43
f 98/299/46 97/295/42 86/321/42
f 100/287/47 99/298/57 88/322/45
f 102/290/56 101/286/48 90/323/48
f 104/293/53 103/289/65 92/324/65
f 106/284/50 105/292/52 94/325/52
f 82/339/14 81/419/14 145/420/14
f 145/420/14 146/421/14 141/337/14
f 141/337/14 142/422/14 139/423/14
f 139/423/14 140/424/14 143/338/14
f 143/338/14 144/425/14 82/339/14
f 82/339/14 145/420/14 141/337/14
f 141/337/14 139/423/14 143/338/14
f 140/340/92 139/315/93 351/224/93
f 346/148/31 143/408/31 140/340/92
f 184/341/109 183/426/19 172/342/19
f 188/344/22 187/413/62 176/269/62
f 190/270/103 189/414/105 178/275/105
f 192/276/104 191/273/110 180/346/107
f 194/274/106 193/348/60 182/347/60
f 171/343/109 182/347/60 193/348/60
f 214/258/105 213/410/103 202/254/103
f 208/268/19 207/264/109 196/354/109
f 212/355/61 211/409/22 200/251/22
f 216/261/107 215/411/104 204/257/104
f 218/265/60 217/412/106 206/260/106
f 197/253/21 210/252/102 209/267/18
f 271/303/113 274/427/112 60/358/113
f 269/360/118 272/308/118 58/307/116
f 60/358/111 274/427/111 273/310/111
f 55/362/115 270/364/115 269/360/115
f 275/363/28 272/428/28 269/360/28
f 285/278/117 287/370/117 52/365/116
f 52/365/115 287/370/115 286/367/115
f 285/369/31 284/429/31 286/367/31
f 274/403/114 271/303/114 268/305/31
f 352/154/63 353/153/64 142/405/64
f 348/151/62 349/150/62 146/318/62
f 346/148/60 347/111/60 144/407/108
f 144/407/30 347/111/30 345/113/30
usemtl SpacialRoverExploreralumBlack
f 75/430/31 71/431/31 76/432/31
f 72/433/119 79/434/119 71/435/119
f 78/436/120 76/432/120 77/437/120
f 79/434/121 76/438/122 71/435/122
f 72/433/123 78/436/123 80/439/124
f 278/440/113 282/441/125 279/442/125
f 276/443/126 280/444/117 277/445/117
f 282/441/111 280/446/111 281/447/111
f 277/445/127 279/442/115 276/443/115
f 292/448/31 289/449/128 291/450/128
f 293/451/115 291/452/115 295/453/115
f 290/454/129 293/451/116 294/455/116
f 288/456/113 291/450/130 289/449/125
f 290/454/131 288/456/131 289/449/131
f 75/430/31 72/457/31 71/431/31
f 72/433/119 80/439/119 79/434/119
f 78/436/120 75/430/120 76/432/120
f 79/434/121 77/458/121 76/438/122
f 72/433/123 75/430/123 78/436/123
f 278/440/113 283/459/113 282/441/125
f 276/443/126 281/460/126 280/444/117
f 282/441/111 283/459/111 280/446/111
f 277/445/127 278/440/127 279/442/115
f 292/448/31 290/454/31 289/449/128
f 293/451/115 292/461/115 291/452/115
f 290/454/129 292/461/129 293/451/116
f 288/456/113 295/462/132 291/450/130
f 290/454/111 294/455/111 288/456/111
usemtl SpacialRoverExploreralumOrange
f 160/463/14 164/464/14 168/465/14
f 154/466/103 164/467/61 151/468/61
f 158/469/106 168/470/107 155/471/107
f 157/472/60 159/473/109 170/474/60
f 156/475/133 166/476/105 153/477/105
f 152/478/22 162/479/21 149/480/102
f 112/481/57 130/482/46 109/483/46
f 108/484/49 122/485/50 117/486/54
f 116/487/65 126/488/56 113/489/56
f 118/490/52 124/491/53 115/492/53
f 114/493/48 128/494/47 111/495/51
f 317/496/58 299/497/53 318/498/53
f 309/499/48 307/500/47 310/501/51
f 311/502/57 305/503/46 312/504/46
f 315/505/49 301/506/50 316/507/54
f 315/508/134 128/509/135 125/510/134
f 314/511/43 304/512/42 303/513/43
f 118/490/52 122/485/50 121/514/52
f 114/493/48 126/488/56 125/515/48
f 110/516/42 130/482/46 129/517/42
f 120/518/43 108/484/49 107/519/43
f 124/491/53 116/520/65 115/492/53
f 111/495/51 127/521/57 112/481/57
f 110/516/42 120/518/43 107/519/43
f 162/479/21 150/522/18 149/480/102
f 168/470/107 156/475/133 155/471/107
f 170/474/60 158/469/106 157/472/60
f 166/476/105 154/466/103 153/477/105
f 164/467/61 152/478/22 151/468/61
f 160/523/19 148/524/109 147/525/19
f 150/522/18 160/526/19 147/527/19
f 297/528/56 309/499/48 308/529/56
f 305/503/46 313/530/42 312/504/46
f 316/507/54 300/531/52 317/496/58
f 311/502/57 307/500/47 306/532/57
f 315/505/49 303/513/43 302/533/49
f 298/534/65 318/498/53 299/497/53
f 308/529/56 298/534/65 297/528/56
f 317/535/136 127/536/137 128/509/135
f 128/509/135 315/508/134 316/537/138
f 126/538/139 314/539/140 125/510/134
f 316/537/138 317/535/136 128/509/135
f 122/540/141 310/541/141 311/542/142
f 127/536/137 317/535/136 318/543/143
f 120/544/144 129/545/145 319/546/146
f 314/539/140 126/538/139 313/547/147
f 130/548/148 127/536/137 318/543/143
f 124/549/149 313/547/147 123/550/150
f 318/543/143 319/546/146 130/548/148
f 124/549/149 312/551/149 313/547/147
f 124/549/149 121/552/151 312/551/149
f 308/553/152 120/544/144 319/546/146
f 119/554/153 120/544/144 308/553/152
f 126/538/139 123/550/150 313/547/147
f 121/552/151 122/540/141 311/542/142
f 309/555/153 119/554/153 308/553/152
f 319/546/146 129/545/145 130/548/148
f 121/552/151 311/542/142 312/551/149
f 309/555/153 122/540/141 119/554/153
f 314/539/140 315/508/134 125/510/134
f 122/540/141 309/555/153 310/541/141
f 168/465/14 169/556/154 170/557/14
f 170/557/14 159/558/14 160/463/14
f 160/463/14 161/559/14 162/560/14
f 162/560/14 163/561/154 164/464/14
f 164/464/14 165/562/14 166/563/14
f 166/563/14 167/564/155 168/465/14
f 168/465/14 170/557/14 160/463/14
f 160/463/14 162/560/14 164/464/14
f 164/464/14 166/563/14 168/465/14
f 154/466/103 165/565/103 164/467/61
f 158/469/106 169/566/106 168/470/107
f 157/472/60 148/524/109 159/473/109
f 156/475/133 167/567/104 166/476/105
f 152/478/22 163/568/22 162/479/21
f 112/481/57 127/521/57 130/482/46
f 108/484/49 119/569/49 122/485/50
f 116/487/65 123/570/65 126/488/56
f 118/490/52 121/514/52 124/491/53
f 114/493/48 125/515/48 128/494/47
f 317/496/58 300/531/52 299/497/53
f 309/499/48 296/571/48 307/500/47
f 311/502/57 306/532/57 305/503/46
f 315/505/49 302/533/49 301/506/50
f 314/511/43 313/572/42 304/512/42
f 118/490/52 117/486/54 122/485/50
f 114/493/48 113/489/56 126/488/56
f 110/516/42 109/483/46 130/482/46
f 120/518/43 119/569/49 108/484/49
f 124/491/53 123/573/65 116/520/65
f 111/495/51 128/494/47 127/521/57
f 110/516/42 129/517/42 120/518/43
f 162/479/21 161/574/18 150/522/18
f 168/470/107 167/567/104 156/475/133
f 170/474/60 169/566/106 158/469/106
f 166/476/105 165/565/103 154/466/103
f 164/467/61 163/568/22 152/478/22
f 160/523/19 159/473/109 148/524/109
f 150/522/18 161/574/18 160/526/19
f 297/528/56 296/571/48 309/499/48
f 305/503/46 304/575/42 313/530/42
f 316/507/54 301/506/50 300/531/52
f 311/502/57 310/501/51 307/500/47
f 315/505/49 314/511/43 303/513/43
f 298/534/65 319/576/65 318/498/53
f 308/529/56 319/576/65 298/534/65
