mtllib Satelite.mtl
o SatelitePanel3Soporte
usemtl ACE
v -6.757563 4.423533 526.371855
v -6.757563 4.423533 517.088042
v -6.757563 -4.598684 517.088042
v -6.757563 -4.598684 526.371855
v 9.325546 4.423533 526.371855
v -6.757563 4.423533 526.371855
v -6.757563 -4.598684 526.371855
v 9.325546 -4.598684 526.371855
v 9.325546 4.423533 517.088042
v -6.757563 4.423533 517.088042
v -6.757563 4.423533 526.371855
v 9.325546 4.423533 526.371855
v 9.325546 -4.598684 517.088042
v -6.757563 -4.598684 517.088042
v -6.757563 4.423533 517.088042
v 9.325546 4.423533 517.088042
v 9.325546 -4.598684 526.371855
v -6.757563 -4.598684 526.371855
v -6.757563 -4.598684 517.088042
v 9.325546 -4.598684 517.088042
v 9.325546 -4.598684 517.088042
v 9.325546 4.423533 517.088042
v 9.325546 4.423533 526.371855
v 9.325546 -4.598684 526.371855
v 60.281257 -2.236624 306.494200
v -55.215965 -2.236624 306.494200
v -55.215965 -2.236624 14.983687
v 60.281257 -2.236624 14.983687
v -55.215965 1.456003 14.983687
v -55.215965 1.456003 306.494200
v 60.281257 1.456003 306.494200
v 60.281257 1.456003 14.983687
v -55.215965 -2.236624 306.494200
v -55.215965 2.059275 306.494200
v -55.215965 2.059275 14.983687
v -55.215965 -2.236624 14.983687
v 60.281257 -2.236624 14.983687
v 60.281257 2.059275 14.983687
v 60.281257 2.059275 306.494200
v 60.281257 -2.236624 306.494200
v 60.281257 -2.236624 306.494200
v 60.281257 2.059275 306.494200
v -55.215965 2.059275 306.494200
v -55.215965 -2.236624 306.494200
v -55.215965 -2.236624 14.983687
v -55.215965 2.059275 14.983687
v 60.281257 2.059275 14.983687
v 60.281257 -2.236624 14.983687
v -2.982833 4.254832 140.359343
v 7.666266 4.254832 140.359343
v 7.666266 -0.004690 140.359343
v -2.982833 -0.004690 140.359343
v -2.982833 4.254832 154.071227
v -2.982833 4.254832 140.359343
v -2.982833 -0.004690 140.359343
v -2.982833 -0.004690 154.071227
v 7.666266 4.254832 154.071227
v 7.666266 4.254832 140.359343
v -2.982833 4.254832 140.359343
v -2.982833 4.254832 154.071227
v 7.666266 -0.004690 154.071227
v 7.666266 -0.004690 140.359343
v 7.666266 4.254832 140.359343
v 7.666266 4.254832 154.071227
v -2.982833 -0.004690 154.071227
v -2.982833 -0.004690 140.359343
v 7.666266 -0.004690 140.359343
v 7.666266 -0.004690 154.071227
v 7.666266 -0.004690 154.071227
v 7.666266 4.254832 154.071227
v -2.982833 4.254832 154.071227
v -2.982833 -0.004690 154.071227
v 7.666266 -0.004690 175.675231
v 7.666266 4.254832 175.675231
v -2.982833 4.254832 175.675231
v -2.982833 -0.004690 175.675231
v -2.982833 -0.004690 175.675231
v -2.982833 4.254832 175.675231
v -2.982833 4.254832 161.963347
v -2.982833 -0.004690 161.963347
v -2.982833 4.254832 175.675231
v 7.666266 4.254832 175.675231
v 7.666266 4.254832 161.963347
v -2.982833 4.254832 161.963347
v 7.666266 4.254832 175.675231
v 7.666266 -0.004690 175.675231
v 7.666266 -0.004690 161.963347
v 7.666266 4.254832 161.963347
v 7.666266 -0.004690 175.675231
v -2.982833 -0.004690 175.675231
v -2.982833 -0.004690 161.963347
v 7.666266 -0.004690 161.963347
v -2.982833 4.254832 161.963347
v 7.666266 4.254832 161.963347
v 7.666266 -0.004690 161.963347
v -2.982833 -0.004690 161.963347
v 62.239666 2.545847 309.499755
v 62.239666 2.545847 12.070403
v 57.021610 2.545847 18.332091
v 57.021610 2.545847 303.238066
v -51.514012 2.545847 303.238066
v -51.514012 2.545847 18.332091
v -57.775685 2.545847 12.070403
v -57.775685 2.545847 309.499755
v -57.775685 -2.716848 12.070403
v 62.239666 -2.716848 12.070403
v 57.021610 -2.716848 18.332091
v -51.514012 -2.716848 18.332091
v -51.514012 -2.716848 303.238066
v 57.021610 -2.716848 303.238066
v 62.239666 -2.716848 309.499755
v -57.775685 -2.716848 309.499755
v -51.514012 2.545847 18.332091
v -51.514012 -2.716848 18.332091
v 57.021610 -2.716848 18.332091
v 57.021610 2.545847 18.332091
v 57.021610 2.545847 18.332091
v 57.021610 -2.716848 18.332091
v 57.021610 -2.716848 303.238066
v 57.021610 2.545847 303.238066
v -51.514012 2.545847 303.238066
v -51.514012 -2.716848 303.238066
v -51.514012 -2.716848 18.332091
v -51.514012 2.545847 18.332091
v 62.239666 -2.716848 309.499755
v 62.239666 2.545847 309.499755
v -57.775685 2.545847 309.499755
v -57.775685 -2.716848 309.499755
v -57.775685 -2.716848 309.499755
v -57.775685 2.545847 309.499755
v -57.775685 2.545847 12.070403
v -57.775685 -2.716848 12.070403
v 62.239666 2.545847 309.499755
v 62.239666 -2.716848 309.499755
v 62.239666 -2.716848 12.070403
v 62.239666 2.545847 12.070403
v -57.775685 2.545847 12.070403
v 62.239666 2.545847 12.070403
v 62.239666 -2.716848 12.070403
v -57.775685 -2.716848 12.070403
v 57.021610 -2.716848 303.230803
v -51.514012 -2.716848 303.230803
v -51.514012 2.545847 303.230803
v 57.021610 2.545847 303.230803
v 1.331588 1.568796 518.010588
v 0.588679 1.507517 518.010588
v -0.103601 1.328318 518.010588
v -0.698076 1.043406 518.010588
v 1.331588 1.568796 518.010588
v -0.698076 1.043406 518.010588
v -1.154232 0.671824 518.010588
v -1.440984 0.239207 518.010588
v -1.154232 0.671824 518.010588
v -1.440984 0.239207 518.010588
v -1.538790 -0.225149 518.010588
v -1.440984 -0.689504 518.010588
v -1.538790 -0.225149 518.010588
v -1.154232 -1.122122 518.010588
v -0.698076 -1.493704 518.010588
v -0.103601 -1.778860 518.010588
v 0.588679 -1.958059 518.010588
v 1.331588 -2.019094 518.010588
v 2.074496 -1.958059 518.010588
v 2.766776 -1.778860 518.010588
v 3.361251 -1.493704 518.010588
v 2.766776 -1.778860 518.010588
v 1.331588 1.568796 518.010588
v 3.361251 -1.493704 518.010588
v 3.817407 -1.122122 518.010588
v 4.104159 -0.689504 518.010588
v 4.104159 -0.689504 518.010588
v 4.201965 -0.225149 518.010588
v 4.104159 0.239207 518.010588
v 4.104159 0.239207 518.010588
v 3.817407 0.671824 518.010588
v 3.361251 1.043406 518.010588
v 3.817407 0.671824 518.010588
v 2.766776 1.328318 518.010588
v 2.074496 1.507517 518.010588
v 1.331588 1.568796 518.010588
v 2.074496 1.507517 518.010588
v 2.074496 1.507517 345.799926
v 1.331588 1.568796 345.799926
v 2.074496 1.507517 518.010588
v 2.766776 1.328318 518.010588
v 2.766776 1.328318 345.799926
v 2.074496 1.507517 345.799926
v 2.766776 1.328318 518.010588
v 3.361251 1.043406 518.010588
v 3.361251 1.043406 345.799926
v 2.766776 1.328318 345.799926
v 3.361251 1.043406 518.010588
v 3.817407 0.671824 518.010588
v 3.817407 0.671824 345.799926
v 3.361251 1.043406 345.799926
v 3.817407 0.671824 518.010588
v 4.104159 0.239207 518.010588
v 4.104159 0.239207 345.799926
v 3.817407 0.671824 345.799926
v 4.104159 0.239207 518.010588
v 4.201965 -0.225149 518.010588
v 4.201965 -0.225149 345.799926
v 4.104159 0.239207 345.799926
v 4.201965 -0.225149 518.010588
v 4.104159 -0.689504 518.010588
v 4.104159 -0.689504 345.799926
v 4.201965 -0.225149 345.799926
v 4.104159 -0.689504 518.010588
v 3.817407 -1.122122 518.010588
v 3.817407 -1.122122 345.799926
v 4.104159 -0.689504 345.799926
v 3.817407 -1.122122 518.010588
v 3.361251 -1.493704 518.010588
v 3.361251 -1.493704 345.799926
v 3.817407 -1.122122 345.799926
v 3.361251 -1.493704 518.010588
v 2.766776 -1.778860 518.010588
v 2.766776 -1.778860 345.799926
v 3.361251 -1.493704 345.799926
v 2.766776 -1.778860 518.010588
v 2.074496 -1.958059 518.010588
v 2.074496 -1.958059 345.799926
v 2.766776 -1.778860 345.799926
v 2.074496 -1.958059 518.010588
v 1.331588 -2.019094 518.010588
v 1.331588 -2.019094 345.799926
v 2.074496 -1.958059 345.799926
v 1.331588 -2.019094 518.010588
v 0.588679 -1.958059 518.010588
v 0.588679 -1.958059 345.799926
v 1.331588 -2.019094 345.799926
v 0.588679 -1.958059 518.010588
v -0.103601 -1.778860 518.010588
v -0.103601 -1.778860 345.799926
v 0.588679 -1.958059 345.799926
v -0.103601 -1.778860 518.010588
v -0.698076 -1.493704 518.010588
v -0.698076 -1.493704 345.799926
v -0.103601 -1.778860 345.799926
v -0.698076 -1.493704 518.010588
v -1.154232 -1.122122 518.010588
v -1.154232 -1.122122 345.799926
v -0.698076 -1.493704 345.799926
v -1.154232 -1.122122 518.010588
v -1.440984 -0.689504 518.010588
v -1.440984 -0.689504 345.799926
v -1.154232 -1.122122 345.799926
v -1.440984 -0.689504 518.010588
v -1.538790 -0.225149 518.010588
v -1.538790 -0.225149 345.799926
v -1.440984 -0.689504 345.799926
v -1.538790 -0.225149 518.010588
v -1.440984 0.239207 518.010588
v -1.440984 0.239207 345.799926
v -1.538790 -0.225149 345.799926
v -1.440984 0.239207 518.010588
v -1.154232 0.671824 518.010588
v -1.154232 0.671824 345.799926
v -1.440984 0.239207 345.799926
v -1.154232 0.671824 518.010588
v -0.698076 1.043406 518.010588
v -0.698076 1.043406 345.799926
v -1.154232 0.671824 345.799926
v -0.698076 1.043406 518.010588
v -0.103601 1.328318 518.010588
v -0.103601 1.328318 345.799926
v -0.698076 1.043406 345.799926
v -0.103601 1.328318 518.010588
v 0.588679 1.507517 518.010588
v 0.588679 1.507517 345.799926
v -0.103601 1.328318 345.799926
v 0.588679 1.507517 518.010588
v 1.331588 1.568796 518.010588
v 1.331588 1.568796 345.799926
v 0.588679 1.507517 345.799926
v 1.331588 1.568796 345.799926
v 2.074496 1.507517 345.799926
v 2.766776 1.328318 345.799926
v 3.361251 1.043406 345.799926
v 1.331588 1.568796 345.799926
v 3.361251 1.043406 345.799926
v 3.817407 0.671824 345.799926
v 4.104159 0.239207 345.799926
v 3.817407 0.671824 345.799926
v 1.331588 1.568796 345.799926
v 4.104159 0.239207 345.799926
v 4.201965 -0.225149 345.799926
v 4.104159 -0.689504 345.799926
v 4.201965 -0.225149 345.799926
v 3.817407 -1.122122 345.799926
v 3.361251 -1.493704 345.799926
v 3.817407 -1.122122 345.799926
v 3.361251 -1.493704 345.799926
v 2.766776 -1.778860 345.799926
v 2.074496 -1.958059 345.799926
v 2.766776 -1.778860 345.799926
v 1.331588 -2.019094 345.799926
v 0.588679 -1.958059 345.799926
v -0.103601 -1.778860 345.799926
v -0.698076 -1.493704 345.799926
v -1.154232 -1.122122 345.799926
v -1.440984 -0.689504 345.799926
v -1.440984 -0.689504 345.799926
v -1.538790 -0.225149 345.799926
v -1.440984 0.239207 345.799926
v 1.331588 1.568796 345.799926
v -1.538790 -0.225149 345.799926
v -1.440984 0.239207 345.799926
v -1.154232 0.671824 345.799926
v -0.698076 1.043406 345.799926
v -1.154232 0.671824 345.799926
v -0.103601 1.328318 345.799926
v 0.588679 1.507517 345.799926
v 1.345435 2.343455 350.826812
v 32.850695 2.343455 309.869933
v 23.340044 2.343455 314.333129
v 1.286363 2.343455 343.002928
v -21.042988 2.343455 314.333129
v -30.553639 2.343455 309.869933
v -30.553639 -2.507864 309.869933
v 32.850695 -2.507864 309.869933
v 23.340044 -2.507864 314.333129
v -21.042988 -2.507864 314.333129
v 1.286363 -2.507864 343.002928
v 1.345435 -2.507864 350.826812
v -21.042988 -2.507864 314.333129
v 23.340044 -2.507864 314.333129
v 23.340044 2.343455 314.333129
v -21.042988 2.343455 314.333129
v 1.286363 -2.507864 343.002928
v -21.042988 -2.507864 314.333129
v -21.042988 2.343455 314.333129
v 1.286363 2.343455 343.002928
v 23.340044 -2.507864 314.333129
v 1.286363 -2.507864 343.002928
v 1.286363 2.343455 343.002928
v 23.340044 2.343455 314.333129
v 32.850695 2.343455 309.869933
v 1.345435 2.343455 350.826812
v 1.345435 -2.507864 350.826812
v 32.850695 -2.507864 309.869933
v 1.345435 2.343455 350.826812
v -30.553639 2.343455 309.869933
v -30.553639 -2.507864 309.869933
v 1.345435 -2.507864 350.826812
v -30.553639 2.343455 309.869933
v 32.850695 2.343455 309.869933
v 32.850695 -2.507864 309.869933
v -30.553639 -2.507864 309.869933
v -55.388199 -0.000295 2.840987
v -55.388199 0.734812 2.744216
v -55.388199 1.419871 2.460448
v -55.388199 2.008250 2.009062
v -55.388199 2.459666 1.420790
v -55.388199 2.743357 0.735747
v -55.388199 2.840281 0.000594
v -55.388199 2.743357 -0.734544
v -55.388199 2.459666 -1.419603
v -55.388199 2.008250 -2.007875
v -55.388199 1.419871 -2.459260
v -55.388199 0.734812 -2.743013
v -55.388199 -0.000295 -2.839799
v -55.388199 -0.735403 -2.743013
v -55.388199 -1.420461 -2.459260
v -55.388199 -2.008596 -2.007875
v -55.388199 -2.460012 -1.419603
v -55.388199 -2.743948 -0.734544
v -55.388199 -2.840627 0.000594
v -55.388199 -2.743948 0.735747
v -55.388199 -2.460012 1.420790
v -55.388199 -2.008596 2.009062
v -55.388199 -1.420461 2.460448
v -55.388199 -0.735403 2.744216
v -44.026600 0.734812 2.744216
v -55.388199 0.734812 2.744216
v -55.388199 -0.000295 2.840987
v -44.026600 -0.000295 2.840987
v -44.026600 1.419871 2.460448
v -55.388199 1.419871 2.460448
v -55.388199 0.734812 2.744216
v -44.026600 0.734812 2.744216
v -44.026600 2.008250 2.009062
v -55.388199 2.008250 2.009062
v -55.388199 1.419871 2.460448
v -44.026600 1.419871 2.460448
v -44.026600 2.459666 1.420790
v -55.388199 2.459666 1.420790
v -55.388199 2.008250 2.009062
v -44.026600 2.008250 2.009062
v -44.026600 2.743357 0.735747
v -55.388199 2.743357 0.735747
v -55.388199 2.459666 1.420790
v -44.026600 2.459666 1.420790
v -44.026600 2.840281 0.000594
v -55.388199 2.840281 0.000594
v -55.388199 2.743357 0.735747
v -44.026600 2.743357 0.735747
v -55.388199 2.743357 -0.734544
v -55.388199 2.840281 0.000594
v -44.026600 2.840281 0.000594
v -44.026600 2.743357 -0.734544
v -55.388199 2.459666 -1.419603
v -55.388199 2.743357 -0.734544
v -44.026600 2.743357 -0.734544
v -44.026600 2.459666 -1.419603
v -55.388199 2.008250 -2.007875
v -55.388199 2.459666 -1.419603
v -44.026600 2.459666 -1.419603
v -44.026600 2.008250 -2.007875
v -55.388199 1.419871 -2.459260
v -55.388199 2.008250 -2.007875
v -44.026600 2.008250 -2.007875
v -44.026600 1.419871 -2.459260
v -55.388199 0.734812 -2.743013
v -55.388199 1.419871 -2.459260
v -44.026600 1.419871 -2.459260
v -44.026600 0.734812 -2.743013
v -55.388199 -0.000295 -2.839799
v -55.388199 0.734812 -2.743013
v -44.026600 0.734812 -2.743013
v -55.388199 -0.000295 -2.839799
v -44.026600 0.734812 -2.743013
v -44.026600 -0.000295 -2.839799
v -55.388199 -0.735403 -2.743013
v -55.388199 -0.000295 -2.839799
v -44.026600 -0.000295 -2.839799
v -55.388199 -0.735403 -2.743013
v -44.026600 -0.000295 -2.839799
v -44.026600 -0.735403 -2.743013
v -55.388199 -1.420461 -2.459260
v -55.388199 -0.735403 -2.743013
v -44.026600 -0.735403 -2.743013
v -44.026600 -1.420461 -2.459260
v -55.388199 -2.008596 -2.007875
v -55.388199 -1.420461 -2.459260
v -44.026600 -1.420461 -2.459260
v -44.026600 -2.008596 -2.007875
v -55.388199 -2.460012 -1.419603
v -55.388199 -2.008596 -2.007875
v -44.026600 -2.008596 -2.007875
v -44.026600 -2.460012 -1.419603
v -55.388199 -2.743948 -0.734544
v -55.388199 -2.460012 -1.419603
v -44.026600 -2.460012 -1.419603
v -44.026600 -2.743948 -0.734544
v -55.388199 -2.840627 0.000594
v -55.388199 -2.743948 -0.734544
v -44.026600 -2.743948 -0.734544
v -44.026600 -2.840627 0.000594
v -44.026600 -2.743948 0.735747
v -55.388199 -2.743948 0.735747
v -55.388199 -2.840627 0.000594
v -44.026600 -2.840627 0.000594
v -44.026600 -2.460012 1.420790
v -55.388199 -2.460012 1.420790
v -55.388199 -2.743948 0.735747
v -44.026600 -2.743948 0.735747
v -44.026600 -2.008596 2.009062
v -55.388199 -2.008596 2.009062
v -55.388199 -2.460012 1.420790
v -44.026600 -2.460012 1.420790
v -44.026600 -1.420461 2.460448
v -55.388199 -1.420461 2.460448
v -55.388199 -2.008596 2.009062
v -44.026600 -2.008596 2.009062
v -44.026600 -0.735403 2.744216
v -55.388199 -0.735403 2.744216
v -55.388199 -1.420461 2.460448
v -44.026600 -1.420461 2.460448
v -44.026600 -0.000295 2.840987
v -55.388199 -0.000295 2.840987
v -55.388199 -0.735403 2.744216
v -44.026600 -0.735403 2.744216
v -44.026600 -0.000295 2.840987
v -44.026600 -0.735403 2.744216
v -44.026600 -1.420461 2.460448
v -44.026600 -2.008596 2.009062
v -44.026600 -0.000295 2.840987
v -44.026600 -1.420461 2.460448
v -44.026600 -2.460012 1.420790
v -44.026600 -2.743948 0.735747
v -44.026600 -2.840627 0.000594
v -44.026600 -2.743948 -0.734544
v -44.026600 -2.460012 -1.419603
v -44.026600 -2.008596 -2.007875
v -44.026600 -1.420461 -2.459260
v -44.026600 -0.735403 -2.743013
v -44.026600 -0.000295 -2.839799
v -44.026600 0.734812 -2.743013
v -44.026600 1.419871 -2.459260
v -44.026600 2.008250 -2.007875
v -44.026600 2.459666 -1.419603
v -44.026600 2.743357 -0.734544
v -44.026600 2.840281 0.000594
v -44.026600 2.743357 0.735747
v -44.026600 2.459666 1.420790
v -44.026600 2.008250 2.009062
v -44.026600 1.419871 2.460448
v -44.026600 1.419871 2.460448
v -44.026600 0.734812 2.744216
v 44.735897 -0.000295 2.840987
v 44.735897 0.734812 2.744200
v 44.735897 1.419871 2.460448
v 44.735897 2.008250 2.009062
v 44.735897 2.459666 1.420790
v 44.735897 2.743357 0.735747
v 44.735897 2.840281 0.000594
v 44.735897 2.743357 -0.734559
v 44.735897 2.459666 -1.419603
v 44.735897 2.008250 -2.007875
v 44.735897 1.419871 -2.459260
v 44.735897 0.734812 -2.743013
v 44.735897 -0.000295 -2.839799
v 44.735897 -0.735403 -2.743013
v 44.735897 -1.420461 -2.459260
v 44.735897 -2.008596 -2.007875
v 44.735897 -2.460012 -1.419603
v 44.735897 -2.743948 -0.734559
v 44.735897 -2.840627 0.000594
v 44.735897 -2.743948 0.735747
v 44.735897 -2.460012 1.420790
v 44.735897 -2.008596 2.009062
v 44.735897 -1.420461 2.460448
v 44.735897 -0.735403 2.744200
v 55.387401 0.734812 2.744200
v 44.735897 0.734812 2.744200
v 44.735897 -0.000295 2.840987
v 55.387401 0.734812 2.744200
v 44.735897 -0.000295 2.840987
v 55.387401 -0.000295 2.840987
v 55.387401 1.419871 2.460448
v 44.735897 1.419871 2.460448
v 44.735897 0.734812 2.744200
v 55.387401 0.734812 2.744200
v 55.387401 2.008250 2.009062
v 44.735897 2.008250 2.009062
v 44.735897 1.419871 2.460448
v 55.387401 1.419871 2.460448
v 55.387401 2.459666 1.420790
v 44.735897 2.459666 1.420790
v 44.735897 2.008250 2.009062
v 55.387401 2.008250 2.009062
v 55.387401 2.743357 0.735747
v 44.735897 2.743357 0.735747
v 44.735897 2.459666 1.420790
v 55.387401 2.459666 1.420790
v 55.387401 2.840281 0.000594
v 44.735897 2.840281 0.000594
v 44.735897 2.743357 0.735747
v 55.387401 2.743357 0.735747
v 44.735897 2.743357 -0.734559
v 44.735897 2.840281 0.000594
v 55.387401 2.840281 0.000594
v 55.387401 2.743357 -0.734559
v 44.735897 2.459666 -1.419603
v 44.735897 2.743357 -0.734559
v 55.387401 2.743357 -0.734559
v 55.387401 2.459666 -1.419603
v 44.735897 2.008250 -2.007875
v 44.735897 2.459666 -1.419603
v 55.387401 2.459666 -1.419603
v 55.387401 2.008250 -2.007875
v 44.735897 1.419871 -2.459260
v 44.735897 2.008250 -2.007875
v 55.387401 2.008250 -2.007875
v 55.387401 1.419871 -2.459260
v 44.735897 0.734812 -2.743013
v 44.735897 1.419871 -2.459260
v 55.387401 1.419871 -2.459260
v 55.387401 0.734812 -2.743013
v 44.735897 -0.000295 -2.839799
v 44.735897 0.734812 -2.743013
v 55.387401 0.734812 -2.743013
v 55.387401 -0.000295 -2.839799
v 44.735897 -0.735403 -2.743013
v 44.735897 -0.000295 -2.839799
v 55.387401 -0.000295 -2.839799
v 55.387401 -0.735403 -2.743013
v 44.735897 -1.420461 -2.459260
v 44.735897 -0.735403 -2.743013
v 55.387401 -0.735403 -2.743013
v 55.387401 -1.420461 -2.459260
v 44.735897 -2.008596 -2.007875
v 44.735897 -1.420461 -2.459260
v 55.387401 -1.420461 -2.459260
v 44.735897 -2.008596 -2.007875
v 55.387401 -1.420461 -2.459260
v 55.387401 -2.008596 -2.007875
v 44.735897 -2.460012 -1.419603
v 44.735897 -2.008596 -2.007875
v 55.387401 -2.008596 -2.007875
v 55.387401 -2.460012 -1.419603
v 44.735897 -2.743948 -0.734559
v 44.735897 -2.460012 -1.419603
v 55.387401 -2.460012 -1.419603
v 55.387401 -2.743948 -0.734559
v 44.735897 -2.840627 0.000594
v 44.735897 -2.743948 -0.734559
v 55.387401 -2.743948 -0.734559
v 55.387401 -2.840627 0.000594
v 55.387401 -2.743948 0.735747
v 44.735897 -2.743948 0.735747
v 44.735897 -2.840627 0.000594
v 55.387401 -2.840627 0.000594
v 55.387401 -2.460012 1.420790
v 44.735897 -2.460012 1.420790
v 44.735897 -2.743948 0.735747
v 55.387401 -2.743948 0.735747
v 55.387401 -2.008596 2.009062
v 44.735897 -2.008596 2.009062
v 44.735897 -2.460012 1.420790
v 55.387401 -2.460012 1.420790
v 55.387401 -1.420461 2.460448
v 44.735897 -1.420461 2.460448
v 44.735897 -2.008596 2.009062
v 55.387401 -1.420461 2.460448
v 44.735897 -2.008596 2.009062
v 55.387401 -2.008596 2.009062
v 55.387401 -0.735403 2.744200
v 44.735897 -0.735403 2.744200
v 44.735897 -1.420461 2.460448
v 55.387401 -1.420461 2.460448
v 55.387401 -0.000295 2.840987
v 44.735897 -0.000295 2.840987
v 44.735897 -0.735403 2.744200
v 55.387401 -0.000295 2.840987
v 44.735897 -0.735403 2.744200
v 55.387401 -0.735403 2.744200
v 55.387401 -0.000295 2.840987
v 55.387401 -0.735403 2.744200
v 55.387401 -1.420461 2.460448
v 55.387401 -2.008596 2.009062
v 55.387401 -0.000295 2.840987
v 55.387401 -1.420461 2.460448
v 55.387401 -2.460012 1.420790
v 55.387401 -2.743948 0.735747
v 55.387401 -2.840627 0.000594
v 55.387401 -2.743948 -0.734559
v 55.387401 -2.460012 -1.419603
v 55.387401 -2.008596 -2.007875
v 55.387401 -1.420461 -2.459260
v 55.387401 -0.735403 -2.743013
v 55.387401 -0.000295 -2.839799
v 55.387401 0.734812 -2.743013
v 55.387401 1.419871 -2.459260
v 55.387401 2.008250 -2.007875
v 55.387401 2.459666 -1.419603
v 55.387401 2.743357 -0.734559
v 55.387401 2.840281 0.000594
v 55.387401 2.743357 0.735747
v 55.387401 2.459666 1.420790
v 55.387401 2.008250 2.009062
v 55.387401 1.419871 2.460448
v 55.387401 1.419871 2.460448
v 55.387401 0.734812 2.744200
v -44.736702 -7.811331 -3.549897
v -44.736702 -7.811331 0.000594
v -54.678101 -7.811331 0.000594
v -54.678101 -7.811331 -3.549897
v -54.678101 7.810740 -3.549897
v -44.736702 7.810740 -3.549897
v -44.736702 -7.811331 -3.549897
v -54.678101 -7.811331 -3.549897
v -44.736702 7.810740 -3.549897
v -44.736702 7.810740 0.000594
v -44.736702 -7.811331 0.000594
v -44.736702 -7.811331 -3.549897
v -44.736702 -7.811331 0.000594
v -44.736702 7.810740 0.000594
v -54.678101 7.810740 0.000594
v -54.678101 -7.811331 0.000594
v -54.678101 -7.811331 0.000594
v -54.678101 7.810740 0.000594
v -54.678101 7.810740 -3.549897
v -54.678101 -7.811331 -3.549897
v -54.678101 7.810740 0.000594
v -44.736702 7.810740 0.000594
v -44.736702 7.810740 -3.549897
v -54.678101 7.810740 -3.549897
v 54.677303 -7.811331 -3.549897
v 54.677303 -7.811331 0.000609
v 45.446003 -7.811331 0.000609
v 45.446003 -7.811331 -3.549897
v 45.446003 7.810740 -3.549897
v 54.677303 7.810740 -3.549897
v 54.677303 -7.811331 -3.549897
v 45.446003 -7.811331 -3.549897
v 54.677303 7.810740 -3.549897
v 54.677303 7.810740 0.000609
v 54.677303 -7.811331 0.000609
v 54.677303 -7.811331 -3.549897
v 54.677303 -7.811331 0.000609
v 54.677303 7.810740 0.000609
v 45.446003 7.810740 0.000609
v 45.446003 -7.811331 0.000609
v 45.446003 -7.811331 0.000609
v 45.446003 7.810740 0.000609
v 45.446003 7.810740 -3.549897
v 45.446003 -7.811331 -3.549897
v 45.446003 7.810740 0.000609
v 54.677303 7.810740 0.000609
v 54.677303 7.810740 -3.549897
v 45.446003 7.810740 -3.549897
vn -1.000000 0.000000 0.000000
vn -1.000000 0.000000 0.000000
vn -1.000000 0.000000 0.000000
vn -1.000000 0.000000 0.000000
vn 0.000000 0.000000 1.000000
vn 0.000000 0.000000 1.000000
vn 0.000000 0.000000 1.000000
vn 0.000000 0.000000 1.000000
vn 0.000000 1.000000 0.000000
vn 0.000000 1.000000 0.000000
vn 0.000000 1.000000 0.000000
vn 0.000000 1.000000 0.000000
vn 0.000000 0.000000 -1.000000
vn 0.000000 0.000000 -1.000000
vn 0.000000 0.000000 -1.000000
vn 0.000000 0.000000 -1.000000
vn 0.000000 -1.000000 0.000000
vn 0.000000 -1.000000 0.000000
vn 0.000000 -1.000000 0.000000
vn 0.000000 -1.000000 0.000000
vn 1.000000 0.000000 0.000000
vn 1.000000 0.000000 0.000000
vn 1.000000 0.000000 0.000000
vn 1.000000 0.000000 0.000000
vn 0.000000 -1.000000 0.000000
vn 0.000000 -1.000000 0.000000
vn 0.000000 -1.000000 0.000000
vn 0.000000 -1.000000 0.000000
vn 0.000000 1.000000 0.000000
vn 0.000000 1.000000 0.000000
vn 0.000000 1.000000 0.000000
vn 0.000000 1.000000 0.000000
vn -1.000000 0.000000 0.000000
vn -1.000000 0.000000 0.000000
vn -1.000000 0.000000 0.000000
vn -1.000000 0.000000 0.000000
vn 1.000000 0.000000 0.000000
vn 1.000000 0.000000 0.000000
vn 1.000000 0.000000 0.000000
vn 1.000000 0.000000 0.000000
vn 0.000000 0.000000 1.000000
vn 0.000000 0.000000 1.000000
vn 0.000000 0.000000 1.000000
vn 0.000000 0.000000 1.000000
vn 0.000000 0.000000 -1.000000
vn 0.000000 0.000000 -1.000000
vn 0.000000 0.000000 -1.000000
vn 0.000000 0.000000 -1.000000
vn 0.000000 0.000000 -1.000000
vn 0.000000 0.000000 -1.000000
vn 0.000000 0.000000 -1.000000
vn 0.000000 0.000000 -1.000000
vn -1.000000 0.000000 0.000000
vn -1.000000 0.000000 0.000000
vn -1.000000 0.000000 0.000000
vn -1.000000 0.000000 0.000000
vn 0.000000 1.000000 0.000000
vn 0.000000 1.000000 0.000000
vn 0.000000 1.000000 0.000000
vn 0.000000 1.000000 0.000000
vn 1.000000 0.000000 0.000000
vn 1.000000 0.000000 0.000000
vn 1.000000 0.000000 0.000000
vn 1.000000 0.000000 0.000000
vn 0.000000 -1.000000 0.000000
vn 0.000000 -1.000000 0.000000
vn 0.000000 -1.000000 0.000000
vn 0.000000 -1.000000 0.000000
vn 0.000000 0.000000 1.000000
vn 0.000000 0.000000 1.000000
vn 0.000000 0.000000 1.000000
vn 0.000000 0.000000 1.000000
vn 0.000000 0.000000 1.000000
vn 0.000000 0.000000 1.000000
vn 0.000000 0.000000 1.000000
vn 0.000000 0.000000 1.000000
vn -1.000000 0.000000 0.000000
vn -1.000000 0.000000 0.000000
vn -1.000000 0.000000 0.000000
vn -1.000000 0.000000 0.000000
vn 0.000000 1.000000 0.000000
vn 0.000000 1.000000 0.000000
vn 0.000000 1.000000 0.000000
vn 0.000000 1.000000 0.000000
vn 1.000000 0.000000 0.000000
vn 1.000000 0.000000 0.000000
vn 1.000000 0.000000 0.000000
vn 1.000000 0.000000 0.000000
vn 0.000000 -1.000000 0.000000
vn 0.000000 -1.000000 0.000000
vn 0.000000 -1.000000 0.000000
vn 0.000000 -1.000000 0.000000
vn 0.000000 0.000000 -1.000000
vn 0.000000 0.000000 -1.000000
vn 0.000000 0.000000 -1.000000
vn 0.000000 0.000000 -1.000000
vn 0.000000 1.000000 0.000000
vn 0.000000 1.000000 0.000000
vn 0.000000 1.000000 0.000000
vn 0.000000 1.000000 0.000000
vn 0.000000 1.000000 0.000000
vn 0.000000 1.000000 0.000000
vn 0.000000 1.000000 0.000000
vn 0.000000 1.000000 0.000000
vn 0.000000 -1.000000 0.000000
vn 0.000000 -1.000000 0.000000
vn 0.000000 -1.000000 0.000000
vn 0.000000 -1.000000 0.000000
vn 0.000000 -1.000000 0.000000
vn 0.000000 -1.000000 0.000000
vn 0.000000 -1.000000 0.000000
vn 0.000000 -1.000000 0.000000
vn 0.000000 0.000000 1.000000
vn 0.000000 0.000000 1.000000
vn 0.000000 0.000000 1.000000
vn 0.000000 0.000000 1.000000
vn -1.000000 0.000000 0.000000
vn -1.000000 0.000000 0.000000
vn -1.000000 0.000000 0.000000
vn -1.000000 0.000000 0.000000
vn 1.000000 0.000000 0.000000
vn 1.000000 0.000000 0.000000
vn 1.000000 0.000000 0.000000
vn 1.000000 0.000000 0.000000
vn 0.000000 0.000000 1.000000
vn 0.000000 0.000000 1.000000
vn 0.000000 0.000000 1.000000
vn 0.000000 0.000000 1.000000
vn -1.000000 0.000000 0.000000
vn -1.000000 0.000000 0.000000
vn -1.000000 0.000000 0.000000
vn -1.000000 0.000000 0.000000
vn 1.000000 0.000000 0.000000
vn 1.000000 0.000000 0.000000
vn 1.000000 0.000000 0.000000
vn 1.000000 0.000000 0.000000
vn 0.000000 0.000000 -1.000000
vn 0.000000 0.000000 -1.000000
vn 0.000000 0.000000 -1.000000
vn 0.000000 0.000000 -1.000000
vn 0.000000 0.000000 -1.000000
vn 0.000000 0.000000 -1.000000
vn 0.000000 0.000000 -1.000000
vn 0.000000 0.000000 -1.000000
vn 0.000000 0.000000 1.000000
vn 0.000000 0.000000 1.000000
vn 0.000000 0.000000 1.000000
vn 0.000000 0.000000 1.000000
vn 0.000000 -0.000100 1.000000
vn 0.000000 -0.000100 1.000000
vn 0.000000 -0.000100 1.000000
vn 0.000000 0.000000 1.000000
vn 0.000000 0.000000 1.000000
vn 0.000000 -0.000100 1.000000
vn 0.000000 -0.000100 1.000000
vn 0.000000 0.000000 1.000000
vn 0.000000 0.000000 1.000000
vn 0.000000 0.000000 1.000000
vn 0.000000 0.000000 1.000000
vn 0.000000 0.000000 1.000000
vn 0.000000 0.000000 1.000000
vn 0.000000 0.000000 1.000000
vn 0.000000 0.000000 1.000000
vn 0.000000 0.000000 1.000000
vn 0.000000 -0.000100 1.000000
vn 0.000000 -0.000100 1.000000
vn 0.000000 0.000200 1.000000
vn 0.000000 0.000200 1.000000
vn 0.000000 0.000200 1.000000
vn 0.000000 0.000200 1.000000
vn 0.000000 0.000000 1.000000
vn 0.000000 0.000000 1.000000
vn 0.000000 0.000000 1.000000
vn 0.000000 0.000200 1.000000
vn 0.000000 0.000200 1.000000
vn 0.000000 0.000000 1.000000
vn 0.000000 0.000000 1.000000
vn 0.000000 0.000000 1.000000
vn 0.000000 0.000000 1.000000
vn 0.082201 0.996616 0.000000
vn 0.082201 0.996616 0.000000
vn 0.082201 0.996616 0.000000
vn 0.082201 0.996616 0.000000
vn 0.250598 0.968091 0.000000
vn 0.250598 0.968091 0.000000
vn 0.250598 0.968091 0.000000
vn 0.250598 0.968091 0.000000
vn 0.432191 0.901782 0.000000
vn 0.432191 0.901782 0.000000
vn 0.432191 0.901782 0.000000
vn 0.432191 0.901782 0.000000
vn 0.631597 0.775297 0.000000
vn 0.631597 0.775297 0.000000
vn 0.631597 0.775297 0.000000
vn 0.631597 0.775297 0.000000
vn 0.833509 0.552506 0.000000
vn 0.833509 0.552506 0.000000
vn 0.833509 0.552506 0.000000
vn 0.833509 0.552506 0.000000
vn 0.978530 0.206106 0.000000
vn 0.978530 0.206106 0.000000
vn 0.978530 0.206106 0.000000
vn 0.978530 0.206106 0.000000
vn 0.978530 -0.206106 0.000000
vn 0.978530 -0.206106 0.000000
vn 0.978530 -0.206106 0.000000
vn 0.978530 -0.206106 0.000000
vn 0.833509 -0.552506 0.000000
vn 0.833509 -0.552506 0.000000
vn 0.833509 -0.552506 0.000000
vn 0.833509 -0.552506 0.000000
vn 0.631597 -0.775297 0.000000
vn 0.631597 -0.775297 0.000000
vn 0.631597 -0.775297 0.000000
vn 0.631597 -0.775297 0.000000
vn 0.432513 -0.901628 0.000000
vn 0.432513 -0.901628 0.000000
vn 0.432513 -0.901628 0.000000
vn 0.432513 -0.901628 0.000000
vn 0.250598 -0.968091 0.000000
vn 0.250598 -0.968091 0.000000
vn 0.250598 -0.968091 0.000000
vn 0.250598 -0.968091 0.000000
vn 0.081903 -0.996640 0.000000
vn 0.081903 -0.996640 0.000000
vn 0.081903 -0.996640 0.000000
vn 0.081903 -0.996640 0.000000
vn -0.081903 -0.996640 0.000000
vn -0.081903 -0.996640 0.000000
vn -0.081903 -0.996640 0.000000
vn -0.081903 -0.996640 0.000000
vn -0.250598 -0.968091 0.000000
vn -0.250598 -0.968091 0.000000
vn -0.250598 -0.968091 0.000000
vn -0.250598 -0.968091 0.000000
vn -0.432513 -0.901628 0.000000
vn -0.432513 -0.901628 0.000000
vn -0.432513 -0.901628 0.000000
vn -0.432513 -0.901628 0.000000
vn -0.631597 -0.775297 0.000000
vn -0.631597 -0.775297 0.000000
vn -0.631597 -0.775297 0.000000
vn -0.631597 -0.775297 0.000000
vn -0.833509 -0.552506 0.000000
vn -0.833509 -0.552506 0.000000
vn -0.833509 -0.552506 0.000000
vn -0.833509 -0.552506 0.000000
vn -0.978530 -0.206106 0.000000
vn -0.978530 -0.206106 0.000000
vn -0.978530 -0.206106 0.000000
vn -0.978530 -0.206106 0.000000
vn -0.978530 0.206106 0.000000
vn -0.978530 0.206106 0.000000
vn -0.978530 0.206106 0.000000
vn -0.978530 0.206106 0.000000
vn -0.833509 0.552506 0.000000
vn -0.833509 0.552506 0.000000
vn -0.833509 0.552506 0.000000
vn -0.833509 0.552506 0.000000
vn -0.631597 0.775297 0.000000
vn -0.631597 0.775297 0.000000
vn -0.631597 0.775297 0.000000
vn -0.631597 0.775297 0.000000
vn -0.432191 0.901782 0.000000
vn -0.432191 0.901782 0.000000
vn -0.432191 0.901782 0.000000
vn -0.432191 0.901782 0.000000
vn -0.250598 0.968091 0.000000
vn -0.250598 0.968091 0.000000
vn -0.250598 0.968091 0.000000
vn -0.250598 0.968091 0.000000
vn -0.082201 0.996616 0.000000
vn -0.082201 0.996616 0.000000
vn -0.082201 0.996616 0.000000
vn -0.082201 0.996616 0.000000
vn 0.000000 0.000000 -1.000000
vn 0.000000 0.000000 -1.000000
vn 0.000000 0.000000 -1.000000
vn 0.000000 0.000000 -1.000000
vn 0.000000 0.000100 -1.000000
vn 0.000000 0.000100 -1.000000
vn 0.000000 0.000100 -1.000000
vn 0.000000 0.000000 -1.000000
vn 0.000000 0.000000 -1.000000
vn 0.000000 -0.000100 -1.000000
vn 0.000000 -0.000100 -1.000000
vn 0.000000 -0.000100 -1.000000
vn 0.000000 0.000000 -1.000000
vn 0.000000 0.000000 -1.000000
vn 0.000000 0.000000 -1.000000
vn 0.000000 -0.000100 -1.000000
vn 0.000000 -0.000100 -1.000000
vn 0.000000 0.000100 -1.000000
vn 0.000000 0.000100 -1.000000
vn 0.000000 0.000000 -1.000000
vn 0.000000 0.000000 -1.000000
vn 0.000000 0.000000 -1.000000
vn 0.000000 0.000000 -1.000000
vn 0.000000 0.000000 -1.000000
vn 0.000000 0.000000 -1.000000
vn 0.000000 0.000000 -1.000000
vn 0.000000 0.000000 -1.000000
vn 0.000000 0.000100 -1.000000
vn 0.000000 0.000100 -1.000000
vn 0.000000 -0.000200 -1.000000
vn 0.000000 -0.000200 -1.000000
vn 0.000000 -0.000200 -1.000000
vn 0.000000 0.000100 -1.000000
vn 0.000000 0.000100 -1.000000
vn 0.000000 0.000000 -1.000000
vn 0.000000 0.000000 -1.000000
vn 0.000000 0.000000 -1.000000
vn 0.000000 0.000000 -1.000000
vn 0.000000 1.000000 0.000000
vn 0.000000 1.000000 0.000000
vn 0.000000 1.000000 0.000000
vn 0.000000 1.000000 0.000000
vn 0.000000 1.000000 0.000000
vn 0.000000 1.000000 0.000000
vn 0.000000 -1.000000 0.000000
vn 0.000000 -1.000000 0.000000
vn 0.000000 -1.000000 0.000000
vn 0.000000 -1.000000 0.000000
vn 0.000000 -1.000000 0.000000
vn 0.000000 -1.000000 0.000000
vn 0.000000 0.000000 1.000000
vn 0.000000 0.000000 1.000000
vn 0.000000 0.000000 1.000000
vn 0.000000 0.000000 1.000000
vn 0.788911 0.000000 -0.614508
vn 0.788911 0.000000 -0.614508
vn 0.788911 0.000000 -0.614508
vn 0.788911 0.000000 -0.614508
vn -0.792620 0.000000 -0.609716
vn -0.792620 0.000000 -0.609716
vn -0.792620 0.000000 -0.609716
vn -0.792620 0.000000 -0.609716
vn 0.792620 0.000000 0.609716
vn 0.792620 0.000000 0.609716
vn 0.792620 0.000000 0.609716
vn 0.792620 0.000000 0.609716
vn -0.788911 0.000000 0.614508
vn -0.788911 0.000000 0.614508
vn -0.788911 0.000000 0.614508
vn -0.788911 0.000000 0.614508
vn 0.000000 0.000000 -1.000000
vn 0.000000 0.000000 -1.000000
vn 0.000000 0.000000 -1.000000
vn 0.000000 0.000000 -1.000000
vn -1.000000 0.000000 0.000000
vn -1.000000 0.000000 0.000000
vn -1.000000 0.000000 0.000000
vn -1.000000 0.000000 0.000000
vn -1.000000 0.000000 0.000000
vn -1.000000 0.000000 0.000000
vn -1.000000 0.000000 0.000000
vn -1.000000 0.000000 0.000000
vn -1.000000 0.000000 0.000000
vn -1.000000 0.000000 0.000000
vn -1.000000 0.000000 0.000000
vn -1.000000 0.000000 0.000000
vn -1.000000 0.000000 0.000000
vn -1.000000 0.000000 0.000000
vn -1.000000 0.000000 0.000000
vn -1.000000 0.000000 0.000000
vn -1.000000 0.000000 0.000000
vn -1.000000 0.000000 0.000000
vn -1.000000 0.000000 0.000000
vn -1.000000 0.000000 0.000000
vn -1.000000 0.000000 0.000000
vn -1.000000 0.000000 0.000000
vn -1.000000 0.000000 0.000000
vn -1.000000 0.000000 0.000000
vn 0.000000 0.130506 0.991448
vn 0.000000 0.130506 0.991448
vn 0.000000 0.130506 0.991448
vn 0.000000 0.130506 0.991448
vn 0.000000 0.382690 0.923877
vn 0.000000 0.382690 0.923877
vn 0.000000 0.382690 0.923877
vn 0.000000 0.382690 0.923877
vn 0.000000 0.608700 0.793400
vn 0.000000 0.608700 0.793400
vn 0.000000 0.608700 0.793400
vn 0.000000 0.608700 0.793400
vn 0.000000 0.793315 0.608811
vn 0.000000 0.793315 0.608811
vn 0.000000 0.793315 0.608811
vn 0.000000 0.793315 0.608811
vn 0.000000 0.923912 0.382605
vn 0.000000 0.923912 0.382605
vn 0.000000 0.923912 0.382605
vn 0.000000 0.923912 0.382605
vn 0.000000 0.991422 0.130703
vn 0.000000 0.991422 0.130703
vn 0.000000 0.991422 0.130703
vn 0.000000 0.991422 0.130703
vn 0.000000 0.991422 -0.130703
vn 0.000000 0.991422 -0.130703
vn 0.000000 0.991422 -0.130703
vn 0.000000 0.991422 -0.130703
vn 0.000000 0.923912 -0.382605
vn 0.000000 0.923912 -0.382605
vn 0.000000 0.923912 -0.382605
vn 0.000000 0.923912 -0.382605
vn 0.000000 0.793315 -0.608811
vn 0.000000 0.793315 -0.608811
vn 0.000000 0.793315 -0.608811
vn 0.000000 0.793315 -0.608811
vn 0.000000 0.608700 -0.793400
vn 0.000000 0.608700 -0.793400
vn 0.000000 0.608700 -0.793400
vn 0.000000 0.608700 -0.793400
vn 0.000000 0.382690 -0.923877
vn 0.000000 0.382690 -0.923877
vn 0.000000 0.382690 -0.923877
vn 0.000000 0.382690 -0.923877
vn 0.000000 0.130605 -0.991435
vn 0.000000 0.130605 -0.991435
vn 0.000000 0.130605 -0.991435
vn 0.000000 0.130506 -0.991448
vn 0.000000 0.130506 -0.991448
vn 0.000000 0.130506 -0.991448
vn 0.000000 -0.130506 -0.991448
vn 0.000000 -0.130506 -0.991448
vn 0.000000 -0.130506 -0.991448
vn 0.000000 -0.130605 -0.991435
vn 0.000000 -0.130605 -0.991435
vn 0.000000 -0.130605 -0.991435
vn 0.000000 -0.382690 -0.923877
vn 0.000000 -0.382690 -0.923877
vn 0.000000 -0.382690 -0.923877
vn 0.000000 -0.382690 -0.923877
vn 0.000000 -0.608811 -0.793315
vn 0.000000 -0.608811 -0.793315
vn 0.000000 -0.608811 -0.793315
vn 0.000000 -0.608811 -0.793315
vn 0.000000 -0.793315 -0.608811
vn 0.000000 -0.793315 -0.608811
vn 0.000000 -0.793315 -0.608811
vn 0.000000 -0.793315 -0.608811
vn 0.000000 -0.923791 -0.382896
vn 0.000000 -0.923791 -0.382896
vn 0.000000 -0.923791 -0.382896
vn 0.000000 -0.923791 -0.382896
vn 0.000000 -0.991462 -0.130395
vn 0.000000 -0.991462 -0.130395
vn 0.000000 -0.991462 -0.130395
vn 0.000000 -0.991462 -0.130395
vn 0.000000 -0.991462 0.130395
vn 0.000000 -0.991462 0.130395
vn 0.000000 -0.991462 0.130395
vn 0.000000 -0.991462 0.130395
vn 0.000000 -0.923791 0.382896
vn 0.000000 -0.923791 0.382896
vn 0.000000 -0.923791 0.382896
vn 0.000000 -0.923791 0.382896
vn 0.000000 -0.793315 0.608811
vn 0.000000 -0.793315 0.608811
vn 0.000000 -0.793315 0.608811
vn 0.000000 -0.793315 0.608811
vn 0.000000 -0.608811 0.793315
vn 0.000000 -0.608811 0.793315
vn 0.000000 -0.608811 0.793315
vn 0.000000 -0.608811 0.793315
vn 0.000000 -0.382690 0.923877
vn 0.000000 -0.382690 0.923877
vn 0.000000 -0.382690 0.923877
vn 0.000000 -0.382690 0.923877
vn 0.000000 -0.130506 0.991448
vn 0.000000 -0.130506 0.991448
vn 0.000000 -0.130506 0.991448
vn 0.000000 -0.130506 0.991448
vn 1.000000 0.000000 0.000100
vn 1.000000 0.000000 0.000100
vn 1.000000 0.000000 0.000100
vn 1.000000 0.000000 0.000000
vn 1.000000 0.000000 0.000000
vn 1.000000 0.000000 0.000000
vn 1.000000 0.000000 0.000000
vn 1.000000 0.000000 0.000000
vn 1.000000 0.000000 0.000000
vn 1.000000 0.000000 0.000000
vn 1.000000 0.000000 0.000000
vn 1.000000 0.000000 0.000000
vn 1.000000 0.000000 0.000000
vn 1.000000 0.000000 0.000000
vn 1.000000 0.000000 0.000000
vn 1.000000 0.000000 0.000000
vn 1.000000 0.000000 0.000000
vn 1.000000 0.000000 0.000000
vn 1.000000 0.000000 0.000000
vn 1.000000 0.000000 0.000000
vn 1.000000 0.000000 0.000000
vn 1.000000 0.000000 0.000000
vn 1.000000 0.000000 0.000000
vn 1.000000 0.000000 0.000000
vn 1.000000 0.000000 0.000000
vn 1.000000 0.000000 0.000100
vn 1.000000 0.000000 0.000100
vn -1.000000 0.000000 0.000000
vn -1.000000 0.000000 0.000000
vn -1.000000 0.000000 0.000000
vn -1.000000 0.000000 0.000000
vn -1.000000 0.000000 0.000000
vn -1.000000 0.000000 0.000000
vn -1.000000 0.000000 0.000000
vn -1.000000 0.000000 0.000000
vn -1.000000 0.000000 0.000000
vn -1.000000 0.000000 0.000000
vn -1.000000 0.000000 0.000000
vn -1.000000 0.000000 0.000000
vn -1.000000 0.000000 0.000000
vn -1.000000 0.000000 0.000000
vn -1.000000 0.000000 0.000000
vn -1.000000 0.000000 0.000000
vn -1.000000 0.000000 0.000000
vn -1.000000 0.000000 0.000000
vn -1.000000 0.000000 0.000000
vn -1.000000 0.000000 0.000000
vn -1.000000 0.000000 0.000000
vn -1.000000 0.000000 0.000000
vn -1.000000 0.000000 0.000000
vn -1.000000 0.000000 0.000000
vn 0.000000 0.130605 0.991435
vn 0.000000 0.130605 0.991435
vn 0.000000 0.130605 0.991435
vn 0.000000 0.130506 0.991448
vn 0.000000 0.130506 0.991448
vn 0.000000 0.130506 0.991448
vn 0.000000 0.382690 0.923877
vn 0.000000 0.382690 0.923877
vn 0.000000 0.382690 0.923877
vn 0.000000 0.382690 0.923877
vn 0.000000 0.608700 0.793400
vn 0.000000 0.608700 0.793400
vn 0.000000 0.608700 0.793400
vn 0.000000 0.608700 0.793400
vn 0.000000 0.793315 0.608811
vn 0.000000 0.793315 0.608811
vn 0.000000 0.793315 0.608811
vn 0.000000 0.793315 0.608811
vn 0.000000 0.923912 0.382605
vn 0.000000 0.923912 0.382605
vn 0.000000 0.923912 0.382605
vn 0.000000 0.923912 0.382605
vn 0.000000 0.991422 0.130703
vn 0.000000 0.991422 0.130703
vn 0.000000 0.991422 0.130703
vn 0.000000 0.991422 0.130703
vn 0.000000 0.991422 -0.130703
vn 0.000000 0.991422 -0.130703
vn 0.000000 0.991422 -0.130703
vn 0.000000 0.991422 -0.130703
vn 0.000000 0.923912 -0.382605
vn 0.000000 0.923912 -0.382605
vn 0.000000 0.923912 -0.382605
vn 0.000000 0.923912 -0.382605
vn 0.000000 0.793315 -0.608811
vn 0.000000 0.793315 -0.608811
vn 0.000000 0.793315 -0.608811
vn 0.000000 0.793315 -0.608811
vn 0.000000 0.608700 -0.793400
vn 0.000000 0.608700 -0.793400
vn 0.000000 0.608700 -0.793400
vn 0.000000 0.608700 -0.793400
vn 0.000000 0.382690 -0.923877
vn 0.000000 0.382690 -0.923877
vn 0.000000 0.382690 -0.923877
vn 0.000000 0.382690 -0.923877
vn 0.000000 0.130506 -0.991448
vn 0.000000 0.130506 -0.991448
vn 0.000000 0.130506 -0.991448
vn 0.000000 0.130506 -0.991448
vn 0.000000 -0.130506 -0.991448
vn 0.000000 -0.130506 -0.991448
vn 0.000000 -0.130506 -0.991448
vn 0.000000 -0.130506 -0.991448
vn 0.000000 -0.382690 -0.923877
vn 0.000000 -0.382690 -0.923877
vn 0.000000 -0.382690 -0.923877
vn 0.000000 -0.382690 -0.923877
vn 0.000000 -0.608874 -0.793267
vn 0.000000 -0.608874 -0.793267
vn 0.000000 -0.608874 -0.793267
vn 0.000000 -0.608811 -0.793315
vn 0.000000 -0.608811 -0.793315
vn 0.000000 -0.608811 -0.793315
vn 0.000000 -0.793315 -0.608811
vn 0.000000 -0.793315 -0.608811
vn 0.000000 -0.793315 -0.608811
vn 0.000000 -0.793315 -0.608811
vn 0.000000 -0.923791 -0.382896
vn 0.000000 -0.923791 -0.382896
vn 0.000000 -0.923791 -0.382896
vn 0.000000 -0.923791 -0.382896
vn 0.000000 -0.991462 -0.130395
vn 0.000000 -0.991462 -0.130395
vn 0.000000 -0.991462 -0.130395
vn 0.000000 -0.991462 -0.130395
vn 0.000000 -0.991462 0.130395
vn 0.000000 -0.991462 0.130395
vn 0.000000 -0.991462 0.130395
vn 0.000000 -0.991462 0.130395
vn 0.000000 -0.923791 0.382896
vn 0.000000 -0.923791 0.382896
vn 0.000000 -0.923791 0.382896
vn 0.000000 -0.923791 0.382896
vn 0.000000 -0.793315 0.608811
vn 0.000000 -0.793315 0.608811
vn 0.000000 -0.793315 0.608811
vn 0.000000 -0.793315 0.608811
vn 0.000000 -0.608811 0.793315
vn 0.000000 -0.608811 0.793315
vn 0.000000 -0.608811 0.793315
vn 0.000000 -0.608874 0.793267
vn 0.000000 -0.608874 0.793267
vn 0.000000 -0.608874 0.793267
vn 0.000000 -0.382690 0.923877
vn 0.000000 -0.382690 0.923877
vn 0.000000 -0.382690 0.923877
vn 0.000000 -0.382690 0.923877
vn 0.000000 -0.130506 0.991448
vn 0.000000 -0.130506 0.991448
vn 0.000000 -0.130506 0.991448
vn 0.000000 -0.130605 0.991435
vn 0.000000 -0.130605 0.991435
vn 0.000000 -0.130605 0.991435
vn 1.000000 0.000000 -0.000100
vn 1.000000 0.000000 -0.000100
vn 1.000000 0.000000 -0.000100
vn 1.000000 0.000000 0.000000
vn 1.000000 0.000000 0.000000
vn 1.000000 0.000000 0.000000
vn 1.000000 0.000000 0.000000
vn 1.000000 0.000000 0.000000
vn 1.000000 0.000000 0.000000
vn 1.000000 0.000000 0.000000
vn 1.000000 0.000000 0.000000
vn 1.000000 0.000000 0.000000
vn 1.000000 0.000000 0.000000
vn 1.000000 0.000000 0.000000
vn 1.000000 0.000000 0.000000
vn 1.000000 0.000000 0.000000
vn 1.000000 0.000000 0.000000
vn 1.000000 0.000000 0.000000
vn 1.000000 0.000000 0.000000
vn 1.000000 0.000000 0.000000
vn 1.000000 0.000000 0.000000
vn 1.000000 0.000000 0.000000
vn 1.000000 0.000000 0.000000
vn 1.000000 0.000000 0.000000
vn 1.000000 0.000000 0.000000
vn 1.000000 0.000000 -0.000100
vn 1.000000 0.000000 -0.000100
vn 0.000000 -1.000000 0.000000
vn 0.000000 -1.000000 0.000000
vn 0.000000 -1.000000 0.000000
vn 0.000000 -1.000000 0.000000
vn 0.000000 0.000000 -1.000000
vn 0.000000 0.000000 -1.000000
vn 0.000000 0.000000 -1.000000
vn 0.000000 0.000000 -1.000000
vn 1.000000 0.000000 0.000000
vn 1.000000 0.000000 0.000000
vn 1.000000 0.000000 0.000000
vn 1.000000 0.000000 0.000000
vn 0.000000 0.000000 1.000000
vn 0.000000 0.000000 1.000000
vn 0.000000 0.000000 1.000000
vn 0.000000 0.000000 1.000000
vn -1.000000 0.000000 0.000000
vn -1.000000 0.000000 0.000000
vn -1.000000 0.000000 0.000000
vn -1.000000 0.000000 0.000000
vn 0.000000 1.000000 0.000000
vn 0.000000 1.000000 0.000000
vn 0.000000 1.000000 0.000000
vn 0.000000 1.000000 0.000000
vn 0.000000 -1.000000 0.000000
vn 0.000000 -1.000000 0.000000
vn 0.000000 -1.000000 0.000000
vn 0.000000 -1.000000 0.000000
vn 0.000000 0.000000 -1.000000
vn 0.000000 0.000000 -1.000000
vn 0.000000 0.000000 -1.000000
vn 0.000000 0.000000 -1.000000
vn 1.000000 0.000000 0.000000
vn 1.000000 0.000000 0.000000
vn 1.000000 0.000000 0.000000
vn 1.000000 0.000000 0.000000
vn 0.000000 0.000000 1.000000
vn 0.000000 0.000000 1.000000
vn 0.000000 0.000000 1.000000
vn 0.000000 0.000000 1.000000
vn -1.000000 0.000000 0.000000
vn -1.000000 0.000000 0.000000
vn -1.000000 0.000000 0.000000
vn -1.000000 0.000000 0.000000
vn 0.000000 1.000000 0.000000
vn 0.000000 1.000000 0.000000
vn 0.000000 1.000000 0.000000
vn 0.000000 1.000000 0.000000
f 1//1 2//2 3//3
f 1//1 3//3 4//4
f 5//5 6//6 7//7
f 5//5 7//7 8//8
f 9//9 10//10 11//11
f 9//9 11//11 12//12
f 13//13 14//14 15//15
f 13//13 15//15 16//16
f 17//17 18//18 19//19
f 17//17 19//19 20//20
f 21//21 22//22 23//23
f 21//21 23//23 24//24
f 25//25 26//26 27//27
f 25//25 27//27 28//28
f 29//29 30//30 31//31
f 29//29 31//31 32//32
f 33//33 34//34 35//35
f 33//33 35//35 36//36
f 37//37 38//38 39//39
f 37//37 39//39 40//40
f 41//41 42//42 43//43
f 41//41 43//43 44//44
f 45//45 46//46 47//47
f 45//45 47//47 48//48
f 49//49 50//50 51//51
f 49//49 51//51 52//52
f 53//53 54//54 55//55
f 53//53 55//55 56//56
f 57//57 58//58 59//59
f 57//57 59//59 60//60
f 61//61 62//62 63//63
f 61//61 63//63 64//64
f 65//65 66//66 67//67
f 65//65 67//67 68//68
f 69//69 70//70 71//71
f 69//69 71//71 72//72
f 73//73 74//74 75//75
f 73//73 75//75 76//76
f 77//77 78//78 79//79
f 77//77 79//79 80//80
f 81//81 82//82 83//83
f 81//81 83//83 84//84
f 85//85 86//86 87//87
f 85//85 87//87 88//88
f 89//89 90//90 91//91
f 89//89 91//91 92//92
f 93//93 94//94 95//95
f 93//93 95//95 96//96
f 97//97 98//98 99//99
f 100//100 97//97 99//99
f 97//97 100//100 101//101
f 102//102 99//99 98//98
f 103//103 102//102 98//98
f 102//102 103//103 104//104
f 104//104 97//97 101//101
f 101//101 102//102 104//104
f 105//105 106//106 107//107
f 108//108 105//105 107//107
f 105//105 108//108 109//109
f 110//110 107//107 106//106
f 111//111 110//110 106//106
f 110//110 111//111 112//112
f 112//112 105//105 109//109
f 109//109 110//110 112//112
f 113//113 114//114 115//115
f 113//113 115//115 116//116
f 117//117 118//118 119//119
f 117//117 119//119 120//120
f 121//121 122//122 123//123
f 121//121 123//123 124//124
f 125//125 126//126 127//127
f 125//125 127//127 128//128
f 129//129 130//130 131//131
f 129//129 131//131 132//132
f 133//133 134//134 135//135
f 133//133 135//135 136//136
f 137//137 138//138 139//139
f 137//137 139//139 140//140
f 141//141 142//142 143//143
f 141//141 143//143 144//144
f 145//145 146//146 147//147
f 148//148 145//145 147//147
f 149//149 150//150 151//151
f 152//152 145//145 153//153
f 149//149 154//154 155//155
f 156//156 145//145 157//157
f 145//145 156//156 158//158
f 159//159 145//145 158//158
f 145//145 159//159 160//160
f 161//161 145//145 160//160
f 145//145 161//161 162//162
f 163//163 145//145 162//162
f 145//145 163//163 164//164
f 165//165 149//149 166//166
f 167//167 168//168 169//169
f 170//170 167//167 169//169
f 145//145 171//171 172//172
f 173//173 145//145 172//172
f 167//167 174//174 175//175
f 176//176 145//145 177//177
f 145//145 176//176 178//178
f 178//178 179//179 145//145
f 180//180 181//181 182//182
f 180//180 182//182 183//183
f 184//184 185//185 186//186
f 184//184 186//186 187//187
f 188//188 189//189 190//190
f 188//188 190//190 191//191
f 192//192 193//193 194//194
f 192//192 194//194 195//195
f 196//196 197//197 198//198
f 196//196 198//198 199//199
f 200//200 201//201 202//202
f 200//200 202//202 203//203
f 204//204 205//205 206//206
f 204//204 206//206 207//207
f 208//208 209//209 210//210
f 208//208 210//210 211//211
f 212//212 213//213 214//214
f 212//212 214//214 215//215
f 216//216 217//217 218//218
f 216//216 218//218 219//219
f 220//220 221//221 222//222
f 220//220 222//222 223//223
f 224//224 225//225 226//226
f 224//224 226//226 227//227
f 228//228 229//229 230//230
f 228//228 230//230 231//231
f 232//232 233//233 234//234
f 232//232 234//234 235//235
f 236//236 237//237 238//238
f 236//236 238//238 239//239
f 240//240 241//241 242//242
f 240//240 242//242 243//243
f 244//244 245//245 246//246
f 244//244 246//246 247//247
f 248//248 249//249 250//250
f 248//248 250//250 251//251
f 252//252 253//253 254//254
f 252//252 254//254 255//255
f 256//256 257//257 258//258
f 256//256 258//258 259//259
f 260//260 261//261 262//262
f 260//260 262//262 263//263
f 264//264 265//265 266//266
f 264//264 266//266 267//267
f 268//268 269//269 270//270
f 268//268 270//270 271//271
f 272//272 273//273 274//274
f 272//272 274//274 275//275
f 276//276 277//277 278//278
f 279//279 276//276 278//278
f 280//280 281//281 282//282
f 283//283 276//276 284//284
f 285//285 286//286 287//287
f 288//288 276//276 289//289
f 276//276 288//288 290//290
f 291//291 285//285 292//292
f 280//280 293//293 294//294
f 295//295 276//276 296//296
f 276//276 295//295 297//297
f 298//298 276//276 297//297
f 276//276 298//298 299//299
f 300//300 276//276 299//299
f 276//276 300//300 301//301
f 302//302 276//276 301//301
f 280//280 303//303 304//304
f 305//305 306//306 307//307
f 280//280 308//308 309//309
f 310//310 276//276 311//311
f 276//276 310//310 312//312
f 312//312 313//313 276//276
f 314//314 315//315 316//316
f 317//317 314//314 316//316
f 314//314 317//317 318//318
f 318//318 316//316 315//315
f 319//319 318//318 315//315
f 314//314 318//318 319//319
f 320//320 321//321 322//322
f 323//323 320//320 322//322
f 320//320 323//323 324//324
f 324//324 322//322 321//321
f 325//325 324//324 321//321
f 324//324 325//325 320//320
f 326//326 327//327 328//328
f 326//326 328//328 329//329
f 330//330 331//331 332//332
f 330//330 332//332 333//333
f 334//334 335//335 336//336
f 334//334 336//336 337//337
f 338//338 339//339 340//340
f 338//338 340//340 341//341
f 342//342 343//343 344//344
f 342//342 344//344 345//345
f 346//346 347//347 348//348
f 346//346 348//348 349//349
f 350//350 351//351 352//352
f 353//353 350//350 352//352
f 350//350 353//353 354//354
f 355//355 350//350 354//354
f 350//350 355//355 356//356
f 357//357 350//350 356//356
f 350//350 357//357 358//358
f 359//359 350//350 358//358
f 350//350 359//359 360//360
f 361//361 350//350 360//360
f 350//350 361//361 362//362
f 363//363 350//350 362//362
f 350//350 363//363 364//364
f 365//365 350//350 364//364
f 350//350 365//365 366//366
f 367//367 350//350 366//366
f 350//350 367//367 368//368
f 369//369 350//350 368//368
f 350//350 369//369 370//370
f 371//371 350//350 370//370
f 350//350 371//371 372//372
f 372//372 373//373 350//350
f 374//374 375//375 376//376
f 374//374 376//376 377//377
f 378//378 379//379 380//380
f 378//378 380//380 381//381
f 382//382 383//383 384//384
f 382//382 384//384 385//385
f 386//386 387//387 388//388
f 386//386 388//388 389//389
f 390//390 391//391 392//392
f 390//390 392//392 393//393
f 394//394 395//395 396//396
f 394//394 396//396 397//397
f 398//398 399//399 400//400
f 398//398 400//400 401//401
f 402//402 403//403 404//404
f 402//402 404//404 405//405
f 406//406 407//407 408//408
f 406//406 408//408 409//409
f 410//410 411//411 412//412
f 410//410 412//412 413//413
f 414//414 415//415 416//416
f 414//414 416//416 417//417
f 418//418 419//419 420//420
f 421//421 422//422 423//423
f 424//424 425//425 426//426
f 427//427 428//428 429//429
f 430//430 431//431 432//432
f 430//430 432//432 433//433
f 434//434 435//435 436//436
f 434//434 436//436 437//437
f 438//438 439//439 440//440
f 438//438 440//440 441//441
f 442//442 443//443 444//444
f 442//442 444//444 445//445
f 446//446 447//447 448//448
f 446//446 448//448 449//449
f 450//450 451//451 452//452
f 450//450 452//452 453//453
f 454//454 455//455 456//456
f 454//454 456//456 457//457
f 458//458 459//459 460//460
f 458//458 460//460 461//461
f 462//462 463//463 464//464
f 462//462 464//464 465//465
f 466//466 467//467 468//468
f 466//466 468//468 469//469
f 470//470 471//471 472//472
f 470//470 472//472 473//473
f 474//474 475//475 476//476
f 477//477 478//478 479//479
f 478//478 477//477 480//480
f 481//481 478//478 480//480
f 478//478 481//481 482//482
f 483//483 478//478 482//482
f 478//478 483//483 484//484
f 485//485 478//478 484//484
f 478//478 485//485 486//486
f 487//487 478//478 486//486
f 478//478 487//487 488//488
f 489//489 478//478 488//488
f 478//478 489//489 490//490
f 491//491 478//478 490//490
f 478//478 491//491 492//492
f 493//493 478//478 492//492
f 478//478 493//493 494//494
f 495//495 478//478 494//494
f 478//478 495//495 496//496
f 497//497 478//478 496//496
f 478//478 497//497 498//498
f 499//499 500//500 474//474
f 501//501 502//502 503//503
f 504//504 501//501 503//503
f 501//501 504//504 505//505
f 506//506 501//501 505//505
f 501//501 506//506 507//507
f 508//508 501//501 507//507
f 501//501 508//508 509//509
f 510//510 501//501 509//509
f 501//501 510//510 511//511
f 512//512 501//501 511//511
f 501//501 512//512 513//513
f 514//514 501//501 513//513
f 501//501 514//514 515//515
f 516//516 501//501 515//515
f 501//501 516//516 517//517
f 518//518 501//501 517//517
f 501//501 518//518 519//519
f 520//520 501//501 519//519
f 501//501 520//520 521//521
f 522//522 501//501 521//521
f 501//501 522//522 523//523
f 523//523 524//524 501//501
f 525//525 526//526 527//527
f 528//528 529//529 530//530
f 531//531 532//532 533//533
f 531//531 533//533 534//534
f 535//535 536//536 537//537
f 535//535 537//537 538//538
f 539//539 540//540 541//541
f 539//539 541//541 542//542
f 543//543 544//544 545//545
f 543//543 545//545 546//546
f 547//547 548//548 549//549
f 547//547 549//549 550//550
f 551//551 552//552 553//553
f 551//551 553//553 554//554
f 555//555 556//556 557//557
f 555//555 557//557 558//558
f 559//559 560//560 561//561
f 559//559 561//561 562//562
f 563//563 564//564 565//565
f 563//563 565//565 566//566
f 567//567 568//568 569//569
f 567//567 569//569 570//570
f 571//571 572//572 573//573
f 571//571 573//573 574//574
f 575//575 576//576 577//577
f 575//575 577//577 578//578
f 579//579 580//580 581//581
f 579//579 581//581 582//582
f 583//583 584//584 585//585
f 586//586 587//587 588//588
f 589//589 590//590 591//591
f 589//589 591//591 592//592
f 593//593 594//594 595//595
f 593//593 595//595 596//596
f 597//597 598//598 599//599
f 597//597 599//599 600//600
f 601//601 602//602 603//603
f 601//601 603//603 604//604
f 605//605 606//606 607//607
f 605//605 607//607 608//608
f 609//609 610//610 611//611
f 609//609 611//611 612//612
f 613//613 614//614 615//615
f 616//616 617//617 618//618
f 619//619 620//620 621//621
f 619//619 621//621 622//622
f 623//623 624//624 625//625
f 626//626 627//627 628//628
f 629//629 630//630 631//631
f 632//632 633//633 634//634
f 633//633 632//632 635//635
f 636//636 633//633 635//635
f 633//633 636//636 637//637
f 638//638 633//633 637//637
f 633//633 638//638 639//639
f 640//640 633//633 639//639
f 633//633 640//640 641//641
f 642//642 633//633 641//641
f 633//633 642//642 643//643
f 644//644 633//633 643//643
f 633//633 644//644 645//645
f 646//646 633//633 645//645
f 633//633 646//646 647//647
f 648//648 633//633 647//647
f 633//633 648//648 649//649
f 650//650 633//633 649//649
f 633//633 650//650 651//651
f 652//652 633//633 651//651
f 633//633 652//652 653//653
f 654//654 655//655 629//629
f 656//656 657//657 658//658
f 656//656 658//658 659//659
f 660//660 661//661 662//662
f 660//660 662//662 663//663
f 664//664 665//665 666//666
f 664//664 666//666 667//667
f 668//668 669//669 670//670
f 668//668 670//670 671//671
f 672//672 673//673 674//674
f 672//672 674//674 675//675
f 676//676 677//677 678//678
f 676//676 678//678 679//679
f 680//680 681//681 682//682
f 680//680 682//682 683//683
f 684//684 685//685 686//686
f 684//684 686//686 687//687
f 688//688 689//689 690//690
f 688//688 690//690 691//691
f 692//692 693//693 694//694
f 692//692 694//694 695//695
f 696//696 697//697 698//698
f 696//696 698//698 699//699
f 700//700 701//701 702//702
f 700//700 702//702 703//703
