mtllib Satelite.mtl
o SatelitePanel1Soporte
usemtl ACE
v 307.914934 -2.236624 -60.281859
v 307.914934 -2.236624 55.215364
v 16.404375 -2.236624 55.215364
v 16.404375 -2.236624 -60.281859
v 16.404375 1.456003 55.215364
v 307.914934 1.456003 55.215364
v 307.914934 1.456003 -60.281859
v 16.404375 1.456003 -60.281859
v 307.914934 -2.236624 55.215364
v 307.914934 2.059275 55.215364
v 16.404375 2.059275 55.215364
v 16.404375 -2.236624 55.215364
v 16.404375 -2.236624 -60.281859
v 16.404375 2.059275 -60.281859
v 307.914934 2.059275 -60.281859
v 307.914934 -2.236624 -60.281859
v 307.914934 -2.236624 -60.281859
v 307.914934 2.059275 -60.281859
v 307.914934 2.059275 55.215364
v 307.914934 -2.236624 55.215364
v 16.404375 -2.236624 55.215364
v 16.404375 2.059275 55.215364
v 16.404375 2.059275 -60.281859
v 16.404375 -2.236624 -60.281859
v 141.780046 4.254832 2.982233
v 141.780046 4.254832 -7.666865
v 141.780046 -0.004690 -7.666865
v 141.780046 -0.004690 2.982233
v 155.491960 4.254832 2.982233
v 141.780046 4.254832 2.982233
v 141.780046 -0.004690 2.982233
v 155.491960 -0.004690 2.982233
v 155.491960 4.254832 -7.666865
v 141.780046 4.254832 -7.666865
v 141.780046 4.254832 2.982233
v 155.491960 4.254832 2.982233
v 155.491960 -0.004690 -7.666865
v 141.780046 -0.004690 -7.666865
v 141.780046 4.254832 -7.666865
v 155.491960 4.254832 -7.666865
v 155.491960 -0.004690 2.982233
v 141.780046 -0.004690 2.982233
v 141.780046 -0.004690 -7.666865
v 155.491960 -0.004690 -7.666865
v 155.491960 -0.004690 -7.666865
v 155.491960 4.254832 -7.666865
v 155.491960 4.254832 2.982233
v 155.491960 -0.004690 2.982233
v 177.095964 -0.004690 -7.666865
v 177.095964 4.254832 -7.666865
v 177.095964 4.254832 2.982233
v 177.095964 -0.004690 2.982233
v 177.095964 -0.004690 2.982233
v 177.095964 4.254832 2.982233
v 163.384050 4.254832 2.982233
v 163.384050 -0.004690 2.982233
v 177.095964 4.254832 2.982233
v 177.095964 4.254832 -7.666865
v 163.384050 4.254832 -7.666865
v 163.384050 4.254832 2.982233
v 177.095964 4.254832 -7.666865
v 177.095964 -0.004690 -7.666865
v 163.384050 -0.004690 -7.666865
v 163.384050 4.254832 -7.666865
v 177.095964 -0.004690 -7.666865
v 177.095964 -0.004690 2.982233
v 163.384050 -0.004690 2.982233
v 163.384050 -0.004690 -7.666865
v 163.384050 4.254832 2.982233
v 163.384050 4.254832 -7.666865
v 163.384050 -0.004690 -7.666865
v 163.384050 -0.004690 2.982233
v 310.920458 2.545847 -62.240267
v 13.491106 2.545847 -62.240267
v 19.752779 2.545847 -57.022207
v 304.658800 2.545847 -57.022207
v 304.658800 2.545847 51.513410
v 19.752779 2.545847 51.513410
v 13.491106 2.545847 57.775083
v 310.920458 2.545847 57.775083
v 13.491106 -2.716848 57.775083
v 13.491106 -2.716848 -62.240267
v 19.752779 -2.716848 -57.022207
v 19.752779 -2.716848 51.513410
v 304.658800 -2.716848 51.513410
v 304.658800 -2.716848 -57.022207
v 310.920458 -2.716848 -62.240267
v 310.920458 -2.716848 57.775083
v 19.752779 2.545847 51.513410
v 19.752779 -2.716848 51.513410
v 19.752779 -2.716848 -57.022207
v 19.752779 2.545847 -57.022207
v 19.752779 2.545847 -57.022207
v 19.752779 -2.716848 -57.022207
v 304.658800 -2.716848 -57.022207
v 304.658800 2.545847 -57.022207
v 304.658800 2.545847 51.513410
v 304.658800 -2.716848 51.513410
v 19.752779 -2.716848 51.513410
v 19.752779 2.545847 51.513410
v 310.920458 -2.716848 -62.240267
v 310.920458 2.545847 -62.240267
v 310.920458 2.545847 57.775083
v 310.920458 -2.716848 57.775083
v 310.920458 -2.716848 57.775083
v 310.920458 2.545847 57.775083
v 13.491106 2.545847 57.775083
v 13.491106 -2.716848 57.775083
v 310.920458 2.545847 -62.240267
v 310.920458 -2.716848 -62.240267
v 13.491106 -2.716848 -62.240267
v 13.491106 2.545847 -62.240267
v 13.491106 2.545847 57.775083
v 13.491106 2.545847 -62.240267
v 13.491106 -2.716848 -62.240267
v 13.491106 -2.716848 57.775083
v 304.651506 -2.716848 -57.022207
v 304.651506 -2.716848 51.513410
v 304.651506 2.545847 51.513410
v 304.651506 2.545847 -57.022207
v 2.841494 -0.000295 55.387598
v 2.744722 0.734812 55.387598
v 2.460955 1.419871 55.387598
v 2.009569 2.008250 55.387598
v 1.421297 2.459666 55.387598
v 0.736254 2.743357 55.387598
v 0.001085 2.840281 55.387598
v -0.734053 2.743357 55.387598
v -1.419111 2.459666 55.387598
v -2.007383 2.008250 55.387598
v -2.458769 1.419871 55.387598
v -2.742521 0.734812 55.387598
v -2.839308 -0.000295 55.387598
v -2.742521 -0.735403 55.387598
v -2.458769 -1.420461 55.387598
v -2.007383 -2.008596 55.387598
v -1.419111 -2.460012 55.387598
v -0.734053 -2.743948 55.387598
v 0.001085 -2.840627 55.387598
v 0.736254 -2.743948 55.387598
v 1.421297 -2.460012 55.387598
v 2.009569 -2.008596 55.387598
v 2.460955 -1.420461 55.387598
v 2.744722 -0.735403 55.387598
v 2.744722 0.734812 44.026003
v 2.744722 0.734812 55.387598
v 2.841494 -0.000295 55.387598
v 2.841494 -0.000295 44.026003
v 2.460955 1.419871 44.026003
v 2.460955 1.419871 55.387598
v 2.744722 0.734812 55.387598
v 2.744722 0.734812 44.026003
v 2.009569 2.008250 44.026003
v 2.009569 2.008250 55.387598
v 2.460955 1.419871 55.387598
v 2.460955 1.419871 44.026003
v 1.421297 2.459666 44.026003
v 1.421297 2.459666 55.387598
v 2.009569 2.008250 55.387598
v 2.009569 2.008250 44.026003
v 0.736254 2.743357 44.026003
v 0.736254 2.743357 55.387598
v 1.421297 2.459666 55.387598
v 1.421297 2.459666 44.026003
v 0.001085 2.840281 44.026003
v 0.001085 2.840281 55.387598
v 0.736254 2.743357 55.387598
v 0.736254 2.743357 44.026003
v -0.734053 2.743357 55.387598
v 0.001085 2.840281 55.387598
v 0.001085 2.840281 44.026003
v -0.734053 2.743357 44.026003
v -1.419111 2.459666 55.387598
v -0.734053 2.743357 55.387598
v -0.734053 2.743357 44.026003
v -1.419111 2.459666 44.026003
v -2.007383 2.008250 55.387598
v -1.419111 2.459666 55.387598
v -1.419111 2.459666 44.026003
v -2.007383 2.008250 44.026003
v -2.458769 1.419871 55.387598
v -2.007383 2.008250 55.387598
v -2.007383 2.008250 44.026003
v -2.458769 1.419871 44.026003
v -2.742521 0.734812 55.387598
v -2.458769 1.419871 55.387598
v -2.458769 1.419871 44.026003
v -2.742521 0.734812 44.026003
v -2.839308 -0.000295 55.387598
v -2.742521 0.734812 55.387598
v -2.742521 0.734812 44.026003
v -2.839308 -0.000295 44.026003
v -2.742521 -0.735403 55.387598
v -2.839308 -0.000295 55.387598
v -2.839308 -0.000295 44.026003
v -2.742521 -0.735403 44.026003
v -2.458769 -1.420461 55.387598
v -2.742521 -0.735403 55.387598
v -2.742521 -0.735403 44.026003
v -2.458769 -1.420461 44.026003
v -2.007383 -2.008596 55.387598
v -2.458769 -1.420461 55.387598
v -2.458769 -1.420461 44.026003
v -2.007383 -2.008596 44.026003
v -1.419111 -2.460012 55.387598
v -2.007383 -2.008596 55.387598
v -2.007383 -2.008596 44.026003
v -1.419111 -2.460012 44.026003
v -0.734053 -2.743948 55.387598
v -1.419111 -2.460012 55.387598
v -1.419111 -2.460012 44.026003
v -0.734053 -2.743948 44.026003
v 0.001085 -2.840627 55.387598
v -0.734053 -2.743948 55.387598
v -0.734053 -2.743948 44.026003
v 0.001085 -2.840627 44.026003
v 0.736254 -2.743948 44.026003
v 0.736254 -2.743948 55.387598
v 0.001085 -2.840627 55.387598
v 0.001085 -2.840627 44.026003
v 1.421297 -2.460012 44.026003
v 1.421297 -2.460012 55.387598
v 0.736254 -2.743948 55.387598
v 0.736254 -2.743948 44.026003
v 2.009569 -2.008596 44.026003
v 2.009569 -2.008596 55.387598
v 1.421297 -2.460012 55.387598
v 1.421297 -2.460012 44.026003
v 2.460955 -1.420461 44.026003
v 2.460955 -1.420461 55.387598
v 2.009569 -2.008596 55.387598
v 2.009569 -2.008596 44.026003
v 2.744722 -0.735403 44.026003
v 2.744722 -0.735403 55.387598
v 2.460955 -1.420461 55.387598
v 2.460955 -1.420461 44.026003
v 2.841494 -0.000295 44.026003
v 2.841494 -0.000295 55.387598
v 2.744722 -0.735403 55.387598
v 2.744722 -0.735403 44.026003
v 2.841494 -0.000295 44.026003
v 2.744722 -0.735403 44.026003
v 2.460955 -1.420461 44.026003
v 2.009569 -2.008596 44.026003
v 1.421297 -2.460012 44.026003
v 0.736254 -2.743948 44.026003
v 0.001085 -2.840627 44.026003
v -0.734053 -2.743948 44.026003
v -1.419111 -2.460012 44.026003
v -2.007383 -2.008596 44.026003
v -2.458769 -1.420461 44.026003
v -2.742521 -0.735403 44.026003
v -2.839308 -0.000295 44.026003
v -2.742521 0.734812 44.026003
v -2.458769 1.419871 44.026003
v -2.007383 2.008250 44.026003
v -1.419111 2.459666 44.026003
v -0.734053 2.743357 44.026003
v 0.001085 2.840281 44.026003
v 0.736254 2.743357 44.026003
v 1.421297 2.459666 44.026003
v 2.009569 2.008250 44.026003
v 2.460955 1.419871 44.026003
v 2.744722 0.734812 44.026003
v 2.841494 -0.000295 -44.736498
v 2.744707 0.734812 -44.736498
v 2.460955 1.419871 -44.736498
v 2.009569 2.008250 -44.736498
v 1.421297 2.459666 -44.736498
v 0.736254 2.743357 -44.736498
v 0.001085 2.840281 -44.736498
v -0.734068 2.743357 -44.736498
v -1.419111 2.459666 -44.736498
v -2.007383 2.008250 -44.736498
v -2.458769 1.419871 -44.736498
v -2.742521 0.734812 -44.736498
v -2.839308 -0.000295 -44.736498
v -2.742521 -0.735403 -44.736498
v -2.458769 -1.420461 -44.736498
v -2.007383 -2.008596 -44.736498
v -1.419111 -2.460012 -44.736498
v -0.734068 -2.743948 -44.736498
v 0.001085 -2.840627 -44.736498
v 0.736254 -2.743948 -44.736498
v 1.421297 -2.460012 -44.736498
v 2.009569 -2.008596 -44.736498
v 2.460955 -1.420461 -44.736498
v 2.744707 -0.735403 -44.736498
v 2.744707 0.734812 -55.388002
v 2.744707 0.734812 -44.736498
v 2.841494 -0.000295 -44.736498
v 2.841494 -0.000295 -55.388002
v 2.460955 1.419871 -55.388002
v 2.460955 1.419871 -44.736498
v 2.744707 0.734812 -44.736498
v 2.744707 0.734812 -55.388002
v 2.009569 2.008250 -55.388002
v 2.009569 2.008250 -44.736498
v 2.460955 1.419871 -44.736498
v 2.460955 1.419871 -55.388002
v 1.421297 2.459666 -55.388002
v 1.421297 2.459666 -44.736498
v 2.009569 2.008250 -44.736498
v 2.009569 2.008250 -55.388002
v 0.736254 2.743357 -55.388002
v 0.736254 2.743357 -44.736498
v 1.421297 2.459666 -44.736498
v 1.421297 2.459666 -55.388002
v 0.001085 2.840281 -55.388002
v 0.001085 2.840281 -44.736498
v 0.736254 2.743357 -44.736498
v 0.736254 2.743357 -55.388002
v -0.734068 2.743357 -44.736498
v 0.001085 2.840281 -44.736498
v 0.001085 2.840281 -55.388002
v -0.734068 2.743357 -55.388002
v -1.419111 2.459666 -44.736498
v -0.734068 2.743357 -44.736498
v -0.734068 2.743357 -55.388002
v -1.419111 2.459666 -55.388002
v -2.007383 2.008250 -44.736498
v -1.419111 2.459666 -44.736498
v -1.419111 2.459666 -55.388002
v -2.007383 2.008250 -55.388002
v -2.458769 1.419871 -44.736498
v -2.007383 2.008250 -44.736498
v -2.007383 2.008250 -55.388002
v -2.458769 1.419871 -55.388002
v -2.742521 0.734812 -44.736498
v -2.458769 1.419871 -44.736498
v -2.458769 1.419871 -55.388002
v -2.742521 0.734812 -55.388002
v -2.839308 -0.000295 -44.736498
v -2.742521 0.734812 -44.736498
v -2.742521 0.734812 -55.388002
v -2.839308 -0.000295 -55.388002
v -2.742521 -0.735403 -44.736498
v -2.839308 -0.000295 -44.736498
v -2.839308 -0.000295 -55.388002
v -2.742521 -0.735403 -55.388002
v -2.458769 -1.420461 -44.736498
v -2.742521 -0.735403 -44.736498
v -2.742521 -0.735403 -55.388002
v -2.458769 -1.420461 -55.388002
v -2.007383 -2.008596 -44.736498
v -2.458769 -1.420461 -44.736498
v -2.458769 -1.420461 -55.388002
v -2.007383 -2.008596 -55.388002
v -1.419111 -2.460012 -44.736498
v -2.007383 -2.008596 -44.736498
v -2.007383 -2.008596 -55.388002
v -1.419111 -2.460012 -55.388002
v -0.734068 -2.743948 -44.736498
v -1.419111 -2.460012 -44.736498
v -1.419111 -2.460012 -55.388002
v -0.734068 -2.743948 -55.388002
v 0.001085 -2.840627 -44.736498
v -0.734068 -2.743948 -44.736498
v -0.734068 -2.743948 -55.388002
v 0.001085 -2.840627 -55.388002
v 0.736254 -2.743948 -55.388002
v 0.736254 -2.743948 -44.736498
v 0.001085 -2.840627 -44.736498
v 0.001085 -2.840627 -55.388002
v 1.421297 -2.460012 -55.388002
v 1.421297 -2.460012 -44.736498
v 0.736254 -2.743948 -44.736498
v 0.736254 -2.743948 -55.388002
v 2.009569 -2.008596 -55.388002
v 2.009569 -2.008596 -44.736498
v 1.421297 -2.460012 -44.736498
v 1.421297 -2.460012 -55.388002
v 2.460955 -1.420461 -55.388002
v 2.460955 -1.420461 -44.736498
v 2.009569 -2.008596 -44.736498
v 2.009569 -2.008596 -55.388002
v 2.744707 -0.735403 -55.388002
v 2.744707 -0.735403 -44.736498
v 2.460955 -1.420461 -44.736498
v 2.460955 -1.420461 -55.388002
v 2.841494 -0.000295 -55.388002
v 2.841494 -0.000295 -44.736498
v 2.744707 -0.735403 -44.736498
v 2.744707 -0.735403 -55.388002
v 2.841494 -0.000295 -55.388002
v 2.744707 -0.735403 -55.388002
v 2.460955 -1.420461 -55.388002
v 2.009569 -2.008596 -55.388002
v 1.421297 -2.460012 -55.388002
v 0.736254 -2.743948 -55.388002
v 0.001085 -2.840627 -55.388002
v -0.734068 -2.743948 -55.388002
v -1.419111 -2.460012 -55.388002
v -2.007383 -2.008596 -55.388002
v -2.458769 -1.420461 -55.388002
v -2.742521 -0.735403 -55.388002
v -2.839308 -0.000295 -55.388002
v -2.742521 0.734812 -55.388002
v -2.458769 1.419871 -55.388002
v -2.007383 2.008250 -55.388002
v -1.419111 2.459666 -55.388002
v -0.734068 2.743357 -55.388002
v 0.001085 2.840281 -55.388002
v 0.736254 2.743357 -55.388002
v 1.421297 2.459666 -55.388002
v 2.009569 2.008250 -55.388002
v 2.460955 1.419871 -55.388002
v 2.744707 0.734812 -55.388002
v -3.549406 -7.811331 44.736101
v 0.001085 -7.811331 44.736101
v 0.001085 -7.811331 54.677500
v -3.549406 -7.811331 54.677500
v -3.549406 7.810740 54.677500
v -3.549406 7.810740 44.736101
v -3.549406 -7.811331 44.736101
v -3.549406 -7.811331 54.677500
v -3.549406 7.810740 44.736101
v 0.001085 7.810740 44.736101
v 0.001085 -7.811331 44.736101
v -3.549406 -7.811331 44.736101
v 0.001085 -7.811331 44.736101
v 0.001085 7.810740 44.736101
v 0.001085 7.810740 54.677500
v 0.001085 -7.811331 54.677500
v 0.001085 -7.811331 54.677500
v 0.001085 7.810740 54.677500
v -3.549406 7.810740 54.677500
v -3.549406 -7.811331 54.677500
v 0.001085 7.810740 54.677500
v 0.001085 7.810740 44.736101
v -3.549406 7.810740 44.736101
v -3.549406 7.810740 54.677500
v -3.549406 -7.811331 -54.677900
v 0.001116 -7.811331 -54.677900
v 0.001116 -7.811331 -45.446600
v -3.549406 -7.811331 -45.446600
v -3.549406 7.810740 -45.446600
v -3.549406 7.810740 -54.677900
v -3.549406 -7.811331 -54.677900
v -3.549406 -7.811331 -45.446600
v -3.549406 7.810740 -54.677900
v 0.001116 7.810740 -54.677900
v 0.001116 -7.811331 -54.677900
v -3.549406 -7.811331 -54.677900
v 0.001116 -7.811331 -54.677900
v 0.001116 7.810740 -54.677900
v 0.001116 7.810740 -45.446600
v 0.001116 -7.811331 -45.446600
v 0.001116 -7.811331 -45.446600
v 0.001116 7.810740 -45.446600
v -3.549406 7.810740 -45.446600
v -3.549406 -7.811331 -45.446600
v 0.001116 7.810740 -45.446600
v 0.001116 7.810740 -54.677900
v -3.549406 7.810740 -54.677900
v -3.549406 7.810740 -45.446600
vn 0.000000 -1.000000 0.000000
vn 0.000000 -1.000000 0.000000
vn 0.000000 -1.000000 0.000000
vn 0.000000 -1.000000 0.000000
vn 0.000000 1.000000 0.000000
vn 0.000000 1.000000 0.000000
vn 0.000000 1.000000 0.000000
vn 0.000000 1.000000 0.000000
vn 0.000000 0.000000 1.000000
vn 0.000000 0.000000 1.000000
vn 0.000000 0.000000 1.000000
vn 0.000000 0.000000 1.000000
vn 0.000000 0.000000 -1.000000
vn 0.000000 0.000000 -1.000000
vn 0.000000 0.000000 -1.000000
vn 0.000000 0.000000 -1.000000
vn 1.000000 0.000000 0.000000
vn 1.000000 0.000000 0.000000
vn 1.000000 0.000000 0.000000
vn 1.000000 0.000000 0.000000
vn -1.000000 0.000000 0.000000
vn -1.000000 0.000000 0.000000
vn -1.000000 0.000000 0.000000
vn -1.000000 0.000000 0.000000
vn -1.000000 0.000000 0.000000
vn -1.000000 0.000000 0.000000
vn -1.000000 0.000000 0.000000
vn -1.000000 0.000000 0.000000
vn 0.000000 0.000000 1.000000
vn 0.000000 0.000000 1.000000
vn 0.000000 0.000000 1.000000
vn 0.000000 0.000000 1.000000
vn 0.000000 1.000000 0.000000
vn 0.000000 1.000000 0.000000
vn 0.000000 1.000000 0.000000
vn 0.000000 1.000000 0.000000
vn 0.000000 0.000000 -1.000000
vn 0.000000 0.000000 -1.000000
vn 0.000000 0.000000 -1.000000
vn 0.000000 0.000000 -1.000000
vn 0.000000 -1.000000 0.000000
vn 0.000000 -1.000000 0.000000
vn 0.000000 -1.000000 0.000000
vn 0.000000 -1.000000 0.000000
vn 1.000000 0.000000 0.000000
vn 1.000000 0.000000 0.000000
vn 1.000000 0.000000 0.000000
vn 1.000000 0.000000 0.000000
vn 1.000000 0.000000 0.000000
vn 1.000000 0.000000 0.000000
vn 1.000000 0.000000 0.000000
vn 1.000000 0.000000 0.000000
vn 0.000000 0.000000 1.000000
vn 0.000000 0.000000 1.000000
vn 0.000000 0.000000 1.000000
vn 0.000000 0.000000 1.000000
vn 0.000000 1.000000 0.000000
vn 0.000000 1.000000 0.000000
vn 0.000000 1.000000 0.000000
vn 0.000000 1.000000 0.000000
vn 0.000000 0.000000 -1.000000
vn 0.000000 0.000000 -1.000000
vn 0.000000 0.000000 -1.000000
vn 0.000000 0.000000 -1.000000
vn 0.000000 -1.000000 0.000000
vn 0.000000 -1.000000 0.000000
vn 0.000000 -1.000000 0.000000
vn 0.000000 -1.000000 0.000000
vn -1.000000 0.000000 0.000000
vn -1.000000 0.000000 0.000000
vn -1.000000 0.000000 0.000000
vn -1.000000 0.000000 0.000000
vn 0.000000 1.000000 0.000000
vn 0.000000 1.000000 0.000000
vn 0.000000 1.000000 0.000000
vn 0.000000 1.000000 0.000000
vn 0.000000 1.000000 0.000000
vn 0.000000 1.000000 0.000000
vn 0.000000 1.000000 0.000000
vn 0.000000 1.000000 0.000000
vn 0.000000 -1.000000 0.000000
vn 0.000000 -1.000000 0.000000
vn 0.000000 -1.000000 0.000000
vn 0.000000 -1.000000 0.000000
vn 0.000000 -1.000000 0.000000
vn 0.000000 -1.000000 0.000000
vn 0.000000 -1.000000 0.000000
vn 0.000000 -1.000000 0.000000
vn 1.000000 0.000000 0.000000
vn 1.000000 0.000000 0.000000
vn 1.000000 0.000000 0.000000
vn 1.000000 0.000000 0.000000
vn 0.000000 0.000000 1.000000
vn 0.000000 0.000000 1.000000
vn 0.000000 0.000000 1.000000
vn 0.000000 0.000000 1.000000
vn 0.000000 0.000000 -1.000000
vn 0.000000 0.000000 -1.000000
vn 0.000000 0.000000 -1.000000
vn 0.000000 0.000000 -1.000000
vn 1.000000 0.000000 0.000000
vn 1.000000 0.000000 0.000000
vn 1.000000 0.000000 0.000000
vn 1.000000 0.000000 0.000000
vn 0.000000 0.000000 1.000000
vn 0.000000 0.000000 1.000000
vn 0.000000 0.000000 1.000000
vn 0.000000 0.000000 1.000000
vn 0.000000 0.000000 -1.000000
vn 0.000000 0.000000 -1.000000
vn 0.000000 0.000000 -1.000000
vn 0.000000 0.000000 -1.000000
vn -1.000000 0.000000 0.000000
vn -1.000000 0.000000 0.000000
vn -1.000000 0.000000 0.000000
vn -1.000000 0.000000 0.000000
vn -1.000000 0.000000 0.000000
vn -1.000000 0.000000 0.000000
vn -1.000000 0.000000 0.000000
vn -1.000000 0.000000 0.000000
vn 0.000000 0.000000 1.000000
vn 0.000000 0.000000 1.000000
vn 0.000000 0.000000 1.000000
vn 0.000000 0.000000 1.000000
vn 0.000000 0.000000 1.000000
vn 0.000000 0.000000 1.000000
vn 0.000000 0.000000 1.000000
vn 0.000000 0.000000 1.000000
vn 0.000000 0.000000 1.000000
vn 0.000000 0.000000 1.000000
vn 0.000000 0.000000 1.000000
vn 0.000000 0.000000 1.000000
vn 0.000000 0.000000 1.000000
vn 0.000000 0.000000 1.000000
vn 0.000000 0.000000 1.000000
vn 0.000000 0.000000 1.000000
vn 0.000000 0.000000 1.000000
vn 0.000000 0.000000 1.000000
vn 0.000000 0.000000 1.000000
vn 0.000000 0.000000 1.000000
vn 0.000000 0.000000 1.000000
vn 0.000000 0.000000 1.000000
vn 0.000000 0.000000 1.000000
vn 0.000000 0.000000 1.000000
vn 0.991448 0.130506 0.000000
vn 0.991448 0.130506 0.000000
vn 0.991448 0.130506 0.000000
vn 0.991448 0.130506 0.000000
vn 0.923877 0.382690 0.000000
vn 0.923877 0.382690 0.000000
vn 0.923877 0.382690 0.000000
vn 0.923877 0.382690 0.000000
vn 0.793400 0.608700 0.000000
vn 0.793400 0.608700 0.000000
vn 0.793400 0.608700 0.000000
vn 0.793400 0.608700 0.000000
vn 0.608811 0.793315 0.000000
vn 0.608811 0.793315 0.000000
vn 0.608811 0.793315 0.000000
vn 0.608811 0.793315 0.000000
vn 0.382605 0.923912 0.000000
vn 0.382605 0.923912 0.000000
vn 0.382605 0.923912 0.000000
vn 0.382605 0.923912 0.000000
vn 0.130703 0.991422 0.000000
vn 0.130703 0.991422 0.000000
vn 0.130703 0.991422 0.000000
vn 0.130703 0.991422 0.000000
vn -0.130703 0.991422 0.000000
vn -0.130703 0.991422 0.000000
vn -0.130703 0.991422 0.000000
vn -0.130703 0.991422 0.000000
vn -0.382605 0.923912 0.000000
vn -0.382605 0.923912 0.000000
vn -0.382605 0.923912 0.000000
vn -0.382605 0.923912 0.000000
vn -0.608811 0.793315 0.000000
vn -0.608811 0.793315 0.000000
vn -0.608811 0.793315 0.000000
vn -0.608811 0.793315 0.000000
vn -0.793400 0.608700 0.000000
vn -0.793400 0.608700 0.000000
vn -0.793400 0.608700 0.000000
vn -0.793400 0.608700 0.000000
vn -0.923877 0.382690 0.000000
vn -0.923877 0.382690 0.000000
vn -0.923877 0.382690 0.000000
vn -0.923877 0.382690 0.000000
vn -0.991448 0.130506 0.000000
vn -0.991448 0.130506 0.000000
vn -0.991448 0.130506 0.000000
vn -0.991448 0.130506 0.000000
vn -0.991448 -0.130506 0.000000
vn -0.991448 -0.130506 0.000000
vn -0.991448 -0.130506 0.000000
vn -0.991448 -0.130506 0.000000
vn -0.923877 -0.382690 0.000000
vn -0.923877 -0.382690 0.000000
vn -0.923877 -0.382690 0.000000
vn -0.923877 -0.382690 0.000000
vn -0.793315 -0.608811 0.000000
vn -0.793315 -0.608811 0.000000
vn -0.793315 -0.608811 0.000000
vn -0.793315 -0.608811 0.000000
vn -0.608811 -0.793315 0.000000
vn -0.608811 -0.793315 0.000000
vn -0.608811 -0.793315 0.000000
vn -0.608811 -0.793315 0.000000
vn -0.382896 -0.923791 0.000000
vn -0.382896 -0.923791 0.000000
vn -0.382896 -0.923791 0.000000
vn -0.382896 -0.923791 0.000000
vn -0.130395 -0.991462 0.000000
vn -0.130395 -0.991462 0.000000
vn -0.130395 -0.991462 0.000000
vn -0.130395 -0.991462 0.000000
vn 0.130395 -0.991462 0.000000
vn 0.130395 -0.991462 0.000000
vn 0.130395 -0.991462 0.000000
vn 0.130395 -0.991462 0.000000
vn 0.382896 -0.923791 0.000000
vn 0.382896 -0.923791 0.000000
vn 0.382896 -0.923791 0.000000
vn 0.382896 -0.923791 0.000000
vn 0.608811 -0.793315 0.000000
vn 0.608811 -0.793315 0.000000
vn 0.608811 -0.793315 0.000000
vn 0.608811 -0.793315 0.000000
vn 0.793315 -0.608811 0.000000
vn 0.793315 -0.608811 0.000000
vn 0.793315 -0.608811 0.000000
vn 0.793315 -0.608811 0.000000
vn 0.923877 -0.382690 0.000000
vn 0.923877 -0.382690 0.000000
vn 0.923877 -0.382690 0.000000
vn 0.923877 -0.382690 0.000000
vn 0.991448 -0.130506 0.000000
vn 0.991448 -0.130506 0.000000
vn 0.991448 -0.130506 0.000000
vn 0.991448 -0.130506 0.000000
vn 0.000000 0.000000 -1.000000
vn 0.000000 0.000000 -1.000000
vn 0.000000 0.000000 -1.000000
vn 0.000000 0.000000 -1.000000
vn 0.000000 0.000000 -1.000000
vn 0.000000 0.000000 -1.000000
vn 0.000000 0.000000 -1.000000
vn 0.000000 0.000000 -1.000000
vn 0.000000 0.000000 -1.000000
vn 0.000000 0.000000 -1.000000
vn 0.000000 0.000000 -1.000000
vn 0.000000 0.000000 -1.000000
vn 0.000000 0.000000 -1.000000
vn 0.000000 0.000000 -1.000000
vn 0.000000 0.000000 -1.000000
vn 0.000000 0.000000 -1.000000
vn 0.000000 0.000000 -1.000000
vn 0.000000 0.000000 -1.000000
vn 0.000000 0.000000 -1.000000
vn 0.000000 0.000000 -1.000000
vn 0.000000 0.000000 -1.000000
vn 0.000000 0.000000 -1.000000
vn 0.000000 0.000000 -1.000000
vn 0.000000 0.000000 -1.000000
vn 0.000000 0.000000 1.000000
vn 0.000000 0.000000 1.000000
vn 0.000000 0.000000 1.000000
vn 0.000000 0.000000 1.000000
vn 0.000000 0.000000 1.000000
vn 0.000000 0.000000 1.000000
vn 0.000000 0.000000 1.000000
vn 0.000000 0.000000 1.000000
vn 0.000000 0.000000 1.000000
vn 0.000000 0.000000 1.000000
vn 0.000000 0.000000 1.000000
vn 0.000000 0.000000 1.000000
vn 0.000000 0.000000 1.000000
vn 0.000000 0.000000 1.000000
vn 0.000000 0.000000 1.000000
vn 0.000000 0.000000 1.000000
vn 0.000000 0.000000 1.000000
vn 0.000000 0.000000 1.000000
vn 0.000000 0.000000 1.000000
vn 0.000000 0.000000 1.000000
vn 0.000000 0.000000 1.000000
vn 0.000000 0.000000 1.000000
vn 0.000000 0.000000 1.000000
vn 0.000000 0.000000 1.000000
vn 0.991448 0.130506 0.000000
vn 0.991448 0.130506 0.000000
vn 0.991448 0.130506 0.000000
vn 0.991448 0.130506 0.000000
vn 0.923877 0.382690 0.000000
vn 0.923877 0.382690 0.000000
vn 0.923877 0.382690 0.000000
vn 0.923877 0.382690 0.000000
vn 0.793400 0.608700 0.000000
vn 0.793400 0.608700 0.000000
vn 0.793400 0.608700 0.000000
vn 0.793400 0.608700 0.000000
vn 0.608811 0.793315 0.000000
vn 0.608811 0.793315 0.000000
vn 0.608811 0.793315 0.000000
vn 0.608811 0.793315 0.000000
vn 0.382605 0.923912 0.000000
vn 0.382605 0.923912 0.000000
vn 0.382605 0.923912 0.000000
vn 0.382605 0.923912 0.000000
vn 0.130703 0.991422 0.000000
vn 0.130703 0.991422 0.000000
vn 0.130703 0.991422 0.000000
vn 0.130703 0.991422 0.000000
vn -0.130703 0.991422 0.000000
vn -0.130703 0.991422 0.000000
vn -0.130703 0.991422 0.000000
vn -0.130703 0.991422 0.000000
vn -0.382605 0.923912 0.000000
vn -0.382605 0.923912 0.000000
vn -0.382605 0.923912 0.000000
vn -0.382605 0.923912 0.000000
vn -0.608811 0.793315 0.000000
vn -0.608811 0.793315 0.000000
vn -0.608811 0.793315 0.000000
vn -0.608811 0.793315 0.000000
vn -0.793400 0.608700 0.000000
vn -0.793400 0.608700 0.000000
vn -0.793400 0.608700 0.000000
vn -0.793400 0.608700 0.000000
vn -0.923877 0.382690 0.000000
vn -0.923877 0.382690 0.000000
vn -0.923877 0.382690 0.000000
vn -0.923877 0.382690 0.000000
vn -0.991448 0.130506 0.000000
vn -0.991448 0.130506 0.000000
vn -0.991448 0.130506 0.000000
vn -0.991448 0.130506 0.000000
vn -0.991448 -0.130506 0.000000
vn -0.991448 -0.130506 0.000000
vn -0.991448 -0.130506 0.000000
vn -0.991448 -0.130506 0.000000
vn -0.923877 -0.382690 0.000000
vn -0.923877 -0.382690 0.000000
vn -0.923877 -0.382690 0.000000
vn -0.923877 -0.382690 0.000000
vn -0.793315 -0.608811 0.000000
vn -0.793315 -0.608811 0.000000
vn -0.793315 -0.608811 0.000000
vn -0.793315 -0.608811 0.000000
vn -0.608811 -0.793315 0.000000
vn -0.608811 -0.793315 0.000000
vn -0.608811 -0.793315 0.000000
vn -0.608811 -0.793315 0.000000
vn -0.382896 -0.923791 0.000000
vn -0.382896 -0.923791 0.000000
vn -0.382896 -0.923791 0.000000
vn -0.382896 -0.923791 0.000000
vn -0.130395 -0.991462 0.000000
vn -0.130395 -0.991462 0.000000
vn -0.130395 -0.991462 0.000000
vn -0.130395 -0.991462 0.000000
vn 0.130395 -0.991462 0.000000
vn 0.130395 -0.991462 0.000000
vn 0.130395 -0.991462 0.000000
vn 0.130395 -0.991462 0.000000
vn 0.382896 -0.923791 0.000000
vn 0.382896 -0.923791 0.000000
vn 0.382896 -0.923791 0.000000
vn 0.382896 -0.923791 0.000000
vn 0.608811 -0.793315 0.000000
vn 0.608811 -0.793315 0.000000
vn 0.608811 -0.793315 0.000000
vn 0.608811 -0.793315 0.000000
vn 0.793315 -0.608811 0.000000
vn 0.793315 -0.608811 0.000000
vn 0.793315 -0.608811 0.000000
vn 0.793315 -0.608811 0.000000
vn 0.923877 -0.382690 0.000000
vn 0.923877 -0.382690 0.000000
vn 0.923877 -0.382690 0.000000
vn 0.923877 -0.382690 0.000000
vn 0.991448 -0.130506 0.000000
vn 0.991448 -0.130506 0.000000
vn 0.991448 -0.130506 0.000000
vn 0.991448 -0.130506 0.000000
vn 0.000000 0.000000 -1.000000
vn 0.000000 0.000000 -1.000000
vn 0.000000 0.000000 -1.000000
vn 0.000000 0.000000 -1.000000
vn 0.000000 0.000000 -1.000000
vn 0.000000 0.000000 -1.000000
vn 0.000000 0.000000 -1.000000
vn 0.000000 0.000000 -1.000000
vn 0.000000 0.000000 -1.000000
vn 0.000000 0.000000 -1.000000
vn 0.000000 0.000000 -1.000000
vn 0.000000 0.000000 -1.000000
vn 0.000000 0.000000 -1.000000
vn 0.000000 0.000000 -1.000000
vn 0.000000 0.000000 -1.000000
vn 0.000000 0.000000 -1.000000
vn 0.000000 0.000000 -1.000000
vn 0.000000 0.000000 -1.000000
vn 0.000000 0.000000 -1.000000
vn 0.000000 0.000000 -1.000000
vn 0.000000 0.000000 -1.000000
vn 0.000000 0.000000 -1.000000
vn 0.000000 0.000000 -1.000000
vn 0.000000 0.000000 -1.000000
vn 0.000000 -1.000000 0.000000
vn 0.000000 -1.000000 0.000000
vn 0.000000 -1.000000 0.000000
vn 0.000000 -1.000000 0.000000
vn -1.000000 0.000000 0.000000
vn -1.000000 0.000000 0.000000
vn -1.000000 0.000000 0.000000
vn -1.000000 0.000000 0.000000
vn 0.000000 0.000000 -1.000000
vn 0.000000 0.000000 -1.000000
vn 0.000000 0.000000 -1.000000
vn 0.000000 0.000000 -1.000000
vn 1.000000 0.000000 0.000000
vn 1.000000 0.000000 0.000000
vn 1.000000 0.000000 0.000000
vn 1.000000 0.000000 0.000000
vn 0.000000 0.000000 1.000000
vn 0.000000 0.000000 1.000000
vn 0.000000 0.000000 1.000000
vn 0.000000 0.000000 1.000000
vn 0.000000 1.000000 0.000000
vn 0.000000 1.000000 0.000000
vn 0.000000 1.000000 0.000000
vn 0.000000 1.000000 0.000000
vn 0.000000 -1.000000 0.000000
vn 0.000000 -1.000000 0.000000
vn 0.000000 -1.000000 0.000000
vn 0.000000 -1.000000 0.000000
vn -1.000000 0.000000 0.000000
vn -1.000000 0.000000 0.000000
vn -1.000000 0.000000 0.000000
vn -1.000000 0.000000 0.000000
vn 0.000000 0.000000 -1.000000
vn 0.000000 0.000000 -1.000000
vn 0.000000 0.000000 -1.000000
vn 0.000000 0.000000 -1.000000
vn 1.000000 0.000000 0.000000
vn 1.000000 0.000000 0.000000
vn 1.000000 0.000000 0.000000
vn 1.000000 0.000000 0.000000
vn 0.000000 0.000000 1.000000
vn 0.000000 0.000000 1.000000
vn 0.000000 0.000000 1.000000
vn 0.000000 0.000000 1.000000
vn 0.000000 1.000000 0.000000
vn 0.000000 1.000000 0.000000
vn 0.000000 1.000000 0.000000
vn 0.000000 1.000000 0.000000
f 1//1 2//2 3//3
f 1//1 3//3 4//4
f 5//5 6//6 7//7
f 5//5 7//7 8//8
f 9//9 10//10 11//11
f 9//9 11//11 12//12
f 13//13 14//14 15//15
f 13//13 15//15 16//16
f 17//17 18//18 19//19
f 17//17 19//19 20//20
f 21//21 22//22 23//23
f 21//21 23//23 24//24
f 25//25 26//26 27//27
f 25//25 27//27 28//28
f 29//29 30//30 31//31
f 29//29 31//31 32//32
f 33//33 34//34 35//35
f 33//33 35//35 36//36
f 37//37 38//38 39//39
f 37//37 39//39 40//40
f 41//41 42//42 43//43
f 41//41 43//43 44//44
f 45//45 46//46 47//47
f 45//45 47//47 48//48
f 49//49 50//50 51//51
f 49//49 51//51 52//52
f 53//53 54//54 55//55
f 53//53 55//55 56//56
f 57//57 58//58 59//59
f 57//57 59//59 60//60
f 61//61 62//62 63//63
f 61//61 63//63 64//64
f 65//65 66//66 67//67
f 65//65 67//67 68//68
f 69//69 70//70 71//71
f 69//69 71//71 72//72
f 73//73 74//74 75//75
f 76//76 73//73 75//75
f 73//73 76//76 77//77
f 78//78 75//75 74//74
f 79//79 78//78 74//74
f 78//78 79//79 80//80
f 80//80 73//73 77//77
f 77//77 78//78 80//80
f 81//81 82//82 83//83
f 84//84 81//81 83//83
f 81//81 84//84 85//85
f 86//86 83//83 82//82
f 87//87 86//86 82//82
f 86//86 87//87 88//88
f 88//88 81//81 85//85
f 85//85 86//86 88//88
f 89//89 90//90 91//91
f 89//89 91//91 92//92
f 93//93 94//94 95//95
f 93//93 95//95 96//96
f 97//97 98//98 99//99
f 97//97 99//99 100//100
f 101//101 102//102 103//103
f 101//101 103//103 104//104
f 105//105 106//106 107//107
f 105//105 107//107 108//108
f 109//109 110//110 111//111
f 109//109 111//111 112//112
f 113//113 114//114 115//115
f 113//113 115//115 116//116
f 117//117 118//118 119//119
f 117//117 119//119 120//120
f 121//121 122//122 123//123
f 124//124 121//121 123//123
f 121//121 124//124 125//125
f 126//126 121//121 125//125
f 121//121 126//126 127//127
f 128//128 121//121 127//127
f 121//121 128//128 129//129
f 130//130 121//121 129//129
f 121//121 130//130 131//131
f 132//132 121//121 131//131
f 121//121 132//132 133//133
f 134//134 121//121 133//133
f 121//121 134//134 135//135
f 136//136 121//121 135//135
f 121//121 136//136 137//137
f 138//138 121//121 137//137
f 121//121 138//138 139//139
f 140//140 121//121 139//139
f 121//121 140//140 141//141
f 142//142 121//121 141//141
f 121//121 142//142 143//143
f 143//143 144//144 121//121
f 145//145 146//146 147//147
f 145//145 147//147 148//148
f 149//149 150//150 151//151
f 149//149 151//151 152//152
f 153//153 154//154 155//155
f 153//153 155//155 156//156
f 157//157 158//158 159//159
f 157//157 159//159 160//160
f 161//161 162//162 163//163
f 161//161 163//163 164//164
f 165//165 166//166 167//167
f 165//165 167//167 168//168
f 169//169 170//170 171//171
f 169//169 171//171 172//172
f 173//173 174//174 175//175
f 173//173 175//175 176//176
f 177//177 178//178 179//179
f 177//177 179//179 180//180
f 181//181 182//182 183//183
f 181//181 183//183 184//184
f 185//185 186//186 187//187
f 185//185 187//187 188//188
f 189//189 190//190 191//191
f 189//189 191//191 192//192
f 193//193 194//194 195//195
f 193//193 195//195 196//196
f 197//197 198//198 199//199
f 197//197 199//199 200//200
f 201//201 202//202 203//203
f 201//201 203//203 204//204
f 205//205 206//206 207//207
f 205//205 207//207 208//208
f 209//209 210//210 211//211
f 209//209 211//211 212//212
f 213//213 214//214 215//215
f 213//213 215//215 216//216
f 217//217 218//218 219//219
f 217//217 219//219 220//220
f 221//221 222//222 223//223
f 221//221 223//223 224//224
f 225//225 226//226 227//227
f 225//225 227//227 228//228
f 229//229 230//230 231//231
f 229//229 231//231 232//232
f 233//233 234//234 235//235
f 233//233 235//235 236//236
f 237//237 238//238 239//239
f 237//237 239//239 240//240
f 241//241 242//242 243//243
f 244//244 241//241 243//243
f 241//241 244//244 245//245
f 246//246 241//241 245//245
f 241//241 246//246 247//247
f 248//248 241//241 247//247
f 241//241 248//248 249//249
f 250//250 241//241 249//249
f 241//241 250//250 251//251
f 252//252 241//241 251//251
f 241//241 252//252 253//253
f 254//254 241//241 253//253
f 241//241 254//254 255//255
f 256//256 241//241 255//255
f 241//241 256//256 257//257
f 258//258 241//241 257//257
f 241//241 258//258 259//259
f 260//260 241//241 259//259
f 241//241 260//260 261//261
f 262//262 241//241 261//261
f 241//241 262//262 263//263
f 263//263 264//264 241//241
f 265//265 266//266 267//267
f 268//268 265//265 267//267
f 265//265 268//268 269//269
f 270//270 265//265 269//269
f 265//265 270//270 271//271
f 272//272 265//265 271//271
f 265//265 272//272 273//273
f 274//274 265//265 273//273
f 265//265 274//274 275//275
f 276//276 265//265 275//275
f 265//265 276//276 277//277
f 278//278 265//265 277//277
f 265//265 278//278 279//279
f 280//280 265//265 279//279
f 265//265 280//280 281//281
f 282//282 265//265 281//281
f 265//265 282//282 283//283
f 284//284 265//265 283//283
f 265//265 284//284 285//285
f 286//286 265//265 285//285
f 265//265 286//286 287//287
f 287//287 288//288 265//265
f 289//289 290//290 291//291
f 289//289 291//291 292//292
f 293//293 294//294 295//295
f 293//293 295//295 296//296
f 297//297 298//298 299//299
f 297//297 299//299 300//300
f 301//301 302//302 303//303
f 301//301 303//303 304//304
f 305//305 306//306 307//307
f 305//305 307//307 308//308
f 309//309 310//310 311//311
f 309//309 311//311 312//312
f 313//313 314//314 315//315
f 313//313 315//315 316//316
f 317//317 318//318 319//319
f 317//317 319//319 320//320
f 321//321 322//322 323//323
f 321//321 323//323 324//324
f 325//325 326//326 327//327
f 325//325 327//327 328//328
f 329//329 330//330 331//331
f 329//329 331//331 332//332
f 333//333 334//334 335//335
f 333//333 335//335 336//336
f 337//337 338//338 339//339
f 337//337 339//339 340//340
f 341//341 342//342 343//343
f 341//341 343//343 344//344
f 345//345 346//346 347//347
f 345//345 347//347 348//348
f 349//349 350//350 351//351
f 349//349 351//351 352//352
f 353//353 354//354 355//355
f 353//353 355//355 356//356
f 357//357 358//358 359//359
f 357//357 359//359 360//360
f 361//361 362//362 363//363
f 361//361 363//363 364//364
f 365//365 366//366 367//367
f 365//365 367//367 368//368
f 369//369 370//370 371//371
f 369//369 371//371 372//372
f 373//373 374//374 375//375
f 373//373 375//375 376//376
f 377//377 378//378 379//379
f 377//377 379//379 380//380
f 381//381 382//382 383//383
f 381//381 383//383 384//384
f 385//385 386//386 387//387
f 388//388 385//385 387//387
f 385//385 388//388 389//389
f 390//390 385//385 389//389
f 385//385 390//390 391//391
f 392//392 385//385 391//391
f 385//385 392//392 393//393
f 394//394 385//385 393//393
f 385//385 394//394 395//395
f 396//396 385//385 395//395
f 385//385 396//396 397//397
f 398//398 385//385 397//397
f 385//385 398//398 399//399
f 400//400 385//385 399//399
f 385//385 400//400 401//401
f 402//402 385//385 401//401
f 385//385 402//402 403//403
f 404//404 385//385 403//403
f 385//385 404//404 405//405
f 406//406 385//385 405//405
f 385//385 406//406 407//407
f 407//407 408//408 385//385
f 409//409 410//410 411//411
f 409//409 411//411 412//412
f 413//413 414//414 415//415
f 413//413 415//415 416//416
f 417//417 418//418 419//419
f 417//417 419//419 420//420
f 421//421 422//422 423//423
f 421//421 423//423 424//424
f 425//425 426//426 427//427
f 425//425 427//427 428//428
f 429//429 430//430 431//431
f 429//429 431//431 432//432
f 433//433 434//434 435//435
f 433//433 435//435 436//436
f 437//437 438//438 439//439
f 437//437 439//439 440//440
f 441//441 442//442 443//443
f 441//441 443//443 444//444
f 445//445 446//446 447//447
f 445//445 447//447 448//448
f 449//449 450//450 451//451
f 449//449 451//451 452//452
f 453//453 454//454 455//455
f 453//453 455//455 456//456
