mtllib Satelite.mtl
o SateliteCuerpoAzul
usemtl ACE
v -117.555466 83.472107 60.842690
v -110.593735 83.472107 67.804436
v -110.593735 78.549255 67.804436
v -117.555466 78.549255 60.842690
v -124.517212 83.472107 67.804436
v -117.555466 83.472107 60.842690
v -117.555466 78.549255 60.842690
v -124.517212 78.549255 67.804436
v -117.555466 78.549255 74.766182
v -110.593735 78.549255 67.804436
v -110.593735 83.472107 67.804436
v -117.555466 83.472107 74.766182
v -124.517212 78.549255 67.804436
v -117.555466 78.549255 60.842690
v -110.593735 78.549255 67.804436
v -117.555466 78.549255 74.766182
v -117.555466 78.549255 74.766182
v -117.555466 83.472107 74.766182
v -124.517212 83.472107 67.804436
v -124.517212 78.549255 67.804436
v -130.651718 78.549255 87.862427
v -130.651718 83.472107 87.862427
v -137.613464 83.472107 80.900688
v -137.613464 78.549255 80.900688
v -137.613464 78.549255 80.900688
v -137.613464 83.472107 80.900688
v -130.651718 83.472107 73.938950
v -130.651718 78.549255 73.938950
v -130.651718 83.472107 87.862427
v -130.651718 78.549255 87.862427
v -123.689980 78.549255 80.900688
v -123.689980 83.472107 80.900688
v -130.651718 78.549255 87.862427
v -137.613464 78.549255 80.900688
v -130.651718 78.549255 73.938950
v -123.689980 78.549255 80.900688
v -130.651718 83.472107 73.938950
v -123.689980 83.472107 80.900688
v -123.689980 78.549255 80.900688
v -130.651718 78.549255 73.938950
v -128.623444 78.549255 49.774719
v -128.623444 83.472107 49.774719
v -121.661705 83.472107 56.736462
v -121.661705 78.549255 56.736462
v -121.661705 78.549255 56.736462
v -121.661705 83.472107 56.736462
v -128.623444 83.472107 63.698200
v -128.623444 78.549255 63.698200
v -128.623444 83.472107 49.774719
v -128.623444 78.549255 49.774719
v -135.585190 78.549255 56.736462
v -135.585190 83.472107 56.736462
v -128.623444 78.549255 49.774719
v -121.661705 78.549255 56.736462
v -128.623444 78.549255 63.698200
v -135.585190 78.549255 56.736462
v -128.623444 83.472107 63.698200
v -135.585190 83.472107 56.736462
v -135.585190 78.549255 56.736462
v -128.623444 78.549255 63.698200
v -141.719696 83.472107 76.794456
v -148.681458 83.472107 69.832718
v -148.681458 78.549255 69.832718
v -141.719696 78.549255 76.794456
v -134.757950 83.472107 69.832718
v -141.719696 83.472107 76.794456
v -141.719696 78.549255 76.794456
v -134.757950 78.549255 69.832718
v -141.719696 78.549255 62.870972
v -148.681458 78.549255 69.832718
v -148.681458 83.472107 69.832718
v -141.719696 83.472107 62.870972
v -134.757950 78.549255 69.832718
v -141.719696 78.549255 76.794456
v -148.681458 78.549255 69.832718
v -141.719696 78.549255 62.870972
v -141.719696 78.549255 62.870972
v -141.719696 83.472107 62.870972
v -134.757950 83.472107 69.832718
v -134.757950 78.549255 69.832718
vn 0.707107 0.000000 -0.707107
vn 0.707107 0.000000 -0.707107
vn 0.707107 0.000000 -0.707107
vn 0.707107 0.000000 -0.707107
vn -0.707107 0.000000 -0.707107
vn -0.707107 0.000000 -0.707107
vn -0.707107 0.000000 -0.707107
vn -0.707107 0.000000 -0.707107
vn 0.707107 0.000000 0.707107
vn 0.707107 0.000000 0.707107
vn 0.707107 0.000000 0.707107
vn 0.707107 0.000000 0.707107
vn 0.000000 -1.000000 0.000000
vn 0.000000 -1.000000 0.000000
vn 0.000000 -1.000000 0.000000
vn 0.000000 -1.000000 0.000000
vn -0.707107 0.000000 0.707107
vn -0.707107 0.000000 0.707107
vn -0.707107 0.000000 0.707107
vn -0.707107 0.000000 0.707107
vn -0.707107 0.000000 0.707107
vn -0.707107 0.000000 0.707107
vn -0.707107 0.000000 0.707107
vn -0.707107 0.000000 0.707107
vn -0.707107 0.000000 -0.707107
vn -0.707107 0.000000 -0.707107
vn -0.707107 0.000000 -0.707107
vn -0.707107 0.000000 -0.707107
vn 0.707107 0.000000 0.707107
vn 0.707107 0.000000 0.707107
vn 0.707107 0.000000 0.707107
vn 0.707107 0.000000 0.707107
vn 0.000000 -1.000000 0.000000
vn 0.000000 -1.000000 0.000000
vn 0.000000 -1.000000 0.000000
vn 0.000000 -1.000000 0.000000
vn 0.707107 0.000000 -0.707107
vn 0.707107 0.000000 -0.707107
vn 0.707107 0.000000 -0.707107
vn 0.707107 0.000000 -0.707107
vn 0.707107 0.000000 -0.707107
vn 0.707107 0.000000 -0.707107
vn 0.707107 0.000000 -0.707107
vn 0.707107 0.000000 -0.707107
vn 0.707107 0.000000 0.707107
vn 0.707107 0.000000 0.707107
vn 0.707107 0.000000 0.707107
vn 0.707107 0.000000 0.707107
vn -0.707107 0.000000 -0.707107
vn -0.707107 0.000000 -0.707107
vn -0.707107 0.000000 -0.707107
vn -0.707107 0.000000 -0.707107
vn 0.000000 -1.000000 0.000000
vn 0.000000 -1.000000 0.000000
vn 0.000000 -1.000000 0.000000
vn 0.000000 -1.000000 0.000000
vn -0.707107 0.000000 0.707107
vn -0.707107 0.000000 0.707107
vn -0.707107 0.000000 0.707107
vn -0.707107 0.000000 0.707107
vn -0.707107 0.000000 0.707107
vn -0.707107 0.000000 0.707107
vn -0.707107 0.000000 0.707107
vn -0.707107 0.000000 0.707107
vn 0.707107 0.000000 0.707107
vn 0.707107 0.000000 0.707107
vn 0.707107 0.000000 0.707107
vn 0.707107 0.000000 0.707107
vn -0.707107 0.000000 -0.707107
vn -0.707107 0.000000 -0.707107
vn -0.707107 0.000000 -0.707107
vn -0.707107 0.000000 -0.707107
vn 0.000000 -1.000000 0.000000
vn 0.000000 -1.000000 0.000000
vn 0.000000 -1.000000 0.000000
vn 0.000000 -1.000000 0.000000
vn 0.707107 0.000000 -0.707107
vn 0.707107 0.000000 -0.707107
vn 0.707107 0.000000 -0.707107
vn 0.707107 0.000000 -0.707107
f 1//1 2//2 3//3
f 1//1 3//3 4//4
f 5//5 6//6 7//7
f 5//5 7//7 8//8
f 9//9 10//10 11//11
f 9//9 11//11 12//12
f 13//13 14//14 15//15
f 13//13 15//15 16//16
f 17//17 18//18 19//19
f 17//17 19//19 20//20
f 21//21 22//22 23//23
f 21//21 23//23 24//24
f 25//25 26//26 27//27
f 25//25 27//27 28//28
f 29//29 30//30 31//31
f 29//29 31//31 32//32
f 33//33 34//34 35//35
f 33//33 35//35 36//36
f 37//37 38//38 39//39
f 37//37 39//39 40//40
f 41//41 42//42 43//43
f 41//41 43//43 44//44
f 45//45 46//46 47//47
f 45//45 47//47 48//48
f 49//49 50//50 51//51
f 49//49 51//51 52//52
f 53//53 54//54 55//55
f 53//53 55//55 56//56
f 57//57 58//58 59//59
f 57//57 59//59 60//60
f 61//61 62//62 63//63
f 61//61 63//63 64//64
f 65//65 66//66 67//67
f 65//65 67//67 68//68
f 69//69 70//70 71//71
f 69//69 71//71 72//72
f 73//73 74//74 75//75
f 73//73 75//75 76//76
f 77//77 78//78 79//79
f 77//77 79//79 80//80
