mtllib Satelite.mtl
o SatelitePanel4Soporte
usemtl ACE
v -6.757563 -4.598684 -517.088042
v -6.757563 4.423533 -517.088042
v -6.757563 4.423533 -526.371855
v -6.757563 -4.598684 -526.371855
v -6.757563 -4.598684 -526.371855
v -6.757563 4.423533 -526.371855
v 9.325546 4.423533 -526.371855
v 9.325546 -4.598684 -526.371855
v -6.757563 4.423533 -526.371855
v -6.757563 4.423533 -517.088042
v 9.325546 4.423533 -517.088042
v 9.325546 4.423533 -526.371855
v -6.757563 4.423533 -517.088042
v -6.757563 -4.598684 -517.088042
v 9.325546 -4.598684 -517.088042
v 9.325546 4.423533 -517.088042
v -6.757563 -4.598684 -517.088042
v -6.757563 -4.598684 -526.371855
v 9.325546 -4.598684 -526.371855
v 9.325546 -4.598684 -517.088042
v 9.325546 4.423533 -526.371855
v 9.325546 4.423533 -517.088042
v 9.325546 -4.598684 -517.088042
v 9.325546 -4.598684 -526.371855
v -55.215965 -2.236624 -14.983687
v -55.215965 -2.236624 -306.494200
v 60.281257 -2.236624 -306.494200
v 60.281257 -2.236624 -14.983687
v 60.281257 1.456003 -306.494200
v -55.215965 1.456003 -306.494200
v -55.215965 1.456003 -14.983687
v 60.281257 1.456003 -14.983687
v -55.215965 2.059275 -14.983687
v -55.215965 2.059275 -306.494200
v -55.215965 -2.236624 -306.494200
v -55.215965 -2.236624 -14.983687
v 60.281257 2.059275 -306.494200
v 60.281257 2.059275 -14.983687
v 60.281257 -2.236624 -14.983687
v 60.281257 -2.236624 -306.494200
v -55.215965 2.059275 -306.494200
v 60.281257 2.059275 -306.494200
v 60.281257 -2.236624 -306.494200
v -55.215965 -2.236624 -306.494200
v 60.281257 2.059275 -14.983687
v -55.215965 2.059275 -14.983687
v -55.215965 -2.236624 -14.983687
v 60.281257 -2.236624 -14.983687
v 7.666266 -0.004690 -140.359343
v 7.666266 4.254832 -140.359343
v -2.982833 4.254832 -140.359343
v -2.982833 -0.004690 -140.359343
v -2.982833 -0.004690 -140.359343
v -2.982833 4.254832 -140.359343
v -2.982833 4.254832 -154.071227
v -2.982833 -0.004690 -154.071227
v -2.982833 4.254832 -140.359343
v 7.666266 4.254832 -140.359343
v 7.666266 4.254832 -154.071227
v -2.982833 4.254832 -154.071227
v 7.666266 4.254832 -140.359343
v 7.666266 -0.004690 -140.359343
v 7.666266 -0.004690 -154.071227
v 7.666266 4.254832 -154.071227
v 7.666266 -0.004690 -140.359343
v -2.982833 -0.004690 -140.359343
v -2.982833 -0.004690 -154.071227
v 7.666266 -0.004690 -154.071227
v -2.982833 4.254832 -154.071227
v 7.666266 4.254832 -154.071227
v 7.666266 -0.004690 -154.071227
v -2.982833 -0.004690 -154.071227
v -2.982833 4.254832 -175.675231
v 7.666266 4.254832 -175.675231
v 7.666266 -0.004690 -175.675231
v -2.982833 -0.004690 -175.675231
v -2.982833 4.254832 -161.963347
v -2.982833 4.254832 -175.675231
v -2.982833 -0.004690 -175.675231
v -2.982833 -0.004690 -161.963347
v 7.666266 4.254832 -161.963347
v 7.666266 4.254832 -175.675231
v -2.982833 4.254832 -175.675231
v -2.982833 4.254832 -161.963347
v 7.666266 -0.004690 -161.963347
v 7.666266 -0.004690 -175.675231
v 7.666266 4.254832 -175.675231
v 7.666266 4.254832 -161.963347
v -2.982833 -0.004690 -161.963347
v -2.982833 -0.004690 -175.675231
v 7.666266 -0.004690 -175.675231
v 7.666266 -0.004690 -161.963347
v 7.666266 -0.004690 -161.963347
v 7.666266 4.254832 -161.963347
v -2.982833 4.254832 -161.963347
v -2.982833 -0.004690 -161.963347
v -57.775685 2.545847 -12.070403
v 62.239666 2.545847 -12.070403
v 57.021610 2.545847 -18.332091
v -51.514012 2.545847 -18.332091
v -51.514012 2.545847 -303.238066
v 57.021610 2.545847 -303.238066
v 62.239666 2.545847 -309.499755
v -57.775685 2.545847 -309.499755
v 62.239666 -2.716848 -309.499755
v 62.239666 -2.716848 -12.070403
v 57.021610 -2.716848 -18.332091
v 57.021610 -2.716848 -303.238066
v -51.514012 -2.716848 -303.238066
v -51.514012 -2.716848 -18.332091
v -57.775685 -2.716848 -12.070403
v -57.775685 -2.716848 -309.499755
v 57.021610 -2.716848 -18.332091
v -51.514012 -2.716848 -18.332091
v -51.514012 2.545847 -18.332091
v 57.021610 2.545847 -18.332091
v 57.021610 -2.716848 -303.238066
v 57.021610 -2.716848 -18.332091
v 57.021610 2.545847 -18.332091
v 57.021610 2.545847 -303.238066
v -51.514012 -2.716848 -18.332091
v -51.514012 -2.716848 -303.238066
v -51.514012 2.545847 -303.238066
v -51.514012 2.545847 -18.332091
v -57.775685 2.545847 -309.499755
v 62.239666 2.545847 -309.499755
v 62.239666 -2.716848 -309.499755
v -57.775685 -2.716848 -309.499755
v -57.775685 2.545847 -12.070403
v -57.775685 2.545847 -309.499755
v -57.775685 -2.716848 -309.499755
v -57.775685 -2.716848 -12.070403
v 62.239666 -2.716848 -12.070403
v 62.239666 -2.716848 -309.499755
v 62.239666 2.545847 -309.499755
v 62.239666 2.545847 -12.070403
v 62.239666 -2.716848 -12.070403
v 62.239666 2.545847 -12.070403
v -57.775685 2.545847 -12.070403
v -57.775685 -2.716848 -12.070403
v -51.514012 2.545847 -303.230803
v -51.514012 -2.716848 -303.230803
v 57.021610 -2.716848 -303.230803
v 57.021610 2.545847 -303.230803
v 1.331588 1.568796 -518.010588
v 2.074496 1.507517 -518.010588
v 2.766776 1.328318 -518.010588
v 3.361251 1.043406 -518.010588
v 3.817407 0.671824 -518.010588
v 4.104159 0.239207 -518.010588
v 4.201965 -0.225149 -518.010588
v 4.104159 -0.689504 -518.010588
v 1.331588 1.568796 -518.010588
v 4.104159 -0.689504 -518.010588
v 3.817407 -1.122122 -518.010588
v 3.361251 -1.493704 -518.010588
v 1.331588 1.568796 -518.010588
v 3.817407 -1.122122 -518.010588
v 3.361251 -1.493704 -518.010588
v 2.766776 -1.778860 -518.010588
v 2.074496 -1.958059 -518.010588
v 2.766776 -1.778860 -518.010588
v 1.331588 -2.019094 -518.010588
v 0.588679 -1.958059 -518.010588
v -0.103601 -1.778860 -518.010588
v -0.698076 -1.493704 -518.010588
v -0.103601 -1.778860 -518.010588
v -0.698076 -1.493704 -518.010588
v -1.154232 -1.122122 -518.010588
v -1.440984 -0.689504 -518.010588
v -1.538790 -0.225149 -518.010588
v -1.440984 0.239207 -518.010588
v 1.331588 1.568796 -518.010588
v -1.440984 0.239207 -518.010588
v -1.154232 0.671824 -518.010588
v -0.698076 1.043406 -518.010588
v -1.154232 0.671824 -518.010588
v -0.698076 1.043406 -518.010588
v -0.103601 1.328318 -518.010588
v -0.103601 1.328318 -518.010588
v 0.588679 1.507517 -518.010588
v 2.074496 1.507517 -345.799926
v 2.074496 1.507517 -518.010588
v 1.331588 1.568796 -518.010588
v 1.331588 1.568796 -345.799926
v 2.766776 1.328318 -345.799926
v 2.766776 1.328318 -518.010588
v 2.074496 1.507517 -518.010588
v 2.074496 1.507517 -345.799926
v 3.361251 1.043406 -345.799926
v 3.361251 1.043406 -518.010588
v 2.766776 1.328318 -518.010588
v 2.766776 1.328318 -345.799926
v 3.817407 0.671824 -345.799926
v 3.817407 0.671824 -518.010588
v 3.361251 1.043406 -518.010588
v 3.361251 1.043406 -345.799926
v 4.104159 0.239207 -345.799926
v 4.104159 0.239207 -518.010588
v 3.817407 0.671824 -518.010588
v 3.817407 0.671824 -345.799926
v 4.201965 -0.225149 -345.799926
v 4.201965 -0.225149 -518.010588
v 4.104159 0.239207 -518.010588
v 4.104159 0.239207 -345.799926
v 4.104159 -0.689504 -345.799926
v 4.104159 -0.689504 -518.010588
v 4.201965 -0.225149 -518.010588
v 4.201965 -0.225149 -345.799926
v 3.817407 -1.122122 -345.799926
v 3.817407 -1.122122 -518.010588
v 4.104159 -0.689504 -518.010588
v 4.104159 -0.689504 -345.799926
v 3.361251 -1.493704 -345.799926
v 3.361251 -1.493704 -518.010588
v 3.817407 -1.122122 -518.010588
v 3.817407 -1.122122 -345.799926
v 2.766776 -1.778860 -345.799926
v 2.766776 -1.778860 -518.010588
v 3.361251 -1.493704 -518.010588
v 3.361251 -1.493704 -345.799926
v 2.074496 -1.958059 -345.799926
v 2.074496 -1.958059 -518.010588
v 2.766776 -1.778860 -518.010588
v 2.766776 -1.778860 -345.799926
v 1.331588 -2.019094 -345.799926
v 1.331588 -2.019094 -518.010588
v 2.074496 -1.958059 -518.010588
v 2.074496 -1.958059 -345.799926
v 0.588679 -1.958059 -345.799926
v 0.588679 -1.958059 -518.010588
v 1.331588 -2.019094 -518.010588
v 1.331588 -2.019094 -345.799926
v -0.103601 -1.778860 -345.799926
v -0.103601 -1.778860 -518.010588
v 0.588679 -1.958059 -518.010588
v 0.588679 -1.958059 -345.799926
v -0.698076 -1.493704 -345.799926
v -0.698076 -1.493704 -518.010588
v -0.103601 -1.778860 -518.010588
v -0.103601 -1.778860 -345.799926
v -1.154232 -1.122122 -345.799926
v -1.154232 -1.122122 -518.010588
v -0.698076 -1.493704 -518.010588
v -0.698076 -1.493704 -345.799926
v -1.440984 -0.689504 -345.799926
v -1.440984 -0.689504 -518.010588
v -1.154232 -1.122122 -518.010588
v -1.154232 -1.122122 -345.799926
v -1.538790 -0.225149 -345.799926
v -1.538790 -0.225149 -518.010588
v -1.440984 -0.689504 -518.010588
v -1.440984 -0.689504 -345.799926
v -1.440984 0.239207 -345.799926
v -1.440984 0.239207 -518.010588
v -1.538790 -0.225149 -518.010588
v -1.538790 -0.225149 -345.799926
v -1.154232 0.671824 -345.799926
v -1.154232 0.671824 -518.010588
v -1.440984 0.239207 -518.010588
v -1.440984 0.239207 -345.799926
v -0.698076 1.043406 -345.799926
v -0.698076 1.043406 -518.010588
v -1.154232 0.671824 -518.010588
v -1.154232 0.671824 -345.799926
v -0.103601 1.328318 -345.799926
v -0.103601 1.328318 -518.010588
v -0.698076 1.043406 -518.010588
v -0.698076 1.043406 -345.799926
v 0.588679 1.507517 -345.799926
v 0.588679 1.507517 -518.010588
v -0.103601 1.328318 -518.010588
v -0.103601 1.328318 -345.799926
v 1.331588 1.568796 -345.799926
v 1.331588 1.568796 -518.010588
v 0.588679 1.507517 -518.010588
v 0.588679 1.507517 -345.799926
v 1.331588 1.568796 -345.799926
v 0.588679 1.507517 -345.799926
v -0.103601 1.328318 -345.799926
v -0.698076 1.043406 -345.799926
v -1.154232 0.671824 -345.799926
v -1.440984 0.239207 -345.799926
v 1.331588 1.568796 -345.799926
v -1.440984 0.239207 -345.799926
v -1.538790 -0.225149 -345.799926
v -1.440984 -0.689504 -345.799926
v 1.331588 1.568796 -345.799926
v -1.538790 -0.225149 -345.799926
v -1.440984 -0.689504 -345.799926
v -1.154232 -1.122122 -345.799926
v -0.698076 -1.493704 -345.799926
v -0.103601 -1.778860 -345.799926
v 0.588679 -1.958059 -345.799926
v 1.331588 -2.019094 -345.799926
v 2.074496 -1.958059 -345.799926
v 2.766776 -1.778860 -345.799926
v 3.361251 -1.493704 -345.799926
v 1.331588 1.568796 -345.799926
v 2.766776 -1.778860 -345.799926
v 3.361251 -1.493704 -345.799926
v 3.817407 -1.122122 -345.799926
v 4.104159 -0.689504 -345.799926
v 3.817407 -1.122122 -345.799926
v 4.104159 -0.689504 -345.799926
v 4.201965 -0.225149 -345.799926
v 4.104159 0.239207 -345.799926
v 4.201965 -0.225149 -345.799926
v 4.104159 0.239207 -345.799926
v 3.817407 0.671824 -345.799926
v 3.361251 1.043406 -345.799926
v 3.817407 0.671824 -345.799926
v 3.361251 1.043406 -345.799926
v 2.766776 1.328318 -345.799926
v 2.074496 1.507517 -345.799926
v -30.553639 2.343455 -309.869933
v 32.850695 2.343455 -309.869933
v 23.340044 2.343455 -314.333129
v -21.042988 2.343455 -314.333129
v 1.286363 2.343455 -343.002928
v 1.345435 2.343455 -350.826812
v 1.345435 -2.507864 -350.826812
v 32.850695 -2.507864 -309.869933
v 23.340044 -2.507864 -314.333129
v 1.286363 -2.507864 -343.002928
v -21.042988 -2.507864 -314.333129
v -30.553639 -2.507864 -309.869933
v 23.340044 2.343455 -314.333129
v 23.340044 -2.507864 -314.333129
v -21.042988 -2.507864 -314.333129
v -21.042988 2.343455 -314.333129
v -21.042988 2.343455 -314.333129
v -21.042988 -2.507864 -314.333129
v 1.286363 -2.507864 -343.002928
v 1.286363 2.343455 -343.002928
v 1.286363 2.343455 -343.002928
v 1.286363 -2.507864 -343.002928
v 23.340044 -2.507864 -314.333129
v 23.340044 2.343455 -314.333129
v 1.345435 -2.507864 -350.826812
v 1.345435 2.343455 -350.826812
v 32.850695 2.343455 -309.869933
v 32.850695 -2.507864 -309.869933
v -30.553639 -2.507864 -309.869933
v -30.553639 2.343455 -309.869933
v 1.345435 2.343455 -350.826812
v 1.345435 -2.507864 -350.826812
v 32.850695 -2.507864 -309.869933
v 32.850695 2.343455 -309.869933
v -30.553639 2.343455 -309.869933
v -30.553639 -2.507864 -309.869933
v -55.388199 -0.000295 -2.840987
v -55.388199 -0.735403 -2.744216
v -55.388199 -1.420461 -2.460448
v -55.388199 -2.008596 -2.009062
v -55.388199 -2.460012 -1.420790
v -55.388199 -2.743948 -0.735747
v -55.388199 -2.840627 -0.000594
v -55.388199 -2.743948 0.734544
v -55.388199 -2.460012 1.419603
v -55.388199 -2.008596 2.007875
v -55.388199 -1.420461 2.459260
v -55.388199 -0.735403 2.743013
v -55.388199 -0.000295 2.839799
v -55.388199 0.734812 2.743013
v -55.388199 1.419871 2.459260
v -55.388199 2.008250 2.007875
v -55.388199 2.459666 1.419603
v -55.388199 2.743357 0.734544
v -55.388199 2.840281 -0.000594
v -55.388199 2.743357 -0.735747
v -55.388199 2.459666 -1.420790
v -55.388199 2.008250 -2.009062
v -55.388199 1.419871 -2.460448
v -55.388199 0.734812 -2.744216
v -55.388199 -0.000295 -2.840987
v -55.388199 0.734812 -2.744216
v -44.026600 0.734812 -2.744216
v -44.026600 -0.000295 -2.840987
v -55.388199 0.734812 -2.744216
v -55.388199 1.419871 -2.460448
v -44.026600 1.419871 -2.460448
v -44.026600 0.734812 -2.744216
v -55.388199 1.419871 -2.460448
v -55.388199 2.008250 -2.009062
v -44.026600 2.008250 -2.009062
v -44.026600 1.419871 -2.460448
v -55.388199 2.008250 -2.009062
v -55.388199 2.459666 -1.420790
v -44.026600 2.459666 -1.420790
v -44.026600 2.008250 -2.009062
v -55.388199 2.459666 -1.420790
v -55.388199 2.743357 -0.735747
v -44.026600 2.743357 -0.735747
v -44.026600 2.459666 -1.420790
v -55.388199 2.743357 -0.735747
v -55.388199 2.840281 -0.000594
v -44.026600 2.840281 -0.000594
v -44.026600 2.743357 -0.735747
v -44.026600 2.840281 -0.000594
v -55.388199 2.840281 -0.000594
v -55.388199 2.743357 0.734544
v -44.026600 2.743357 0.734544
v -44.026600 2.743357 0.734544
v -55.388199 2.743357 0.734544
v -55.388199 2.459666 1.419603
v -44.026600 2.459666 1.419603
v -44.026600 2.459666 1.419603
v -55.388199 2.459666 1.419603
v -55.388199 2.008250 2.007875
v -44.026600 2.008250 2.007875
v -44.026600 2.008250 2.007875
v -55.388199 2.008250 2.007875
v -55.388199 1.419871 2.459260
v -44.026600 1.419871 2.459260
v -44.026600 1.419871 2.459260
v -55.388199 1.419871 2.459260
v -55.388199 0.734812 2.743013
v -44.026600 0.734812 2.743013
v -44.026600 0.734812 2.743013
v -55.388199 0.734812 2.743013
v -55.388199 -0.000295 2.839799
v -44.026600 0.734812 2.743013
v -55.388199 -0.000295 2.839799
v -44.026600 -0.000295 2.839799
v -44.026600 -0.000295 2.839799
v -55.388199 -0.000295 2.839799
v -55.388199 -0.735403 2.743013
v -44.026600 -0.000295 2.839799
v -55.388199 -0.735403 2.743013
v -44.026600 -0.735403 2.743013
v -44.026600 -0.735403 2.743013
v -55.388199 -0.735403 2.743013
v -55.388199 -1.420461 2.459260
v -44.026600 -1.420461 2.459260
v -44.026600 -1.420461 2.459260
v -55.388199 -1.420461 2.459260
v -55.388199 -2.008596 2.007875
v -44.026600 -2.008596 2.007875
v -44.026600 -2.008596 2.007875
v -55.388199 -2.008596 2.007875
v -55.388199 -2.460012 1.419603
v -44.026600 -2.460012 1.419603
v -44.026600 -2.460012 1.419603
v -55.388199 -2.460012 1.419603
v -55.388199 -2.743948 0.734544
v -44.026600 -2.743948 0.734544
v -44.026600 -2.743948 0.734544
v -55.388199 -2.743948 0.734544
v -55.388199 -2.840627 -0.000594
v -44.026600 -2.840627 -0.000594
v -55.388199 -2.840627 -0.000594
v -55.388199 -2.743948 -0.735747
v -44.026600 -2.743948 -0.735747
v -44.026600 -2.840627 -0.000594
v -55.388199 -2.743948 -0.735747
v -55.388199 -2.460012 -1.420790
v -44.026600 -2.460012 -1.420790
v -44.026600 -2.743948 -0.735747
v -55.388199 -2.460012 -1.420790
v -55.388199 -2.008596 -2.009062
v -44.026600 -2.008596 -2.009062
v -44.026600 -2.460012 -1.420790
v -55.388199 -2.008596 -2.009062
v -55.388199 -1.420461 -2.460448
v -44.026600 -1.420461 -2.460448
v -44.026600 -2.008596 -2.009062
v -55.388199 -1.420461 -2.460448
v -55.388199 -0.735403 -2.744216
v -44.026600 -0.735403 -2.744216
v -44.026600 -1.420461 -2.460448
v -55.388199 -0.735403 -2.744216
v -55.388199 -0.000295 -2.840987
v -44.026600 -0.000295 -2.840987
v -44.026600 -0.735403 -2.744216
v -44.026600 -0.000295 -2.840987
v -44.026600 0.734812 -2.744216
v -44.026600 1.419871 -2.460448
v -44.026600 2.008250 -2.009062
v -44.026600 -0.000295 -2.840987
v -44.026600 1.419871 -2.460448
v -44.026600 2.459666 -1.420790
v -44.026600 2.743357 -0.735747
v -44.026600 2.840281 -0.000594
v -44.026600 2.743357 0.734544
v -44.026600 2.459666 1.419603
v -44.026600 2.008250 2.007875
v -44.026600 1.419871 2.459260
v -44.026600 0.734812 2.743013
v -44.026600 -0.000295 2.839799
v -44.026600 -0.735403 2.743013
v -44.026600 -1.420461 2.459260
v -44.026600 -2.008596 2.007875
v -44.026600 -2.460012 1.419603
v -44.026600 -2.743948 0.734544
v -44.026600 -2.840627 -0.000594
v -44.026600 -2.743948 -0.735747
v -44.026600 -2.460012 -1.420790
v -44.026600 -2.008596 -2.009062
v -44.026600 -1.420461 -2.460448
v -44.026600 -1.420461 -2.460448
v -44.026600 -0.735403 -2.744216
v 44.735897 -0.000295 -2.840987
v 44.735897 -0.735403 -2.744200
v 44.735897 -1.420461 -2.460448
v 44.735897 -2.008596 -2.009062
v 44.735897 -2.460012 -1.420790
v 44.735897 -2.743948 -0.735747
v 44.735897 -2.840627 -0.000594
v 44.735897 -2.743948 0.734559
v 44.735897 -2.460012 1.419603
v 44.735897 -2.008596 2.007875
v 44.735897 -1.420461 2.459260
v 44.735897 -0.735403 2.743013
v 44.735897 -0.000295 2.839799
v 44.735897 0.734812 2.743013
v 44.735897 1.419871 2.459260
v 44.735897 2.008250 2.007875
v 44.735897 2.459666 1.419603
v 44.735897 2.743357 0.734559
v 44.735897 2.840281 -0.000594
v 44.735897 2.743357 -0.735747
v 44.735897 2.459666 -1.420790
v 44.735897 2.008250 -2.009062
v 44.735897 1.419871 -2.460448
v 44.735897 0.734812 -2.744200
v 44.735897 -0.000295 -2.840987
v 44.735897 0.734812 -2.744200
v 55.387401 0.734812 -2.744200
v 44.735897 -0.000295 -2.840987
v 55.387401 0.734812 -2.744200
v 55.387401 -0.000295 -2.840987
v 44.735897 0.734812 -2.744200
v 44.735897 1.419871 -2.460448
v 55.387401 1.419871 -2.460448
v 55.387401 0.734812 -2.744200
v 44.735897 1.419871 -2.460448
v 44.735897 2.008250 -2.009062
v 55.387401 2.008250 -2.009062
v 55.387401 1.419871 -2.460448
v 44.735897 2.008250 -2.009062
v 44.735897 2.459666 -1.420790
v 55.387401 2.459666 -1.420790
v 55.387401 2.008250 -2.009062
v 44.735897 2.459666 -1.420790
v 44.735897 2.743357 -0.735747
v 55.387401 2.743357 -0.735747
v 55.387401 2.459666 -1.420790
v 44.735897 2.743357 -0.735747
v 44.735897 2.840281 -0.000594
v 55.387401 2.840281 -0.000594
v 55.387401 2.743357 -0.735747
v 55.387401 2.840281 -0.000594
v 44.735897 2.840281 -0.000594
v 44.735897 2.743357 0.734559
v 55.387401 2.743357 0.734559
v 55.387401 2.743357 0.734559
v 44.735897 2.743357 0.734559
v 44.735897 2.459666 1.419603
v 55.387401 2.459666 1.419603
v 55.387401 2.459666 1.419603
v 44.735897 2.459666 1.419603
v 44.735897 2.008250 2.007875
v 55.387401 2.008250 2.007875
v 55.387401 2.008250 2.007875
v 44.735897 2.008250 2.007875
v 44.735897 1.419871 2.459260
v 55.387401 1.419871 2.459260
v 55.387401 1.419871 2.459260
v 44.735897 1.419871 2.459260
v 44.735897 0.734812 2.743013
v 55.387401 0.734812 2.743013
v 55.387401 0.734812 2.743013
v 44.735897 0.734812 2.743013
v 44.735897 -0.000295 2.839799
v 55.387401 -0.000295 2.839799
v 55.387401 -0.000295 2.839799
v 44.735897 -0.000295 2.839799
v 44.735897 -0.735403 2.743013
v 55.387401 -0.735403 2.743013
v 55.387401 -0.735403 2.743013
v 44.735897 -0.735403 2.743013
v 44.735897 -1.420461 2.459260
v 55.387401 -1.420461 2.459260
v 55.387401 -1.420461 2.459260
v 44.735897 -1.420461 2.459260
v 44.735897 -2.008596 2.007875
v 55.387401 -1.420461 2.459260
v 44.735897 -2.008596 2.007875
v 55.387401 -2.008596 2.007875
v 55.387401 -2.008596 2.007875
v 44.735897 -2.008596 2.007875
v 44.735897 -2.460012 1.419603
v 55.387401 -2.460012 1.419603
v 55.387401 -2.460012 1.419603
v 44.735897 -2.460012 1.419603
v 44.735897 -2.743948 0.734559
v 55.387401 -2.743948 0.734559
v 55.387401 -2.743948 0.734559
v 44.735897 -2.743948 0.734559
v 44.735897 -2.840627 -0.000594
v 55.387401 -2.840627 -0.000594
v 44.735897 -2.840627 -0.000594
v 44.735897 -2.743948 -0.735747
v 55.387401 -2.743948 -0.735747
v 55.387401 -2.840627 -0.000594
v 44.735897 -2.743948 -0.735747
v 44.735897 -2.460012 -1.420790
v 55.387401 -2.460012 -1.420790
v 55.387401 -2.743948 -0.735747
v 44.735897 -2.460012 -1.420790
v 44.735897 -2.008596 -2.009062
v 55.387401 -2.008596 -2.009062
v 55.387401 -2.460012 -1.420790
v 44.735897 -2.008596 -2.009062
v 44.735897 -1.420461 -2.460448
v 55.387401 -1.420461 -2.460448
v 44.735897 -2.008596 -2.009062
v 55.387401 -1.420461 -2.460448
v 55.387401 -2.008596 -2.009062
v 44.735897 -1.420461 -2.460448
v 44.735897 -0.735403 -2.744200
v 55.387401 -0.735403 -2.744200
v 55.387401 -1.420461 -2.460448
v 44.735897 -0.735403 -2.744200
v 44.735897 -0.000295 -2.840987
v 55.387401 -0.000295 -2.840987
v 44.735897 -0.735403 -2.744200
v 55.387401 -0.000295 -2.840987
v 55.387401 -0.735403 -2.744200
v 55.387401 -0.000295 -2.840987
v 55.387401 0.734812 -2.744200
v 55.387401 1.419871 -2.460448
v 55.387401 2.008250 -2.009062
v 55.387401 -0.000295 -2.840987
v 55.387401 1.419871 -2.460448
v 55.387401 2.459666 -1.420790
v 55.387401 2.743357 -0.735747
v 55.387401 2.840281 -0.000594
v 55.387401 2.743357 0.734559
v 55.387401 2.459666 1.419603
v 55.387401 2.008250 2.007875
v 55.387401 1.419871 2.459260
v 55.387401 0.734812 2.743013
v 55.387401 -0.000295 2.839799
v 55.387401 -0.735403 2.743013
v 55.387401 -1.420461 2.459260
v 55.387401 -2.008596 2.007875
v 55.387401 -2.460012 1.419603
v 55.387401 -2.743948 0.734559
v 55.387401 -2.840627 -0.000594
v 55.387401 -2.743948 -0.735747
v 55.387401 -2.460012 -1.420790
v 55.387401 -2.008596 -2.009062
v 55.387401 -1.420461 -2.460448
v 55.387401 -1.420461 -2.460448
v 55.387401 -0.735403 -2.744200
v -54.678101 -7.811331 -0.000594
v -44.736702 -7.811331 -0.000594
v -44.736702 -7.811331 3.549897
v -54.678101 -7.811331 3.549897
v -44.736702 -7.811331 3.549897
v -44.736702 7.810740 3.549897
v -54.678101 7.810740 3.549897
v -54.678101 -7.811331 3.549897
v -44.736702 -7.811331 -0.000594
v -44.736702 7.810740 -0.000594
v -44.736702 7.810740 3.549897
v -44.736702 -7.811331 3.549897
v -54.678101 7.810740 -0.000594
v -44.736702 7.810740 -0.000594
v -44.736702 -7.811331 -0.000594
v -54.678101 -7.811331 -0.000594
v -54.678101 7.810740 3.549897
v -54.678101 7.810740 -0.000594
v -54.678101 -7.811331 -0.000594
v -54.678101 -7.811331 3.549897
v -44.736702 7.810740 3.549897
v -44.736702 7.810740 -0.000594
v -54.678101 7.810740 -0.000594
v -54.678101 7.810740 3.549897
v 45.446003 -7.811331 -0.000609
v 54.677303 -7.811331 -0.000609
v 54.677303 -7.811331 3.549897
v 45.446003 -7.811331 3.549897
v 54.677303 -7.811331 3.549897
v 54.677303 7.810740 3.549897
v 45.446003 7.810740 3.549897
v 45.446003 -7.811331 3.549897
v 54.677303 -7.811331 -0.000609
v 54.677303 7.810740 -0.000609
v 54.677303 7.810740 3.549897
v 54.677303 -7.811331 3.549897
v 45.446003 7.810740 -0.000609
v 54.677303 7.810740 -0.000609
v 54.677303 -7.811331 -0.000609
v 45.446003 -7.811331 -0.000609
v 45.446003 7.810740 3.549897
v 45.446003 7.810740 -0.000609
v 45.446003 -7.811331 -0.000609
v 45.446003 -7.811331 3.549897
v 54.677303 7.810740 3.549897
v 54.677303 7.810740 -0.000609
v 45.446003 7.810740 -0.000609
v 45.446003 7.810740 3.549897
vn -1.000000 0.000000 0.000000
vn -1.000000 0.000000 0.000000
vn -1.000000 0.000000 0.000000
vn -1.000000 0.000000 0.000000
vn 0.000000 0.000000 -1.000000
vn 0.000000 0.000000 -1.000000
vn 0.000000 0.000000 -1.000000
vn 0.000000 0.000000 -1.000000
vn 0.000000 1.000000 0.000000
vn 0.000000 1.000000 0.000000
vn 0.000000 1.000000 0.000000
vn 0.000000 1.000000 0.000000
vn 0.000000 0.000000 1.000000
vn 0.000000 0.000000 1.000000
vn 0.000000 0.000000 1.000000
vn 0.000000 0.000000 1.000000
vn 0.000000 -1.000000 0.000000
vn 0.000000 -1.000000 0.000000
vn 0.000000 -1.000000 0.000000
vn 0.000000 -1.000000 0.000000
vn 1.000000 0.000000 0.000000
vn 1.000000 0.000000 0.000000
vn 1.000000 0.000000 0.000000
vn 1.000000 0.000000 0.000000
vn 0.000000 -1.000000 0.000000
vn 0.000000 -1.000000 0.000000
vn 0.000000 -1.000000 0.000000
vn 0.000000 -1.000000 0.000000
vn 0.000000 1.000000 0.000000
vn 0.000000 1.000000 0.000000
vn 0.000000 1.000000 0.000000
vn 0.000000 1.000000 0.000000
vn -1.000000 0.000000 0.000000
vn -1.000000 0.000000 0.000000
vn -1.000000 0.000000 0.000000
vn -1.000000 0.000000 0.000000
vn 1.000000 0.000000 0.000000
vn 1.000000 0.000000 0.000000
vn 1.000000 0.000000 0.000000
vn 1.000000 0.000000 0.000000
vn 0.000000 0.000000 -1.000000
vn 0.000000 0.000000 -1.000000
vn 0.000000 0.000000 -1.000000
vn 0.000000 0.000000 -1.000000
vn 0.000000 0.000000 1.000000
vn 0.000000 0.000000 1.000000
vn 0.000000 0.000000 1.000000
vn 0.000000 0.000000 1.000000
vn 0.000000 0.000000 1.000000
vn 0.000000 0.000000 1.000000
vn 0.000000 0.000000 1.000000
vn 0.000000 0.000000 1.000000
vn -1.000000 0.000000 0.000000
vn -1.000000 0.000000 0.000000
vn -1.000000 0.000000 0.000000
vn -1.000000 0.000000 0.000000
vn 0.000000 1.000000 0.000000
vn 0.000000 1.000000 0.000000
vn 0.000000 1.000000 0.000000
vn 0.000000 1.000000 0.000000
vn 1.000000 0.000000 0.000000
vn 1.000000 0.000000 0.000000
vn 1.000000 0.000000 0.000000
vn 1.000000 0.000000 0.000000
vn 0.000000 -1.000000 0.000000
vn 0.000000 -1.000000 0.000000
vn 0.000000 -1.000000 0.000000
vn 0.000000 -1.000000 0.000000
vn 0.000000 0.000000 -1.000000
vn 0.000000 0.000000 -1.000000
vn 0.000000 0.000000 -1.000000
vn 0.000000 0.000000 -1.000000
vn 0.000000 0.000000 -1.000000
vn 0.000000 0.000000 -1.000000
vn 0.000000 0.000000 -1.000000
vn 0.000000 0.000000 -1.000000
vn -1.000000 0.000000 0.000000
vn -1.000000 0.000000 0.000000
vn -1.000000 0.000000 0.000000
vn -1.000000 0.000000 0.000000
vn 0.000000 1.000000 0.000000
vn 0.000000 1.000000 0.000000
vn 0.000000 1.000000 0.000000
vn 0.000000 1.000000 0.000000
vn 1.000000 0.000000 0.000000
vn 1.000000 0.000000 0.000000
vn 1.000000 0.000000 0.000000
vn 1.000000 0.000000 0.000000
vn 0.000000 -1.000000 0.000000
vn 0.000000 -1.000000 0.000000
vn 0.000000 -1.000000 0.000000
vn 0.000000 -1.000000 0.000000
vn 0.000000 0.000000 1.000000
vn 0.000000 0.000000 1.000000
vn 0.000000 0.000000 1.000000
vn 0.000000 0.000000 1.000000
vn 0.000000 1.000000 0.000000
vn 0.000000 1.000000 0.000000
vn 0.000000 1.000000 0.000000
vn 0.000000 1.000000 0.000000
vn 0.000000 1.000000 0.000000
vn 0.000000 1.000000 0.000000
vn 0.000000 1.000000 0.000000
vn 0.000000 1.000000 0.000000
vn 0.000000 -1.000000 0.000000
vn 0.000000 -1.000000 0.000000
vn 0.000000 -1.000000 0.000000
vn 0.000000 -1.000000 0.000000
vn 0.000000 -1.000000 0.000000
vn 0.000000 -1.000000 0.000000
vn 0.000000 -1.000000 0.000000
vn 0.000000 -1.000000 0.000000
vn 0.000000 0.000000 -1.000000
vn 0.000000 0.000000 -1.000000
vn 0.000000 0.000000 -1.000000
vn 0.000000 0.000000 -1.000000
vn -1.000000 0.000000 0.000000
vn -1.000000 0.000000 0.000000
vn -1.000000 0.000000 0.000000
vn -1.000000 0.000000 0.000000
vn 1.000000 0.000000 0.000000
vn 1.000000 0.000000 0.000000
vn 1.000000 0.000000 0.000000
vn 1.000000 0.000000 0.000000
vn 0.000000 0.000000 -1.000000
vn 0.000000 0.000000 -1.000000
vn 0.000000 0.000000 -1.000000
vn 0.000000 0.000000 -1.000000
vn -1.000000 0.000000 0.000000
vn -1.000000 0.000000 0.000000
vn -1.000000 0.000000 0.000000
vn -1.000000 0.000000 0.000000
vn 1.000000 0.000000 0.000000
vn 1.000000 0.000000 0.000000
vn 1.000000 0.000000 0.000000
vn 1.000000 0.000000 0.000000
vn 0.000000 0.000000 1.000000
vn 0.000000 0.000000 1.000000
vn 0.000000 0.000000 1.000000
vn 0.000000 0.000000 1.000000
vn 0.000000 0.000000 1.000000
vn 0.000000 0.000000 1.000000
vn 0.000000 0.000000 1.000000
vn 0.000000 0.000000 1.000000
vn 0.000000 0.000000 -1.000000
vn 0.000000 0.000000 -1.000000
vn 0.000000 0.000000 -1.000000
vn 0.000000 0.000000 -1.000000
vn 0.000000 0.000000 -1.000000
vn 0.000000 0.000000 -1.000000
vn 0.000000 0.000000 -1.000000
vn 0.000000 0.000000 -1.000000
vn 0.000000 -0.000100 -1.000000
vn 0.000000 -0.000100 -1.000000
vn 0.000000 -0.000100 -1.000000
vn 0.000000 0.000200 -1.000000
vn 0.000000 0.000200 -1.000000
vn 0.000000 0.000200 -1.000000
vn 0.000000 -0.000100 -1.000000
vn 0.000000 -0.000100 -1.000000
vn 0.000000 0.000000 -1.000000
vn 0.000000 0.000000 -1.000000
vn 0.000000 0.000000 -1.000000
vn 0.000000 0.000000 -1.000000
vn 0.000000 0.000000 -1.000000
vn 0.000000 -0.000100 -1.000000
vn 0.000000 -0.000100 -1.000000
vn 0.000000 0.000000 -1.000000
vn 0.000000 0.000000 -1.000000
vn 0.000000 0.000000 -1.000000
vn 0.000000 0.000000 -1.000000
vn 0.000000 0.000000 -1.000000
vn 0.000000 0.000100 -1.000000
vn 0.000000 0.000100 -1.000000
vn 0.000000 0.000100 -1.000000
vn 0.000000 0.000000 -1.000000
vn 0.000000 0.000000 -1.000000
vn 0.000000 0.000200 -1.000000
vn 0.000000 0.000200 -1.000000
vn 0.000000 0.000000 -1.000000
vn 0.000000 0.000000 -1.000000
vn 0.082201 0.996616 0.000000
vn 0.082201 0.996616 0.000000
vn 0.082201 0.996616 0.000000
vn 0.082201 0.996616 0.000000
vn 0.250598 0.968091 0.000000
vn 0.250598 0.968091 0.000000
vn 0.250598 0.968091 0.000000
vn 0.250598 0.968091 0.000000
vn 0.432191 0.901782 0.000000
vn 0.432191 0.901782 0.000000
vn 0.432191 0.901782 0.000000
vn 0.432191 0.901782 0.000000
vn 0.631597 0.775297 0.000000
vn 0.631597 0.775297 0.000000
vn 0.631597 0.775297 0.000000
vn 0.631597 0.775297 0.000000
vn 0.833509 0.552506 0.000000
vn 0.833509 0.552506 0.000000
vn 0.833509 0.552506 0.000000
vn 0.833509 0.552506 0.000000
vn 0.978530 0.206106 0.000000
vn 0.978530 0.206106 0.000000
vn 0.978530 0.206106 0.000000
vn 0.978530 0.206106 0.000000
vn 0.978530 -0.206106 0.000000
vn 0.978530 -0.206106 0.000000
vn 0.978530 -0.206106 0.000000
vn 0.978530 -0.206106 0.000000
vn 0.833509 -0.552506 0.000000
vn 0.833509 -0.552506 0.000000
vn 0.833509 -0.552506 0.000000
vn 0.833509 -0.552506 0.000000
vn 0.631597 -0.775297 0.000000
vn 0.631597 -0.775297 0.000000
vn 0.631597 -0.775297 0.000000
vn 0.631597 -0.775297 0.000000
vn 0.432513 -0.901628 0.000000
vn 0.432513 -0.901628 0.000000
vn 0.432513 -0.901628 0.000000
vn 0.432513 -0.901628 0.000000
vn 0.250598 -0.968091 0.000000
vn 0.250598 -0.968091 0.000000
vn 0.250598 -0.968091 0.000000
vn 0.250598 -0.968091 0.000000
vn 0.081903 -0.996640 0.000000
vn 0.081903 -0.996640 0.000000
vn 0.081903 -0.996640 0.000000
vn 0.081903 -0.996640 0.000000
vn -0.081903 -0.996640 0.000000
vn -0.081903 -0.996640 0.000000
vn -0.081903 -0.996640 0.000000
vn -0.081903 -0.996640 0.000000
vn -0.250598 -0.968091 0.000000
vn -0.250598 -0.968091 0.000000
vn -0.250598 -0.968091 0.000000
vn -0.250598 -0.968091 0.000000
vn -0.432513 -0.901628 0.000000
vn -0.432513 -0.901628 0.000000
vn -0.432513 -0.901628 0.000000
vn -0.432513 -0.901628 0.000000
vn -0.631597 -0.775297 0.000000
vn -0.631597 -0.775297 0.000000
vn -0.631597 -0.775297 0.000000
vn -0.631597 -0.775297 0.000000
vn -0.833509 -0.552506 0.000000
vn -0.833509 -0.552506 0.000000
vn -0.833509 -0.552506 0.000000
vn -0.833509 -0.552506 0.000000
vn -0.978530 -0.206106 0.000000
vn -0.978530 -0.206106 0.000000
vn -0.978530 -0.206106 0.000000
vn -0.978530 -0.206106 0.000000
vn -0.978530 0.206106 0.000000
vn -0.978530 0.206106 0.000000
vn -0.978530 0.206106 0.000000
vn -0.978530 0.206106 0.000000
vn -0.833509 0.552506 0.000000
vn -0.833509 0.552506 0.000000
vn -0.833509 0.552506 0.000000
vn -0.833509 0.552506 0.000000
vn -0.631597 0.775297 0.000000
vn -0.631597 0.775297 0.000000
vn -0.631597 0.775297 0.000000
vn -0.631597 0.775297 0.000000
vn -0.432191 0.901782 0.000000
vn -0.432191 0.901782 0.000000
vn -0.432191 0.901782 0.000000
vn -0.432191 0.901782 0.000000
vn -0.250598 0.968091 0.000000
vn -0.250598 0.968091 0.000000
vn -0.250598 0.968091 0.000000
vn -0.250598 0.968091 0.000000
vn -0.082201 0.996616 0.000000
vn -0.082201 0.996616 0.000000
vn -0.082201 0.996616 0.000000
vn -0.082201 0.996616 0.000000
vn 0.000000 0.000000 1.000000
vn 0.000000 0.000000 1.000000
vn 0.000000 0.000000 1.000000
vn 0.000000 0.000000 1.000000
vn 0.000000 0.000000 1.000000
vn 0.000000 0.000000 1.000000
vn 0.000000 -0.000100 1.000000
vn 0.000000 -0.000100 1.000000
vn 0.000000 -0.000100 1.000000
vn 0.000000 0.000200 1.000000
vn 0.000000 0.000200 1.000000
vn 0.000000 0.000200 1.000000
vn 0.000000 0.000000 1.000000
vn 0.000000 0.000000 1.000000
vn 0.000000 0.000000 1.000000
vn 0.000000 0.000000 1.000000
vn 0.000000 0.000000 1.000000
vn 0.000000 0.000000 1.000000
vn 0.000000 0.000000 1.000000
vn 0.000000 0.000000 1.000000
vn 0.000000 0.000100 1.000000
vn 0.000000 0.000100 1.000000
vn 0.000000 0.000100 1.000000
vn 0.000000 -0.000100 1.000000
vn 0.000000 -0.000100 1.000000
vn 0.000000 0.000000 1.000000
vn 0.000000 0.000000 1.000000
vn 0.000000 0.000100 1.000000
vn 0.000000 0.000100 1.000000
vn 0.000000 0.000000 1.000000
vn 0.000000 0.000000 1.000000
vn 0.000000 -0.000100 1.000000
vn 0.000000 -0.000100 1.000000
vn 0.000000 0.000100 1.000000
vn 0.000000 0.000100 1.000000
vn 0.000000 0.000000 1.000000
vn 0.000000 0.000000 1.000000
vn 0.000000 0.000000 1.000000
vn 0.000000 1.000000 0.000000
vn 0.000000 1.000000 0.000000
vn 0.000000 1.000000 0.000000
vn 0.000000 1.000000 0.000000
vn 0.000000 1.000000 0.000000
vn 0.000000 1.000000 0.000000
vn 0.000000 -1.000000 0.000000
vn 0.000000 -1.000000 0.000000
vn 0.000000 -1.000000 0.000000
vn 0.000000 -1.000000 0.000000
vn 0.000000 -1.000000 0.000000
vn 0.000000 -1.000000 0.000000
vn 0.000000 0.000000 -1.000000
vn 0.000000 0.000000 -1.000000
vn 0.000000 0.000000 -1.000000
vn 0.000000 0.000000 -1.000000
vn 0.788911 0.000000 0.614508
vn 0.788911 0.000000 0.614508
vn 0.788911 0.000000 0.614508
vn 0.788911 0.000000 0.614508
vn -0.792620 0.000000 0.609716
vn -0.792620 0.000000 0.609716
vn -0.792620 0.000000 0.609716
vn -0.792620 0.000000 0.609716
vn 0.792620 0.000000 -0.609716
vn 0.792620 0.000000 -0.609716
vn 0.792620 0.000000 -0.609716
vn 0.792620 0.000000 -0.609716
vn -0.788911 0.000000 -0.614508
vn -0.788911 0.000000 -0.614508
vn -0.788911 0.000000 -0.614508
vn -0.788911 0.000000 -0.614508
vn 0.000000 0.000000 1.000000
vn 0.000000 0.000000 1.000000
vn 0.000000 0.000000 1.000000
vn 0.000000 0.000000 1.000000
vn -1.000000 0.000000 0.000000
vn -1.000000 0.000000 0.000000
vn -1.000000 0.000000 0.000000
vn -1.000000 0.000000 0.000000
vn -1.000000 0.000000 0.000000
vn -1.000000 0.000000 0.000000
vn -1.000000 0.000000 0.000000
vn -1.000000 0.000000 0.000000
vn -1.000000 0.000000 0.000000
vn -1.000000 0.000000 0.000000
vn -1.000000 0.000000 0.000000
vn -1.000000 0.000000 0.000000
vn -1.000000 0.000000 0.000000
vn -1.000000 0.000000 0.000000
vn -1.000000 0.000000 0.000000
vn -1.000000 0.000000 0.000000
vn -1.000000 0.000000 0.000000
vn -1.000000 0.000000 0.000000
vn -1.000000 0.000000 0.000000
vn -1.000000 0.000000 0.000000
vn -1.000000 0.000000 0.000000
vn -1.000000 0.000000 0.000000
vn -1.000000 0.000000 0.000000
vn -1.000000 0.000000 0.000000
vn 0.000000 0.130506 -0.991448
vn 0.000000 0.130506 -0.991448
vn 0.000000 0.130506 -0.991448
vn 0.000000 0.130506 -0.991448
vn 0.000000 0.382690 -0.923877
vn 0.000000 0.382690 -0.923877
vn 0.000000 0.382690 -0.923877
vn 0.000000 0.382690 -0.923877
vn 0.000000 0.608700 -0.793400
vn 0.000000 0.608700 -0.793400
vn 0.000000 0.608700 -0.793400
vn 0.000000 0.608700 -0.793400
vn 0.000000 0.793315 -0.608811
vn 0.000000 0.793315 -0.608811
vn 0.000000 0.793315 -0.608811
vn 0.000000 0.793315 -0.608811
vn 0.000000 0.923912 -0.382605
vn 0.000000 0.923912 -0.382605
vn 0.000000 0.923912 -0.382605
vn 0.000000 0.923912 -0.382605
vn 0.000000 0.991422 -0.130703
vn 0.000000 0.991422 -0.130703
vn 0.000000 0.991422 -0.130703
vn 0.000000 0.991422 -0.130703
vn 0.000000 0.991422 0.130703
vn 0.000000 0.991422 0.130703
vn 0.000000 0.991422 0.130703
vn 0.000000 0.991422 0.130703
vn 0.000000 0.923912 0.382605
vn 0.000000 0.923912 0.382605
vn 0.000000 0.923912 0.382605
vn 0.000000 0.923912 0.382605
vn 0.000000 0.793315 0.608811
vn 0.000000 0.793315 0.608811
vn 0.000000 0.793315 0.608811
vn 0.000000 0.793315 0.608811
vn 0.000000 0.608700 0.793400
vn 0.000000 0.608700 0.793400
vn 0.000000 0.608700 0.793400
vn 0.000000 0.608700 0.793400
vn 0.000000 0.382690 0.923877
vn 0.000000 0.382690 0.923877
vn 0.000000 0.382690 0.923877
vn 0.000000 0.382690 0.923877
vn 0.000000 0.130605 0.991435
vn 0.000000 0.130605 0.991435
vn 0.000000 0.130605 0.991435
vn 0.000000 0.130506 0.991448
vn 0.000000 0.130506 0.991448
vn 0.000000 0.130506 0.991448
vn 0.000000 -0.130506 0.991448
vn 0.000000 -0.130506 0.991448
vn 0.000000 -0.130506 0.991448
vn 0.000000 -0.130605 0.991435
vn 0.000000 -0.130605 0.991435
vn 0.000000 -0.130605 0.991435
vn 0.000000 -0.382690 0.923877
vn 0.000000 -0.382690 0.923877
vn 0.000000 -0.382690 0.923877
vn 0.000000 -0.382690 0.923877
vn 0.000000 -0.608811 0.793315
vn 0.000000 -0.608811 0.793315
vn 0.000000 -0.608811 0.793315
vn 0.000000 -0.608811 0.793315
vn 0.000000 -0.793315 0.608811
vn 0.000000 -0.793315 0.608811
vn 0.000000 -0.793315 0.608811
vn 0.000000 -0.793315 0.608811
vn 0.000000 -0.923791 0.382896
vn 0.000000 -0.923791 0.382896
vn 0.000000 -0.923791 0.382896
vn 0.000000 -0.923791 0.382896
vn 0.000000 -0.991462 0.130395
vn 0.000000 -0.991462 0.130395
vn 0.000000 -0.991462 0.130395
vn 0.000000 -0.991462 0.130395
vn 0.000000 -0.991462 -0.130395
vn 0.000000 -0.991462 -0.130395
vn 0.000000 -0.991462 -0.130395
vn 0.000000 -0.991462 -0.130395
vn 0.000000 -0.923791 -0.382896
vn 0.000000 -0.923791 -0.382896
vn 0.000000 -0.923791 -0.382896
vn 0.000000 -0.923791 -0.382896
vn 0.000000 -0.793315 -0.608811
vn 0.000000 -0.793315 -0.608811
vn 0.000000 -0.793315 -0.608811
vn 0.000000 -0.793315 -0.608811
vn 0.000000 -0.608811 -0.793315
vn 0.000000 -0.608811 -0.793315
vn 0.000000 -0.608811 -0.793315
vn 0.000000 -0.608811 -0.793315
vn 0.000000 -0.382690 -0.923877
vn 0.000000 -0.382690 -0.923877
vn 0.000000 -0.382690 -0.923877
vn 0.000000 -0.382690 -0.923877
vn 0.000000 -0.130506 -0.991448
vn 0.000000 -0.130506 -0.991448
vn 0.000000 -0.130506 -0.991448
vn 0.000000 -0.130506 -0.991448
vn 1.000000 0.000000 -0.000100
vn 1.000000 0.000000 -0.000100
vn 1.000000 0.000000 -0.000100
vn 1.000000 0.000000 0.000000
vn 1.000000 0.000000 0.000000
vn 1.000000 0.000000 0.000000
vn 1.000000 0.000000 0.000000
vn 1.000000 0.000000 0.000000
vn 1.000000 0.000000 0.000000
vn 1.000000 0.000000 0.000000
vn 1.000000 0.000000 0.000000
vn 1.000000 0.000000 0.000000
vn 1.000000 0.000000 0.000000
vn 1.000000 0.000000 0.000000
vn 1.000000 0.000000 0.000000
vn 1.000000 0.000000 0.000000
vn 1.000000 0.000000 0.000000
vn 1.000000 0.000000 0.000000
vn 1.000000 0.000000 0.000000
vn 1.000000 0.000000 0.000000
vn 1.000000 0.000000 0.000000
vn 1.000000 0.000000 0.000000
vn 1.000000 0.000000 0.000000
vn 1.000000 0.000000 0.000000
vn 1.000000 0.000000 0.000000
vn 1.000000 0.000000 -0.000100
vn 1.000000 0.000000 -0.000100
vn -1.000000 0.000000 0.000000
vn -1.000000 0.000000 0.000000
vn -1.000000 0.000000 0.000000
vn -1.000000 0.000000 0.000000
vn -1.000000 0.000000 0.000000
vn -1.000000 0.000000 0.000000
vn -1.000000 0.000000 0.000000
vn -1.000000 0.000000 0.000000
vn -1.000000 0.000000 0.000000
vn -1.000000 0.000000 0.000000
vn -1.000000 0.000000 0.000000
vn -1.000000 0.000000 0.000000
vn -1.000000 0.000000 0.000000
vn -1.000000 0.000000 0.000000
vn -1.000000 0.000000 0.000000
vn -1.000000 0.000000 0.000000
vn -1.000000 0.000000 0.000000
vn -1.000000 0.000000 0.000000
vn -1.000000 0.000000 0.000000
vn -1.000000 0.000000 0.000000
vn -1.000000 0.000000 0.000000
vn -1.000000 0.000000 0.000000
vn -1.000000 0.000000 0.000000
vn -1.000000 0.000000 0.000000
vn 0.000000 0.130605 -0.991435
vn 0.000000 0.130605 -0.991435
vn 0.000000 0.130605 -0.991435
vn 0.000000 0.130506 -0.991448
vn 0.000000 0.130506 -0.991448
vn 0.000000 0.130506 -0.991448
vn 0.000000 0.382690 -0.923877
vn 0.000000 0.382690 -0.923877
vn 0.000000 0.382690 -0.923877
vn 0.000000 0.382690 -0.923877
vn 0.000000 0.608700 -0.793400
vn 0.000000 0.608700 -0.793400
vn 0.000000 0.608700 -0.793400
vn 0.000000 0.608700 -0.793400
vn 0.000000 0.793315 -0.608811
vn 0.000000 0.793315 -0.608811
vn 0.000000 0.793315 -0.608811
vn 0.000000 0.793315 -0.608811
vn 0.000000 0.923912 -0.382605
vn 0.000000 0.923912 -0.382605
vn 0.000000 0.923912 -0.382605
vn 0.000000 0.923912 -0.382605
vn 0.000000 0.991422 -0.130703
vn 0.000000 0.991422 -0.130703
vn 0.000000 0.991422 -0.130703
vn 0.000000 0.991422 -0.130703
vn 0.000000 0.991422 0.130703
vn 0.000000 0.991422 0.130703
vn 0.000000 0.991422 0.130703
vn 0.000000 0.991422 0.130703
vn 0.000000 0.923912 0.382605
vn 0.000000 0.923912 0.382605
vn 0.000000 0.923912 0.382605
vn 0.000000 0.923912 0.382605
vn 0.000000 0.793315 0.608811
vn 0.000000 0.793315 0.608811
vn 0.000000 0.793315 0.608811
vn 0.000000 0.793315 0.608811
vn 0.000000 0.608700 0.793400
vn 0.000000 0.608700 0.793400
vn 0.000000 0.608700 0.793400
vn 0.000000 0.608700 0.793400
vn 0.000000 0.382690 0.923877
vn 0.000000 0.382690 0.923877
vn 0.000000 0.382690 0.923877
vn 0.000000 0.382690 0.923877
vn 0.000000 0.130506 0.991448
vn 0.000000 0.130506 0.991448
vn 0.000000 0.130506 0.991448
vn 0.000000 0.130506 0.991448
vn 0.000000 -0.130506 0.991448
vn 0.000000 -0.130506 0.991448
vn 0.000000 -0.130506 0.991448
vn 0.000000 -0.130506 0.991448
vn 0.000000 -0.382690 0.923877
vn 0.000000 -0.382690 0.923877
vn 0.000000 -0.382690 0.923877
vn 0.000000 -0.382690 0.923877
vn 0.000000 -0.608874 0.793267
vn 0.000000 -0.608874 0.793267
vn 0.000000 -0.608874 0.793267
vn 0.000000 -0.608811 0.793315
vn 0.000000 -0.608811 0.793315
vn 0.000000 -0.608811 0.793315
vn 0.000000 -0.793315 0.608811
vn 0.000000 -0.793315 0.608811
vn 0.000000 -0.793315 0.608811
vn 0.000000 -0.793315 0.608811
vn 0.000000 -0.923791 0.382896
vn 0.000000 -0.923791 0.382896
vn 0.000000 -0.923791 0.382896
vn 0.000000 -0.923791 0.382896
vn 0.000000 -0.991462 0.130395
vn 0.000000 -0.991462 0.130395
vn 0.000000 -0.991462 0.130395
vn 0.000000 -0.991462 0.130395
vn 0.000000 -0.991462 -0.130395
vn 0.000000 -0.991462 -0.130395
vn 0.000000 -0.991462 -0.130395
vn 0.000000 -0.991462 -0.130395
vn 0.000000 -0.923791 -0.382896
vn 0.000000 -0.923791 -0.382896
vn 0.000000 -0.923791 -0.382896
vn 0.000000 -0.923791 -0.382896
vn 0.000000 -0.793315 -0.608811
vn 0.000000 -0.793315 -0.608811
vn 0.000000 -0.793315 -0.608811
vn 0.000000 -0.793315 -0.608811
vn 0.000000 -0.608811 -0.793315
vn 0.000000 -0.608811 -0.793315
vn 0.000000 -0.608811 -0.793315
vn 0.000000 -0.608874 -0.793267
vn 0.000000 -0.608874 -0.793267
vn 0.000000 -0.608874 -0.793267
vn 0.000000 -0.382690 -0.923877
vn 0.000000 -0.382690 -0.923877
vn 0.000000 -0.382690 -0.923877
vn 0.000000 -0.382690 -0.923877
vn 0.000000 -0.130506 -0.991448
vn 0.000000 -0.130506 -0.991448
vn 0.000000 -0.130506 -0.991448
vn 0.000000 -0.130605 -0.991435
vn 0.000000 -0.130605 -0.991435
vn 0.000000 -0.130605 -0.991435
vn 1.000000 0.000000 0.000100
vn 1.000000 0.000000 0.000100
vn 1.000000 0.000000 0.000100
vn 1.000000 0.000000 0.000000
vn 1.000000 0.000000 0.000000
vn 1.000000 0.000000 0.000000
vn 1.000000 0.000000 0.000000
vn 1.000000 0.000000 0.000000
vn 1.000000 0.000000 0.000000
vn 1.000000 0.000000 0.000000
vn 1.000000 0.000000 0.000000
vn 1.000000 0.000000 0.000000
vn 1.000000 0.000000 0.000000
vn 1.000000 0.000000 0.000000
vn 1.000000 0.000000 0.000000
vn 1.000000 0.000000 0.000000
vn 1.000000 0.000000 0.000000
vn 1.000000 0.000000 0.000000
vn 1.000000 0.000000 0.000000
vn 1.000000 0.000000 0.000000
vn 1.000000 0.000000 0.000000
vn 1.000000 0.000000 0.000000
vn 1.000000 0.000000 0.000000
vn 1.000000 0.000000 0.000000
vn 1.000000 0.000000 0.000000
vn 1.000000 0.000000 0.000100
vn 1.000000 0.000000 0.000100
vn 0.000000 -1.000000 0.000000
vn 0.000000 -1.000000 0.000000
vn 0.000000 -1.000000 0.000000
vn 0.000000 -1.000000 0.000000
vn 0.000000 0.000000 1.000000
vn 0.000000 0.000000 1.000000
vn 0.000000 0.000000 1.000000
vn 0.000000 0.000000 1.000000
vn 1.000000 0.000000 0.000000
vn 1.000000 0.000000 0.000000
vn 1.000000 0.000000 0.000000
vn 1.000000 0.000000 0.000000
vn 0.000000 0.000000 -1.000000
vn 0.000000 0.000000 -1.000000
vn 0.000000 0.000000 -1.000000
vn 0.000000 0.000000 -1.000000
vn -1.000000 0.000000 0.000000
vn -1.000000 0.000000 0.000000
vn -1.000000 0.000000 0.000000
vn -1.000000 0.000000 0.000000
vn 0.000000 1.000000 0.000000
vn 0.000000 1.000000 0.000000
vn 0.000000 1.000000 0.000000
vn 0.000000 1.000000 0.000000
vn 0.000000 -1.000000 0.000000
vn 0.000000 -1.000000 0.000000
vn 0.000000 -1.000000 0.000000
vn 0.000000 -1.000000 0.000000
vn 0.000000 0.000000 1.000000
vn 0.000000 0.000000 1.000000
vn 0.000000 0.000000 1.000000
vn 0.000000 0.000000 1.000000
vn 1.000000 0.000000 0.000000
vn 1.000000 0.000000 0.000000
vn 1.000000 0.000000 0.000000
vn 1.000000 0.000000 0.000000
vn 0.000000 0.000000 -1.000000
vn 0.000000 0.000000 -1.000000
vn 0.000000 0.000000 -1.000000
vn 0.000000 0.000000 -1.000000
vn -1.000000 0.000000 0.000000
vn -1.000000 0.000000 0.000000
vn -1.000000 0.000000 0.000000
vn -1.000000 0.000000 0.000000
vn 0.000000 1.000000 0.000000
vn 0.000000 1.000000 0.000000
vn 0.000000 1.000000 0.000000
vn 0.000000 1.000000 0.000000
f 1//1 2//2 3//3
f 1//1 3//3 4//4
f 5//5 6//6 7//7
f 5//5 7//7 8//8
f 9//9 10//10 11//11
f 9//9 11//11 12//12
f 13//13 14//14 15//15
f 13//13 15//15 16//16
f 17//17 18//18 19//19
f 17//17 19//19 20//20
f 21//21 22//22 23//23
f 21//21 23//23 24//24
f 25//25 26//26 27//27
f 25//25 27//27 28//28
f 29//29 30//30 31//31
f 29//29 31//31 32//32
f 33//33 34//34 35//35
f 33//33 35//35 36//36
f 37//37 38//38 39//39
f 37//37 39//39 40//40
f 41//41 42//42 43//43
f 41//41 43//43 44//44
f 45//45 46//46 47//47
f 45//45 47//47 48//48
f 49//49 50//50 51//51
f 49//49 51//51 52//52
f 53//53 54//54 55//55
f 53//53 55//55 56//56
f 57//57 58//58 59//59
f 57//57 59//59 60//60
f 61//61 62//62 63//63
f 61//61 63//63 64//64
f 65//65 66//66 67//67
f 65//65 67//67 68//68
f 69//69 70//70 71//71
f 69//69 71//71 72//72
f 73//73 74//74 75//75
f 73//73 75//75 76//76
f 77//77 78//78 79//79
f 77//77 79//79 80//80
f 81//81 82//82 83//83
f 81//81 83//83 84//84
f 85//85 86//86 87//87
f 85//85 87//87 88//88
f 89//89 90//90 91//91
f 89//89 91//91 92//92
f 93//93 94//94 95//95
f 93//93 95//95 96//96
f 97//97 98//98 99//99
f 100//100 97//97 99//99
f 97//97 100//100 101//101
f 102//102 99//99 98//98
f 103//103 102//102 98//98
f 102//102 103//103 104//104
f 104//104 97//97 101//101
f 102//102 104//104 101//101
f 105//105 106//106 107//107
f 108//108 105//105 107//107
f 105//105 108//108 109//109
f 110//110 107//107 106//106
f 111//111 110//110 106//106
f 110//110 111//111 112//112
f 112//112 105//105 109//109
f 109//109 110//110 112//112
f 113//113 114//114 115//115
f 113//113 115//115 116//116
f 117//117 118//118 119//119
f 117//117 119//119 120//120
f 121//121 122//122 123//123
f 121//121 123//123 124//124
f 125//125 126//126 127//127
f 125//125 127//127 128//128
f 129//129 130//130 131//131
f 129//129 131//131 132//132
f 133//133 134//134 135//135
f 133//133 135//135 136//136
f 137//137 138//138 139//139
f 137//137 139//139 140//140
f 141//141 142//142 143//143
f 141//141 143//143 144//144
f 145//145 146//146 147//147
f 148//148 145//145 147//147
f 145//145 148//148 149//149
f 150//150 145//145 149//149
f 145//145 150//150 151//151
f 152//152 145//145 151//151
f 153//153 154//154 155//155
f 156//156 157//157 158//158
f 153//153 159//159 160//160
f 161//161 145//145 162//162
f 145//145 161//161 163//163
f 164//164 145//145 163//163
f 145//145 164//164 165//165
f 166//166 153//153 167//167
f 145//145 168//168 169//169
f 170//170 145//145 169//169
f 145//145 170//170 171//171
f 172//172 145//145 171//171
f 173//173 174//174 175//175
f 176//176 145//145 177//177
f 157//157 178//178 179//179
f 180//180 181//181 145//145
f 182//182 183//183 184//184
f 182//182 184//184 185//185
f 186//186 187//187 188//188
f 186//186 188//188 189//189
f 190//190 191//191 192//192
f 190//190 192//192 193//193
f 194//194 195//195 196//196
f 194//194 196//196 197//197
f 198//198 199//199 200//200
f 198//198 200//200 201//201
f 202//202 203//203 204//204
f 202//202 204//204 205//205
f 206//206 207//207 208//208
f 206//206 208//208 209//209
f 210//210 211//211 212//212
f 210//210 212//212 213//213
f 214//214 215//215 216//216
f 214//214 216//216 217//217
f 218//218 219//219 220//220
f 218//218 220//220 221//221
f 222//222 223//223 224//224
f 222//222 224//224 225//225
f 226//226 227//227 228//228
f 226//226 228//228 229//229
f 230//230 231//231 232//232
f 230//230 232//232 233//233
f 234//234 235//235 236//236
f 234//234 236//236 237//237
f 238//238 239//239 240//240
f 238//238 240//240 241//241
f 242//242 243//243 244//244
f 242//242 244//244 245//245
f 246//246 247//247 248//248
f 246//246 248//248 249//249
f 250//250 251//251 252//252
f 250//250 252//252 253//253
f 254//254 255//255 256//256
f 254//254 256//256 257//257
f 258//258 259//259 260//260
f 258//258 260//260 261//261
f 262//262 263//263 264//264
f 262//262 264//264 265//265
f 266//266 267//267 268//268
f 266//266 268//268 269//269
f 270//270 271//271 272//272
f 270//270 272//272 273//273
f 274//274 275//275 276//276
f 274//274 276//276 277//277
f 278//278 279//279 280//280
f 281//281 278//278 280//280
f 278//278 281//281 282//282
f 283//283 278//278 282//282
f 284//284 285//285 286//286
f 287//287 288//288 289//289
f 278//278 290//290 291//291
f 292//292 278//278 291//291
f 278//278 292//292 293//293
f 294//294 278//278 293//293
f 278//278 294//294 295//295
f 296//296 278//278 295//295
f 278//278 296//296 297//297
f 298//298 299//299 300//300
f 284//284 301//301 302//302
f 303//303 278//278 304//304
f 299//299 305//305 306//306
f 307//307 278//278 308//308
f 284//284 309//309 310//310
f 311//311 299//299 312//312
f 278//278 313//313 314//314
f 314//314 315//315 278//278
f 316//316 317//317 318//318
f 319//319 316//316 318//318
f 316//316 319//319 320//320
f 320//320 318//318 317//317
f 321//321 320//320 317//317
f 320//320 321//321 316//316
f 322//322 323//323 324//324
f 325//325 322//322 324//324
f 322//322 325//325 326//326
f 326//326 324//324 323//323
f 327//327 326//326 323//323
f 322//322 326//326 327//327
f 328//328 329//329 330//330
f 328//328 330//330 331//331
f 332//332 333//333 334//334
f 332//332 334//334 335//335
f 336//336 337//337 338//338
f 336//336 338//338 339//339
f 340//340 341//341 342//342
f 340//340 342//342 343//343
f 344//344 345//345 346//346
f 344//344 346//346 347//347
f 348//348 349//349 350//350
f 348//348 350//350 351//351
f 352//352 353//353 354//354
f 355//355 352//352 354//354
f 352//352 355//355 356//356
f 357//357 352//352 356//356
f 352//352 357//357 358//358
f 359//359 352//352 358//358
f 352//352 359//359 360//360
f 361//361 352//352 360//360
f 352//352 361//361 362//362
f 363//363 352//352 362//362
f 352//352 363//363 364//364
f 365//365 352//352 364//364
f 352//352 365//365 366//366
f 367//367 352//352 366//366
f 352//352 367//367 368//368
f 369//369 352//352 368//368
f 352//352 369//369 370//370
f 371//371 352//352 370//370
f 352//352 371//371 372//372
f 373//373 352//352 372//372
f 352//352 373//373 374//374
f 374//374 375//375 352//352
f 376//376 377//377 378//378
f 376//376 378//378 379//379
f 380//380 381//381 382//382
f 380//380 382//382 383//383
f 384//384 385//385 386//386
f 384//384 386//386 387//387
f 388//388 389//389 390//390
f 388//388 390//390 391//391
f 392//392 393//393 394//394
f 392//392 394//394 395//395
f 396//396 397//397 398//398
f 396//396 398//398 399//399
f 400//400 401//401 402//402
f 400//400 402//402 403//403
f 404//404 405//405 406//406
f 404//404 406//406 407//407
f 408//408 409//409 410//410
f 408//408 410//410 411//411
f 412//412 413//413 414//414
f 412//412 414//414 415//415
f 416//416 417//417 418//418
f 416//416 418//418 419//419
f 420//420 421//421 422//422
f 423//423 424//424 425//425
f 426//426 427//427 428//428
f 429//429 430//430 431//431
f 432//432 433//433 434//434
f 432//432 434//434 435//435
f 436//436 437//437 438//438
f 436//436 438//438 439//439
f 440//440 441//441 442//442
f 440//440 442//442 443//443
f 444//444 445//445 446//446
f 444//444 446//446 447//447
f 448//448 449//449 450//450
f 448//448 450//450 451//451
f 452//452 453//453 454//454
f 452//452 454//454 455//455
f 456//456 457//457 458//458
f 456//456 458//458 459//459
f 460//460 461//461 462//462
f 460//460 462//462 463//463
f 464//464 465//465 466//466
f 464//464 466//466 467//467
f 468//468 469//469 470//470
f 468//468 470//470 471//471
f 472//472 473//473 474//474
f 472//472 474//474 475//475
f 476//476 477//477 478//478
f 479//479 480//480 481//481
f 480//480 479//479 482//482
f 483//483 480//480 482//482
f 480//480 483//483 484//484
f 485//485 480//480 484//484
f 480//480 485//485 486//486
f 487//487 480//480 486//486
f 480//480 487//487 488//488
f 489//489 480//480 488//488
f 480//480 489//489 490//490
f 491//491 480//480 490//490
f 480//480 491//491 492//492
f 493//493 480//480 492//492
f 480//480 493//493 494//494
f 495//495 480//480 494//494
f 480//480 495//495 496//496
f 497//497 480//480 496//496
f 480//480 497//497 498//498
f 499//499 480//480 498//498
f 480//480 499//499 500//500
f 501//501 502//502 476//476
f 503//503 504//504 505//505
f 506//506 503//503 505//505
f 503//503 506//506 507//507
f 508//508 503//503 507//507
f 503//503 508//508 509//509
f 510//510 503//503 509//509
f 503//503 510//510 511//511
f 512//512 503//503 511//511
f 503//503 512//512 513//513
f 514//514 503//503 513//513
f 503//503 514//514 515//515
f 516//516 503//503 515//515
f 503//503 516//516 517//517
f 518//518 503//503 517//517
f 503//503 518//518 519//519
f 520//520 503//503 519//519
f 503//503 520//520 521//521
f 522//522 503//503 521//521
f 503//503 522//522 523//523
f 524//524 503//503 523//523
f 503//503 524//524 525//525
f 525//525 526//526 503//503
f 527//527 528//528 529//529
f 530//530 531//531 532//532
f 533//533 534//534 535//535
f 533//533 535//535 536//536
f 537//537 538//538 539//539
f 537//537 539//539 540//540
f 541//541 542//542 543//543
f 541//541 543//543 544//544
f 545//545 546//546 547//547
f 545//545 547//547 548//548
f 549//549 550//550 551//551
f 549//549 551//551 552//552
f 553//553 554//554 555//555
f 553//553 555//555 556//556
f 557//557 558//558 559//559
f 557//557 559//559 560//560
f 561//561 562//562 563//563
f 561//561 563//563 564//564
f 565//565 566//566 567//567
f 565//565 567//567 568//568
f 569//569 570//570 571//571
f 569//569 571//571 572//572
f 573//573 574//574 575//575
f 573//573 575//575 576//576
f 577//577 578//578 579//579
f 577//577 579//579 580//580
f 581//581 582//582 583//583
f 581//581 583//583 584//584
f 585//585 586//586 587//587
f 588//588 589//589 590//590
f 591//591 592//592 593//593
f 591//591 593//593 594//594
f 595//595 596//596 597//597
f 595//595 597//597 598//598
f 599//599 600//600 601//601
f 599//599 601//601 602//602
f 603//603 604//604 605//605
f 603//603 605//605 606//606
f 607//607 608//608 609//609
f 607//607 609//609 610//610
f 611//611 612//612 613//613
f 611//611 613//613 614//614
f 615//615 616//616 617//617
f 618//618 619//619 620//620
f 621//621 622//622 623//623
f 621//621 623//623 624//624
f 625//625 626//626 627//627
f 628//628 629//629 630//630
f 631//631 632//632 633//633
f 634//634 635//635 636//636
f 635//635 634//634 637//637
f 638//638 635//635 637//637
f 635//635 638//638 639//639
f 640//640 635//635 639//639
f 635//635 640//640 641//641
f 642//642 635//635 641//641
f 635//635 642//642 643//643
f 644//644 635//635 643//643
f 635//635 644//644 645//645
f 646//646 635//635 645//645
f 635//635 646//646 647//647
f 648//648 635//635 647//647
f 635//635 648//648 649//649
f 650//650 635//635 649//649
f 635//635 650//650 651//651
f 652//652 635//635 651//651
f 635//635 652//652 653//653
f 654//654 635//635 653//653
f 635//635 654//654 655//655
f 656//656 657//657 631//631
f 658//658 659//659 660//660
f 658//658 660//660 661//661
f 662//662 663//663 664//664
f 662//662 664//664 665//665
f 666//666 667//667 668//668
f 666//666 668//668 669//669
f 670//670 671//671 672//672
f 670//670 672//672 673//673
f 674//674 675//675 676//676
f 674//674 676//676 677//677
f 678//678 679//679 680//680
f 678//678 680//680 681//681
f 682//682 683//683 684//684
f 682//682 684//684 685//685
f 686//686 687//687 688//688
f 686//686 688//688 689//689
f 690//690 691//691 692//692
f 690//690 692//692 693//693
f 694//694 695//695 696//696
f 694//694 696//696 697//697
f 698//698 699//699 700//700
f 698//698 700//700 701//701
f 702//702 703//703 704//704
f 702//702 704//704 705//705
